<svg xmlns="http://www.w3.org/2000/svg" xmlns:xlink="http://www.w3.org/1999/xlink" viewBox="0 0 190 383">
  <defs>
    <rect id="a" width="23.25" height="3.63" rx="1.81"/>
    <ellipse id="b" cx="2.83" cy="2.84" rx="1.49" ry="1.49"/>
  </defs>
  <g fill="none" fill-rule="evenodd">
    <path fill="#FFF" d="M105.67 382.2c-.5-.4-1.5-.6-3-.6H86.13c-1.5 0-2.5.2-3 .6H27.61a26 26 0 0 1-26-26V144.4h-.29c-.73 0-1.33-.6-1.33-1.33v-26.33c0-.73.6-1.33 1.33-1.33h.29v-6.44h-.29c-.73 0-1.33-.6-1.33-1.33V81.31c0-.73.6-1.33 1.33-1.33h.29v-14.5h-.29A1.31 1.31 0 0 1 0 64.17V49.9c0-.74.6-1.33 1.33-1.33h.29V26a26 26 0 0 1 26-26h134.06a26 26 0 0 1 26 26v62.86h.29c.73 0 1.33.6 1.33 1.33v40.16c0 .74-.6 1.33-1.33 1.33h-.29V356.2a26 26 0 0 1-26 26h-56.01zM29.04 9.12a18.28 18.28 0 0 0-18.28 18.29v323.67a22 22 0 0 0 22 22h123.78a22 22 0 0 0 22-22V27.4c0-10.1-8.18-18.29-18.28-18.29h-14.6a3.99 3.99 0 0 0-3.94 3.35c-1.08 6.68-5.66 10.01-13.73 10.01H61.31c-8.07 0-12.65-3.33-13.73-10a3.99 3.99 0 0 0-3.94-3.36h-14.6z"/>
    <path fill="#E5E5E5" d="M1.6 34.07h3.27v2.69H1.6zm182.8 0h3.28v2.69h-3.28zM1.6 344.22h3.27v2.69H1.6zm182.8 0h3.28v2.69h-3.28z" opacity=".6"/>
    <use fill="#F4F4F4" opacity=".8" transform="translate(77 11.35)" xlink:href="#a"/>
    <g transform="translate(106.2 10)">
      <ellipse cx="2.83" cy="2.84" fill="#F4F4F4" rx="2.83" ry="2.84"/>
      <use fill="#C9C9C9" opacity=".39" xlink:href="#b"/>
    </g>
  </g>
</svg>