<svg xmlns="http://www.w3.org/2000/svg" width="75.886" height="65.694" viewBox="0 0 75.886 65.694">
    <defs>
        <style>
            .prefix__cls-1{fill:#0c9aa3}
        </style>
    </defs>
    <g id="prefix__Group_14459" data-name="Group 14459" transform="translate(-529 -1007)">
        <path id="prefix__Path_9194" d="M6702.973 6630.117l-2.294 4.866 2.294 5.673-14.25-.347-2.156-1.813-1.076-3.016.255-2.2 1.282-1.989 1.695-1.173 4.632-.3z" class="prefix__cls-1" data-name="Path 9194" transform="translate(-6098.827 -5595.277)"/>
        <circle id="prefix__Ellipse_390" cx="8" cy="8" r="8" class="prefix__cls-1" data-name="Ellipse 390" transform="translate(554 1031.443)"/>
        <path id="prefix__Path_9193" fill="#023d4d" fill-rule="evenodd" d="M173.379 664.708l1.638-3.692-11.809.016a3.48 3.48 0 0 0-1.909.55 3.253 3.253 0 0 0-1.206 1.42l-.76 1.705zm-15.5 1.6l1.12 2.513a4.734 4.734 0 0 0 1.74 2.068 4.526 4.526 0 0 0 2.478.72l1.117-.005a31.253 31.253 0 1 1 0-12.18h-1.13a4.487 4.487 0 0 0-2.473.722A4.708 4.708 0 0 0 159 662.21l-1.112 2.5H153.9a.743.743 0 0 0 .1-.432 20.334 20.334 0 1 0 0 2.473.849.849 0 0 0-.1-.44zm-5.378 0l-10.1.005a.8.8 0 0 1 .1.508 8.91 8.91 0 0 1-15.117 4.989 8.91 8.91 0 1 1 15.117-7.607.813.813 0 0 1-.094.507h10.088a.838.838 0 0 1-.1-.344 18.742 18.742 0 1 0 0 2.29.829.829 0 0 1 .1-.349zm-11.49.005h-7.814a.8.8 0 0 1 0-1.6l7.814-.005a.8.8 0 0 1-.094-.277 7.307 7.307 0 1 0-12.4 6.24 7.311 7.311 0 0 0 12.4-4.087.748.748 0 0 1 .094-.279zm33.454-.811l2.18 4.876a.941.941 0 0 1-.234 1.1.521.521 0 0 1-.357.1l-10.088.016a32.842 32.842 0 1 1 0-12.18l10.1-.013a.5.5 0 0 1 .336.1.939.939 0 0 1 .239 1.093l-2.175 4.9zm-11.248 4.5l11.8-.024-1.643-3.668-14.043.008.76 1.708a3.279 3.279 0 0 0 1.211 1.426 3.489 3.489 0 0 0 1.92.553z" data-name="Path 9193" transform="translate(428.154 374.334)"/>
    </g>
</svg>
