<svg xmlns="http://www.w3.org/2000/svg" width="40.024" height="47.302" viewBox="0 0 40.024 47.302">
    <defs>
        <style>
            .prefix__cls-1{fill:#a5adc0}
        </style>
    </defs>
    <g id="prefix__symbol" transform="translate(-42.544)">
        <g id="prefix__Group_14408" data-name="Group 14408" transform="translate(42.544)">
            <path id="prefix__Path_9161" d="M45.472 179.141a2.824 2.824 0 0 0-2.075.853 2.791 2.791 0 0 0-.853 2.047v12.223a2.912 2.912 0 0 0 2.928 2.928 2.78 2.78 0 0 0 2.061-.853 2.85 2.85 0 0 0 .839-2.075V182.04a2.911 2.911 0 0 0-2.9-2.9z" class="prefix__cls-1" data-name="Path 9161" transform="translate(-42.544 -163.819)"/>
            <path id="prefix__Path_9162" d="M142.265 4.349l2.018-3.723a.374.374 0 0 0-.142-.568.394.394 0 0 0-.568.17l-2.047 3.753a14.258 14.258 0 0 0-11.428 0L128.052.228a.394.394 0 0 0-.568-.17.374.374 0 0 0-.142.568l2.018 3.723a12.464 12.464 0 0 0-4.889 4.364 11.022 11.022 0 0 0-1.819 6.126h26.294a11.025 11.025 0 0 0-1.819-6.126 12.516 12.516 0 0 0-4.862-4.364zM130.6 9.765a1.066 1.066 0 0 1-.782.328 1.017 1.017 0 0 1-.767-.328 1.133 1.133 0 0 1 0-1.563 1.021 1.021 0 0 1 .767-.327 1.1 1.1 0 0 1 .782 1.89zm11.981 0a1.019 1.019 0 0 1-.767.328 1.109 1.109 0 0 1 0-2.217 1.022 1.022 0 0 1 .767.327 1.133 1.133 0 0 1 0 1.563z" class="prefix__cls-1" data-name="Path 9162" transform="translate(-115.8)"/>
            <path id="prefix__Path_9163" d="M123.971 204.382a3.1 3.1 0 0 0 3.126 3.127h2.1l.029 6.453a2.825 2.825 0 0 0 .853 2.075 2.792 2.792 0 0 0 2.047.853 2.912 2.912 0 0 0 2.928-2.928v-6.453h3.923v6.453a2.928 2.928 0 1 0 5.855 0v-6.453h2.132a3.1 3.1 0 0 0 3.1-3.126V185.45h-26.093z" class="prefix__cls-1" data-name="Path 9163" transform="translate(-117.007 -169.589)"/>
            <path id="prefix__Path_9164" d="M445.275 179.141a2.817 2.817 0 0 0-2.047.839 2.78 2.78 0 0 0-.853 2.061v12.223a2.823 2.823 0 0 0 .853 2.075 2.792 2.792 0 0 0 2.047.853 2.911 2.911 0 0 0 2.928-2.928V182.04a2.779 2.779 0 0 0-.853-2.061 2.851 2.851 0 0 0-2.075-.838z" class="prefix__cls-1" data-name="Path 9164" transform="translate(-408.179 -163.819)"/>
        </g>
    </g>
</svg>
