<svg xmlns="http://www.w3.org/2000/svg" width="109.504" height="53.27" viewBox="0 0 109.504 53.27">
    <defs>
        <style>
            .prefix__cls-1{fill:#023d4d}.prefix__cls-2{fill:#1d8295}
        </style>
    </defs>
    <g id="prefix__Group_14846" data-name="Group 14846" transform="translate(5103 -1618)">
        <g id="prefix__apple" transform="translate(-5035.203 1618)">
            <path id="prefix__Path_9159" d="M59.85 157.091c-7.568-.044-13.828-15.492-13.828-23.359 0-12.851 9.641-15.665 13.356-15.665a15.369 15.369 0 0 1 5.039 1.239 11.265 11.265 0 0 0 2.878.825 8.954 8.954 0 0 0 2.064-.669 16.545 16.545 0 0 1 6.222-1.5h.019c1.823 0 7.35.4 10.672 5.39l.778 1.17-1.12.845c-1.6 1.207-4.52 3.41-4.52 7.773a8.773 8.773 0 0 0 4.9 8.11c.7.422 1.427.857 1.427 1.808 0 .621-4.958 13.96-12.158 13.96a9.777 9.777 0 0 1-4.105-1 8.325 8.325 0 0 0-3.654-.88 9.4 9.4 0 0 0-2.894.783 14.173 14.173 0 0 1-5.019 1.171z" class="prefix__cls-1" data-name="Path 9159" transform="translate(-46.022 -106.243)"/>
            <path id="prefix__Path_9160" d="M264.707 0c.188 6.761-4.648 11.451-9.477 11.157C254.434 5.762 260.059 0 264.707 0z" class="prefix__cls-1" data-name="Path 9160" transform="translate(-234.385)"/>
        </g>
        <g id="prefix__symbol" transform="translate(-5103 1620.422)">
            <g id="prefix__Group_14408" data-name="Group 14408">
                <path id="prefix__Path_9161" d="M45.691 179.141a3.036 3.036 0 0 0-2.23.917 3 3 0 0 0-.917 2.2V195.4a3.13 3.13 0 0 0 3.147 3.148 2.989 2.989 0 0 0 2.216-.917 3.063 3.063 0 0 0 .9-2.231v-13.14a3.13 3.13 0 0 0-3.117-3.117z" class="prefix__cls-2" data-name="Path 9161" transform="translate(-42.544 -162.671)"/>
                <path id="prefix__Path_9162" d="M143.735 4.675l2.17-4a.4.4 0 0 0-.152-.611.423.423 0 0 0-.611.183l-2.2 4.034a15.327 15.327 0 0 0-12.285 0l-2.2-4.034a.424.424 0 0 0-.611-.183.4.4 0 0 0-.152.611l2.17 4a13.4 13.4 0 0 0-5.256 4.691 11.848 11.848 0 0 0-1.956 6.586h28.265a11.851 11.851 0 0 0-1.956-6.586 13.455 13.455 0 0 0-5.226-4.691zM131.191 10.5a1.146 1.146 0 0 1-.841.352 1.094 1.094 0 0 1-.825-.352 1.218 1.218 0 0 1 0-1.68 1.1 1.1 0 0 1 .825-.351 1.188 1.188 0 0 1 .841 2.031zm12.88 0a1.1 1.1 0 0 1-.825.352 1.192 1.192 0 0 1 0-2.383 1.1 1.1 0 0 1 .825.351 1.218 1.218 0 0 1 0 1.68z" class="prefix__cls-2" data-name="Path 9162" transform="translate(-115.286)"/>
                <path id="prefix__Path_9163" d="M123.971 205.8a3.337 3.337 0 0 0 3.361 3.361h2.261l.031 6.937a3.037 3.037 0 0 0 .917 2.231 3 3 0 0 0 2.2.917 3.13 3.13 0 0 0 3.147-3.148v-6.937h4.212v6.939a3.147 3.147 0 1 0 6.294 0v-6.937h2.292a3.337 3.337 0 0 0 3.331-3.361V185.45h-28.05z" class="prefix__cls-2" data-name="Path 9163" transform="translate(-116.485 -168.4)"/>
                <path id="prefix__Path_9164" d="M445.493 179.141a3.028 3.028 0 0 0-2.2.9 2.988 2.988 0 0 0-.917 2.215V195.4a3.035 3.035 0 0 0 .917 2.231 3 3 0 0 0 2.2.917 3.13 3.13 0 0 0 3.147-3.148v-13.14a2.988 2.988 0 0 0-.917-2.215 3.065 3.065 0 0 0-2.23-.904z" class="prefix__cls-2" data-name="Path 9164" transform="translate(-405.615 -162.671)"/>
            </g>
        </g>
    </g>
</svg>
