<svg xmlns="http://www.w3.org/2000/svg" width="618.317" height="524" viewBox="0 0 618.317 524">
    <defs>
        <filter id="prefix__Rectangle" width="214.317" height="232" x="0" y="20" filterUnits="userSpaceOnUse">
            <feOffset dy="6"/>
            <feGaussianBlur result="blur" stdDeviation="5"/>
            <feFlood flood-color="#8386a3" flood-opacity=".122"/>
            <feComposite in2="blur" operator="in"/>
            <feComposite in="SourceGraphic"/>
        </filter>
        <filter id="prefix__Rectangle_Copy_3" width="214.317" height="232" x="202" y="70" filterUnits="userSpaceOnUse">
            <feOffset dy="6"/>
            <feGaussianBlur result="blur-2" stdDeviation="5"/>
            <feFlood flood-color="#8386a3" flood-opacity=".122"/>
            <feComposite in2="blur-2" operator="in"/>
            <feComposite in="SourceGraphic"/>
        </filter>
        <filter id="prefix__Rectangle_Copy_4" width="214.317" height="232" x="404" y="0" filterUnits="userSpaceOnUse">
            <feOffset dy="6"/>
            <feGaussianBlur result="blur-3" stdDeviation="5"/>
            <feFlood flood-color="#8386a3" flood-opacity=".122"/>
            <feComposite in2="blur-3" operator="in"/>
            <feComposite in="SourceGraphic"/>
        </filter>
        <filter id="prefix__Rectangle_Copy_5" width="214.317" height="232" x="0" y="242" filterUnits="userSpaceOnUse">
            <feOffset dy="6"/>
            <feGaussianBlur result="blur-4" stdDeviation="5"/>
            <feFlood flood-color="#8386a3" flood-opacity=".122"/>
            <feComposite in2="blur-4" operator="in"/>
            <feComposite in="SourceGraphic"/>
        </filter>
        <filter id="prefix__Rectangle_Copy_7" width="214.317" height="232" x="202" y="292" filterUnits="userSpaceOnUse">
            <feOffset dy="6"/>
            <feGaussianBlur result="blur-5" stdDeviation="5"/>
            <feFlood flood-color="#8386a3" flood-opacity=".122"/>
            <feComposite in2="blur-5" operator="in"/>
            <feComposite in="SourceGraphic"/>
        </filter>
        <filter id="prefix__Rectangle_Copy_6" width="214.317" height="232" x="404" y="222" filterUnits="userSpaceOnUse">
            <feOffset dy="6"/>
            <feGaussianBlur result="blur-6" stdDeviation="5"/>
            <feFlood flood-color="#8386a3" flood-opacity=".122"/>
            <feComposite in2="blur-6" operator="in"/>
            <feComposite in="SourceGraphic"/>
        </filter>
        <clipPath id="prefix__clip-path">
            <path id="prefix__Clip_2" d="M0 0h62.138v47.131H0z" class="prefix__cls-1" data-name="Clip 2" transform="translate(.001 .002)"/>
        </clipPath>
        <clipPath id="prefix__clip-path-2">
            <path id="prefix__Clip_2-2" d="M0 0h62.7v52.255H0z" class="prefix__cls-1" data-name="Clip 2"/>
        </clipPath>
        <clipPath id="prefix__clip-path-3">
            <path id="prefix__Clip_2-3" d="M0 0h35.385v57.42H0z" class="prefix__cls-1" data-name="Clip 2" transform="translate(0 .999)"/>
        </clipPath>
        <clipPath id="prefix__clip-path-4">
            <path id="prefix__Clip_2-4" d="M0 0h55.375v36.835H0z" class="prefix__cls-1" data-name="Clip 2" transform="translate(0 .001)"/>
        </clipPath>
        <style>
            .prefix__cls-1{fill:none}.prefix__cls-2{fill:#fff}.prefix__cls-3,.prefix__cls-9{fill:#3291e9}.prefix__cls-4{fill:#0047cc}.prefix__cls-5{fill:#242833;font-size:16px;font-family:HelveticaNeue,Helvetica Neue}.prefix__cls-9{stroke-miterlimit:10;stroke:#0047cc}.prefix__cls-12{stroke:none}
        </style>
    </defs>
    <g id="prefix__Group_14793" data-name="Group 14793" transform="translate(-942 -2583)">
        <g id="prefix__Group_14788" data-name="Group 14788" transform="translate(-1070 13285)">
            <g filter="url(#prefix__Rectangle)" transform="translate(2012 -10702)">
                <rect id="prefix__Rectangle-2" width="184.317" height="202" class="prefix__cls-2" data-name="Rectangle" rx="4" transform="translate(15 29)"/>
            </g>
            <g id="prefix__ComputerSupport" transform="translate(2086 -10611)">
                <g id="prefix__Group_4" data-name="Group 4">
                    <path id="prefix__Rectangle-3" d="M0 0H52V5H0z" class="prefix__cls-3" data-name="Rectangle" transform="translate(1 30)"/>
                    <path id="prefix__Rectangle_Copy_8" d="M0 0H26V3H0z" class="prefix__cls-3" data-name="Rectangle Copy 8" transform="translate(14 39)"/>
                    <path id="prefix__Fill_1" d="M63.623 42.4h-18.21a1.909 1.909 0 0 1-1.363-.566.125.125 0 0 1-.029-.03 1.924 1.924 0 0 1-.535-1.331V35.7h-9.935v2.8h6.825a.552.552 0 0 1 .551.552v2.78a.551.551 0 0 1-.551.55H13.619a.55.55 0 0 1-.549-.55v-2.78a.551.551 0 0 1 .549-.552h6.826v-2.8H1.929a1.912 1.912 0 0 1-1.361-.564l-.033-.035A1.929 1.929 0 0 1 0 33.771v-3.517a.38.38 0 0 1 0-.063V1.927A1.913 1.913 0 0 1 .531.6L.542.588a.312.312 0 0 1 .02-.024A1.946 1.946 0 0 1 1.733.007h61.89a1.93 1.93 0 0 1 1.927 1.92v38.542a1.927 1.927 0 0 1-1.927 1.931zm-19.038-6.7v4.772a.828.828 0 0 0 .221.564l.023.021a.813.813 0 0 0 .583.241h18.21a.827.827 0 0 0 .828-.826V1.927a.821.821 0 0 0-.828-.824h-9.814v.009l.007.011v.011l.007.012v.015l.007.009v.012l.007.015v.009l.005.013v.023l.008.014v.007l.007.017v.011l.005.015.005.011.005.013v.025l.006.014v.007l.005.014v.011l.005.015v.013l.005.011v.026l.005.014v.031l.007.019V9.666h6.271a.553.553 0 0 1 0 1.106h-6.18V32.6h2.989a.551.551 0 0 1 .549.552v4.927a.55.55 0 0 1-.549.549h-4.927a.551.551 0 0 1-.552-.549V35.7zM14.17 39.6v1.677h25.656V39.6H14.17zm7.376-3.9v2.8h10.9v-2.8zm31.071-.079h-.011v1.9h3.824V33.7h-2.435v.07a1.915 1.915 0 0 1-.566 1.363l-.011.011v.005l-.007.006-.009.009-.011.009-.005.007h-.006l-.011.012-.011.009-.007.007h-.006l-.009.011-.011.01-.009.007-.013.011-.006.005h-.005l-.011.01h-.005l-.008.009h-.007l-.005.005-.013.012-.012.007-.005.005h-.007l-.011.007-.014.009-.007.008h-.007l-.009.009-.013.007-.007.007-.016.012-.013.007-.01.007-.016.007-.01.005-.011.008-.014.009H53.048l-.014.009-.011.007H53.01l-.013.007-.014.005-.005.005h-.008l-.014.005-.009.008h-.017l-.013.007h-.013l-.012.007h-.018l-.011.008-.014.007-.018.005-.013.005-.013.005-.013.005h-.012l-.018.008-.017.007h-.025l-.017.007h-.009l-.02.007h-.022l-.015.007h-.005zM1.1 30.745v3.026a.811.811 0 0 0 .221.563l.022.022a.823.823 0 0 0 .581.242h50.144a.83.83 0 0 0 .824-.826v-3.027zm.24-29.4a.839.839 0 0 0-.24.584v27.712h51.792V1.813L52.88 1.8v-.017l-.005-.011v-.038l-.005-.011v-.071l-.005-.012v-.018l-.005-.009v-.01l-.038-.003v-.009l-.005-.009v-.017l-.017-.012v-.016l-.005-.01-.005-.009v-.016l-.005-.01-.005-.009-.007-.007v-.009l-.007-.009v-.006l-.008-.009-.005-.007-.005-.009-.007-.008-.005-.009-.036-.01h-.006l-.007-.007-.007-.01-.005-.009h-.007l-.007-.009-.008-.005-.007-.007a.765.765 0 0 0-.273-.183l-.032-.013h-.016l-.017-.005H52.269l-.007-.005h-.039l-.011-.006H1.855a.8.8 0 0 0-.507.24zm29.051 31.84H23.6a.55.55 0 0 1 0-1.1h6.8a.55.55 0 1 1 0 1.1z" class="prefix__cls-4" data-name="Fill 1"/>
                </g>
            </g>
            <text id="prefix__Computer_Support_Copy" class="prefix__cls-5" data-name="Computer Support Copy" transform="translate(2052 -10527)">
                <tspan x="0" y="15">Computer Support</tspan>
            </text>
        </g>
        <g id="prefix__Group_14787" data-name="Group 14787" transform="translate(-1070 13335)">
            <g filter="url(#prefix__Rectangle_Copy_3)" transform="translate(2012 -10752)">
                <rect id="prefix__Rectangle_Copy_3-2" width="184.317" height="202" class="prefix__cls-2" data-name="Rectangle Copy 3" rx="4" transform="translate(217 79)"/>
            </g>
            <g id="prefix__TvMounting" transform="translate(2289 -10604)">
                <path id="prefix__Rectangle_Copy_10" d="M0 0H42V5H0z" class="prefix__cls-3" data-name="Rectangle Copy 10" transform="translate(11 35)"/>
                <path id="prefix__Fill_1-2" d="M53.067 40.035H11.16a.579.579 0 0 1-.579-.579v-3.367H3.466A3.472 3.472 0 0 1 0 32.623V3.466a3.454 3.454 0 0 1 1.019-2.447l.005-.006A3.45 3.45 0 0 1 3.466 0h57.291a3.469 3.469 0 0 1 3.466 3.466v29.157a3.469 3.469 0 0 1-3.466 3.466h-7.113v3.367a.578.578 0 0 1-.577.579zm-41.331-3.946v2.787h40.753v-2.787zM57.91 1.154v33.78h2.848a2.3 2.3 0 0 0 2.309-2.311V3.466a2.309 2.309 0 0 0-2.309-2.312zM7.472 30.7v4.235h49.284V30.7zM3.466 1.154a2.317 2.317 0 0 0-2.31 2.312v29.157a2.318 2.318 0 0 0 2.31 2.311h2.847v-4.749V1.154zm4.006 0v28.391h49.284V1.152zm26.873 32.882h-4.467a.578.578 0 0 1-.576-.579V31.63a.576.576 0 0 1 .576-.574h4.467a.576.576 0 0 1 .576.574v1.828a.578.578 0 0 1-.576.578zm-3.889-1.827v.67h3.309v-.67z" class="prefix__cls-4" data-name="Fill 1"/>
            </g>
            <text id="prefix__TV_Mounting_Copy" class="prefix__cls-5" data-name="TV Mounting Copy" transform="translate(2275 -10526)">
                <tspan x="0" y="15">TV Mounting</tspan>
            </text>
        </g>
        <g id="prefix__Group_14791" data-name="Group 14791" transform="translate(-666 13051)">
            <g filter="url(#prefix__Rectangle_Copy_4)" transform="translate(1608 -10468)">
                <rect id="prefix__Rectangle_Copy_4-2" width="184.317" height="202" class="prefix__cls-2" data-name="Rectangle Copy 4" rx="4" transform="translate(419 9)"/>
            </g>
            <g id="prefix__Audio-_-Video" data-name="Audio-&amp;-Video" transform="translate(2087 -10404)">
                <g id="prefix__Group_3" data-name="Group 3">
                    <path id="prefix__Clip_2-5" d="M0 0h62.138v47.131H0z" class="prefix__cls-1" data-name="Clip 2" transform="translate(.001 .002)"/>
                    <g id="prefix__Group_3-2" clip-path="url(#prefix__clip-path)" data-name="Group 3">
                        <path id="prefix__Fill_1-3" d="M57.721 47.131H4.414A4.413 4.413 0 0 1 0 42.718V4.19l.01-.06v-.111l.005-.054.015-.056V3.853L.041 3.8l.009-.053.01-.054.01-.055.007-.051v-.006l.011-.051.012-.051.013-.057.012-.049.007-.049.018-.052.014-.051v-.012l.014-.046v-.008L.2 3.109l.014-.049v-.005l.014-.049.015-.049v-.005L.266 2.9l.02-.049.014-.045.023-.044v-.007l.017-.049.023-.05.019-.049.023-.044.024-.05.02-.044.027-.05.024-.054.022-.04v-.007l.02-.042.022-.04.03-.044v-.007l.024-.037v-.01l.022-.037v-.007l.054-.044v-.01L.724 2h.002l.024-.04.03-.045.032-.044v-.008l.027-.034.005-.01.024-.034.007-.005.027-.037h.005L.938 1.7l.005-.007.027-.036v-.005l.03-.03.007-.01.03-.037h.005l.027-.032.007-.007.03-.034v-.007l.03-.032h.007l.027-.035h.008l.029-.032.008-.007.029-.032.008-.008.027-.027L1.3 1.3l.01-.012.031-.03.005-.005.029-.027.01-.01.03-.029.01-.008.032-.031.034-.03h.005l.031-.035h.01l.032-.03h.007l.032-.027L1.62 1l.034-.03.035-.03.046-.026.01-.005.033-.032V.872l.04-.027.04-.027h.005l.045-.033V.778l.04-.022V.751l.046-.027L2 .721 2.04.7h.008l.037-.036.044-.024h.007l.043-.024.041-.03h.01l.037-.027h.01l.04-.024.042-.02.04-.02.06-.035h.005l.042-.027.05-.02L2.6.392h.007l.044-.025.049-.02h.005l.047-.02L2.8.308l.05-.02h.007L2.9.266l.05-.017.055-.018.05-.017h.005L3.107.2l.051-.015.051-.015.006-.005.047-.01.054-.017.049-.015h.007l.047-.01L3.473.1l.052-.009.056-.012.052-.01.054-.01h.005L3.744.05 3.8.041l.055-.007.052-.007h.059l.053-.01h.054L4.13 0h53.591a4.423 4.423 0 0 1 4.418 4.411v38.307a4.392 4.392 0 0 1-1.294 3.118l-.005.005a4.4 4.4 0 0 1-3.119 1.29zm-7.665-7.205v5.736h7.665A2.92 2.92 0 0 0 59.8 44.8l.005-.007a2.924 2.924 0 0 0 .859-2.08v-2.787zM13.556 1.47v44.192h35.025V1.47zM1.47 39.926v2.792a2.955 2.955 0 0 0 2.944 2.944h7.668v-5.736zM50.055 29.48v8.977h10.612V29.48zm-48.586 0v8.977h10.614V29.48zm48.586-10.354V28h10.612v-8.874zm-48.586 0V28h10.614v-8.874zm48.586-10.4v8.925h10.612V8.726zm-48.586 0v8.925h10.614V8.726zM50.055 1.47v5.79h10.61V4.411a2.955 2.955 0 0 0-2.944-2.941zm-45.642 0a2.9 2.9 0 0 0-2.077.864h-.005a2.906 2.906 0 0 0-.861 2.077v2.848h10.612V1.47zm17.916 32.913a.729.729 0 0 1-.66-.409.689.689 0 0 1-.076-.322h-.006V12.713a.739.739 0 0 1 1.108-.635l21.194 10.447a.731.731 0 0 1 .332.98.712.712 0 0 1-.342.338L22.651 34.309a.731.731 0 0 1-.322.074zm.734-20.483v18.573l18.837-9.29z" class="prefix__cls-4" data-name="Fill 1" transform="translate(.001 .002)"/>
                    </g>
                </g>
                <g id="prefix__Path" fill="#3291e9" stroke-miterlimit="10">
                    <path d="M.741 21.903c-.071 0-.164-.034-.21-.13l-.004-.005-.003-.006c-.012-.024-.02-.056-.02-.09v-.5H.5V.733C.5.604.606.5.736.5.781.5.821.51.853.529l.017.01.017.008L22.08 10.994c.075.036.106.099.117.133.012.034.026.102-.011.176-.025.05-.059.085-.102.104l-.007.004-.006.003L.842 21.88c-.03.015-.065.023-.1.023z" class="prefix__cls-12" transform="translate(21.589 11.982)"/>
                    <path fill="#0047cc" d="M1 1.16v19.511h.005v.572L21.37 11.2 1 1.161M.736 0c.135 0 .263.034.372.098l21.194 10.447c.361.177.512.618.332.98-.076.155-.197.27-.342.337L1.063 22.33c-.103.05-.214.074-.322.074-.272 0-.533-.15-.66-.41-.054-.103-.076-.216-.076-.322H0V.734C0 .33.33 0 .736 0z" transform="translate(21.589 11.982)"/>
                </g>
            </g>
            <text id="prefix__Audio_Video_Copy" class="prefix__cls-5" data-name="Audio &amp; Video Copy" transform="translate(2068 -10313)">
                <tspan x="0" y="15">Audio &amp; Video</tspan>
            </text>
        </g>
        <g id="prefix__Group_14789" data-name="Group 14789" transform="translate(-1272 13293)">
            <g filter="url(#prefix__Rectangle_Copy_5)" transform="translate(2214 -10710)">
                <rect id="prefix__Rectangle_Copy_5-2" width="184.317" height="202" class="prefix__cls-2" data-name="Rectangle Copy 5" rx="4" transform="translate(15 251)"/>
            </g>
            <g id="prefix__Wifi-_-Network" data-name="Wifi-&amp;-Network" transform="translate(2289 -10404)">
                <g id="prefix__Group_2" data-name="Group 2">
                    <g id="prefix__Group_3-3" data-name="Group 3">
                        <path id="prefix__Clip_2-6" d="M0 0h62.7v52.255H0z" class="prefix__cls-1" data-name="Clip 2"/>
                        <g id="prefix__Group_3-4" clip-path="url(#prefix__clip-path-2)" data-name="Group 3">
                            <path id="prefix__Fill_1-4" d="M31.451 52.255a6.255 6.255 0 1 1 4.426-1.831 6.235 6.235 0 0 1-4.426 1.831zm0-11.291a5.033 5.033 0 1 0 3.555 1.474 5 5 0 0 0-3.55-1.474zm7.626-3.239a3.731 3.731 0 0 1-1.9-.527 11.263 11.263 0 0 0-5.738-1.598H31.4a11.324 11.324 0 0 0-5.72 1.569 3.709 3.709 0 0 1-1.877.52 3.6 3.6 0 0 1-.467-.03 3.65 3.65 0 0 1-2.143-1.059l-1.468-1.462a3.6 3.6 0 0 1-1.061-3.014 3.607 3.607 0 0 1 1.678-2.717A20.454 20.454 0 0 1 31.437 26.1h.033a20.349 20.349 0 0 1 11.093 3.34 3.722 3.722 0 0 1 1.147 1.167 3.81 3.81 0 0 1 .33 3.175 3.605 3.605 0 0 1-.879 1.374l-1.476 1.476a3.646 3.646 0 0 1-2.6 1.093zm-7.677-3.35h.035a12.511 12.511 0 0 1 6.367 1.761 2.5 2.5 0 0 0 1.279.356 2.4 2.4 0 0 0 1.729-.732l1.472-1.474a2.367 2.367 0 0 0 .715-2 2.494 2.494 0 0 0-.338-1.037 2.438 2.438 0 0 0-.768-.776 19.067 19.067 0 0 0-10.421-3.144h-.033A19.262 19.262 0 0 0 21 30.446a2.377 2.377 0 0 0-1.115 1.81 2.368 2.368 0 0 0 .708 2.012l1.468 1.463a2.46 2.46 0 0 0 1.43.715 2.389 2.389 0 0 0 .3.02 2.5 2.5 0 0 0 1.262-.348 12.519 12.519 0 0 1 6.347-1.743zm17.059-6.033a3.711 3.711 0 0 1-2.262-.766 24.317 24.317 0 0 0-14.762-5.008h-.03a24.351 24.351 0 0 0-14.748 4.982 3.7 3.7 0 0 1-2.243.758c-.081 0-.163 0-.244-.008a3.7 3.7 0 0 1-2.365-1.077l-1.431-1.433a3.678 3.678 0 0 1 .337-5.533 34.268 34.268 0 0 1 9.963-5.434 33 33 0 0 1 10.766-1.806h.029a32.977 32.977 0 0 1 10.8 1.83 33.9 33.9 0 0 1 9.909 5.449 3.714 3.714 0 0 1 1 1.187 3.831 3.831 0 0 1 .177 3.033 3.708 3.708 0 0 1-.851 1.3l-1.436 1.441a3.712 3.712 0 0 1-2.374 1.08h-.017c-.071.003-.143.005-.214.005zm-17.054-7h.03A25.549 25.549 0 0 1 46.949 26.6a2.489 2.489 0 0 0 1.5.513h.166a2.472 2.472 0 0 0 1.579-.723l1.437-1.439a2.358 2.358 0 0 0 .723-1.889 2.456 2.456 0 0 0-.271-1 2.371 2.371 0 0 0-.664-.793 32.679 32.679 0 0 0-9.547-5.251 31.746 31.746 0 0 0-10.4-1.764h-.02a31.807 31.807 0 0 0-10.374 1.74 33.046 33.046 0 0 0-9.6 5.238 2.4 2.4 0 0 0-.671.8 2.443 2.443 0 0 0-.273 1 2.5 2.5 0 0 0 .147 1.031 2.448 2.448 0 0 0 .574.867l1.431 1.431a2.459 2.459 0 0 0 1.577.723c.055 0 .111.006.166.006a2.441 2.441 0 0 0 1.494-.505 25.592 25.592 0 0 1 15.494-5.232zm26.177-2.124a3.72 3.72 0 0 1-2.42-.894 36.817 36.817 0 0 0-23.824-8.837h-.147A36.644 36.644 0 0 0 7.5 18.125 3.7 3.7 0 0 1 5.118 19h-.152A3.692 3.692 0 0 1 2.5 17.918L1.083 16.5a3.675 3.675 0 0 1-.839-1.268A3.714 3.714 0 0 1 0 13.73a3.647 3.647 0 0 1 .359-1.47 3.712 3.712 0 0 1 .938-1.2A46.061 46.061 0 0 1 31.244 0h.168A45.923 45.923 0 0 1 61.43 11.291l.037.032a3.705 3.705 0 0 1 .886 1.165 3.744 3.744 0 0 1 .347 1.47 3.625 3.625 0 0 1-1.081 2.742l-.71.71-.715.715a3.7 3.7 0 0 1-2.476 1.084zM31.182 8.26h.162a38.052 38.052 0 0 1 24.621 9.123 2.476 2.476 0 0 0 1.6.6h.1a2.481 2.481 0 0 0 1.649-.726l.716-.713.711-.715a2.5 2.5 0 0 0 .562-.832 2.6 2.6 0 0 0 .163-1 2.518 2.518 0 0 0-.231-.977 2.492 2.492 0 0 0-.587-.768l-.032-.029A44.677 44.677 0 0 0 31.412 1.231h-.172A44.813 44.813 0 0 0 2.1 12a2.483 2.483 0 0 0-.63.795 2.563 2.563 0 0 0-.239.989 2.412 2.412 0 0 0 .161 1 2.492 2.492 0 0 0 .562.841l1.422 1.423a2.452 2.452 0 0 0 1.637.724h.1a2.471 2.471 0 0 0 1.6-.584A37.873 37.873 0 0 1 31.182 8.26z" class="prefix__cls-4" data-name="Fill 1" transform="translate(-.001)"/>
                            <path id="prefix__Path-2" d="M2.552 10.5L1.085 9.041A3.6 3.6 0 0 1 .023 6.026 3.607 3.607 0 0 1 1.7 3.309a20.225 20.225 0 0 1 22.22.031 3.734 3.734 0 0 1 1.48 4.342 3.619 3.619 0 0 1-.879 1.375l-1.476 1.476a3.666 3.666 0 0 1-2.158 1.067 3.7 3.7 0 0 1-2.347-.5 11.239 11.239 0 0 0-11.5-.025 3.668 3.668 0 0 1-4.49-.572" class="prefix__cls-9" data-name="Path" transform="translate(18.64 26.1)"/>
                        </g>
                    </g>
                    <path id="prefix__Combined_Shape" d="M6.26 0a6.259 6.259 0 1 1-4.425 1.831A6.256 6.256 0 0 1 6.26 0" class="prefix__cls-9" data-name="Combined Shape"/>
                </g>
            </g>
            <text id="prefix__Wifi_Network_Copy" class="prefix__cls-5" data-name="Wifi &amp; Network Copy" transform="translate(2267 -10312)">
                <tspan x="0" y="15">Wifi &amp; Network</tspan>
            </text>
        </g>
        <g id="prefix__Group_14792" data-name="Group 14792" transform="translate(-868 13129)">
            <g filter="url(#prefix__Rectangle_Copy_7)" transform="translate(1810 -10546)">
                <rect id="prefix__Rectangle_Copy_7-2" width="184.317" height="202" class="prefix__cls-2" data-name="Rectangle Copy 7" rx="4" transform="translate(217 301)"/>
            </g>
            <g id="prefix__Mobile-_-Tablets" data-name="Mobile-&amp;-Tablets" transform="translate(2101 -10184)">
                <rect id="prefix__Rectangle-4" width="27" height="43" class="prefix__cls-2" data-name="Rectangle" rx="1" transform="translate(4 7)"/>
                <g id="prefix__Group_3-5" data-name="Group 3">
                    <path id="prefix__Clip_2-7" d="M0 0h35.385v57.42H0z" class="prefix__cls-1" data-name="Clip 2" transform="translate(0 .999)"/>
                    <g id="prefix__Group_3-6" clip-path="url(#prefix__clip-path-3)" data-name="Group 3">
                        <path id="prefix__Fill_1-5" d="M31.351 57.42H4.034A4.044 4.044 0 0 1 0 53.385V4.034A4.047 4.047 0 0 1 4.034 0h27.317a4.047 4.047 0 0 1 4.034 4.034v49.351a4.009 4.009 0 0 1-1.185 2.849 4.007 4.007 0 0 1-2.849 1.186zM4.035 1.35a2.7 2.7 0 0 0-2.69 2.685v49.35a2.7 2.7 0 0 0 2.689 2.689h27.317a2.685 2.685 0 0 0 1.9-.783 2.687 2.687 0 0 0 .786-1.9V4.035a2.665 2.665 0 0 0-.786-1.9 2.669 2.669 0 0 0-1.9-.783zm27.26 45.916H4.1a.675.675 0 0 1-.675-.673V6.143a.676.676 0 0 1 .675-.675h27.2a.673.673 0 0 1 .669.675v40.45a.672.672 0 0 1-.674.673zM4.767 6.818v39.107H30.62V6.818z" class="prefix__cls-4" data-name="Fill 1" transform="translate(0 1)"/>
                    </g>
                </g>
                <circle id="prefix__Oval" cx="2.5" cy="2.5" r="2.5" class="prefix__cls-9" transform="translate(15 50)"/>
            </g>
            <text id="prefix__Mobile_Tablets_Copy" class="prefix__cls-5" data-name="Mobile &amp; Tablets Copy" transform="translate(2059 -10098)">
                <tspan x="0" y="15">Mobile &amp; Tablets</tspan>
            </text>
        </g>
        <g id="prefix__Group_14790" data-name="Group 14790" transform="translate(-868 13059)">
            <g filter="url(#prefix__Rectangle_Copy_6)" transform="translate(1810 -10476)">
                <rect id="prefix__Rectangle_Copy_6-2" width="184.317" height="202" class="prefix__cls-2" data-name="Rectangle Copy 6" rx="4" transform="translate(419 231)"/>
            </g>
            <g id="prefix__Web-Hosting" transform="translate(2293 -10173)">
                <g id="prefix__Rectangle-5" class="prefix__cls-9" data-name="Rectangle">
                    <path d="M0 0H6V6H0z" class="prefix__cls-12" transform="translate(42 23)"/>
                    <path d="M0.5 0.5H5.5V5.5H0.5z" class="prefix__cls-1" transform="translate(42 23)"/>
                </g>
                <g id="prefix__Group_3-7" data-name="Group 3">
                    <path id="prefix__Clip_2-8" d="M0 0h55.375v36.835H0z" class="prefix__cls-1" data-name="Clip 2" transform="translate(0 .001)"/>
                    <g id="prefix__Group_3-8" clip-path="url(#prefix__clip-path-4)" data-name="Group 3">
                        <path id="prefix__Fill_1-6" d="M51.513 36.835H3.862A3.866 3.866 0 0 1 0 32.973V16.212a3.935 3.935 0 0 1 .056-.657 3.867 3.867 0 0 1 .168-.642l4.42-12.352A3.8 3.8 0 0 1 8.277 0H47.1a3.81 3.81 0 0 1 3.636 2.56l4.415 12.353a3.611 3.611 0 0 1 .167.638 3.72 3.72 0 0 1 .057.661v16.761a3.866 3.866 0 0 1-3.865 3.862zM3.862 16.3a2.581 2.581 0 0 0-2.576 2.574v14.1a2.587 2.587 0 0 0 2.576 2.576h47.651a2.569 2.569 0 0 0 1.822-.753 2.548 2.548 0 0 0 .754-1.818v-14.1a2.581 2.581 0 0 0-2.576-2.579zM8.277 1.283a2.594 2.594 0 0 0-1.49.461 2.563 2.563 0 0 0-.932 1.247L1.436 15.349a2.109 2.109 0 0 0-.114.424c-.009.053-.015.108-.022.165l-.006.057a3.851 3.851 0 0 1 2.568-.983h47.651a3.885 3.885 0 0 1 2.572.978l-.006-.049c-.006-.056-.013-.114-.025-.169a2.18 2.18 0 0 0-.112-.424L49.528 2.992A2.526 2.526 0 0 0 47.1 1.283zm39.883 28.27h-5.971a.645.645 0 0 1-.643-.644v-5.971a.644.644 0 0 1 .643-.644h5.971a.643.643 0 0 1 .642.644v5.971a.644.644 0 0 1-.642.644zm-5.326-5.969v4.678h4.683v-4.677zm-8.844 2.983H6.6a.644.644 0 1 1 0-1.288h27.389a.644.644 0 1 1 0 1.288z" class="prefix__cls-4" data-name="Fill 1" transform="translate(-.002 .001)"/>
                    </g>
                </g>
            </g>
            <text id="prefix__Web_Hosting" class="prefix__cls-5" data-name="Web Hosting" transform="translate(2275 -10099)">
                <tspan x="0" y="15">Web Hosting</tspan>
            </text>
        </g>
    </g>
</svg>
