<svg id="Layer_1" data-name="Layer 1" xmlns="http://www.w3.org/2000/svg" viewBox="0 0 324.17 140.7"><defs><style>.cls-1{fill:#fff;}.cls-2{fill:#13183b;}.cls-3{fill:#9e9875;}</style></defs><title>Auj-Lawyers</title><rect class="cls-1" width="324.17" height="140.7"/><path class="cls-2" d="M104.8,51.19c.34-.1.61.13.82.68l7.46,19.28a9.89,9.89,0,0,0,1.13,2,3,3,0,0,0,1.13.92,7,7,0,0,0,1.66.19l.15.13c0,.27-.13.4-.37.4l-1,.06c-4.26,0-6.4-.07-6.42-.23v-.28a.79.79,0,0,1,.5-.18.65.65,0,0,0,.22-.45L107.64,67l-.17-.09h-6.64l-.23.36L98.88,72l-.23,1c0,.61.08,1,.31,1.09l.37.14a4.15,4.15,0,0,1,1.32.1c.09.23,0,.4-.15.48-2,0-4.38,0-7.27,0l-.18-.17,0-.31.31-.1a2.92,2.92,0,0,0,2-.5,6.1,6.1,0,0,0,1.49-2.6l7.37-19.23A1.56,1.56,0,0,1,104.8,51.19Zm-3.44,14,0,.14H107l-2.79-8-.17.18Z"/><path class="cls-2" d="M115.27,60c2,.08,3.82.08,5.38,0,.2,0,.28.09.26.15l-.08.2a3,3,0,0,0-1.08.2l-.26.29a9.88,9.88,0,0,0-.17,2.44v5.41a15.51,15.51,0,0,0,.15,1.8l.26,1.05a3.48,3.48,0,0,0,2.84,2.32,3.81,3.81,0,0,0,3.25-1.13,5.73,5.73,0,0,0,1-3.37V61.86a1.78,1.78,0,0,0-.26-1.16l-.26-.21a6,6,0,0,0-1.25-.17.29.29,0,0,1,0-.23l.23-.12,3,.06,1.62-.06.23.12,0,.2-.11.06a3,3,0,0,0-.87.09.88.88,0,0,0-.47.46,3.7,3.7,0,0,0-.11.9l0,7a7.09,7.09,0,0,1-1.37,4.26,5.4,5.4,0,0,1-3.88,1.8,11.57,11.57,0,0,1-1.69-.06,4.66,4.66,0,0,1-4-3,6.68,6.68,0,0,1-.41-1.5l-.11-1.11V62.64l-.06-1.39a.94.94,0,0,0-.52-.76l-.26-.08-.93-.06L115,60.2C115,60,115.09,60,115.27,60Z"/><path class="cls-2" d="M132.27,60l1.81.06h1.74l1.62-.06.24.09a.26.26,0,0,1-.09.28,2.86,2.86,0,0,0-1.1.19c-.29.16-.43.67-.41,1.54V73.26a10.61,10.61,0,0,1-.2,1.66,6.68,6.68,0,0,1-.62,1.65,8,8,0,0,1-2.16,2.37A12.43,12.43,0,0,1,131.24,80c-.38,0-.46-.09-.25-.34a4.58,4.58,0,0,0,1.43-1.13,5,5,0,0,0,1-2.28,16,16,0,0,0,.19-1.7l0-.36,0-12.88a1.08,1.08,0,0,0-.35-.68l-.32-.15-.42-.09-.6,0c-.26-.1-.27-.21-.06-.34Z"/><path class="cls-2" d="M147.15,51q4.53.2,8.87,0l.37.19c0,.25,0,.37-.09.37l-1.64.14L154,52a1.81,1.81,0,0,0-.48,1.13l-.09,3.78V68.51c0,2.14.2,3.41.52,3.83s1.09.64,2.5.79a21,21,0,0,0,3.4-.09,2.7,2.7,0,0,0,1.51-.8,5.43,5.43,0,0,0,.81-2.22l.32-.14q.28.14.24.33a14.71,14.71,0,0,1-.66,4.39c-.19.25-.77.38-1.75.38l-7.64-.19-5.49,0-.22-.19v-.23l.18-.15c1,0,1.65-.14,1.84-.41.38-.51.57-1.71.57-3.59V53.79a2.54,2.54,0,0,0-.47-1.71,4.25,4.25,0,0,0-2.31-.52C146.66,51.25,146.77,51.07,147.15,51Z"/><path class="cls-2" d="M171.3,60.09c.21-.06.38.08.51.43l4.66,12a6.3,6.3,0,0,0,.71,1.27,1.9,1.9,0,0,0,.71.58,4.42,4.42,0,0,0,1,.12l.09.08c0,.17-.08.25-.23.25l-.62,0a20.69,20.69,0,0,1-4-.15v-.17a.48.48,0,0,1,.32-.11.47.47,0,0,0,.14-.29L173.08,70l-.12,0h-4.14l-.14.22-1.08,3-.14.62c0,.39,0,.61.19.69l.23.09a2.84,2.84,0,0,1,.83.06c0,.14,0,.25-.1.3-1.22,0-2.73,0-4.54,0l-.11-.11,0-.19.19-.06a1.83,1.83,0,0,0,1.27-.32,3.86,3.86,0,0,0,.93-1.62l4.61-12A1,1,0,0,1,171.3,60.09Zm-2.15,8.77,0,.09h3.52L171,64l-.11.11Z"/><path class="cls-2" d="M176,60l2.86.06,1.68-.06a.31.31,0,0,1,.26.12c0,.15,0,.23-.06.23l-.63,0a.68.68,0,0,0-.29.26,2.75,2.75,0,0,0,.17,1.19q1,3.52,2.6,9h.06l3.71-10.3c.15-.33.3-.47.43-.43s.23.2.41.6l4,10,.06.06,2.66-9.41q0-.69-.09-.69a.58.58,0,0,0-.37-.21l-.58,0q-.19-.12-.18-.21c0-.1.12-.15.29-.17l2.55.06,1.24-.06a.45.45,0,0,1,.24.14l-.09.21-.72.08a.89.89,0,0,0-.53.44,28,28,0,0,0-1.18,3.21l-3.39,10.5c-.13.25-.23.36-.29.32a.36.36,0,0,1-.32-.14L189.75,73l-3.5-8.71q-3.15,8.56-3.59,9.49l-.52,1c-.29.17-.49,0-.61-.4l-3.84-12-.5-1.36c-.19-.35-.35-.54-.49-.58a1.75,1.75,0,0,0-.81-.11l-.11-.09C175.74,60.11,175.83,60,176,60Z"/><path class="cls-2" d="M198.5,60q1.56.09,3.21.06l1.48-.06.14.06,0,.06v.14c-.23.14-.39.2-.47.18a.39.39,0,0,0-.2.45,5.42,5.42,0,0,0,.47,1.06l2.92,5.19,0,.12h.06l.71-1.41,2.15-4,.23-.85a.68.68,0,0,0,0-.39l-.27-.21c-.29,0-.44-.09-.44-.2a.23.23,0,0,1,.21-.21,34.86,34.86,0,0,0,4.09,0,.24.24,0,0,1,.24.12l-.06.2-.12.06a1.56,1.56,0,0,0-.76.12,3.28,3.28,0,0,0-.65.39q-.7.44-3.66,5.72a8.61,8.61,0,0,0-.73,1.53,9.73,9.73,0,0,0-.18,2.57c0,1,0,1.89.06,2.78a1.45,1.45,0,0,0,.17.61,1,1,0,0,0,.42.33l1.33.11c.11.08.15.16.11.24l-.14.12q-3.35-.06-5.85,0l-.14-.12c0-.12,0-.19,0-.21l1-.12a.52.52,0,0,0,.33-.23c.25-.17.34-1.78.29-4.8a5.42,5.42,0,0,0-.21-1.13,6,6,0,0,0-.56-1.18c-1.48-2.56-2.61-4.41-3.39-5.57a4.62,4.62,0,0,0-.85-.86l-.63-.27-.44,0c-.08,0-.12-.09-.12-.23Z"/><path class="cls-2" d="M215.42,60.06c1.35.06,3.92.08,7.69.06a4.11,4.11,0,0,0,1.06-.21q.15,0,.18.09l-.18,1.55-.06,1.11a.29.29,0,0,1-.18.24l-.2-.09a2.34,2.34,0,0,0-.21-1.09,1.15,1.15,0,0,0-.5-.38,6.4,6.4,0,0,0-1.24-.17l-2.23,0,0,.06,0,5.25,3.3,0,.58-.15.42-.41c.11,0,.18,0,.2.12-.11.84-.19,1.83-.23,3q-.06.21-.15.21l-.21-.06a2.43,2.43,0,0,0-.21-1.12,1,1,0,0,0-.55-.41,18.38,18.38,0,0,0-3.18-.09v5.08c.06.53.2.86.43,1a3.35,3.35,0,0,0,1,.26,6.2,6.2,0,0,0,2.71-.23l.41-.35.27-.56.12-.68c.08-.15.18-.19.32-.12l.06.27a20.58,20.58,0,0,1-.21,2c-.1.63-.44.88-1,.73l-4.83-.11-3.15,0-.14-.11c0-.12,0-.19.05-.21l.95-.11c.24,0,.4-.27.5-.76a15,15,0,0,0,.12-2.38V61.78a1.5,1.5,0,0,0-.3-1.05,1.07,1.07,0,0,0-.64-.26l-.83,0a.19.19,0,0,1-.15-.21C215.23,60.09,215.32,60,215.42,60.06Z"/><path class="cls-2" d="M226.64,60l3.59.06,2.4-.06a10.23,10.23,0,0,1,1.51.18A3.38,3.38,0,0,1,237,63.26,4.86,4.86,0,0,1,236.3,66a7.56,7.56,0,0,1-.83,1.06l-1,1,3.08,4a14,14,0,0,0,1.72,1.84l.33.23a3.42,3.42,0,0,0,1.83.53q.18.12,0,.33l-.33.06c-1,0-2,0-2.89-.06a3.12,3.12,0,0,1-1.57-.74,10.51,10.51,0,0,1-1.58-1.84l-2.21-3.23a.61.61,0,0,0-.39-.29,12.56,12.56,0,0,0-1.87,0,27.75,27.75,0,0,0,.18,5.18c.16.3.29.44.38.44l1.4.18q.12.3-.12.33c-2.16,0-4,0-5.63,0l-.15-.12q0-.18.06-.21l1-.12c.24,0,.4-.27.5-.76a15.29,15.29,0,0,0,.12-2.4v-9.6a1.51,1.51,0,0,0-.3-1.06,1.1,1.1,0,0,0-.65-.27l-.82,0q-.18-.06-.15-.21C226.46,60,226.55,60,226.64,60Zm4,1.16V67.5c.1.14.49.25,1.16.32a4.19,4.19,0,0,0,1.48-.11,3.38,3.38,0,0,0,1.45-2.94q0-3.25-2.55-3.82C231.27,60.89,230.75,61,230.61,61.13Z"/><path class="cls-2" d="M243.24,70.76a.23.23,0,0,1,.23.09c.1,1.82.88,2.86,2.35,3.11a3,3,0,0,0,1.45-.12,2.29,2.29,0,0,0,1.48-1.79,3.81,3.81,0,0,0-.05-.92,3.43,3.43,0,0,0-.32-.82l-.31-.46-.92-.92a19.49,19.49,0,0,1-2.2-1.86,6.18,6.18,0,0,1-1-1.3,4,4,0,0,1,0-4.09A4.2,4.2,0,0,1,247.18,60a9.78,9.78,0,0,1,2.23.14c.65.13,1,.24,1,.31l-.06,1.32v1.33c0,.22-.09.32-.14.32s-.23,0-.23-.06l-.15-.82a2.51,2.51,0,0,0-1.25-1.43,3.27,3.27,0,0,0-1.55-.2,2,2,0,0,0-1.77,1.74V63a2.06,2.06,0,0,0,.23.77l.4.57.63.63c1.39,1.09,2.17,1.72,2.34,1.91a4.94,4.94,0,0,1,1.66,5.4,4.33,4.33,0,0,1-4.06,2.63,9.58,9.58,0,0,1-1.54-.06,6.47,6.47,0,0,1-1.11-.25c-.44-.18-.66-.28-.66-.32l-.12-.22c0-.73,0-1.72.09-3A.51.51,0,0,1,243.24,70.76Z"/><path class="cls-2" d="M259.94,60c1.89.08,3.74.08,5.54,0l.24.12c0,.16,0,.23-.06.23l-1,.09-.39.18a1.22,1.22,0,0,0-.29.71l-.06,2.36v7.26a5.66,5.66,0,0,0,.32,2.39c.16.23.68.4,1.57.5a13,13,0,0,0,2.12-.06,1.68,1.68,0,0,0,.94-.5,3.37,3.37,0,0,0,.51-1.39l.2-.09q.18.09.15.21a9.3,9.3,0,0,1-.41,2.74c-.12.16-.48.24-1.09.24l-4.78-.12-3.43,0-.14-.12V74.6l.11-.09c.65,0,1-.08,1.15-.26a4.32,4.32,0,0,0,.36-2.24V61.71a1.53,1.53,0,0,0-.3-1.06,2.59,2.59,0,0,0-1.44-.33C259.63,60.13,259.7,60,259.94,60Z"/><path class="cls-2" d="M271.19,60c1.88.08,3.73.08,5.54,0l.23.12c0,.16,0,.23-.06.23l-1,.09-.39.18a1.17,1.17,0,0,0-.3.71l-.06,2.36v7.26a5.43,5.43,0,0,0,.33,2.39c.16.23.68.4,1.56.5a13.09,13.09,0,0,0,2.13-.06,1.72,1.72,0,0,0,.94-.5,3.37,3.37,0,0,0,.51-1.39l.2-.09q.18.09.15.21a9.3,9.3,0,0,1-.41,2.74c-.12.16-.49.24-1.1.24l-4.77-.12-3.43,0-.14-.12V74.6l.11-.09c.65,0,1-.08,1.15-.26a4.32,4.32,0,0,0,.36-2.24V61.71a1.53,1.53,0,0,0-.3-1.06,2.59,2.59,0,0,0-1.44-.33C270.88,60.13,271,60,271.19,60Z"/><path class="cls-2" d="M282.37,60l3.63.06,2.42-.06a6.7,6.7,0,0,1,2,.35,4,4,0,0,1,1,.6,3.58,3.58,0,0,1,.88,1.23,3.87,3.87,0,0,1,.27,1.15,5.56,5.56,0,0,1-.45,2.31,4.45,4.45,0,0,1-3.86,2.62c-.71.06-1.06,0-1.06-.18l.08-.2.21-.06a2.44,2.44,0,0,0,2.19-1.18,3.41,3.41,0,0,0,.61-1.86,4.12,4.12,0,0,0-.73-2.74,3.8,3.8,0,0,0-1.06-.88l-.92-.27a3,3,0,0,0-1,.06l-.15.21V71.89a5.66,5.66,0,0,0,.27,2.24l.3.27a10,10,0,0,0,1.44.14.19.19,0,0,1,.12.18.21.21,0,0,1-.18.18q-3.33-.06-5.82,0l-.14-.12q0-.18.06-.21l.94-.11c.24,0,.41-.28.51-.77A16,16,0,0,0,284,71.3V61.74a1.54,1.54,0,0,0-.29-1.06,1.12,1.12,0,0,0-.65-.27l-.83,0c-.11,0-.16-.1-.14-.2S282.28,60,282.37,60Z"/><path class="cls-2" d="M94.64,84.42h.85l1.59,5.18h-.73L96,88.25H94.15l-.37,1.35h-.73Zm.42.62-.74,2.65H95.8Z"/><path class="cls-2" d="M101.21,84.42a2.2,2.2,0,0,1,1.74.63,2.88,2.88,0,0,1,.57,2,2.84,2.84,0,0,1-.57,2,2.2,2.2,0,0,1-1.74.63h-1.06V84.42Zm0,4.6a1.53,1.53,0,0,0,1.24-.43,2.63,2.63,0,0,0,.35-1.57,2.66,2.66,0,0,0-.35-1.59,1.51,1.51,0,0,0-1.24-.44h-.33v4Z"/><path class="cls-2" d="M108.57,89l1.22-4.59h.72L109,89.6h-.86l-1.51-5.18h.72Z"/><path class="cls-2" d="M117.06,87a3.87,3.87,0,0,1-.43,2,1.46,1.46,0,0,1-1.31.66A1.44,1.44,0,0,1,114,89a3.75,3.75,0,0,1-.43-2,3.79,3.79,0,0,1,.43-2,1.44,1.44,0,0,1,1.3-.66,1.46,1.46,0,0,1,1.31.66A3.88,3.88,0,0,1,117.06,87Zm-.73,0a4,4,0,0,0-.24-1.64.84.84,0,0,0-1.53,0,4,4,0,0,0-.24,1.64,4,4,0,0,0,.24,1.62.84.84,0,0,0,1.53,0A3.92,3.92,0,0,0,116.33,87Z"/><path class="cls-2" d="M123.66,89.42a2.83,2.83,0,0,1-.55.21,2.22,2.22,0,0,1-.59.07A1.85,1.85,0,0,1,121,89a3.13,3.13,0,0,1-.55-2,3.18,3.18,0,0,1,.55-2,1.86,1.86,0,0,1,1.55-.7,2.22,2.22,0,0,1,.59.07,2,2,0,0,1,.55.21v.72a2.06,2.06,0,0,0-.55-.33,1.76,1.76,0,0,0-.59-.11,1.15,1.15,0,0,0-1,.53,3,3,0,0,0-.34,1.6,3,3,0,0,0,.34,1.58,1.13,1.13,0,0,0,1,.53,1.59,1.59,0,0,0,.6-.11,1.88,1.88,0,0,0,.54-.32Z"/><path class="cls-2" d="M128.4,84.42h.86l1.58,5.18h-.72l-.39-1.35h-1.81l-.38,1.35h-.72Zm.43.62-.74,2.65h1.48Z"/><path class="cls-2" d="M133.61,84.42h3.95V85h-1.62V89.6h-.7V85h-1.63Z"/><path class="cls-2" d="M140.88,84.42H144V85h-2.38V86.4h2.27V87h-2.27v2H144v.59h-3.14Z"/><path class="cls-2" d="M150.46,84.6v.71a2.51,2.51,0,0,0-.64-.31,2.06,2.06,0,0,0-.65-.11,1.23,1.23,0,0,0-.78.23.79.79,0,0,0-.29.63.67.67,0,0,0,.19.52,1.59,1.59,0,0,0,.71.3l.37.09a2,2,0,0,1,1.06.53,1.43,1.43,0,0,1,.33,1,1.38,1.38,0,0,1-.46,1.13,2,2,0,0,1-1.33.39,3,3,0,0,1-.73-.08,4.2,4.2,0,0,1-.74-.23v-.75a3.05,3.05,0,0,0,.75.37,2.27,2.27,0,0,0,.72.12,1.3,1.3,0,0,0,.83-.24.93.93,0,0,0,.09-1.25,1.38,1.38,0,0,0-.71-.32l-.37-.09a2.14,2.14,0,0,1-1.05-.49,1.18,1.18,0,0,1-.33-.88,1.43,1.43,0,0,1,.47-1.12,1.77,1.77,0,0,1,1.24-.41,3.52,3.52,0,0,1,.63.06A5.35,5.35,0,0,1,150.46,84.6Z"/><path class="cls-2" d="M162.36,86.45l1.44,1.94A1,1,0,0,0,164,88a2.72,2.72,0,0,0,.07-.62c0-.07,0-.19,0-.35v0h.57v.14a3.23,3.23,0,0,1-.13,1,1.91,1.91,0,0,1-.39.73l.59.79H164l-.28-.38a1.82,1.82,0,0,1-.61.36,1.92,1.92,0,0,1-.69.12,1.7,1.7,0,0,1-1.24-.47,1.57,1.57,0,0,1-.49-1.17,1.69,1.69,0,0,1,.24-.88,2.6,2.6,0,0,1,.73-.76,1.75,1.75,0,0,1-.26-.48,1.4,1.4,0,0,1-.08-.49,1,1,0,0,1,.34-.82,1.41,1.41,0,0,1,.95-.3,2.28,2.28,0,0,1,.45,0,2.17,2.17,0,0,1,.47.12v.63a2,2,0,0,0-.42-.2,1.76,1.76,0,0,0-.46-.06.8.8,0,0,0-.53.16.5.5,0,0,0-.19.42,1,1,0,0,0,.1.43A2.93,2.93,0,0,0,162.36,86.45Zm-.46.36a2,2,0,0,0-.48.54,1.27,1.27,0,0,0-.15.6,1.18,1.18,0,0,0,.34.87,1.21,1.21,0,0,0,.89.35,1.11,1.11,0,0,0,.3,0,.91.91,0,0,0,.31-.12l.16-.09.12-.08Z"/><path class="cls-2" d="M177.69,89.42a2.83,2.83,0,0,1-.55.21,2.35,2.35,0,0,1-.6.07A1.83,1.83,0,0,1,175,89a3.13,3.13,0,0,1-.55-2,3.18,3.18,0,0,1,.55-2,1.84,1.84,0,0,1,1.54-.7,2.35,2.35,0,0,1,.6.07,2,2,0,0,1,.55.21v.72a2.23,2.23,0,0,0-.55-.33,1.81,1.81,0,0,0-.6-.11,1.13,1.13,0,0,0-1,.53,3,3,0,0,0-.34,1.6,2.92,2.92,0,0,0,.34,1.58,1.11,1.11,0,0,0,1,.53,1.52,1.52,0,0,0,.6-.11,1.8,1.8,0,0,0,.55-.32Z"/><path class="cls-2" d="M184.59,87a3.77,3.77,0,0,1-.43,2,1.62,1.62,0,0,1-2.61,0,3.75,3.75,0,0,1-.43-2,3.79,3.79,0,0,1,.43-2,1.62,1.62,0,0,1,2.61,0A3.79,3.79,0,0,1,184.59,87Zm-.73,0a4,4,0,0,0-.24-1.64.84.84,0,0,0-1.53,0,4,4,0,0,0-.24,1.64,4,4,0,0,0,.24,1.62.84.84,0,0,0,1.53,0A3.92,3.92,0,0,0,183.86,87Z"/><path class="cls-2" d="M190.11,87.15a1,1,0,0,1,.46.27,2.72,2.72,0,0,1,.47.76l.71,1.42H191l-.62-1.31a2.18,2.18,0,0,0-.48-.72.89.89,0,0,0-.56-.16h-.67V89.6H188V84.42h1.44a2,2,0,0,1,1.31.38,1.4,1.4,0,0,1,.45,1.12,1.24,1.24,0,0,1-.28.84A1.22,1.22,0,0,1,190.11,87.15ZM188.67,85v1.84h.77a1.1,1.1,0,0,0,.75-.22.9.9,0,0,0,.24-.69.87.87,0,0,0-.26-.69,1.08,1.08,0,0,0-.76-.24Z"/><path class="cls-2" d="M194.91,84.42h1.51a2,2,0,0,1,1.32.39,1.75,1.75,0,0,1,0,2.32,2,2,0,0,1-1.32.39h-.81V89.6h-.7Zm.7.57v2h.81a1.07,1.07,0,0,0,.76-.25,1,1,0,0,0,.27-.72.94.94,0,0,0-.27-.72,1.06,1.06,0,0,0-.76-.26Z"/><path class="cls-2" d="M204.85,87a3.77,3.77,0,0,1-.43,2,1.46,1.46,0,0,1-1.31.66,1.44,1.44,0,0,1-1.3-.66,3.75,3.75,0,0,1-.43-2,3.79,3.79,0,0,1,.43-2,1.62,1.62,0,0,1,2.61,0A3.79,3.79,0,0,1,204.85,87Zm-.73,0a4,4,0,0,0-.24-1.64.84.84,0,0,0-1.53,0,4,4,0,0,0-.24,1.64,4,4,0,0,0,.24,1.62.84.84,0,0,0,1.53,0A3.92,3.92,0,0,0,204.12,87Z"/><path class="cls-2" d="M210.37,87.15a1,1,0,0,1,.46.27,2.72,2.72,0,0,1,.47.76L212,89.6h-.75l-.62-1.31a2.18,2.18,0,0,0-.48-.72.89.89,0,0,0-.56-.16h-.67V89.6h-.7V84.42h1.44a2,2,0,0,1,1.31.38,1.4,1.4,0,0,1,.45,1.12,1.24,1.24,0,0,1-.28.84A1.22,1.22,0,0,1,210.37,87.15ZM208.93,85v1.84h.77a1.1,1.1,0,0,0,.75-.22.9.9,0,0,0,.24-.69.87.87,0,0,0-.26-.69,1.08,1.08,0,0,0-.76-.24Z"/><path class="cls-2" d="M216.2,84.42h.85l1.58,5.18h-.72l-.38-1.35h-1.82l-.37,1.35h-.73Zm.42.62-.74,2.65h1.48Z"/><path class="cls-2" d="M221.4,84.42h3.95V85h-1.62V89.6H223V85H221.4Z"/><path class="cls-2" d="M228.67,84.42h3.08V85h-2.38V86.4h2.27V87h-2.27v2h2.44v.59h-3.14Z"/><path class="cls-2" d="M245.22,89.42a2.83,2.83,0,0,1-.55.21,2.35,2.35,0,0,1-.6.07,1.83,1.83,0,0,1-1.54-.7,3.13,3.13,0,0,1-.55-2,3.18,3.18,0,0,1,.55-2,1.84,1.84,0,0,1,1.54-.7,2.35,2.35,0,0,1,.6.07,2,2,0,0,1,.55.21v.72a2.23,2.23,0,0,0-.55-.33,1.81,1.81,0,0,0-.6-.11,1.15,1.15,0,0,0-1,.53,3,3,0,0,0-.34,1.6,2.92,2.92,0,0,0,.34,1.58,1.13,1.13,0,0,0,1,.53,1.52,1.52,0,0,0,.6-.11,1.8,1.8,0,0,0,.55-.32Z"/><path class="cls-2" d="M252.12,87a3.77,3.77,0,0,1-.43,2,1.44,1.44,0,0,1-1.3.66,1.46,1.46,0,0,1-1.31-.66,3.84,3.84,0,0,1-.43-2,3.88,3.88,0,0,1,.43-2,1.46,1.46,0,0,1,1.31-.66,1.44,1.44,0,0,1,1.3.66A3.79,3.79,0,0,1,252.12,87Zm-.73,0a4.25,4.25,0,0,0-.23-1.64.82.82,0,0,0-.77-.49.81.81,0,0,0-.77.49,4.25,4.25,0,0,0-.23,1.64,4.17,4.17,0,0,0,.23,1.62.79.79,0,0,0,.77.49.8.8,0,0,0,.77-.49A4.13,4.13,0,0,0,251.39,87Z"/><path class="cls-2" d="M255.51,87.61V84.42h.71v3.51a3.73,3.73,0,0,0,0,.54.68.68,0,0,0,.39.56,1.35,1.35,0,0,0,1,0,.69.69,0,0,0,.32-.31.67.67,0,0,0,.08-.25c0-.1,0-.28,0-.53V84.42h.7v3.19a4.26,4.26,0,0,1-.1,1.13,1.23,1.23,0,0,1-.34.56,1.73,1.73,0,0,1-.53.3,1.91,1.91,0,0,1-.66.1,2,2,0,0,1-.66-.1,1.73,1.73,0,0,1-.53-.3,1.23,1.23,0,0,1-.34-.56A4.87,4.87,0,0,1,255.51,87.61Z"/><path class="cls-2" d="M261.82,84.44h1l2,4.25V84.44h.74V89.6h-1l-2-4.25V89.6h-.75Z"/><path class="cls-2" d="M272,84.6v.71a2.68,2.68,0,0,0-.64-.31,2.06,2.06,0,0,0-.65-.11,1.23,1.23,0,0,0-.78.23.79.79,0,0,0-.29.63.67.67,0,0,0,.19.52,1.59,1.59,0,0,0,.71.3l.36.09a2.07,2.07,0,0,1,1.07.53,1.43,1.43,0,0,1,.33,1,1.38,1.38,0,0,1-.46,1.13,2,2,0,0,1-1.33.39,3,3,0,0,1-.73-.08,4,4,0,0,1-.74-.23v-.75a2.89,2.89,0,0,0,.75.37,2.27,2.27,0,0,0,.72.12,1.25,1.25,0,0,0,.82-.24.79.79,0,0,0,.3-.66.81.81,0,0,0-.2-.59,1.38,1.38,0,0,0-.71-.32l-.37-.09a2.06,2.06,0,0,1-1.05-.49,1.18,1.18,0,0,1-.33-.88,1.43,1.43,0,0,1,.47-1.12,1.77,1.77,0,0,1,1.24-.41,3.52,3.52,0,0,1,.63.06A5.35,5.35,0,0,1,272,84.6Z"/><path class="cls-2" d="M276,84.42H279V85h-2.37V86.4h2.27V87h-2.27v2h2.44v.59H276Z"/><path class="cls-2" d="M282.76,84.42h.71V89H286v.59h-3.21Z"/><path class="cls-2" d="M292.28,84.6v.71a2.68,2.68,0,0,0-.64-.31,2.06,2.06,0,0,0-.65-.11,1.23,1.23,0,0,0-.78.23.79.79,0,0,0-.29.63.67.67,0,0,0,.19.52,1.54,1.54,0,0,0,.71.3l.36.09a2.07,2.07,0,0,1,1.07.53,1.43,1.43,0,0,1,.33,1,1.38,1.38,0,0,1-.46,1.13,2,2,0,0,1-1.33.39,3,3,0,0,1-.73-.08,4,4,0,0,1-.74-.23v-.75a2.89,2.89,0,0,0,.75.37,2.27,2.27,0,0,0,.72.12,1.25,1.25,0,0,0,.82-.24.79.79,0,0,0,.3-.66.81.81,0,0,0-.2-.59,1.38,1.38,0,0,0-.71-.32l-.38-.09a2.06,2.06,0,0,1-1-.49,1.18,1.18,0,0,1-.33-.88,1.43,1.43,0,0,1,.47-1.12,1.77,1.77,0,0,1,1.24-.41,3.52,3.52,0,0,1,.63.06A5.35,5.35,0,0,1,292.28,84.6Z"/><path class="cls-3" d="M57.71,95.07a4.38,4.38,0,0,1-3.11-1.29L32.88,72.06a4.42,4.42,0,0,1,0-6.23L54.6,44.11a4.41,4.41,0,0,1,6.23,0L82.55,65.83a4.41,4.41,0,0,1,0,6.23L60.83,93.78A4.4,4.4,0,0,1,57.71,95.07Zm0-51a3.19,3.19,0,0,0-2.27.94L33.72,66.68a3.2,3.2,0,0,0,0,4.53L55.44,92.93a3.22,3.22,0,0,0,4.54,0L81.7,71.21a3.2,3.2,0,0,0,0-4.53L60,45A3.18,3.18,0,0,0,57.71,44Z"/><polygon class="cls-3" points="61.98 72.79 57.77 69.69 54.3 73.09 58.05 76.64 61.98 72.79"/><path class="cls-3" d="M68.93,46.91l1.17.33L67,41.15l-.93,2.55.86,1s5.84,28.38,2.92,31.73c0,0-6.55,10.8-16.54,6,0,0,8.44,7,18-4.73C74.08,74.29,72.84,66.74,68.93,46.91Z"/><path class="cls-3" d="M67.72,74.7A7,7,0,0,0,69,69.19a16,16,0,0,0-.46-1.68A6.31,6.31,0,0,0,67,64.59a2.9,2.9,0,0,0-1.23-.53,3.64,3.64,0,0,0-4,1.81,7.49,7.49,0,0,0-.32,2.67A3.61,3.61,0,0,0,64,71.1a7.2,7.2,0,0,0,2,0,10.24,10.24,0,0,0,1.11-.23c-.1,1.7-2,3.72-2,3.72-4,5.56-9.24,6.41-11.55,4.82s.46-9,.29-12a3.65,3.65,0,0,0-2-2.91v0c6.57-3.75,16.32-4.37,16.32-4.37l.53-1.6-13.34-2c-12.3-1.36-11.6,2.52-9.8,4.54,1.4,1.57,3.14,2.08,4.1,3v0a3.73,3.73,0,0,0-1.19.57c-9.4,8.08-3.68,22.39-3.68,22.39,13.21,29,1.74-1.77,1.44-2.4-.79-1.64-3.73-9.8,1.43-16.72a12.31,12.31,0,0,1,2.92-2.73h.08c1.47,1.89,1.6,2.37,1.5,3.27-.19,1.78-1.27,5.25-1.37,7a5.22,5.22,0,0,0,.53,3h0C56.17,86.45,65.14,78,67.72,74.7Zm-4.87-7.06a2,2,0,0,1,3.15-.3S64.31,69.23,62.85,67.64Zm-15.5-7.93c.7-2.46,8.59-1.13,10.23.2,0,0-5.78,2.44-6.73,3.11S47.06,60.72,47.35,59.71Z"/></svg>