<svg xmlns="http://www.w3.org/2000/svg" width="158.091" height="161.381" viewBox="0 0 158.091 161.381">
    <defs>
        <linearGradient id="prefix__linear-gradient" x1=".791" x2=".224" y2=".646" gradientUnits="objectBoundingBox">
            <stop offset="0" stop-color="#3593e4"/>
            <stop offset="1" stop-color="#2944c4"/>
        </linearGradient>
        <filter id="prefix__Path_7885" width="158.091" height="161.381" x="0" y="0" filterUnits="userSpaceOnUse">
            <feOffset dy="10"/>
            <feGaussianBlur result="blur" stdDeviation="12"/>
            <feFlood flood-opacity=".188"/>
            <feComposite in2="blur" operator="in"/>
            <feComposite in="SourceGraphic"/>
        </filter>
    </defs>
    <g filter="url(#prefix__Path_7885)">
        <path id="prefix__Path_7885-2" fill="url(#prefix__linear-gradient)" fill-rule="evenodd" d="M65.713-36.787a25.378 25.378 0 0 1-3.241-9.719 85.663 85.663 0 0 1-.728-11.284 85.728 85.728 0 0 1 .728-11.287 25.406 25.406 0 0 1 3.241-9.723 18.279 18.279 0 0 1 7.317-6.816q4.8-2.572 12.961-2.568T98.9-85.612a18.414 18.414 0 0 1 7.26 6.812 25.483 25.483 0 0 1 3.237 9.719 85.728 85.728 0 0 1 .728 11.287 85.663 85.663 0 0 1-.728 11.284 25.455 25.455 0 0 1-3.237 9.719 18.381 18.381 0 0 1-7.26 6.82Q94.146-27.4 85.991-27.4T73.03-29.971a18.247 18.247 0 0 1-7.317-6.816m41.4 20.164a33.477 33.477 0 0 0 13.3-9.55 35.061 35.061 0 0 0 6.866-14.191 74.62 74.62 0 0 0 1.951-17.426 75.139 75.139 0 0 0-1.958-17.54 35.046 35.046 0 0 0-6.866-14.191 33.034 33.034 0 0 0-13.3-9.5q-8.382-3.462-21.119-3.463a79.392 79.392 0 0 0-8.147.405l-34.7 53.33a69.133 69.133 0 0 0 1.46 8.386 35.011 35.011 0 0 0 6.87 14.19 33.417 33.417 0 0 0 13.293 9.55Q73.145-13.1 85.991-13.1q12.737 0 21.119-3.521" data-name="Path 7885" transform="translate(-7.14 128.48)"/>
    </g>
</svg>
