<svg xmlns="http://www.w3.org/2000/svg" width="43.516" height="58.756" viewBox="0 0 43.516 58.756">
    <defs>
        <style>
            .prefix__cls-1{fill:#1d8295}
        </style>
    </defs>
    <g id="prefix__Group_14495" data-name="Group 14495" transform="translate(-536 -1450)">
        <path id="prefix__Path_9268" d="M8963.629 7093.552h42.223v4.508h-42.223z" class="prefix__cls-1" data-name="Path 9268" transform="translate(-8427 -5603)"/>
        <ellipse id="prefix__Ellipse_392" cx="4" cy="4.5" class="prefix__cls-1" data-name="Ellipse 392" rx="4" ry="4.5" transform="translate(553 1476)"/>
        <path id="prefix__Path_9267" fill="#023d4d" fill-rule="evenodd" d="M479.767 1764.291a18.179 18.179 0 0 1 13.321 5.946 20.889 20.889 0 0 1 5.523 14.245v19.77h2.254a.66.66 0 0 1 .662.657v4.407a.658.658 0 0 1-.662.657h-10.412v12.412a.659.659 0 1 1-1.319 0v-12.412H470.4v12.412a.659.659 0 1 1-1.319 0v-12.412h-10.414a.658.658 0 0 1-.657-.657v-4.407a.659.659 0 0 1 .657-.657h2.258v-19.77a20.875 20.875 0 0 1 5.518-14.245 18.183 18.183 0 0 1 13.323-5.946zm-.7 25.176a4.57 4.57 0 0 1 3.352 1.486 5.157 5.157 0 0 1 1.328 2.874h6.053a.657.657 0 0 1 .657.657v9.768h6.837v-19.77a19.568 19.568 0 0 0-5.163-13.347 16.585 16.585 0 0 0-24.721 0 19.566 19.566 0 0 0-5.161 13.347v19.77h7.027a.671.671 0 0 1-.192-.468v-9.3a.66.66 0 0 1 .662-.657h4.649a5.123 5.123 0 0 1 1.323-2.874 4.573 4.573 0 0 1 3.35-1.486zm4.68 5.679a5.165 5.165 0 0 1-1.328 2.872 4.521 4.521 0 0 1-6.7 0 5.131 5.131 0 0 1-1.323-2.872H470.4v8.639a.662.662 0 0 1-.192.468h18.928v-9.106zm-2.292-3.3a3.2 3.2 0 0 0-4.775 0 3.941 3.941 0 0 0 0 5.269 3.2 3.2 0 0 0 4.775 0 3.934 3.934 0 0 0 0-5.269zm16.5 13.718h-38.62v3.088h40.879v-3.088z" data-name="Path 9267" transform="translate(77.99 -314.291)"/>
    </g>
</svg>
