<svg xmlns="http://www.w3.org/2000/svg" xmlns:xlink="http://www.w3.org/1999/xlink" viewBox="0 0 512 512"><defs><style>.cls-1{fill:url(#linear-gradient);}.cls-2{fill:url(#linear-gradient-2);}.cls-3{fill:url(#linear-gradient-3);}.cls-4{fill:url(#linear-gradient-4);}.cls-5{fill:url(#linear-gradient-5);}.cls-6{fill:url(#linear-gradient-6);}.cls-7{fill:url(#linear-gradient-7);}.cls-8{fill:url(#linear-gradient-8);}.cls-9{fill:url(#linear-gradient-9);}</style><linearGradient id="linear-gradient" x1="228.05" y1="379.61" x2="229.18" y2="379.61" gradientUnits="userSpaceOnUse"><stop offset="0" stop-color="#26d09b"/><stop offset="1" stop-color="#87d46a"/></linearGradient><linearGradient id="linear-gradient-2" x1="227.32" y1="422.13" x2="396.96" y2="422.13" xlink:href="#linear-gradient"/><linearGradient id="linear-gradient-3" x1="224.4" y1="379.71" x2="225.44" y2="379.71" gradientUnits="userSpaceOnUse"><stop offset="0" stop-color="#326483"/><stop offset="1" stop-color="#0c9aa3"/></linearGradient><linearGradient id="linear-gradient-4" x1="228.05" y1="379.61" x2="229.18" y2="379.61" xlink:href="#linear-gradient-3"/><linearGradient id="linear-gradient-5" x1="227.32" y1="424.06" x2="396.96" y2="424.06" xlink:href="#linear-gradient-3"/><linearGradient id="linear-gradient-6" x1="429.42" y1="238.96" x2="57.99" y2="24.52" xlink:href="#linear-gradient-3"/><linearGradient id="linear-gradient-7" x1="70.18" y1="256" x2="274.39" y2="256" xlink:href="#linear-gradient"/><linearGradient id="linear-gradient-8" x1="70.18" y1="354.59" x2="451.82" y2="354.59" xlink:href="#linear-gradient-3"/><linearGradient id="linear-gradient-9" x1="253.42" y1="379.71" x2="254.41" y2="379.71" xlink:href="#linear-gradient-3"/></defs><title>source file</title><g id="Layer_1" data-name="Layer 1"><polygon class="cls-1" points="228.09 379.21 229.18 380.01 228.05 379.23 228.09 379.21"/><polygon class="cls-2" points="396.96 335.67 396.96 508.59 227.32 381.5 229.18 380.01 229.22 380.01 283.39 336.33 284.19 335.67 396.96 335.67"/><polygon class="cls-3" points="224.44 379.31 225.44 380.11 224.4 379.35 224.44 379.31"/><polygon class="cls-4" points="228.09 379.21 229.18 380.01 228.05 379.23 228.09 379.21"/><polygon class="cls-5" points="227.32 381.5 229.18 380.01 229.22 380.01 279.4 339.54 396.96 508.59 227.32 381.5"/><polygon class="cls-6" points="274.39 200.6 70.18 3.41 451.57 200.6 451.44 200.6 274.39 200.6 274.39 200.6"/><polygon class="cls-7" points="70.18 508.59 70.18 3.41 274.39 200.6 70.18 508.59"/><polygon class="cls-8" points="70.18 508.59 451.82 200.6 274.39 200.6 70.18 508.59"/><polygon class="cls-9" points="254.41 380.11 253.42 379.35 253.45 379.31 254.41 380.11"/></g></svg>