<svg xmlns="http://www.w3.org/2000/svg" width="50.196" height="50.196" viewBox="0 0 50.196 50.196">
    <defs>
        <style>
            .prefix__cls-1{fill:#169aa3}
        </style>
    </defs>
    <g id="prefix__Group_15002" data-name="Group 15002" transform="translate(-2349 -3309)">
        <path id="prefix__Path_11494" d="M2375.855 3310.291l3.948 3 2.536 2.691 2.157 4.024 1.38 1.087 7.566 1.484h2.448l-2.448-3.564-4.158-4.289-4.238-2.572-5.244-1.862h-8.1l-4.388 3.721-4.493 7.083-10.839 2.284 2.49-4.365 5.525-5 7.317-3.721 7.9-.7" class="prefix__cls-1" data-name="Path 11494"/>
        <path id="prefix__Path_11495" d="M2375.855 3322.676l3.948-3 2.536-2.691 2.157-4.024 1.38-1.087 7.566-1.484h2.448l-2.448 3.564-4.158 4.289-4.238 2.572-5.244 1.862h-8.1l-4.388-3.721-4.493-7.083-10.839-2.284 2.49 4.365 5.525 5 7.317 3.721 7.9.7" class="prefix__cls-1" data-name="Path 11495" transform="translate(0 35)"/>
        <path id="prefix__Path_11493" fill="#043d4d" fill-rule="evenodd" d="M1465.246 583.883a18.972 18.972 0 0 1 6.682 7.368 25.437 25.437 0 0 1 1.311 2.842h.042a87.028 87.028 0 0 1 9.126 1.445 23.9 23.9 0 0 0-17.162-11.659zm17.946 13.131a23.789 23.789 0 0 1 2.4 9.815h-10.05a37.28 37.28 0 0 0-1.819-11.411 83.457 83.457 0 0 1 9.469 1.6zm2.4 11.081h-10.05a37.28 37.28 0 0 1-1.819 11.412 83.341 83.341 0 0 0 9.469-1.6 23.8 23.8 0 0 0 2.4-9.815zm-3.183 11.287a23.889 23.889 0 0 1-17.162 11.657 18.952 18.952 0 0 0 6.682-7.366 25.435 25.435 0 0 0 1.311-2.842h.042a86.949 86.949 0 0 0 9.126-1.444zm-20.616 13.176h-.043a25.1 25.1 0 0 1 0-50.193h.049a25.1 25.1 0 0 1 0 50.193zm-3.505-1.518a18.971 18.971 0 0 1-6.682-7.366 25.368 25.368 0 0 1-1.311-2.842h-.042a86.9 86.9 0 0 1-9.124-1.444 23.872 23.872 0 0 0 17.16 11.657zm-17.943-13.129a83.214 83.214 0 0 0 9.467 1.6 37.287 37.287 0 0 1-1.819-11.412h-10.048a23.764 23.764 0 0 0 2.4 9.815zm-2.4-11.081h10.048a37.288 37.288 0 0 1 1.819-11.411 83.428 83.428 0 0 0-9.467 1.6 23.773 23.773 0 0 0-2.4 9.815zm3.183-11.286a86.98 86.98 0 0 1 9.124-1.445h.042a25.37 25.37 0 0 1 1.311-2.842 18.991 18.991 0 0 1 6.682-7.368 23.88 23.88 0 0 0-17.16 11.659zm10.073 24.113c3.158.311 6.487.485 9.933.5v-12.062h-11.878a35.636 35.636 0 0 0 1.944 11.56zm11.2.5v-12.062h11.877a35.568 35.568 0 0 1-1.947 11.56c-3.154.311-6.483.485-9.931.5zm9.419.813c-3.018.277-6.174.434-9.419.451v9.62a16.549 16.549 0 0 0 8.417-7.968c.358-.667.695-1.368 1-2.1zm-10.685.451c-3.245-.017-6.4-.174-9.419-.451.307.735.644 1.436 1 2.1a16.55 16.55 0 0 0 8.417 7.968v-9.62zm11.2-26.153a35.544 35.544 0 0 1 1.947 11.558H1462.4v-12.061c3.448.019 6.777.193 9.931.506zm-11.2-.506c-3.446.019-6.775.193-9.933.506a35.611 35.611 0 0 0-1.944 11.558h11.878v-12.061zm-9.419-.813c3.016-.28 6.174-.434 9.419-.451v-9.622a16.564 16.564 0 0 0-8.417 7.97c-.358.667-.695 1.368-1 2.1zm10.685-.451v-9.622a16.562 16.562 0 0 1 8.417 7.97c.358.667.695 1.368 1 2.1-3.018-.274-6.173-.429-9.418-.446z" data-name="Path 11493" transform="translate(912.331 2726.636)"/>
    </g>
</svg>
