<svg xmlns="http://www.w3.org/2000/svg" width="143.879" height="48" viewBox="0 0 143.879 48">
    <defs>
        <style>
            .prefix__cls-1{fill:#a5208e}.prefix__cls-2{fill:#c9d81d}.prefix__cls-3{fill:#fbb403}.prefix__cls-4{fill:#f26d1f}.prefix__cls-6{fill:#2ea1e4}
        </style>
    </defs>
    <g id="prefix__Group_13512" data-name="Group 13512" transform="translate(-20665 -5840)">
        <g id="prefix__Group_13511" data-name="Group 13511" transform="translate(20665 5840)">
            <g id="prefix__Group_13508" data-name="Group 13508">
                <g id="prefix__Group_13507" data-name="Group 13507">
                    <path id="prefix__Path_7014" d="M206.752 46.962c-.013 2.958-5.416 12.764-5.416 12.764s-5.313-9.852-5.3-12.813a5.358 5.358 0 1 1 10.715.049zM201.4 44.8a3.457 3.457 0 0 0-3.472 3.442c-.007 1.907 3.412 10.19 3.412 10.19s3.494-8.251 3.5-10.159a3.457 3.457 0 0 0-3.44-3.473z" class="prefix__cls-1" data-name="Path 7014" transform="translate(-184.022 -41.579)"/>
                    <path id="prefix__Path_7015" d="M264.3 117.551c-2.655 1.3-13.841.829-13.841.829s6.461-9.143 9.118-10.448a5.358 5.358 0 1 1 4.723 9.618zm-.442-5.754a3.457 3.457 0 0 0-4.627-1.577c-1.713.842-7.61 7.589-7.61 7.589s8.945-.54 10.659-1.383a3.458 3.458 0 0 0 1.583-4.626z" class="prefix__cls-2" data-name="Path 7015" transform="translate(-232.513 -100.207)"/>
                    <path id="prefix__Path_7016" d="M86.381 111.054a5.355 5.355 0 0 1 7.157-2.489c2.665 1.288 9.18 10.392 9.18 10.392s-11.184.542-13.846-.746a5.361 5.361 0 0 1-2.491-7.157zm4.5 6.02c1.718.832 10.665 1.321 10.665 1.321s-5.936-6.713-7.654-7.545a3.457 3.457 0 0 0-3.011 6.224z" class="prefix__cls-3" data-name="Path 7016" transform="translate(-85.846 -100.783)"/>
                    <path id="prefix__Path_7017" d="M266.3 370.894a1.457 1.457 0 0 1-1.457 1.456h-10.48a1.456 1.456 0 0 1-1.457-1.456v-10.48a1.456 1.456 0 0 1 1.457-1.456h10.48a1.456 1.456 0 0 1 1.457 1.456z" class="prefix__cls-2" data-name="Path 7017" transform="translate(-234.691 -324.35)"/>
                    <path id="prefix__Path_7018" d="M121.614 370.894a1.456 1.456 0 0 1-1.457 1.456h-10.48a1.456 1.456 0 0 1-1.456-1.456v-10.48a1.456 1.456 0 0 1 1.456-1.456h10.48a1.456 1.456 0 0 1 1.457 1.456z" class="prefix__cls-3" data-name="Path 7018" transform="translate(-105.781 -324.35)"/>
                    <path id="prefix__Path_7019" d="M115.5 286.071a.791.791 0 0 1-.791.791h-5.694a.791.791 0 0 1-.791-.791v-5.693a.791.791 0 0 1 .791-.792h5.694a.792.792 0 0 1 .791.792z" class="prefix__cls-1" data-name="Path 7019" transform="translate(-105.781 -253.634)"/>
                    <path id="prefix__Path_7020" d="M201.034 239.127a1.407 1.407 0 0 1-1.408 1.407H189.5a1.407 1.407 0 0 1-1.408-1.407V229a1.408 1.408 0 0 1 1.408-1.408h10.13a1.408 1.408 0 0 1 1.404 1.408z" class="prefix__cls-4" data-name="Path 7020" transform="translate(-176.939 -207.306)"/>
                    <path id="prefix__Path_7021" d="M326.04 295.956a.661.661 0 0 1-.661.661h-4.759a.661.661 0 0 1-.661-.661V291.2a.661.661 0 0 1 .661-.661h4.759a.662.662 0 0 1 .661.661z" data-name="Path 7021" transform="translate(-294.43 -263.389)" style="fill:#fac000"/>
                    <rect id="prefix__Rectangle_991" width="6.082" height="6.083" class="prefix__cls-6" data-name="Rectangle 991" rx="3.041" transform="translate(25.528 20.282)"/>
                    <path id="prefix__Rectangle_992" d="M1.585 0a1.585 1.585 0 0 1 1.588 1.585 1.586 1.586 0 0 1-1.587 1.588A1.586 1.586 0 0 1 0 1.587 1.585 1.585 0 0 1 1.585 0z" data-name="Rectangle 992" transform="translate(2.55 20.282)" style="fill:#77be37"/>
                    <path id="prefix__Path_7022" d="M149.022 230.416a.345.345 0 0 1-.345.345h-2.483a.345.345 0 0 1-.345-.345v-2.483a.345.345 0 0 1 .345-.345h2.483a.346.346 0 0 1 .345.345z" data-name="Path 7022" transform="translate(-139.306 -207.306)" style="fill:#c0db18"/>
                </g>
            </g>
            <g id="prefix__Group_13509" data-name="Group 13509" transform="translate(34.114 19.371)">
                <path id="prefix__Path_7023" d="M398.707 229.8q0-6.478 3.909-9.084 2.316-1.483 7.021-1.484 4.56 0 6.949 1.484 3.909 2.389 3.909 9.012a20.578 20.578 0 0 1-3.185 11.617q-3.185 4.814-7.672 4.813t-7.745-4.777a18.721 18.721 0 0 1-2.389-5.266 23.372 23.372 0 0 1-.797-6.315zm6.7-5.392q-2.1 1.774-2.1 5.573a17.849 17.849 0 0 0 2.9 9.88q1.52 2.353 3.366 2.352 2.786 0 4.922-5.211a19.41 19.41 0 0 0 1.448-7.093q0-3.727-2.135-5.5a6.535 6.535 0 0 0-4.2-1.086 6.721 6.721 0 0 0-4.208 1.077z" class="prefix__cls-4" data-name="Path 7023" transform="translate(-398.707 -219.228)"/>
                <path id="prefix__Path_7024" d="M625.728 302.2v-19.578h8.034q3.474 0 5.031 1.556t1.556 5.067V302.2h-4.307v-12.521a3.621 3.621 0 0 0-.76-2.461 3.049 3.049 0 0 0-1.194-.76l-1.411-.072h-2.642v15.779z" class="prefix__cls-6" data-name="Path 7024" transform="translate(-600.974 -275.71)"/>
                <path id="prefix__Path_7025" d="M794.291 295.432a5.245 5.245 0 0 0 1.52.977 16.992 16.992 0 0 0 3.112.47l2.425.073-1.013 3.474-1.773.036a22.307 22.307 0 0 1-2.352-.109 12.888 12.888 0 0 1-2.063-.4 9.7 9.7 0 0 1-5.555-4.035 12.189 12.189 0 0 1-2.226-7.184q0-4.487 2.642-6.587 1.918-1.52 6.008-1.52 7.527 0 7.527 5.429a7.573 7.573 0 0 1-2.968 5.9 39.98 39.98 0 0 1-5.284 3.476zm-2.751-2.714a17.623 17.623 0 0 0 4.415-2.5q2.172-1.737 2.171-3.583 0-2.424-3.438-2.425-4.09 0-4.089 4.488a10.342 10.342 0 0 0 .235 1.972 7.262 7.262 0 0 0 .706 2.048z" class="prefix__cls-6" data-name="Path 7025" transform="translate(-744.095 -273.935)"/>
                <path id="prefix__Path_7026" d="M974.764 248.973h-3.547a29.381 29.381 0 0 1-3.51-.181 14.035 14.035 0 0 1-2.859-.651 14.826 14.826 0 0 1-4.85-2.859 15.161 15.161 0 0 1-5.356-11.907q0-6.152 4.451-8.939a14.237 14.237 0 0 1 7.274-1.556h6.333l.977 3.872h-5.717a11.861 11.861 0 0 0-6.08 1.3q-2.679 1.629-2.678 5.537a11.542 11.542 0 0 0 3.167 7.908 9.368 9.368 0 0 0 7.075 3.529h.76v-9.084h-2.5v-3.872h7.057z" class="prefix__cls-4" data-name="Path 7026" transform="translate(-894.023 -222.481)"/>
                <path id="prefix__Path_7027" d="M1172.7 302.2v-19.578h4.3V302.2z" class="prefix__cls-6" data-name="Path 7027" transform="translate(-1088.302 -275.71)"/>
                <path id="prefix__Path_7028" d="M1234.095 233.193v-3.8h1.556v-1.556a5.024 5.024 0 0 1 1.267-3.655 4.767 4.767 0 0 1 3.583-1.3h2.714l1.013 3.619h-2.028a2.551 2.551 0 0 0-1.647.416 1.847 1.847 0 0 0-.489 1.466v1.013h2.751v3.8h-2.823v15.779h-4.307v-15.782z" class="prefix__cls-6" data-name="Path 7028" transform="translate(-1143.004 -222.481)"/>
                <path id="prefix__Path_7029" d="M1313.748 245.318v-3.8h1.737v-3.728l4.343-1.3v5.031h3.148v3.8h-3.185v9.554a2.5 2.5 0 0 0 .579 1.9 2.573 2.573 0 0 0 1.773.525h1.592l-1.086 3.8h-2.425a4.763 4.763 0 0 1-3.727-1.484 5.97 5.97 0 0 1-1.086-3.945v-10.353z" class="prefix__cls-6" data-name="Path 7029" transform="translate(-1213.972 -234.605)"/>
            </g>
            <g id="prefix__Group_13510" data-name="Group 13510" transform="translate(118.295 17.417)">
                <path id="prefix__Path_7030" d="M1181.459 215.9a27.3 27.3 0 0 1-1.549 4.493 27.348 27.348 0 0 1-1.508-4.506 1.529 1.529 0 1 1 3.057.014z" class="prefix__cls-4" data-name="Path 7030" transform="translate(-1177.564 -212.942)"/>
                <path id="prefix__Path_7031" d="M1173.068 208.763a27.3 27.3 0 0 0 1.549-4.493 1.529 1.529 0 0 0-3.058-.014 27.347 27.347 0 0 0 1.509 4.507zm2.392-5.071c-.006 1.307-2.394 5.643-2.394 5.643s-2.35-4.355-2.344-5.664a2.369 2.369 0 1 1 4.738.021z" class="prefix__cls-4" data-name="Path 7031" transform="translate(-1170.722 -201.312)"/>
            </g>
        </g>
    </g>
</svg>
