<svg xmlns="http://www.w3.org/2000/svg" id="prefix__Group_13735" width="87.531" height="88.162" data-name="Group 13735" viewBox="0 0 87.531 88.162">
    <defs>
        <style>
            .prefix__cls-1{fill:#220501}.prefix__cls-1,.prefix__cls-2,.prefix__cls-3,.prefix__cls-4{fill-rule:evenodd}.prefix__cls-2{fill:#87982a}.prefix__cls-3{fill:#e9521a}.prefix__cls-4{fill:#5d1913}
        </style>
    </defs>
    <path id="prefix__Path_7367" d="M377.44 280.535c3.73-11.43 9.026-34.058 14-40.713a9.247 9.247 0 0 1 5-3.506.719.719 0 0 1 .118-.11c.062-.121.116-.249.17-.375a.792.792 0 0 1-.041-.5 14.589 14.589 0 0 1 1.023-2.528c.128-.3.263-.605.4-.9.3-.978.667-1.94.934-2.926 1.952-9.736 20.534-1.052 25.625 1.012 8.68 3.521 17.562 5.15 25 11.312a14.721 14.721 0 0 1 1.767 1.7 6.055 6.055 0 0 1 1.273 1.332c.008.009.019.013.027.024l.033.062a7.509 7.509 0 0 1 .8 1.5 4.018 4.018 0 0 1 .917 3.652 37.739 37.739 0 0 1-3.4 16.871 18.094 18.094 0 0 1-1.427 4.46c-.106.484-.244.963-.369 1.424l-.11.4a16.682 16.682 0 0 1-.644 2.745 9 9 0 0 1-.887 2.311c-.284.747-.59 1.547-.957 2.286a143.757 143.757 0 0 1-5.957 17.305c-2.395 5.73-5.177 10.771-11.226 13.081a31.55 31.55 0 0 1-6.845 1.7 7.466 7.466 0 0 1-3.848-.158 10.484 10.484 0 0 1-1.226.118c-.139.005-.279 0-.419 0-.057.1-.106.213-.164.317-.2.364-.843.118-.686-.286l.022-.048c-7.161-.353-15.774-5.684-22.112-9.2-5.765-2.278-11.733-4.542-15.475-9.583-2.82-3.803-2.722-8.467-1.316-12.779z" class="prefix__cls-1" data-name="Path 7367" transform="translate(-373.983 -224.443)"/>
    <path id="prefix__Path_7368" d="M380.551 292.183a20.508 20.508 0 0 0 6.42 5.005c-.139-.148-.281-.293-.419-.45a.247.247 0 1 1 .388-.3 7.836 7.836 0 0 0 1.962 1.745c.282.14.566.276.846.411s1.51.746 3.007 1.49c.718.3 1.419.587 2.058.886 5.7 2.65 10.782 5.848 17.072 7.341a22.085 22.085 0 0 0 5.356.791c1.04-2.272 1.839-4.649 2.864-6.931 1.389-3.088 2.809-6.194 4.33-9.218.068-.135.277-.041.238.1-.879 3.26-2.793 6.214-4.083 9.322-.912 2.2-1.615 4.493-2.543 6.686a8.707 8.707 0 0 0 1.481-.263c.087-.269.185-.533.269-.782.373-1.092.855-2.146 1.317-3.2 1.189-2.724 2.463-5.422 3.562-8.186 2.083-5.234 4.729-10.309 6.265-15.742a.162.162 0 0 1 .312.085c-.984 5.4-3.929 10.328-5.767 15.458-.961 2.684-2.2 5.258-3.283 7.891-.451 1.091-.931 2.172-1.352 3.277a7.911 7.911 0 0 0-.259.837c.163-.07.326-.142.488-.225 2.683-1.365 4.349-4.7 5.578-7.308 1.191-2.522 1.858-5.229 2.865-7.818.847-2.18 1.782-4.325 2.657-6.492a133.965 133.965 0 0 0 6.782-20.6c.836-3.7 1.936-8.941-.448-11.9a10.835 10.835 0 0 1-2.075-1.565C427.4 248.53 417.717 245.1 408.4 240.9c-2.447-1.1-4.918-2.144-7.441-3.062-1.533-.559-3.266-1.1-4.786-.254-1.6.894-2.7 2.913-3.621 4.415-8.429 13.79-7.874 22.839-12.91 36.094-1.85 4.88-2.569 9.733.909 14.09z" class="prefix__cls-2" data-name="Path 7368" transform="translate(-373.862 -223.494)"/>
    <path id="prefix__Path_7369" d="M422.979 303.6c.571.045 1.149.1 1.722.131a14.841 14.841 0 0 0 1.833-.675c1.486-.666 2.847-1.581 4.371-2.154a22.159 22.159 0 0 0 3.926-6c.034-.1.067-.193.1-.267a6.725 6.725 0 0 0 .256-.787 3.5 3.5 0 0 1-1.311.454c.034-.075.069-.152.1-.225a10.143 10.143 0 0 1-3.447 1.049 4.6 4.6 0 0 1-3.809-1.4c-.489 1.349-1 2.69-1.584 4a23.716 23.716 0 0 1-2.142 3.866c-.041.674-.019 1.339-.015 2.008z" class="prefix__cls-2" data-name="Path 7369" transform="translate(-370.508 -219.265)"/>
    <path id="prefix__Path_7370" d="M435.556 291.636c.822-2.485 1.695-4.96 2.583-7.422a11.721 11.721 0 0 1-4.361 1.233 7.237 7.237 0 0 1-3.494-.566c-.3.628-.594 1.259-.888 1.887a7.935 7.935 0 0 1-.387.843c-.283.617-.558 1.237-.816 1.866-.017.049-.037.1-.055.147-.049.134-.1.265-.153.4-.22.608-.417 1.243-.661 1.852-.131.374-.268.745-.392 1.122a8.62 8.62 0 0 0 1.8 1.364 4.641 4.641 0 0 0 2.639.01c1.311-.272 2.514-.875 3.812-1.189a12.854 12.854 0 0 1 .373-1.547z" class="prefix__cls-3" data-name="Path 7370" transform="translate(-370.212 -219.976)"/>
    <path id="prefix__Path_7371" d="M437.178 287.1q.872-2.383 1.658-4.79c-.126.364-.249.731-.38 1.094q-.667 1.846-1.324 3.7a.221.221 0 0 1 .046-.004z" class="prefix__cls-4" data-name="Path 7371" transform="translate(-369.45 -220.118)"/>
    <path id="prefix__Path_7372" d="M443.4 268.805c.639-2.1 1.35-4.166 1.954-6.262a11.551 11.551 0 0 1 .806-3.21c.02-.1.045-.2.066-.3.166-.829 1.149-5.172.149-6.207a9.462 9.462 0 0 1-1.595.945 10.622 10.622 0 0 1-7.206.436c-.169-.047-.344-.1-.519-.161a20.721 20.721 0 0 1 .573 6.553c-.334 6.646-2.687 13.263-5.039 19.5a1.144 1.144 0 0 0-.347.508c-.49 1.407-1.023 2.8-1.566 4.186.263.366.369.782.866.973a5.761 5.761 0 0 0 2.763.067c.742-.109 1.792-.553 2.755-.753.026-.1.057-.2.081-.3a7.206 7.206 0 0 0 1.587-.68c1.73-5.046 3.11-10.194 4.672-15.295z" class="prefix__cls-2" data-name="Path 7372" transform="translate(-369.932 -222.322)"/>
    <path id="prefix__Path_7373" d="M449.49 250.337a.085.085 0 0 1 .086-.071 8.393 8.393 0 0 0 .091-1.667c-.009-.089-.019-.174-.032-.262a31.993 31.993 0 0 0-5.23-3.651c-3.146-1.906-6.505-3.422-9.8-5.03-8.45-4.115-17.158-8.927-26.616-10.134a1.993 1.993 0 0 1-.244 1.339c13.011 4.549 25.86 10.042 37.674 17.216a.455.455 0 0 1-.455.788c-12.61-5.546-24.456-13.753-38.093-16.731a11.477 11.477 0 0 1-1.5 1.437c4.614 1.695 9.206 3.568 13.744 5.45a59.754 59.754 0 0 1 13.89 7.6c.178.138-.052.433-.239.313a87.9 87.9 0 0 0-14.223-7.206c-4.622-1.917-9.493-3.408-14.023-5.547l-.081.054a.259.259 0 0 1-.033.043 20.18 20.18 0 0 0-1.552 1.386c-.279.282-.524.6-.779.91-.043.12-.083.242-.129.356a.546.546 0 0 1-.37.355h-.006c.145.059.294.118.434.172 5.447 2.156 10.654 4.883 16.066 7.125 2.478 1.025 4.994 2 7.488 3.02 1.726-.127 9.37 3.212 11.059 4.451a4.423 4.423 0 0 1 .818.59c.089.063.181.121.271.182.392.168.76.391 1.163.551a7.76 7.76 0 0 0 1.893.429 8.237 8.237 0 0 0 1.37.047c.464-.072.932-.116 1.351-.175.734-.1 1.478-.187 2.225-.228l.146-.061c.747-.334 1.479-.71 2.2-1.1a.162.162 0 0 1 .128-.011 5.921 5.921 0 0 0 .767-.577c.046-.066.091-.13.129-.2a4.515 4.515 0 0 0 .412-1.163z" data-name="Path 7373" transform="translate(-372.108 -224.064)" style="fill:#fff;fill-rule:evenodd"/>
    <path id="prefix__Path_7374" d="M444.345 242.854a.157.157 0 0 1-.015-.116l-.035-.013a.234.234 0 0 1-.274-.041.158.158 0 0 1-.011.029c.045.035.095.069.139.106a.114.114 0 0 1 .03.126c.038.03.073.059.11.091l.339.286c-.098-.154-.192-.308-.283-.468z" class="prefix__cls-4" data-name="Path 7374" transform="translate(-368.936 -223.08)"/>
    <path id="prefix__Path_7375" d="M445.318 241.2a.131.131 0 0 1-.049-.088c-.023-.011-.04-.027-.063-.038a.142.142 0 0 1-.041-.228c-.041-.021-.081-.044-.125-.063a28.231 28.231 0 0 1-2.9-1.181c-7.181-3.278-9.861-4.412-18.562-7.793-4.425-1.72-23.622-11-24.541-1.71a.878.878 0 0 1-.334.618 14.266 14.266 0 0 0-.914 2.913.207.207 0 0 1 .039.089l.082.465a.24.24 0 0 1 .048.312l.017.11c.383-1.039 1-2.037 1.429-3.055a38.434 38.434 0 0 1 1.831-4.044c.091-.16.379-.052.3.127q-.83 2.057-1.678 4.109a12.857 12.857 0 0 1-1.558 3.175l.536.026h.068c.664-1.21 1.522-2.307 2.076-3.6.062-.144.31-.041.251.1a16.174 16.174 0 0 1-1.807 3.5c.173 0 .345 0 .517.012a17.249 17.249 0 0 0 5.4-2.734 1.953 1.953 0 0 0 .47-.484 1.427 1.427 0 0 0 .124-.246 1.74 1.74 0 0 0 .278-.786.927.927 0 0 0 .072-.2l.165.058a1.47 1.47 0 0 0-.083-.757.047.047 0 0 1-.043-.044c0-.029 0-.057-.008-.084a.753.753 0 0 1-.059-.242c-.479-.39-.351-1.34.4-1.278 10.559.875 23.1 8.054 33.852 12.289a15.041 15.041 0 0 1 2.068.688 7.641 7.641 0 0 1 1.062.394 3.818 3.818 0 0 1 1.179.349c.1.024.193.048.291.075a1.227 1.227 0 0 0 .366-.606 2.245 2.245 0 0 0-.156-.148z" data-name="Path 7375" transform="translate(-372.39 -224.324)" style="fill:#7f772c;fill-rule:evenodd"/>
    <path id="prefix__Path_7376" d="M402.921 262.827a41.741 41.741 0 0 0 6.681 3.52c.146.063.053.3-.107.256-.044-.012-.088-.028-.134-.041 1.012.454 2.032.9 3.054 1.317a27.673 27.673 0 0 0 4.261 1.418 9.076 9.076 0 0 1 1.041-.184c.38-.142.761-.293 1.125-.466a.235.235 0 0 1 .054-.041c2.365-1.124 4.113-4.912 4.383-7.256 0-.114.011-.229.016-.343a.194.194 0 0 1 .021-.082c.008-.07.014-.143.018-.212a.141.141 0 0 1 .282 0v.188a.161.161 0 0 1 .041.106c.153 3.132-.947 6.552-3.952 8.135a8.445 8.445 0 0 1-.928.484c.273.018.546.031.814.026a.4.4 0 0 1 .366-.261 3.831 3.831 0 0 0 1.933-.723 9.868 9.868 0 0 0 3.1-5.5c1.766-7.217-5.461-8.95-10.368-10.605-.183-.061-.369-.129-.553-.2 0-.021.009-.044.014-.068-3.756-1.1-7.223-3.189-11.017-4.181-2.359-.46-8.866 8.922-.145 14.713z" class="prefix__cls-4" data-name="Path 7376" transform="translate(-372.336 -222.675)"/>
    <path id="prefix__Path_7377" d="M402.183 247.242a5.748 5.748 0 0 1 2.189.47c1.138.407 2.266.861 3.386 1.31 2.155.861 4.309 1.767 6.432 2.72l-.017-.051c.316.125.627.241.929.349 2.868 1.01 10.269 3.079 11.17 6.213.066.116.125.229.178.341a7.284 7.284 0 0 1 .379 4.387 13.178 13.178 0 0 1-1.645 4.75c-.418.691-1.46 2-2.475 1.957a5.521 5.521 0 0 1-1.57.542 10.351 10.351 0 0 1-1.3.139 3.715 3.715 0 0 1-1.069.054.241.241 0 0 1-.141-.062c-.417-.027-.832-.075-1.246-.142-.125.03-.249.061-.371.085a.384.384 0 0 1-.454-.241 39.344 39.344 0 0 1-7.677-2.932c-2.705-1.226-5.322-2.6-7.984-3.9-8.327-4.063-2.575-15.766 1.286-15.989z" class="prefix__cls-3" data-name="Path 7377" transform="translate(-372.477 -222.74)"/>
    <g id="prefix__Group_13734" data-name="Group 13734">
        <path id="prefix__Path_7378" d="M377.44 280.535c3.73-11.43 9.026-34.058 14-40.712a9.243 9.243 0 0 1 5-3.507.636.636 0 0 1 .118-.11c.062-.121.116-.249.17-.375a.792.792 0 0 1-.041-.5 14.589 14.589 0 0 1 1.023-2.528c.128-.3.262-.605.4-.9.3-.978.667-1.94.934-2.926 1.952-9.736 20.534-1.052 25.625 1.012 8.68 3.521 17.562 5.15 25 11.312a14.721 14.721 0 0 1 1.767 1.7 6.08 6.08 0 0 1 1.273 1.332c.008.009.019.013.027.023l.033.063a7.509 7.509 0 0 1 .8 1.5 4.018 4.018 0 0 1 .917 3.652 37.725 37.725 0 0 1-3.4 16.871 18.046 18.046 0 0 1-1.426 4.46c-.105.484-.244.963-.369 1.424l-.11.4a16.682 16.682 0 0 1-.644 2.745 9 9 0 0 1-.887 2.311c-.284.747-.59 1.547-.957 2.286a143.757 143.757 0 0 1-5.957 17.305c-2.395 5.732-5.177 10.771-11.226 13.081a31.55 31.55 0 0 1-6.845 1.7 7.466 7.466 0 0 1-3.848-.158 10.484 10.484 0 0 1-1.226.118c-.139.005-.279 0-.419 0-.055.1-.106.213-.164.317-.2.364-.843.118-.687-.287l.023-.047c-7.161-.353-15.774-5.684-22.112-9.2-5.765-2.278-11.732-4.542-15.475-9.583-2.819-3.8-2.721-8.464-1.315-12.776zm69.471-39.212a.131.131 0 0 1-.049-.088c-.023-.011-.04-.027-.063-.038a.142.142 0 0 1-.041-.228c-.041-.021-.081-.044-.125-.063a28.231 28.231 0 0 1-2.9-1.181c-7.181-3.278-9.861-4.412-18.562-7.793-4.425-1.72-23.622-11-24.541-1.708a.878.878 0 0 1-.334.616 14.266 14.266 0 0 0-.914 2.913.207.207 0 0 1 .039.089l.082.465a.24.24 0 0 1 .048.312l.017.11c.383-1.039 1-2.037 1.429-3.055a38.434 38.434 0 0 1 1.831-4.044c.091-.16.379-.052.3.127q-.83 2.057-1.678 4.109a12.857 12.857 0 0 1-1.558 3.175l.536.026h.068c.664-1.21 1.521-2.307 2.076-3.6.062-.144.31-.041.251.1a16.174 16.174 0 0 1-1.807 3.5c.173 0 .345 0 .517.012a17.249 17.249 0 0 0 5.4-2.734 1.976 1.976 0 0 0 .471-.484 1.5 1.5 0 0 0 .123-.246 1.727 1.727 0 0 0 .278-.786 1.016 1.016 0 0 0 .072-.2l.165.058a1.47 1.47 0 0 0-.083-.757.047.047 0 0 1-.043-.044c0-.029 0-.057-.008-.084a.753.753 0 0 1-.059-.242c-.479-.39-.351-1.34.4-1.278 10.559.874 23.1 8.054 33.852 12.289a15.041 15.041 0 0 1 2.068.688 7.641 7.641 0 0 1 1.062.394 3.818 3.818 0 0 1 1.179.349c.1.024.193.048.291.075a1.227 1.227 0 0 0 .366-.606 2.245 2.245 0 0 0-.165-.16zm2.482 2.894a.157.157 0 0 1-.015-.116l-.035-.013a.234.234 0 0 1-.274-.041.158.158 0 0 1-.011.029c.045.035.095.069.139.106a.114.114 0 0 1 .03.126c.038.03.073.059.11.091l.339.286c-.1-.155-.191-.308-.282-.469zm1.972 6.5a.086.086 0 0 1 .087-.071 8.472 8.472 0 0 0 .09-1.667c-.009-.089-.019-.174-.032-.262a32 32 0 0 0-5.23-3.651c-3.146-1.906-6.505-3.422-9.8-5.03-8.45-4.115-17.158-8.927-26.616-10.134a1.992 1.992 0 0 1-.244 1.339c13.011 4.549 25.86 10.042 37.674 17.216a.455.455 0 0 1-.455.788c-12.61-5.546-24.456-13.753-38.093-16.731a11.475 11.475 0 0 1-1.5 1.437c4.614 1.695 9.206 3.568 13.744 5.45a59.753 59.753 0 0 1 13.89 7.6c.178.138-.052.433-.239.313a87.9 87.9 0 0 0-14.223-7.206c-4.622-1.917-9.493-3.408-14.023-5.547l-.081.054a.257.257 0 0 1-.033.043 19.966 19.966 0 0 0-1.551 1.386c-.281.281-.526.6-.78.91-.043.12-.084.242-.129.356a.546.546 0 0 1-.37.355h-.006c.145.059.294.118.434.172 5.447 2.156 10.654 4.883 16.066 7.125 2.478 1.025 4.994 2 7.488 3.02 1.726-.127 9.37 3.212 11.059 4.451a4.424 4.424 0 0 1 .818.59c.089.063.181.121.271.182.392.168.76.391 1.163.551a7.76 7.76 0 0 0 1.893.429 8.236 8.236 0 0 0 1.37.047c.464-.072.932-.116 1.351-.175.734-.1 1.478-.187 2.225-.228l.146-.061c.747-.334 1.479-.71 2.2-1.1a.162.162 0 0 1 .128-.011 5.824 5.824 0 0 0 .767-.577c.046-.066.091-.13.129-.2a4.515 4.515 0 0 0 .417-1.161zm-3.914 20.209c.639-2.1 1.35-4.166 1.954-6.262a11.551 11.551 0 0 1 .806-3.21c.02-.1.045-.2.066-.3.166-.829 1.149-5.172.149-6.207a9.462 9.462 0 0 1-1.595.945 10.622 10.622 0 0 1-7.206.436c-.169-.047-.344-.1-.519-.161a20.659 20.659 0 0 1 .573 6.553c-.334 6.646-2.687 13.263-5.039 19.5a1.144 1.144 0 0 0-.347.508c-.49 1.407-1.023 2.8-1.566 4.186.263.366.369.782.866.973a5.761 5.761 0 0 0 2.763.067c.742-.109 1.793-.553 2.755-.753.026-.1.057-.2.081-.3a7.206 7.206 0 0 0 1.587-.68c1.731-5.044 3.111-10.192 4.673-15.292zm-5.739 20.5q.872-2.383 1.658-4.79c-.126.364-.249.731-.38 1.094q-.667 1.846-1.324 3.7a.221.221 0 0 1 .046 0zm-2.385 4.678c.822-2.485 1.695-4.96 2.583-7.422a11.741 11.741 0 0 1-4.361 1.233 7.237 7.237 0 0 1-3.494-.566c-.3.628-.594 1.259-.888 1.887a7.935 7.935 0 0 1-.387.843c-.283.617-.558 1.237-.816 1.866-.017.049-.037.1-.055.147-.049.134-.1.265-.152.4-.221.608-.418 1.243-.662 1.852-.131.374-.268.745-.392 1.122a8.62 8.62 0 0 0 1.8 1.364 4.641 4.641 0 0 0 2.639.01c1.311-.272 2.514-.875 3.812-1.189a12.854 12.854 0 0 1 .373-1.546zm-12.873 12.678c.571.045 1.149.1 1.722.129a14.487 14.487 0 0 0 1.833-.673c1.486-.666 2.847-1.581 4.371-2.154a22.159 22.159 0 0 0 3.926-6c.034-.1.067-.193.1-.267a6.725 6.725 0 0 0 .256-.787 3.5 3.5 0 0 1-1.311.454c.034-.075.069-.152.1-.225a10.143 10.143 0 0 1-3.451 1.049 4.6 4.6 0 0 1-3.809-1.4c-.489 1.349-1 2.69-1.584 4a23.716 23.716 0 0 1-2.142 3.866c-.04.671-.017 1.336-.014 2.008zm-45.782-15.649a20.508 20.508 0 0 0 6.42 5.005c-.139-.148-.281-.293-.419-.45a.247.247 0 1 1 .388-.3 7.836 7.836 0 0 0 1.962 1.745c.282.14.566.276.846.411s1.51.746 3.007 1.49c.718.3 1.419.587 2.059.886 5.7 2.65 10.781 5.848 17.071 7.341a22.085 22.085 0 0 0 5.356.791c1.04-2.272 1.839-4.649 2.864-6.931 1.389-3.088 2.809-6.194 4.33-9.218.068-.135.277-.041.238.1-.879 3.26-2.793 6.214-4.083 9.322-.912 2.2-1.615 4.493-2.543 6.686a8.707 8.707 0 0 0 1.481-.263c.087-.269.185-.533.269-.782.373-1.092.855-2.146 1.317-3.2 1.189-2.724 2.463-5.422 3.562-8.186 2.083-5.234 4.729-10.309 6.265-15.742a.162.162 0 0 1 .312.085c-.984 5.4-3.929 10.328-5.767 15.458-.961 2.684-2.2 5.258-3.283 7.89-.451 1.092-.931 2.173-1.352 3.278a7.911 7.911 0 0 0-.259.837c.163-.07.326-.142.488-.225 2.683-1.365 4.349-4.7 5.578-7.308 1.191-2.522 1.858-5.229 2.865-7.818.847-2.18 1.782-4.325 2.657-6.492a133.965 133.965 0 0 0 6.782-20.6c.836-3.7 1.936-8.941-.448-11.9a10.835 10.835 0 0 1-2.075-1.565c-9.034-3.988-18.72-7.417-28.032-11.623-2.447-1.1-4.918-2.144-7.441-3.062-1.533-.559-3.266-1.1-4.786-.254-1.6.894-2.7 2.913-3.621 4.415-8.429 13.79-7.874 22.839-12.91 36.094-1.857 4.874-2.576 9.727.902 14.084z" class="prefix__cls-1" data-name="Path 7378" transform="translate(-373.983 -224.443)"/>
        <g id="prefix__Group_13733" data-name="Group 13733" transform="translate(0 3.971)">
            <path id="prefix__Path_7379" d="M422.167 247.912a.015.015 0 1 1 0 .03.015.015 0 1 1 0-.03z" class="prefix__cls-1" data-name="Path 7379" transform="translate(-370.569 -226.66)"/>
            <path id="prefix__Path_7380" d="M393.71 267.272c.693-.693 2.34.31 3.009.619 1.822.843 3.563 1.859 5.308 2.852 1.531.872 3.1 1.643 4.646 2.491 2.713 1.492 5.251 3.1 8.1 4.338a.179.179 0 0 1-.088.331c-2.4-.265-4.748-2.011-6.788-3.183-1.686-.968-3.446-1.777-5.145-2.717-1.677-.93-3.347-1.876-5.053-2.751-.753-.387-1.515-.766-2.3-1.083-.326-.132-.979-.462-1.341-.315-.341.136-.578-.354-.348-.582z" class="prefix__cls-1" data-name="Path 7380" transform="translate(-372.702 -225.231)"/>
            <path id="prefix__Path_7381" d="M392.853 270.27c3.163.723 6.127 2.818 8.9 4.429 3.981 2.318 8.018 4.5 12.114 6.592a.2.2 0 0 1-.149.358 32.366 32.366 0 0 1-5.971-2.778c-1.969-1.078-3.939-2.161-5.894-3.265-2.928-1.653-5.907-3.737-9.209-4.543-.517-.126-.303-.91.209-.793z" class="prefix__cls-1" data-name="Path 7381" transform="translate(-372.797 -224.99)"/>
            <path id="prefix__Path_7382" d="M399.12 279.142a9.591 9.591 0 0 1 1.938 1c.963.454 1.951.849 2.93 1.263a17.121 17.121 0 0 1 5.252 3.046c.058.058-.029.145-.089.092-1.644-1.422-3.917-2.16-5.911-2.919-.832-.313-1.666-.613-2.485-.96-.619-.262-1.557-.535-1.922-1.142a.257.257 0 0 1 .287-.38z" class="prefix__cls-1" data-name="Path 7382" transform="translate(-372.315 -224.327)"/>
            <path id="prefix__Path_7383" d="M391.712 274.741c.816.379 1.626.765 2.412 1.209a4.263 4.263 0 0 1 1.676 1.345c.081.139-.088.346-.234.237a19.488 19.488 0 0 0-4.205-2.178c-.414-.175-.061-.806.351-.613z" class="prefix__cls-1" data-name="Path 7383" transform="translate(-372.884 -224.658)"/>
            <path id="prefix__Path_7384" d="M433.349 246.6a6.709 6.709 0 0 1 1.99 1.006 21.72 21.72 0 0 1 2 1.26c.117.088.057.3-.107.255a9.181 9.181 0 0 1-1.895-.947 18.722 18.722 0 0 1-2.18-1.233c-.179-.141.014-.375.192-.341z" class="prefix__cls-1" data-name="Path 7384" transform="translate(-369.752 -226.758)"/>
            <path id="prefix__Path_7385" d="M447.858 237.7a11.187 11.187 0 0 1 5.6 8.793 23.774 23.774 0 0 1-.268 5.973c-.286 1.85-.512 4.316-1.651 5.849-.171.229-.637.279-.7-.088a10.194 10.194 0 0 1 .486-3.786 33.055 33.055 0 0 0 .781-5.668 13.013 13.013 0 0 0-.994-5.684c-.833-1.952-2.381-3.183-3.862-4.6-.418-.407.115-1.041.608-.789z" class="prefix__cls-1" data-name="Path 7385" transform="translate(-368.705 -227.428)"/>
            <path id="prefix__Path_7386" d="M455.47 242.674a.1.1 0 0 1 .186.048c-.154 2.069-.187 4.176-.518 6.221-.026.164-.3.128-.289-.038.151-2.042-.233-4.305.621-6.231z" class="prefix__cls-1" data-name="Path 7386" transform="translate(-368.126 -227.055)"/>
            <path id="prefix__Path_7387" d="M384.016 273.882a.552.552 0 0 1 .782.778c-3.96 4.865-4.674 11.221.379 15.675a.162.162 0 0 1-.195.255c-5.644-3.715-5.861-12.19-.966-16.708z" class="prefix__cls-1" data-name="Path 7387" transform="translate(-373.68 -224.731)"/>
            <path id="prefix__Path_7388" d="M388.52 290.336a1.776 1.776 0 0 1 .307.238c.169.1.313.236.485.346.246.159.5.305.751.465.477.305.18 1.173-.4.959a3.952 3.952 0 0 1-1.108-.579 1.357 1.357 0 0 1-.61-1.094.387.387 0 0 1 .575-.335z" class="prefix__cls-1" data-name="Path 7388" transform="translate(-373.126 -223.493)"/>
            <path id="prefix__Path_7389" d="M376 273.188c.6-2.471 1.333-4.916 2.073-7.347 1.626-5.338 3.469-10.628 4.967-16a.192.192 0 0 1 .371.1 137.544 137.544 0 0 1-4.036 14.838c-.765 2.493-1.531 4.992-2.13 7.531-.388 1.644-.3 4.34-1.261 5.717-.117.169-.427.233-.529 0-.613-1.39.203-3.444.545-4.839z" class="prefix__cls-1" data-name="Path 7389" transform="translate(-374.076 -226.527)"/>
            <path id="prefix__Path_7390" d="M374.2 280.608a5.579 5.579 0 0 1 .429-2.106c.147-.326.661-.16.655.174-.015.641-.092 1.286-.128 1.929a4.259 4.259 0 0 1-.255 2.042.287.287 0 0 1-.488 0 3.555 3.555 0 0 1-.213-2.039z" class="prefix__cls-1" data-name="Path 7390" transform="translate(-374.156 -224.387)"/>
            <path id="prefix__Path_7391" d="M405.5 228.138c.017 0 .017.027 0 .027a.013.013 0 1 1 0-.027z" class="prefix__cls-1" data-name="Path 7391" transform="translate(-371.815 -228.138)"/>
            <path id="prefix__Path_7392" d="M402.183 247.242a5.748 5.748 0 0 1 2.189.47c1.138.407 2.266.861 3.386 1.31 2.155.861 4.309 1.767 6.432 2.72l-.017-.051c.316.125.627.242.929.349 2.868 1.008 10.269 3.079 11.17 6.213.066.116.125.229.178.341a7.284 7.284 0 0 1 .379 4.387 13.178 13.178 0 0 1-1.645 4.75c-.418.691-1.46 2-2.475 1.957a5.521 5.521 0 0 1-1.57.542 10.351 10.351 0 0 1-1.3.139 3.715 3.715 0 0 1-1.069.054.241.241 0 0 1-.141-.062c-.417-.027-.832-.075-1.246-.142-.125.03-.249.061-.371.085a.384.384 0 0 1-.454-.241 39.344 39.344 0 0 1-7.677-2.932c-2.705-1.226-5.322-2.6-7.984-3.9-8.33-4.067-2.578-15.77 1.283-15.992zm.878 15.649a41.741 41.741 0 0 0 6.681 3.52c.146.063.053.3-.107.256-.044-.012-.088-.028-.134-.041 1.012.454 2.032.9 3.054 1.317a27.673 27.673 0 0 0 4.261 1.418 9.076 9.076 0 0 1 1.041-.184c.38-.142.761-.293 1.125-.466a.235.235 0 0 1 .054-.041c2.365-1.123 4.113-4.912 4.383-7.256 0-.114.011-.229.016-.343a.194.194 0 0 1 .021-.082c.008-.07.014-.143.018-.212a.141.141 0 0 1 .282 0v.188a.159.159 0 0 1 .041.106c.153 3.132-.947 6.552-3.952 8.135a8.445 8.445 0 0 1-.928.484c.273.018.546.031.814.026a.4.4 0 0 1 .366-.261 3.831 3.831 0 0 0 1.933-.723 9.868 9.868 0 0 0 3.1-5.5c1.766-7.217-5.461-8.95-10.368-10.605-.183-.061-.369-.129-.553-.2 0-.021.009-.044.014-.068-3.755-1.107-7.223-3.189-11.019-4.181-2.359-.46-8.865 8.922-.143 14.714z" class="prefix__cls-1" data-name="Path 7392" transform="translate(-372.477 -226.711)"/>
        </g>
    </g>
</svg>
