<svg xmlns="http://www.w3.org/2000/svg" width="161.507" height="162.874" viewBox="0 0 161.507 162.874">
    <defs>
        <filter id="prefix__Ellipse_237" width="108" height="108" x="27.021" y="17.844" filterUnits="userSpaceOnUse">
            <feOffset/>
            <feGaussianBlur result="blur" stdDeviation="3"/>
            <feFlood flood-opacity=".161"/>
            <feComposite in2="blur" operator="in"/>
            <feComposite in="SourceGraphic"/>
        </filter>
        <filter id="prefix__Path_7577" width="161.507" height="162.874" x="0" y="0" filterUnits="userSpaceOnUse">
            <feOffset dy="10"/>
            <feGaussianBlur result="blur-2" stdDeviation="12"/>
            <feFlood flood-opacity=".188"/>
            <feComposite in2="blur-2" operator="in"/>
            <feComposite in="SourceGraphic"/>
        </filter>
    </defs>
    <g id="prefix__Group_13783" data-name="Group 13783">
        <g transform="translate(-12619.979 -1547.156) translate(12619.98 1547.16)">
            <circle id="prefix__Ellipse_237-2" cx="45" cy="45" r="45" data-name="Ellipse 237" transform="translate(36.02 26.84)" style="fill:#fff"/>
        </g>
        <g transform="translate(-12619.979 -1547.156) translate(12619.98 1547.16)">
            <path id="prefix__Path_7577-2" d="M185.9 334.863c-30.126 0-44.814 23.03-44.814 45.933s14.19 44.941 44.814 44.941 44.442-22.535 44.69-45.065c.247-22.779-14.69-45.809-44.69-45.809zm30.725 19.069a10.027 10.027 0 0 1-1.408 4.642 8.787 8.787 0 0 1-3.39-.626 6.735 6.735 0 0 0 4.795-4.016zm-46.365 45.111c.216 2.711-4.056 7.145-4.056 7.145-2.086-2.816.927-5.372.927-5.372a2.392 2.392 0 0 0 .73-3.129l2.409-.626zm35.046-15.437l-2.347 4.589s-2.346-1.668-1.617-2.92c0 0 1.945-1.773 1.546-3.129l-.007-1.461 2.425-1.955zm7.727-20.307a5.744 5.744 0 0 1-1-1.51l.1 3.025a26.752 26.752 0 0 0 .787 7.867c.715 2.114-4.068 1.251-4.068 1.251s-.417-2.965-2.92-3.486-4.381-1.729-2.92-4.545c0 0-6.154 3.9-1.669 8.1l4.485 3.37s-5.424 3.025-7.2 6.466c0 0-5.241-.149-7.677 1.83l.138-1.891s.342-3.8 3.471-2.234c0 0 .834-1.773 1.981-.938s3.13-1.252 3.13-1.252l-1.043-1.877s-4.172 1.251-7.406-1.148a9.247 9.247 0 0 1 .139-10.048c-3.885 5.235-2.7 9.787-2.112 11.33-2.233 1.507-6.52 4.506-6.311 5.548 0 0 1.1.574-1.662 1.772-.641.278-.9 1.009-1.2 1.394-.255.35-.548.72-.892 1.118-.147.194-.281.376-.4.539-1.326 2.012-1.411 4.911-3.1 6.347-1.845 1.568-9.127 2.5-10.326 3.233s-2.907 5.445-3.736 7.2-5.181 2.571-5.181 2.571l.521-1.508c.47-1.55.823-2.49 1.718-2.833l1.847-.709c1.2-1.014.633-3.517.818-5.27a3.05 3.05 0 0 1 1.476-2.4l4-3.624-.77-4.517a13.068 13.068 0 0 1 .278-2.776c-1.56 2.095-9.278 6.858-13.319 2.813a7.181 7.181 0 0 1-2.043-5.238c.035-4.137 1.878-6.359 4.38-8.64 3.72-3.39 7.093-4.363 9.283-6.589-.581 1.828-5.785 6.9-7.507 6.678a1.284 1.284 0 0 0-.868.2 8.414 8.414 0 0 0-3.829 9.4c1.537 6.437 9.248 4.337 12.1 0 3.236-4.924 3.622-5.155 9.23-9.036a17.534 17.534 0 0 0 4.385-4.347c1.486-2.115 12.953-16.233 17.675-15.664 4.393.529 9.283-1.355 14.185 4.381 0 0 6.644 4.59 10.712-2.085-.002.01-1.756 6.326-7.681 7.733zm-8.092 12.015c-4.12-2.177-4.12-4.355-4.12-4.355a8.646 8.646 0 0 0 3.782 1.607z" data-name="Path 7577" transform="translate(-105.08 -308.86)" style="fill:#09161f"/>
        </g>
    </g>
</svg>
