<svg xmlns="http://www.w3.org/2000/svg" id="prefix__Group_13747" width="210.987" height="347.78" data-name="Group 13747" viewBox="0 0 210.987 347.78">
    <defs>
        <style>
            .prefix__cls-1{fill:#220501}.prefix__cls-1,.prefix__cls-13,.prefix__cls-14,.prefix__cls-15,.prefix__cls-19,.prefix__cls-2,.prefix__cls-3,.prefix__cls-4,.prefix__cls-6,.prefix__cls-7{fill-rule:evenodd}.prefix__cls-2,.prefix__cls-7{fill:#370d05}.prefix__cls-2{opacity:.2;mix-blend-mode:multiply;isolation:isolate}.prefix__cls-3{fill:#e9521a}.prefix__cls-4{fill:#231916}.prefix__cls-6{fill:#efac68}.prefix__cls-13{fill:#fff}.prefix__cls-14{fill:#d6c1be}.prefix__cls-15{fill:#ab3824}.prefix__cls-19{fill:#e65240}.prefix__cls-22{fill:#f7e0cb}
        </style>
    </defs>
    <path id="prefix__Path_7522" d="M343.344 166.348a11.873 11.873 0 0 0-3.879-5.965 12.345 12.345 0 0 0-2.867-1.676 26.157 26.157 0 0 0-2.631-1.11c.617-.786.416-2.292.226-3.162a5.313 5.313 0 0 0-2.269-3.139c-1.938-1.4-5.728-2.387-8.107-1.453.893-1.988-1.029-4.748-2.691-5.676a8.8 8.8 0 0 0-3.177-.9 7.738 7.738 0 0 0-2.882.008c.4-2.966-2.365-5.663-5.252-6.232-4.6-.907-9.619 1.84-13.126 4.528-3.58 2.744-6.833 5.9-8.2 10.313a22.368 22.368 0 0 0-.137 10.751 1.105 1.105 0 0 0-.143.045c-3.171-.71-4.561 2.285-5.179 4.875a15.364 15.364 0 0 0-.337 5.115 27.964 27.964 0 0 0-3.764-3.466c-3.17-2.462-7.406-4.866-11.544-5.309a37.612 37.612 0 0 1 3.467-1.7 25.862 25.862 0 0 1 7.447-1.7c5.531-.451-6.713-2.861-14-.825a14.582 14.582 0 0 0-1.927-2.945 21.977 21.977 0 0 0-3.744-3.72c-2.763-2.227-8.278-5.252-11.143-7.337.764 3.072 5.32 6.113 7.342 9.3a13.432 13.432 0 0 1 1.119 2.195c-4.8-5.7-13.261-8.293-20.242-9.348-14.967-2.266-28.254 5.574-27.088 5.39 4.344-.684 11.379.562 15.275 2.455 1.267.617 2.5 1.31 3.711 2.026a44.851 44.851 0 0 0-9.464.039 45.888 45.888 0 0 0-16.006 4.411c-9.769 4.859-17.7 12.93-23.371 22.183a66.082 66.082 0 0 0-8.983 24.227 54.266 54.266 0 0 0-.5 12.564c.02 3.555 2.579 11.264 3.517 11.379a11.287 11.287 0 0 0 2.079.4c.154 2.755 1.806 5.519 3.34 7.62a44.91 44.91 0 0 0 3.566 4.176c.915.973 1.922 2.411 3.153 3.063l.071.2a6.558 6.558 0 0 0-9.585 4.564c-.656 4.033 1.966 7.508 4.53 10.3a38.983 38.983 0 0 0 9.323 7.817c2.245 1.255 5.535 2.13 7.314.082a40.2 40.2 0 0 0 12.895 11.566c5.275 2.87 11.14 3.863 17.042 4.328a18.675 18.675 0 0 0-4.8 4.755c-1.289 2.045-.98 4.312-.289 6.518a17.236 17.236 0 0 0-2.36 2.871 33.512 33.512 0 0 0-2.843 4.518 22.261 22.261 0 0 0-1.864 4.843 10.3 10.3 0 0 0-.488 3.683 4.219 4.219 0 0 0-2.154.9c-2.678 2.039-4.556 5.265-6.251 8.111a108.538 108.538 0 0 0-5.036 9.639 79.686 79.686 0 0 0-4.789 11.935c-1.027 3.629-1.419 7.6 1.027 10.731a11.066 11.066 0 0 0 2.807 2.476 15.209 15.209 0 0 0-.048 8.516 11.448 11.448 0 0 0 3.512 5.361 12.563 12.563 0 0 0 6.011 3.527c.11.018.222.035.34.044a25.72 25.72 0 0 0-1.978 4.4c-.914 2.56-2.5 15.668-2.181 19.621a20.937 20.937 0 0 0-9.761-5.658 21.428 21.428 0 0 0-15.69 2.753 18.716 18.716 0 0 0-8.579 12.664c-.313 2.1.328 1.6-.2 2.486a12.19 12.19 0 0 0-1.335 6.807c.43 5.55 3.846 10.263 7.767 13.961 4.5 4.246 10.066 7.158 15.689 9.6 1.369.6 9.665 3.687 10.023 4.238 1.393 2.149 4.337 3.562 6.57 4.625a26.989 26.989 0 0 0 9.008 2.617 10.172 10.172 0 0 0 7.623-1.945 7.2 7.2 0 0 0 2.08-3.334 11.231 11.231 0 0 0 .333-1.313c.069-.105.138-.208.205-.313a.564.564 0 0 0 .164-.1c1.429-1.235 3.872-7.3 4.669-9.324a18.863 18.863 0 0 0 1.547-7.774c.112-1.641.359-3.287.5-4.92.994-11.41 4.242-19.824 15.19-26.25a21.024 21.024 0 0 1 6.765-2.519c10.628-2.043 13.014-.52 20.641 6.482 4.99 4.581 9.5 9.715 14.323 14.5.218 3.14 3.507 9.765 4.588 13.919-13.008 9.3-8.655 35.532 3.143 44.865a21.948 21.948 0 0 0 10.688 4.253 52.215 52.215 0 0 0 13.8.269c9.474-1.1 18.24-5.578 17.156-16.629-.488-4.956-3.5-8.757-7.459-11.36v-.053a31.466 31.466 0 0 0-3.748-11.047c-.962-1.838-2.024-3.62-3.082-5.4-.825-1.392-1.594-2.85-2.487-4.211a4.762 4.762 0 0 0-.085-.508q-.053-.255-.13-.5A87.434 87.434 0 0 0 324 417.293c-.366-2.219-.944-4.4-1.478-6.581a54.812 54.812 0 0 1-1.055-6.056 17.885 17.885 0 0 0 .605-3.163c.33-3.394-.494-6.82-1.4-10.062a100.9 100.9 0 0 0-3.554-10.336 76.512 76.512 0 0 1-3.611-9.444c-.4-1.586-.963-3.147-1.483-4.7-.577-1.722-1.173-3.438-1.828-5.128a19.721 19.721 0 0 0 3.724-.531 16.189 16.189 0 0 0 5.963-2.433 10.4 10.4 0 0 0 1.659-1.4.422.422 0 0 0 .23-.053 26.363 26.363 0 0 0 7.01-5.848c5.085-5.679 4.775-8.432 4.193-15.651-.233-2.89-.737-6.041-2.395-8.486a.868.868 0 0 0-1.162-.306c-.039.016-.075.035-.113.052-.329-.927-.644-1.859-.925-2.808-3.361-11.312-6.2-23.667-13.729-33.059a15.251 15.251 0 0 0-2.726-2.773q1.939-1.486 3.936-2.9c2.724-1.916 10.628-3.957 10.95-6.864-1.1-2.8-1.334-5.94-2.386-8.757-1.2-3.216-2.935-7.063-5.471-9.5a94.357 94.357 0 0 0 6.994-10.682c3.755-6.477 7.293-13.262 9.416-20.472a80.941 80.941 0 0 0 2.846-21.519 20.264 20.264 0 0 0-.045-2.257 1.126 1.126 0 0 0-.095-.368c8.373-4.507 8.024-29.164 5.278-38.869zm-58.878 59.722a10.18 10.18 0 0 0-1.17 4.08 10.5 10.5 0 0 0-.013 1.7v.015a.5.5 0 0 1 .233-.13c2.143-.536 4.445 1.93 5.072 3.766a4.584 4.584 0 0 1-.027 3.293c-.366.886-1.153 2-2.205 1.933a.606.606 0 0 1-.574-.756c.228-.855 1.132-1.235 1.335-2.129a3.193 3.193 0 0 0-.294-2.19 4.943 4.943 0 0 0-1.526-1.828c-.56-.376-1.2-.6-1.772-.949a2.247 2.247 0 0 1 .067.638c-.006.113-.141.226-.25.144-.9-.677-1.272-2.429-1.236-3.512a10.316 10.316 0 0 1 .984-4.045c1.174-2.511 3.169-5.633 5.865-6.634a.34.34 0 0 1 .38.5c-1.523 2.145-3.666 3.676-4.871 6.1zm-68.666 8.46a.812.812 0 0 1-.773 1.017c-1.552-.056-2.781-1.324-4.353-1.451a6.9 6.9 0 0 0-4.151.919 8.554 8.554 0 0 0-3.12 3.119c-.732 1.31-.817 2.866-1.669 4.086a.741.741 0 0 1-1.265 0c-1.1-1.7-.1-4.086.878-5.645a11.028 11.028 0 0 1 4.119-3.964 9.475 9.475 0 0 1 5.5-1.121c1.751.207 4.41 1.052 4.829 3.039zm35.725 8.3c7.081 12.986.4 37.409-17.066 29.435-4.869-2.226-8.6-6.346-11.514-10.731-.429-.644-2.042-1.055-2.936-1.546a.294.294 0 0 1 .226-.535c6.628 1.749 13.878 2.273 20.3-.6a18.632 18.632 0 0 0 7.8-6.06c2.506-3.583 2.6-5.842 3.189-9.966zM234.8 270.993c-.487-.207-.96-.445-1.421-.694a42.323 42.323 0 0 1 3.337-2.752 17.171 17.171 0 0 1 4.746-1.962c1.932-.537 8.468-.783 8.944-1.112-2.914 6.643-8.206 9.708-15.606 6.521zm5.927-6.82a20.751 20.751 0 0 0-4.928 2.453 8.169 8.169 0 0 0-3.147 3.262c-3.621-2.165-6.54-5.45-9.4-8.5a26.983 26.983 0 0 0 17.966-.907 19.846 19.846 0 0 0 8.41-6.317 19.326 19.326 0 0 0 1.821-2.945 17.048 17.048 0 0 1 .313 8.874c-1 3.943-6.266 2.5-11.038 4.082zm-4.28-17.535c.268 1.485-1.527 2.26-2.744 2.468a20.415 20.415 0 0 1-4.749-.2.437.437 0 0 1 0-.873 26.909 26.909 0 0 0 4.016-.405 3.958 3.958 0 0 0 1.861-.75 2.08 2.08 0 0 1 1.207-.548.415.415 0 0 1 .408.312zm23.608-30.1c.226.964-.69 2.221-1.775 1.781a19.2 19.2 0 0 0-4.3-1.461 12.1 12.1 0 0 0-4.362.061c-2.924.633-5.363 2.39-6.149 5.423-.082.319-.631.36-.684 0a5.821 5.821 0 0 1 1.215-4.968 9.132 9.132 0 0 1 4.426-2.775 15.281 15.281 0 0 1 10.5.866 1.428 1.428 0 0 1 1.121 1.072zm-11.69-11.8a.5.5 0 0 1 .13.492c-.351 1.214-2.158 1.823-3.125 2.473a20.781 20.781 0 0 0-1.969 1.452 10.122 10.122 0 0 1-1.651 1.348 1.161 1.161 0 0 1-1.576-1.58 11.172 11.172 0 0 1 3.91-3.426c1.109-.664 3.1-1.779 4.281-.759zm-43.445 16.5c1.576.056 1.582 2.509 0 2.459a10.2 10.2 0 0 0-6.518 2.316c-.823.592-1.823-.543-1.342-1.348 1.553-2.6 5.005-3.528 7.861-3.427zm11.428 95.541a34.891 34.891 0 0 0-5.308 7.259c-3.321 5.715-11.874 18.445-12.018 23.782-.348 2.935 2.975 5.556 5.814 3.852a12.1 12.1 0 0 0 3.658-4.353 50.833 50.833 0 0 0 3.155-6.527 155.381 155.381 0 0 1 6.873-14.469 60.022 60.022 0 0 1 3.478-5.712 12.985 12.985 0 0 1 2.591-3.029.71.71 0 0 0 .21-.147 3.414 3.414 0 0 1 .877-.422c.016.5.027 1 .027 1.5a12.416 12.416 0 0 0 .71 5.083 3.577 3.577 0 0 0 1.394 1.6 73.164 73.164 0 0 1-2.681 16.637 45.579 45.579 0 0 0-1.8 6.982 12.844 12.844 0 0 0-.112 2.6 5.292 5.292 0 0 0-1.159-.514c-2.414-.733-4.4.927-4.856 3.228a7.764 7.764 0 0 0 .958 4.964c-2.676-2.052-6.619-3.128-9.775-1.695a5.758 5.758 0 0 0-2.249 1.821c-4.579-1.547-10.47-4.274-10.191-10.384.233-5.111 2.816-10.1 4.871-14.681q2.041-4.561 4.439-8.951c1.75-3.216 3.647-6.6 6.276-9.185 1.955-1.927 3.744-1.656 4.819.764zm.486-.446q-.011-.027-.026-.058a4.132 4.132 0 0 1-.658-3.092 13.549 13.549 0 0 1 .36-2.482 20.869 20.869 0 0 1 1.759-4.725 32.657 32.657 0 0 1 2.561-4.2c.418-.594.916-1.167 1.372-1.761.275.724.547 1.429.772 2.108a53.144 53.144 0 0 1 2.647 13.617h-.009a3.6 3.6 0 0 0-1.2.491c-2.467-2.876-5.178-2.007-7.575.1zm-44.283-84.986c-.481-2.082-1.049-4.14-1.41-6.255a47.934 47.934 0 0 1-.634-8.191 57.776 57.776 0 0 1 2.549-16.4 65.246 65.246 0 0 1 17.568-28.458 47.3 47.3 0 0 1 19.193-11.391c6.475-1.887 14.28-2.962 20.986-.984 1.926.358 4.351.185 3.887-.032-3.825-1.795-7.333-4.024-11.088-5.709a19.654 19.654 0 0 0-9.791-1.887c6.548-3.309 14.242-3.6 21.411-2.431a42.236 42.236 0 0 1 12.495 3.972 19.019 19.019 0 0 1 8.168 7.215.949.949 0 0 0 1.067.5 1.156 1.156 0 0 0 .422.463.317.317 0 0 0 .325 0c.954-.622.4-2.219.188-3.136a14.3 14.3 0 0 0-1.7-3.992 19.947 19.947 0 0 0-2.988-3.811c1.367 1.015 2.772 1.984 4.118 3.044a25.641 25.641 0 0 1 3.438 3.254 16.552 16.552 0 0 1 1.544 2.124c.088.143 2.643 4.775 2.3 1.513 1.73-.319 3.463-.651 5.214-.807a11.621 11.621 0 0 1 1.741-.023c-.374.135-.748.277-1.114.436a25.175 25.175 0 0 0-6.642 4.459c-.42.368.115 1 .576.748 2.586-1.41 5.248.256 8.027 1.559a28.716 28.716 0 0 1 5.9 3.742c9.607 7.837 9.18 18.083 7.044 29.073-.548 2.819-.979 5.613-1.363 8.457a43.4 43.4 0 0 0-.751 8.17 13.8 13.8 0 0 0-4.18 3.94c-1.925-7.912-6.522-16.183-11.467-22.58-2.241 1.539-2.246 2.218-3.034 5.05a21.607 21.607 0 0 0-.863 5.807c-.095-.1-.185-.207-.274-.314a18.855 18.855 0 0 1-1.688-2.528 30.434 30.434 0 0 1-2.518-5.835c-1.471-4.5-1.392-13.672-2-13.22-1.257.941-1.346 1.781-2.212 3.1a31.3 31.3 0 0 1-2.643 3.445 46.822 46.822 0 0 1-6.336 5.915c-2.344 1.847-4.846 3.477-7.355 5.088-1.18.76-2.375 1.5-3.571 2.233-.032.02-.066.039-.1.058.181-.3.358-.594.536-.894a64.924 64.924 0 0 0 3.623-7.157 71.026 71.026 0 0 0 2.694-7.328c.407-1.3.765-2.62 1.1-3.943a24.176 24.176 0 0 0 .563-2.437c.871-2.283-.6-2.649-2.329.485-.517.936-1.064 1.854-1.626 2.762a61.348 61.348 0 0 1-3.695 5.33 64.367 64.367 0 0 1-8.656 9.179 117.17 117.17 0 0 1-9.844 7.554 39.213 39.213 0 0 1-7.4 4.211c.127-.212.246-.421.362-.615 2.421-4.046 4.687-12.15 3.094-16.373a40.575 40.575 0 0 1-6.807 11.235c-4.549 5.368-14.383 15.561-20.072 19.247-3.018 1.956-10.625 3.915-13.99 3.364zm128.042 8.107c-.469.89-1.2 2.669-1.594 3.594a35.579 35.579 0 0 1-1.607 3.248c-.456.825-.948 1.63-1.463 2.419-3.337-2.53-8.274-.909-11.417 1.952.054-1.1.075-2.192.092-3.289.006-.332.024-.657.02-.968 3.062.481 6.23-1.4 8.073-3.81 2.534-3.317 3.621-7.613 4.314-11.663.684-3.974 1.066-8.4-.336-12.261a7.171 7.171 0 0 0-3.946-4.375c-2.272-.95-4.932-.09-7.027.893.182-.941.1-2.056.186-2.9.16-1.549.414-3.085.685-4.616.556-3.164 1.245-6.3 1.8-9.467a52.41 52.41 0 0 0 .88-8.719 22.712 22.712 0 0 0-.5-5.2 46.048 46.048 0 0 0 11.431 7.97c2.31 1.185 4.7 2.185 7.108 3.147.745 1.685 1.756 3.215 2.4 4.951a25.709 25.709 0 0 1 1.324 5.81 42.36 42.36 0 0 1-.632 12.793 69.892 69.892 0 0 1-7.684 21.077c-.016-.131-.035-.264-.051-.4-.162-1.313-1.646-.963-2.057-.19zm-16.843 34.415a61.878 61.878 0 0 0 2.333 10.272c2.053 6.8 4.363 13.529 6.7 20.23 2.539 7.283 5.522 12.252 9.861 18.936 4.08 6.288 8.958 12 13.353 18.062 1.167 1.611 2.272 3.259 3.509 4.818a10.77 10.77 0 0 1 1.321 2 18.177 18.177 0 0 1-4.068-2.225c-1.447-.964-2.923-1.868-4.343-2.874a77.891 77.891 0 0 1-7.616-6.237c-1.282-1.179-2.521-2.405-3.73-3.665a1.365 1.365 0 0 1-.342-.291c-.131-.162-.26-.321-.389-.483-.269-.286-.537-.572-.8-.861l-.015-.145c-.234-.279-.475-.55-.73-.812-.116-.1-.231-.205-.344-.315a1.9 1.9 0 0 1-.138-.155c-.029-.028-.057-.055-.087-.081v.037l-.183-.213a1.156 1.156 0 0 1-.12-.14q-1.744-2.01-3.392-4.1a1.179 1.179 0 0 0-.569-.727c-.648-.833-1.291-1.672-1.917-2.52-3.809-5.153-7.468-10.912-10.785-16.371-7.216-11.889-11-16.791-10.459-30.361 2.8-2.4 5.819-4.572 8.185-7.444a20.786 20.786 0 0 0 2.968-4.89c1.152-1.121 2.237-2.433 3.828-2.14-2.962 3.334-2.6 8.031-2.023 12.7zm15.215 87.068c2.673-1.17 4.88-3.274 7.3-4.879.839-.559 2.079-1.42 3.154-1.26 2.489.36.234 4.026-.9 5.031-2.782 2.3-8.035 5.131-9.51 5.995-2.641 1.55-5.269 3.12-7.907 4.675-5.632 3.317-11.36 6.688-17.585 8.763-5.973 1.995-12.336 1.548-18.466.552a56.431 56.431 0 0 1-18.533-6.087 74.423 74.423 0 0 1-11.544-8.663 26.224 26.224 0 0 1-4.874-5.164c-1.16-1.73-2.42-4.622-.916-6.512 1.715-2.154 4.227-.053 5.441 1.486a39.967 39.967 0 0 0 5.535 5.625 50.123 50.123 0 0 0 14.831 9.329c.34.126.578-.441.246-.588a55.256 55.256 0 0 1-9.055-5.709 105.393 105.393 0 0 1-8.371-7.177 38.463 38.463 0 0 1-3.031-3.614 4.51 4.51 0 0 1-.315-1.354 12.456 12.456 0 0 1 .382-3.484c.507-2.318 1.341-4.543 1.981-6.82a63.4 63.4 0 0 0 1.535-8.363c.142-1.012.26-2.028.348-3.046 6.815 2.086 13.624 4.219 20.728 5.063a105.126 105.126 0 0 0 11.941.43c8.37.029 17.3 0 25.348-2.594 2.542-.821 5.536-2.162 7.023-4.528q2.139 2.718 4.445 5.294c.358 7.581 3.391 15.161 6.71 21.805-2.178 1.63-3.971 3.8-6.229 5.308a.283.283 0 0 0 .286.487zm-67.928-40.644c.512-1.673.924-3.375 1.289-5.086.125-.588.239-1.18.348-1.772 3.392 1.614 7.469 2.191 11.075 2.9a71.2 71.2 0 0 0 13.872 1.311c8.561-.027 17.215-1.943 24.2-7.032.087.141.177.282.264.424 3.137 5.061 6.414 10.078 10 14.838-.893 2.521-4.04 3.724-6.431 4.478a57 57 0 0 1-12.595 2.113c-4.173.336-8.361.433-12.545.445a112.078 112.078 0 0 1-12.817-.384c-6.39-.72-12.608-2.486-18.922-3.634.017-.244.037-.487.049-.731.123-2.2 1.361-5.077 2.213-7.867zm32.994-38.365a46.2 46.2 0 0 0 4.829-4.526c-1.238 11.025 6.156 22.4 11.708 31.209-6.722 5.182-15.339 6.911-23.671 7a84.816 84.816 0 0 1-13.043-1c-2.069-.3-4.116-.7-6.157-1.156-1.594-.353-3.223-.766-4.857-.96.4-2.347.687-4.717.912-7.085.323-3.366.481-6.748.6-10.129.059-1.612.1-3.224.146-4.836.03-1.1.113-2.217.129-3.332 3.088.189 6.222-.132 9.275.321-.039 1.528 2.516 4.769 3.454 5.915 1.419 1.736 3.466 4.343 5.988 3.515 2.931-.963 5.171-4.116 6.853-6.524 1.658-2.376 3.566-5.343 3.834-8.311v-.109zm19.029-21.682a31.032 31.032 0 0 0 .774-3.264c.258-1.411.428-2.836.546-4.267a15.618 15.618 0 0 1 4.108-2.208c1.921-.714 4.319-1.058 5.966.346-.376.523-.762 1.039-1.151 1.552-1.536 2.021-3.19 3.951-4.869 5.85-.451.51-.917 1.009-1.381 1.511a4.921 4.921 0 0 0-3.993.479zm-89.86 10.079a8.25 8.25 0 0 1-3.94-1.5 36.51 36.51 0 0 1-7.661-6.733c-2.067-2.266-4.294-4.768-4.528-7.979a4.88 4.88 0 0 1 2.058-4.5c1.861-1.233 4.239-.635 6.305-.508.743 1.93 1.594 3.824 2.435 5.7.639 1.424 1.286 2.843 1.955 4.249-1.719-2.216-3.841-4.718-6.747-5.087-.79-.1-2.3-.222-2.775.649-.52.955.148 2.159.89 2.788.349.3 1.073.026.862-.5-.239-.6-1.246-1.656-.188-1.731a4.947 4.947 0 0 1 2.939.761c1.844 1.11 3.066 3.024 4.376 4.672a11.422 11.422 0 0 1 1.756 3.2c.118.33.373.966.221 1.323-.139.328-1.365.321-1.689.438a.568.568 0 0 0-.247.94 2.218 2.218 0 0 0 3.751-1.37c.781 1.366 1.61 2.705 2.5 4.011a2.568 2.568 0 0 1-2.276 1.178zm24.985 13.016a33.864 33.864 0 0 1-15.856-9.2 59.526 59.526 0 0 1-10.312-14.978 116.3 116.3 0 0 1-7.408-17.179 21.59 21.59 0 0 1-1.14-4.546c-.024-.255-.4-.263-.4 0a29.375 29.375 0 0 0 1 7.518c-.285-.262-.565-.516-.814-.766-1.156-1.173-2.28-2.375-3.328-3.649a21.48 21.48 0 0 1-2.764-4.275 12.059 12.059 0 0 1-.972-3.31 21.264 21.264 0 0 0 10.028-3.107c6.1-3.457 17.014-14.689 21.77-20.265a54.093 54.093 0 0 0 4.9-6.373c-1.022 3.678-5.942 13.879-5.085 13.553a51.016 51.016 0 0 0 9.988-4.959 112.794 112.794 0 0 0 10.259-7.662 62.361 62.361 0 0 0 9.332-9.62c1.212-1.563 2.342-3.184 3.408-4.849-.089.3-.181.591-.274.887a68.632 68.632 0 0 1-2.788 7.283 72.29 72.29 0 0 1-3.5 6.76c-.616 1.067-1.269 2.113-1.938 3.148-4.961 7.676 1.046 1.767 3.242.456q1.973-1.177 3.923-2.39a87.515 87.515 0 0 0 7.352-5.134 51.19 51.19 0 0 0 6.649-6.134c.821-.914 1.592-1.876 2.333-2.859a32.5 32.5 0 0 0 1.821 8.849 33.044 33.044 0 0 0 2.731 6.2c.876 1.523 2.169 3.624 3.871 4.291.389.152.735-.24.711-.6.405-2.215.316-4.472.869-6.69a17.687 17.687 0 0 1 1.325-3.561c.042-.082.086-.162.13-.242 2.1 3.58 4.36 7.071 6.243 10.775a51.993 51.993 0 0 1 4.331 14.368c.136.854.757-1.167 1.608-2.761a19.854 19.854 0 0 1 4.827-4.354.794.794 0 0 0 .7-.421c.405-.233.824-.459 1.262-.674 2.1-1.037 4.714-1.751 6.8-.311 1.771 1.222 2.329 3.861 2.546 5.847a26.525 26.525 0 0 1-.106 5.617 29.481 29.481 0 0 1-3.533 11.707 9.561 9.561 0 0 1-3.511 3.681c-1.73.963-3.4.486-5.235.288-.96-.1-1.352 1.145-.834 1.793a5.36 5.36 0 0 0-.106 1.469c0 .966.008 1.933 0 2.9-.016 1.322-.053 2.655-.15 3.979l-.018.038a.46.46 0 0 0-.015.378c-.052.592-.113 1.182-.2 1.77a23.753 23.753 0 0 1-4.414 11.194c-1.725 2.238-15.375 14.583-16.735 15.378a.485.485 0 0 0 .371.883 8.485 8.485 0 0 0 1.017-.405 20.176 20.176 0 0 1-2.884 5.662c-1.5 2.332-3.37 4.9-5.826 6.293a1.673 1.673 0 0 1-2.088-.051 14.116 14.116 0 0 1-2.628-2.579 25.656 25.656 0 0 1-3.271-4.9c1.233-.121 7.174-.463 7.585-.72a.684.684 0 0 0 0-1.161c-.845-.644-2.084-.421-3.1-.408-1.253.014-2.5.077-3.754.142-8.157.429-20.857-.218-27.948-2.013zm4.624 10.064c.485-1.9 2.284-3.151 3.657-4.38a10.718 10.718 0 0 1 3.33-2.2q1.549.087 3.1.188c-.2 2.45-.106 4.968-.2 7.393-.126 3.382-.3 6.763-.606 10.135a87.64 87.64 0 0 1-1.413 9.761c-.322 1.57-.716 3.125-1.156 4.667-.4 1.4-1.022 2.789-1.4 4.207a4.246 4.246 0 0 1-.463-1.312 20.6 20.6 0 0 1-.256-4.588 54.284 54.284 0 0 0-2.2-13.842c-.534-1.961-1.25-3.86-1.886-5.785a7.571 7.571 0 0 1-.509-4.24zm-11.745 32.626c1.82-3.241 7.923-14.383 12.4-9.064a14.267 14.267 0 0 0-1.05 1.115 33.457 33.457 0 0 0-3.278 4.765 107.99 107.99 0 0 0-5.815 11.049c-2.037 4.545-3.625 9.285-6.219 13.557-.936 1.538-1.516 2.819-3.355 3.293-10.34 2.68 4.114-19 7.322-24.715zm-7.307 43.894a9.806 9.806 0 0 1-2.871-4.224 16.536 16.536 0 0 1-.466-7.563 32.941 32.941 0 0 0 5.1 2.12 5.556 5.556 0 0 0-.486 2.638.467.467 0 0 0 .914.126c.481-1.816 1.168-3.46 3.044-4.169a7.957 7.957 0 0 1 5.149.158 9.158 9.158 0 0 1 4.5 3.117c1.284 1.738 1.706 4.093-.261 5.476a34.3 34.3 0 0 1-3.08 1.696 19.754 19.754 0 0 0-3.486 2.592 11.346 11.346 0 0 0-1.236 1.306c-2.143.751-5.58-2.093-6.82-3.268zm-31.485 39.2a19.157 19.157 0 0 1 10.265-12.595 18.669 18.669 0 0 1 15.426-.35c4.481 2.114 8.106 6.031 10.939 10.013a31.947 31.947 0 0 1 5.873 13.327 12.475 12.475 0 0 1 .132 2.129c-2.079-1.894-4.26-3.671-6.454-5.351-8.724-6.689-20.763-13.6-32.058-9.6a10.852 10.852 0 0 0-4.154 2.514.8.8 0 0 0 .031-.082zm52.374 40.549c-1.828 1.368-4.271 1.423-6.444 1.2a25.1 25.1 0 0 1-7.738-2.24 27.941 27.941 0 0 1-3.517-1.914c-3.456-2.219-2.017-2.387-5.718-3.756a58.089 58.089 0 0 1 6.8-5.894c1.31-1.024 2.635-2.029 3.942-3.059a23.545 23.545 0 0 0 3.657-3.133c.343-.414-.1-1.121-.607-.79a44.211 44.211 0 0 0-3.521 2.874c-1.286 1.046-2.585 2.074-3.868 3.123a51.349 51.349 0 0 0-6.919 6.682c-1.518-.566-3.029-1.161-4.533-1.766-5.842-2.344-11.656-5.086-16.513-9.164-4.338-3.642-8.092-8.49-8.505-14.328a10.8 10.8 0 0 1 1.01-5.487 10.042 10.042 0 0 1 1.45-2.16 19.849 19.849 0 0 1 6.941-2.093 26.765 26.765 0 0 1 8.764.842c1.087.267 2.146.588 3.182.954a69.811 69.811 0 0 0-6.793 5.4 50.014 50.014 0 0 0-7.326 7.821c-.2.277.214.527.441.343 2.657-2.169 5.074-4.562 7.625-6.856a94.666 94.666 0 0 1 7.746-6.048 44.351 44.351 0 0 1 5.551 2.8c-3.436 2.343-6.685 4.942-10.1 7.316a40.961 40.961 0 0 0-5.148 4.452 21.853 21.853 0 0 0-4.024 5.043c-.211.388.32.839.631.485 1.307-1.482 2.641-2.949 4.039-4.345 1.662-1.658 3.5-3.107 5.219-4.7 3.146-2.922 6.9-5.2 10.46-7.594 1.385.854 2.743 1.765 4.088 2.709 1.717 1.2 3.426 2.473 5.086 3.812a80.9 80.9 0 0 0-12.735 10.892.24.24 0 0 0 .34.34c3.767-3.535 9.131-7.233 13.341-10.453a86.881 86.881 0 0 1 8.366 8.614c.765 1.024 1.5 2.055 2.188 3.109a58.173 58.173 0 0 0-6.7 5.537 45.8 45.8 0 0 0-4.991 5.3 1.546 1.546 0 0 1 .42.212c.291.207.567.436.845.663 1.5-1.6 2.916-3.308 4.484-4.834a87.334 87.334 0 0 1 6.546-5.92 32.917 32.917 0 0 1 1.99 3.7c1.522 3.356 4.511 9.343.547 12.313zm8.184-18.105a21.8 21.8 0 0 1-1.125 5.1 34.292 34.292 0 0 1-1.389 3.455 21.209 21.209 0 0 0-1.146 2.225 18.033 18.033 0 0 1-2.5-4.949 32.727 32.727 0 0 0-4.431-7.788 53.171 53.171 0 0 0-5.581-6.314 11.822 11.822 0 0 0 .024-3.3 23.924 23.924 0 0 0-1.668-6.461 37.843 37.843 0 0 0-2.211-4.632 41.454 41.454 0 0 1 8.5 4.314 37.987 37.987 0 0 1 8.554 7.834 14.293 14.293 0 0 1 2.972 10.508zm90.626 46.379a49.6 49.6 0 0 1-13.493-.6 19.076 19.076 0 0 1-10.288-5.273 24.664 24.664 0 0 1-3.38-4.213 23.03 23.03 0 0 0 9.089 5.665 43.586 43.586 0 0 0 10.658 1.828 53.129 53.129 0 0 0 12.865-.405c3.239-.535 7.7-1.929 10.05-4.72-2.889 5.766-9.557 7.169-15.5 7.716zm1.662-44.576c.335.6.681 1.194 1.017 1.786.951 1.681 1.91 3.359 2.815 5.065a33.313 33.313 0 0 1 3.816 10.34 27.11 27.11 0 0 0-9.293-2.916 25.94 25.94 0 0 0-16.412 3.98 17.061 17.061 0 0 0-5.311 4.685 19.54 19.54 0 0 0-2.305 6.082.871.871 0 0 0 1.678.463c.649-2.321 1.233-4.672 2.865-6.517a22.049 22.049 0 0 1 8.284-5.273 23.215 23.215 0 0 1 17.24-.092c7.679 2.938 14.969 11.816 7.42 19.009a12.249 12.249 0 0 1-4.665 2.546 37.736 37.736 0 0 1-12.663 1.447c-8.7-.183-18.232-1.559-23.9-8.946-6.988-9.108-6.194-25.607 1.8-33.913.152.544.313 1.086.5 1.623 1.538 4.539 5.643 7.036 10.081 8.153a17.673 17.673 0 0 0 11.792-.854 9.788 9.788 0 0 0 4.05-3.665 10.032 10.032 0 0 0 1.2-3zm-14.2-64.517c1.523 4.575 3.241 9.019 5.1 13.478 1.232 2.951 2.276 5.949 3.229 9a27.879 27.879 0 0 1 1.544 10.157c-.222 3.3-1.763 6.255-3.4 9.058-1.4 2.392-2.918 4.832-3.318 7.625a.382.382 0 0 0 .735.2 47.518 47.518 0 0 1 4.258-8.245 27.216 27.216 0 0 0 1.6-3.222c.094.85.245 1.694.393 2.506.426 2.336 1.049 4.63 1.513 6.958a75.474 75.474 0 0 1 1.235 13.6.414.414 0 0 0-.073.438c.01.031.023.063.033.095a13.206 13.206 0 0 1-1.209 4.813 8.217 8.217 0 0 1-3.558 3.239c-3.236 1.654-7.292 1.535-10.73.693a17.394 17.394 0 0 1-4.894-2.026 9.863 9.863 0 0 1-4.319-5.808c-1.594-4.979-3.988-9.629-5.336-14.048a82.656 82.656 0 0 0 7.251 6.358c.9.687 1.8 1.354 2.751 1.967 1.011.653 1.879-.917.929-1.595-8.481-6.043-15.167-14.168-22.6-21.383-7.231-7.016-15.65-13.691-25.966-14.9a22.409 22.409 0 0 0-4.905.072.494.494 0 0 0 0 .988 31.4 31.4 0 0 1 14.164 3.569l-.115.025c-.533-.273-6.971.911-8 1.1a22.01 22.01 0 0 0-7.161 2.778c-11.185 6.549-15.143 16.4-15.764 28.44-.012.239-.027.478-.034.716a19.376 19.376 0 0 0-2.849-5.243 38.217 38.217 0 0 0-9-8.257c-2.971-2.03-6.683-4.244-10.329-4.647a.676.676 0 0 0-.2.011 43.488 43.488 0 0 0-4.055-5.488 67.029 67.029 0 0 1 .39-18.711c1.587-7.818 4.289-9.994 10.611-13.665a4.931 4.931 0 0 0 2.617-5.567 5.643 5.643 0 0 0-.142-.573 47.114 47.114 0 0 0 4.092 3.7c2.082 1.716 4.141 3.5 6.314 5.1a48.424 48.424 0 0 0 8.229 4.784 58.673 58.673 0 0 0 17.927 5.013 48.507 48.507 0 0 0 9.35.392 32.569 32.569 0 0 0 8.508-2.042 90.88 90.88 0 0 0 16.874-8.714q3.938-2.449 7.872-4.9c2.487-1.548 5.363-3.472 7.8-5.145v.006c.282.633.519 1.289.761 1.937.664 1.774 1.279 3.563 1.876 5.36zm-1.263-8.344c1.87-1.537 3.722-5.042 1.187-6.833-1.181-.835-2.611-.428-3.81.143-.12.059-.236.122-.356.185a132.481 132.481 0 0 1-5-12.483 52.845 52.845 0 0 1-1.55-6.1 81.27 81.27 0 0 0 5.928 5.623 78.585 78.585 0 0 0 6.808 5.183c.85.579 9.487 6.215 10 4.817.821-2.458-.471-4.622-2.089-6.667-2.387-3.018-4.5-6.276-6.831-9.343-4.45-5.853-8.942-11.579-12.681-17.935q-2.729-4.638-5.017-9.534a31.264 31.264 0 0 1 6.978-11.448 85.325 85.325 0 0 1 5.584 8.677c1.68 3.1 3.043 6.36 4.521 9.558a148.422 148.422 0 0 1 8.041 19.974 52.9 52.9 0 0 1 2.065 10.357c.262 3 .326 6.155-.949 8.95-2.305 5.049-7.837 6.373-12.829 6.873zm19.753-31.661a23.242 23.242 0 0 1 2.1 7.788c.554 4.5.491 8.567-2.994 13.008a38.265 38.265 0 0 1-5.014 4.954 19.8 19.8 0 0 0 1.383-9.1 50.888 50.888 0 0 0-2.6-13.426 25.709 25.709 0 0 1 7.127-3.213zm-13.793-33.5a53.013 53.013 0 0 1 4.248 8.006 143.295 143.295 0 0 1 6.012 17.765c.648 2.229 1.285 4.456 2.027 6.652-1.025.409-2.073.771-3.078 1.22a9.613 9.613 0 0 0-2.96 1.8c-.614-1.817-1.285-3.612-1.983-5.38-2.542-6.42-5.434-12.779-8.472-18.98a91.709 91.709 0 0 0-7.036-11.547c.386-.4.773-.793 1.16-1.173.61-.6 1.265-1.153 1.933-1.695a33.1 33.1 0 0 1 5.622 8.168c1.724 3.556 2.578 7.439 3.943 11.133a34.089 34.089 0 0 0 2.6 6.4 2.441 2.441 0 0 0 1.52 1.132 2.321 2.321 0 0 0-.59.766c-.286.68.321 1.165.959 1.326-.259 1.543.127 6.3 2.113 6.325a1.924 1.924 0 0 0 1.77-2.414c-.22-1.557-1.3-3.127-2.132-4.53a1.9 1.9 0 0 0 .4-.952 1.183 1.183 0 0 0-.9-1.239 57 57 0 0 0-3.014-8.732c-1.116-2.925-2.325-5.819-3.418-8.75-1.339-3.587-3.2-8.333-6.816-10.255.1-.077.195-.15.289-.226.256-.206.512-.405.768-.607 2.105 1.367 3.713 3.793 5.036 5.785zm5.45 24.3a1.73 1.73 0 0 1 .692-.632c.4-.23 1.444-.558 1.426.284-.125 1.78-2.642 1.363-2.118.348zm2.865 3.184a8.088 8.088 0 0 1 .875 2.185c.148.707-.354 1.821-1.224 1.68-.936-.149-1.2-2.09-1.325-2.806a25.555 25.555 0 0 1-.234-2.889 1.364 1.364 0 0 0 .189-.017 1.735 1.735 0 0 0 .548-.205 23.245 23.245 0 0 0 1.171 2.053zm-5.111-8.292c-.969-2.72-2.042-5.4-2.872-8.173a41.859 41.859 0 0 0-3.275-8.195 20.451 20.451 0 0 0-4.93-6.38c.474-.377.95-.749 1.425-1.121 3.685 2.739 5.425 6.765 6.965 11.029 1.006 2.788 2.171 5.521 3.218 8.294a54.47 54.47 0 0 1 2.69 7.854c-1.389 1.879-2.884-2.353-3.222-3.308zm.474-33.125a28.109 28.109 0 0 0-5.552 3.229 120.026 120.026 0 0 0-9.988 8.493 43.777 43.777 0 0 0-6.715 8.934 25.159 25.159 0 0 0-1.687 3.531q-.251-.567-.5-1.136a60.2 60.2 0 0 1-.773-6.42 66.029 66.029 0 0 1 .505-12.835c.061-.5-.658-.509-.809-.111-1.525 3.958-1.223 8.786-.977 12.945.032.556.073 1.11.119 1.665q-.426-1.116-.831-2.243c-2.4-6.691-4.972-13.448-6.461-20.415a40.537 40.537 0 0 1-.859-6.554c-.281-6.069-.7-5.437 2.771-9.087a1.048 1.048 0 0 0 .294-.31c.559-.6 1.1-1.2 1.653-1.8 1.763-1.914 3.464-3.886 5.071-5.936a47.953 47.953 0 0 0 4.3-6.223 25.333 25.333 0 0 0 2.212-4.375 25.337 25.337 0 0 0 1.716 8.169 47.773 47.773 0 0 0 6.06 11.153 100.837 100.837 0 0 0 8.287 10.048c1.383 1.5 2.806 2.968 4.231 4.433.777.793 1.54 1.652 2.329 2.473a17.844 17.844 0 0 1-4.4 2.37zm1.053-15.634a40.522 40.522 0 0 1 2.443 5.393 43.682 43.682 0 0 1 1.2 4.729c-.165-.161-.327-.326-.488-.489-1.418-1.452-2.827-2.916-4.21-4.4-1.674-1.795-3.314-3.623-4.884-5.51a20.818 20.818 0 0 0 3.326-3.5c.063-.073.12-.149.184-.226.817 1.329 1.707 2.6 2.429 4zm14.843-60.955c-1.851 1.13-3.763 2.115-5.658 3.161-.655.361-.164 1.2.469 1.111 2.215-.3 4.2-1.585 6.115-2.759-.222 2.991-.128 6.02-.375 9.015a72.025 72.025 0 0 1-1.537 10.041c-1.549 6.845-4.53 13.149-7.775 19.331a107.219 107.219 0 0 1-8.088 13.553c-1.093 1.495-2.189 2.983-3.377 4.406-.478.575-.944 1.165-1.471 1.7-.754-.938-1.494-1.888-2.206-2.86a49.94 49.94 0 0 1-6.079-10.519 34.936 34.936 0 0 1-2.032-7.6 1.12 1.12 0 0 0 .236-.285 74.445 74.445 0 0 0 9.254-24.257 40.659 40.659 0 0 0 .531-13.325 25.505 25.505 0 0 0-1.642-6.022 18.552 18.552 0 0 0-1.513-3.018c2.541 1.023 5.114 2.072 7.724 2.833a.393.393 0 0 0 .3-.715 50.119 50.119 0 0 0-6.978-3.312c-2.527-1.064-5.042-2.152-7.513-3.339a50.955 50.955 0 0 1-13.414-9.13c-3.361-3.244-5.585-7.3-5.422-12.071a10.628 10.628 0 0 1 1.281-5c1.5-2.527 7.991 3 9.321 4.054 2.408 1.907 5.537 4.372 6.176 7.563a3.627 3.627 0 0 1-1.291 3.489c-1.036.673-2.446.339-3.536 0a17.909 17.909 0 0 1-7.2-4.669.633.633 0 0 0-.99.766c2.762 4.334 13.414 10.215 14.926 1.9a5.55 5.55 0 0 0 .067-1.509 5.6 5.6 0 0 0 1.429.953 5.535 5.535 0 0 0 2.2.592c1.633 2.844 6.523 4.013 9.4 3.156a4.124 4.124 0 0 0 .5-.181c-.779 2.132.2 4.351 1.839 6.153a7.4 7.4 0 0 0 6.74 2.566 11.27 11.27 0 0 0 6.158-2.878 2.877 2.877 0 0 0 .684-2.678c.366-.176.731-.377 1.09-.6 1.547-.944 4.184-3.059 4.138-5.086a.506.506 0 0 0-.75-.433 6.747 6.747 0 0 0-1.663 1.549 17.789 17.789 0 0 1-2.12 1.913c-1.452 1.09-3.453 2.088-5.336 1.8-.6-.093-1.093.752-.45 1.07a5.024 5.024 0 0 0 3.694.318.473.473 0 0 1 .1.332c-.085.538-.672.963-1.076 1.252a10.18 10.18 0 0 1-4.7 1.664 5.863 5.863 0 0 1-4.78-1.564c-1.658-1.429-3.184-4-2.072-6.2a.42.42 0 0 0 .04-.14 21.387 21.387 0 0 0 3.65-4.746c.906-1.4 1.742-2.854 2.6-4.285a31.8 31.8 0 0 0 2.466-4.125.628.628 0 0 0-.916-.707c-1.986 1.443-3.21 4.2-4.495 6.237-1.369 2.183-2.807 4.743-4.913 6.309-1.473 1.1-3.6.785-5.209.226a7.825 7.825 0 0 1-4.188-3.9.4.4 0 0 0-.126-.143 15.627 15.627 0 0 1 .589-3.706 16.875 16.875 0 0 1 2.525-4.663c.969-1.454 2.014-2.859 3.071-4.251.5-.655.978-1.323 1.456-1.99a6.327 6.327 0 0 0 .981-2.47c.119-.5-.454-1.069-.935-.72a7.563 7.563 0 0 0-1.933 1.676c-.555.759-1.134 1.5-1.686 2.263a42.778 42.778 0 0 0-3.063 4.657 21.406 21.406 0 0 0-2.592 10.4 3.119 3.119 0 0 1-.3-.088 10.594 10.594 0 0 1-2.451-1.26 15.634 15.634 0 0 0-4.215-5.439 19.875 19.875 0 0 0-.817-2.324 8.212 8.212 0 0 1-.2-2.915 14.659 14.659 0 0 1 2.352-6.161c1.766-2.914 6.99-6.851 7.737-9.169a.594.594 0 0 0-.569-.749c-3.5.316-7.418 6.807-9.006 9.588a16.931 16.931 0 0 0-2.219 6.491 11.01 11.01 0 0 0 .12 3.034c-.939-.743-1.9-1.462-2.856-2.172a31.389 31.389 0 0 0-4.057-2.973c-.131-3.147-.56-6.274.107-9.4.818-3.829 3.551-6.459 6.43-8.887 3.272-2.759 7.145-5.176 11.48-5.617a5.9 5.9 0 0 1 4.378 1.1c1.522 1.231 1.224 2.8 1.114 4.529-.053.823 2.808.351 4.131.494a11.593 11.593 0 0 1 2.545.518 3.675 3.675 0 0 1 1.9 1.479c.636.981.311 2.976.988 3.882s3.611.432 4.6.605a11.02 11.02 0 0 1 3.254 1.027 4.824 4.824 0 0 1 2.074 2.1c.51.994-.959 2.808-.234 3.634.006.045 4.131 1.951 4.629 2.217a10.112 10.112 0 0 1 3.943 3.831c4.212 6.96 3.803 34.81-5.504 40.482z" class="prefix__cls-1" data-name="Path 7522" transform="translate(-167.561 -135.301)"/>
    <path id="prefix__Path_7523" d="M212.824 423.106c-22.941-.287-41.619 3.684-41.716 8.871s18.423 9.623 41.365 9.908 41.62-3.684 41.717-8.871-18.425-9.62-41.366-9.908z" class="prefix__cls-2" data-name="Path 7523" transform="translate(-167.412 -113.91)"/>
    <path id="prefix__Path_7524" d="M314.07 430.734c-32.177-.461-58.371 5.959-58.506 14.343s25.838 15.557 58.015 16.02 58.371-5.955 58.508-14.34-25.841-15.557-58.017-16.023z" class="prefix__cls-2" data-name="Path 7524" transform="translate(-161.101 -113.341)"/>
    <path id="prefix__Path_7525" d="M336.018 156.786c.431.195.855.4 1.3.586a13.82 13.82 0 0 1 3.231 1.893 13.433 13.433 0 0 1 4.411 6.763 48.36 48.36 0 0 1 1.43 8.269 80.584 80.584 0 0 1 .336 10.251c-.186 6.113-1.266 17.457-6.858 21.558.03.623.024 1.246.012 1.872a82.4 82.4 0 0 1-2.911 21.934c-2.162 7.351-5.736 14.218-9.563 20.818a102.255 102.255 0 0 1-6.3 9.784 30.514 30.514 0 0 1 4.886 9.061c1.062 2.845 1.28 5.949 2.376 8.73a1.51 1.51 0 0 1 .1.751c-.315 2.83-4.361 4.568-6.626 5.58-.976.436-1.962.852-2.934 1.3a13.523 13.523 0 0 0-2.045 1.093c-.8.559-1.585 1.132-2.367 1.711.521.535 1.007 1.108 1.475 1.692 7.723 9.626 10.568 22.007 14.01 33.594.158.533.329 1.064.505 1.592a2.461 2.461 0 0 1 1.489 1.036c1.829 2.7 2.4 6.05 2.659 9.241.62 7.666.813 10.8-4.587 16.826a27.751 27.751 0 0 1-7.44 6.186c-.052.028-.1.053-.157.076a12.139 12.139 0 0 1-1.59 1.286 17.759 17.759 0 0 1-6.542 2.672c-.619.119-1.228.249-1.841.355.391 1.085.765 2.173 1.132 3.264.534 1.6 1.1 3.18 1.514 4.814a74.9 74.9 0 0 0 3.547 9.244 102.853 102.853 0 0 1 3.609 10.5c.969 3.453 1.807 7.023 1.455 10.636a19.811 19.811 0 0 1-.571 3.126 51.73 51.73 0 0 0 .986 5.568c.539 2.224 1.124 4.435 1.5 6.7a88.676 88.676 0 0 1 1.082 12.657c.038.137.07.273.1.407.021.092.042.187.056.279.828 1.3 1.55 2.654 2.332 3.973 1.074 1.806 2.148 3.612 3.124 5.473a33.808 33.808 0 0 1 3.831 10.934c4.1 2.884 7.042 6.969 7.545 12.1a14.954 14.954 0 0 1-3.226 11.507c-3.712 4.362-9.813 6.195-15.3 6.831a53.6 53.6 0 0 1-14.21-.273 23.48 23.48 0 0 1-11.423-4.572c-5.806-4.59-9.389-12.427-10.846-19.55-1.675-8.183-1.1-18.176 4.507-24.814a18.232 18.232 0 0 1 2.368-2.33c-.5-1.64-1.167-3.294-1.774-4.867-.572-1.477-1.15-2.958-1.653-4.459a19.383 19.383 0 0 1-.858-3.273c-4.655-4.66-9.03-9.611-13.884-14.068-7.318-6.719-9.285-8.021-19.293-6.1a19.529 19.529 0 0 0-6.27 2.328c-10.174 5.977-13.431 13.651-14.421 25.036-.14 1.6-.377 3.189-.491 4.788a20.378 20.378 0 0 1-1.66 8.346c-.924 2.347-3.273 8.272-5.048 9.887-.08.359-.177.716-.289 1.065a8.713 8.713 0 0 1-2.561 4.053 11.671 11.671 0 0 1-8.776 2.3 28.521 28.521 0 0 1-9.531-2.76c-2.492-1.183-5.416-2.621-7.05-4.945a14.14 14.14 0 0 0-1.466-.672c-1-.431-2.007-.836-3.015-1.237s-2.029-.8-3.046-1.2c-.655-.256-1.325-.508-1.97-.789-5.8-2.521-11.5-5.519-16.138-9.9-4.218-3.98-7.793-9.016-8.255-14.982a13.786 13.786 0 0 1 1.5-7.647 6.252 6.252 0 0 1 .042-2 20.287 20.287 0 0 1 9.3-13.764 23.038 23.038 0 0 1 16.835-2.958 20.026 20.026 0 0 1 7.892 3.816l.044-.748c.112-1.87.286-3.742.491-5.6.228-2.081.5-4.169.828-6.235a25.7 25.7 0 0 1 .894-4.184c.343-.965.719-1.918 1.151-2.844a16.012 16.012 0 0 1-5.129-3.457 12.945 12.945 0 0 1-3.952-6.118 17.581 17.581 0 0 1-.25-8.247 11.911 11.911 0 0 1-2.224-2.158c-2.777-3.558-2.463-8.019-1.3-12.124a81.142 81.142 0 0 1 4.876-12.175c1.558-3.334 3.227-6.619 5.11-9.78 1.831-3.073 3.759-6.356 6.65-8.556a6.416 6.416 0 0 1 1.512-.863 17.373 17.373 0 0 1 .558-2.854 23.66 23.66 0 0 1 1.995-5.189 34.747 34.747 0 0 1 2.976-4.729c.616-.823 1.169-1.654 1.851-2.4a8.423 8.423 0 0 1 .727-6.885 15.051 15.051 0 0 1 2.256-2.733 38.973 38.973 0 0 1-13.923-4.133 41.032 41.032 0 0 1-12.438-10.75c-2.376 1.228-5.508.365-7.785-.907a40.429 40.429 0 0 1-9.712-8.125c-2.93-3.187-5.669-7.026-4.922-11.614a7.856 7.856 0 0 1 3.835-5.539 8.347 8.347 0 0 1 2.861-1.031 45.6 45.6 0 0 1-3.62-4.249 18.58 18.58 0 0 1-3.482-7.171c-.357-.072-.71-.157-1.061-.259-1.2-.292-1.854-1.855-2.283-2.885a35.987 35.987 0 0 1-1.48-4.462 23.778 23.778 0 0 1-.932-5.483 56.05 56.05 0 0 1 .516-12.874 67.621 67.621 0 0 1 9.2-24.806c5.826-9.508 13.977-17.776 24.007-22.766a47.373 47.373 0 0 1 16.556-4.567c.783-.074 1.569-.138 2.357-.185a29.1 29.1 0 0 0-11.491-1.224 1.6 1.6 0 0 1-1.7-.828 1.648 1.648 0 0 1 .5-2.079 5.141 5.141 0 0 1 .535-.375c.524-.329 1.084-.624 1.638-.9a43.448 43.448 0 0 1 5.784-2.336 44.521 44.521 0 0 1 20.314-1.975 47.864 47.864 0 0 1 12.014 3.341 9.249 9.249 0 0 1-1.986-3.56 1.566 1.566 0 0 1 2.436-1.65c1.741 1.267 3.671 2.4 5.5 3.542a58.267 58.267 0 0 1 5.7 3.842 23.632 23.632 0 0 1 4.006 3.987 25.228 25.228 0 0 1 1.5 2.09 27.606 27.606 0 0 1 4.162-.512 40.168 40.168 0 0 1 7.4.293 18.949 18.949 0 0 1 2.566.5c.993.286 2.081.826 2.005 2.075-.091 1.492-1.67 1.751-2.825 1.845a24.737 24.737 0 0 0-6.431 1.367 30.849 30.849 0 0 1 7.892 4.539q.656.509 1.293 1.051a16.743 16.743 0 0 1 .33-1.825 14.773 14.773 0 0 1 .469-1.594c.822-2.3 2.3-4.176 4.518-4.533a22.288 22.288 0 0 1 .5-9.645c1.472-4.754 4.9-8.145 8.743-11.093 3.921-3 9.3-5.823 14.375-4.821a8.245 8.245 0 0 1 6.448 6.064c.54.017 1.08.077 1.591.145a10.257 10.257 0 0 1 3.733 1.08 7.756 7.756 0 0 1 3.646 5.13 12.412 12.412 0 0 1 7.306 2.1 6.829 6.829 0 0 1 2.882 4.08 8.1 8.1 0 0 1 .189 2.575zM290.9 188.3c.015.437.019.874.017 1.309a53.72 53.72 0 0 1-.9 8.982c-.556 3.166-1.242 6.3-1.8 9.468-.263 1.5-.513 3-.672 4.507-.013.129-.023.257-.029.382a8.591 8.591 0 0 1 5.92.017 8.714 8.714 0 0 1 4.815 5.282c1.509 4.152 1.14 8.791.409 13.064-.744 4.327-1.907 8.806-4.614 12.351a12.2 12.2 0 0 1-2.376 2.353 8.263 8.263 0 0 1 3.848.689c.212-.349.417-.7.613-1.061a33.576 33.576 0 0 0 1.538-3.1c.522-1.224 1.029-2.536 1.65-3.71a2.863 2.863 0 0 1 3.189-1.435 67.7 67.7 0 0 0 6.442-18.606 40.773 40.773 0 0 0 .618-12.313 24.108 24.108 0 0 0-1.235-5.455c-.549-1.475-1.4-2.847-2.095-4.274-2.257-.909-4.5-1.863-6.664-2.977a53.1 53.1 0 0 1-8.674-5.473z" class="prefix__cls-1" data-name="Path 7525" transform="translate(-167.669 -135.41)"/>
    <path id="prefix__Path_7526" d="M318.762 315.5a25.709 25.709 0 0 0-7.127 3.213 50.888 50.888 0 0 1 2.6 13.426 19.8 19.8 0 0 1-1.383 9.1 38.265 38.265 0 0 0 5.016-4.948c3.485-4.441 3.548-8.5 2.994-13.008a23.242 23.242 0 0 0-2.1-7.783z" class="prefix__cls-3" data-name="Path 7526" transform="translate(-156.91 -121.951)"/>
    <path id="prefix__Path_7527" d="M259.522 221.8a11.5 11.5 0 0 0-4.977.961 13.555 13.555 0 0 0-3.916 1.986.257.257 0 0 0-.094.14 2.819 2.819 0 0 0-1.784 2.486c.019 1.106 1.19 1.633 2.091 1.853a12.846 12.846 0 0 0 8.4-1.153c1.412-.818 2.846-2.071 2.827-3.84a2.757 2.757 0 0 0-2.543-2.432zm-.674 5.6c-1.6 1.1-4.134 1.3-6 1.335a4.881 4.881 0 0 1-3.059-.666c-1.092-.861-.022-2.031 1.017-2.8a.285.285 0 0 0 .2-.033 22.71 22.71 0 0 1 6.308-2.621c1.3-.3 2.583-.4 3.6.586 1.576 1.522-.993 3.467-2.066 4.199z" class="prefix__cls-4" data-name="Path 7527" transform="translate(-161.61 -128.956)"/>
    <path id="prefix__Path_7528" d="M203.424 242.068a.005.005 0 1 0 0 .011.005.005 0 1 0 0-.011z" class="prefix__cls-4" data-name="Path 7528" transform="translate(-164.998 -127.439)"/>
    <path id="prefix__Path_7529" d="M213.59 358.871a7.957 7.957 0 0 0-5.149-.158c-1.875.709-2.562 2.353-3.044 4.169a.467.467 0 0 1-.914-.126 5.556 5.556 0 0 1 .486-2.638 32.941 32.941 0 0 1-5.1-2.12 16.536 16.536 0 0 0 .466 7.563 9.806 9.806 0 0 0 2.871 4.224c1.24 1.176 4.677 4.02 6.82 3.268a11.346 11.346 0 0 1 1.236-1.306 19.754 19.754 0 0 1 3.486-2.592 34.3 34.3 0 0 0 3.078-1.691c1.967-1.383 1.545-3.738.261-5.476a9.158 9.158 0 0 0-4.5-3.117zm-23.2-95.208a11.422 11.422 0 0 0-1.756-3.2c-1.31-1.648-2.532-3.562-4.376-4.672a4.947 4.947 0 0 0-2.939-.761c-1.058.075-.051 1.136.188 1.731.211.528-.513.8-.862.5-.742-.629-1.41-1.832-.89-2.788.473-.872 1.985-.749 2.775-.649 2.906.369 5.029 2.871 6.747 5.087-.668-1.407-1.315-2.825-1.955-4.25-.842-1.879-1.693-3.772-2.435-5.7-2.067-.127-4.444-.724-6.305.508a4.88 4.88 0 0 0-2.058 4.5c.234 3.211 2.461 5.713 4.528 7.979a36.51 36.51 0 0 0 7.661 6.733 8.25 8.25 0 0 0 3.94 1.5 2.568 2.568 0 0 0 2.276-1.178c-.892-1.306-1.721-2.645-2.5-4.011a2.218 2.218 0 0 1-3.751 1.37.568.568 0 0 1 .247-.94c.325-.117 1.551-.111 1.689-.438.152-.357-.1-.993-.221-1.323zm112.238-20.388a34.936 34.936 0 0 0 2.032 7.6 49.967 49.967 0 0 0 6.079 10.52c.713.972 1.452 1.922 2.206 2.86.528-.533.993-1.123 1.471-1.7 1.188-1.423 2.284-2.911 3.377-4.406a107.22 107.22 0 0 0 8.087-13.549c3.245-6.182 6.226-12.486 7.775-19.331a72.025 72.025 0 0 0 1.537-10.041c.247-3 .153-6.024.375-9.015-1.912 1.174-3.9 2.457-6.115 2.759-.633.087-1.123-.75-.469-1.112 1.9-1.045 3.808-2.03 5.658-3.16 9.31-5.672 9.716-33.522 5.492-40.48a10.112 10.112 0 0 0-3.943-3.831c-.5-.267-4.622-2.172-4.629-2.217-.724-.825.745-2.64.234-3.634a4.824 4.824 0 0 0-2.074-2.1 11.02 11.02 0 0 0-3.254-1.027c-.987-.173-3.92.3-4.6-.605s-.351-2.9-.988-3.882a3.675 3.675 0 0 0-1.9-1.479 11.469 11.469 0 0 0-2.545-.518c-1.323-.143-4.184.329-4.131-.494.11-1.726.407-3.3-1.114-4.53a5.9 5.9 0 0 0-4.378-1.1c-4.335.441-8.209 2.858-11.48 5.617-2.879 2.428-5.612 5.058-6.43 8.887-.667 3.126-.239 6.254-.107 9.4a31.389 31.389 0 0 1 4.057 2.973c.959.71 1.916 1.429 2.856 2.172a11.012 11.012 0 0 1-.12-3.034 16.931 16.931 0 0 1 2.219-6.491c1.588-2.783 5.5-9.272 9.006-9.588a.594.594 0 0 1 .569.749c-.747 2.317-5.971 6.255-7.737 9.169a14.659 14.659 0 0 0-2.352 6.161 8.214 8.214 0 0 0 .2 2.915 19.875 19.875 0 0 1 .817 2.324 15.634 15.634 0 0 1 4.215 5.439 10.594 10.594 0 0 0 2.451 1.26 3.119 3.119 0 0 0 .3.088 21.406 21.406 0 0 1 2.592-10.4 42.778 42.778 0 0 1 3.063-4.657c.552-.761 1.132-1.5 1.686-2.263a7.563 7.563 0 0 1 1.933-1.676c.481-.349 1.054.221.935.72a6.327 6.327 0 0 1-.981 2.47c-.478.667-.96 1.336-1.456 1.99-1.056 1.392-2.1 2.8-3.071 4.251a16.875 16.875 0 0 0-2.525 4.663 15.619 15.619 0 0 0-.589 3.706.4.4 0 0 1 .126.143 7.819 7.819 0 0 0 4.188 3.9c1.608.56 3.736.871 5.209-.225 2.105-1.566 3.543-4.126 4.913-6.309 1.284-2.038 2.508-4.793 4.495-6.237a.628.628 0 0 1 .916.707 31.8 31.8 0 0 1-2.466 4.125c-.862 1.43-1.7 2.881-2.6 4.284a21.368 21.368 0 0 1-3.65 4.747.42.42 0 0 1-.04.14c-1.112 2.2.414 4.77 2.072 6.2a5.867 5.867 0 0 0 4.78 1.564 10.18 10.18 0 0 0 4.7-1.664c.4-.289.991-.714 1.076-1.252a.473.473 0 0 0-.1-.332 5.029 5.029 0 0 1-3.694-.318c-.643-.318-.154-1.164.45-1.072 1.883.292 3.884-.706 5.336-1.8a17.707 17.707 0 0 0 2.12-1.914 6.763 6.763 0 0 1 1.663-1.548.506.506 0 0 1 .75.433c.046 2.027-2.591 4.142-4.138 5.086-.359.219-.723.42-1.09.6a2.877 2.877 0 0 1-.684 2.678 11.277 11.277 0 0 1-6.158 2.878 7.4 7.4 0 0 1-6.746-2.547c-1.639-1.8-2.618-4.021-1.839-6.153a4.124 4.124 0 0 1-.5.181c-2.877.857-7.767-.313-9.4-3.156a6.176 6.176 0 0 1-3.625-1.545 5.552 5.552 0 0 1-.067 1.509c-1.512 8.313-12.164 2.432-14.926-1.9a.633.633 0 0 1 .99-.764 17.909 17.909 0 0 0 7.2 4.669c1.09.334 2.5.668 3.536 0a3.627 3.627 0 0 0 1.291-3.489c-.639-3.191-3.768-5.657-6.176-7.563-1.331-1.054-7.825-6.581-9.321-4.054a10.625 10.625 0 0 0-1.281 5c-.163 4.773 2.061 8.828 5.422 12.071a50.955 50.955 0 0 0 13.414 9.13c2.472 1.188 4.987 2.275 7.513 3.339a50.119 50.119 0 0 1 6.978 3.312.393.393 0 0 1-.3.715c-2.611-.761-5.183-1.81-7.724-2.833a18.552 18.552 0 0 1 1.525 3.004 25.505 25.505 0 0 1 1.642 6.022 40.659 40.659 0 0 1-.531 13.325 74.445 74.445 0 0 1-9.254 24.257 1.12 1.12 0 0 1-.236.285zm-68.719 28.85c-4.869-2.226-8.6-6.348-11.514-10.731-.429-.644-2.042-1.055-2.936-1.546a.294.294 0 0 1 .226-.535c6.628 1.749 13.878 2.273 20.3-.6a18.632 18.632 0 0 0 7.8-6.06c2.506-3.583 2.6-5.842 3.189-9.966 7.081 12.986.4 37.409-17.066 29.435zm-31.056-34.135c-.732 1.311-.817 2.867-1.669 4.087a.741.741 0 0 1-1.265 0c-1.1-1.7-.1-4.087.878-5.645a11.02 11.02 0 0 1 4.119-3.964 9.475 9.475 0 0 1 5.5-1.121c1.751.207 4.41 1.052 4.829 3.039a.812.812 0 0 1-.773 1.017c-1.552-.056-2.781-1.324-4.353-1.451a6.9 6.9 0 0 0-4.151.919 8.56 8.56 0 0 0-3.12 3.118zm4.587-28.548a54.093 54.093 0 0 0 4.9-6.373c-1.022 3.678-5.942 13.879-5.085 13.553a51.016 51.016 0 0 0 9.988-4.959A112.794 112.794 0 0 0 227.5 204a62.361 62.361 0 0 0 9.332-9.62c1.212-1.563 2.342-3.184 3.408-4.849l-.274.887a68.632 68.632 0 0 1-2.788 7.283 72.29 72.29 0 0 1-3.5 6.76c-.616 1.067-1.269 2.113-1.938 3.148-4.961 7.676 1.046 1.767 3.242.456q1.973-1.177 3.923-2.39a87.515 87.515 0 0 0 7.352-5.134 51.19 51.19 0 0 0 6.649-6.134c.821-.914 1.592-1.876 2.333-2.859a32.5 32.5 0 0 0 1.821 8.849 33.044 33.044 0 0 0 2.731 6.2c.876 1.522 2.169 3.624 3.871 4.291.389.152.735-.24.711-.6.405-2.215.316-4.473.869-6.69a17.687 17.687 0 0 1 1.325-3.561c.042-.082.086-.163.13-.242 2.1 3.58 4.36 7.071 6.243 10.775a51.993 51.993 0 0 1 4.331 14.368c.136.854.757-1.167 1.608-2.761a19.854 19.854 0 0 1 4.827-4.354.794.794 0 0 0 .7-.421c.405-.233.824-.459 1.262-.674 2.1-1.037 4.714-1.751 6.8-.312 1.771 1.223 2.329 3.863 2.546 5.848a26.525 26.525 0 0 1-.106 5.617 29.461 29.461 0 0 1-3.533 11.7 9.552 9.552 0 0 1-3.511 3.683c-1.73.963-3.4.486-5.235.288-.96-.1-1.352 1.145-.834 1.793a5.36 5.36 0 0 0-.106 1.469c0 .966.008 1.933 0 2.9-.016 1.322-.053 2.655-.15 3.979l-.018.038a.46.46 0 0 0-.015.378c-.052.592-.113 1.182-.2 1.769a23.753 23.753 0 0 1-4.414 11.2c-1.725 2.238-15.375 14.583-16.735 15.378a.485.485 0 0 0 .371.883 8.485 8.485 0 0 0 1.017-.405 20.176 20.176 0 0 1-2.884 5.662c-1.5 2.332-3.37 4.9-5.826 6.293a1.673 1.673 0 0 1-2.088-.051 14.116 14.116 0 0 1-2.628-2.579 25.656 25.656 0 0 1-3.271-4.9c1.233-.121 7.174-.463 7.585-.72a.684.684 0 0 0 0-1.161c-.845-.644-2.084-.423-3.1-.408-1.253.014-2.5.077-3.754.142-8.157.429-20.857-.218-27.948-2.013a33.85 33.85 0 0 1-15.856-9.2 59.476 59.476 0 0 1-10.312-14.975 116.3 116.3 0 0 1-7.408-17.179 21.59 21.59 0 0 1-1.14-4.546l-.668-5.924a29.193 29.193 0 0 0 3.419-1.666c6.1-3.457 17.014-14.689 21.77-20.265zm25.71 39.52c1.217-.208 3.011-.982 2.744-2.468a.415.415 0 0 0-.408-.312 2.08 2.08 0 0 0-1.207.548 3.958 3.958 0 0 1-1.861.75 26.909 26.909 0 0 1-4.016.405.437.437 0 0 0 0 .873 20.415 20.415 0 0 0 4.749.2zm8.047-38.6a10.122 10.122 0 0 0 1.651-1.348 20.781 20.781 0 0 1 1.969-1.452c.967-.65 2.774-1.259 3.125-2.473a.506.506 0 0 0-.13-.493c-1.181-1.019-3.172.1-4.281.758a11.2 11.2 0 0 0-3.91 3.428 1.161 1.161 0 0 0 1.576 1.58zm40.36 19.648a10.316 10.316 0 0 1 .984-4.045c1.174-2.511 3.169-5.633 5.865-6.634a.34.34 0 0 1 .38.5c-1.523 2.145-3.666 3.676-4.871 6.1a10.18 10.18 0 0 0-1.17 4.08 10.5 10.5 0 0 0-.013 1.7v.015a.5.5 0 0 1 .233-.13c2.143-.536 4.445 1.93 5.072 3.766a4.584 4.584 0 0 1-.027 3.293c-.366.885-1.153 2-2.205 1.933a.606.606 0 0 1-.574-.756c.228-.855 1.132-1.235 1.335-2.129a3.193 3.193 0 0 0-.294-2.19 4.943 4.943 0 0 0-1.526-1.828c-.56-.377-1.2-.6-1.772-.949a2.247 2.247 0 0 1 .067.638c-.006.113-.141.226-.25.144-.9-.677-1.272-2.429-1.236-3.512zm-77.19-6.453c1.582.049 1.576-2.4 0-2.459-2.856-.1-6.308.828-7.861 3.427-.48.8.519 1.94 1.342 1.348a10.2 10.2 0 0 1 6.518-2.316zM259.5 216.4a1.427 1.427 0 0 0-1.121-1.072 15.281 15.281 0 0 0-10.5-.866 9.132 9.132 0 0 0-4.426 2.775 5.821 5.821 0 0 0-1.226 4.967c.053.36.6.319.684 0 .786-3.033 3.224-4.791 6.149-5.423a12.1 12.1 0 0 1 4.362-.061 19.2 19.2 0 0 1 4.3 1.461c1.088.436 2.004-.821 1.778-1.781z" data-name="Path 7529" transform="translate(-167.009 -135.16)" style="fill:#f8c58f;fill-rule:evenodd"/>
    <path id="prefix__Path_7530" d="M211.982 343.626a7.957 7.957 0 0 0-5.149-.158c-1.875.709-2.562 2.353-3.044 4.169a.907.907 0 0 1-.032.09c1.453-.693 5.916-2.494 7.911.47 1.974 2.939-1.371 6.739-7.582 8.329 1.428.949 3.1 1.713 4.333 1.281a11.346 11.346 0 0 1 1.236-1.306 19.754 19.754 0 0 1 3.486-2.592 34.3 34.3 0 0 0 3.078-1.691c1.967-1.383 1.545-3.738.261-5.476a9.158 9.158 0 0 0-4.5-3.117zm-8.694 4.339zm-.421-.6a5.58 5.58 0 0 1 .494-2.5 32.941 32.941 0 0 1-5.1-2.12 16.19 16.19 0 0 0-.22 3.51c1.679-.23 3.682-.164 4.826 1.113z" class="prefix__cls-6" data-name="Path 7530" transform="translate(-165.401 -119.915)"/>
    <path id="prefix__Path_7531" d="M276.811 168.082c2.091 4.024 7.728 12.465 16.729 8.59a3.543 3.543 0 0 1-1.351 2.874c-1.036.673-2.446.339-3.536 0a17.909 17.909 0 0 1-7.2-4.669.633.633 0 0 0-.99.764c2.762 4.337 13.414 10.217 14.926 1.9a5.552 5.552 0 0 0 .067-1.509 6.176 6.176 0 0 0 3.625 1.545c1.633 2.844 6.523 4.013 9.4 3.156a4.124 4.124 0 0 0 .5-.181c-.779 2.132.2 4.351 1.839 6.153a7.4 7.4 0 0 0 6.746 2.547 11.271 11.271 0 0 0 6.157-2.878 2.875 2.875 0 0 0 .685-2.678c.366-.176.731-.377 1.09-.6a12.4 12.4 0 0 0 3.245-2.82 7.111 7.111 0 0 1-2.5 3.655c-1.685 1.094-8.73 16.429 7.1 9.294-1.3 4.679-3.321 8.515-6.181 10.257-1.851 1.13-3.763 2.115-5.658 3.16a.521.521 0 0 0-.251.717 17.5 17.5 0 0 1-5.976 1.385c-5.46 0-6.287 10.955-7.446 19.253-1.1 7.878-16.047 20.716 1.958 29.652-.92 1.255-1.856 2.5-2.853 3.694-.478.575-.944 1.165-1.471 1.7-.754-.938-1.494-1.888-2.206-2.86a49.967 49.967 0 0 1-6.079-10.52 34.936 34.936 0 0 1-2.032-7.6 1.12 1.12 0 0 0 .236-.285 74.445 74.445 0 0 0 9.254-24.257 40.659 40.659 0 0 0 .531-13.325 25.505 25.505 0 0 0-1.642-6.022 18.552 18.552 0 0 0-1.527-3.003c2.541 1.023 5.114 2.072 7.725 2.833a.393.393 0 0 0 .3-.715 50.119 50.119 0 0 0-6.978-3.312c-2.527-1.064-5.042-2.152-7.513-3.34a50.925 50.925 0 0 1-13.414-9.129c-3.361-3.244-5.585-7.3-5.422-12.071a13.262 13.262 0 0 1 .11-1.354zm4.243-11.941a4.4 4.4 0 0 0 2.693 1.414c2.878.243 5.744-1.183 7.964-2.75-.56.885-1.033 1.7-1.39 2.319a16.931 16.931 0 0 0-2.219 6.491 11.012 11.012 0 0 0 .12 3.034c-.939-.743-1.9-1.462-2.856-2.172a31.389 31.389 0 0 0-4.057-2.973c-.074-1.793-.246-3.58-.256-5.364zm10.536 2.291a13.2 13.2 0 0 0-1.782 5.183 8.214 8.214 0 0 0 .2 2.915 19.806 19.806 0 0 1 .817 2.324 15.634 15.634 0 0 1 4.215 5.439 10.594 10.594 0 0 0 2.451 1.26 3.119 3.119 0 0 0 .3.088 21.418 21.418 0 0 1 2.592-10.4c.333-.615.692-1.21 1.068-1.793-3.035 2.7-7.046 5.174-9.351 2.156-1.578-2.067-1.362-4.712-.513-7.173zm10.117 8.826a12.771 12.771 0 0 0-1.736 3.482 15.619 15.619 0 0 0-.589 3.706.4.4 0 0 1 .126.143 7.819 7.819 0 0 0 4.188 3.9c1.608.56 3.736.871 5.209-.225 2.058-1.531 3.478-4.014 4.823-6.164-3.158 2.2-8.2 3.437-11.034.474-1.308-1.367-1.418-3.324-.988-5.319zm14.208 4.711c-.573.965-1.148 1.927-1.758 2.868a21.357 21.357 0 0 1-3.648 4.747.451.451 0 0 1-.041.14c-1.112 2.2.414 4.77 2.072 6.2a5.867 5.867 0 0 0 4.78 1.564 10.18 10.18 0 0 0 4.7-1.664c.4-.289.991-.714 1.076-1.252a.473.473 0 0 0-.1-.332 5.029 5.029 0 0 1-3.694-.318c-.643-.318-.154-1.164.45-1.07 1.883.291 3.882-.707 5.336-1.8a17.707 17.707 0 0 0 2.12-1.914c.256-.269.5-.57.767-.845-5.981 5.3-10.564 4.49-12.467 1.834-1.008-1.416-.26-5.327.406-8.158z" class="prefix__cls-6" data-name="Path 7531" transform="translate(-159.521 -133.961)"/>
    <path id="prefix__Path_7532" d="M182.761 235.26c4.669-2.243 12.62-6.925 17.751-14.651a13.7 13.7 0 0 0-3.065 1.731c-.823.592-1.823-.543-1.342-1.348 1.553-2.6 5.005-3.528 7.861-3.427a1.27 1.27 0 0 1 1.027 1.9c5.18-1.527 13.578-4.685 18.165-10.054 6.95-8.133 2.813 1.494 3.311 3.154s17.219-4.443 23.991-12.947c0 0 39.122 32.112 17.769 71.935 3.721-3.4 7.419-6.916 8.264-8.01a23.753 23.753 0 0 0 4.414-11.2c.084-.587.145-1.177.2-1.769a.46.46 0 0 1 .015-.378l.018-.038c.1-1.324.134-2.657.15-3.979.012-.967.008-1.935 0-2.9a5.36 5.36 0 0 1 .106-1.469c-.518-.648-.126-1.9.834-1.793 1.836.2 3.5.675 5.235-.288a9.552 9.552 0 0 0 3.511-3.683q.414-.714.774-1.461c-.8-2.319-1.966-4.635-3.647-5.924-3.726-2.86-2.272-11.352 5.619-13.647a4.97 4.97 0 0 0-1.653-2.138c-2.082-1.439-4.691-.725-6.8.312-.437.215-.857.441-1.262.674a.794.794 0 0 1-.7.421 19.854 19.854 0 0 0-4.827 4.354c-.852 1.594-1.471 3.615-1.608 2.761a51.993 51.993 0 0 0-4.331-14.368c-1.883-3.7-4.142-7.2-6.243-10.775-.044.078-.088.16-.13.242a17.687 17.687 0 0 0-1.325 3.561c-.553 2.217-.464 4.475-.869 6.69.024.364-.322.756-.711.6-1.7-.667-3-2.77-3.871-4.291a33.044 33.044 0 0 1-2.731-6.2 32.5 32.5 0 0 1-1.821-8.849c-.742.982-1.512 1.945-2.333 2.859a51.19 51.19 0 0 1-6.649 6.134 87.515 87.515 0 0 1-7.352 5.134q-1.947 1.217-3.923 2.39c-2.2 1.311-8.2 7.22-3.242-.456.668-1.035 1.322-2.081 1.938-3.148a72.29 72.29 0 0 0 3.5-6.76 68.632 68.632 0 0 0 2.788-7.283l.274-.887c-1.066 1.665-2.2 3.287-3.408 4.849a62.361 62.361 0 0 1-9.332 9.62 112.794 112.794 0 0 1-10.259 7.662 51.016 51.016 0 0 1-9.988 4.959c-.858.326 4.063-9.876 5.085-13.553a54.093 54.093 0 0 1-4.9 6.373c-4.756 5.576-15.673 16.808-21.77 20.265a29.193 29.193 0 0 1-3.419 1.666l.668 5.924a11.123 11.123 0 0 0 .242 1.493zm17.751-14.651a8.728 8.728 0 0 1 2.371-.556c-1.466.38-2.37.556-2.37.556zm59.328 59.2a37.955 37.955 0 0 1-7.578 2.4.646.646 0 0 1-.228.9c-.412.257-6.353.6-7.585.72a25.656 25.656 0 0 0 3.271 4.9 14.182 14.182 0 0 0 2.628 2.579 1.673 1.673 0 0 0 2.088.051c2.456-1.392 4.328-3.96 5.826-6.293a20.176 20.176 0 0 0 2.884-5.662 8.485 8.485 0 0 1-1.017.405.434.434 0 0 1-.289 0zm-19.04-72.98a1.161 1.161 0 0 1-1.576-1.58 11.172 11.172 0 0 1 3.91-3.426c1.109-.664 3.1-1.779 4.281-.76a.506.506 0 0 1 .13.493c-.351 1.214-2.158 1.823-3.125 2.473a20.781 20.781 0 0 0-1.969 1.452 10.122 10.122 0 0 1-1.651 1.348zm40.36 19.648a10.316 10.316 0 0 1 .984-4.045c1.174-2.511 3.169-5.633 5.865-6.634a.34.34 0 0 1 .38.5c-1.523 2.145-3.666 3.676-4.871 6.1a10.215 10.215 0 0 0-1.17 4.08 10.5 10.5 0 0 0-.013 1.7v.015a.5.5 0 0 1 .233-.13c2.143-.536 4.445 1.93 5.072 3.766a4.578 4.578 0 0 1-.027 3.293c-.366.885-1.153 2-2.205 1.932a.6.6 0 0 1-.574-.754c.228-.855 1.132-1.235 1.335-2.129a3.193 3.193 0 0 0-.294-2.19 4.934 4.934 0 0 0-1.526-1.828c-.56-.377-1.2-.6-1.772-.949a2.247 2.247 0 0 1 .067.638c-.006.113-.141.226-.25.144-.901-.673-1.275-2.425-1.239-3.508z" class="prefix__cls-6" data-name="Path 7532" transform="translate(-166.61 -131.629)"/>
    <path id="prefix__Path_7533" d="M177.723 250.052a6.162 6.162 0 0 1 2.249-1.213 2 2 0 0 1-.219-2.007c.473-.872 1.985-.749 2.775-.649 2.906.369 5.029 2.871 6.747 5.087-.668-1.407-1.315-2.825-1.955-4.25-.842-1.879-1.693-3.772-2.435-5.7-2.067-.127-4.444-.724-6.305.508a4.88 4.88 0 0 0-2.058 4.5 8.8 8.8 0 0 0 1.2 3.727zm3.522-1.413c-.337-.561-.736-1.2.072-1.252a4.947 4.947 0 0 1 2.939.761c1.844 1.11 3.066 3.024 4.376 4.672a11.453 11.453 0 0 1 1.756 3.2c.118.33.373.966.221 1.323-.139.328-1.365.321-1.689.438a.568.568 0 0 0-.247.94 2.218 2.218 0 0 0 3.751-1.37c.781 1.366 1.61 2.705 2.5 4.011a2.568 2.568 0 0 1-2.276 1.178 8.25 8.25 0 0 1-3.94-1.5c-.614-.375-1.212-.782-1.79-1.214 2.66-3.523 2.693-7.952-2.245-10.37a7.138 7.138 0 0 0-3.428-.817z" class="prefix__cls-6" data-name="Path 7533" transform="translate(-167.009 -127.514)"/>
    <path id="prefix__Path_7534" d="M180.673 225.366a18.065 18.065 0 0 1-6.43 2.106 12.117 12.117 0 0 0 1.3 3.2 21.372 21.372 0 0 0 3.182 3.971c1.173 1.16 2.412 2.243 3.681 3.292.271.224.574.447.886.678a42.993 42.993 0 0 1-2.619-13.247z" class="prefix__cls-7" data-name="Path 7534" transform="translate(-167.178 -128.687)"/>
    <path id="prefix__Path_7535" d="M217.262 209.435a117.17 117.17 0 0 0 9.844-7.554 64.367 64.367 0 0 0 8.656-9.179 61.348 61.348 0 0 0 3.695-5.33c.562-.908 1.109-1.826 1.626-2.762 1.731-3.134 3.2-2.767 2.329-.485a24.176 24.176 0 0 1-.563 2.438c-.336 1.323-.694 2.641-1.1 3.943a71.026 71.026 0 0 1-2.694 7.328 64.924 64.924 0 0 1-3.623 7.157c-.178.3-.356.6-.536.894l.1-.058c1.2-.735 2.391-1.473 3.571-2.233 2.51-1.611 5.011-3.24 7.355-5.088a46.822 46.822 0 0 0 6.336-5.915 31.445 31.445 0 0 0 2.644-3.445c.865-1.321.953-2.16 2.211-3.1.6-.451.524 8.725 2 13.22a30.434 30.434 0 0 0 2.518 5.835 18.855 18.855 0 0 0 1.688 2.528c.089.106.179.211.274.314a21.607 21.607 0 0 1 .863-5.807c.788-2.832.793-3.511 3.034-5.05 4.946 6.4 9.543 14.668 11.467 22.58a13.8 13.8 0 0 1 4.18-3.94 43.4 43.4 0 0 1 .751-8.17c.384-2.844.815-5.638 1.363-8.457 2.137-10.989 2.563-21.236-7.044-29.073a28.716 28.716 0 0 0-5.9-3.742c-2.779-1.3-5.441-2.969-8.027-1.559-.461.251-1-.38-.576-.748a25.175 25.175 0 0 1 6.642-4.459c.366-.159.74-.3 1.114-.436a11.621 11.621 0 0 0-1.741.023c-1.751.156-3.483.488-5.214.807.341 3.262-2.214-1.369-2.3-1.513a16.552 16.552 0 0 0-1.544-2.124 25.641 25.641 0 0 0-3.438-3.254c-1.347-1.06-2.751-2.029-4.118-3.044a19.947 19.947 0 0 1 2.988 3.811 14.3 14.3 0 0 1 1.7 3.992c.213.917.766 2.514-.188 3.136a.317.317 0 0 1-.325 0 1.156 1.156 0 0 1-.422-.463.949.949 0 0 1-1.067-.5 19.019 19.019 0 0 0-8.168-7.215 42.236 42.236 0 0 0-12.495-3.972c-7.168-1.173-14.863-.878-21.411 2.431a19.654 19.654 0 0 1 9.791 1.887c3.755 1.685 7.263 3.914 11.088 5.709.463.217-1.961.392-3.887.032-6.7-1.978-14.511-.9-20.986.984a47.3 47.3 0 0 0-19.199 11.391 65.258 65.258 0 0 0-17.569 28.458 57.813 57.813 0 0 0-2.548 16.4 47.934 47.934 0 0 0 .634 8.191c.361 2.115.929 4.173 1.41 6.255 3.365.551 10.972-1.408 13.99-3.364 5.689-3.686 15.522-13.879 20.072-19.247a40.575 40.575 0 0 0 6.807-11.235c1.593 4.223-.673 12.326-3.094 16.373-.116.193-.235.4-.362.615a39.213 39.213 0 0 0 7.398-4.211z" data-name="Path 7535" transform="translate(-167.465 -134.459)" style="fill:#5d1c13;fill-rule:evenodd"/>
    <path id="prefix__Path_7536" d="M284.971 181.12a21.1 21.1 0 0 0-1.319-3.9c-7.247-5.129-22.79-17.99-73.639-18.523q-.584.158-1.153.324a47.3 47.3 0 0 0-19.193 11.391 65.172 65.172 0 0 0-7.808 8.879c4.5-1.507 10.151-3.2 16.621-4.726a53.33 53.33 0 0 1 8.5-7.462c7.013-5.014-.425.492-4.27 6.513 3.622-.766 7.455-1.464 11.453-2.04a52.588 52.588 0 0 1 8.949-7.96c7.363-5.264-1.2 1.069-4.815 7.419q2.536-.3 5.145-.526.416-.485.857-.98c3.792-4.248 2.444-2.638.39.879 19.136-1.487 40.739.445 60.282 10.712z" data-name="Path 7536" transform="translate(-166.609 -133.67)" style="fill:#722c1c;fill-rule:evenodd"/>
    <path id="prefix__Path_7537" d="M217.262 207.442a117.17 117.17 0 0 0 9.844-7.554 64.367 64.367 0 0 0 8.656-9.179 61.348 61.348 0 0 0 3.695-5.33c.562-.908 1.109-1.826 1.626-2.762 1.125-2.037 2.139-2.594 2.472-2.111a49.127 49.127 0 0 0 1.31-5.709c-6 13.071-31.238 26.23-31.238 26.23a29.565 29.565 0 0 1-3.4 10.01c-.116.193-.235.4-.362.615a39.213 39.213 0 0 0 7.4-4.211zm21.765-11.542c5.907-2.359 18.348-8.591 18.662-19.339 0 0 21.689 18.954 28.6 5.96.561 4.592-.059 9.507-1.045 14.581-.548 2.819-.979 5.613-1.363 8.457a43.4 43.4 0 0 0-.751 8.17 13.8 13.8 0 0 0-4.18 3.94c-1.925-7.912-6.522-16.183-11.467-22.58-2.241 1.539-2.246 2.218-3.034 5.05a21.607 21.607 0 0 0-.863 5.807c-.095-.1-.185-.207-.274-.314a18.855 18.855 0 0 1-1.688-2.528 30.434 30.434 0 0 1-2.518-5.835c-1.471-4.5-1.392-13.672-2-13.22-1.257.941-1.346 1.781-2.211 3.1a31.445 31.445 0 0 1-2.644 3.445 46.822 46.822 0 0 1-6.336 5.915c-2.344 1.847-4.846 3.477-7.355 5.088-1.18.76-2.375 1.5-3.571 2.233l-.1.058c.181-.3.358-.594.536-.894a65 65 0 0 0 3.6-7.1zm-67.6 7.943c9.83 4.238 26.584 6.242 43.341-15.767 0 0-.419 3.093-1.3 7.049-.047-.158-.1-.313-.154-.46a40.575 40.575 0 0 1-6.807 11.235c-4.549 5.368-14.383 15.561-20.072 19.247-3.018 1.956-10.625 3.915-13.99 3.364-.481-2.082-1.049-4.14-1.41-6.255a47.934 47.934 0 0 1-.634-8.191 54.585 54.585 0 0 1 1.029-10.221z" class="prefix__cls-7" data-name="Path 7537" transform="translate(-167.465 -132.467)"/>
    <path id="prefix__Path_7538" d="M222.351 308.372a53.144 53.144 0 0 0-2.647-13.617c-.225-.678-.5-1.383-.772-2.108-.457.594-.954 1.167-1.372 1.761a32.657 32.657 0 0 0-2.561 4.2 20.869 20.869 0 0 0-1.759 4.725 13.549 13.549 0 0 0-.36 2.482 4.132 4.132 0 0 0 .658 3.092l.026.058c2.4-2.109 5.108-2.978 7.575-.1a3.6 3.6 0 0 1 1.2-.491h.009zm38.41-33.7c-.268 2.968-2.175 5.935-3.834 8.311-1.682 2.407-3.922 5.561-6.852 6.524-2.522.828-4.57-1.78-5.988-3.515-.938-1.147-3.493-4.387-3.454-5.915-3.053-.454-6.187-.132-9.275-.321-.016 1.115-.1 2.231-.129 3.332-.044 1.612-.087 3.224-.146 4.836-.119 3.381-.277 6.763-.6 10.129-.226 2.368-.514 4.737-.912 7.085 1.634.193 3.263.607 4.857.96 2.041.454 4.088.86 6.157 1.156a84.816 84.816 0 0 0 13.043 1c8.332-.094 16.949-1.822 23.671-7-5.552-8.81-12.946-20.185-11.708-31.209a46.2 46.2 0 0 1-4.829 4.526v.109zm30.055 16.021a60.2 60.2 0 0 0 .773 6.42q.247.568.5 1.136a25.159 25.159 0 0 1 1.687-3.531 43.777 43.777 0 0 1 6.715-8.934 120.026 120.026 0 0 1 9.988-8.493 28.109 28.109 0 0 1 5.552-3.229 17.844 17.844 0 0 0 4.4-2.37c-.789-.821-1.552-1.68-2.329-2.473-1.425-1.465-2.848-2.932-4.231-4.433a100.835 100.835 0 0 1-8.287-10.048 47.773 47.773 0 0 1-6.06-11.153 25.337 25.337 0 0 1-1.716-8.169 25.333 25.333 0 0 1-2.212 4.375 47.953 47.953 0 0 1-4.3 6.223c-1.607 2.05-3.308 4.022-5.071 5.936-.549.6-1.094 1.2-1.653 1.8a1.048 1.048 0 0 1-.294.31c-3.474 3.65-3.051 3.018-2.771 9.087a40.537 40.537 0 0 0 .859 6.554c1.49 6.966 4.065 13.723 6.461 20.415q.4 1.128.831 2.243c-.046-.555-.087-1.109-.119-1.665-.246-4.159-.548-8.987.977-12.945.152-.4.871-.389.809.111a66.029 66.029 0 0 0-.505 12.835zm-7.358 34.507c-8.043 2.594-16.978 2.623-25.348 2.594a105.126 105.126 0 0 1-11.941-.43c-7.1-.844-13.914-2.977-20.728-5.063-.088 1.018-.206 2.033-.348 3.046a63.4 63.4 0 0 1-1.535 8.363c-.639 2.277-1.473 4.5-1.981 6.82a12.456 12.456 0 0 0-.382 3.484 4.51 4.51 0 0 0 .315 1.354 38.463 38.463 0 0 0 3.031 3.614 105.393 105.393 0 0 0 8.371 7.177 55.256 55.256 0 0 0 9.055 5.709c.332.147.094.714-.246.588a50.123 50.123 0 0 1-14.831-9.329 39.967 39.967 0 0 1-5.535-5.625c-1.214-1.539-3.726-3.64-5.441-1.486-1.5 1.889-.244 4.782.916 6.512a26.224 26.224 0 0 0 4.87 5.172 74.423 74.423 0 0 0 11.544 8.663 56.431 56.431 0 0 0 18.533 6.087c6.13 1 12.493 1.442 18.466-.552 6.225-2.075 11.953-5.447 17.585-8.763 2.637-1.555 5.266-3.125 7.907-4.675 1.476-.864 6.728-3.692 9.51-5.995 1.137-1 3.392-4.671.9-5.031-1.076-.16-2.315.7-3.154 1.26-2.417 1.606-4.625 3.709-7.3 4.879a.283.283 0 0 1-.286-.487c2.258-1.511 4.051-3.678 6.229-5.308-3.319-6.644-6.352-14.224-6.71-21.805q-2.312-2.57-4.445-5.294c-1.485 2.363-4.479 3.705-7.021 4.521z" data-name="Path 7538" transform="translate(-164.293 -127.936)" style="fill:#c9d81d;fill-rule:evenodd"/>
    <path id="prefix__Path_7539" d="M222.251 307.074a53.143 53.143 0 0 0-2.647-13.617c-.225-.678-.5-1.383-.772-2.108-.457.594-.954 1.167-1.372 1.761a32.656 32.656 0 0 0-2.561 4.2c-.254.508-.494 1.024-.718 1.549 2.628.689 5.133 2.532 5.623 7.582a6.153 6.153 0 0 1 1.234 1.123 3.6 3.6 0 0 1 1.2-.491h.009zm8.872-25.1a11.089 11.089 0 0 1 9.2 2.74c6.618 5.808 7.942 5.726 10.589 4.814 2.249-.777 14.47-6.518 22.764 12.737a28.643 28.643 0 0 0 3.517-2.317c-5.552-8.81-12.946-20.185-11.708-31.209a46.2 46.2 0 0 1-4.829 4.526v.109c-.268 2.968-2.175 5.935-3.834 8.311-1.682 2.407-3.922 5.561-6.853 6.524-2.522.828-4.57-1.78-5.988-3.515-.938-1.147-3.493-4.387-3.454-5.915-3.053-.454-6.187-.132-9.275-.321-.016 1.115-.1 2.231-.129 3.332l-.005.188zm48.308 42.989c3.111 23.362-3.308 39.214-22.243 46.88a32.45 32.45 0 0 0 12.952-1.243c6.225-2.075 11.953-5.447 17.585-8.763 2.637-1.555 5.266-3.125 7.907-4.675 1.476-.864 6.728-3.692 9.51-5.995 1.137-1 3.392-4.671.9-5.031-1.076-.16-2.315.7-3.154 1.26-2.417 1.606-4.625 3.709-7.3 4.879a.283.283 0 0 1-.286-.487c2.258-1.511 4.051-3.678 6.229-5.308-3.319-6.644-6.352-14.224-6.71-21.805q-2.312-2.57-4.445-5.294c-1.487 2.366-4.482 3.707-7.023 4.528-1.288.416-2.6.766-3.927 1.058zm26.659-70.675c-.7 8.5-2.719 24.459-8.1 27.354-7.4 3.982-5.129-9.129-6.288-11.289s-.322 3.881-3.806 4.981c-2.658.839-4.345-13.432-3.757-22.544-3.439 3.613-3.018 3-2.738 9.055a40.421 40.421 0 0 0 .859 6.554c1.49 6.966 4.065 13.723 6.461 20.415q.4 1.128.831 2.243c-.046-.555-.087-1.109-.119-1.665-.246-4.159-.548-8.987.977-12.945.152-.4.871-.389.809.111a66.028 66.028 0 0 0-.505 12.834 60.482 60.482 0 0 0 .773 6.42q.247.568.5 1.136a25.163 25.163 0 0 1 1.687-3.531 43.777 43.777 0 0 1 6.715-8.934 120.038 120.038 0 0 1 9.988-8.493 28.111 28.111 0 0 1 5.552-3.229 17.842 17.842 0 0 0 4.4-2.37c-.789-.821-1.552-1.68-2.329-2.473-1.425-1.465-2.848-2.932-4.231-4.433a104.611 104.611 0 0 1-7.679-9.196z" data-name="Path 7539" transform="translate(-164.193 -126.638)" style="fill:#3b897a;fill-rule:evenodd"/>
    <path id="prefix__Path_7540" d="M304.308 256.829c1.569 1.887 3.209 3.715 4.884 5.51 1.383 1.484 2.792 2.948 4.21 4.4.161.163.322.328.488.489a43.682 43.682 0 0 0-1.2-4.729 40.522 40.522 0 0 0-2.443-5.393c-.722-1.4-1.612-2.67-2.429-4-.063.076-.12.153-.184.226a20.818 20.818 0 0 1-3.326 3.497z" data-name="Path 7540" transform="translate(-157.458 -126.614)" style="fill:#16685c;fill-rule:evenodd"/>
    <path id="prefix__Path_7541" d="M277.67 298.527c-6.986 5.089-15.64 7.005-24.2 7.032a71.2 71.2 0 0 1-13.872-1.311c-3.606-.7-7.683-1.281-11.075-2.9-.11.592-.224 1.184-.348 1.772-.364 1.711-.777 3.412-1.289 5.086-.852 2.79-2.09 5.667-2.213 7.867-.013.244-.032.487-.049.731 6.314 1.148 12.531 2.914 18.922 3.634a112.078 112.078 0 0 0 12.817.384c4.184-.012 8.372-.109 12.545-.445a57 57 0 0 0 12.595-2.113c2.391-.754 5.538-1.957 6.431-4.478-3.585-4.76-6.862-9.777-10-14.838z" class="prefix__cls-13" data-name="Path 7541" transform="translate(-163.413 -123.22)"/>
    <path id="prefix__Path_7542" d="M274.253 298.527a32.658 32.658 0 0 1-3.911 2.44 77.009 77.009 0 0 1 3.1 10.619q.864 3.882 1.438 7.531c1.08-.236 2.151-.516 3.2-.849 2.392-.754 5.539-1.957 6.432-4.478-3.585-4.76-6.862-9.777-10-14.838z" class="prefix__cls-14" data-name="Path 7542" transform="translate(-159.996 -123.22)"/>
    <path id="prefix__Path_7543" d="M274.18 297.363c3.317 5.46 6.976 11.218 10.785 16.371.627.848 1.269 1.687 1.917 2.52a1.179 1.179 0 0 1 .569.727q1.649 2.094 3.392 4.1a1.156 1.156 0 0 0 .12.14l.183.213v-.037l.087.081a1.9 1.9 0 0 0 .138.155c.113.11.228.214.344.315.255.262.5.533.73.813l.015.145c.265.289.534.575.8.861l.389.483a1.365 1.365 0 0 0 .342.291c1.209 1.26 2.448 2.486 3.73 3.665a77.891 77.891 0 0 0 7.616 6.237c1.42 1.006 2.9 1.91 4.343 2.874a18.177 18.177 0 0 0 4.068 2.225 10.77 10.77 0 0 0-1.321-2c-1.237-1.559-2.342-3.207-3.509-4.818-4.395-6.062-9.273-11.774-13.353-18.062-4.339-6.684-7.322-11.652-9.861-18.936-2.333-6.7-4.644-13.432-6.7-20.23a61.878 61.878 0 0 1-2.333-10.272c-.573-4.669-.939-9.366 2.023-12.7-1.592-.293-2.676 1.019-3.828 2.14a20.787 20.787 0 0 1-2.968 4.89c-2.367 2.872-5.381 5.043-8.185 7.444-.533 13.574 3.251 18.476 10.467 30.365z" class="prefix__cls-3" data-name="Path 7543" transform="translate(-160.495 -126.661)"/>
    <path id="prefix__Path_7544" d="M228.37 294.111c.3-3.371.48-6.753.606-10.135.092-2.425 0-4.943.2-7.393q-1.552-.1-3.1-.188a10.718 10.718 0 0 0-3.33 2.2c-1.374 1.228-3.173 2.475-3.657 4.38a7.571 7.571 0 0 0 .509 4.24c.636 1.925 1.352 3.824 1.886 5.785a54.284 54.284 0 0 1 2.2 13.842 20.6 20.6 0 0 0 .256 4.588 4.246 4.246 0 0 0 .463 1.312c.377-1.418 1-2.807 1.4-4.207.441-1.541.834-3.1 1.156-4.667a87.64 87.64 0 0 0 1.411-9.757z" class="prefix__cls-3" data-name="Path 7544" transform="translate(-163.837 -124.874)"/>
    <path id="prefix__Path_7545" d="M302.008 295.823c3.038 6.2 5.93 12.559 8.472 18.98.7 1.768 1.369 3.563 1.983 5.38a9.613 9.613 0 0 1 2.96-1.8c1-.449 2.053-.81 3.078-1.22-.742-2.2-1.379-4.423-2.027-6.652a143.295 143.295 0 0 0-6.012-17.765 53.013 53.013 0 0 0-4.248-8.006c-1.323-1.993-2.931-4.418-5.036-5.785-.257.2-.513.4-.768.607l-.289.226c3.612 1.922 5.477 6.668 6.816 10.255 1.093 2.932 2.3 5.825 3.418 8.75a57 57 0 0 1 3.014 8.732 1.183 1.183 0 0 1 .9 1.239 1.9 1.9 0 0 1-.4.952c.833 1.4 1.912 2.973 2.132 4.53a1.924 1.924 0 0 1-1.77 2.414c-1.986-.02-2.372-4.781-2.113-6.325-.637-.161-1.245-.646-.959-1.326a2.321 2.321 0 0 1 .59-.766 2.441 2.441 0 0 1-1.52-1.132 34.089 34.089 0 0 1-2.6-6.4c-1.365-3.694-2.219-7.577-3.943-11.133a33.1 33.1 0 0 0-5.622-8.168c-.669.542-1.323 1.1-1.933 1.695-.387.379-.774.772-1.16 1.173a91.709 91.709 0 0 1 7.037 11.545z" class="prefix__cls-3" data-name="Path 7545" transform="translate(-158.155 -124.683)"/>
    <path id="prefix__Path_7546" d="M280.508 250.4c1.679-1.9 3.333-3.829 4.869-5.85.389-.513.775-1.029 1.151-1.552-1.646-1.4-4.045-1.06-5.966-.346a15.618 15.618 0 0 0-4.108 2.208c-.118 1.43-.288 2.856-.546 4.267a31.04 31.04 0 0 1-.774 3.264 4.921 4.921 0 0 1 3.993-.479c.464-.507.929-1.006 1.381-1.512z" class="prefix__cls-15" data-name="Path 7546" transform="translate(-159.638 -127.442)"/>
    <path id="prefix__Path_7547" d="M292.425 306.489c3.739 6.356 8.23 12.082 12.681 17.935 2.331 3.066 4.444 6.325 6.831 9.343 1.619 2.044 2.91 4.209 2.089 6.667-.51 1.4-9.147-4.238-10-4.817a78.585 78.585 0 0 1-6.808-5.183 81.27 81.27 0 0 1-5.928-5.623 52.845 52.845 0 0 0 1.55 6.1 132.481 132.481 0 0 0 5 12.483c.119-.062.235-.126.356-.185 1.2-.571 2.629-.978 3.81-.143 2.535 1.792.684 5.3-1.187 6.833 4.992-.5 10.524-1.824 12.829-6.873 1.275-2.8 1.211-5.951.949-8.95a52.9 52.9 0 0 0-2.065-10.357 148.422 148.422 0 0 0-8.041-19.974c-1.479-3.2-2.842-6.459-4.521-9.558a85.325 85.325 0 0 0-5.584-8.677 31.264 31.264 0 0 0-6.978 11.448q2.286 4.886 5.017 9.534zm11.492-25.626a11.25 11.25 0 0 0-2.174-1.91c-.257.2-.513.4-.768.607l-.289.226a8.751 8.751 0 0 1 2.065 1.554c.4-.17.789-.332 1.167-.477zm-4.08 1.913c-.389-.462-.791-.916-1.207-1.367-.669.542-1.323 1.1-1.933 1.695-.387.379-.774.772-1.16 1.173l.72 1.05a19.019 19.019 0 0 1 3.58-2.55zm15.67 46.98a18.351 18.351 0 0 0 2.68-.7 19.009 19.009 0 0 0 4.536-2.59c.493 4.325.321 8.266-3.048 12.56a38.265 38.265 0 0 1-5.016 4.948 19.8 19.8 0 0 0 1.383-9.1 41.682 41.682 0 0 0-.535-5.118z" class="prefix__cls-15" data-name="Path 7547" transform="translate(-158.721 -124.683)"/>
    <path id="prefix__Path_7548" d="M309.183 303.857c.339.955 1.833 5.187 3.222 3.308a54.47 54.47 0 0 0-2.69-7.854c-1.047-2.773-2.212-5.506-3.218-8.294-1.54-4.263-3.28-8.289-6.965-11.029-.475.372-.951.744-1.425 1.121a20.451 20.451 0 0 1 4.93 6.38 41.859 41.859 0 0 1 3.275 8.195c.83 2.771 1.9 5.453 2.872 8.173zm3.392 6.444a1.364 1.364 0 0 1-.189.017 25.555 25.555 0 0 0 .234 2.889c.13.716.389 2.657 1.325 2.806.871.141 1.372-.973 1.224-1.68a8.088 8.088 0 0 0-.875-2.185 23.245 23.245 0 0 1-1.171-2.053 1.735 1.735 0 0 1-.548.205zm-.454-1.969c.4-.23 1.444-.558 1.426.284-.125 1.78-2.642 1.363-2.118.348a1.73 1.73 0 0 1 .693-.632z" data-name="Path 7548" transform="translate(-157.921 -124.605)" style="fill:#dbdcdc;fill-rule:evenodd"/>
    <path id="prefix__Path_7549" d="M223.261 329.464a73.164 73.164 0 0 0 2.681-16.637 3.577 3.577 0 0 1-1.394-1.6 12.416 12.416 0 0 1-.71-5.083c0-.5-.011-1-.027-1.5a3.414 3.414 0 0 0-.877.422.71.71 0 0 1-.21.147 12.985 12.985 0 0 0-2.591 3.029 60.022 60.022 0 0 0-3.478 5.711 155.381 155.381 0 0 0-6.873 14.469 50.833 50.833 0 0 1-3.155 6.527 12.1 12.1 0 0 1-3.658 4.353c-2.839 1.7-6.163-.917-5.814-3.852.144-5.337 8.7-18.066 12.018-23.782a34.891 34.891 0 0 1 5.308-7.259c-1.075-2.42-2.864-2.691-4.819-.764-2.63 2.586-4.527 5.969-6.276 9.185q-2.391 4.387-4.439 8.951c-2.055 4.584-4.637 9.569-4.871 14.681-.279 6.11 5.611 8.838 10.191 10.384a5.758 5.758 0 0 1 2.249-1.821c3.155-1.433 7.1-.357 9.775 1.695a7.764 7.764 0 0 1-.958-4.964c.46-2.3 2.442-3.961 4.856-3.228a5.292 5.292 0 0 1 1.159.514 12.844 12.844 0 0 1 .112-2.6 45.579 45.579 0 0 1 1.801-6.978z" data-name="Path 7549" transform="translate(-165.697 -122.932)" style="fill:#77305f;fill-rule:evenodd"/>
    <path id="prefix__Path_7550" d="M223.026 329.464a73.164 73.164 0 0 0 2.681-16.637 3.577 3.577 0 0 1-1.394-1.6 12.416 12.416 0 0 1-.71-5.083c0-.5-.011-1-.027-1.5a3.414 3.414 0 0 0-.877.422.71.71 0 0 1-.21.147 12.985 12.985 0 0 0-2.591 3.029l-.035.051c1.211.113 2.052.434 2.052 1.1a9.387 9.387 0 0 0 1.758 4.759s-.073.071-.952 4.337-2.786 15.436-2.786 15.436l-4.176 1.839c-4.177 1.837-2.492 7.181-2.492 7.181l-3.5-.785c-3.5-.788-5.15 1.69-6.542 2.5-.639.372-3.314-.341-6.021-1.22a22.634 22.634 0 0 0 6.825 3.407 5.758 5.758 0 0 1 2.249-1.821c3.155-1.433 7.1-.357 9.775 1.695a7.764 7.764 0 0 1-.958-4.964c.46-2.3 2.442-3.961 4.856-3.228a5.292 5.292 0 0 1 1.159.514 12.844 12.844 0 0 1 .112-2.6 45.579 45.579 0 0 1 1.8-6.982zm-11.873-21.314c-.032-1.211-.256-3.244-1.383-3.7a6.777 6.777 0 0 0-.873-.264c.173-.185.349-.365.53-.539 1.955-1.927 3.744-1.656 4.819.764a25.448 25.448 0 0 0-3.093 3.739z" data-name="Path 7550" transform="translate(-165.462 -122.932)" style="fill:#541940;fill-rule:evenodd"/>
    <path id="prefix__Path_7551" d="M208.913 313.606c-3.208 5.718-17.662 27.395-7.322 24.715 1.839-.474 2.419-1.755 3.355-3.293 2.594-4.272 4.183-9.012 6.219-13.557a107.99 107.99 0 0 1 5.815-11.049 33.457 33.457 0 0 1 3.278-4.765 14.267 14.267 0 0 1 1.05-1.115c-4.472-5.319-10.575 5.822-12.395 9.064z" class="prefix__cls-13" data-name="Path 7551" transform="translate(-165.409 -122.876)"/>
    <path id="prefix__Path_7552" d="M199.445 249.025a13.861 13.861 0 0 0 6.474-2.074c1.227-.715 5.734-3.914 2.018-5a6.852 6.852 0 0 0-3.139-.074l-.149.03c-.08.016-.159.032-.241.054a.072.072 0 0 1-.021 0c-2.448.559-6.588 2.982-7.161 5.435-.344 1.472.974 1.654 2.219 1.63zm4.446-6.921a.005.005 0 1 1 0-.011.005.005 0 1 1 0 .007z" class="prefix__cls-19" data-name="Path 7552" transform="translate(-165.465 -127.464)"/>
    <path id="prefix__Path_7553" d="M249.752 228.028a4.881 4.881 0 0 0 3.059.666c1.863-.039 4.4-.236 6-1.335 1.073-.736 3.642-2.68 2.065-4.2-1.016-.981-2.3-.882-3.6-.586a22.71 22.71 0 0 0-6.308 2.621.285.285 0 0 1-.2.033c-1.038.773-2.108 1.94-1.016 2.801z" class="prefix__cls-19" data-name="Path 7553" transform="translate(-161.569 -128.911)"/>
    <path id="prefix__Path_7554" d="M316.592 375.712c-.952-3.05-2-6.048-3.229-9-1.859-4.459-3.578-8.9-5.1-13.478-.6-1.8-1.212-3.585-1.876-5.36-.242-.648-.479-1.3-.761-1.937v-.006c-2.439 1.672-5.315 3.6-7.8 5.145q-3.94 2.442-7.872 4.9a90.88 90.88 0 0 1-16.874 8.714 32.569 32.569 0 0 1-8.508 2.042 48.507 48.507 0 0 1-9.35-.392 58.673 58.673 0 0 1-17.927-5.013 48.424 48.424 0 0 1-8.229-4.784c-2.173-1.6-4.232-3.38-6.314-5.1a47.114 47.114 0 0 1-4.092-3.7 5.643 5.643 0 0 1 .142.573 4.931 4.931 0 0 1-2.617 5.567c-6.322 3.671-9.023 5.848-10.611 13.665a67.029 67.029 0 0 0-.39 18.711 43.488 43.488 0 0 1 4.055 5.488.676.676 0 0 1 .2-.011c3.647.4 7.359 2.617 10.329 4.647a38.217 38.217 0 0 1 9 8.257 19.376 19.376 0 0 1 2.849 5.243c.008-.237.023-.477.034-.716.621-12.037 4.579-21.89 15.764-28.44a22.01 22.01 0 0 1 7.161-2.778c1.032-.193 7.469-1.378 8-1.1l.115-.025a31.4 31.4 0 0 0-14.164-3.569.494.494 0 0 1 0-.988 22.409 22.409 0 0 1 4.905-.072c10.315 1.2 18.735 7.88 25.966 14.9 7.436 7.215 14.122 15.34 22.6 21.383.95.678.083 2.248-.929 1.595-.948-.613-1.855-1.28-2.751-1.967a82.656 82.656 0 0 1-7.251-6.358c1.348 4.419 3.742 9.069 5.336 14.048a9.863 9.863 0 0 0 4.319 5.808 17.394 17.394 0 0 0 4.894 2.026c3.438.841 7.494.961 10.73-.693a8.217 8.217 0 0 0 3.565-3.231 13.206 13.206 0 0 0 1.209-4.813l-.033-.095a.414.414 0 0 1 .073-.438 75.474 75.474 0 0 0-1.235-13.6c-.464-2.328-1.088-4.621-1.513-6.958-.148-.812-.3-1.656-.393-2.506a27.216 27.216 0 0 1-1.6 3.222 47.518 47.518 0 0 0-4.258 8.245.382.382 0 0 1-.735-.2c.4-2.793 1.921-5.233 3.318-7.625 1.633-2.8 3.173-5.754 3.4-9.058a27.879 27.879 0 0 0-1.552-10.168z" data-name="Path 7554" transform="translate(-164.901 -119.677)" style="fill:#a5208e;fill-rule:evenodd"/>
    <path id="prefix__Path_7555" d="M307.307 353.154c-.591-1.769-1.2-3.533-1.851-5.279-.242-.648-.479-1.3-.761-1.937v-.006c-2.439 1.672-5.315 3.6-7.8 5.145q-3.94 2.442-7.872 4.9a90.88 90.88 0 0 1-16.874 8.714 32.569 32.569 0 0 1-8.508 2.042 48.507 48.507 0 0 1-9.35-.392 58.673 58.673 0 0 1-17.927-5.013 48.424 48.424 0 0 1-8.229-4.784c-2.173-1.6-4.232-3.38-6.314-5.1a47.114 47.114 0 0 1-4.092-3.7 5.643 5.643 0 0 1 .142.573 4.883 4.883 0 0 1-.719 3.894 28.836 28.836 0 0 1 13.607 11.269c6.868 10.331 3.033 28.728-6.9 36.845a31.985 31.985 0 0 1 3.977 4.317 19.376 19.376 0 0 1 2.849 5.243c.008-.237.023-.477.034-.716.621-12.037 4.579-21.89 15.764-28.44a22.01 22.01 0 0 1 7.161-2.778c1.032-.193 7.469-1.378 8-1.1l.115-.025a31.4 31.4 0 0 0-14.164-3.569.494.494 0 0 1 0-.988 22.409 22.409 0 0 1 4.905-.072c10.315 1.2 18.735 7.88 25.966 14.9 7.436 7.215 14.122 15.34 22.6 21.383.95.678.083 2.248-.929 1.595-.948-.613-1.855-1.28-2.751-1.967a82.656 82.656 0 0 1-7.251-6.358c1.348 4.419 3.742 9.069 5.336 14.048a9.863 9.863 0 0 0 4.319 5.808 17.191 17.191 0 0 0 3.849 1.734c-1.865-4.127-3.282-7.756-3.221-9.145.172-3.964 4.384-.167 5.129-2.574s-22.5-23.319-24.654-32.282c-1.863-7.763 10.764-24.577 26.414-26.185z" class="prefix__cls-7" data-name="Path 7555" transform="translate(-163.972 -119.677)"/>
    <path id="prefix__Path_7556" d="M328.46 449.527c7.549-7.193.259-16.071-7.42-19.009a23.215 23.215 0 0 0-17.24.092 22.049 22.049 0 0 0-8.284 5.273c-1.633 1.845-2.216 4.2-2.865 6.517a.871.871 0 0 1-1.678-.463 19.54 19.54 0 0 1 2.305-6.082 17.061 17.061 0 0 1 5.311-4.685A25.94 25.94 0 0 1 315 427.19a27.11 27.11 0 0 1 9.293 2.916 33.313 33.313 0 0 0-3.816-10.34c-.9-1.707-1.864-3.384-2.815-5.065-.335-.592-.681-1.186-1.017-1.786a10.032 10.032 0 0 1-1.2 3 9.788 9.788 0 0 1-4.05 3.665 17.673 17.673 0 0 1-11.792.854c-4.438-1.117-8.543-3.614-10.081-8.153-.183-.537-.344-1.079-.5-1.623-7.991 8.307-8.785 24.8-1.8 33.913 5.666 7.387 15.2 8.763 23.9 8.946a37.736 37.736 0 0 0 12.663-1.447 12.249 12.249 0 0 0 4.675-2.543z" class="prefix__cls-3" data-name="Path 7556" transform="translate(-159.09 -114.839)"/>
    <path id="prefix__Path_7557" d="M328.46 449.527a11.241 11.241 0 0 0 2.163-2.762c-7.88 5.088-20.314 2.568-26.979-2.81-7.607-6.136-1.634-12.568-1.624-12.576h-.005l-1.354.667a18.04 18.04 0 0 0-5.145 3.837c-1.633 1.845-2.216 4.2-2.865 6.517a.871.871 0 0 1-1.678-.463 19.54 19.54 0 0 1 2.305-6.082 13.5 13.5 0 0 1 2.023-2.282c-.742-2.245-1.191-8.006 12.315-10.449 7.06-1.279 11.739-.586 14.8.657-.581-1.372-1.245-2.712-1.936-4.015-.9-1.707-1.864-3.384-2.815-5.065-.335-.592-.681-1.186-1.017-1.786a10.032 10.032 0 0 1-1.2 3 9.788 9.788 0 0 1-4.05 3.665 17.673 17.673 0 0 1-11.792.854c-4.438-1.117-8.543-3.614-10.081-8.153-.183-.537-.344-1.079-.5-1.623-7.991 8.307-8.785 24.8-1.8 33.913 5.666 7.387 15.2 8.763 23.9 8.946a37.736 37.736 0 0 0 12.663-1.447 12.249 12.249 0 0 0 4.672-2.543z" class="prefix__cls-15" data-name="Path 7557" transform="translate(-159.09 -114.839)"/>
    <path id="prefix__Path_7558" d="M229.793 412.655a14.293 14.293 0 0 0-2.972-10.508 37.987 37.987 0 0 0-8.554-7.834 41.454 41.454 0 0 0-8.5-4.314 37.843 37.843 0 0 1 2.211 4.632 23.924 23.924 0 0 1 1.668 6.461 11.822 11.822 0 0 1-.024 3.3 53.171 53.171 0 0 1 5.581 6.314 32.727 32.727 0 0 1 4.431 7.788 18.033 18.033 0 0 0 2.5 4.949 21.209 21.209 0 0 1 1.146-2.225 34.292 34.292 0 0 0 1.389-3.455 21.8 21.8 0 0 0 1.124-5.108z" class="prefix__cls-15" data-name="Path 7558" transform="translate(-164.523 -116.383)"/>
    <path id="prefix__Path_7559" d="M214.559 401.6a31.947 31.947 0 0 0-5.873-13.327c-2.833-3.982-6.458-7.9-10.939-10.013a18.669 18.669 0 0 0-15.426.35 19.157 19.157 0 0 0-10.265 12.59.8.8 0 0 1-.031.082 10.851 10.851 0 0 1 4.154-2.514c11.3-4 23.335 2.916 32.058 9.6 2.194 1.68 4.375 3.457 6.454 5.351a12.475 12.475 0 0 0-.132-2.119z" class="prefix__cls-3" data-name="Path 7559" transform="translate(-167.344 -117.373)"/>
    <path id="prefix__Path_7560" d="M213.609 400.834a31.933 31.933 0 0 0-5.873-13.327l-.186-.257c-5.5 1.863-15.677.752-20.351.095 7.353 1.482 14.422 5.92 20.089 10.267 2.194 1.68 4.375 3.457 6.454 5.351a12.475 12.475 0 0 0-.132-2.129zm-28.88-13.871h.015-.013z" class="prefix__cls-15" data-name="Path 7560" transform="translate(-166.395 -116.61)"/>
    <path id="prefix__Path_7561" d="M210.809 402.149c-4.21 3.22-9.574 6.918-13.341 10.453a.24.24 0 0 1-.34-.34 80.9 80.9 0 0 1 12.735-10.892c-1.659-1.339-3.368-2.607-5.086-3.812-1.346-.945-2.7-1.855-4.088-2.709-3.56 2.4-7.315 4.672-10.46 7.594-1.716 1.595-3.557 3.044-5.219 4.7-1.4 1.4-2.732 2.863-4.039 4.345-.311.355-.842-.1-.631-.485a21.853 21.853 0 0 1 4.024-5.043 40.961 40.961 0 0 1 5.148-4.452c3.412-2.374 6.661-4.973 10.1-7.316a44.351 44.351 0 0 0-5.551-2.8 94.666 94.666 0 0 0-7.746 6.048c-2.551 2.293-4.969 4.687-7.625 6.856-.227.184-.645-.066-.441-.343a50.014 50.014 0 0 1 7.326-7.821 69.811 69.811 0 0 1 6.793-5.4c-1.036-.366-2.1-.688-3.182-.954a26.765 26.765 0 0 0-8.764-.842 19.849 19.849 0 0 0-6.941 2.093 10.042 10.042 0 0 0-1.45 2.16 10.8 10.8 0 0 0-1.01 5.487c.414 5.838 4.168 10.686 8.505 14.328 4.858 4.079 10.671 6.82 16.513 9.164 1.5.605 3.016 1.2 4.533 1.766a51.349 51.349 0 0 1 6.919-6.682c1.283-1.049 2.582-2.077 3.868-3.123a44.211 44.211 0 0 1 3.521-2.874c.507-.331.95.376.607.79a23.545 23.545 0 0 1-3.657 3.133c-1.307 1.03-2.632 2.034-3.942 3.059a58.089 58.089 0 0 0-6.8 5.894c3.7 1.369 2.261 1.537 5.718 3.756a27.941 27.941 0 0 0 3.517 1.914 25.1 25.1 0 0 0 7.738 2.24c2.173.22 4.616.165 6.444-1.2 3.964-2.971.975-8.957-.547-12.313a32.917 32.917 0 0 0-1.99-3.7 87.334 87.334 0 0 0-6.546 5.92c-1.568 1.526-2.985 3.231-4.484 4.834-.277-.227-.553-.456-.845-.663a1.546 1.546 0 0 0-.42-.212 45.8 45.8 0 0 1 4.991-5.3 58.173 58.173 0 0 1 6.7-5.537c-.69-1.054-1.423-2.085-2.188-3.109a86.881 86.881 0 0 0-8.367-8.612z" class="prefix__cls-13" data-name="Path 7561" transform="translate(-167.421 -116.469)"/>
    <path id="prefix__Path_7562" d="M185.97 406.224q-.487.453-.96.921c-1.4 1.4-2.732 2.863-4.039 4.345-.311.355-.842-.1-.631-.485a21.853 21.853 0 0 1 4.024-5.043q.4-.4.818-.793a34.041 34.041 0 0 1-2.641-4.251c-1.257 1.156-2.525 2.3-3.854 3.382-.227.184-.645-.066-.441-.343a44.946 44.946 0 0 1 3.691-4.356 10.127 10.127 0 0 1 1.567-10.709 20.663 20.663 0 0 0-3.084.051 19.849 19.849 0 0 0-6.941 2.093 10.042 10.042 0 0 0-1.45 2.16 10.8 10.8 0 0 0-1.01 5.487c.414 5.838 4.168 10.686 8.505 14.328 4.858 4.079 10.671 6.82 16.513 9.164 1.5.605 3.016 1.2 4.533 1.766a45.237 45.237 0 0 1 4.5-4.612c-7.978-1.91-14.712-7.439-19.1-13.106zm20.23 13.347a24.585 24.585 0 0 0 8.063.229 41.952 41.952 0 0 0-4.586 4.91 1.546 1.546 0 0 1 .42.212c.291.207.567.436.845.663 1.5-1.6 2.916-3.308 4.484-4.834.505-.5 1.011-.984 1.521-1.473a27.894 27.894 0 0 0 6.2-2.4c.287.542.559 1.091.814 1.654 1.522 3.356 4.511 9.343.547 12.313-1.828 1.368-4.271 1.423-6.444 1.2a25.1 25.1 0 0 1-7.738-2.24 27.941 27.941 0 0 1-3.517-1.914c-3.456-2.219-2.017-2.387-5.718-3.756a46.143 46.143 0 0 1 5.109-4.564z" class="prefix__cls-14" data-name="Path 7562" transform="translate(-167.421 -116.469)"/>
    <path id="prefix__Path_7563" d="M320.064 445.268a53.131 53.131 0 0 1-12.865.407 43.739 43.739 0 0 1-10.658-1.828 23.034 23.034 0 0 1-9.089-5.667 24.581 24.581 0 0 0 3.38 4.213 19.093 19.093 0 0 0 10.288 5.275 49.639 49.639 0 0 0 13.493.6c5.943-.548 12.611-1.948 15.5-7.714-2.348 2.787-6.813 4.181-10.049 4.714z" class="prefix__cls-13" data-name="Path 7563" transform="translate(-158.717 -112.783)"/>
    <path id="prefix__Path_7564" d="M230.329 262.12c7.4 3.187 12.693.121 15.606-6.521-.476.329-7.012.575-8.944 1.112a17.171 17.171 0 0 0-4.746 1.962 42.323 42.323 0 0 0-3.337 2.752c.461.25.934.487 1.421.695z" class="prefix__cls-19" data-name="Path 7564" transform="translate(-163.093 -126.428)"/>
    <path id="prefix__Path_7565" d="M236.96 256.221c4.772-1.584 10.042-.139 11.038-4.082a17.048 17.048 0 0 0-.313-8.874 19.326 19.326 0 0 1-1.821 2.945 19.846 19.846 0 0 1-8.41 6.317 26.983 26.983 0 0 1-17.966.907c2.858 3.051 5.777 6.337 9.4 8.5a8.169 8.169 0 0 1 3.147-3.262 20.751 20.751 0 0 1 4.925-2.451z" data-name="Path 7565" transform="translate(-163.797 -127.35)" style="fill:#5d1913;fill-rule:evenodd"/>
    <g id="prefix__Group_13746" data-name="Group 13746" transform="translate(128.35 3.603)">
        <path id="prefix__Path_7566" d="M302.88 144.035v-.021a.488.488 0 0 0 .024.829 1.577 1.577 0 0 1 .536.382.255.255 0 0 0-.025.014c-.527.386-.017 1.275.516.883a2.876 2.876 0 0 1 .323-.2.545.545 0 0 0 .078-.031 5.827 5.827 0 0 0 .891.427.419.419 0 0 0 .362.364c1.257.214 2.514.447 3.773.666a3.217 3.217 0 0 1 1.386.837 5.118 5.118 0 0 0 .674 1.588.515.515 0 0 0 .767.112 10.33 10.33 0 0 1-.313-1.85 2.063 2.063 0 0 0-.186-.311 4.753 4.753 0 0 1-.06-.506c.038.032.086.062.124.095a2.423 2.423 0 0 0-.3-.79 3.675 3.675 0 0 0-1.9-1.479 11.469 11.469 0 0 0-2.545-.518 14.139 14.139 0 0 0-1.7-.008 5.1 5.1 0 0 0-.878.2l-.077-.185c-.831-.004-1.495-.098-1.47-.498z" class="prefix__cls-22" data-name="Path 7566" transform="translate(-285.931 -138.37)"/>
        <path id="prefix__Path_7567" d="M302.891 143.661V143.632a.087.087 0 0 0 0 .029z" class="prefix__cls-22" data-name="Path 7567" transform="translate(-285.913 -138.399)"/>
        <path id="prefix__Path_7568" d="M287.822 144.722a27.915 27.915 0 0 1 8.432-3.513 8.988 8.988 0 0 1 4.133-.672c1.433.275 2.377 2.153 3.112 3.233a.5.5 0 0 0 .575.205c.03-.372.052-.734.059-1.089-.012-.016-.022-.032-.033-.049.013 0 .021-.014.034-.019a3.314 3.314 0 0 0-1.206-2.92 5.549 5.549 0 0 0-3.6-1.135c-.443.07-.9.162-1.363.274-.242-.019-.485-.026-.727-.029a23.125 23.125 0 0 0-10.147 5.39.464.464 0 0 0 .731.324z" class="prefix__cls-22" data-name="Path 7568" transform="translate(-287.094 -138.763)"/>
        <path id="prefix__Path_7569" d="M313.231 151.833a9.327 9.327 0 0 1 6.89.92.964.964 0 0 0 .925.005 4.852 4.852 0 0 0-1.45-1.182 11.02 11.02 0 0 0-3.254-1.027c-.851-.149-3.144.181-4.2-.308a1.033 1.033 0 0 0 1.089 1.592z" class="prefix__cls-22" data-name="Path 7569" transform="translate(-285.234 -137.905)"/>
        <path id="prefix__Path_7570" d="M321.261 158.506a15 15 0 0 1 8.6 5.927 1.031 1.031 0 0 0 .375.35 10.559 10.559 0 0 0-.868-1.916 10.112 10.112 0 0 0-3.943-3.831c-.49-.263-4.5-2.117-4.618-2.211a1.034 1.034 0 0 0 .454 1.681z" class="prefix__cls-22" data-name="Path 7570" transform="translate(-284.594 -137.413)"/>
    </g>
    <path id="prefix__Path_7571" d="M226.3 276.507c-7.871-2.231-16.374-4.607-22.783-9.9-7.781-6.427-12.261-18.275-16.273-27.248a.8.8 0 0 0-.552-.488c-.253-.416-.458-.874-.713-1.278a1.1 1.1 0 0 0-.175-.233c-.1-.1-.234-.232-.248-.316a1.026 1.026 0 0 0-1.26-.715 1.015 1.015 0 0 0-.181.091 124.334 124.334 0 0 0 6.778 15.316 59.476 59.476 0 0 0 10.312 14.975 35.557 35.557 0 0 0 7.368 5.735 57.589 57.589 0 0 0 8.51 3.471 69.255 69.255 0 0 0 9.928 1.548.936.936 0 0 0-.711-.958z" data-name="Path 7571" transform="translate(-166.44 -127.871)" style="fill:#f7e0cb;fill-rule:evenodd"/>
</svg>
