<svg xmlns="http://www.w3.org/2000/svg" width="193.703" height="42.799" viewBox="0 0 193.703 42.799">
    <defs>
        <clipPath id="prefix__clip-path">
            <path id="prefix__Clip_2" d="M0 0h50.829v42.8H0z" class="prefix__cls-1" data-name="Clip 2"/>
        </clipPath>
        <clipPath id="prefix__clip-path-2">
            <path id="prefix__Clip_5" d="M0 0h135.048v24.8H0z" class="prefix__cls-1" data-name="Clip 5"/>
        </clipPath>
        <style>
            .prefix__cls-1{fill:none}
        </style>
    </defs>
    <g id="prefix__Group_7" data-name="Group 7" transform="translate(0 -.349)">
        <g id="prefix__Group_3" data-name="Group 3" transform="translate(0 .349)">
            <path id="prefix__Clip_2-2" d="M0 0h50.829v42.8H0z" class="prefix__cls-1" data-name="Clip 2"/>
            <g id="prefix__Group_3-2" data-name="Group 3">
                <path id="prefix__Fill_1" d="M15.965 32.528v.616a1.185 1.185 0 0 1-1.185 1.185H8.217v-.005a1.18 1.18 0 0 1-1.18-1.179c0-.743.006-1.477.01-2.21.009-1.812.018-3.624 0-5.437H1.184a1.185 1.185 0 0 1-.838-2.022L22.7 1.118a3.842 3.842 0 0 1 5.446.026l22.327 22.324a1.184 1.184 0 0 1-.83 2.03h-5.857c-.061 4.243-.042 6.987-.02 10.238.012 1.691.024 3.52.027 5.773v.106a1.184 1.184 0 0 1-1.181 1.185H18.929a1.185 1.185 0 0 1-1.185-1.184V26.659a7.635 7.635 0 0 1 .05-.853 7.511 7.511 0 0 1 .494-1.961 7.7 7.7 0 0 1 .514-1.052 7.784 7.784 0 0 1 .549-.811 7.638 7.638 0 0 1 11.408-.807c.024.021.048.042.07.065a7.9 7.9 0 0 1 1.2 1.553 7.677 7.677 0 0 1 .515 1.052 7.6 7.6 0 0 1 .35 1.114 7.8 7.8 0 0 1 .144.846 7.652 7.652 0 0 1-2.2 6.268 7.72 7.72 0 0 1-2.491 1.669 7.607 7.607 0 0 1-2.927.587H23.7a1.185 1.185 0 0 1-1.185-1.185v-.616a1.185 1.185 0 0 1 1.185-1.185h1.72a4.657 4.657 0 0 0 1.788-.354 4.744 4.744 0 0 0 2.542-2.542 4.659 4.659 0 0 0 .355-1.788 4.724 4.724 0 0 0-.056-.745 4.85 4.85 0 0 0-.637-1.707 4.689 4.689 0 0 0-.627-.8l-.081-.077a4.719 4.719 0 0 0-1.513-1 4.712 4.712 0 0 0-3.546 0 4.707 4.707 0 0 0-1.515 1l-.023.022a4.734 4.734 0 0 0-1.114 1.762l-.024.085a4.367 4.367 0 0 0-.236 1.465v13.209h20.138V23.756a1.184 1.184 0 0 1 1.184-1.184h3.384L26.645 3.777a1.707 1.707 0 0 0-2.368-.094L6.034 21.927l-.645.645h3.385a1.185 1.185 0 0 1 1.185 1.184v7.588h4.821a1.185 1.185 0 0 1 1.185 1.185" data-name="Fill 1" style="fill:#41b680"/>
            </g>
        </g>
        <g id="prefix__Group_6" data-name="Group 6" transform="translate(58.655 18.351)">
            <path id="prefix__Clip_5-2" d="M0 0h135.048v24.8H0z" class="prefix__cls-1" data-name="Clip 5"/>
            <g id="prefix__Group_6-2" data-name="Group 6">
                <path id="prefix__Fill_4" d="M102.712 24.8a13.349 13.349 0 0 1-6.231-1.472l1.367-3a9.23 9.23 0 0 0 4.758 1.287 4.226 4.226 0 0 0 3.036-.973 3.838 3.838 0 0 0 .986-2.866v-.683a5.478 5.478 0 0 1-4.6 2.288 6.2 6.2 0 0 1-4.361-1.719 6.574 6.574 0 0 1-1.9-4.854v-.052a6.556 6.556 0 0 1 1.916-4.863 6.211 6.211 0 0 1 4.342-1.709 5.719 5.719 0 0 1 4.548 2.1V6.447h4v10.91c0 2.635-.644 4.5-1.968 5.711-1.275 1.163-3.205 1.732-5.893 1.732zm.473-15.3a3.232 3.232 0 0 0-3.417 3.26v.052a3.435 3.435 0 0 0 6.861 0v-.052a3.245 3.245 0 0 0-3.443-3.26zm-54 15.248h-4V6.447h4v2.024a5.183 5.183 0 0 1 4.39-2.287 6.126 6.126 0 0 1 4.44 1.876 7.574 7.574 0 0 1 1.975 5.405v.053a7.6 7.6 0 0 1-1.955 5.406 6.128 6.128 0 0 1-4.458 1.876 5.386 5.386 0 0 1-4.39-2.1v6.046zm3.367-15.173a3.6 3.6 0 0 0-3.417 3.891v.053a3.6 3.6 0 0 0 3.417 3.891c2 0 3.444-1.636 3.444-3.891v-.053a3.606 3.606 0 0 0-3.444-3.891zm33.309 11.278a7.73 7.73 0 0 1-5.435-2.123 7.123 7.123 0 0 1-2.163-5.159v-.052a7.175 7.175 0 0 1 2.179-5.186 8.029 8.029 0 0 1 10.907-.027 7.124 7.124 0 0 1 2.162 5.159v.053a7.175 7.175 0 0 1-2.179 5.182 7.771 7.771 0 0 1-5.471 2.153zm0-11.226a3.587 3.587 0 0 0-3.654 3.838v.053a3.761 3.761 0 0 0 3.707 3.891 3.587 3.587 0 0 0 3.654-3.838v-.052a3.762 3.762 0 0 0-3.707-3.891zM34.649 20.853a7.729 7.729 0 0 1-5.435-2.123 7.124 7.124 0 0 1-2.162-5.159v-.052a7.175 7.175 0 0 1 2.179-5.186 8.029 8.029 0 0 1 10.907-.027 7.124 7.124 0 0 1 2.162 5.16v.053a7.174 7.174 0 0 1-2.179 5.181 7.772 7.772 0 0 1-5.472 2.153zm0-11.226A3.587 3.587 0 0 0 31 13.466v.053a3.762 3.762 0 0 0 3.7 3.891 3.587 3.587 0 0 0 3.654-3.838v-.052a3.762 3.762 0 0 0-3.705-3.892zm90.435 10.911H120.9l4.943-7.151-4.759-6.941h4.285l2.629 4.1 2.656-4.1h4.18l-4.759 6.862 4.968 7.228h-4.285l-2.839-4.39-2.839 4.39zm-6.756 0h-4V6.447h4v14.091zm-41.747 0H63.357V2.136h4.049v14.722h9.175v3.68zm-55.444 0h-4V6.447h4v2.839c.888-2.121 2.231-3.108 4.224-3.108.089 0 .18 0 .272.006v4.18h-.21c-2.763 0-4.285 1.765-4.285 4.969v5.2zm-17.088 0H0V2.136h7.519c4.28 0 7.046 2.5 7.046 6.362v.052a5.966 5.966 0 0 1-2.172 4.83 8.275 8.275 0 0 1-5.268 1.637H4.048v5.52zm0-14.748v5.626h3.207c1.918 0 3.207-1.12 3.207-2.787v-.052c0-1.771-1.2-2.786-3.287-2.786zM116.33 4.764a2.382 2.382 0 1 1 2.382-2.381 2.384 2.384 0 0 1-2.383 2.381z" data-name="Fill 4" style="fill:#1e2a34"/>
            </g>
        </g>
    </g>
</svg>
