<svg xmlns="http://www.w3.org/2000/svg" id="prefix__Group_13745" width="74.344" height="70.013" data-name="Group 13745" viewBox="0 0 74.344 70.013">
    <defs>
        <style>
            .prefix__cls-1{fill:#220501;fill-rule:evenodd}
        </style>
    </defs>
    <path id="prefix__Path_7501" d="M44.288 209.118c.2-.909.412-1.814.661-2.708.355-.79.719-1.572 1.1-2.341q-.061.264-.116.531.221-.455.437-.894a31.505 31.505 0 0 1 7.8-10.148 49.437 49.437 0 0 1 6.341-4.567l-.105.039c.009-.005.014-.014.021-.019.461-.249.917-.513 1.382-.753.118-.045.235-.089.355-.132a.923.923 0 0 0 .509-.43c.717-.261 1.437-.512 2.156-.76a22.1 22.1 0 0 0 2.6-.881c.2-.014.409-.027.606-.055.885-.127 1.766-.281 2.655-.364q.332-.034.664-.063c.06 0 .117 0 .177.008.43.028.859.063 1.288.1a.868.868 0 0 0 1.011.088 68.3 68.3 0 0 1 25.37 7.267.529.529 0 0 1 .592-.1.57.57 0 0 1 .33.3.987.987 0 0 1 .119.042c1.025.492 2.261.637 2.911 1.639 3.727 1.533 6.316 5.071 8.037 8.661 2.453 5.115 1.715 9.922-.511 14.948-1.144 2.582-3.408 5.551-1.608 8.265 1.366 2.058 3.349 3.686 4.761 5.751 3 4.394 5.232 9.382 2.966 14.568-2.2 5.037-7.851 7.034-12.812 7.954-6.21 1.156-12.724.185-18.812-1.188-12.215-2.755-22.955-9.044-32.122-17.5a46.774 46.774 0 0 1-2.664-4.158.293.293 0 0 1-.206-.134c-.4-.629-.776-1.27-1.135-1.915-1.894-2.65-2.936-5.971-4.009-9.024 0 .018 0 .035.005.054-.013-.048-.024-.1-.037-.144l-.293-.822a14.918 14.918 0 0 1-.785-3.575c-.186-.786-.372-1.57-.546-2.361.219-1.723.519-3.449.907-5.179z" class="prefix__cls-1" data-name="Path 7501" transform="translate(-43.384 -185.571)"/>
    <path id="prefix__Path_7502" d="M45.831 211.528a28.526 28.526 0 0 0 .259 7.057 46.115 46.115 0 0 0 4.1 12.427c1.331 1.442 2.744 2.779 4.052 3.993A77.928 77.928 0 0 0 70.28 246.46a60.127 60.127 0 0 0 19.62 6.171c6.458.981 14.016 1.072 19.913-2.146a10.276 10.276 0 0 0 4.058-3.925 14.142 14.142 0 0 1-7.371 3.615c-6.49 1.254-13.356.471-19.77-.847a.294.294 0 0 1 .119-.575 54.448 54.448 0 0 0 16.877.657 17.85 17.85 0 0 0 8.389-2.761 7.15 7.15 0 0 0 2.851-5.6 19.964 19.964 0 0 0-2.8-6.069 46.024 46.024 0 0 0-4.593-5.871 6.758 6.758 0 0 1-1.955-4.919c.175-2.618 2.2-5.166 3.325-7.455a13.789 13.789 0 0 0 1.484-9.091c-1.031-5.137-4.689-10.157-9.579-12.162a.518.518 0 0 1-.321-.369 3.761 3.761 0 0 1-.523-.149 2.377 2.377 0 0 1-.707-.35.653.653 0 0 1-.48-.082 52.487 52.487 0 0 0-20.843-6.838 62.354 62.354 0 0 0-9.511-.384 28.632 28.632 0 0 0-3.144 1.141 37.266 37.266 0 0 0-10.737 7.023c-.3.283-.589.574-.874.867a.611.611 0 0 1-.03.262c-.051.136-.111.268-.174.4a.442.442 0 0 1-.1.335c-.635.788-1.145 1.727-1.754 2.556l-.025.04a.3.3 0 0 1-.034.2 8.729 8.729 0 0 1-.681 1.108.671.671 0 0 1-.562.848l.131-.017a6.416 6.416 0 0 1-.406.546 8.087 8.087 0 0 0-1.366 2.514 15.739 15.739 0 0 0-.515 5.331 48.907 48.907 0 0 0 1.888 10.786c2.132 8.235 9.465 13.643 15.889 18.515.186.14-.035.464-.231.336a84.309 84.309 0 0 1-11.241-8.93c-3.218-2.989-4.91-6.892-6.241-10.969a33.492 33.492 0 0 1-1.756-12.128c-.236 1.156-.546 2.313-.669 3.454z" data-name="Path 7502" transform="translate(-43.122 -185.446)" style="fill:#fbb403;fill-rule:evenodd"/>
    <path id="prefix__Path_7503" d="M45.831 211.527a28.526 28.526 0 0 0 .259 7.057 46.115 46.115 0 0 0 4.1 12.427c1.331 1.442 2.744 2.779 4.052 3.993a77.928 77.928 0 0 0 16.038 11.454 60.127 60.127 0 0 0 19.62 6.171c6.458.981 14.016 1.072 19.913-2.146a10.276 10.276 0 0 0 4.058-3.925 14.142 14.142 0 0 1-7.371 3.615c-6.49 1.254-13.356.471-19.77-.847a.294.294 0 0 1 .119-.575 54.448 54.448 0 0 0 16.877.657 17.85 17.85 0 0 0 8.389-2.761 7.15 7.15 0 0 0 2.851-5.6 13.954 13.954 0 0 0-1.43-3.712c-2.917 6.16-8.654 10.18-19.168 8.855-33.772-4.255-43.271-22-40.728-39.152 1.717-11.588 10.21-17.284 15.536-19.76-.239.008-.478.017-.717.03a28.632 28.632 0 0 0-3.144 1.141 37.266 37.266 0 0 0-10.737 7.023c-.3.283-.589.574-.874.867a.611.611 0 0 1-.03.262c-.051.136-.111.268-.174.4a.442.442 0 0 1-.1.335c-.635.788-1.145 1.727-1.754 2.556l-.025.04a.3.3 0 0 1-.034.2 8.729 8.729 0 0 1-.681 1.108.671.671 0 0 1-.562.848l.131-.017a6.416 6.416 0 0 1-.406.546 8.087 8.087 0 0 0-1.366 2.514 15.739 15.739 0 0 0-.515 5.331 48.907 48.907 0 0 0 1.888 10.786c2.132 8.235 9.465 13.643 15.889 18.515.186.14-.035.464-.231.336a84.309 84.309 0 0 1-11.241-8.93c-3.218-2.989-4.91-6.892-6.241-10.969a33.492 33.492 0 0 1-1.752-12.128c-.236 1.156-.546 2.313-.669 3.455z" data-name="Path 7503" transform="translate(-43.122 -185.444)" style="fill:#ec7e00;fill-rule:evenodd"/>
    <path id="prefix__Path_7504" d="M62.164 236.931a15.656 15.656 0 0 0 9.285-.226c3.427-1.2 3.182-3.953.868-6.187-1.35-1.3-3.711-1.458-5.348-2.4a.4.4 0 0 1-.127-.112.944.944 0 0 1-.378.016c-3.124-.5-7.519-1.127-9.522 1.808-2.403 3.519 2.286 6.288 5.222 7.101z" data-name="Path 7504" transform="translate(-13.558 -182.43)" style="fill:#e61f11;fill-rule:evenodd"/>
    <path id="prefix__Path_7505" d="M61.728 201.838c-.044 2.865 2.389 5.964 4.161 8.006a7.258 7.258 0 0 0 6.269 2.792c1.15.015 3.87-.132 3.276-1.952-.183-.562-.56-.933-.511-1.564.146-1.9 3.513-2.464 4.854-2.868 1.457-.44 4.341-.9 3.866-3.048a6.826 6.826 0 0 0-2.471-3.653.629.629 0 0 1-.555-.046c-4.042-2.416-9.275-2.722-13.8-1.7-1.985.45-5.052 1.584-5.089 4.033z" data-name="Path 7505" transform="translate(-29.066 -184.698)" style="fill:#77305f;fill-rule:evenodd"/>
    <path id="prefix__Path_7506" d="M84.87 210.3c1.223 1.372 3.956 1.056 5.607 1.223 3.7.375 6.956 4.568 10.757 3.647 2.106-.511.9-3.647.082-4.531a10.237 10.237 0 0 0-2.341-1.666 10.578 10.578 0 0 1-2.505-1.941.848.848 0 0 1-.08-.1.113.113 0 0 1-.155-.035 4.677 4.677 0 0 0-.819-.721 1.454 1.454 0 0 1-.407-.416c-2.712-1.18-5.422-1.822-8.533-.762-2.507.851-3.54 3.127-1.606 5.302z" data-name="Path 7506" transform="translate(-71.572 -184.159)" style="fill:#00ae8a;fill-rule:evenodd"/>
    <path id="prefix__Path_7507" d="M85.172 228.213a12.442 12.442 0 0 0 8.271 3.12c2.952-.045 4.273-2.211 4.809-4.807.436-2.1.25-5.534-2.655-5.135a.7.7 0 0 1-.361-.038 1.419 1.419 0 0 1-.622.347 2.052 2.052 0 0 1-.739.133 8.543 8.543 0 0 1-3.578.61c-1.55.005-7.105-1.169-8.007.535-.764 1.451 2.029 4.456 2.882 5.235z" data-name="Path 7507" transform="translate(-65.76 -182.897)" style="fill:#5d1913;fill-rule:evenodd"/>
    <g id="prefix__Group_13744" data-name="Group 13744">
        <path id="prefix__Path_7508" d="M44.288 209.118c.2-.909.412-1.814.661-2.708.355-.79.719-1.572 1.1-2.341-.041.176-.08.353-.116.531q.221-.455.437-.894a31.505 31.505 0 0 1 7.8-10.148 49.437 49.437 0 0 1 6.341-4.567l-.105.039c.009-.005.014-.014.021-.019.461-.249.917-.513 1.382-.753.118-.045.235-.089.355-.132a.92.92 0 0 0 .509-.431c.717-.26 1.437-.511 2.156-.759a22.188 22.188 0 0 0 2.6-.881c.2-.014.408-.027.605-.055.885-.127 1.766-.281 2.655-.364q.332-.034.664-.063l.177.008c.43.028.859.063 1.288.1a.87.87 0 0 0 1.012.088 68.284 68.284 0 0 1 25.37 7.267.529.529 0 0 1 .592-.1.57.57 0 0 1 .33.3.987.987 0 0 1 .119.042c1.025.492 2.261.637 2.911 1.641 3.728 1.53 6.316 5.068 8.037 8.659 2.453 5.115 1.715 9.922-.511 14.948-1.144 2.582-3.408 5.551-1.608 8.265 1.366 2.058 3.349 3.686 4.761 5.751 3 4.394 5.232 9.382 2.966 14.568-2.2 5.037-7.851 7.034-12.812 7.954-6.21 1.156-12.724.185-18.812-1.188-12.215-2.755-22.955-9.044-32.122-17.5a46.774 46.774 0 0 1-2.664-4.158.293.293 0 0 1-.206-.134c-.4-.629-.776-1.27-1.135-1.915-1.894-2.65-2.936-5.971-4.009-9.024 0 .018 0 .035.005.054-.013-.048-.024-.1-.037-.144l-.293-.822a14.918 14.918 0 0 1-.785-3.575c-.186-.786-.372-1.57-.546-2.361.212-1.729.518-3.454.9-5.186zm1.8 2.536a28.526 28.526 0 0 0 .259 7.057 46.115 46.115 0 0 0 4.1 12.427c1.331 1.442 2.744 2.779 4.052 3.993a77.928 77.928 0 0 0 16.035 11.455 60.135 60.135 0 0 0 19.618 6.171c6.458.981 14.016 1.072 19.913-2.146a10.276 10.276 0 0 0 4.058-3.925 14.142 14.142 0 0 1-7.371 3.615c-6.49 1.254-13.356.471-19.77-.847a.294.294 0 0 1 .119-.575 54.448 54.448 0 0 0 16.877.657 17.85 17.85 0 0 0 8.389-2.761 7.15 7.15 0 0 0 2.851-5.6 19.964 19.964 0 0 0-2.8-6.069 46.023 46.023 0 0 0-4.593-5.871 6.758 6.758 0 0 1-1.955-4.919c.175-2.618 2.2-5.166 3.325-7.455a13.787 13.787 0 0 0 1.484-9.09c-1.031-5.138-4.689-10.158-9.579-12.163a.518.518 0 0 1-.321-.369 3.762 3.762 0 0 1-.523-.149 2.389 2.389 0 0 1-.707-.35.653.653 0 0 1-.48-.082 52.487 52.487 0 0 0-20.843-6.838 62.356 62.356 0 0 0-9.511-.384 28.633 28.633 0 0 0-3.144 1.141A37.266 37.266 0 0 0 54.84 195.6c-.3.283-.589.574-.874.867a.611.611 0 0 1-.03.262c-.051.137-.111.27-.174.4a.442.442 0 0 1-.1.335c-.635.788-1.145 1.727-1.754 2.556l-.025.04a.3.3 0 0 1-.034.2 8.729 8.729 0 0 1-.681 1.108.671.671 0 0 1-.562.848l.131-.017a6.416 6.416 0 0 1-.406.546 8.087 8.087 0 0 0-1.366 2.514 15.739 15.739 0 0 0-.515 5.331 48.907 48.907 0 0 0 1.888 10.786c2.133 8.235 9.466 13.643 15.889 18.515.186.14-.035.464-.231.336a84.309 84.309 0 0 1-11.241-8.93c-3.218-2.989-4.91-6.892-6.241-10.969a33.492 33.492 0 0 1-1.756-12.128c-.232 1.155-.542 2.313-.665 3.454z" class="prefix__cls-1" data-name="Path 7508" transform="translate(-43.384 -185.571)"/>
        <path id="prefix__Path_7509" d="M72.612 244.433a.2.2 0 0 1-.08.383.2.2 0 0 1 .08-.383z" class="prefix__cls-1" data-name="Path 7509" transform="translate(-29.585 -181.172)"/>
        <path id="prefix__Path_7510" d="M55.589 229.777c1.916-3.686 7.57-4.214 11.337-2.893a.719.719 0 0 1 .385.289c1.464.076 2.989 1.165 4.138 1.846a.241.241 0 0 1 .048.044A5.084 5.084 0 0 1 74.219 231c1.15 1.6 1.716 3.622.287 5.223-3.078 3.441-8.826 3.28-13.094 2.1-3.647-1.011-7.889-4.567-5.823-8.546zm6.782 6.939a14.512 14.512 0 0 0 8.605-.21c3.178-1.117 2.952-3.666.806-5.737-1.251-1.208-3.439-1.352-4.958-2.227a.368.368 0 0 1-.117-.1.9.9 0 0 1-.349.015c-2.9-.464-6.971-1.046-8.829 1.676-2.229 3.262 2.12 5.828 4.842 6.582z" class="prefix__cls-1" data-name="Path 7510" transform="translate(-13.545 -182.532)"/>
        <path id="prefix__Path_7511" d="M64.153 197.783a18.663 18.663 0 0 1 9.421-1.37c2.209.187 5.281.5 6.964 2.192 2.277 1.211 4.678 3.975 3.733 6.3a4.472 4.472 0 0 1-2.862 2.289c-.943.369-1.937.615-2.9.916-.716.224-2.465.454-2.014 1.309 1.162 2.2-.66 3.8-2.684 4.191a8.683 8.683 0 0 1-7.934-2.065c-3.636-3.442-8.075-10.755-1.724-13.759zm-1.674 4.352c-.041 2.656 2.214 5.528 3.857 7.421a6.729 6.729 0 0 0 5.811 2.59c1.066.013 3.589-.124 3.037-1.81-.17-.521-.518-.865-.474-1.45.136-1.76 3.259-2.285 4.5-2.659 1.351-.411 4.024-.832 3.583-2.827a6.338 6.338 0 0 0-2.29-3.387.585.585 0 0 1-.515-.043c-3.745-2.24-8.6-2.525-12.8-1.575-1.832.417-4.676 1.469-4.71 3.739z" class="prefix__cls-1" data-name="Path 7511" transform="translate(-29.014 -184.767)"/>
        <path id="prefix__Path_7512" d="M66.14 199.516a8.724 8.724 0 0 1 6.135 1.954c.214.178-.041.561-.281.406a10.127 10.127 0 0 0-3-1.192 10.552 10.552 0 0 1-2.93-.828.182.182 0 0 1 .076-.34z" class="prefix__cls-1" data-name="Path 7512" transform="translate(-22.29 -184.533)"/>
        <path id="prefix__Path_7513" d="M84.652 205.186c3.727-3.2 8.476-1.285 12.16.947a.665.665 0 0 1 .469.175c.21.183.436.363.674.545l.315.208a.316.316 0 0 1 .1.1c2.686 1.972 6.3 4.045 4.285 7.915-.873 1.673-3.218 1.393-4.686.979-3.222-.906-5.48-3.128-8.982-3.331-2.065-.119-4.314-.512-5.267-2.618a3.878 3.878 0 0 1 .937-4.922zm.969 5.156c1.134 1.274 3.668.979 5.2 1.134 3.432.348 6.447 4.236 9.97 3.38 1.955-.473.834-3.379.076-4.2a9.445 9.445 0 0 0-2.17-1.544 9.872 9.872 0 0 1-2.321-1.8.623.623 0 0 1-.073-.095.109.109 0 0 1-.145-.032 4.414 4.414 0 0 0-.757-.671 1.3 1.3 0 0 1-.379-.384c-2.514-1.094-5.028-1.689-7.911-.707-2.324.791-3.282 2.902-1.489 4.919z" class="prefix__cls-1" data-name="Path 7513" transform="translate(-71.72 -184.232)"/>
        <path id="prefix__Path_7514" d="M83.766 221.394a21.814 21.814 0 0 1 4.6.284 10.853 10.853 0 0 0 3.346-.293c.794-.2 1.511-.627 2.284-.9a5.592 5.592 0 0 0 1-.169.794.794 0 0 0 .267-.132 2.047 2.047 0 0 1 1.855.487c2.809 1.333 2.12 6.772.771 9.207-2.908 5.248-11.049 1.759-14.124-1.384-1.944-1.987-4.044-6.412 0-7.1zm1.651 6.771a11.535 11.535 0 0 0 7.667 2.893c2.737-.043 3.96-2.05 4.46-4.457.4-1.951.231-5.13-2.462-4.76a.645.645 0 0 1-.334-.034 1.33 1.33 0 0 1-.577.321 1.845 1.845 0 0 1-.686.123 7.937 7.937 0 0 1-3.319.567c-1.435.005-6.586-1.084-7.42.5-.711 1.339 1.878 4.127 2.67 4.847z" class="prefix__cls-1" data-name="Path 7514" transform="translate(-65.631 -182.986)"/>
        <path id="prefix__Path_7515" d="M48.337 243.146c2.05-.746 3.371-1.479 4.3-3.59a7.464 7.464 0 0 0-.249-5.906c-.076-.2.169-.306.308-.2 3.472 2.528.09 11.241-4.331 10.131a.226.226 0 0 1-.028-.435z" class="prefix__cls-1" data-name="Path 7515" transform="translate(15.052 -181.996)"/>
        <path id="prefix__Path_7516" d="M83.371 196.671a17.808 17.808 0 0 1 7.543-5.968c2.9-1.337 6.668-2.788 9.9-1.895.307.084.307.585-.043.586-6.111.04-12.947 2.705-16.6 7.827-.326.447-1.1-.089-.8-.55z" class="prefix__cls-1" data-name="Path 7516" transform="translate(-69.597 -185.35)"/>
        <path id="prefix__Path_7517" d="M44.945 196.328c1.6.667 2.844 2.616 3.683 4.06a9.9 9.9 0 0 1 1.391 5.692c-.015.2-.325.234-.323.02a9.473 9.473 0 0 0-1.81-5.225c-.988-1.509-2.479-2.483-3.537-3.882-.304-.4.206-.827.596-.665z" class="prefix__cls-1" data-name="Path 7517" transform="translate(23.365 -184.77)"/>
        <path id="prefix__Path_7518" d="M51.924 193.975a1.957 1.957 0 0 1 .861.486 4.342 4.342 0 0 1 .758.7c.283.349-.192.762-.541.6-.543-.247-1.38-.6-1.622-1.177-.152-.359.22-.643.544-.609z" class="prefix__cls-1" data-name="Path 7518" transform="translate(12.16 -184.943)"/>
        <path id="prefix__Path_7519" d="M89.913 232.66a61.044 61.044 0 0 0 7.324 8.178c2.82 2.462 6.678 3.2 9.648 5.429.3.224-.045.648-.355.513-3.361-1.491-7.106-2.836-9.983-5.174a47.643 47.643 0 0 1-7.539-8.352c-.426-.562.475-1.133.905-.594z" class="prefix__cls-1" data-name="Path 7519" transform="translate(-81.57 -182.068)"/>
        <path id="prefix__Path_7520" d="M108 228.391a1.838 1.838 0 0 1 .829.986 2.868 2.868 0 0 1 .154 1.283c-.039.506-.8.484-.937.056-.1-.3-.173-.6-.285-.894s-.343-.552-.43-.855a.481.481 0 0 1 .669-.576z" class="prefix__cls-1" data-name="Path 7520" transform="translate(-103.352 -182.374)"/>
        <path id="prefix__Path_7521" d="M73.908 240.777c1.622.609 3.176 1.41 4.8 2.032.927.354 1.872.661 2.814.97a18.177 18.177 0 0 1 2.492.768.059.059 0 0 1-.024.112 13.672 13.672 0 0 1-4.661-1.178 34.659 34.659 0 0 1-5.579-2.392.176.176 0 0 1 .158-.312z" class="prefix__cls-1" data-name="Path 7521" transform="translate(-42.231 -181.446)"/>
    </g>
</svg>
