<svg xmlns="http://www.w3.org/2000/svg" width="93.635" height="116.803" viewBox="0 0 93.635 116.803">
    <defs>
        <style>
            .prefix__cls-1{fill:#74b570}.prefix__cls-2{fill:#01c089}.prefix__cls-5{fill:#fff}
        </style>
    </defs>
    <g id="prefix__Group_13693" data-name="Group 13693">
        <path id="prefix__Path_7316" d="M3010.436 1323.431c-6.335 5.785-3.581 11.569 1.1 22.312s5.509 50.409 5.509 50.409l-3.857-.551s.551-40.768-4.683-51.786-7.437-16.527-12.12-12.947 14.051-7.437 14.051-7.437z" class="prefix__cls-1" data-name="Path 7316" transform="translate(-2961.057 -1298.065)"/>
        <path id="prefix__Path_7317" d="M3062.2 1216.609c-.77-3.428-5.338-7.137-11.449-10.284.909 5.056 3.821 13.323.807 15.019-4.065 2.287-.4-9.255-1.965-15.6a75.5 75.5 0 0 0-19-6.231c.009.024.016.046.026.07 3.581 9.09 8.263 12.671 6.335 14.049-1.45 1.036-6.176-9.464-12.415-14.847-4.683-.25-8.645.385-10.989 2.241-3.623 2.868-6.054 5.412-2.411 14.146a16.372 16.372 0 0 0 7.91 2.867c8.264.826 12.121 1.1 6.336 3.856-2.833 1.349-7.581-.076-11.43-.944 1.249 2.3 2.784 4.906 4.65 7.872a29.22 29.22 0 0 0 3.871 4.927c2.664.51 4.986.516 6.215-.011 3.856-1.653 13.772-6.886 16.251-4.683 2.427 2.157-18.365 3.523-16.924 9 10.078 5.806 21.61 3.044 23.648-2.288 2.747-7.155 12.855-8.84 10.534-19.159z" class="prefix__cls-2" data-name="Path 7317" transform="translate(-3009.346 -1198.733)"/>
        <path id="prefix__Path_7318" d="M2960.172 1465.351c11.018-8.264 22.312-.551 28.1 8.263s1.653 28.648 1.653 28.648-2.2 0-2.2-.826 6.06-23.414-8.263-33.606c-8.961-6.376-15.426-3.305-16.252-.276s3.581 8.539 3.581 8.539z" class="prefix__cls-1" data-name="Path 7318" transform="translate(-2928.147 -1408.307)"/>
        <path id="prefix__Path_7319" d="M2999.06 1395.649c-11.018 0-14.6 17.078-11.569 26.995s7.162 28.372 7.162 28.372l2.754-2.755s-10.468-25.893-7.989-37.462 8.539-13.5 9.641-13.5.001-1.65.001-1.65z" data-name="Path 7319" transform="translate(-2941.693 -1355.593)" style="fill:#9cd499"/>
        <path id="prefix__Path_7320" d="M3023.6 1519.188a7.982 7.982 0 0 0-2.9-2.437 21.712 21.712 0 0 0 .572 2.36c1.381 4.518 2.99 10.808 4.333 16.319l.6-3.47c.069-.4.122-.826.16-1.282a106.9 106.9 0 0 1-2.765-11.49z" class="prefix__cls-1" data-name="Path 7320" transform="translate(-2975.478 -1452.06)"/>
        <path id="prefix__Path_7321" d="M3061.477 1468.321c-20.935-8.815-9.905-20.911-28.361-12.922a13.7 13.7 0 0 0-4.471 3.938 13.74 13.74 0 0 0 5.848.469c5.509-.826 3.581 3.581-5.509 4.683a20.4 20.4 0 0 0-4.26.9c-4.33 8.317-6.282 19.262 2.882 23.066a20.747 20.747 0 0 0 6.522 1.339c2.828-2.247-.69-15.254 3.669-13.459 4.186 1.724-1.312 11.15-.558 13.525a60.386 60.386 0 0 0 13.077-1.833 6.509 6.509 0 0 0 3.458-3.979c1.377-5.784-7.713-9.365-7.988-14.324-.253-4.558 3.332 10.028 12.83 12.175 8.584-4.014 12.646-9.458 2.861-13.578z" class="prefix__cls-2" data-name="Path 7321" transform="translate(-3016.364 -1401.11)"/>
        <path id="prefix__Path_7322" d="M2819.808 1374.325c-2.2-4.683 3.581-5.785 3.305-2.2-.244 3.173-.271 10.886 2.983 12.986a51.067 51.067 0 0 0 19.021-6.317 2.345 2.345 0 0 0-.243-1.436c-2.479-4.958-18.456-9.09-13.5-10.743 3.949-1.316 10.868 6.453 16.444 10.366 3.349-2.541 5.593-5.569 5.593-8.951 0-4.576-5.561-9.756-12.751-12.232-3.236.326-6.242 2.1-10.938 4.757-6.937 3.931-5.333-2.425 1.226-6.2a19.755 19.755 0 0 0-15.47 8.491s.394 2.47-2.22 6.291c-7.132 10.424 1.1 16.51 10.938 16.115-.554-2.747-2.865-7.691-4.388-10.927z" class="prefix__cls-2" data-name="Path 7322" transform="translate(-2759.779 -1322.699)"/>
        <path id="prefix__Path_7323" d="M3122.788 1476.585c-5.387 4.163-11.371 9.03-18.716 12.335s-5.877 14.08-5.877 14.08-1.1-9.3 5.02-12.488 10.161-6.979 14.814-7.713a67.432 67.432 0 0 0 7.224-1.469s-1.469-2.939-.613-4.041-1.852-.704-1.852-.704z" class="prefix__cls-1" data-name="Path 7323" transform="translate(-3090.101 -1420.009)"/>
        <path id="prefix__Path_7324" d="M3046.315 1236.565c19.712 5.264 34.159 17.875 36.852 20.935s2.693 3.918 2.693 3.918l-2.081 3.918-.979-.49s1.592-3.306-2.571-7.591c-7.179-7.39-15.916-13.223-21.915-15.794s-11.999-4.896-11.999-4.896z" class="prefix__cls-1" data-name="Path 7324" transform="translate(-3040.18 -1228.869)"/>
        <path id="prefix__Rectangle_1116" d="M0 0h26.923v13.537A13.462 13.462 0 0 1 13.462 27 13.462 13.462 0 0 1 0 13.537V0z" data-name="Rectangle 1116" transform="translate(43.318 89.804)" style="fill:#75a1de"/>
        <path id="prefix__Rectangle_1117" d="M0 0H26.923V1.895H0z" class="prefix__cls-5" data-name="Rectangle 1117" transform="translate(43.318 92.897)"/>
        <path id="prefix__Rectangle_1118" d="M0 0H26.923V1.115H0z" class="prefix__cls-5" data-name="Rectangle 1118" transform="translate(43.318 96.353)"/>
    </g>
</svg>
