<svg xmlns="http://www.w3.org/2000/svg" width="188.918" height="43.684" viewBox="0 0 188.918 43.684">
    <defs>
        <style>
            .prefix__cls-3{fill:#0c131e}.prefix__cls-5{fill:#141414}
        </style>
    </defs>
    <g id="prefix__Group_13523" data-name="Group 13523" transform="translate(-21238 -6443.755)">
        <g id="prefix__Group_13521" data-name="Group 13521" transform="translate(21238 6448.221)">
            <path id="prefix__Path_7076" d="M1.322 20.932a19.609 19.609 0 1 1 19.609 19.609A19.609 19.609 0 0 1 1.322 20.932" data-name="Path 7076" transform="translate(-1.322 -1.323)" style="fill:#eb422c"/>
            <path id="prefix__Path_7077" d="M74.858 64a8.527 8.527 0 0 0-.063-5.8 8.666 8.666 0 0 0-1.466-2.521 10.242 10.242 0 0 1-1.649-4.289 1.876 1.876 0 0 0-2.669-.93 10.242 10.242 0 0 1-3.957 2.337 8.672 8.672 0 0 0-2.715 1.065 8.528 8.528 0 0 0-3.652 4.5l-.028.089c-.01.03-.023.058-.033.087a8.525 8.525 0 0 0 .063 5.8 8.667 8.667 0 0 0 1.466 2.521 10.239 10.239 0 0 1 1.645 4.287 1.886 1.886 0 0 0 .616.8 1.88 1.88 0 0 0 1.072.373 1.887 1.887 0 0 0 .981-.245 10.241 10.241 0 0 1 3.957-2.337 8.578 8.578 0 0 0 6.367-5.57l.028-.089c.01-.03.022-.058.033-.087" data-name="Path 7077" transform="translate(-47.128 -40.734)" style="fill:#ffc000"/>
            <path id="prefix__Path_7078" d="M121.534 69.34a.331.331 0 1 1 .189.428.331.331 0 0 1-.189-.428" class="prefix__cls-3" data-name="Path 7078" transform="translate(-98.218 -55.988)"/>
            <path id="prefix__Path_7079" d="M127.432 76.9a.331.331 0 1 1 .189.428.331.331 0 0 1-.189-.428" class="prefix__cls-3" data-name="Path 7079" transform="translate(-102.973 -62.081)"/>
            <path id="prefix__Path_7080" d="M121.534 78.606a.331.331 0 1 1 .189.428.331.331 0 0 1-.189-.428" class="prefix__cls-3" data-name="Path 7080" transform="translate(-98.218 -63.458)"/>
            <path id="prefix__Path_7081" d="M80.752 42.849l-.9-.705a6.878 6.878 0 0 0-9.652 1.192l.9.705a6.877 6.877 0 0 0 9.653-1.192" data-name="Path 7081" transform="translate(-56.847 -33.059)" style="fill:#15796e"/>
        </g>
        <g id="prefix__Group_13522" data-name="Group 13522" transform="translate(21289.145 6443.755)">
            <path id="prefix__Path_7082" d="M609.652 56.6a22.835 22.835 0 0 1-6.134 5.8c-1.866 1.059-3.99 2.21-6.185 1.4a4.259 4.259 0 0 1-1-.542 14.157 14.157 0 0 0 3.263-2.567c2.174-2.183 4.353-5.612 1.775-8.106-1.618-3.259-6.022-2.324-7.951.168a8.144 8.144 0 0 0-.847 8.416 6.891 6.891 0 0 0 .506.938 14.627 14.627 0 0 1-7.747 1.3c-.41-.363-.776-.653-1.112-.945a36.019 36.019 0 0 0 3.012-2.33c1.852-1.642 4.02-4.068 3.291-6.745-.648-2.382-4.838-3.916-6.914-2.97-2.5 1.139-4 4.6-4.05 7.192a7.086 7.086 0 0 0 1.332 4 5.753 5.753 0 0 1-2.991 1.57c-.825.028-.914-.174-1.46-.8a4.13 4.13 0 0 1-1.169-3.143 10.238 10.238 0 0 1 2.876-5.661c.754-.814-1.532-1.816-2.058-1.775-1.254.1-2.906-.495-4.176-.631a10.118 10.118 0 0 1-1.131-.195 2.761 2.761 0 0 0-.789-1.865 1.827 1.827 0 0 0-1.793-.509c-1.7.687-1.172 2.038-.18 2.941-.193.834-.369 1.707-.4 1.842-.315 1.273-.646 2.6-1.019 3.91a11.126 11.126 0 0 1-2.343 4.2 10.018 10.018 0 0 1-1.456 1.764 3.51 3.51 0 0 1-1.671.478 6.258 6.258 0 0 1-.7-2.658 14.209 14.209 0 0 1 .745-4.233c.712-2.735 1.939-5.346 2.753-8.1.655-2.214 1.473-4.379 2.2-6.575.1 0 .2.01.294.012.9.015-.089-.11.3-.083.478.033 1.34.252 1.769.329a18.5 18.5 0 0 0 3.539.149c2.43-.007 4.982.351 7.337-.319 1.441-.41-.822-2.464-1.837-2.175-2.176.618-5.128.417-7.38.287-1.123-.064-2.236-.195-3.349-.314a30.63 30.63 0 0 1 1.891-4.4c.324-.634.613-1.271.918-1.922.529-1.131 1.347-2 1.93-3.088.512-.953-1.945-2.464-2.432-1.555-.631 1.175-1.462 2.174-2.052 3.375s-1.128 2.243-1.631 3.488c-.494 1.222-1.113 2.364-1.513 3.644-.021.068-.05.135-.072.2-4.389-.312-8.786-1.048-13.175-.831-1.376.068.8 2.227 1.837 2.175a46.591 46.591 0 0 1 6.738.476c1.22.122 2.481.255 3.742.363-.149.37-.291.741-.4 1.11-.674 2.205-1.289 4.4-2.144 6.583a43.683 43.683 0 0 0-1.86 5.778c-.783 3.305-1.585 8.094 2.185 10 3.642 1.846 6.634-2.638 7.853-5.379a32.353 32.353 0 0 0 1.6-5.7c.122-.5.276-1.059.4-1.624a18.844 18.844 0 0 0 2.72.494c.356.043.717.1 1.079.169a4.574 4.574 0 0 0-.644 1.124c-.191.474-.415.922-.6 1.391a5.661 5.661 0 0 0-.169 4.334c1.076 2.735 4.144 5.722 7.3 4.707a8.62 8.62 0 0 0 2.477-1.444 8.522 8.522 0 0 0 3.3 1.873 16.918 16.918 0 0 0 4.5.093 11.268 11.268 0 0 0 4.183-1.494 8.685 8.685 0 0 0 7.309 1.958c4-.955 7.64-4.626 10.027-7.811.601-.803-1.794-2.41-2.447-1.542zm-27.314 3.45a.465.465 0 0 0 .01-.116 6.355 6.355 0 0 1-.232-.872 7.932 7.932 0 0 1 .428-2.615 7.181 7.181 0 0 1 1.5-2.658c1.111-1.185 1.6-1.786 3.381-1.306.471.127.471.127.5.868a3.659 3.659 0 0 1-.774 2.537 19.5 19.5 0 0 1-4.236 4.027c-.136.1-.28.213-.428.334-.042-.071-.098-.134-.149-.199zm13.684-5.959a5.052 5.052 0 0 1 2.844-1.639.306.306 0 0 1 .26.114l.032.041c.2.247.87.66.963.9.276.707-.621 2.908-1.1 3.559a21.982 21.982 0 0 1-2.27 2.446 13.318 13.318 0 0 1-2 1.648 7.544 7.544 0 0 1 1.271-7.069z" class="prefix__cls-5" data-name="Path 7082" transform="translate(-474.411 -24.845)"/>
            <path id="prefix__Path_7083" d="M392.795 125.644c-3.022-.771-5.034 2.576-6.611 4.457-.142.17-.272.343-.406.514.081-.36.167-.719.269-1.072.434-1.5.9-2.913 1.377-4.4.123-.385-.3-.864-.819-1.163-.66-.5-1.559-.746-1.749-.231-.359.975-2.292 2.5-3.072 3.189a10.756 10.756 0 0 1-2.294 1.574q-.261.127-.521.251a3.423 3.423 0 0 0-.436-1.88 9.589 9.589 0 0 0-1.066-1.071 3.409 3.409 0 0 0-.342-.287 4.611 4.611 0 0 0-1.032-.563 7.324 7.324 0 0 0-2.683-.751 5 5 0 0 0-1.482.238 4.536 4.536 0 0 0-.3-.8 14.123 14.123 0 0 0-1.916-3.238 22.274 22.274 0 0 0-2.368-2.326c-.937-.745-1.94-.546-2.962-.991-.109-.048-.562-.165-.54.1a9.812 9.812 0 0 0 .407 1.5c.147.637-.084 1.368.019 2.026a6.146 6.146 0 0 0 1.955 3.359 5.05 5.05 0 0 0 2.556 1.667c.249.062.5.107.761.146-.5.417-1 .87-1.556 1.306a.551.551 0 0 0-.215.194 13.754 13.754 0 0 0-1.685 2.724 9.976 9.976 0 0 0-.517 3.091 7.22 7.22 0 0 0 1.748 5.7c3.591 3.651 8.3.3 10.347-3.124a9.586 9.586 0 0 0 1.41-4.222 16.676 16.676 0 0 0 4.234-2.21l.03-.024a33.57 33.57 0 0 1-.868 3.383c-.477 1.338-.488 2.7-.917 4.043-.185.579-.875 2.085-.669 2.709s1.206 1.453 1.909 1.221c1-.328 1.485-2.472 1.894-3.328a45.648 45.648 0 0 1 2.36-3.973c.747-1.232 1.782-2.2 2.612-3.364.464-.653 2.11-2.568 3.326-2.642a7.307 7.307 0 0 1 .1 2.529c-.107.707-.4 1.377-.512 2.087a16.07 16.07 0 0 1-.315 2.494c-.741 2.369-1.35 4.651.322 6.751.633.8 2.831 1.042 1.763-.3-1.135-1.425-.247-3.471.126-5.038.356-1.494.672-3.1.966-4.671.44-2.384.012-4.908-2.638-5.584zm-16.94 1.171a1.853 1.853 0 0 0 .316.217 19.76 19.76 0 0 1 .163 2.442c.007.083.007.161.011.242a5.63 5.63 0 0 1-1.229.109c-1.214-.033-1.755.047-1.969-1.317a1.833 1.833 0 0 1 1.126-2.1 2.863 2.863 0 0 1 .656-.014c.295.031.616.306.926.421zm-.253 6.3a8.977 8.977 0 0 1-4.771 5.014c-2.508.867-2.737-2-2.564-3.875a9.125 9.125 0 0 1 .5-2.568 13.3 13.3 0 0 1 1.542-2.611c.156-.128.314-.265.472-.407a4.843 4.843 0 0 0 .72 1.278 6.01 6.01 0 0 0 4.535 2.015c-.122.369-.266.746-.436 1.151z" class="prefix__cls-5" data-name="Path 7083" transform="translate(-313.713 -100.905)"/>
            <path id="prefix__Path_7084" d="M139.809 188.26a6.964 6.964 0 0 0-1.125.078 7.232 7.232 0 0 1-1.617-.611 5.4 5.4 0 0 1-1.972-2.981 12.85 12.85 0 0 1 .264-4.834c.365-2.018.436-4.158 1.44-6 .425-.781-1.033-1.569-1.622-1.621-2.856-.255-4.714 2.2-6.221 4.4.2-1.16.4-2.334.565-3.5.115-.815-1.257-1.529-1.931-1.432-2.947.424-5.147 3.323-6.93 5.457a7.406 7.406 0 0 0-.622.886c.269-.793.432-1.681.751-2.458.244-.593.729-1.069.964-1.647a45.164 45.164 0 0 1 .643-2c.233-.953-2.281-2.318-2.565-1.157-.35 1.431-1.019 1.717-1.857 2.793-.65.834-1.213 1.71-1.949 2.5a32.622 32.622 0 0 1-4.116 4.2 39.766 39.766 0 0 1-4.155 3.18 10.745 10.745 0 0 1-4.054 1.549 2.076 2.076 0 0 1-.9-1.431 4.455 4.455 0 0 1-.009-1.162 27.1 27.1 0 0 0 7.45-3.6c1.645-1.179 3.319-3.353 2.716-5.48-.489-1.725-2.834-2.932-4.578-2.83-1.79.105-3.807 1.751-4.915 3.152-2.215 2.8-5.065 8.633-2 11.677 3.044 3.028 7.106 1.188 10.044-1.04a48.753 48.753 0 0 0 5.18-4.684 15.443 15.443 0 0 0-.611 1.72c-.35 1.273-.408 2.557-.7 3.822-.18.779 1.776 2 2.271 1.233a86.425 86.425 0 0 1 5.163-7.575 22.8 22.8 0 0 1 4-4.291c-.224 1.3-.477 2.591-.762 3.834-.266 1.159-.806 2.232-1.125 3.355a27.579 27.579 0 0 0-.545 3.469c-.132.872 2 2.106 2.332 1.052a24.71 24.71 0 0 1 2.081-3.873 24.353 24.353 0 0 1 1.606-3.092c.8-1.141 1.551-2.326 2.463-3.4a5.138 5.138 0 0 1 .7-.652 39.868 39.868 0 0 0-.778 4.2 10.4 10.4 0 0 0 .64 6.079 8.266 8.266 0 0 0 5.285 4.434 10.034 10.034 0 0 0 2.145.111c1.47.123-.165-1.756-1.044-1.83zm-35.616-10.341c.931-1.908 3.754-5.817 6.254-5.065.142 1.578-1 3-2.192 3.968a21.221 21.221 0 0 1-4.751 2.749 16.711 16.711 0 0 1 .689-1.653z" class="prefix__cls-5" data-name="Path 7084" transform="translate(-86.326 -146.913)"/>
            <path id="prefix__Path_7085" d="M14.17 41.73a8.6 8.6 0 0 1-2.252-1.3 5.547 5.547 0 0 0-.715-.382c-.028-.09-.506-.61-.594-.725a14.316 14.316 0 0 1-2.065-5.206c-.02-.105-.034-.211-.052-.317.252-.364.5-.724.754-1.071a66.721 66.721 0 0 0 5.593-8.817 63.46 63.46 0 0 0 6.64-20.349C21.824.91 19.265-1.05 16.912.615c-1.322.935-2.306 2.957-3.051 4.345-.55 1.025-1.091 1.929-1.614 2.979a63.477 63.477 0 0 0-6.4 19.174 20.373 20.373 0 0 0-.063 5.493c-.665.93-1.345 1.859-2.067 2.737a46.966 46.966 0 0 0-3.632 4.28c-.546.858 1.779 2.357 2.346 1.5A44.759 44.759 0 0 1 6.1 37.035c.217-.252.424-.519.631-.786a12.27 12.27 0 0 0 .6 1.257 11.247 11.247 0 0 0 6.68 5.913c1.844.705 1.489-1.138.159-1.689zm-.3-30.594c.771-1.3 1.286-2.71 2.06-3.929s1.619-3.489 2.97-4.586a23.619 23.619 0 0 1-.7 3.227c-.521 2.063-1.072 4.1-1.612 6.16a46.512 46.512 0 0 1-3.834 9.476 76.951 76.951 0 0 1-4.338 7.37 35.121 35.121 0 0 1 .994-5.224c1.081-4.13 2.278-8.83 4.455-12.494z" class="prefix__cls-5" data-name="Path 7085"/>
        </g>
    </g>
</svg>
