<svg xmlns="http://www.w3.org/2000/svg" width="806.578" height="573.324" viewBox="0 0 806.578 573.324">
    <defs>
        <style>
            .prefix__cls-1,.prefix__cls-28{fill:#fff}.prefix__cls-1{opacity:.2}.prefix__cls-2{fill:#82b378}.prefix__cls-3{fill:#a8d29f}.prefix__cls-4{fill:#f1a34f}.prefix__cls-7{fill:#d1a586}.prefix__cls-8{fill:#e5bd9e}.prefix__cls-9{fill:#dfb697}.prefix__cls-10{fill:#a0795f}.prefix__cls-11{fill:#6bb7bf}.prefix__cls-12{fill:#f99746}.prefix__cls-14{fill:#ed9f4a}.prefix__cls-16{fill:#ffb27d}.prefix__cls-17{fill:#c45446}.prefix__cls-18{fill:#e37970}.prefix__cls-19{fill:#1c468a}.prefix__cls-20{fill:#c65447}.prefix__cls-21{fill:#283167}.prefix__cls-22{fill:#3b4685}.prefix__cls-24{fill:#599dad}.prefix__cls-26{fill:#233862}.prefix__cls-27{fill:#e9f3fe}.prefix__cls-29{fill:#d9e9f9}.prefix__cls-34{fill:#b5453c}.prefix__cls-35{fill:#ed975d}.prefix__cls-36{fill:#699dee}.prefix__cls-37{fill:#4a75cb}.prefix__cls-38{fill:#163560}.prefix__cls-39{fill:#2b478b}.prefix__cls-42{fill:#c69d7f}
        </style>
    </defs>
    <g id="prefix__Group_14075" data-name="Group 14075" transform="translate(-14951 -192)">
        <g id="prefix__Group_14018" data-name="Group 14018" transform="translate(14951 192)">
            <path id="prefix__Path_8035" d="M1107.121 752.235H301.5s-.695-6.652-.9-17.4c-.116-6.258-.075-13.909.376-22.44.039-.7.077-1.4.119-2.112.236-3.911.552-8 .978-12.206.039-.373.078-.749.12-1.125.465-4.4 1.044-8.975 1.766-13.676.588-3.818 1.265-7.725 2.058-11.693.054-.277.11-.558.167-.838q.613-3.029 1.316-6.1.273-1.2.561-2.416.564-2.362 1.181-4.742 1.5-5.83 3.362-11.726c.125-.4.254-.8.379-1.208q.846-2.622 1.766-5.259 1.4-4 2.989-8.009c.659-1.673 1.351-3.341 2.064-5.011a169.694 169.694 0 0 1 27.89-45.115c27.678-31.723 71.275-54.956 139.687-54.276 13.751.134 26.532-.224 38.461-1.014h.018q5.441-.358 10.646-.838h.036c79.022-7.266 118.616-34.362 154.613-60.79q1.938-1.423 3.866-2.843c12.59-9.274 24.895-18.371 38.473-26.4q5.212-3.087 10.706-5.948c22.508-11.666 49.142-20.14 85.95-21.966a91.8 91.8 0 0 1 10.5.069q1.955.125 3.869.337a74.824 74.824 0 0 1 37.575 14.72c27.6 20.963 41.31 61.977 34.133 113.178-4.859 34.676 6.118 53.477 24.919 65.766 52.033 34.022 164.006 18.18 165.977 151.081z" class="prefix__cls-1" data-name="Path 8035" transform="translate(-300.543 -406.96)"/>
        </g>
        <g id="prefix__Group_14073" data-name="Group 14073" transform="translate(14951 537.597)">
            <path id="prefix__Path_8035-2" d="M1107.122 406.96H301.5s-.695 6.652-.9 17.4c-.116 6.258-.075 13.909.376 22.44.039.7.077 1.4.119 2.112.236 3.911.552 8 .978 12.206.039.373.078.749.12 1.125.465 4.4 1.044 8.975 1.766 13.676.588 3.818 1.265 7.726 2.058 11.693.054.277.11.558.167.838q.613 3.029 1.316 6.1.273 1.2.561 2.416.564 2.362 1.181 4.743 1.5 5.83 3.362 11.726c.125.4.254.8.379 1.208q.846 2.622 1.766 5.259 1.4 4 2.989 8.009c.659 1.673 1.351 3.341 2.064 5.011a169.7 169.7 0 0 0 27.89 45.115c27.678 31.723 71.275 54.956 139.687 54.276 13.751-.134 26.532.224 38.461 1.014h.018q5.441.358 10.646.838h.036c79.022 7.266 385.8-63.83 404.6-76.119 3.502-5.837 164.01-18.185 165.982-151.086z" class="prefix__cls-1" data-name="Path 8035" transform="translate(-300.543 -406.96)"/>
        </g>
        <g id="prefix__Group_14074" data-name="Group 14074" transform="translate(-40)">
            <g id="prefix__Group_14027" data-name="Group 14027" transform="translate(15627.185 486.877)">
                <g id="prefix__Group_14022" data-name="Group 14022" transform="translate(58.723 43.858)">
                    <path id="prefix__Path_8048" d="M2549.5 1371.442s-7.685-8.966-.474-14.661c0 0 5.267-3.189 9.562-2.93 0 0-6.086 10.206-4.117 11.221s5.962-11.861 5.962-11.861 11.987-1.162 15.843.692c0 0-10.247 8.386-8.089 8.885s13.227-7.732 13.227-7.732 11.156 1.9 10.562 8.7-4.439 8.907-6.129 8.726-11.573-3.954-11.789-2.569 5.734 5.909 9.9 6.12c0 0-7.866 8.674-13.093 6.171s-5.674-6.472-8.932-7.96-6.04-1.484-4.7.033 7.243 2.993 9.106 6.29 3.536 5.52-1.873 4.706-14.2-4.771-14.585-9.3z" class="prefix__cls-2" data-name="Path 8048" transform="translate(-2536.509 -1352.851)"/>
                    <g id="prefix__Group_14021" data-name="Group 14021" transform="translate(0 11.04)">
                        <path id="prefix__Path_8049" d="M2581.14 1382.51s-30.3-1.168-36.994 7.5a21.911 21.911 0 0 1-6.034 8.469l-.71 1.935s5.251-5.536 7.13-5.872c0-.003-2.938-10.742 36.608-12.032z" class="prefix__cls-2" data-name="Path 8049" transform="translate(-2531.156 -1382.457)"/>
                        <path id="prefix__Path_8050" d="M2527.609 1424.132a19.026 19.026 0 0 0-6.956 13.4l1.18.106s2.077-8.886 5.832-12.362-.056-1.144-.056-1.144z" class="prefix__cls-2" data-name="Path 8050" transform="translate(-2520.653 -1408.113)"/>
                    </g>
                </g>
                <g id="prefix__Group_14024" data-name="Group 14024" transform="translate(0 19.515)">
                    <path id="prefix__Path_8051" d="M2408.025 1319.232s12.225-6.847 6.52-16.138c0 0-4.564-5.7-9.454-7.172 0 0 2.608 13.855 0 14.181s-1.793-15.649-1.793-15.649-12.877-6.194-17.93-5.705c0 0 7.987 13.53 5.379 13.2s-11.573-14.019-11.573-14.019-13.2-2.445-15.322 5.379 1.3 11.736 3.26 12.225 14.507.326 14.181 1.956-8.8 4.238-13.529 2.771c0 0 5.216 12.877 12.062 12.225s8.966-4.89 13.2-5.216 7.335.815 5.216 1.956-9.292.374-12.715 3.284-6.194 4.7.163 6.007 17.767.489 20.05-4.4z" class="prefix__cls-3" data-name="Path 8051" transform="translate(-2363.182 -1287.573)"/>
                    <g id="prefix__Group_14023" data-name="Group 14023" transform="translate(6.699 8.186)">
                        <path id="prefix__Path_8052" d="M2381.147 1309.524s34.231 11.084 38.143 23.473a26 26 0 0 0 3.26 11.9v2.446s-3.586-8.313-5.542-9.454c0-.002 7.661-10.76-35.861-28.365z" class="prefix__cls-2" data-name="Path 8052" transform="translate(-2381.147 -1309.524)"/>
                        <path id="prefix__Path_8053" d="M2489.423 1401.818a22.577 22.577 0 0 1 2.27 17.774l-1.358-.364s1.318-10.749-1.444-16.154.532-1.256.532-1.256z" class="prefix__cls-2" data-name="Path 8053" transform="translate(-2448.02 -1366.446)"/>
                    </g>
                </g>
                <g id="prefix__Group_14026" data-name="Group 14026" transform="translate(53.698)">
                    <path id="prefix__Path_8054" d="M2517.771 1276.974s-16.115-9.025-8.595-21.272c0 0 6.016-7.52 12.462-9.454 0 0-3.438 18.264 0 18.694s2.364-20.628 2.364-20.628 16.975-8.165 23.636-7.521c0 0-10.529 17.835-7.091 17.4s15.255-18.479 15.255-18.479 17.4-3.223 20.2 7.091-1.719 15.471-4.3 16.115-19.123.43-18.694 2.579 11.6 5.587 17.834 3.653c0 0-6.876 16.975-15.9 16.115s-11.818-6.446-17.4-6.876-9.669 1.074-6.876 2.578 12.248.493 16.76 4.329 8.165 6.2-.215 7.918-23.42.645-26.429-5.8z" class="prefix__cls-3" data-name="Path 8054" transform="translate(-2507.177 -1235.242)"/>
                    <g id="prefix__Group_14025" data-name="Group 14025" transform="translate(2.083 10.79)">
                        <path id="prefix__Path_8055" d="M2578.64 1264.178s-45.123 14.611-50.28 30.941a34.274 34.274 0 0 1-4.3 15.686v3.223s4.727-10.958 7.305-12.462c.003-.001-10.095-14.182 47.275-37.388z" class="prefix__cls-2" data-name="Path 8055" transform="translate(-2519.849 -1264.178)"/>
                        <path id="prefix__Path_8056" d="M2516.977 1385.839s-6.959 10.567-2.991 23.43l1.79-.481s-1.738-14.168 1.9-21.294-.699-1.655-.699-1.655z" class="prefix__cls-2" data-name="Path 8056" transform="translate(-2512.763 -1339.212)"/>
                    </g>
                </g>
                <path id="prefix__Path_8057" d="M2481.047 1473.759a31.567 31.567 0 0 0 31.567-31.568h-63.134a31.567 31.567 0 0 0 31.567 31.568z" class="prefix__cls-4" data-name="Path 8057" transform="translate(-2417.298 -1365.017)"/>
                <path id="prefix__Path_8058" d="M2495.285 1473.517a31.588 31.588 0 0 1-35.488-31.326h7.842a31.572 31.572 0 0 0 27.646 31.326z" data-name="Path 8058" transform="translate(-2423.768 -1365.017)" style="fill:#ffb973"/>
                <path id="prefix__Path_8059" d="M2512.318 1524.6h-64.006a3.894 3.894 0 0 1 3.894-3.894h56.217a3.894 3.894 0 0 1 3.894 3.894z" class="prefix__cls-4" data-name="Path 8059" transform="translate(-2416.566 -1414.253)"/>
                <path id="prefix__Rectangle_1191" d="M0 0H64.89V0.968H0z" data-name="Rectangle 1191" transform="translate(31.144 77.174)" style="fill:#d86713"/>
            </g>
            <g id="prefix__Group_14033" data-name="Group 14033" transform="translate(15498.843 436.757)">
                <path id="prefix__Path_8060" d="M2176.84 1162.389a277.089 277.089 0 0 1 3.289-34.45c2.359-13.452 4.482-21.191 4.506-21.274.311-1.183 4.8-5.97 14.778-5.822s9.032 6.425 9.032 6.425a1.984 1.984 0 0 1-.072.558c-.1.324-9.256 33.083-8.859 75.381.005.594.073 1.62.031 2.3 0 0-23.125.589-23.13 0-.807-3.692-.415-13.935.425-23.118z" class="prefix__cls-7" data-name="Path 8060" transform="translate(-2117.445 -1100.841)"/>
                <path id="prefix__Path_8061" d="M2169.7 1183c.007.59.322 1.061.707 1.061h.009c.385-.009.691-.481.7-1.061h19.818c.007.59.322 1.061.707 1.061h.009c.391-.009.7-.5.7-1.092a291.25 291.25 0 0 1 1.644-33.393c2.634-24.885 7.5-41.518 7.574-41.748a2.049 2.049 0 0 0 .071-.558s.947-6.277-9.032-6.425-14.468 4.639-14.779 5.822c-.019.062-1.22 4.444-2.818 12.323-.53 2.61-1.1 5.6-1.688 8.949a277.47 277.47 0 0 0-3.288 34.45c-.844 9.183-1.134 16.911-.334 20.611z" class="prefix__cls-8" data-name="Path 8061" transform="translate(-2113.213 -1100.841)"/>
                <path id="prefix__Path_8062" d="M2169.7 1213.518c.007.59.322 1.061.707 1.061h.009c.385-.009.691-.481.7-1.061h19.818c.007.59.322 1.061.707 1.061h.009c.391-.009.7-.5.7-1.092a291.252 291.252 0 0 1 1.644-33.393c-3.276-15.792-15.939-27.872-18.983-30.586-.53 2.61-1.1 5.6-1.688 8.949a277.475 277.475 0 0 0-3.288 34.45c-.845 9.183-1.135 16.915-.335 20.611z" class="prefix__cls-9" data-name="Path 8062" transform="translate(-2113.213 -1131.359)"/>
                <g id="prefix__Group_14028" data-name="Group 14028" transform="translate(57.5 2.49)">
                    <path id="prefix__Path_8063" d="M2192.175 1186.986l-.055-.038c-.016-.012-.029-.02-.036-.1h-.012a.526.526 0 0 0-.155-.409c-.624-.637-3.025-.611-6.066-.577a63.338 63.338 0 0 1-11.562-.629c-2.127-.368-.692-16.528.82-31.646.257-2.568.459-4.6.551-5.789.985-12.863 6.675-35.687 6.728-35.866.252-.962 3.675-4.527 11.1-4.409 2.807.042 4.8.73 5.912 2.047a3.832 3.832 0 0 1 .913 2.859 1.531 1.531 0 0 1-.057.43c-.031.125-5.16 29.649-6 36.734-1.383 11.688-1.932 35.852-1.956 37.2v.119zm-4.427-1.366c2.219 0 3.783.1 4.33.66.009-.557.038-1.6.094-3.564.065-2.311.177-5.922.34-9.994.284-7.125.779-16.927 1.516-23.158.859-7.26 5.978-36.68 6.006-36.772a1.4 1.4 0 0 0 .049-.382 3.684 3.684 0 0 0-.864-2.7c-1.073-1.262-3-1.923-5.74-1.963-7.3-.1-10.631 3.315-10.875 4.244-.056.21-5.733 22.937-6.72 35.823-.091 1.2-.295 3.225-.552 5.794-1.008 10.075-3.1 31.038-1.007 31.4a63.229 63.229 0 0 0 11.521.626c.676-.006 1.312-.013 1.902-.013z" class="prefix__cls-7" data-name="Path 8063" transform="translate(-2173.214 -1107.519)"/>
                </g>
                <path id="prefix__Path_8064" d="M2104.5 1313.485h-77.7s1.809-7.222 46.805-6.146c31.843.761 30.895 6.146 30.895 6.146z" class="prefix__cls-8" data-name="Path 8064" transform="translate(-2023.9 -1230.264)"/>
                <g id="prefix__Group_14029" data-name="Group 14029" transform="translate(73.748 84.339)">
                    <path id="prefix__Path_8065" d="M2229.956 1401.32c-9.009-44.983-6.692-72.585-6.68-72.933.022-.693-1.271-1.321-1.967-1.344s-3.815-.2-4.174.388c-.471.776-2.285 34.786 11.141 73.889z" class="prefix__cls-7" data-name="Path 8065" transform="translate(-2216.785 -1327.004)"/>
                </g>
                <g id="prefix__Group_14030" data-name="Group 14030" transform="translate(14.377 84.339)">
                    <path id="prefix__Path_8066" d="M2057.574 1401.32c9.009-44.983 6.692-72.585 6.68-72.933-.022-.693 1.272-1.321 1.968-1.344s3.814-.2 4.174.388c.472.776 2.285 34.786-11.141 73.889z" class="prefix__cls-7" data-name="Path 8066" transform="translate(-2057.574 -1327.004)"/>
                </g>
                <g id="prefix__Group_14031" data-name="Group 14031" transform="translate(0 84.339)">
                    <path id="prefix__Path_8067" d="M2019.022 1401.32c9.009-44.983 6.692-72.585 6.681-72.933-.023-.693 1.271-1.321 1.967-1.344s3.814-.2 4.174.388c.471.776 2.286 34.786-11.141 73.889z" class="prefix__cls-10" data-name="Path 8067" transform="translate(-2019.022 -1327.004)"/>
                </g>
                <g id="prefix__Group_14032" data-name="Group 14032" transform="translate(59.275 84.339)">
                    <path id="prefix__Path_8068" d="M2191.145 1401.32c-9.008-44.983-6.692-72.585-6.68-72.933.023-.693-1.271-1.321-1.967-1.344s-3.814-.2-4.174.388c-.471.776-2.285 34.786 11.141 73.889z" class="prefix__cls-10" data-name="Path 8068" transform="translate(-2177.974 -1327.004)"/>
                </g>
                <path id="prefix__Rectangle_1192" d="M2.086 0h76.707a2.086 2.086 0 0 1 2.086 2.086 2.086 2.086 0 0 1-2.086 2.086H2.086A2.086 2.086 0 0 1 0 2.086 2.086 2.086 0 0 1 2.086 0z" class="prefix__cls-7" data-name="Rectangle 1192" transform="rotate(180 41.07 42.763)"/>
            </g>
            <g id="prefix__Group_14039" data-name="Group 14039" transform="translate(15204.804 434.557)">
                <path id="prefix__Path_8069" d="M1388.347 1157.339a284.853 284.853 0 0 1 3.289-34.926c2.359-13.637 4.482-21.484 4.507-21.567.311-1.2 4.8-6.052 14.777-5.9s9.032 6.514 9.032 6.514a2.056 2.056 0 0 1-.072.566c-.1.328-9.256 33.54-8.86 76.422.006.6.073 1.643.031 2.336 0 0-23.124.6-23.13 0-.806-3.75-.412-14.135.426-23.445z" class="prefix__cls-7" data-name="Path 8069" transform="translate(-1328.951 -1094.94)"/>
                <path id="prefix__Path_8070" d="M1381.209 1178.234c.007.6.322 1.076.707 1.076h.009c.385-.009.691-.487.7-1.076h19.818c.007.6.322 1.076.707 1.076h.009c.391-.009.7-.5.7-1.107a299.236 299.236 0 0 1 1.644-33.854c2.634-25.229 7.5-42.091 7.573-42.325a2.1 2.1 0 0 0 .072-.566s.946-6.363-9.032-6.514-14.468 4.7-14.779 5.9c-.018.063-1.221 4.505-2.818 12.493-.53 2.646-1.1 5.681-1.688 9.073a285.078 285.078 0 0 0-3.288 34.926c-.843 9.312-1.143 17.151-.334 20.898z" class="prefix__cls-8" data-name="Path 8070" transform="translate(-1324.721 -1094.94)"/>
                <path id="prefix__Path_8071" d="M1381.209 1209.175c.007.6.322 1.076.707 1.076h.009c.385-.009.691-.487.7-1.076h19.818c.007.6.322 1.076.707 1.076h.009c.391-.009.7-.5.7-1.107a299.239 299.239 0 0 1 1.644-33.855c-3.277-16.011-15.94-28.257-18.984-31.009-.53 2.646-1.1 5.681-1.688 9.073a285.081 285.081 0 0 0-3.288 34.926c-.843 9.31-1.143 17.149-.334 20.896z" class="prefix__cls-9" data-name="Path 8071" transform="translate(-1324.721 -1125.88)"/>
                <g id="prefix__Group_14034" data-name="Group 14034" transform="translate(57.5 2.527)">
                    <path id="prefix__Path_8072" d="M1403.681 1182.278l-.055-.039c-.016-.011-.029-.02-.036-.1h-.012a.54.54 0 0 0-.159-.419c-.63-.643-3.027-.616-6.062-.581a62.57 62.57 0 0 1-11.562-.637c-2.127-.373-.692-16.753.819-32.077.257-2.606.46-4.663.552-5.874.98-12.97 6.674-36.179 6.728-36.362.252-.975 3.675-4.589 11.1-4.469 2.79.041 4.772.732 5.892 2.051a3.923 3.923 0 0 1 .933 2.922 1.555 1.555 0 0 1-.057.436c-.031.126-5.158 30.054-6 37.242-1.38 11.829-1.932 36.353-1.956 37.717v.119zm-4.426-1.383c2.214 0 3.776.1 4.327.664v.005c.009-.565.038-1.622.094-3.613.065-2.344.177-6 .34-10.132.285-7.224.779-17.16 1.517-23.478.857-7.345 5.977-37.186 6-37.279a1.415 1.415 0 0 0 .049-.388 3.772 3.772 0 0 0-.883-2.762c-1.077-1.265-3-1.927-5.72-1.967h-.336c-7.059 0-10.3 3.378-10.538 4.3-.056.213-5.735 23.268-6.721 36.319l-.113-.009.113.009c-.091 1.213-.295 3.272-.552 5.879-1.007 10.213-3.1 31.463-1.006 31.831a62.366 62.366 0 0 0 11.52.634c.683-.008 1.319-.008 1.909-.008z" class="prefix__cls-7" data-name="Path 8072" transform="translate(-1384.72 -1101.715)"/>
                </g>
                <path id="prefix__Path_8073" d="M1316 1310.524h-77.695s1.809-7.322 46.805-6.232c31.845.771 30.89 6.232 30.89 6.232z" class="prefix__cls-8" data-name="Path 8073" transform="translate(-1235.406 -1226.152)"/>
                <g id="prefix__Group_14035" data-name="Group 14035" transform="translate(73.748 85.505)">
                    <path id="prefix__Path_8074" d="M1441.463 1399.573c-9.009-45.6-6.692-73.589-6.68-73.941.022-.7-1.272-1.34-1.968-1.363s-3.814-.207-4.174.394c-.471.787-2.286 35.266 11.141 74.91z" class="prefix__cls-7" data-name="Path 8074" transform="translate(-1428.292 -1324.229)"/>
                </g>
                <g id="prefix__Group_14036" data-name="Group 14036" transform="translate(14.377 85.505)">
                    <path id="prefix__Path_8075" d="M1269.081 1399.573c9.008-45.6 6.692-73.589 6.681-73.941-.023-.7 1.271-1.34 1.968-1.363s3.814-.207 4.174.394c.471.787 2.286 35.266-11.141 74.91z" class="prefix__cls-7" data-name="Path 8075" transform="translate(-1269.081 -1324.229)"/>
                </g>
                <g id="prefix__Group_14037" data-name="Group 14037" transform="translate(0 85.505)">
                    <path id="prefix__Path_8076" d="M1230.529 1399.573c9.008-45.6 6.692-73.589 6.681-73.941-.023-.7 1.272-1.34 1.968-1.363s3.814-.207 4.174.394c.471.787 2.286 35.266-11.141 74.91z" class="prefix__cls-10" data-name="Path 8076" transform="translate(-1230.529 -1324.229)"/>
                </g>
                <g id="prefix__Group_14038" data-name="Group 14038" transform="translate(59.275 85.505)">
                    <path id="prefix__Path_8077" d="M1402.652 1399.573c-9.008-45.6-6.692-73.589-6.68-73.941.022-.7-1.272-1.34-1.968-1.363s-3.814-.207-4.174.394c-.471.787-2.286 35.266 11.141 74.91z" class="prefix__cls-10" data-name="Path 8077" transform="translate(-1389.481 -1324.229)"/>
                </g>
                <rect id="prefix__Rectangle_1193" width="80.878" height="4.229" class="prefix__cls-7" data-name="Rectangle 1193" rx="2.115" transform="rotate(180 41.07 43.354)"/>
            </g>
            <g id="prefix__Group_14048" data-name="Group 14048" transform="translate(15307.8 376.572)">
                <g id="prefix__Group_14046" data-name="Group 14046" transform="translate(.897)">
                    <path id="prefix__Path_8078" d="M1525.788 1156.172s6.42 2.606 10.983-3.942c0 .001-7.407-1.256-10.983 3.942z" class="prefix__cls-11" data-name="Path 8078" transform="translate(-1519.574 -1072.798)"/>
                    <path id="prefix__Path_8079" d="M1519.293 1151.83a3.137 3.137 0 0 0-3.141-2.372s1.013 2.323 3.141 2.372z" class="prefix__cls-11" data-name="Path 8079" transform="translate(-1513.532 -1071.143)"/>
                    <path id="prefix__Path_8080" d="M1528.207 1114.638a4.2 4.2 0 0 0 4.279-3.078s-3.373.376-4.279 3.078z" class="prefix__cls-11" data-name="Path 8080" transform="translate(-1521.091 -1047.378)"/>
                    <g id="prefix__Group_14041" data-name="Group 14041" transform="translate(5.167 7.442)">
                        <path id="prefix__Path_8081" d="M1537.273 987.981c-6.281-1.347-6.387-6.484-6.387-6.484 7.397 2.337 6.387 6.484 6.387 6.484z" class="prefix__cls-11" data-name="Path 8081" transform="translate(-1527.939 -973.259)"/>
                        <path id="prefix__Path_8082" d="M1549.17 991.561a5.675 5.675 0 0 0 6.7-2.406s-4.517-.767-6.7 2.406z" class="prefix__cls-11" data-name="Path 8082" transform="translate(-1539.405 -978.01)"/>
                        <g id="prefix__Group_14040" data-name="Group 14040" transform="translate(0 3.838)">
                            <path id="prefix__Path_8083" d="M1524.151 1056.861l-.811.934a.2.2 0 0 1-.357-.135 337.608 337.608 0 0 1 6.224-63.8 203.3 203.3 0 0 1 6.23-24.161c-.031.088-2.846 9.176-5.914 24.261-2.824 13.885-6.055 32.032-5.238 62.543a.53.53 0 0 1-.134.358z" class="prefix__cls-11" data-name="Path 8083" transform="translate(-1522.983 -969.699)"/>
                        </g>
                        <path id="prefix__Path_8084" d="M1551.681 959.64c-1 .805-4.837 4.236-1.116 6.882 0 0 2.852.9 3.8-1.293a13.984 13.984 0 0 0 .968-4.339.378.378 0 0 0-.347-.4 3.029 3.029 0 0 1-.806-.183c-.353-.137-.532-.67-1.009-.787a2.821 2.821 0 0 0-.951-.106 1.007 1.007 0 0 0-.539.226z" class="prefix__cls-12" data-name="Path 8084" transform="translate(-1539.281 -959.407)"/>
                        <path id="prefix__Path_8085" d="M1550.525 975.92a2.309 2.309 0 0 1 .716 2.365l-.012.538a2.546 2.546 0 0 1 1.7-1.762 3.014 3.014 0 0 1-2.404-1.141z" class="prefix__cls-11" data-name="Path 8085" transform="translate(-1540.254 -969.762)"/>
                        <path id="prefix__Path_8086" d="M1537.273 987.981c-6.281-1.347-6.387-6.484-6.387-6.484s4.975 2.732 6.387 6.484z" data-name="Path 8086" transform="translate(-1527.939 -973.259)" style="fill:#8ad8db"/>
                    </g>
                    <g id="prefix__Group_14043" data-name="Group 14043" transform="translate(1.813 5.03)">
                        <path id="prefix__Path_8087" d="M1520.643 985.077a5.674 5.674 0 0 1-6.655-2.54s4.536-.676 6.655 2.54z" class="prefix__cls-11" data-name="Path 8087" transform="translate(-1513.988 -971.462)"/>
                        <g id="prefix__Group_14042" data-name="Group 14042" transform="translate(4.162 3.851)">
                            <path id="prefix__Path_8088" d="M1534.685 1050.635l.793.95a.2.2 0 0 0 .359-.127 337.613 337.613 0 0 0-4.944-63.912 203.214 203.214 0 0 0-5.745-24.281c.03.089 2.662 9.231 5.427 24.374 2.545 13.939 5.412 32.147 3.984 62.636a.529.529 0 0 0 .126.36z" class="prefix__cls-11" data-name="Path 8088" transform="translate(-1525.148 -963.265)"/>
                        </g>
                        <path id="prefix__Path_8089" d="M1519.309 953.186c.985.825 4.752 4.332.978 6.9 0 0-2.869.846-3.77-1.37a13.985 13.985 0 0 1-.881-4.357.378.378 0 0 1 .355-.393 3.01 3.01 0 0 0 .809-.167c.356-.13.546-.659 1.025-.767a2.82 2.82 0 0 1 .953-.087 1 1 0 0 1 .531.241z" class="prefix__cls-12" data-name="Path 8089" transform="translate(-1515.021 -952.938)"/>
                        <path id="prefix__Path_8090" d="M1526.8 969.6a2.307 2.307 0 0 0-.763 2.35v.538a2.545 2.545 0 0 0-1.66-1.795 3.014 3.014 0 0 0 2.423-1.093z" class="prefix__cls-11" data-name="Path 8090" transform="translate(-1520.506 -963.388)"/>
                    </g>
                    <g id="prefix__Group_14045" data-name="Group 14045" transform="translate(8.026)">
                        <path id="prefix__Path_8091" d="M1536.322 970.622a5.675 5.675 0 0 0 6.018-3.81s-4.579.238-6.018 3.81z" class="prefix__cls-11" data-name="Path 8091" transform="translate(-1534.206 -956.608)"/>
                        <g id="prefix__Group_14044" data-name="Group 14044" transform="translate(1.759 3.949)">
                            <path id="prefix__Path_8092" d="M1544.222 1037.565l-.588 1.088a.2.2 0 0 1-.378-.053 337.685 337.685 0 0 1-7.839-63.622 203.233 203.233 0 0 1 .812-24.938c-.011.093-.777 9.576-.481 24.966.272 14.167 1.076 32.582 8.527 62.18a.529.529 0 0 1-.053.379z" class="prefix__cls-11" data-name="Path 8092" transform="translate(-1535.366 -950.04)"/>
                        </g>
                        <path id="prefix__Path_8093" d="M1532.432 939.893c-.8 1-3.8 5.189.411 6.96 0 0 2.98.26 3.423-2.091a13.963 13.963 0 0 0 0-4.445.378.378 0 0 0-.426-.314 3.023 3.023 0 0 1-.826 0c-.374-.057-.666-.538-1.157-.548a2.83 2.83 0 0 0-.951.1 1.007 1.007 0 0 0-.474.338z" class="prefix__cls-12" data-name="Path 8093" transform="translate(-1530.649 -939.45)"/>
                        <path id="prefix__Path_8094" d="M1533.322 957.388a2.308 2.308 0 0 1 1.214 2.152l.106.528a2.545 2.545 0 0 1 1.271-2.089 3.015 3.015 0 0 1-2.591-.591z" class="prefix__cls-11" data-name="Path 8094" transform="translate(-1532.325 -950.699)"/>
                    </g>
                    <path id="prefix__Path_8095" d="M1545.552 957.277s0-3.3 2.846-4.339c.002 0 .627 2.755-2.846 4.339z" class="prefix__cls-11" data-name="Path 8095" transform="translate(-1531.968 -947.908)"/>
                    <path id="prefix__Path_8096" d="M1523.772 944.881a3.356 3.356 0 0 0-2.247-3.247s-.561 2.346 2.247 3.247z" class="prefix__cls-14" data-name="Path 8096" transform="translate(-1516.873 -940.82)"/>
                    <path id="prefix__Path_8097" d="M1545.934 983.462a3.663 3.663 0 0 0-1.086-4.481 4.3 4.3 0 0 0 1.086 4.481z" class="prefix__cls-14" data-name="Path 8097" transform="translate(-1531.385 -964.239)"/>
                    <path id="prefix__Path_8098" d="M1552.431 988.05a1.365 1.365 0 0 1 1.178-1.438s.202 1.06-1.178 1.438z" class="prefix__cls-11" data-name="Path 8098" transform="translate(-1536.271 -969.025)"/>
                    <path id="prefix__Path_8099" d="M1513.365 976.007s-1.009-2.089-4.239-1.726c0 .001.484 2.241 4.239 1.726z" class="prefix__cls-11" data-name="Path 8099" transform="translate(-1509.126 -961.266)"/>
                </g>
                <path id="prefix__Path_8100" d="M1529.709 1093.828H1509a2.282 2.282 0 0 1-2.259-2.61l9.637-66.423a1.261 1.261 0 0 1 1.248-1.08h3.077a1.346 1.346 0 0 1 1.332 1.148l9.866 66.418a2.22 2.22 0 0 1-2.192 2.547z" class="prefix__cls-12" data-name="Path 8100" transform="translate(-1506.721 -992.292)"/>
                <g id="prefix__Group_14047" data-name="Group 14047" transform="translate(1.244 31.439)">
                    <path id="prefix__Path_8101" d="M1515.682 1091.845l5.115-68.089a1.258 1.258 0 0 0-1.08 1.064l-9.637 66.423a2.282 2.282 0 0 0 2.259 2.61h4.139a2.447 2.447 0 0 1-.796-2.008z" data-name="Path 8101" transform="translate(-1510.056 -1023.756)" style="fill:#ffb278"/>
                </g>
            </g>
            <g id="prefix__Group_14052" data-name="Group 14052" transform="translate(15437.211 379.024)">
                <path id="prefix__Path_8102" d="M2017.678 1192.278s-14.2 16.223-17.11 15.958c-2.971-.27-4.783-1.206-7.367 0-1.857.867-7.728 5.59-6.152 5.277s4.428-.679 5.182-.75c1.036-.1 2.7-.121 3.83-.318.714-.125 3.295-.2 4.155-.225 3.738-.123 21.419-10.452 21.419-10.452z" class="prefix__cls-16" data-name="Path 8102" transform="translate(-1937.174 -1100.447)"/>
                <g id="prefix__Group_14049" data-name="Group 14049" transform="translate(42.64 72.556)">
                    <path id="prefix__Path_8103" d="M1982.587 1142.54a3.962 3.962 0 0 0-2.458-.045v-1.152a6.052 6.052 0 0 0-.049-.752h-11.937a5.959 5.959 0 0 0-.049.752v2.343a6.01 6.01 0 0 0 10.53 3.969s2.84-.7 3.732-1.758 1.179-2.772.231-3.357zm-.63 2.166c-.3.779-1.656 1.2-2.324 1.361a5.947 5.947 0 0 0 .48-1.98 1.759 1.759 0 0 1 1.54-.808c.428.077.686.441.304 1.427z" class="prefix__cls-17" data-name="Path 8103" transform="translate(-1968.093 -1140.589)"/>
                    <path id="prefix__Path_8104" d="M1970.714 1141.341v2.344a6.036 6.036 0 0 0 6.016 6.018 5.531 5.531 0 0 0 .809-.058 6.035 6.035 0 0 1-5.207-5.96v-2.344a5.93 5.93 0 0 1 .049-.753h-1.618a5.93 5.93 0 0 0-.049.753z" class="prefix__cls-18" data-name="Path 8104" transform="translate(-1969.736 -1140.588)"/>
                    <path id="prefix__Rectangle_1194" d="M0 0H4.912V0.736H0z" class="prefix__cls-17" data-name="Rectangle 1194" transform="translate(3.557 8.589)"/>
                </g>
                <path id="prefix__Path_8105" d="M2090.361 955.479s.642-8.148 12.362-6.032c3.1.559 5.228-4.965 10.3-3 10.921 4.239 11.563-1.358 14.72 6.5 1.321 3.288 9.723 7.116 7.157 12.8s1.728 9.5-1.289 13.957c-1.561 2.3-.926 6.423-8.291 6.57-3.668.073-9.38 6.869-13.5 8.1s-16.475-.546-16.009-6.194c.363-4.406-4.775-4.039-7.932-9.1-2.759-4.427 2.164-5.542-.469-12.7-1.924-5.246 3.102-6.524 2.951-10.901z" class="prefix__cls-19" data-name="Path 8105" transform="translate(-2000.002 -946.024)"/>
                <g id="prefix__Group_14050" data-name="Group 14050" transform="translate(0 190.584)">
                    <path id="prefix__Path_8106" d="M1879.685 1476.405c.252 2.726-3.543 3.388-7.937 3.607s-3.066 1.119-9.089 2.209-8.436-.557-8.872-1.371c-.388-.722 2.411-1.851 5.4-3.127.376-.16.752-.324 1.128-.488 3.359-1.477 5.243-4.489 7.861-7.281 2.48-2.645 4.835-11.114 4.835-11.114l8.184-1.748s-2.3 7.622-3.1 10.876c-.469 1.914.223 4.054.838 5.682a10.687 10.687 0 0 1 .752 2.755z" class="prefix__cls-16" data-name="Path 8106" transform="translate(-1853.751 -1457.093)"/>
                    <path id="prefix__Path_8107" d="M1871.748 1507.857c-4.394.219-3.066 1.119-9.089 2.209s-8.436-.557-8.872-1.371c-.388-.722 2.411-1.851 5.4-3.127l.047.051a17.148 17.148 0 0 0 9.123.109c3.984-1.082 7.836-3.462 10.581-4.232a10.686 10.686 0 0 1 .753 2.754c.246 2.725-3.548 3.388-7.943 3.607z" class="prefix__cls-20" data-name="Path 8107" transform="translate(-1853.751 -1484.938)"/>
                </g>
                <path id="prefix__Path_8108" d="M1979.315 1232.194s-45.355 2.038-55.593 8.5-26.658 81.725-26.658 81.725a6.678 6.678 0 0 0 3.276 1.057c2.105.228 6.741-1.01 6.741-1.01s23.6-33.676 25.26-42.159 1.256-16.054 5.041-16.257 50.967 5.736 58.1-6.837-16.167-25.019-16.167-25.019z" class="prefix__cls-21" data-name="Path 8108" transform="translate(-1880.912 -1125.477)"/>
                <g id="prefix__Group_14051" data-name="Group 14051" transform="translate(18.712 190.891)">
                    <path id="prefix__Path_8109" d="M1929.863 1477.226c.251 2.726-3.543 3.388-7.937 3.607s-3.067 1.119-9.089 2.21-8.436-.557-8.871-1.371c-.388-.722 2.411-1.851 5.4-3.127.376-.159.752-.324 1.128-.488 3.358-1.477 5.243-4.489 7.861-7.281 2.48-2.645 4.835-11.114 4.835-11.114l8.184-1.748s-2.3 7.622-3.1 10.876c-.469 1.914.223 4.054.838 5.682a10.721 10.721 0 0 1 .751 2.754z" class="prefix__cls-16" data-name="Path 8109" transform="translate(-1903.928 -1457.914)"/>
                    <path id="prefix__Path_8110" d="M1921.925 1508.678c-4.395.219-3.067 1.119-9.089 2.21s-8.436-.557-8.871-1.371c-.388-.722 2.411-1.851 5.4-3.127l.047.051a17.15 17.15 0 0 0 9.122.109c3.984-1.082 7.836-3.463 10.581-4.232a10.723 10.723 0 0 1 .753 2.754c.246 2.728-3.548 3.387-7.943 3.606z" class="prefix__cls-20" data-name="Path 8110" transform="translate(-1903.928 -1485.759)"/>
                </g>
                <path id="prefix__Path_8111" d="M2027.311 1235.07s-48.31 2.287-58.289 9.142-23.457 82.7-23.457 82.7a6.67 6.67 0 0 0 3.315.929c2.112.145 6.7-1.272 6.7-1.272s22.269-34.568 23.6-43.11.631-16.091 4.4-16.441 51.152 3.748 57.794-9.094-14.063-22.854-14.063-22.854z" class="prefix__cls-22" data-name="Path 8111" transform="translate(-1911.326 -1127.281)"/>
                <path id="prefix__Path_8112" d="M2131.045 1042.863c-.018-.026-.04-.049-.062-.075a7.6 7.6 0 0 0-1.348-1.18l-.017-.013c-3.947-2.757-11-3.347-11-3.347s-.771-.073-1.991-.129a36.541 36.541 0 0 1-2.3-11.126l-.7.187-11.754 3.153s.521 3.731.764 7.262c.054.773.093 1.536.112 2.25-.34.124-7.654 1.155-9.245 2.864s-4.77 13.094-5.572 15.111l45.255.74s1.13-11.825-2.142-15.697z" class="prefix__cls-16" data-name="Path 8112" transform="translate(-2000.599 -996.799)"/>
                <path id="prefix__Path_8113" d="M2110.638 1148.36c-5.358.51-23.416-10.395-29.433-13.941-.107-.06-.207-.121-.3-.178-2.506-1.472-6.031-2.167-9.382-2.723-4.27-.7-8.256-1.169-9.532-2.695-1.518-1.818 2.948-3.833 6.538-5.921 1.807-1.055 3.4-2.132 3.893-3.2.381-.845.353-2.695.1-5.062-.042-.442-.1-.9-.164-1.379a15.307 15.307 0 0 1-1.077 1.86 27.292 27.292 0 0 1-3.835 4.488 12.745 12.745 0 0 1-4.456 3.073 3.51 3.51 0 0 1-2.128-.193c-1.878-.734-3.693-2.8-5.133-4.794-.339-.471-.66-.941-.952-1.386-.984-1.49-1.682-2.727-1.946-3.02-.8-.887 3.226-2.645 4.88-3.964s8.141-26.941 8.141-26.941c.8-2.017 3.982-13.4 5.571-15.114 0 0 6.2 7.575 14.245 7.14 7.985-.428 21.662-8.131 21.872-8.252a4.977 4.977 0 0 1 1.433 1.269c3.272 3.871 2.135 15.7 2.135 15.7s-6.26 27.586-6.26 30.37c0 5.1 4.221 16.839 6.235 25.291 1.273 5.341 1.668 9.372-.445 9.572z" class="prefix__cls-11" data-name="Path 8113" transform="translate(-1978.521 -1021.353)"/>
                <path id="prefix__Path_8114" d="M2125.308 1030.648s.521 3.731.764 7.262c6.653-.632 9.771-6.948 10.99-10.414z" data-name="Path 8114" transform="translate(-2024.041 -997.113)" style="fill:#f4a269"/>
                <path id="prefix__Path_8115" d="M2109.04 999.794s15.788-.792 15.144-10.616.959-16.543-9.147-16.453-11.818 3.967-12.4 7.3 2.28 19.722 6.403 19.769z" class="prefix__cls-16" data-name="Path 8115" transform="translate(-2009.776 -962.767)"/>
                <path id="prefix__Path_8116" d="M2118.153 971.122s3.773-.881 5.007.954.352 2.863 3.1 3.634 3.689.716 3.414 2.642 2.767 3.359 2.9 4.9a2.7 2.7 0 0 0 2.608 2.422c1.211.11.661-19.875-4.019-20.756s-9.194.165-10.57 1.266-2.44 4.938-2.44 4.938z" class="prefix__cls-19" data-name="Path 8116" transform="translate(-2019.554 -957.666)"/>
                <path id="prefix__Path_8117" d="M2103.771 973.222s-3.67-.257-4.331 1.835.22 2.588-.716 3.854-.395 3.512-.395 3.512-7.258-13.367.395-14.247 7.451.679 5.047 5.046z" class="prefix__cls-19" data-name="Path 8117" transform="translate(-2005.172 -959.767)"/>
                <path id="prefix__Path_8118" d="M2075.774 1143.412a40.691 40.691 0 0 1-4.887 9.5 12.744 12.744 0 0 1-4.456 3.073 3.509 3.509 0 0 1-2.128-.193c-1.878-.734-3.693-2.8-5.133-4.794-.339-.471-.66-.941-.952-1.386 5.015-4.024 14.522-13.232 15.51-25.833 1.351-17.215 2.117 20.421 2.046 19.633z" class="prefix__cls-24" data-name="Path 8118" transform="translate(-1981.97 -1054.66)"/>
                <path id="prefix__Path_8119" d="M2074.535 1204.817c1.75-2.67 5.311-5.3 10.419-7.368-2.353 3.522-6.377 7.1-8.291 7.561a3.51 3.51 0 0 1-2.128-.193z" class="prefix__cls-24" data-name="Path 8119" transform="translate(-1992.202 -1103.689)"/>
                <path id="prefix__Path_8120" d="M2117.667 1128.4s-3.943 39.617-21.388 45.057c-.107-.06-.207-.121-.3-.178-2.506-1.472-6.031-2.167-9.382-2.723-4.27-.7-8.255-1.169-9.532-2.695-1.518-1.818 2.948-3.832 6.537-5.921 1.807-1.055 3.4-2.132 3.893-3.2.381-.845.353-2.695.1-5.062 16.921-6.271 30.072-25.278 30.072-25.278z" class="prefix__cls-24" data-name="Path 8120" transform="translate(-1993.595 -1060.388)"/>
                <path id="prefix__Path_8121" d="M2065.961 1088.765c-1.827-8.235-10.118-3.51-10.118-3.51-2.874-.656-23.97 33.539-25.659 34.314-1.431.656-20.875-4.991-26.778-6.73-1.524-1.2-6.879-5.351-7.816-5.422-1.094-.082-8.411 1.8-8.365 2.959s1.758 2.865 4.46 3.3c2.046.327 5.518 1.674 7.731 2.011s21.46 14.617 30.594 16.4c8.223 1.601 37.778-35.087 35.951-43.322z" class="prefix__cls-16" data-name="Path 8121" transform="translate(-1937.45 -1032.488)"/>
                <path id="prefix__Path_8122" d="M2064.69 1115.854s-4.946 12.71.98 17.542 18.787 3.207 32.873-16.438 19.819-30.341 12.507-33.463-13.356 1.776-17.107 9.417c-3.9 7.942-11.085 18.94-15.4 19.358s-13.853 3.584-13.853 3.584z" class="prefix__cls-11" data-name="Path 8122" transform="translate(-1984.815 -1031.631)"/>
            </g>
            <g id="prefix__Group_14055" data-name="Group 14055" transform="translate(15339.217 301.51)">
                <path id="prefix__Path_8123" d="M1735.281 832.907l.01 1.919s-.522 6 6.867 6.877 13.449.763 13.249-3.868c-.666-3.586-1.859-9.151-1.907-12.117a20.858 20.858 0 0 1 .263-3.593l-14.319-.286-4.217.689z" class="prefix__cls-16" data-name="Path 8123" transform="translate(-1681.431 -790.635)"/>
                <path id="prefix__Path_8124" d="M1735.227 822.528l.054 10.38a12.108 12.108 0 0 0 5.162 1.139c6.58 0 10.834-4.826 13.057-8.328a20.858 20.858 0 0 1 .263-3.593l-14.319-.286z" data-name="Path 8124" transform="translate(-1681.431 -790.635)" style="fill:#e2915a"/>
                <path id="prefix__Path_8125" d="M1748.125 778.561c-1.661 8.941-13.2 8.647-18.184 8.085-1.4-.156-2.286-.335-2.286-.335-1.582-.422-2.465-2.914-2.875-6.178-.814-6.46.215-15.942 1.305-18.367 1.643-3.649 4.736-7.6 16.354-4.749s7.818 10.089 5.686 21.544z" class="prefix__cls-16" data-name="Path 8125" transform="translate(-1674.697 -749.376)"/>
                <path id="prefix__Path_8126" d="M1785.7 1509.45h-16.35a39.441 39.441 0 0 1 1.3-5.868 16.664 16.664 0 0 1 .926-2.355c1.59-3.173 11.689-1.155 11.689-1.155s.938.8 1.67 3.873a32.538 32.538 0 0 1 .765 5.505z" class="prefix__cls-26" data-name="Path 8126" transform="translate(-1702.829 -1215.55)"/>
                <path id="prefix__Path_8127" d="M1624.436 1493.1c-.045 2.224-.324 4.329-1.131 5.16h-32.336c.411-1.17 1.575-2.929 4.895-3.469 3.772-.61 9.652-2.426 13.085-6.056a9.743 9.743 0 0 0 2.533-4.588c1.521-6.773 12.579 2.075 12.579 2.075a54.816 54.816 0 0 1 .375 6.878z" class="prefix__cls-26" data-name="Path 8127" transform="translate(-1590.969 -1204.36)"/>
                <path id="prefix__Path_8128" d="M1675.038 1177.417a50.952 50.952 0 0 0-.812 5.973c-1.028 20.051-16.878 65.9-19.713 66.966-4.387 1.656-11.3-1.863-14.909-3.015a3.1 3.1 0 0 1-2.175-3.521c7.849-36.086 10.734-88.047 11.784-118.811a139.608 139.608 0 0 1 3.19-26.2s38.658-10.314 38.888 2.733c.204 11.547-12.805 56.828-16.253 75.875z" class="prefix__cls-22" data-name="Path 8128" transform="translate(-1620.064 -961.893)"/>
                <path id="prefix__Path_8129" d="M1694.961 1177.417l-25.825-52.408a139.6 139.6 0 0 1 3.19-26.2s38.658-10.314 38.888 2.733c.204 11.547-12.805 56.828-16.253 75.875z" class="prefix__cls-21" data-name="Path 8129" transform="translate(-1639.986 -961.893)"/>
                <path id="prefix__Path_8130" d="M1715.322 1104.847l20.437 148.118s8.974 2.164 15.955.433c0 0 5.983-78.776 5.484-97.821s4.294-50.96-1.093-54.48-40.783 3.75-40.783 3.75z" class="prefix__cls-22" data-name="Path 8130" transform="translate(-1668.949 -965.151)"/>
                <path id="prefix__Path_8131" d="M1719.018 742.044a38.437 38.437 0 0 0 11.146-3.016c4.9-2.128 11.071.216 13.076 1.272a2.976 2.976 0 0 0-.489-1.206 2.69 2.69 0 0 1 1.033 1.531c.093.068.134.115.11.131a3.447 3.447 0 0 1 1.676.108s-.459-.065-.623.23a.265.265 0 0 1-.073.081c7.637 3.69 8.342 15.759 5.885 18.552-2.957 3.36-6.5 10.926-6.5 10.926a6.488 6.488 0 0 1-.755-4.745c.538-2.956-2.016-2.956-5.241-4.3s-.538-5.107-3.36-7.392-13.171-.941-13.036-2.688c-3.844-1.4-2.849-9.091-2.849-9.484z" class="prefix__cls-26" data-name="Path 8131" transform="translate(-1671.194 -738.164)"/>
                <path id="prefix__Path_8132" d="M1721.912 871.636l-4.706 100.957s-39.27.642-38.149-8.245 14.155-89.62 14.155-89.62z" class="prefix__cls-27" data-name="Path 8132" transform="translate(-1646.193 -821.862)"/>
                <path id="prefix__Path_8133" d="M1786.268 922.547c-2.336 7.009 2.069 30.528 3.639 38.5.345 1.685.575 2.681.575 2.681-5.439 8.847-25.357 8.733-25.357 8.733-3.83-16.931-5.822-43.9-5.822-43.9l15.283-66.993 19.229 17.773s-1.455 10.84-3.256 21.871c-1.418 8.734-3.026 17.62-4.291 21.335z" class="prefix__cls-22" data-name="Path 8133" transform="translate(-1696.529 -815.549)"/>
                <path id="prefix__Path_8134" d="M1734.632 818.576s-.374 1.153-3.284.732c0 0-2.444-.353-2.262-1.639a7.929 7.929 0 0 1 5.546.907z" class="prefix__cls-28" data-name="Path 8134" transform="translate(-1677.574 -787.92)"/>
                <path id="prefix__Path_8135" d="M1629.538 867.106s0 .017-.009.042c-.929.9-27.145 26.353-32.224 36.323-5.171 10.113 23.633 30.259 23.633 30.259a6.707 6.707 0 0 0 3.14.446c-1.358 11.181-2.883 21.5-1.979 25.9 1.633 7.959 9 10.632 9 10.02 0-.2 2.692-28.924 4.155-43.914 3.136-32.142 10.989-64.069 10.989-64.069a55.276 55.276 0 0 0-16.705 4.993zm-15.609 40.733a.232.232 0 0 1-.038-.153c0-1.456 5.554-4.674 11.568-8.465l.115-.116.012-.008c-.107 3.1-.1 6.137.089 8.967a114.688 114.688 0 0 1-.675 17.906c-2.864-4.47-10.511-16.485-11.071-18.132z" class="prefix__cls-22" data-name="Path 8135" transform="translate(-1594.553 -815.893)"/>
                <g id="prefix__Group_14054" data-name="Group 14054" transform="translate(46.028 42.453)">
                    <path id="prefix__Path_8136" d="M1766.152 857.387c.048-.963-4.516-2.294-4.516-2.294s-5.223 7.242-13.829 7.367c0 0 2.452 4.773 5.343 6.009 0-.001 12.718-5.361 13.002-11.082z" class="prefix__cls-29" data-name="Path 8136" transform="translate(-1735.348 -853.941)"/>
                    <path id="prefix__Path_8137" d="M1732.344 864.851s-4.559-2.7-4.575-5.633c0 0-2.944-.369-4.231 1.059 0 0-1.081 5.021.353 7.938 0 0 6.565-1 8.453-3.364z" class="prefix__cls-29" data-name="Path 8137" transform="translate(-1719.885 -856.501)"/>
                    <path id="prefix__Path_8138" d="M1744.389 870.738l-6.182-1.482a.936.936 0 0 0-.785 1.077c.022 1.007 1.741 3.949 2.5 4.184s5.93-1.742 4.467-3.779z" data-name="Path 8138" transform="translate(-1728.836 -862.823)" style="fill:#ba4c43"/>
                    <path id="prefix__Path_8139" d="M1765.432 854.954c.048-.964-3.041-2.949-3.041-2.949s-5.978 6.987-14.584 7.112c0 0 2.452 4.773 5.343 6.009 0 0 11.998-4.451 12.282-10.172z" class="prefix__cls-27" data-name="Path 8139" transform="translate(-1735.348 -852.005)"/>
                    <path id="prefix__Path_8140" d="M1732.4 862.04s-4.611-2.444-4.627-5.374a14.732 14.732 0 0 0-4.069 2.653 8.46 8.46 0 0 0 .244 6.086s6.569-1.005 8.452-3.365z" class="prefix__cls-27" data-name="Path 8140" transform="translate(-1719.946 -854.928)"/>
                    <g id="prefix__Group_14053" data-name="Group 14053" transform="translate(0 9.85)">
                        <path id="prefix__Path_8141" d="M1714.771 945.32a9.53 9.53 0 0 0 3.035 6.159l2.738 2.523a1.6 1.6 0 0 0 2.347-.188l3.392-4.308a5.719 5.719 0 0 0 1.2-4.08c-.317-3.26-.908-9.54-1.382-15.6-.385-4.912-.694-9.683-.717-12.585-.075-9.268 1.764-38.821 1.764-38.821l-2.222.116a119 119 0 0 0-8.407 27.081 103.238 103.238 0 0 0-1.536 12.168s-1.161 16.877-.212 27.535z" data-name="Path 8141" transform="translate(-1714.397 -878.418)" style="fill:#f15d34"/>
                        <path id="prefix__Path_8142" d="M1714.771 991.054a9.53 9.53 0 0 0 3.035 6.159l2.738 2.523a1.6 1.6 0 0 0 2.347-.188l3.392-4.308a5.719 5.719 0 0 0 1.2-4.08c-.317-3.26-.908-9.54-1.382-15.6-6.14-6.9-8.628-16.431-9.582-24.21a103.242 103.242 0 0 0-1.536 12.168s-1.161 16.882-.212 27.536z" data-name="Path 8142" transform="translate(-1714.397 -924.152)" style="fill:#cc5230"/>
                    </g>
                </g>
                <path id="prefix__Path_8143" d="M1656.8 1051.325a4.25 4.25 0 0 1 4.807-4.253 2.633 2.633 0 0 1 1.786.986c1.751 2.331 3.416 9.111.313 9.428-1.262.129-2.885-.757-4.134-1.707-1.269-.964-2.772-2.475-2.772-4.068z" class="prefix__cls-16" data-name="Path 8143" transform="translate(-1632.251 -931.847)"/>
                <path id="prefix__Path_8144" d="M1816.107 1027.708c-5.631-5.86-15.359-17.39-15.015-26.852.46-13.253 15.666-32.979 15.666-32.979-1.417 8.733-3.026 17.62-4.29 21.335-2.336 7.01 2.069 30.529 3.639 38.496z" class="prefix__cls-21" data-name="Path 8144" transform="translate(-1722.729 -882.215)"/>
                <path id="prefix__Path_8145" d="M1811.385 1066.5s-4.048 2.024-6.505 1.012-5.349-1.772-8.1 1.355-3.325 5.3-2.747 6.451 6.982.723 8.044 0 2.743-2.5 3.809-2.192c2.941.855 5.418-1.389 6.805-3.176.842-1.077-1.415-1.599-1.306-3.45z" class="prefix__cls-16" data-name="Path 8145" transform="translate(-1718.183 -944.06)"/>
                <path id="prefix__Path_8146" d="M1800.285 861.568s16.123 1.785 19.924 8.806 23.573 35.474 22.926 47.3-26.97 25.084-26.97 25.084-5.83-2.463-5.917-5.114 18.2-18.492 17.089-21.448-21.243-26.337-23.185-34.047-3.867-20.581-3.867-20.581z" class="prefix__cls-22" data-name="Path 8146" transform="translate(-1722.228 -815.549)"/>
                <path id="prefix__Path_8147" d="M1654.41 949.123l-.115.116c-6.014 3.791-11.568 7.009-11.568 8.465-.8-2.567 7.01-13.292 9.538-15.475 2.567-2.222 2.145 6.894 2.145 6.894z" class="prefix__cls-26" data-name="Path 8147" transform="translate(-1623.39 -865.912)"/>
                <path id="prefix__Path_8148" d="M1769.255 852.005s-12.239 51.263-10.292 70.573c0 0 4.5-20.636 15.329-37.539 0 0-3.952-3.476-3.737-4.757a13.535 13.535 0 0 1 5.78-.284s-.314-22.1-2.089-24.431a12.935 12.935 0 0 0-4.991-3.562z" class="prefix__cls-21" data-name="Path 8148" transform="translate(-1696.185 -809.552)"/>
                <path id="prefix__Path_8149" d="M1713.264 856.666c.249-.147-12.129 50.093-13.163 66.1 0 0 1.226-28.568 1.106-36.8 0 0 5.083-2.691 5.083-3.635s-5.423-3.5-5.423-3.5 3.434-17.593 5.308-19.532 7.089-2.633 7.089-2.633z" class="prefix__cls-21" data-name="Path 8149" transform="translate(-1659.404 -812.474)"/>
            </g>
            <g id="prefix__Group_14059" data-name="Group 14059" transform="translate(15141.844 373.043)">
                <g id="prefix__Group_14056" data-name="Group 14056">
                    <path id="prefix__Path_8150" d="M1273.662 1417.487a2.3 2.3 0 0 1 .41 2.454.023.023 0 0 1-.006.012c-.592 1.635-2.548 3.463-4.82 5.287-.29.234-.549.448-.773.645-.059.052-.118.1-.174.156s-.09.083-.134.121c-2.119 1.953-1.321 2.4-5.127 6.363-4.34 4.516-7.328 4.6-8.178 4.185-.719-.351.742-2.745 2.361-5.437.079-.13.155-.261.236-.393.215-.358.43-.721.644-1.081 1.9-3.24 1.41-4.76.961-9.581-.366-3.918-6.1-21.888-6.1-21.888l8.317-1.433s2.5 14.31 5.264 16.513c1.476 1.174 3.127 1.189 4.545 2.06q.151.09.295.186a10.912 10.912 0 0 1 2.279 1.831z" class="prefix__cls-16" data-name="Path 8150" transform="translate(-1181.638 -1222.781)"/>
                    <path id="prefix__Path_8151" d="M1276.531 1448.72a2.3 2.3 0 0 1 .41 2.454.021.021 0 0 1-.006.012c-.725 1.634-2.632 3.452-4.828 5.27-.287.238-.54.457-.766.662-.059.052-.118.1-.174.156s-.09.083-.134.12c-2.119 1.953-1.321 2.4-5.127 6.363-4.34 4.516-7.328 4.6-8.178 4.185-.719-.35.742-2.745 2.361-5.437a18.487 18.487 0 0 0 7.736-5.7c2.613-3.335 4.356-7.619 6.135-10.1q.151.091.3.186a10.916 10.916 0 0 1 2.271 1.829z" class="prefix__cls-20" data-name="Path 8151" transform="translate(-1184.507 -1254.014)"/>
                    <path id="prefix__Path_8152" d="M1086.658 1408.037c-.514 2.567-4.173 2.139-8.261 1.14s-3.116.189-8.935-.455-7.581-2.814-7.759-3.679c-.159-.768 2.716-1.038 5.8-1.394.388-.043.778-.091 1.167-.14 3.482-.437 6.031-2.683 9.194-4.528 3-1.748 7.466-8.869 7.466-8.869l7.98.632s-4.187 6.36-5.807 9.125c-.952 1.627-.9 3.777-.783 5.438a10.231 10.231 0 0 1-.062 2.73z" class="prefix__cls-16" data-name="Path 8152" transform="translate(-1061.696 -1218.525)"/>
                    <path id="prefix__Path_8153" d="M1078.4 1431.94c-4.088-1-3.116.189-8.935-.455s-7.581-2.814-7.759-3.679c-.159-.768 2.716-1.038 5.8-1.394l.029.059a16.406 16.406 0 0 0 8.333 2.591c3.947.1 8.129-1.036 10.855-.992a10.231 10.231 0 0 1-.062 2.73c-.517 2.568-4.176 2.139-8.261 1.14z" class="prefix__cls-20" data-name="Path 8153" transform="translate(-1061.696 -1241.288)"/>
                    <path id="prefix__Path_8154" d="M1153.728 1114.595s-1.9-4.658-3.993-4.848-8.746-1.236-9.221-.285 0 4.373 1.426 5.609 10.267 3.232 10.267 3.232z" class="prefix__cls-16" data-name="Path 8154" transform="translate(-1111.01 -1042.286)"/>
                    <path id="prefix__Path_8155" d="M1210.638 1279.842l17.2 46.283a15.75 15.75 0 0 0 5.175-.474 22.281 22.281 0 0 0 5-2.435s-4.266-44.44-12.088-53.683-15.287 10.309-15.287 10.309z" data-name="Path 8155" transform="translate(-1155.096 -1141.354)" style="fill:#aa413e"/>
                    <path id="prefix__Path_8156" d="M1217.236 1228.188s-49.417-16.709-60.438-13.154-44.112 69.391-44.112 69.391a6.388 6.388 0 0 0 2.785 1.758c1.9.711 6.486.666 6.486.666s29.863-25.6 33.418-33.063 4.977-14.576 8.533-13.865 45.862 17.42 55.46 7.466 7.089-22.888 7.089-22.888z" class="prefix__cls-20" data-name="Path 8156" transform="translate(-1093.672 -1108.425)"/>
                    <path id="prefix__Path_8157" d="M1304.194 972.016c-.789-1.629-1.671-4.523-2.1-9.682.066.512.955 7.019 3.457 10.7 10.277 6.747 29.976 29.277 29.586 33.547 0 0 6.938-11.768 7.058-11.839 0 0 12.8-16.276-2.37-25.6-7.71-4.738-7.671-10.82-7.349-16.1s-2.1-28.024-17.547-22.072c0 0-2.478-1.1-3.588-.936a3.033 3.033 0 0 1 1.368.649 11.987 11.987 0 0 0-6.486 1.241c-5.666 3.217-10.732 32.082-2.029 40.092z" class="prefix__cls-34" data-name="Path 8157" transform="translate(-1210.828 -929.985)"/>
                    <path id="prefix__Path_8158" d="M1317.327 1020.741c-.051.023 4.962 2.626 8.733 1.595 3.547-.967 5.865-5.566 5.816-5.577-1.5-.3-1.935-2.362-1.9-11.234l-.679.134-11.419 2.261s.26 3.593.268 6.979c.004 2.843-.168 5.539-.819 5.842z" class="prefix__cls-16" data-name="Path 8158" transform="translate(-1221.999 -977.355)"/>
                    <path id="prefix__Path_8159" d="M1318.8 1008.146s.26 3.593.268 6.979c6.39-.18 9.767-6.009 11.151-9.24z" class="prefix__cls-35" data-name="Path 8159" transform="translate(-1222.921 -977.581)"/>
                    <path id="prefix__Path_8160" d="M1319.3 963.1s3.349-5.291 4.152-9.815c.574-3.23-1.071-15.2-13.1-13.478a16.342 16.342 0 0 0-6.779 2.563c-2.612 1.764-6.382 5.573-2.167 16.021l1.095 3.529z" class="prefix__cls-34" data-name="Path 8160" transform="translate(-1210.828 -936.036)"/>
                    <path id="prefix__Path_8161" d="M1304.608 977.646s15.118.249 15.129-9.168 1.969-15.727-7.683-16.285-11.532 3.034-12.3 6.177.921 18.968 4.854 19.276z" class="prefix__cls-16" data-name="Path 8161" transform="translate(-1210.865 -943.875)"/>
                    <path id="prefix__Path_8162" d="M1314.575 948.452s4.139 11.048 10.492 12.682 9.108-.069 9.108-.069a17.99 17.99 0 0 1-5.884-10.628s-10.591-7.243-13.716-1.985z" class="prefix__cls-34" data-name="Path 8162" transform="translate(-1220.273 -940.366)"/>
                    <path id="prefix__Path_8163" d="M1304.454 951.047s-3.091 2.466-3.845 4.865-1.093 7.335-2.532 7.167c0 0-3.119-7.509.386-11.758 3.717-4.505 5.991-.274 5.991-.274z" class="prefix__cls-34" data-name="Path 8163" transform="translate(-1209.126 -942.063)"/>
                    <path id="prefix__Path_8164" d="M1339.256 1116.259c-.816 2.264-3.316 2.846-6.667 2.453-6.39-.747-15.883-5.037-22.724-8-10.428-4.52-15.169-.273-18.488-3.15s3.792-9.275-2.37-38.981c-2.091-10.073 11.154-31.671 11.154-31.671s1.145 6.253 13.816-1.268c.448-.265 5.435 7.12 10.239 16.224 5.3 10.045 10.367 22.178 8.877 28.431-2.844 11.915 8.533 29.384 6.163 35.962z" class="prefix__cls-36" data-name="Path 8164" transform="translate(-1204.099 -996.234)"/>
                    <path id="prefix__Path_8165" d="M1224.125 1039.05l-7.812 32.045s-.972 1.731-2.5 4.193c-3.577 5.783-10.2 15.608-14.435 16.605-2.091.493-6.537-1.247-11.457-3.733a232.714 232.714 0 0 1-20.3-12.067c-.711-4.267 3-7.744 3-7.744s22.28 8.374 24.494 8.533c4.824.344 9.732-22.937 14.24-30.694 3.261-5.609 14.77-7.138 14.77-7.138z" class="prefix__cls-36" data-name="Path 8165" transform="translate(-1128.064 -998.378)"/>
                    <path id="prefix__Path_8166" d="M1312.532 1003.949s-.282 1.2-3.258 1.012c0 0-2.5-.154-2.422-1.469a8.039 8.039 0 0 1 5.68.457z" class="prefix__cls-28" data-name="Path 8166" transform="translate(-1215.429 -975.888)"/>
                    <path id="prefix__Path_8167" d="M1373.707 1163.157c-.815 2.264-3.316 2.846-6.667 2.453-4.423-1.927-23.53-9.329-23.316-14.345.317-7.426 3.674-7.663 1.3-16.828-1.9-7.359 15.751-21.044 18.567-24.018 5.3 10.045 5.441 10.52 3.951 16.773-2.842 11.919 8.536 29.388 6.165 35.965z" class="prefix__cls-37" data-name="Path 8167" transform="translate(-1238.551 -1043.133)"/>
                    <path id="prefix__Path_8168" d="M1248.112 1134.079c-3.577 5.783-10.2 15.608-14.435 16.605-2.091.493-6.537-1.247-11.457-3.733a29.767 29.767 0 0 0 10.469.574c3.674-.356 4.74-4.859 10.547-11.614 3.764-4.38 4.691-3.278 4.876-1.832z" class="prefix__cls-37" data-name="Path 8168" transform="translate(-1162.359 -1057.169)"/>
                    <path id="prefix__Path_8169" d="M1321.272 1171.008s-3.2-2.489-6.222-1.9-4.5 2.666-4.385 3.615 1.718 3.614 4.029 3.851 8.888-1.422 8.888-1.422z" class="prefix__cls-16" data-name="Path 8169" transform="translate(-1217.817 -1079.881)"/>
                    <path id="prefix__Path_8170" d="M1343.516 1035.649s12.322.759 16.587 6.709c6 8.375 16.433 42.566 13.59 50.387l-37.489-.158s-.908-4.247.356-6.3 21.806-5.373 22.754-6.321-11.851-18.488-11.851-21.332-3.947-22.985-3.947-22.985z" class="prefix__cls-36" data-name="Path 8170" transform="translate(-1233.638 -996.246)"/>
                </g>
                <g id="prefix__Group_14058" data-name="Group 14058" transform="translate(46.67 76.596)">
                    <g id="prefix__Group_14057" data-name="Group 14057">
                        <path id="prefix__Path_8171" d="M1240.414 1163.918h-45.386l-8.182-28.532h45.316z" class="prefix__cls-19" data-name="Path 8171" transform="translate(-1186.846 -1135.386)"/>
                        <path id="prefix__Rectangle_1195" d="M0 0H59.334V1.111H0z" class="prefix__cls-38" data-name="Rectangle 1195" transform="translate(8.337 27.421)"/>
                    </g>
                    <path id="prefix__Path_8172" d="M1247.31 1169.345a1.322 1.322 0 0 1 1.3-1.816 2.6 2.6 0 0 1 2.337 1.816 1.322 1.322 0 0 1-1.3 1.817 2.6 2.6 0 0 1-2.337-1.817z" class="prefix__cls-38" data-name="Path 8172" transform="translate(-1224.716 -1155.542)"/>
                </g>
            </g>
            <g id="prefix__Group_14061" data-name="Group 14061" transform="translate(14999.894 331.96)">
                <path id="prefix__Path_8173" d="M948.067 1030.52s4.961-4.055 6.743-4.076 5.169-.912 5.035-.333-2.986 1.336-2.5 1.6 4.634-.846 5.793-.178 3.876 3.431 1.693 4.634-8.733 3.119-10.426 2.9-5.526-.49-5.526-.49z" class="prefix__cls-16" data-name="Path 8173" transform="translate(-848.491 -949.059)"/>
                <path id="prefix__Path_8174" d="M778.171 1442.545l4.16 17.523 6.232-.035.229-17.488z" class="prefix__cls-16" data-name="Path 8174" transform="translate(-741.952 -1210.322)"/>
                <path id="prefix__Path_8175" d="M918.744 1440.669l11.838 16.776 4.614-5.924-7.125-13.159z" class="prefix__cls-16" data-name="Path 8175" transform="translate(-830.103 -1207.699)"/>
                <path id="prefix__Path_8176" d="M747.619 840.906a.787.787 0 0 0-.01-.128c-.078-.873-.178-1.736-.3-2.6a56.76 56.76 0 0 0-1.494-7.411c-.36-1.294-.752-2.5-1.176-3.59-.064-.167-.128-.324-.189-.485-1.013-2.47-2.167-4.245-3.347-4.915a12.106 12.106 0 0 0-6.534-1.251 3.061 3.061 0 0 1 1.379-.652c-1.119-.168-3.615.941-3.615.941-15.556-5.992-18 16.911-17.673 22.232s-5.229 7.058-13.321 11.25c-15.442 8-16.8 18.71-16.8 18.71.117.072.246.154.378.246.766-1.3 2.346-3.735 3.675-4.1a54.765 54.765 0 0 0-2.142 5.208c1.95 1.486 4.62 3.735 7.507 6.256 3.864 3.369 8.109 7.215 11.507 10.33a8.751 8.751 0 0 1 .406-3.372l.649 3.907.085.51c2.167 1.993 3.875 3.582 4.741 4.4.089.082.168.157.239.221l.389.363c-.125-1.365 1.793-4.591 4.8-8.569.207-.278.424-.559.645-.845.966-1.255 2.032-2.57 3.169-3.921.41-.489.823-.977 1.251-1.472.342-.4.688-.795 1.044-1.2.841-.955 1.707-1.914 2.588-2.873 2.281-2.484 4.67-4.933 7-7.158a71.158 71.158 0 0 1 9.293-7.746c.1-.146.2-.3.285-.449a16.131 16.131 0 0 0 1.273-2.623c.11-.278.214-.56.31-.841a38.093 38.093 0 0 0 1.6-6.737 39.06 39.06 0 0 1-1.108 6.865c-.1.364-.2.7-.3 1.009a14.294 14.294 0 0 1-.691 1.747 9.586 9.586 0 0 0 1.247-1.411 11.2 11.2 0 0 0 .7-1.091c2.612-4.54 3.171-11.786 2.54-18.755z" class="prefix__cls-38" data-name="Path 8176" transform="translate(-683.239 -819.817)"/>
                <path id="prefix__Path_8177" d="M811.738 911.228c.052.023-5 2.645-8.8 1.607-3.573-.974-5.907-5.607-5.858-5.617 1.513-.3 1.949-2.38 1.917-11.315l.684.135 11.5 2.277s-.261 3.619-.269 7.029c-.003 2.863.17 5.578.826 5.884z" class="prefix__cls-16" data-name="Path 8177" transform="translate(-753.811 -867.53)"/>
                <path id="prefix__Path_8178" d="M801.505 830.442s5.673-6.04 12.8-.309c-.005 0-4.149-.717-12.8.309z" class="prefix__cls-18" data-name="Path 8178" transform="translate(-756.584 -824.737)"/>
                <path id="prefix__Path_8179" d="M815.562 898.542s-.261 3.619-.269 7.029c-6.436-.182-9.837-6.052-11.231-9.306z" class="prefix__cls-35" data-name="Path 8179" transform="translate(-758.187 -867.757)"/>
                <path id="prefix__Path_8180" d="M793.677 853.17s-3.373-5.329-4.182-9.886c-.578-3.253 1.079-15.312 13.2-13.575a16.464 16.464 0 0 1 6.828 2.581c2.631 1.777 6.428 5.613 2.182 16.136l-1.1 3.555z" class="prefix__cls-38" data-name="Path 8180" transform="translate(-748.991 -825.913)"/>
                <path id="prefix__Path_8181" d="M848.046 1239.5l-6.1.187-6.6.2s-15.242-16.97-23.792-44.175q-.3-.948-.632-1.92c-4.679-13.643-14.379-30.769-19.491-46.27-.814-2.469-1.544-4.793-2.2-6.993-.21-.7-.414-1.4-.609-2.078a164.419 164.419 0 0 1-5.863-30.865l36.912.3s5.964 62.692 28.375 131.614z" class="prefix__cls-39" data-name="Path 8181" transform="translate(-744.832 -1000.272)"/>
                <path id="prefix__Path_8182" d="M787.906 971.057c-.093 17.565 2.577 25.1 2.577 25.1a49.6 49.6 0 0 1-34.589 2.119c-.221-.069-15.553-3.568-15.553-3.568.314-.711 3.11-12.549 3.416-13.2 3.966-8.516 6.977-12.251 7.448-14.869a55.688 55.688 0 0 0 .456-14.716 118.087 118.087 0 0 0-4.555-23.11c5.118-1.165 9.911-3.211 15.238-5.208 1.225 1.526 4.971 3.122 8.221 3.049 3.741-.082 4.955-1.684 4.761-3.433 3.988 2.219 7.169 4.315 7.169 4.315 3.389 5.886 10.261 11.6 10.759 20.633.124 2.218-5.345 22.396-5.348 22.888z" data-name="Path 8182" transform="translate(-718.229 -884.66)" style="fill:#e7f1fd"/>
                <path id="prefix__Path_8183" d="M814.755 867.823s-15.227.251-15.237-9.234-1.983-15.84 7.739-16.4 11.614 3.056 12.388 6.221-.93 19.103-4.89 19.413z" class="prefix__cls-16" data-name="Path 8183" transform="translate(-755.23 -833.809)"/>
                <path id="prefix__Path_8184" d="M805.958 838.42s-4.169 11.128-10.568 12.773-9.173-.069-9.173-.069a18.12 18.12 0 0 0 5.926-10.7s10.67-7.3 13.815-2.004z" class="prefix__cls-38" data-name="Path 8184" transform="translate(-746.997 -830.274)"/>
                <path id="prefix__Path_8185" d="M836.383 841.033s3.113 2.485 3.873 4.9 1.1 7.387 2.55 7.218c0 0 3.141-7.563-.389-11.842-3.744-4.536-6.034-.276-6.034-.276z" class="prefix__cls-38" data-name="Path 8185" transform="translate(-778.455 -831.984)"/>
                <path id="prefix__Path_8186" d="M787.269 1486.908a16.886 16.886 0 0 1-.794 7.185s-1.02 4.648 3.557 4.734 5.7-.346 5.182-3.2-1.5-7.779-1.5-7.779z" class="prefix__cls-16" data-name="Path 8186" transform="translate(-747.098 -1238.141)"/>
                <path id="prefix__Path_8187" d="M794.659 1513.467h-10.026c-.41-2.061.5-6.459.647-7.3.01-.064.021-.11.028-.143s.007-.046.007-.046c5.179 4.748 8.423-.121 8.423-.121a.134.134 0 0 1 .011.025c.76 1.857.92 6.857.91 7.585z" class="prefix__cls-17" data-name="Path 8187" transform="translate(-745.937 -1250.021)"/>
                <path id="prefix__Path_8188" d="M963.339 1487.782s-8.439-9.366-11.03-14.133l-6.275 3.215 14.026 13.173 3.282-.432z" class="prefix__cls-16" data-name="Path 8188" transform="translate(-847.217 -1229.827)"/>
                <path id="prefix__Path_8189" d="M966.025 1498.678h-10.617c-1.564 0-2.812-2.591-4.5-5.959a5.666 5.666 0 0 0-3.821-2.554l.041 8.514h-2.45l-2.255-9c-1.5-2.746-.119-5.236.933-7.4 1.223 0 4.513.834 10.747 7.858a8.175 8.175 0 0 0 6.558 3.06.508.508 0 0 0 .093.049c5.185 2.323 5.271 5.432 5.271 5.432z" class="prefix__cls-17" data-name="Path 8189" transform="translate(-844.541 -1235.233)"/>
                <path id="prefix__Path_8190" d="M851.81 1284.648l-6.6.2s-15.242-16.97-23.792-44.174q-.3-.948-.632-1.92c-4.679-13.643-14.379-30.769-19.491-46.27-.814-2.469-1.544-4.793-2.2-6.993-.21-.7-.414-1.4-.609-2.077l5.436-4.125s16.32 26.427 21.372 51.3c4.39 21.601 21.966 47.595 26.516 54.059z" class="prefix__cls-26" data-name="Path 8190" transform="translate(-754.691 -1045.238)"/>
                <path id="prefix__Path_8191" d="M767.046 1221.11c.093 12.094-.518 39.9-2.093 51.411h-5.845c-3.231 0-4.843-.047-4.843-.047-3.951-20.015-6.762-36.575-8.809-50.846-1.679-11.711-3.171-21.75-4.319-30.394-1.156-8.7-1.959-15.98-2.246-22.134-.044-.969-.078-1.912-.1-2.827s-.023-1.814-.016-2.682l31.894-3.109c-.398 21.192-3.675 53.598-3.623 60.628z" class="prefix__cls-39" data-name="Path 8191" transform="translate(-717.247 -1033.444)"/>
                <path id="prefix__Path_8192" d="M759.3 1287.011c-3.231 0-4.843-.047-4.843-.047-3.951-20.015-6.762-36.575-8.809-50.846-1.679-11.711-3.171-21.751-4.319-30.394-1.156-8.7-1.959-15.98-2.246-22.134l11.7 6.884s-7.47 2.635-4.62 22.584 9.171 71.129 13.137 73.953z" class="prefix__cls-26" data-name="Path 8192" transform="translate(-717.44 -1047.935)"/>
                <path id="prefix__Path_8193" d="M748.831 1020.866s-2.246 8.117-10.019 7.081-18.825-5.7-18.825-5.7 3.322-10.5 7.452-24.284c5-16.693 6.245-40.154 9.162-53.728.819-3.8 6.323-5.038 6.531-7.313l6.448-12.511s9.615 21.579 10.133 27.02-10.882 69.435-10.882 69.435z" class="prefix__cls-12" data-name="Path 8193" transform="translate(-705.465 -885.406)"/>
                <path id="prefix__Path_8194" d="M755.928 1013.127c-.347 8.809-3.429 23.834-15.811 30.439-.048.026-.1.049-.148.07 5-16.693 4.936-32.709 7.853-46.283 6.656-1.384 8.295 10.924 8.106 15.774z" data-name="Path 8194" transform="translate(-717.995 -931.081)" style="fill:#ed7d2b"/>
                <g id="prefix__Group_14060" data-name="Group 14060" transform="translate(106.27 76.778)">
                    <path id="prefix__Path_8195" d="M978.1 1025.7h-11.939c-.007.057-.018.285-.036.606-.046 1.08-.121 3.2-.107 3.4a5.269 5.269 0 0 0 3.633 4.6.11.11 0 0 0 .025.014 8.027 8.027 0 0 0 1.18.353 6.764 6.764 0 0 0 .806.125 4.324 4.324 0 0 0 .463.025 5.972 5.972 0 0 0 2.449-.524 6.037 6.037 0 0 0 3.572-5.493v-2.345a5.9 5.9 0 0 0-.046-.761z" class="prefix__cls-17" data-name="Path 8195" transform="translate(-966.016 -1025.705)"/>
                    <path id="prefix__Path_8196" d="M984.4 1025.7h-1.618a5.84 5.84 0 0 1 .05.753v2.345a6.012 6.012 0 0 1-1.725 4.21 6.1 6.1 0 0 1-1.85 1.283 5.992 5.992 0 0 1-1.119.374c-.167.039-.339.068-.513.093a5.461 5.461 0 0 0 .809.057 4.811 4.811 0 0 0 .51-.025 5.786 5.786 0 0 0 1.935-.5 6.086 6.086 0 0 0 2.7-2.381 6.069 6.069 0 0 0 .6-1.337 5.942 5.942 0 0 0 .267-1.772v-2.345a5.851 5.851 0 0 0-.046-.755z" class="prefix__cls-18" data-name="Path 8196" transform="translate(-973.297 -1025.705)"/>
                    <path id="prefix__Rectangle_1196" d="M0 0H4.912V0.736H0z" class="prefix__cls-17" data-name="Rectangle 1196" transform="rotate(180 4.287 4.662)"/>
                </g>
                <path id="prefix__Path_8197" d="M739.7 1091.544s5.553-1.2 6.981.386 2.228 4.1.8 4.991-5.555-1.545-7.04-.564c-1.064.7-1.4 2.487-2.468 1.863s-2.2-4.715-2.2-4.715z" class="prefix__cls-16" data-name="Path 8197" transform="translate(-715.37 -989.941)"/>
                <path id="prefix__Path_8198" d="M725.16 924.41s-14.985.658-18.586 4-25.168 29.19-25.524 35.964 18.892 26.026 18.892 26.026 5.347-1.288 7.664-4.654c0 0-11.941-21.292-11.228-22.221s20.942-17.5 22.6-13.828c1.428 3.165 6.182-25.287 6.182-25.287z" class="prefix__cls-12" data-name="Path 8198" transform="translate(-681.045 -885.406)"/>
                <path id="prefix__Path_8199" d="M878.179 963.925s-17.11 5.7-19.249 5.228-5.193-23.659-6.844-31.606c-2.127-10.233-10.236-12.268-10.236-12.268l-7.694-2.058s8.81 21.764 9.069 26.168 1.036 72.026 1.036 72.026-.518 3.109 5.441 1.814 7.513-2.591 7.513-2.591-2.583-18.9-3.8-35.686c6.071-1.037 25.593-10.931 25.593-10.931 3.033-4.757-.829-10.096-.829-10.096z" class="prefix__cls-12" data-name="Path 8199" transform="translate(-777.059 -884.66)"/>
            </g>
            <g id="prefix__Group_14068" data-name="Group 14068" transform="translate(15109.629 478.109)">
                <g id="prefix__Group_14062" data-name="Group 14062" transform="translate(17.393 5.917)">
                    <path id="prefix__Path_8200" d="M1043.764 1227.8l-3.116 17.657-8.606 48.774-7.694 43.6a1.4 1.4 0 0 1-1.393 1.144.986.986 0 0 1-1-1.1l6.635-49.428 7.1-52.871 1.071-7.976z" class="prefix__cls-42" data-name="Path 8200" transform="translate(-1021.951 -1227.598)"/>
                </g>
                <g id="prefix__Group_14063" data-name="Group 14063" transform="translate(51.46 5.917)">
                    <path id="prefix__Path_8201" d="M1135.117 1227.8l-3.117 17.655-8.606 48.774-7.694 43.6a1.4 1.4 0 0 1-1.392 1.144.985.985 0 0 1-1-1.1l6.635-49.428 7.1-52.871 1.071-7.976z" class="prefix__cls-42" data-name="Path 8201" transform="translate(-1113.304 -1227.598)"/>
                </g>
                <path id="prefix__Path_8202" d="M1063.754 1245.455c.409-7.588-4.958-9.881-4.958-9.881l1.071-7.976 7 .2z" class="prefix__cls-10" data-name="Path 8202" transform="translate(-1027.663 -1221.681)"/>
                <g id="prefix__Group_14065" data-name="Group 14065" transform="translate(312.284 5.917)">
                    <g id="prefix__Group_14064" data-name="Group 14064">
                        <path id="prefix__Path_8203" d="M1833.535 1338.977a1.407 1.407 0 0 1-1.394-1.144l-6.834-38.74-9.831-55.715-2.749-15.58 7-.2 1.215 9.044 8.53 63.557 5.057 37.674a.987.987 0 0 1-.994 1.104z" class="prefix__cls-42" data-name="Path 8203" transform="translate(-1812.726 -1227.598)"/>
                    </g>
                    <path id="prefix__Path_8204" d="M1820.943 1236.642a10.046 10.046 0 0 0-5.468 6.736l-2.749-15.58 7-.2z" class="prefix__cls-10" data-name="Path 8204" transform="translate(-1812.726 -1227.598)"/>
                </g>
                <g id="prefix__Group_14067" data-name="Group 14067" transform="translate(351.542 5.917)">
                    <g id="prefix__Group_14066" data-name="Group 14066">
                        <path id="prefix__Path_8205" d="M1938.811 1338.977a1.406 1.406 0 0 1-1.394-1.144l-6.835-38.74-9.831-55.715L1918 1227.8l7-.2 1.215 9.044 8.531 63.557 5.057 37.674a.987.987 0 0 1-.992 1.102z" class="prefix__cls-42" data-name="Path 8205" transform="translate(-1918.002 -1227.598)"/>
                    </g>
                    <path id="prefix__Path_8206" d="M1926.219 1236.642a10.046 10.046 0 0 0-5.468 6.736L1918 1227.8l7-.2z" class="prefix__cls-10" data-name="Path 8206" transform="translate(-1918.002 -1227.598)"/>
                </g>
                <path id="prefix__Rectangle_1197" d="M6.116 0h365.225a6.117 6.117 0 0 1 6.117 6.117 6.117 6.117 0 0 1-6.117 6.117H6.116A6.116 6.116 0 0 1 0 6.117 6.116 6.116 0 0 1 6.116 0z" data-name="Rectangle 1197" style="fill:#e0b594"/>
            </g>
            <g id="prefix__Group_14069" data-name="Group 14069" transform="translate(15173.771 468.797)">
                <path id="prefix__Path_8207" d="M1161.805 1188.712a3.96 3.96 0 0 0-2.459-.045v-1.153a5.976 5.976 0 0 0-.049-.752h-11.937a6.023 6.023 0 0 0-.049.752v2.343a6.01 6.01 0 0 0 10.53 3.969s2.84-.7 3.732-1.758 1.18-2.768.232-3.356zm-.631 2.166c-.3.779-1.656 1.2-2.324 1.361a5.951 5.951 0 0 0 .48-1.981 1.76 1.76 0 0 1 1.541-.808c.429.078.686.442.304 1.428z" class="prefix__cls-17" data-name="Path 8207" transform="translate(-1147.311 -1186.761)"/>
                <path id="prefix__Path_8208" d="M1149.932 1187.512v2.343a6.036 6.036 0 0 0 6.016 6.019 5.569 5.569 0 0 0 .809-.058 6.036 6.036 0 0 1-5.207-5.961v-2.343a5.9 5.9 0 0 1 .049-.752h-1.617a5.852 5.852 0 0 0-.05.752z" class="prefix__cls-18" data-name="Path 8208" transform="translate(-1148.955 -1186.76)"/>
                <path id="prefix__Rectangle_1198" d="M0 0H4.912V0.735H0z" class="prefix__cls-17" data-name="Rectangle 1198" transform="translate(3.557 8.589)"/>
            </g>
            <g id="prefix__Group_14070" data-name="Group 14070" transform="translate(15343.416 468.797)">
                <path id="prefix__Path_8209" d="M1616.724 1188.712a3.961 3.961 0 0 0-2.459-.045v-1.153a6.046 6.046 0 0 0-.049-.752h-11.938a5.953 5.953 0 0 0-.049.752v2.343a6.01 6.01 0 0 0 10.53 3.969s2.84-.7 3.732-1.758 1.18-2.768.233-3.356zm-.631 2.166c-.3.779-1.656 1.2-2.324 1.361a5.951 5.951 0 0 0 .48-1.981 1.76 1.76 0 0 1 1.54-.808c.428.078.686.442.304 1.428z" class="prefix__cls-17" data-name="Path 8209" transform="translate(-1602.229 -1186.761)"/>
                <path id="prefix__Path_8210" d="M1604.851 1187.512v2.343a6.036 6.036 0 0 0 6.016 6.019 5.56 5.56 0 0 0 .808-.058 6.036 6.036 0 0 1-5.207-5.961v-2.343a5.83 5.83 0 0 1 .049-.752h-1.617a5.987 5.987 0 0 0-.049.752z" class="prefix__cls-18" data-name="Path 8210" transform="translate(-1603.873 -1186.76)"/>
                <path id="prefix__Rectangle_1199" d="M0 0H4.912V0.735H0z" class="prefix__cls-17" data-name="Rectangle 1199" transform="translate(3.558 8.589)"/>
            </g>
        </g>
    </g>
</svg>
