<svg xmlns="http://www.w3.org/2000/svg" id="prefix__Group_13743" width="101.349" height="95.243" data-name="Group 13743" viewBox="0 0 101.349 95.243">
    <defs>
        <style>
            .prefix__cls-1{fill:#220501}.prefix__cls-1,.prefix__cls-2,.prefix__cls-3,.prefix__cls-6{fill-rule:evenodd}.prefix__cls-2{fill:#5d1913}.prefix__cls-3{fill:#d6c1be}.prefix__cls-6{fill:#c9d81d}
        </style>
    </defs>
    <path id="prefix__Path_7458" d="M122.993 90.134a5.632 5.632 0 0 0-.711-1.594.293.293 0 0 0-.36-.1c-.425-.2-1.117.208-1.453.379a4.8 4.8 0 0 0-.506.286 5.866 5.866 0 0 1 .011-.835c.016-.167.049-.346.074-.527a.982.982 0 0 0 .025-.619.914.914 0 0 0-.207-.505.336.336 0 0 0-.273-.112.86.86 0 0 0-.646-.048 34.11 34.11 0 0 0-13.038 7.741 21.776 21.776 0 0 0-3.509 2.96 51.279 51.279 0 0 0-5.8 6.64 19.379 19.379 0 0 0-3.334 6.664 7.661 7.661 0 0 0-.19 2.556.854.854 0 0 0-.23.239c-1.106-.164-2.407 0-3.417-.091a21.662 21.662 0 0 0-5.554.3 29.024 29.024 0 0 0-11.157 4.542 63.707 63.707 0 0 0-8.35 6.475c-2.01 1.846-4.093 3.995-5.1 6.59a3.2 3.2 0 0 0-.5 1.326.107.107 0 0 0 .012.082.2.2 0 0 0-.042-.006.114.114 0 0 0-.052.213c.077.035.149.073.225.109a.171.171 0 0 0 .03.061 5.205 5.205 0 0 0 1.809 1.06h.006l.01.005c.016 0 .034.013.049.018a.146.146 0 0 0 .041.012c-.206.142-.4.3-.594.454a3.921 3.921 0 0 0-1.023.849 8.16 8.16 0 0 0-1 1.228c-.1.117-.2.239-.292.363a.191.191 0 0 0-.035.174.106.106 0 0 0 .075.139.127.127 0 0 0 .072.089c.13.046.261.1.392.146.11.064.224.123.336.178.027.014.055.031.083.045a4.288 4.288 0 0 0 1.126.649c.258.124.514.254.77.382-.228.233-.458.465-.693.693a3 3 0 0 0-.26.249 18.03 18.03 0 0 1-1.465 1.263.475.475 0 0 0-.078.74c7.1 6.107 14.139 12.126 19.771 19.682 5.057 6.782 9.184 14.289 15.3 20.22a.609.609 0 0 0 .861-.023c3.623-4.309 5.957-9.5 9.473-13.885.989-1.235 2.047-2.419 3.153-3.562 1.061-.948 2.05-1.979 3.165-2.874a15.438 15.438 0 0 1 11.049-3.664c1.227.834 3.32-1.343 3.973-2.217a5.49 5.49 0 0 0 1.485-1.482 2.746 2.746 0 0 0 .458-2.375 4.152 4.152 0 0 0 .138-.93l.162-.7a11.214 11.214 0 0 1 1.742-3.417c.653-.709 1.3-1.426 1.958-2.127a29.237 29.237 0 0 0 2.441-2.54.5.5 0 0 0 .038-.076c.268-.231.53-.47.8-.687a2.678 2.678 0 0 0 .558-.566c.211-.131.415-.265.63-.392a48.258 48.258 0 0 1 15.9-5.51.161.161 0 0 0 .1.01v.005l.481-.124h.018l.01-.005a15.881 15.881 0 0 0 3.592-1.3c.287-.156.064-.537-.214-.489l-.061.009a.164.164 0 0 0-.051-.193l-.2-.172c.041-.189-.119-.362-.245-.485a.246.246 0 0 0-.118-.061.209.209 0 0 0-.023-.031.439.439 0 0 0-.088-.243C147.612 122.26 139.7 114.2 134.291 104a118.646 118.646 0 0 0-6.865-11.442c-1.105-1.621-2.675-3.113-4.433-2.424z" class="prefix__cls-1" data-name="Path 7458" transform="translate(-54.311 -86.421)"/>
    <path id="prefix__Path_7461" d="M122.817 141.373c-.515.538-1.007 1.1-1.472 1.678.183-.355.369-.707.565-1.055a34.232 34.232 0 0 1 6.553-8 21.547 21.547 0 0 1 8.267-4.744 8.165 8.165 0 0 1 3.747-.273c-.416.146-.83.3-1.235.465a55.382 55.382 0 0 0-7.616 4.158 38.31 38.31 0 0 0-5.928 4.471 12.073 12.073 0 0 0-2.881 3.3z" class="prefix__cls-3" data-name="Path 7461" transform="translate(-49.57 -83.249)"/>
    <path id="prefix__Path_7462" d="M121.9 151.961a3.668 3.668 0 0 0-.478.975.241.241 0 0 0 .016.2c-6.968-.279-13.123 2.216-18.958 5.991a46.817 46.817 0 0 0-6.5 5.358c-1.437 1.346-3.383 2.841-4.358 4.643-5.257-5.391-8.639-12.646-12.926-18.763a117.059 117.059 0 0 0-7.576-9.767 27.186 27.186 0 0 0-3.4-3.231 20.381 20.381 0 0 0-1.494-1.492 11.759 11.759 0 0 0-2.005-1.763c-1.008-.747-2.082-1.464-3.162-2.127l.01-.024c.818-2.6 3.178-4.7 5.1-6.495a66.239 66.239 0 0 1 7.752-6.115 30.119 30.119 0 0 1 10.179-4.435 18.248 18.248 0 0 1 5.8-.29 8.484 8.484 0 0 0 3.033 0c3.1 6.165 7.28 11.7 11.562 17.087a220.881 220.881 0 0 0 14.6 17.309c.218.222.518-.117.326-.345-4.982-5.9-9.634-12.071-14.329-18.2a98.249 98.249 0 0 1-10.829-16.648c-.06-.384-.132-.768-.16-1.153.038-.325.082-.65.139-.977a.218.218 0 0 0 .387-.006c4.5-10.018 12.9-20 23.733-23.336a8.082 8.082 0 0 0 0 1.866l-.026.026a.386.386 0 0 0 .109.574 23.183 23.183 0 0 0 2.271 6.17 74.892 74.892 0 0 0 6.715 10.417c3.174 4.395 6.3 8.781 9.679 13.021 2.674 3.352 6.088 6.237 8.53 9.768-.373-.063-.747-.145-1.106-.2a9.256 9.256 0 0 0-3.219.276 21.042 21.042 0 0 0-8.6 4.453 34.439 34.439 0 0 0-10.815 17.233z" data-name="Path 7462" transform="translate(-54.075 -86.276)" style="fill:#fff;fill-rule:evenodd"/>
    <path id="prefix__Path_7463" d="M103.759 97.9a34.215 34.215 0 0 1 14.6-9.541 8.082 8.082 0 0 0 0 1.866l-.026.026a.386.386 0 0 0 .109.574 23.183 23.183 0 0 0 2.271 6.17 74.892 74.892 0 0 0 6.715 10.417c3.174 4.395 6.3 8.781 9.679 13.021 2.674 3.352 6.088 6.237 8.53 9.768-.373-.063-.747-.145-1.106-.2a9.256 9.256 0 0 0-3.219.276 21.042 21.042 0 0 0-8.6 4.453 29.885 29.885 0 0 0-2.437 2.27 57.2 57.2 0 0 0-5.346-26.149C119.6 99.1 114.857 91.619 103.759 97.9zm18.144 54.06a38.65 38.65 0 0 1 2.8-7.113 9.8 9.8 0 0 1-10.673-2.792q2.647 3.352 5.4 6.625c.192.228-.107.567-.326.345-2.1-2.146-4.1-4.4-6.051-6.7a42.278 42.278 0 0 1-36.069-6.992c-5.391-4.049-7.932-8.014-8.858-11.579q-.988.837-1.937 1.719c-1.927 1.8-4.287 3.9-5.1 6.495l-.01.024c1.08.663 2.154 1.38 3.162 2.127a11.759 11.759 0 0 1 2.005 1.763 20.381 20.381 0 0 1 1.494 1.492 27.186 27.186 0 0 1 3.4 3.231 117.059 117.059 0 0 1 7.576 9.767c4.287 6.116 7.669 13.372 12.926 18.763.975-1.8 2.921-3.3 4.358-4.643a46.817 46.817 0 0 1 6.5-5.358c5.836-3.774 11.991-6.27 18.958-5.991a.241.241 0 0 1-.016-.2 3.668 3.668 0 0 1 .458-.982z" data-name="Path 7463" transform="translate(-54.075 -86.276)" style="fill:#eae2e0;fill-rule:evenodd"/>
    <path id="prefix__Path_7464" d="M105.673 158.021a58.872 58.872 0 0 0-7.1 6.332c-2.22 2.354-3.136 5.559-5.222 7.961-10.6-13.064-18.588-30.114-33.422-39.02.551-.409 1.07-.878 1.611-1.3l.148-.107a21.048 21.048 0 0 1 2.507.93h.033a35.328 35.328 0 0 1 4.979 4.208 88.622 88.622 0 0 1 8.872 11.33c4.542 6.51 8.142 13.631 13.421 19.614a.161.161 0 0 0 0 .141 2.157 2.157 0 0 0 1.214 1.03 24.209 24.209 0 0 1 6.9-9.121c.239-.1.474-.2.708-.319a33.576 33.576 0 0 1 5.632-3.837l.423-.178c.234-.046.469-.1.7-.157a5.458 5.458 0 0 0 2.125-.46c.158-.059.316-.119.473-.181-1.362 1.046-2.686 2.128-4.002 3.134z" class="prefix__cls-3" data-name="Path 7464" transform="translate(-54.16 -83.023)"/>
    <path id="prefix__Path_7465" d="M103.284 162.448c-3.777 4.247-6.056 9.572-9.662 13.953-6.142-6.132-10.38-13.848-15.64-20.7-5.368-6.992-12.063-12.557-18.763-18.193a7.9 7.9 0 0 0 .914-.916 8.522 8.522 0 0 1 4.371 1.7 25.081 25.081 0 0 1 2.076 1.457c.049.041.1.078.152.114.7.544 1.367 1.117 2.026 1.7a.364.364 0 0 0 .159.1 88.136 88.136 0 0 1 8.934 10.455c5.116 6.984 9.706 14.331 15.161 21.063a.541.541 0 0 0 .763-.019c2.075-2.021 2.976-4.806 4.682-7.1 1.879-2.525 4.57-4.552 6.981-6.529 1.269-1.042 2.6-2.171 3.994-3.262a73.6 73.6 0 0 0-6.148 6.177z" class="prefix__cls-3" data-name="Path 7465" transform="translate(-54.213 -82.672)"/>
    <path id="prefix__Path_7466" d="M92.453 107.726c.157-.4.334-.787.526-1.168-.188.473-.365.947-.523 1.428a2.094 2.094 0 0 0-.003-.26z" class="prefix__cls-2" data-name="Path 7466" transform="translate(-51.729 -84.916)"/>
    <path id="prefix__Path_7467" d="M116.933 89.5a.431.431 0 0 1 .373.195c.153.246.3.5.454.743a.927.927 0 0 1 .136.277c.053.044.107.078.159.128a.919.919 0 0 1 .277.734 2.645 2.645 0 0 0 .268.473.4.4 0 0 0 .222.146l.543.908c1.218 2.057 2.383 4.143 3.564 6.219a114.445 114.445 0 0 0 8.225 12.87c2.975 3.909 5.939 7.88 9.091 11.648 1.493 1.786 2.7 3.8 4.182 5.579.428.513.878 1 1.322 1.5.048.053.091.109.139.162a11.69 11.69 0 0 0-1.879.068c-.037.005-.073.015-.109.019v-.067a.941.941 0 0 0-.021-.141.828.828 0 0 0-.046-.92c-2.253-3.341-5.377-5.968-8.048-8.953-3.731-4.166-6.969-8.76-10.286-13.254a115.181 115.181 0 0 1-6.645-9.459 30.682 30.682 0 0 1-2.67-5.7 14.133 14.133 0 0 1-.59-2.609 3.917 3.917 0 0 0 1.339-.566z" class="prefix__cls-3" data-name="Path 7467" transform="translate(-49.999 -86.191)"/>
    <path id="prefix__Path_7475" d="M120.932 114.217c.646.88 1.075 1.9 1.681 2.81.459.689.994 1.332 1.5 1.986q.621.806 1.224 1.621a4.056 4.056 0 0 0 .48.828c.244.4.431.838.68 1.233a.127.127 0 0 0 .061.049 1.777 1.777 0 0 1 .089.484.415.415 0 0 0-.025.224c.127.736-1.531 1.986-1.982 2.4-1 .919-2.059 1.761-3.084 2.645a30.457 30.457 0 0 0-2.978 3.236 34.176 34.176 0 0 1-4.051 4.032h-.07a.543.543 0 0 0-.057-.027c-.359-.479-.724-.955-1.091-1.428-.148-.215-.3-.421-.429-.614a24.032 24.032 0 0 0-1.88-2.351c-.019-.024-.041-.044-.06-.067-.126-.161-.253-.322-.377-.484a39.749 39.749 0 0 0-3.98-4.647.149.149 0 0 0-.187-.025 3.628 3.628 0 0 1 .074-.688 1.517 1.517 0 0 1 .06-.174 57.28 57.28 0 0 1 5.911-6.783 33.721 33.721 0 0 1 4.159-3.65c1.347-.98 3.026-2.388 4.332-.61z" class="prefix__cls-6" data-name="Path 7475" transform="translate(-50.687 -84.407)"/>
    <path id="prefix__Path_7476" d="M82.605 132.573c-1.237.991-2.507 1.941-3.74 2.936-.6.486-1.75 1.522-2.315.648a27.3 27.3 0 0 0-2.247-2.952 21.346 21.346 0 0 0-4.766-4.327c0-.005 0-.013-.009-.018-.1-.116-1.006-.86-.932-.972a6.47 6.47 0 0 1 .507-.659 27.3 27.3 0 0 1 5.4-4.092c.053-.024.1-.049.157-.072.788-.322 1.619-.229 2.386-.476a9.055 9.055 0 0 1 1.7 1.288c.852 1.088 1.59 2.259 2.461 3.362.983 1.246 2.321 2.62 2.689 4.227-.546.393-1.08.934-1.291 1.107z" class="prefix__cls-6" data-name="Path 7476" transform="translate(-53.512 -83.718)"/>
    <path id="prefix__Path_7477" d="M79.582 134.673l-.717.572c-.6.486-1.75 1.522-2.315.648a27.3 27.3 0 0 0-2.25-2.953 21.346 21.346 0 0 0-4.766-4.327c0-.005 0-.013-.009-.018-.1-.116-1.006-.86-.932-.972a6.47 6.47 0 0 1 .507-.659q.458-.419.921-.831a28.6 28.6 0 0 0 6.388 6.373q1.585 1.186 3.173 2.167z" data-name="Path 7477" transform="translate(-53.512 -83.453)" style="fill:#56b09e;fill-rule:evenodd"/>
    <g id="prefix__Group_13742" data-name="Group 13742">
        <path id="prefix__Path_7478" d="M122.993 90.134a5.632 5.632 0 0 0-.711-1.594.294.294 0 0 0-.361-.1c-.423-.2-1.116.208-1.452.379a4.8 4.8 0 0 0-.506.286 5.866 5.866 0 0 1 .011-.835c.016-.167.049-.346.074-.527a.972.972 0 0 0 .024-.618.9.9 0 0 0-.206-.506.336.336 0 0 0-.273-.112.86.86 0 0 0-.646-.048 34.11 34.11 0 0 0-13.038 7.741 21.776 21.776 0 0 0-3.509 2.96 51.279 51.279 0 0 0-5.8 6.64 19.379 19.379 0 0 0-3.334 6.664 7.661 7.661 0 0 0-.19 2.556.854.854 0 0 0-.23.239c-1.106-.164-2.407 0-3.417-.091a21.662 21.662 0 0 0-5.554.3 29.024 29.024 0 0 0-11.157 4.542 63.707 63.707 0 0 0-8.35 6.475c-2.01 1.846-4.093 3.995-5.1 6.59a3.2 3.2 0 0 0-.5 1.326.107.107 0 0 0 .012.082.2.2 0 0 0-.042-.006.114.114 0 0 0-.051.214c.076.034.148.072.224.107a.171.171 0 0 0 .03.061 5.2 5.2 0 0 0 1.809 1.06h.006l.01.005c.016 0 .034.013.049.018a.146.146 0 0 0 .041.012c-.206.142-.4.3-.594.454a3.921 3.921 0 0 0-1.023.849 8.16 8.16 0 0 0-1 1.228c-.1.117-.2.239-.292.363a.191.191 0 0 0-.035.174.106.106 0 0 0 .075.139.124.124 0 0 0 .072.089c.13.046.261.1.392.146.11.064.224.123.336.178.027.014.055.031.083.045a4.288 4.288 0 0 0 1.126.649c.258.124.514.254.77.382-.228.233-.458.465-.693.694a2.838 2.838 0 0 0-.26.248 18.226 18.226 0 0 1-1.465 1.264.474.474 0 0 0-.078.739c7.1 6.107 14.139 12.126 19.771 19.682 5.057 6.782 9.184 14.289 15.3 20.22a.609.609 0 0 0 .861-.023c3.623-4.309 5.957-9.5 9.473-13.885.989-1.235 2.047-2.419 3.153-3.562 1.061-.948 2.05-1.979 3.165-2.874a15.438 15.438 0 0 1 11.049-3.664c1.227.834 3.32-1.343 3.973-2.217a5.49 5.49 0 0 0 1.485-1.482 2.746 2.746 0 0 0 .458-2.375 4.152 4.152 0 0 0 .138-.93q.082-.35.161-.7a11.254 11.254 0 0 1 1.743-3.416c.653-.708 1.3-1.426 1.958-2.127a29.237 29.237 0 0 0 2.441-2.54.626.626 0 0 0 .038-.076c.268-.231.53-.47.8-.687a2.678 2.678 0 0 0 .558-.566c.211-.131.415-.265.63-.392a48.258 48.258 0 0 1 15.9-5.51.161.161 0 0 0 .1.01v.005l.481-.124h.018l.01-.005a15.881 15.881 0 0 0 3.592-1.3c.287-.156.064-.537-.214-.489l-.061.009a.164.164 0 0 0-.051-.193l-.2-.172c.041-.189-.119-.362-.245-.485a.246.246 0 0 0-.118-.061c-.01-.01-.013-.021-.023-.031a.439.439 0 0 0-.088-.243C147.612 122.26 139.7 114.2 134.291 104a118.646 118.646 0 0 0-6.865-11.442c-1.1-1.617-2.674-3.109-4.432-2.42zm-1.749-.406a.425.425 0 0 1 .371.195c.155.246.305.5.456.743a.927.927 0 0 1 .136.277c.053.044.107.078.159.128a.919.919 0 0 1 .277.734 2.645 2.645 0 0 0 .268.473.4.4 0 0 0 .222.146l.543.908c1.217 2.057 2.383 4.143 3.564 6.219a114.445 114.445 0 0 0 8.225 12.87c2.975 3.909 5.939 7.88 9.091 11.649 1.493 1.785 2.7 3.8 4.182 5.578.428.513.878 1 1.322 1.5.048.053.091.109.139.162a11.69 11.69 0 0 0-1.879.068c-.037.005-.073.015-.109.019v-.067a.941.941 0 0 0-.021-.141.83.83 0 0 0-.046-.92c-2.253-3.341-5.377-5.968-8.048-8.953-3.731-4.166-6.969-8.76-10.286-13.254a115.181 115.181 0 0 1-6.645-9.459 30.682 30.682 0 0 1-2.67-5.7 14.133 14.133 0 0 1-.59-2.609 3.917 3.917 0 0 0 1.336-.574zm-26.21 19.5c.157-.4.334-.787.526-1.168-.188.473-.365.947-.523 1.428a2.094 2.094 0 0 0 0-.26zm8.347 56.966c-3.777 4.247-6.056 9.572-9.662 13.953-6.142-6.132-10.38-13.848-15.64-20.7-5.368-6.992-12.063-12.557-18.763-18.193a7.807 7.807 0 0 0 .912-.916 8.522 8.522 0 0 1 4.372 1.7 25.262 25.262 0 0 1 2.076 1.457c.049.041.1.078.152.114.7.544 1.367 1.116 2.026 1.7a.364.364 0 0 0 .159.1 88.136 88.136 0 0 1 8.934 10.455c5.116 6.984 9.706 14.331 15.161 21.063a.541.541 0 0 0 .763-.019c2.075-2.021 2.976-4.806 4.682-7.1 1.879-2.525 4.57-4.552 6.98-6.529 1.27-1.042 2.6-2.171 3.995-3.262a73.6 73.6 0 0 0-6.149 6.175zm2.442-4.778a58.872 58.872 0 0 0-7.1 6.332c-2.22 2.354-3.136 5.559-5.222 7.961-10.6-13.064-18.588-30.114-33.422-39.02.55-.409 1.07-.878 1.611-1.3l.148-.107a21.049 21.049 0 0 1 2.507.93h.033a35.328 35.328 0 0 1 4.979 4.208 88.622 88.622 0 0 1 8.872 11.33c4.542 6.51 8.142 13.631 13.421 19.614a.161.161 0 0 0 0 .141 2.157 2.157 0 0 0 1.214 1.03 24.209 24.209 0 0 1 6.9-9.121c.239-.1.474-.2.708-.319a33.576 33.576 0 0 1 5.632-3.837l.423-.178c.234-.046.469-.1.7-.157a5.458 5.458 0 0 0 2.125-.46c.158-.059.316-.119.473-.181-1.361 1.041-2.685 2.124-4 3.13zm16.314-9.314a3.668 3.668 0 0 0-.478.975.245.245 0 0 0 .015.2c-6.966-.279-13.121 2.216-18.958 5.991a46.871 46.871 0 0 0-6.495 5.358c-1.437 1.346-3.383 2.841-4.358 4.643-5.257-5.391-8.639-12.646-12.926-18.763a117.059 117.059 0 0 0-7.576-9.767 27.186 27.186 0 0 0-3.4-3.231 20.381 20.381 0 0 0-1.494-1.492 11.759 11.759 0 0 0-2.005-1.763c-1.008-.747-2.082-1.464-3.162-2.127l.01-.024c.818-2.6 3.178-4.7 5.1-6.495a66.34 66.34 0 0 1 7.753-6.115 30.119 30.119 0 0 1 10.169-4.439 18.248 18.248 0 0 1 5.8-.29 8.484 8.484 0 0 0 3.033 0c3.1 6.165 7.28 11.7 11.562 17.087a221.1 221.1 0 0 0 14.6 17.309c.219.222.519-.117.327-.345-4.982-5.9-9.634-12.071-14.329-18.2A98.249 98.249 0 0 1 94.5 113.976c-.06-.384-.132-.768-.16-1.153.038-.325.082-.65.139-.976a.219.219 0 0 0 .387-.008c4.5-10.018 12.9-20 23.733-23.336a8.082 8.082 0 0 0 0 1.866l-.026.026a.386.386 0 0 0 .109.574 23.183 23.183 0 0 0 2.271 6.17 74.892 74.892 0 0 0 6.715 10.417c3.174 4.395 6.3 8.781 9.679 13.021 2.674 3.352 6.088 6.237 8.53 9.768-.373-.063-.747-.145-1.107-.2a9.193 9.193 0 0 0-3.217.276 21.024 21.024 0 0 0-8.6 4.452 34.439 34.439 0 0 0-10.806 17.227zm5.42-7.56c-.515.538-1.007 1.1-1.472 1.678.183-.355.369-.707.563-1.055a34.3 34.3 0 0 1 6.555-8 21.539 21.539 0 0 1 8.267-4.744 8.165 8.165 0 0 1 3.747-.273c-.417.147-.83.3-1.236.465a55.433 55.433 0 0 0-7.615 4.158 38.31 38.31 0 0 0-5.928 4.471 12.073 12.073 0 0 0-2.88 3.3zm1.243-47.968c2.805 3.794 4.648 8.332 6.985 12.416 4.633 8.1 11.438 14.789 17.1 22.157q.056.1.1.19c-.027 0-.054 0-.081.006a.6.6 0 0 1 .09.3s.023.2 0 .1c.014.061.026.119.045.177a.548.548 0 0 0 .024.066.419.419 0 0 0 0 .052 1.827 1.827 0 0 1-.174.608l-.06.019a.21.21 0 0 0-.159.176 5.055 5.055 0 0 0-2.313.6c-6.607 1.3-13.6 3.745-19.128 7.867l.02-.017a39.57 39.57 0 0 1 5.576-4.042 61.78 61.78 0 0 1 7.059-3.87 19.513 19.513 0 0 1 2.935-1.009 2.132 2.132 0 0 0 .728-.113 1.058 1.058 0 0 0 .189-.091c.041-.008.081-.019.12-.027a9.893 9.893 0 0 1 1.583-.161.156.156 0 0 0 .167.1c.107 0 .218 0 .33.006a.143.143 0 0 0 .126 0c.228.012.456.03.677.042.2.011.4.024.6.039a.306.306 0 0 0 .329-.154l-.018.013a.175.175 0 0 0 .028-.144.224.224 0 0 0 .134-.258.568.568 0 0 0 0-.275.151.151 0 0 0-.071-.181.815.815 0 0 0-.175-.213c-.785-1.138-2.19-2.363-2.585-2.921-3.141-4.426-6.684-8.58-10.057-12.829a113.392 113.392 0 0 1-8.868-12.687c-2.245-3.783-4.334-7.657-6.628-11.413 2.409-.522 4.172 3.854 5.372 5.471z" class="prefix__cls-1" data-name="Path 7478" transform="translate(-54.311 -86.421)"/>
        <path id="prefix__Path_7479" d="M99.062 128.9c-1.651.692-3.453.86-5.128 1.484A37.709 37.709 0 0 0 88.5 133.3a27.01 27.01 0 0 0-9.223 8.4c-.106.164.144.334.275.2a42.213 42.213 0 0 1 9.328-7.964 38.366 38.366 0 0 1 5.589-2.974c1.562-.59 3.245-.725 4.788-1.389.407-.173.219-.849-.195-.673z" class="prefix__cls-1" data-name="Path 7479" transform="translate(-52.716 -83.249)"/>
        <path id="prefix__Path_7480" d="M102.8 132.252a29.229 29.229 0 0 0-11.789 4.637 34.663 34.663 0 0 0-9.324 8.54c-.123.174.148.337.288.209 2.986-2.769 5.709-5.651 9.114-7.939a28.743 28.743 0 0 1 11.733-4.7c.471-.07.459-.815-.022-.747z" class="prefix__cls-1" data-name="Path 7480" transform="translate(-52.536 -82.996)"/>
        <path id="prefix__Path_7481" d="M105.913 136.745c-.327-.219-.877.014-1.217.091-1.008.23-2.051.262-3.063.519a21.664 21.664 0 0 0-6.009 2.772c-4.023 2.49-8.559 4.972-11.074 9.142-.181.3.279.526.468.248 2.552-3.753 6.6-5.962 10.329-8.352a24.936 24.936 0 0 1 5.412-2.77 16.287 16.287 0 0 1 3.3-.749c.286-.034.559-.054.839-.106l.413-.1h.072a.291.291 0 0 0 .372.085.744.744 0 0 0 .3-.286.372.372 0 0 0-.142-.494z" class="prefix__cls-1" data-name="Path 7481" transform="translate(-52.323 -82.667)"/>
        <path id="prefix__Path_7482" d="M95.852 145.761c-3.26 2.166-6.984 4.486-9.243 7.763-.072.106.093.215.177.129a41.339 41.339 0 0 1 4.375-4.024c1.6-1.223 3.327-2.248 4.97-3.4.286-.202.013-.662-.279-.468z" class="prefix__cls-1" data-name="Path 7482" transform="translate(-52.167 -81.99)"/>
        <path id="prefix__Path_7483" d="M106.667 139.895c-3.513.6-6.747 2.872-9.366 5.194-.141.124.049.337.2.249 3.112-1.791 5.738-4.037 9.382-4.7v-.014a.383.383 0 0 0-.216-.729z" class="prefix__cls-1" data-name="Path 7483" transform="translate(-51.371 -82.425)"/>
        <path id="prefix__Path_7484" d="M110.025 144.07c-2.229.248-4.164 1.488-6.151 2.43-2.5 1.183-4.963 2.277-6.89 4.331a.219.219 0 0 0 .317.3 20.762 20.762 0 0 1 6.222-3.8c2.127-.955 4.176-2.283 6.52-2.609.407-.057.401-.699-.018-.652z" class="prefix__cls-1" data-name="Path 7484" transform="translate(-51.395 -82.113)"/>
        <path id="prefix__Path_7485" d="M111.524 98.49c-3.651 1.353-6.467 4.057-8.987 6.943-2.187 2.505-4.743 5.063-5.525 8.412-.056.241.287.307.365.086 1.1-3.133 3.544-5.553 5.724-7.961 2.484-2.745 5.169-5.276 8.666-6.642.517-.202.285-1.034-.243-.838z" class="prefix__cls-1" data-name="Path 7485" transform="translate(-51.389 -85.521)"/>
        <path id="prefix__Path_7486" d="M112.538 102.375c-6.112 3.338-9.6 9.5-13.131 15.256-.141.23.226.5.388.279 4.017-5.42 6.991-11.506 13.163-14.838.462-.25.042-.948-.42-.697z" class="prefix__cls-1" data-name="Path 7486" transform="translate(-51.212 -85.233)"/>
        <path id="prefix__Path_7487" d="M116.543 107.172c-1-.2-2.257.991-2.973 1.545-1.218.944-2.354 1.993-3.5 3.024a27.161 27.161 0 0 0-3.784 4.031c-1.232 1.664-2.487 3.267-3.781 4.875-.158.2.055.5.286.358 1.4-.877 2.407-2.542 3.361-3.856a24.618 24.618 0 0 1 3.8-4.312c1.067-.925 2.109-1.883 3.193-2.79a23.538 23.538 0 0 1 1.912-1.447c.5-.334 1.1-.5 1.578-.839a.325.325 0 0 0-.092-.589z" class="prefix__cls-1" data-name="Path 7487" transform="translate(-50.982 -84.872)"/>
        <path id="prefix__Path_7488" d="M117.716 113.515a30.481 30.481 0 0 0-4.478 3.57 46.818 46.818 0 0 0-5.809 6.318h-.011c-.508-.044-1.02.9-1.255 1.277a2.183 2.183 0 0 0-.31.811c-.014.03-.033.057-.045.088-.053.135-.158.328-.115.476a.876.876 0 0 0 .136.215c.068.105.128.215.2.317a1.19 1.19 0 0 0 .209.238c.005.01.008.023.012.031a.252.252 0 0 0 .045.057.14.14 0 0 0 .037.1c1.277 1.438 2.659 2.774 3.961 4.189a28.3 28.3 0 0 1 2.01 2.433c.437.6.74 1.4 1.22 1.965a1.045 1.045 0 0 0 .477.535 1.1 1.1 0 0 0 .6.092.806.806 0 0 0 .135.006.266.266 0 0 0 .167-.08.634.634 0 0 0 .224-.145.286.286 0 0 0 .026-.034 1.106 1.106 0 0 0 .189-.145.805.805 0 0 0 .308-.374 19.661 19.661 0 0 0 3.7-3.591 28.636 28.636 0 0 1 3.191-3.247c1.174-.969 2.359-1.93 3.438-3 .163-.162.342-.351.518-.551a.916.916 0 0 0 .533-.423 2.894 2.894 0 0 0 .229-.23 2.929 2.929 0 0 0 .2-.226c.136-.172.341-.376.262-.606a.15.15 0 0 0-.073-.09c0-.053-.009-.105-.016-.155 0-.016-.01-.029-.012-.043l.006-.018a.2.2 0 0 0-.057-.227 1.127 1.127 0 0 0-.185-.579.292.292 0 0 0-.242-.13l-.183-.284c-.667-1.063-1.455-2.052-2.22-3.043-.584-.756-1.219-1.494-1.727-2.3a15.013 15.013 0 0 0-2.243-3.408c-.911-.825-2.171-.348-3.053.222zm3.18.949c.635.862 1.054 1.866 1.648 2.756.45.673.974 1.3 1.469 1.946q.608.787 1.2 1.587a3.993 3.993 0 0 0 .47.81c.239.393.422.821.668 1.209a.131.131 0 0 0 .059.047 1.788 1.788 0 0 1 .087.474.42.42 0 0 0-.024.219c.125.72-1.5 1.946-1.942 2.353-.976.9-2.017 1.726-3.023 2.591a29.787 29.787 0 0 0-2.919 3.172 33.691 33.691 0 0 1-3.968 3.952.5.5 0 0 1-.07 0c-.018-.008-.037-.017-.056-.024q-.529-.706-1.069-1.4c-.144-.212-.291-.414-.419-.6a23.526 23.526 0 0 0-1.847-2.3c-.019-.023-.04-.044-.059-.066l-.369-.474a39.019 39.019 0 0 0-3.9-4.555.145.145 0 0 0-.184-.024 3.568 3.568 0 0 1 .073-.674 1.469 1.469 0 0 1 .06-.171 55.99 55.99 0 0 1 5.792-6.647 32.953 32.953 0 0 1 4.075-3.576c1.324-.969 2.969-2.348 4.252-.605z" class="prefix__cls-1" data-name="Path 7488" transform="translate(-50.74 -84.446)"/>
        <path id="prefix__Path_7489" d="M84.806 131.8l.064-.048a.228.228 0 0 0 .07-.051 3.878 3.878 0 0 0-.26-.675 1.077 1.077 0 0 1-.114-.4c-1.475-1.644-2.478-3.629-3.924-5.318a22.206 22.206 0 0 0-1.684-1.785c-.149-.163-.3-.321-.463-.474a1.648 1.648 0 0 0-.272-.417.2.2 0 0 0-.014-.193 1.758 1.758 0 0 0-.581-.479c-.048-.043-.1-.083-.147-.121a.446.446 0 0 0-.031-.092 3.173 3.173 0 0 0-.412-.12c-.286.043-.573.087-.858.142a5.944 5.944 0 0 1-1.2.349 11.891 11.891 0 0 0-1.269.746c-.569.307-1.077.635-1.427.864a12.46 12.46 0 0 0-3.98 4c-.052.068-.106.135-.157.2a.18.18 0 0 0 .073.281c.009.012.014.023.023.032l.006.006c-.084.029-.139.132-.053.2a40.5 40.5 0 0 1 6.487 6.028 22.9 22.9 0 0 0 1.726 2.405c.35.333.705.246 1.122.078a18.348 18.348 0 0 0 4.236-2.832c.674-.534 1.346-1.07 2.028-1.594.238-.182.477-.36.721-.53.095-.068.192-.132.286-.2zm-2.293.787c-1.211.972-2.456 1.9-3.663 2.877-.588.476-1.715 1.492-2.269.635a27 27 0 0 0-2.2-2.893 21.043 21.043 0 0 0-4.672-4.241c-.005-.006 0-.012-.008-.017-.1-.114-.986-.843-.915-.953a6.639 6.639 0 0 1 .5-.644 26.806 26.806 0 0 1 5.29-4.012c.052-.021.1-.048.153-.069.773-.316 1.586-.225 2.338-.466a8.8 8.8 0 0 1 1.665 1.261c.836 1.066 1.558 2.215 2.412 3.3.964 1.22 2.276 2.568 2.633 4.141-.535.381-1.057.915-1.265 1.081z" class="prefix__cls-1" data-name="Path 7489" transform="translate(-53.548 -83.79)"/>
        <path id="prefix__Path_7490" d="M90.184 116.346c-3.277.586-7.19 2.06-9.433 4.637-.155.176.071.5.27.337a21.117 21.117 0 0 1 9.352-4.328c.427-.081.227-.722-.189-.646z" class="prefix__cls-1" data-name="Path 7490" transform="translate(-52.608 -84.185)"/>
        <path id="prefix__Path_7491" d="M93.366 119.832a8.376 8.376 0 0 0-2.36.645 31.487 31.487 0 0 0-2.979 1.156c-1.564.705-4.02 1.712-4.7 3.454-.066.169.139.357.277.2a13.073 13.073 0 0 1 4.948-3.192c.946-.4 1.914-.742 2.889-1.053a16.148 16.148 0 0 0 2.1-.63c.292-.14.119-.584-.175-.58z" class="prefix__cls-1" data-name="Path 7491" transform="translate(-52.412 -83.924)"/>
        <path id="prefix__Path_7492" d="M95.168 123.3c-.481-.183-1.1.268-1.542.436-.926.345-1.865.654-2.782 1.023a23.387 23.387 0 0 0-4.708 2.813c-.126.091-.095.356.1.326a5.944 5.944 0 0 0 2.073-1.025 16.5 16.5 0 0 1 2.732-1.451c.921-.357 1.859-.665 2.789-1 .415-.146 1.382-.331 1.462-.864a.239.239 0 0 0-.124-.258z" class="prefix__cls-1" data-name="Path 7492" transform="translate(-52.207 -83.668)"/>
        <path id="prefix__Path_7493" d="M112.685 90.582a8.016 8.016 0 0 0-3.554 1.154 8.454 8.454 0 0 0-2.854 2.1c-.095.128.078.3.183.175 1.277-1.567 3.935-2.621 5.878-2.913 1.479-.221 1.6 1.185 1.815 2.338a11.681 11.681 0 0 0 2.1 4.577c.082.105.277.046.229-.1a21.8 21.8 0 0 0-1.4-2.871 9.694 9.694 0 0 1-.835-2.766c-.194-1.032-.433-1.688-1.562-1.694z" class="prefix__cls-1" data-name="Path 7493" transform="translate(-50.698 -86.11)"/>
        <path id="prefix__Path_7494" d="M116.463 98.563a2.714 2.714 0 0 0 1.441 1.914.13.13 0 0 0 .153-.162 3.7 3.7 0 0 0-.615-.9 7.129 7.129 0 0 1-.648-1c-.104-.184-.377-.046-.331.148z" class="prefix__cls-1" data-name="Path 7494" transform="translate(-49.935 -85.531)"/>
        <path id="prefix__Path_7495" d="M97.533 95.9a41.106 41.106 0 0 0-5.551 5.567 14.221 14.221 0 0 0-3.19 6.426c-.021.143.193.25.255.1a21.306 21.306 0 0 1 3.607-6.4 60.861 60.861 0 0 1 5.38-5.216c.334-.301-.17-.767-.501-.477z" class="prefix__cls-1" data-name="Path 7495" transform="translate(-52.003 -85.72)"/>
        <path id="prefix__Path_7496" d="M99.864 93.071a4.853 4.853 0 0 0-.949.858 5.842 5.842 0 0 1-.658.723.206.206 0 0 0 .213.354 7.051 7.051 0 0 0 1.81-1.418.336.336 0 0 0-.416-.517z" class="prefix__cls-1" data-name="Path 7496" transform="translate(-51.303 -85.928)"/>
        <path id="prefix__Path_7497" d="M73.6 112.529c-.854-.583-2.479.448-3.224.852a41.989 41.989 0 0 0-4.861 3.263c-3.445 2.55-6.99 5.169-9.163 8.971-.12.212.205.458.355.257a40.429 40.429 0 0 1 8.986-8.442c1.37-1.01 2.757-2 4.209-2.9a14.57 14.57 0 0 1 2.16-1.126c.49-.2.994-.2 1.484-.35a.291.291 0 0 0 .054-.525z" class="prefix__cls-1" data-name="Path 7497" transform="translate(-54.429 -84.483)"/>
        <path id="prefix__Path_7498" d="M58.929 118.769a11.547 11.547 0 0 0-2.386 2.477 15.1 15.1 0 0 0-1.967 2.965.151.151 0 0 0 .241.174 16.014 16.014 0 0 0 1.9-2.5 12.583 12.583 0 0 1 2.513-2.627c.287-.217.003-.706-.301-.489z" class="prefix__cls-1" data-name="Path 7498" transform="translate(-54.561 -84.008)"/>
        <path id="prefix__Path_7499" d="M143.988 134.431a12.173 12.173 0 0 0-2.978.452 36.223 36.223 0 0 0-4.146.852c-2.019.576-4.508.955-5.95 2.618a.184.184 0 0 0 .267.254c1.477-1.49 3.913-1.743 5.862-2.257a35.321 35.321 0 0 1 3.695-.706c.826-.127 1.83-.422 2.718-.472a.3.3 0 0 0 .261.058 1.279 1.279 0 0 0 .379-.113c.263-.15.226-.649-.108-.686z" class="prefix__cls-1" data-name="Path 7499" transform="translate(-48.858 -82.834)"/>
        <path id="prefix__Path_7500" d="M129.9 139.118c-.548-.075-1.185.473-1.572.8-.2.168.067.462.276.342.255-.145.5-.318.746-.474a2.5 2.5 0 0 0 .621-.434.145.145 0 0 0-.071-.234z" class="prefix__cls-1" data-name="Path 7500" transform="translate(-49.053 -82.483)"/>
    </g>
</svg>
