<svg xmlns="http://www.w3.org/2000/svg" width="198.912" height="44.504" viewBox="0 0 198.912 44.504">
    <defs>
        <style>
            .prefix__cls-1{fill:#001563}.prefix__cls-2{fill:#bcad6f}
        </style>
    </defs>
    <g id="prefix__Group_13520" data-name="Group 13520" transform="translate(-72.212 -407.643)">
        <g id="prefix__Group_13516" data-name="Group 13516" transform="translate(119.057 415.148)">
            <g id="prefix__Group_13513" data-name="Group 13513">
                <path id="prefix__Path_7032" d="M352.37 451.844q.381-.117.625.517l5.683 14.693a7.746 7.746 0 0 0 .861 1.559 2.271 2.271 0 0 0 .861.7 5.522 5.522 0 0 0 1.269.145l.109.1q0 .308-.28.308l-.752.045q-4.868 0-4.895-.182v-.208a.6.6 0 0 1 .38-.136.521.521 0 0 0 .173-.344l-1.867-5.148-.136-.064h-5.057l-.172.272-1.314 3.616-.172.761q-.037.7.235.834l.281.109a3.419 3.419 0 0 1 1.005.073c.067.181.027.305-.118.371q-2.23-.064-5.538 0l-.136-.136.036-.235.236-.073a2.239 2.239 0 0 0 1.55-.38 4.7 4.7 0 0 0 1.134-1.985l5.619-14.656a1.187 1.187 0 0 1 .38-.556zm-2.62 10.7l.036.109h4.287l-2.121-6.055-.136.136z" class="prefix__cls-1" data-name="Path 7032" transform="translate(-343.415 -451.699)"/>
                <path id="prefix__Path_7033" d="M440.478 490.652q2.317.09 4.107 0 .221.045.2.113l-.062.153a2.294 2.294 0 0 0-.822.152l-.2.221a7.315 7.315 0 0 0-.13 1.858v4.13a13.468 13.468 0 0 0 .108 1.371l.2.8a2.66 2.66 0 0 0 2.169 1.768 2.9 2.9 0 0 0 2.476-.861 4.389 4.389 0 0 0 .725-2.566v-5.7a1.385 1.385 0 0 0-.2-.883l-.2-.159a4.941 4.941 0 0 0-.952-.13.206.206 0 0 1-.039-.176l.176-.091 2.3.045 1.235-.045.176.091-.023.153-.085.045a2.317 2.317 0 0 0-.662.068.688.688 0 0 0-.357.351 2.732 2.732 0 0 0-.085.685l-.022 5.371a5.4 5.4 0 0 1-1.043 3.246 4.12 4.12 0 0 1-2.957 1.371 8.875 8.875 0 0 1-1.286-.045 3.563 3.563 0 0 1-3.092-2.254 5.3 5.3 0 0 1-.306-1.145l-.091-.844v-5.059l-.045-1.059a.7.7 0 0 0-.4-.578l-.2-.063-.709-.045-.107-.113c.005-.117.07-.176.203-.176z" class="prefix__cls-1" data-name="Path 7033" transform="translate(-423.548 -483.819)"/>
                <path id="prefix__Path_7034" d="M511.366 490.881l1.376.045h1.326l1.235-.045.182.068a.2.2 0 0 1-.068.216 2.09 2.09 0 0 0-.833.141q-.335.181-.317 1.172v8.492a7.512 7.512 0 0 1-.153 1.263 4.96 4.96 0 0 1-.47 1.263A6.263 6.263 0 0 1 512 505.3a9.752 9.752 0 0 1-1.422.828q-.437.028-.188-.255a3.7 3.7 0 0 0 1.088-.866 3.772 3.772 0 0 0 .776-1.739 11.438 11.438 0 0 0 .141-1.291l.022-.278-.017-9.812a.855.855 0 0 0-.266-.521l-.249-.114-.317-.068-.459-.017q-.289-.107-.045-.26z" class="prefix__cls-1" data-name="Path 7034" transform="translate(-481.474 -484.008)"/>
                <path id="prefix__Path_7035" d="M580.644 451.092q3.454.145 6.762 0l.281.145c.024.188 0 .281-.073.281l-1.25.109-.472.217a1.406 1.406 0 0 0-.362.861l-.072 2.882v8.846a6.646 6.646 0 0 0 .4 2.918q.289.427 1.9.607a16.11 16.11 0 0 0 2.592-.072 2.068 2.068 0 0 0 1.151-.607 4.127 4.127 0 0 0 .616-1.695l.245-.109q.216.108.181.254a11.242 11.242 0 0 1-.5 3.344q-.218.29-1.332.29l-5.828-.145-4.178.036-.173-.145v-.182l.136-.109q1.187 0 1.405-.317a5.366 5.366 0 0 0 .435-2.738v-12.55a1.885 1.885 0 0 0-.362-1.3 3.218 3.218 0 0 0-1.759-.4q-.177-.348.257-.421z" class="prefix__cls-1" data-name="Path 7035" transform="translate(-539.414 -451.092)"/>
                <path id="prefix__Path_7036" d="M661.861 491.153q.238-.074.391.323l3.552 9.183a4.766 4.766 0 0 0 .538.974 1.412 1.412 0 0 0 .538.436 3.457 3.457 0 0 0 .793.091l.069.063c0 .128-.059.192-.176.192l-.47.028a15.766 15.766 0 0 1-3.059-.113v-.13a.375.375 0 0 1 .238-.085.322.322 0 0 0 .108-.215l-1.167-3.217-.085-.04h-3.161l-.108.17-.821 2.26-.108.476q-.022.437.147.521l.176.068a2.159 2.159 0 0 1 .629.045q.062.171-.074.232-1.393-.039-3.462 0l-.085-.085.023-.147.147-.045a1.4 1.4 0 0 0 .968-.237 2.937 2.937 0 0 0 .708-1.241l3.512-9.161a.744.744 0 0 1 .239-.346zm-1.637 6.684l.023.069h2.679l-1.326-3.785-.085.086z" class="prefix__cls-1" data-name="Path 7036" transform="translate(-602.226 -484.224)"/>
                <path id="prefix__Path_7037" d="M708.6 490.781l2.181.045 1.28-.045a.234.234 0 0 1 .2.091c.015.117 0 .176-.045.176l-.482.039a.575.575 0 0 0-.221.2 2.05 2.05 0 0 0 .13.906q.731 2.692 1.983 6.838h.045l2.827-7.851q.175-.374.328-.328c.072 0 .176.152.312.458l3.019 7.591.045.045 2.027-7.172c.016-.351-.007-.527-.068-.527a.473.473 0 0 0-.283-.159l-.442-.017q-.153-.09-.136-.158c.015-.072.089-.115.221-.13l1.943.045.946-.045a.364.364 0 0 1 .181.108l-.068.159-.549.063a.683.683 0 0 0-.4.334 19.979 19.979 0 0 0-.9 2.447l-2.583 8q-.153.288-.221.243a.264.264 0 0 1-.243-.108l-.572-1.348-2.667-6.64q-2.4 6.532-2.737 7.234l-.4.793q-.329.2-.465-.306l-2.929-9.132-.38-1.037c-.143-.264-.268-.412-.374-.441a1.427 1.427 0 0 0-.617-.086L708.4 491c-.033-.13.032-.2.2-.219z" class="prefix__cls-1" data-name="Path 7037" transform="translate(-645.348 -483.926)"/>
                <path id="prefix__Path_7038" d="M807.823 490.816q1.189.068 2.447.045l1.127-.045.108.045.022.045v.107q-.266.159-.357.136a.29.29 0 0 0-.159.34 4.307 4.307 0 0 0 .362.81l2.226 3.954.023.09h.039l.544-1.076 1.637-3.036.182-.652a.452.452 0 0 0-.045-.294l-.2-.159q-.339-.022-.339-.159a.174.174 0 0 1 .158-.153 26.939 26.939 0 0 0 3.122 0 .183.183 0 0 1 .181.091l-.045.152-.09.045a1.208 1.208 0 0 0-.583.091 2.637 2.637 0 0 0-.493.295q-.538.334-2.787 4.361a6.516 6.516 0 0 0-.561 1.167 7.449 7.449 0 0 0-.135 1.954q-.023 1.105.045 2.119a1.227 1.227 0 0 0 .13.47.751.751 0 0 0 .318.249l1.014.085c.087.061.117.121.091.182l-.113.091q-2.544-.046-4.453 0l-.113-.091c-.015-.091 0-.144.045-.159l.72-.091a.4.4 0 0 0 .249-.176q.289-.2.221-3.665a4.2 4.2 0 0 0-.158-.856 4.281 4.281 0 0 0-.425-.9q-1.688-2.923-2.583-4.248a3.568 3.568 0 0 0-.652-.652l-.476-.2-.334-.022c-.06-.015-.091-.074-.091-.176z" class="prefix__cls-1" data-name="Path 7038" transform="translate(-727.455 -483.954)"/>
                <path id="prefix__Path_7039" d="M882.355 490.481q1.546.068 5.863.045a3.145 3.145 0 0 0 .8-.159c.076-.015.121.007.136.068l-.136 1.184-.045.844a.223.223 0 0 1-.136.187l-.153-.068a1.8 1.8 0 0 0-.159-.833.869.869 0 0 0-.379-.289 4.687 4.687 0 0 0-.946-.13l-1.705-.023-.022.045.022 4 2.516-.023.447-.113.317-.311c.087 0 .138.03.153.09q-.131.958-.176 2.277c-.03.106-.068.159-.113.159l-.159-.045a1.824 1.824 0 0 0-.158-.849.8.8 0 0 0-.425-.312 13.385 13.385 0 0 0-2.424-.068v3.869q.068.606.334.759a2.372 2.372 0 0 0 .742.2 4.7 4.7 0 0 0 2.068-.176l.312-.266.2-.425.091-.516q.09-.181.243-.091l.051.2q-.028.606-.164 1.569-.108.72-.787.555l-3.683-.085-2.4.017-.107-.085c-.016-.091 0-.144.04-.159l.725-.085q.266-.022.38-.583a11.564 11.564 0 0 0 .091-1.812V491.8a1.17 1.17 0 0 0-.227-.8.868.868 0 0 0-.493-.2l-.629-.023c-.087-.03-.124-.083-.113-.159.064-.109.132-.152.208-.137z" class="prefix__cls-1" data-name="Path 7039" transform="translate(-789.093 -483.58)"/>
                <path id="prefix__Path_7040" d="M931.874 490.669l2.731.045 1.829-.045a7 7 0 0 1 1.15.136 2.845 2.845 0 0 1 1.581.9 2.9 2.9 0 0 1 .583 1.468 3.71 3.71 0 0 1-.516 2.079 5.6 5.6 0 0 1-.634.81l-.765.726 2.345 3.025a10.717 10.717 0 0 0 1.309 1.4l.249.176a2.656 2.656 0 0 0 1.4.408c.091.06.1.144.023.249l-.249.045q-1.15.023-2.209-.045a2.346 2.346 0 0 1-1.2-.567 7.926 7.926 0 0 1-1.2-1.4l-1.688-2.459a.452.452 0 0 0-.295-.226 9.558 9.558 0 0 0-1.422 0 21.363 21.363 0 0 0 .135 3.948c.121.226.217.34.289.34l1.065.135c.06.151.03.235-.091.249q-2.465-.045-4.289 0l-.113-.091c-.016-.09 0-.143.045-.159l.719-.09q.273-.024.385-.583a11.789 11.789 0 0 0 .091-1.83V492a1.164 1.164 0 0 0-.227-.81.861.861 0 0 0-.5-.2l-.628-.023q-.136-.045-.114-.159c.067-.108.137-.154.211-.139zm3.026.878v4.853q.113.159.878.249a2.988 2.988 0 0 0 1.128-.091 2.562 2.562 0 0 0 1.11-2.237q.022-2.482-1.943-2.912c-.673-.043-1.068.002-1.173.138z" class="prefix__cls-1" data-name="Path 7040" transform="translate(-830.058 -483.83)"/>
                <path id="prefix__Path_7041" d="M1005.131 498.827a.183.183 0 0 1 .176.068q.107 2.084 1.785 2.368a2.385 2.385 0 0 0 1.11-.085 1.763 1.763 0 0 0 1.128-1.371 2.752 2.752 0 0 0-.039-.7 2.567 2.567 0 0 0-.244-.629l-.237-.351-.7-.7a15.041 15.041 0 0 1-1.677-1.416 4.822 4.822 0 0 1-.782-1 3.031 3.031 0 0 1-.022-3.116 3.231 3.231 0 0 1 2.5-1.3 7.728 7.728 0 0 1 1.7.107q.737.153.72.238l-.045 1v1.02c-.031.163-.066.244-.107.244-.118.015-.176 0-.176-.045l-.108-.629a1.969 1.969 0 0 0-.957-1.093 2.5 2.5 0 0 0-1.178-.148 1.5 1.5 0 0 0-1.349 1.326v.306a1.485 1.485 0 0 0 .176.584l.306.436.475.481q1.592 1.241 1.785 1.456a3.755 3.755 0 0 1 1.263 4.113 3.306 3.306 0 0 1-3.093 2.005 7.354 7.354 0 0 1-1.172-.045 5.044 5.044 0 0 1-.85-.192c-.332-.132-.5-.213-.5-.244l-.09-.17q-.024-.827.068-2.266a.376.376 0 0 1 .134-.252z" class="prefix__cls-1" data-name="Path 7041" transform="translate(-890.665 -483.769)"/>
                <path id="prefix__Path_7042" d="M1078.856 490.682q2.158.092 4.226 0l.176.091c.015.118 0 .176-.045.176l-.781.068-.295.136a.873.873 0 0 0-.226.538l-.045 1.8v5.528a4.157 4.157 0 0 0 .249 1.824q.181.267 1.189.38a10.076 10.076 0 0 0 1.62-.045 1.286 1.286 0 0 0 .719-.379 2.572 2.572 0 0 0 .386-1.059l.152-.068c.091.045.129.1.114.159a7.035 7.035 0 0 1-.312 2.09q-.136.182-.833.182l-3.642-.091-2.612.022-.107-.09v-.114l.085-.068q.742 0 .878-.2a3.357 3.357 0 0 0 .272-1.711v-7.846a1.181 1.181 0 0 0-.226-.81 2.011 2.011 0 0 0-1.1-.249c-.076-.146-.023-.233.158-.264z" class="prefix__cls-1" data-name="Path 7042" transform="translate(-951.664 -483.844)"/>
                <path id="prefix__Path_7043" d="M1128.48 490.682q2.158.092 4.226 0l.176.091c.015.118 0 .176-.045.176l-.781.068-.295.136a.873.873 0 0 0-.226.538l-.045 1.8v5.528a4.161 4.161 0 0 0 .249 1.824q.181.267 1.19.38a10.072 10.072 0 0 0 1.62-.045 1.286 1.286 0 0 0 .719-.379 2.574 2.574 0 0 0 .385-1.059l.153-.068c.091.045.129.1.114.159a7.032 7.032 0 0 1-.312 2.09q-.136.182-.833.182l-3.642-.091-2.612.022-.107-.09v-.114l.085-.068q.743 0 .878-.2a3.357 3.357 0 0 0 .272-1.711v-7.846a1.181 1.181 0 0 0-.226-.81 2.012 2.012 0 0 0-1.1-.249c-.078-.146-.023-.233.157-.264z" class="prefix__cls-1" data-name="Path 7043" transform="translate(-992.716 -483.844)"/>
                <path id="prefix__Path_7044" d="M1177.769 490.8l2.765.045 1.841-.045a5.033 5.033 0 0 1 1.507.267 2.959 2.959 0 0 1 .787.452 2.74 2.74 0 0 1 .674.941 2.932 2.932 0 0 1 .2.878 4.258 4.258 0 0 1-.339 1.756 3.4 3.4 0 0 1-2.946 2c-.541.045-.81 0-.81-.136l.068-.158.159-.04a1.86 1.86 0 0 0 1.666-.9 2.6 2.6 0 0 0 .47-1.416 3.137 3.137 0 0 0-.561-2.091 2.841 2.841 0 0 0-.81-.674l-.7-.2a2.354 2.354 0 0 0-.788.045l-.113.159v8.18a4.42 4.42 0 0 0 .2 1.711l.227.2a8.313 8.313 0 0 0 1.1.107.146.146 0 0 1 .091.136.16.16 0 0 1-.136.136q-2.537-.046-4.43 0l-.107-.091c-.016-.091 0-.144.039-.159l.72-.085q.271-.022.385-.59a11.63 11.63 0 0 0 .091-1.818v-7.285a1.177 1.177 0 0 0-.227-.81.85.85 0 0 0-.493-.2l-.629-.022c-.09-.031-.128-.081-.113-.153.068-.107.136-.152.212-.14z" class="prefix__cls-1" data-name="Path 7044" transform="translate(-1033.479 -483.941)"/>
            </g>
            <g id="prefix__Group_13515" data-name="Group 13515" transform="translate(0 25.397)">
                <g id="prefix__Group_13514" data-name="Group 13514">
                    <path id="prefix__Path_7045" d="M344.624 598.537h.648l1.209 3.949h-.553l-.291-1.029h-1.383l-.285 1.029h-.554zm.323.471l-.563 2.021h1.126z" class="prefix__cls-1" data-name="Path 7045" transform="translate(-343.415 -598.466)"/>
                    <path id="prefix__Path_7046" d="M375.55 598.537a1.694 1.694 0 0 1 1.333.481 2.817 2.817 0 0 1 0 2.988 1.7 1.7 0 0 1-1.333.48h-.8v-3.949zm-.011 3.51a1.148 1.148 0 0 0 .942-.332 1.982 1.982 0 0 0 .267-1.2 2.009 2.009 0 0 0-.266-1.208 1.151 1.151 0 0 0-.943-.332h-.254v3.071z" class="prefix__cls-1" data-name="Path 7046" transform="translate(-369.337 -598.466)"/>
                    <path id="prefix__Path_7047" d="M404.8 602.036l.928-3.5h.553l-1.156 3.949h-.648l-1.156-3.949h.553z" class="prefix__cls-1" data-name="Path 7047" transform="translate(-392.971 -598.466)"/>
                    <path id="prefix__Path_7048" d="M436.677 600.174a2.891 2.891 0 0 1-.327 1.54 1.231 1.231 0 0 1-1.991 0 3.812 3.812 0 0 1 0-3.084 1.228 1.228 0 0 1 1.989 0 2.9 2.9 0 0 1 .329 1.544zm-.558 0a3.105 3.105 0 0 0-.179-1.244.644.644 0 0 0-1.169 0 4.4 4.4 0 0 0 0 2.484.646.646 0 0 0 1.169 0 3.1 3.1 0 0 0 .179-1.24z" class="prefix__cls-1" data-name="Path 7048" transform="translate(-418.381 -598.124)"/>
                    <path id="prefix__Path_7049" d="M466.643 602a1.8 1.8 0 0 1-.873.217 1.408 1.408 0 0 1-1.178-.537 2.921 2.921 0 0 1 0-3.02 1.406 1.406 0 0 1 1.175-.541 1.807 1.807 0 0 1 .873.216v.548a1.471 1.471 0 0 0-.421-.246 1.283 1.283 0 0 0-.453-.085.867.867 0 0 0-.78.4 2.968 2.968 0 0 0 0 2.426.866.866 0 0 0 .78.4 1.279 1.279 0 0 0 .457-.084 1.456 1.456 0 0 0 .417-.246z" class="prefix__cls-1" data-name="Path 7049" transform="translate(-443.314 -598.124)"/>
                    <path id="prefix__Path_7050" d="M493.61 598.537h.648l1.209 3.949h-.553l-.291-1.029h-1.383l-.285 1.029h-.555zm.323.471l-.563 2.021h1.13z" class="prefix__cls-1" data-name="Path 7050" transform="translate(-466.667 -598.466)"/>
                    <path id="prefix__Path_7051" d="M522.357 598.537h3.013v.449h-1.235v3.5h-.535v-3.5h-1.241z" class="prefix__cls-1" data-name="Path 7051" transform="translate(-491.448 -598.466)"/>
                    <path id="prefix__Path_7052" d="M554.447 598.537h2.344v.449h-1.809v1.064h1.729v.449h-1.729v1.537h1.859v.45h-2.394z" class="prefix__cls-1" data-name="Path 7052" transform="translate(-517.995 -598.466)"/>
                    <path id="prefix__Path_7053" d="M585.668 598.33v.542a2.115 2.115 0 0 0-.488-.235 1.575 1.575 0 0 0-.493-.08.931.931 0 0 0-.6.176.577.577 0 0 0-.219.475.524.524 0 0 0 .144.4 1.2 1.2 0 0 0 .538.23l.281.064a1.553 1.553 0 0 1 .81.407 1.082 1.082 0 0 1 .254.757 1.065 1.065 0 0 1-.349.86 1.531 1.531 0 0 1-1.016.3 2.68 2.68 0 0 1-.558-.059 3.114 3.114 0 0 1-.563-.179v-.568a2.659 2.659 0 0 0 .575.283 1.717 1.717 0 0 0 .546.089.979.979 0 0 0 .63-.181.708.708 0 0 0 .07-.959 1.09 1.09 0 0 0-.538-.24l-.285-.066a1.613 1.613 0 0 1-.8-.376.915.915 0 0 1-.249-.674 1.084 1.084 0 0 1 .355-.848 1.365 1.365 0 0 1 .946-.318 2.365 2.365 0 0 1 .478.051 3.656 3.656 0 0 1 .531.149z" class="prefix__cls-1" data-name="Path 7053" transform="translate(-541.913 -598.124)"/>
                    <path id="prefix__Path_7054" d="M642.992 599.745l1.1 1.479a.858.858 0 0 0 .154-.328 1.975 1.975 0 0 0 .05-.473c0-.056 0-.146-.008-.27v-.018h.433v.1a2.564 2.564 0 0 1-.1.747 1.522 1.522 0 0 1-.3.554l.45.606h-.563l-.207-.288a1.487 1.487 0 0 1-.992.365 1.316 1.316 0 0 1-.945-.356 1.184 1.184 0 0 1-.372-.9 1.3 1.3 0 0 1 .182-.672 1.928 1.928 0 0 1 .55-.574 1.529 1.529 0 0 1-.2-.373 1.124 1.124 0 0 1-.064-.37.79.79 0 0 1 .264-.627 1.058 1.058 0 0 1 .721-.23 1.93 1.93 0 0 1 .345.032 2.733 2.733 0 0 1 .358.092v.484a1.212 1.212 0 0 0-.321-.153 1.232 1.232 0 0 0-.348-.049.623.623 0 0 0-.4.12.4.4 0 0 0-.149.324.789.789 0 0 0 .077.327 2.558 2.558 0 0 0 .285.451zm-.347.275a1.412 1.412 0 0 0-.363.409.924.924 0 0 0-.12.459.9.9 0 0 0 .264.662.916.916 0 0 0 .674.264.9.9 0 0 0 .233-.032 1.116 1.116 0 0 0 .238-.092c.048-.026.087-.05.118-.07a.986.986 0 0 0 .089-.065z" class="prefix__cls-1" data-name="Path 7054" transform="translate(-590.174 -598.124)"/>
                    <path id="prefix__Path_7055" d="M705.021 602a1.8 1.8 0 0 1-.873.217 1.408 1.408 0 0 1-1.178-.537 2.92 2.92 0 0 1 0-3.02 1.406 1.406 0 0 1 1.175-.541 1.807 1.807 0 0 1 .873.216v.548a1.466 1.466 0 0 0-.421-.246 1.283 1.283 0 0 0-.453-.085.867.867 0 0 0-.78.4 2.968 2.968 0 0 0 0 2.426.866.866 0 0 0 .78.4 1.277 1.277 0 0 0 .456-.084 1.455 1.455 0 0 0 .417-.246z" class="prefix__cls-1" data-name="Path 7055" transform="translate(-640.517 -598.124)"/>
                    <path id="prefix__Path_7056" d="M734.649 600.174a2.891 2.891 0 0 1-.327 1.54 1.231 1.231 0 0 1-1.991 0 3.812 3.812 0 0 1 0-3.084 1.228 1.228 0 0 1 1.989 0 2.9 2.9 0 0 1 .329 1.544zm-.558 0a3.105 3.105 0 0 0-.179-1.244.644.644 0 0 0-1.169 0 4.4 4.4 0 0 0 0 2.484.646.646 0 0 0 1.169 0 3.1 3.1 0 0 0 .179-1.24z" class="prefix__cls-1" data-name="Path 7056" transform="translate(-664.885 -598.124)"/>
                    <path id="prefix__Path_7057" d="M763.837 600.622a.749.749 0 0 1 .352.2 2.46 2.46 0 0 1 .362.586l.537 1.079h-.574l-.471-1a1.567 1.567 0 0 0-.367-.549.685.685 0 0 0-.424-.123h-.511v1.669h-.537v-3.949h1.1a1.5 1.5 0 0 1 1 .294 1.049 1.049 0 0 1 .347.849.944.944 0 0 1-.213.639.934.934 0 0 1-.601.305zm-1.095-1.646v1.4h.584a.822.822 0 0 0 .571-.172.678.678 0 0 0 .188-.526.667.667 0 0 0-.2-.522.836.836 0 0 0-.581-.182z" class="prefix__cls-1" data-name="Path 7057" transform="translate(-689.867 -598.466)"/>
                    <path id="prefix__Path_7058" d="M792.825 598.537h1.154a1.478 1.478 0 0 1 1 .3 1.312 1.312 0 0 1 0 1.763 1.477 1.477 0 0 1-1 .3h-.619v1.588h-.535zm.535.439v1.485h.619a.81.81 0 0 0 .578-.2.827.827 0 0 0 0-1.094.813.813 0 0 0-.579-.194z" class="prefix__cls-1" data-name="Path 7058" transform="translate(-715.198 -598.466)"/>
                    <path id="prefix__Path_7059" d="M824.041 600.174a2.891 2.891 0 0 1-.327 1.54 1.231 1.231 0 0 1-1.991 0 3.812 3.812 0 0 1 0-3.084 1.228 1.228 0 0 1 1.989 0 2.9 2.9 0 0 1 .329 1.544zm-.558 0a3.1 3.1 0 0 0-.179-1.244.644.644 0 0 0-1.169 0 4.406 4.406 0 0 0 0 2.484.646.646 0 0 0 1.169 0 3.1 3.1 0 0 0 .179-1.24z" class="prefix__cls-1" data-name="Path 7059" transform="translate(-738.836 -598.124)"/>
                    <path id="prefix__Path_7060" d="M853.229 600.622a.75.75 0 0 1 .352.2 2.459 2.459 0 0 1 .362.586l.537 1.079h-.574l-.471-1a1.569 1.569 0 0 0-.366-.549.685.685 0 0 0-.424-.123h-.511v1.669h-.534v-3.949h1.1a1.5 1.5 0 0 1 1 .294 1.049 1.049 0 0 1 .347.849.944.944 0 0 1-.213.639.934.934 0 0 1-.605.305zm-1.095-1.646v1.4h.584a.822.822 0 0 0 .572-.172.678.678 0 0 0 .188-.526.667.667 0 0 0-.2-.522.835.835 0 0 0-.581-.182z" class="prefix__cls-1" data-name="Path 7060" transform="translate(-763.819 -598.466)"/>
                    <path id="prefix__Path_7061" d="M880.975 598.537h.648l1.209 3.949h-.553l-.291-1.029H880.6l-.285 1.029h-.553zm.323.471l-.563 2.021h1.126z" class="prefix__cls-1" data-name="Path 7061" transform="translate(-787.122 -598.466)"/>
                    <path id="prefix__Path_7062" d="M909.721 598.537h3.013v.449H911.5v3.5h-.537v-3.5h-1.241z" class="prefix__cls-1" data-name="Path 7062" transform="translate(-811.903 -598.466)"/>
                    <path id="prefix__Path_7063" d="M941.816 598.537h2.344v.449h-1.809v1.064h1.73v.449h-1.73v1.537h1.859v.45h-2.394z" class="prefix__cls-1" data-name="Path 7063" transform="translate(-838.454 -598.466)"/>
                    <path id="prefix__Path_7064" d="M1002.993 602a1.8 1.8 0 0 1-.873.217 1.409 1.409 0 0 1-1.178-.537 2.92 2.92 0 0 1 0-3.02 1.406 1.406 0 0 1 1.175-.541 1.807 1.807 0 0 1 .873.216v.548a1.468 1.468 0 0 0-.421-.246 1.282 1.282 0 0 0-.453-.085.866.866 0 0 0-.78.4 2.967 2.967 0 0 0 0 2.426.866.866 0 0 0 .78.4 1.278 1.278 0 0 0 .457-.084 1.458 1.458 0 0 0 .417-.246z" class="prefix__cls-1" data-name="Path 7064" transform="translate(-887.02 -598.124)"/>
                    <path id="prefix__Path_7065" d="M1032.625 600.174a2.891 2.891 0 0 1-.327 1.54 1.231 1.231 0 0 1-1.991 0 3.811 3.811 0 0 1 0-3.084 1.228 1.228 0 0 1 1.989 0 2.9 2.9 0 0 1 .329 1.544zm-.558 0a3.1 3.1 0 0 0-.179-1.244.644.644 0 0 0-1.169 0 4.406 4.406 0 0 0 0 2.484.646.646 0 0 0 1.169 0 3.09 3.09 0 0 0 .179-1.24z" class="prefix__cls-1" data-name="Path 7065" transform="translate(-911.391 -598.124)"/>
                    <path id="prefix__Path_7066" d="M1060.238 600.971v-2.434h.537v2.677a3.675 3.675 0 0 0 .016.411.5.5 0 0 0 .056.189.552.552 0 0 0 .245.236 1 1 0 0 0 .777 0 .565.565 0 0 0 .246-.236.484.484 0 0 0 .056-.188 3.571 3.571 0 0 0 .016-.407v-2.682h.534v2.434a3.4 3.4 0 0 1-.075.861.9.9 0 0 1-.26.422 1.149 1.149 0 0 1-.4.233 1.564 1.564 0 0 1-.505.077 1.548 1.548 0 0 1-.5-.077 1.177 1.177 0 0 1-.4-.233.9.9 0 0 1-.259-.424 3.382 3.382 0 0 1-.084-.859z" class="prefix__cls-1" data-name="Path 7066" transform="translate(-936.421 -598.466)"/>
                    <path id="prefix__Path_7067" d="M1088.076 598.611h.73l1.545 3.241v-3.241h.569v3.937h-.73l-1.545-3.24v3.24h-.568z" class="prefix__cls-1" data-name="Path 7067" transform="translate(-959.451 -598.527)"/>
                    <path id="prefix__Path_7068" d="M1122.018 598.33v.542a2.109 2.109 0 0 0-.488-.235 1.573 1.573 0 0 0-.493-.08.931.931 0 0 0-.6.176.577.577 0 0 0-.219.475.524.524 0 0 0 .144.4 1.2 1.2 0 0 0 .538.23l.281.064a1.551 1.551 0 0 1 .81.407 1.082 1.082 0 0 1 .254.757 1.065 1.065 0 0 1-.349.86 1.531 1.531 0 0 1-1.016.3 2.68 2.68 0 0 1-.558-.059 3.121 3.121 0 0 1-.563-.179v-.568a2.652 2.652 0 0 0 .575.283 1.717 1.717 0 0 0 .546.089.978.978 0 0 0 .63-.181.708.708 0 0 0 .07-.959 1.092 1.092 0 0 0-.539-.24l-.285-.066a1.614 1.614 0 0 1-.8-.376.916.916 0 0 1-.249-.674 1.084 1.084 0 0 1 .355-.848 1.365 1.365 0 0 1 .946-.318 2.364 2.364 0 0 1 .478.051 3.652 3.652 0 0 1 .532.149z" class="prefix__cls-1" data-name="Path 7068" transform="translate(-985.62 -598.124)"/>
                    <path id="prefix__Path_7069" d="M1150.4 598.537h2.344v.449h-1.809v1.064h1.729v.449h-1.729v1.537h1.859v.45h-2.394z" class="prefix__cls-1" data-name="Path 7069" transform="translate(-1011.005 -598.466)"/>
                    <path id="prefix__Path_7070" d="M1180.468 598.537h.537v3.5h1.907v.45h-2.445z" class="prefix__cls-1" data-name="Path 7070" transform="translate(-1035.884 -598.466)"/>
                    <path id="prefix__Path_7071" d="M1211.411 598.33v.542a2.114 2.114 0 0 0-.488-.235 1.575 1.575 0 0 0-.493-.08.93.93 0 0 0-.6.176.577.577 0 0 0-.219.475.524.524 0 0 0 .144.4 1.2 1.2 0 0 0 .538.23l.281.064a1.552 1.552 0 0 1 .81.407 1.082 1.082 0 0 1 .254.757 1.065 1.065 0 0 1-.349.86 1.531 1.531 0 0 1-1.016.3 2.679 2.679 0 0 1-.558-.059 3.116 3.116 0 0 1-.563-.179v-.568a2.665 2.665 0 0 0 .575.283 1.719 1.719 0 0 0 .546.089.979.979 0 0 0 .63-.181.708.708 0 0 0 .07-.959 1.091 1.091 0 0 0-.538-.24l-.285-.066a1.614 1.614 0 0 1-.8-.376.915.915 0 0 1-.249-.674 1.084 1.084 0 0 1 .355-.848 1.365 1.365 0 0 1 .946-.318 2.365 2.365 0 0 1 .478.051 3.662 3.662 0 0 1 .531.149z" class="prefix__cls-1" data-name="Path 7071" transform="translate(-1059.572 -598.124)"/>
                </g>
            </g>
        </g>
        <g id="prefix__Group_13519" data-name="Group 13519" transform="translate(72.212 407.643)">
            <g id="prefix__Group_13517" data-name="Group 13517" transform="translate(0 1.268)">
                <path id="prefix__Path_7072" d="M92.123 454.808a3.35 3.35 0 0 1-2.375-.982l-16.554-16.555a3.363 3.363 0 0 1 0-4.749l16.555-16.554a3.361 3.361 0 0 1 4.749 0l16.554 16.554a3.362 3.362 0 0 1 0 4.749L94.5 453.825a3.345 3.345 0 0 1-2.377.983zm0-38.908a2.436 2.436 0 0 0-1.729.714L73.84 433.168a2.449 2.449 0 0 0 0 3.457l16.554 16.554a2.447 2.447 0 0 0 3.457 0l16.554-16.554a2.448 2.448 0 0 0 0-3.457l-16.553-16.554a2.438 2.438 0 0 0-1.729-.714z" class="prefix__cls-2" data-name="Path 7072" transform="translate(-72.212 -414.985)"/>
            </g>
            <g id="prefix__Group_13518" data-name="Group 13518" transform="translate(8.796)">
                <path id="prefix__Path_7073" d="M178.285 535.9l-3.207-2.367-2.646 2.593 2.856 2.7z" class="prefix__cls-2" data-name="Path 7073" transform="translate(-163.917 -511.789)"/>
                <path id="prefix__Path_7074" d="M180.019 412.026l.891.257-2.349-4.64-.706 1.942.658.775s4.449 21.631 2.227 24.181c0 0-5 8.23-12.613 4.554 0 0 6.436 5.312 13.706-3.607 2.109-2.588 1.167-8.344-1.814-23.462z" class="prefix__cls-2" data-name="Path 7074" transform="translate(-160.355 -407.643)"/>
                <path id="prefix__Path_7075" d="M141.879 488.43a5.3 5.3 0 0 0 1-4.2c-.107-.477-.225-.9-.351-1.278a4.793 4.793 0 0 0-1.232-2.226 2.233 2.233 0 0 0-.934-.4 2.767 2.767 0 0 0-3.027 1.381 5.593 5.593 0 0 0-.244 2.029 2.763 2.763 0 0 0 1.939 1.956 5.444 5.444 0 0 0 1.541-.019 6.6 6.6 0 0 0 .852-.176 6.02 6.02 0 0 1-1.526 2.84c-3.066 4.231-7.041 4.879-8.805 3.667-1.657-1.138.355-6.837.222-9.112a2.78 2.78 0 0 0-1.488-2.221v-.02c5.007-2.862 12.437-3.328 12.437-3.328l.408-1.222-10.171-1.489c-9.374-1.036-8.835 1.925-7.466 3.461 1.064 1.2 2.391 1.589 3.124 2.315v.019a2.746 2.746 0 0 0-.909.437c-7.164 6.153-2.806 17.065-2.806 17.065 10.071 22.085 1.327-1.35 1.1-1.83-.6-1.253-2.839-7.467 1.091-12.746a9.339 9.339 0 0 1 2.229-2.078h.059c1.118 1.438 1.218 1.806 1.144 2.492-.146 1.359-.969 4-1.048 5.364a3.982 3.982 0 0 0 .409 2.3c3.643 5.975 10.479-.459 12.452-2.981zm-3.715-5.381a1.488 1.488 0 0 1 2.4-.229s-1.287 1.443-2.4.229zm-11.813-6.043c.53-1.876 6.545-.856 7.794.158 0 0-4.4 1.856-5.129 2.366-.75.528-2.884-1.75-2.665-2.524z" class="prefix__cls-2" data-name="Path 7075" transform="translate(-123.134 -462.866)"/>
            </g>
        </g>
    </g>
</svg>
