<svg xmlns="http://www.w3.org/2000/svg" width="566.339" height="362.59" viewBox="0 0 566.339 362.59">
    <defs>
        <style>
            .prefix__cls-1{fill:#2e5b9a}.prefix__cls-2{fill:#f09959}.prefix__cls-4{fill:#75a1de}.prefix__cls-5{fill:#fcba30}.prefix__cls-8{fill:#f2e5de}.prefix__cls-9{fill:#335278}.prefix__cls-10{fill:#74b570}.prefix__cls-11{fill:#01c089}.prefix__cls-13{fill:#fff}
        </style>
    </defs>
    <g id="prefix__Group_13727" data-name="Group 13727" transform="translate(-4552.661 471.618)">
        <rect id="prefix__Rectangle_1115" width="268.655" height="10.011" class="prefix__cls-1" data-name="Rectangle 1115" rx="5.006" transform="translate(4552.661 -300.563)"/>
        <g id="prefix__Group_13687" data-name="Group 13687" transform="translate(4658.792 -471.618)">
            <path id="prefix__Path_7291" d="M2528.017 796.579c3.563 12.56-5.138 25.5-14.723 28.222s-16.425-5.815-19.988-18.375 1.319-24.946 10.9-27.665 20.249 5.258 23.811 17.818z" class="prefix__cls-2" data-name="Path 7291" transform="translate(-2300.653 -759.693)"/>
            <path id="prefix__Path_7292" d="M2419.3 1536.709s24.565 38.154 27.884 39.813 11.611 2.074 8.5 8.294-4.354 30.69-7.258 31.933-27.786 4.147-24.054 0 6.029-2.073 7.912-9.538 4.53-21.565 1-24.469-25.09-29.03-25.09-29.03z" class="prefix__cls-2" data-name="Path 7292" transform="translate(-2245.68 -1256.443)"/>
            <path id="prefix__Path_7293" d="M1987.2 1584.192s-29.861 49.216-35.391 53.64-23.778 11.06-8.848 12.166 22.12-4.977 31.521-7.742 21.013-4.424 16.589-11.612-2.586-22.883 6.95-32.836-10.821-13.616-10.821-13.616z" class="prefix__cls-2" data-name="Path 7293" transform="translate(-1937.219 -1287.541)"/>
            <path id="prefix__Path_7294" d="M2210.391 1253.393s-73.921-1.933-103.23 22.119c-17.143 25.991-58.613 102.676-61.837 111.127 2.212 2.212 14.654 6.2 20.184 5.65 16.313-19.452 37.875-36.267 46.451-51.525 10.568-18.8 13.824-28.2 30.967-29.861s55.852-7.189 67.465-7.189 0-50.321 0-50.321z" data-name="Path 7294" transform="translate(-2008.02 -1070.866)" style="fill:#6791c9"/>
            <path id="prefix__Path_7295" d="M2650.4 1555.251h-3.875l-27.786-115.929h8.525z" class="prefix__cls-1" data-name="Path 7295" transform="translate(-2383.564 -1192.662)"/>
            <path id="prefix__Path_7296" d="M2374.111 1547.473h3.875l31.885-120.027h-8.524z" class="prefix__cls-1" data-name="Path 7296" transform="translate(-2223.352 -1184.883)"/>
            <path id="prefix__Path_7297" d="M2369.869 1238.789l-42.977 7.418s-57.111.525-83.217 5.387c-23.751 4.424-27.251 31.411 0 68.57 15.48 21.109 28.568 37.948 55.334 56.934 6.809-5 9.413-6.89 11.3-18.917-1.938-2.656-6.952-19.28-8.508-22.533-14.8-30.947-34.565-42.2-34.839-45.245 3.318-5.392 87.884 28.1 104.7 8.4 16.045-18.811-1.793-60.014-1.793-60.014z" class="prefix__cls-4" data-name="Path 7297" transform="translate(-2125.385 -1061.327)"/>
            <path id="prefix__Path_7298" d="M2546.816 955.9a44.972 44.972 0 0 0-33.629 8.368c-9.421 9.6-20.081 25.441-19.428 51.564.83 33.178-5.134 35.308 1.087 44.432 25.946 10.714 70.321 56.748 59.871 7.4-7.567-35.734 16.6-62.371-2.9-102.009-1.584-3.23-3.566-6.355-5.001-9.755z" class="prefix__cls-5" data-name="Path 7298" transform="translate(-2300.546 -875.734)"/>
            <path id="prefix__Path_7299" d="M2493.754 1044.049c-.5 17.3-2.947 22.392-1.079 27.814 10.578 1.08 29.927 5.313 34.761 12.082 5.53 7.741 11.06 8.847 8.479 3.133s-9.4-13.825 1.106-41.658 15.483-46.635 5.161-65.99z" data-name="Path 7299" transform="translate(-2300.549 -891.465)" style="fill:#d19e34"/>
            <path id="prefix__Path_7300" d="M2587.07 890.327c-6.97-16.5-8.682-35.038-8.682-35.038l-18.247 5.391s10.367 23.224.415 31.518a94.944 94.944 0 0 0-7.114 6.5 44.97 44.97 0 0 1 33.628-8.371z" class="prefix__cls-2" data-name="Path 7300" transform="translate(-2340.801 -810.162)"/>
            <path id="prefix__Path_7301" d="M2591.7 861.536c-1.081-.962-2.434-2.162-3.854-3.418l-14.885 4.4-.031.081c.36.822 4.15 9.668 4.649 18.178 4.437-2.691 9.293-7.078 14.845-14.743-.295-1.703-.534-3.22-.724-4.498z" data-name="Path 7301" transform="translate(-2353.568 -812.014)" style="fill:#e38540"/>
            <path id="prefix__Path_7302" d="M2403.312 970.875c-18.794 6.573-16.709 26.373-34.007 55.573-8.951 15.111-17.265 14.886-17.265 14.886a400.458 400.458 0 0 1-46.387-2.937c-15.9-1.944-16.91 2.79-5.852 6.743 22.3 7.974 45.45 16.557 64.113 14.484s50.581-49.69 52.227-62.085c2.275-17.139-3.364-29.974-12.829-26.664z" class="prefix__cls-2" data-name="Path 7302" transform="translate(-2169.871 -885.52)"/>
            <g id="prefix__Group_13683" data-name="Group 13683" transform="translate(157.691 126.26)">
                <path id="prefix__Path_7303" d="M2460.27 1215.639q-1.753 0-3.593-.046a178.707 178.707 0 0 1-34.121-4.2c-9.782-1.988-15.17-3.083-21.441-.087a4.831 4.831 0 0 1-4.166-8.718c9.191-4.392 16.885-2.828 27.532-.664a170.217 170.217 0 0 0 32.435 4.009c16.19.4 26.062-2 31.066-7.547 4.458-4.943 5.762-13.25 4.1-26.14-.566-4.411-1.134-8.081-1.635-11.319-1.413-9.133-2.346-15.166-1.189-24.494 1.072-8.661 3.941-20.2 10.584-42.571a4.831 4.831 0 1 1 9.262 2.751c-12.378 41.689-11.75 45.75-9.107 62.838.509 3.295 1.086 7.029 1.67 11.563 2.044 15.9-.026 26.65-6.513 33.843-6.677 7.408-17.519 10.782-34.884 10.782z" class="prefix__cls-1" data-name="Path 7303" transform="translate(-2394.199 -1090.406)"/>
            </g>
            <path id="prefix__Path_7304" d="M1989.234 1704.4c-19.814 9.69-30.478 15.243-36.83 14.714-1.5-.125-2.743-.278-3.785-.44-7.066 4.176-18.345 9.111-5.654 10.052 14.931 1.106 22.12-4.977 31.521-7.742s21.013-4.424 16.59-11.612a15.126 15.126 0 0 1-1.842-4.972z" class="prefix__cls-5" data-name="Path 7304" transform="translate(-1937.219 -1366.269)"/>
            <path id="prefix__Path_7305" d="M2479.322 1654.431c-.484 15.688-2.64 31.233-12.234 34.169a16.132 16.132 0 0 1-6.914.617c-1.509 1.866-3.35 1.886-5.822 4.632-3.732 4.147 21.151 1.245 24.054 0s4.147-25.713 7.258-31.934c2.555-5.109-2.586-6.302-6.342-7.484z" class="prefix__cls-5" data-name="Path 7305" transform="translate(-2275.655 -1333.542)"/>
            <g id="prefix__Group_13684" data-name="Group 13684" transform="translate(34.132 108.018)">
                <path id="prefix__Path_7306" d="M2129.345 1101.95H2066.4a4.83 4.83 0 0 1-4.381-2.795l-25.437-54.746a4.831 4.831 0 1 1 8.762-4.071l24.139 51.95h59.863a4.831 4.831 0 1 1 0 9.662z" class="prefix__cls-4" data-name="Path 7306" transform="translate(-2036.13 -1037.542)"/>
            </g>
            <path id="prefix__Path_7307" d="M2238.2 1156.283c-12.719-.184-25.333-7.766-31.6-6.66s-26.727 15.3-24.147 15.852 18.8-7.855 19.354-7.983 4.056 5.823 12.719 8.009.062-6.493 26.917 1.618c17.457 5.274-3.243-10.836-3.243-10.836z" class="prefix__cls-2" data-name="Path 7307" transform="translate(-2097.682 -1002.857)"/>
            <path id="prefix__Path_7308" d="M2563.758 913.192l1.871 15.057s-16.458.979-24.649 5.588-20.277 17.922-20.277 17.922l9.875-17 1.422-10.876z" class="prefix__cls-8" data-name="Path 7308" transform="translate(-2319.36 -848.084)"/>
            <path id="prefix__Path_7309" d="M2443.213 966.038c-12.225-2.291-17.88 8.663-25.806 26.543s-21.457 39.6-24.147 42.4-45.345 0-45.345 0-1.29 12.35 0 13.825 8.664 1.29 8.664 1.29 2.949 2.355 5.714 4.219 26.174 5.366 37.05 4.813 20.829-1.475 22.3-3.134 31.151-47.373 33-63.778-5.19-25.009-11.43-26.178z" class="prefix__cls-8" data-name="Path 7309" transform="translate(-2205.821 -882.497)"/>
            <path id="prefix__Path_7310" d="M2483.313 732.846c-23.121 1.106-19.494 35.888-19.494 35.888s6.005 1.854 18.585-.22c-.967-3.733-.552-13.272-.552-13.272a86.883 86.883 0 0 0 3.318 12.443c2.659 1.219 5.667.138 10.783-1.1 2.626 11.052 10.049 15.721 15.131 17.319 5.616 1.765 11.559 3.871 18.2.553s2.986-37.234-.537-44.054c-5.289-10.238-14.079-19.4-29.287-14.562a112.948 112.948 0 0 0-16.147 7.005z" class="prefix__cls-9" data-name="Path 7310" transform="translate(-2281.969 -724.512)"/>
            <path id="prefix__Path_7311" d="M2637.22 863.652l9.452 13.807s-10.476 26.175 19.992 38.033c23.862 9.287 21.051 25.651 10.269 42.109s6.451 30.828 6.451 30.828 2.629-18.23 25.813-21.671c31.613-4.692 40.563-47.134 16.952-68.356-19.538-17.561-25.483-3.018-38.709-18.777s-38.193-5.114-38.193-5.114l-9.151-13.345z" class="prefix__cls-9" data-name="Path 7311" transform="translate(-2395.67 -814.009)"/>
            <g id="prefix__Group_13685" data-name="Group 13685" transform="translate(252.736 54.486)">
                <path id="prefix__Path_7312" d="M2758.254 955.07a.841.841 0 0 1-.737-1.245c7.949-14.526 1.462-32.126-1.8-36.893-.346-.505-.674-1.017-1.021-1.559-3.205-5-7.194-11.23-28.479-15.062-5.127-.923-9.277-3.97-13.672-7.2-9.076-6.663-19.363-14.216-41.717-3.928a.841.841 0 1 1-.7-1.527c23.251-10.7 33.964-2.839 43.415 4.1 4.233 3.107 8.231 6.042 12.975 6.9 22.007 3.962 26.216 10.531 29.6 15.809.34.531.662 1.033.993 1.517 3.418 4.995 10.214 23.433 1.887 38.65a.841.841 0 0 1-.744.438z" class="prefix__cls-9" data-name="Path 7312" transform="translate(-2669.636 -882.409)"/>
            </g>
            <g id="prefix__Group_13686" data-name="Group 13686" transform="translate(211.8 30.905)">
                <path id="prefix__Path_7313" d="M2575.707 846.957a33.263 33.263 0 0 1-4.91-.4c-8.088-1.212-18.94-5.808-19.791-31.622a.84.84 0 1 1 1.68-.055c.351 10.64 2.462 18.513 6.274 23.4 2.9 3.712 6.737 5.815 12.086 6.616 7.485 1.121 12.448-.261 14.747-4.108a.841.841 0 0 1 1.444.863c-2.108 3.531-5.977 5.306-11.53 5.306z" class="prefix__cls-9" data-name="Path 7313" transform="translate(-2551.006 -814.072)"/>
            </g>
        </g>
        <path id="prefix__Path_7314" d="M1711.333 1424.694h6.212l24.165-184.718h-13.666z" class="prefix__cls-1" data-name="Path 7314" transform="translate(2869.513 -1533.722)"/>
        <path id="prefix__Path_7315" d="M2264.531 1424.694h-6.211l-24.165-184.718h13.666z" class="prefix__cls-1" data-name="Path 7315" transform="translate(2527.102 -1533.722)"/>
        <g id="prefix__Group_13688" data-name="Group 13688" transform="translate(4960.161 -307.978)">
            <path id="prefix__Path_7316" d="M3006.851 1323.431c10.748 9.813 6.075 19.626-1.869 37.849s-9.346 85.511-9.346 85.511l6.542-.934s-.934-69.157 7.943-87.847 12.616-28.036 20.56-21.962-23.83-12.617-23.83-12.617z" class="prefix__cls-10" data-name="Path 7316" transform="translate(-2931.776 -1280.401)"/>
            <path id="prefix__Path_7317" d="M3009.926 1229.057c1.305-5.815 9.056-12.108 19.421-17.445-1.542 8.577-6.482 22.6-1.368 25.477 6.9 3.879.671-15.7 3.333-26.463a128.065 128.065 0 0 1 32.222-10.57c-.014.04-.027.078-.044.118-6.074 15.42-14.017 21.495-10.746 23.831 2.46 1.757 10.476-16.055 21.06-25.185 7.944-.424 14.666.654 18.641 3.8 6.146 4.865 10.27 9.181 4.091 24a27.78 27.78 0 0 1-13.419 4.864c-14.018 1.4-20.56 1.869-10.747 6.542 4.806 2.288 12.859-.13 19.39-1.6-2.119 3.9-4.723 8.322-7.888 13.354a49.561 49.561 0 0 1-6.567 8.358c-4.518.866-8.458.876-10.543-.018-6.542-2.8-23.363-11.682-27.568-7.943-4.116 3.659 31.154 5.976 28.71 15.273-17.1 9.85-36.658 5.163-40.116-3.881-4.645-12.149-21.788-15.007-17.862-32.512z" class="prefix__cls-11" data-name="Path 7317" transform="translate(-2940.754 -1198.733)"/>
            <path id="prefix__Path_7318" d="M3013.063 1467.806c-18.69-14.019-37.849-.935-47.661 14.017s-2.8 48.6-2.8 48.6 3.738 0 3.738-1.4-10.28-39.718 14.018-57.008c15.2-10.816 26.168-5.607 27.57-.467s-6.074 14.485-6.074 14.485z" class="prefix__cls-10" data-name="Path 7318" transform="translate(-2908.549 -1371.04)"/>
            <path id="prefix__Path_7319" d="M2987.29 1395.649c18.69 0 24.765 28.971 19.625 45.793s-12.15 48.13-12.15 48.13l-4.673-4.673s17.757-43.923 13.552-63.549-14.486-22.9-16.355-22.9.001-2.801.001-2.801z" data-name="Path 7319" transform="translate(-2925.765 -1327.699)" style="fill:#9cd499"/>
            <path id="prefix__Path_7320" d="M3025.394 1520.885a13.544 13.544 0 0 1 4.92-4.134 36.823 36.823 0 0 1-.971 4c-2.342 7.665-5.072 18.335-7.35 27.682l-1.019-5.887c-.116-.672-.207-1.4-.271-2.175a181.256 181.256 0 0 0 4.691-19.486z" class="prefix__cls-10" data-name="Path 7320" transform="translate(-2948.193 -1407.012)"/>
            <path id="prefix__Path_7321" d="M3030.763 1479.136c35.513-14.953 16.8-35.472 48.11-21.921 2.206.955 4.893 3.362 7.584 6.681a23.305 23.305 0 0 1-9.92.8c-9.345-1.4-6.075 6.075 9.345 7.944a34.6 34.6 0 0 1 7.226 1.525c7.346 14.109 10.657 32.675-4.89 39.128a35.2 35.2 0 0 1-11.064 2.27c-4.8-3.812 1.17-25.876-6.225-22.83-7.1 2.924 2.225 18.914.948 22.942a102.431 102.431 0 0 1-22.184-3.109c-2.934-1.645-5.175-3.85-5.865-6.749-2.337-9.812 13.083-15.887 13.551-24.3.43-7.732-5.651 17.011-21.763 20.653-14.569-6.809-21.453-16.044-4.853-23.034z" class="prefix__cls-11" data-name="Path 7321" transform="translate(-2948.452 -1365.122)"/>
            <path id="prefix__Path_7322" d="M2867.579 1388.231c3.738-7.944-6.074-9.813-5.607-3.738.414 5.382.46 18.467-5.061 22.029a86.617 86.617 0 0 1-32.266-10.715 3.973 3.973 0 0 1 .412-2.435c4.206-8.411 31.307-15.42 22.9-18.224-6.7-2.232-18.436 10.947-27.9 17.585-5.681-4.31-9.487-9.448-9.487-15.183 0-7.763 9.433-16.55 21.631-20.75 5.49.553 10.589 3.555 18.555 8.069 11.767 6.668 9.046-4.113-2.08-10.511a33.511 33.511 0 0 1 26.242 14.4s-.668 4.191 3.767 10.672c12.1 17.684-1.863 28.006-18.555 27.336.945-4.659 4.87-13.046 7.449-18.535z" class="prefix__cls-11" data-name="Path 7322" transform="translate(-2810.571 -1300.655)"/>
            <path id="prefix__Path_7323" d="M3102.255 1476.634c9.138 7.062 19.289 15.317 31.75 20.925s9.969 23.884 9.969 23.884 1.87-15.784-8.515-21.184-17.238-11.838-25.13-13.084a114.362 114.362 0 0 1-12.254-2.492s2.492-4.985 1.039-6.854 3.141-1.195 3.141-1.195z" class="prefix__cls-10" data-name="Path 7323" transform="translate(-2998.865 -1380.661)"/>
            <path id="prefix__Path_7324" d="M3113.4 1236.565c-33.438 8.93-57.945 30.322-62.514 35.514s-4.569 6.646-4.569 6.646l3.531 6.646 1.661-.831s-2.7-5.608 4.362-12.877c12.178-12.536 27-22.43 37.176-26.791s20.353-8.307 20.353-8.307z" class="prefix__cls-10" data-name="Path 7324" transform="translate(-2964.966 -1223.51)"/>
            <path id="prefix__Rectangle_1116" d="M0 0h45.671v22.964A22.836 22.836 0 0 1 22.836 45.8 22.836 22.836 0 0 1 0 22.964V0z" class="prefix__cls-4" data-name="Rectangle 1116" transform="translate(39.684 152.339)"/>
            <path id="prefix__Rectangle_1117" d="M0 0H45.671V3.215H0z" class="prefix__cls-13" data-name="Rectangle 1117" transform="translate(39.684 157.586)"/>
            <path id="prefix__Rectangle_1118" d="M0 0H45.671V1.891H0z" class="prefix__cls-13" data-name="Rectangle 1118" transform="translate(39.684 163.448)"/>
        </g>
    </g>
</svg>
