<svg xmlns="http://www.w3.org/2000/svg" id="prefix__Group_13739" width="89.7" height="39.625" data-name="Group 13739" viewBox="0 0 89.7 39.625">
    <defs>
        <style>
            .prefix__cls-1{fill:#220501}.prefix__cls-1,.prefix__cls-4,.prefix__cls-6,.prefix__cls-7{fill-rule:evenodd}.prefix__cls-4{fill:#fff}.prefix__cls-6{fill:#ab3824}.prefix__cls-7{fill:#5d1913}
        </style>
    </defs>
    <path id="prefix__Path_7407" d="M422.164 365.979a.287.287 0 0 0-.082-.327c-.075-.07-.149-.134-.225-.2a.4.4 0 0 0-.061-.087c-.076-.077-.157-.149-.233-.225-.185-.466-.411-.922-.645-1.376a.869.869 0 0 1-.071-.213 23.981 23.981 0 0 0-6.861-5.244 60.787 60.787 0 0 0-13.363-6.069q-10.179-3.977-20.7-6.991a229.1 229.1 0 0 0-24.611-6.06c-.493-.329-1.41-.79-1.393-1.36a2.693 2.693 0 0 1 .574-.86 3.7 3.7 0 0 1 .52-.37c.116-.042.235-.077.349-.111a4.145 4.145 0 0 0 .811-.265 4.983 4.983 0 0 1 .879.1c2.926.6 5.664 2.081 8.423 3.178 5.048 2.01 10.679 5.427 16.292 4.313a.762.762 0 0 0 .56-.912c-.613-2.743-3.943-3.649-6.278-4.37-4.965-1.538-9.929-3.2-14.857-4.859-5.075-1.708-10.813-1.528-12.812 3.734a.262.262 0 0 0-.09.074l-.01-.006c-.131.2-.238.414-.364.618a4.582 4.582 0 0 0-.355.48 3.663 3.663 0 0 0-1.434.646 1.069 1.069 0 0 0-.863.033c-.038.008-.075.017-.114.024-.075-.014-.148-.032-.224-.049a.233.233 0 0 0-.288.17 3.346 3.346 0 0 0-.49.172.063.063 0 0 0-.067-.059c-.352-.005-.688-.057-1.047-.03-.308.023-.718-.076-.957.153a.168.168 0 0 0-.04.085c-.428.135-.872.332-.924.776a5.26 5.26 0 0 0-.617.6 5.6 5.6 0 0 0-1.263 3.691c-.009 1.769 1.543 4.361 3.486 4.705a3.573 3.573 0 0 0 1.117 1.979c.99 2.7 4.433 4.469 6.762 5.613a125.468 125.468 0 0 0 14.06 5.562c3.166 1.1 6.395 2.031 9.617 2.953a74.577 74.577 0 0 0 9.881 2.548c6.389.894 13 5.353 19.64 3.816a.257.257 0 0 0 .131-.082.424.424 0 0 0 .567.181.621.621 0 0 1 .342-.039.313.313 0 0 0 .229-.07c.958.115 1.919.215 2.88.27a30.3 30.3 0 0 0 5.084.024 16.768 16.768 0 0 0 6.8-1.577 4.14 4.14 0 0 0 2.057-.062 2.994 2.994 0 0 0 2-1.075c1.036-1.38-.608-2.706-1.722-3.55z" class="prefix__cls-1" data-name="Path 7407" transform="translate(-334.754 -332.711)"/>
    <path id="prefix__Path_7408" d="M413.46 368.659c-.161.171-.318.315-.447.461a23.094 23.094 0 0 1-7.253 1.1 1.708 1.708 0 0 1-.208-.423 3.78 3.78 0 0 1-.163-.883.274.274 0 0 0-.1-.2c.025-.13.042-.263.071-.391 1.18-3.011 1.951-6.317 2.822-9.359a31.409 31.409 0 0 1 5.6 3.942 11.46 11.46 0 0 1 .932.952 6.733 6.733 0 0 1 .161 1.684 12.721 12.721 0 0 0-5.174-4.7c-.206-.087-.329.229-.158.346a17.748 17.748 0 0 1 3.261 2.641 18.149 18.149 0 0 1 1.939 2.645 4.963 4.963 0 0 1-1.281 2.18zm-41.347-7.969c-.087.1-.172.2-.253.3-.025.023-.051.042-.074.067a.4.4 0 0 0-.575-.124c-.94.588-2.587-.189-3.582-.43-1.321-.317-2.627-.685-3.93-1.063-1.417-.413-2.828-.855-4.236-1.3-3.769-1.374-7.523-2.79-11.285-4.2-.3-.116-.613-.237-.923-.362a.136.136 0 0 0-.045-.034c-1.857-.936-4.462-3.4-3.613-5.68a.151.151 0 0 0 0-.09c.883-2.734 1.565-5.583 2.369-8.273a40.213 40.213 0 0 1 5.863 1.093c7.954 1.9 15.9 3.729 23.752 6.008.351.1.7.206 1.047.311-1.4 4.543-3.385 9.126-4.515 13.777z" data-name="Path 7408" transform="translate(-329.928 -332.205)" style="fill:#3b897a;fill-rule:evenodd"/>
    <path id="prefix__Path_7409" d="M413.46 368.5c-.161.171-.318.315-.447.461a23.094 23.094 0 0 1-7.253 1.1 1.708 1.708 0 0 1-.208-.423 3.78 3.78 0 0 1-.163-.883.274.274 0 0 0-.1-.2c.025-.13.042-.263.071-.391.262-.672.505-1.357.735-2.053a25.8 25.8 0 0 0 7.733-1.166c.321.446.621.906.916 1.372a4.963 4.963 0 0 1-1.281 2.18zm1.385-3.959s-.148.076-.446.195q.242.322.474.651a5.919 5.919 0 0 0-.028-.846zm-41.866-7.105c-14.567-5.762-24.52-9.649-27.649-15.882-.553 2.009-1.09 4.061-1.734 6.054a.151.151 0 0 1 0 .09c-.849 2.278 1.756 4.744 3.613 5.68a.136.136 0 0 1 .045.034c.311.125.62.246.923.362 3.762 1.41 7.516 2.827 11.285 4.2 1.408.449 2.819.892 4.236 1.3 1.3.378 2.609.746 3.93 1.063 1 .241 2.642 1.018 3.582.43a.4.4 0 0 1 .575.124c.024-.025.049-.044.074-.067.081-.1.166-.2.253-.3.255-1.024.547-2.055.867-3.084z" data-name="Path 7409" transform="translate(-329.928 -332.05)" style="fill:#c9d81d;fill-rule:evenodd"/>
    <path id="prefix__Path_7410" d="M379.933 368.892a1.74 1.74 0 0 1-.675.4 1.02 1.02 0 0 0-.477.213c-.377-.035-.757-.073-1.144-.119a65.837 65.837 0 0 1-6.627-1.191 4.109 4.109 0 0 0-1.148-.305c-.27-.083-.549-.168-.836-.244l.028-.085-1.414-.359c-.241-.112-.482-.226-.721-.344a.228.228 0 0 0-.246.017c-.058-.017-.114-.041-.174-.057a.5.5 0 0 0-.3.016q-5.4-1.386-10.754-2.923c-.92-.389-1.852-.743-2.791-1.075a.352.352 0 0 0-.147-.1 5.689 5.689 0 0 1-.607-.269 5.459 5.459 0 0 1-.865-.746 2.417 2.417 0 0 1-.331-.752 8.8 8.8 0 0 1-.068-2.36c1.425-3.9 2.551-7.991 3.788-11.884 5.956 1.795 11.8 3.812 17.645 5.907 3.538 1.721 7.386 2.971 10.85 4.79q.422.221.842.45l-.235.725c-1.66-1.836-4.463-2.7-6.686-3.433-4.269-1.409-8.468-3.441-12.854-4.408a.161.161 0 0 0-.095.308c3.783 1.539 7.625 3.1 11.5 4.391 2.549.847 6.082 1.737 7.857 3.986a77.007 77.007 0 0 0-2.462 8.254 5.94 5.94 0 0 1-.853 1.197z" class="prefix__cls-4" data-name="Path 7410" transform="translate(-306.512 -331.664)"/>
    <path id="prefix__Path_7411" d="M382.262 368.135a1.74 1.74 0 0 1-.675.4 1.02 1.02 0 0 0-.477.213c-.377-.035-.757-.073-1.144-.119a65.837 65.837 0 0 1-6.627-1.191 4.109 4.109 0 0 0-1.148-.305c-.27-.083-.549-.168-.836-.244l.028-.085-1.414-.359c-.241-.112-.482-.226-.721-.344a.228.228 0 0 0-.246.017c-.058-.017-.114-.041-.174-.057a.5.5 0 0 0-.3.016q-5.4-1.386-10.754-2.923c-.92-.389-1.852-.743-2.791-1.075a.352.352 0 0 0-.147-.1 5.689 5.689 0 0 1-.607-.269 5.461 5.461 0 0 1-.865-.746 2.417 2.417 0 0 1-.331-.752 8.8 8.8 0 0 1-.068-2.36c.119-.328.238-.659.353-.989 1.99.788 4.058 1.609 6.2 2.48 10.543 4.273 18.5 5.539 24.067 5.633-.174.655-.335 1.308-.473 1.964a5.94 5.94 0 0 1-.85 1.195z" data-name="Path 7411" transform="translate(-308.841 -330.906)" style="fill:#d6c1be;fill-rule:evenodd"/>
    <path id="prefix__Path_7412" d="M380.91 336.141a5.31 5.31 0 0 1 4.152-2.381c2.713-.2 5.668 1.038 8.184 1.887 3.784 1.277 7.631 2.362 11.346 3.842 1.71.68 3.749 1.059 5.288 2.087a2.69 2.69 0 0 1 .149.618c.028.342-.068.423-.34.563a.33.33 0 0 0-.182.227c-2.869.077-5.954-2.094-8.4-3.191-3.663-1.642-7.562-2.493-11.275-3.98-2.942-1.175-4.905-.948-6.609.636-.017 0-.027-.012-.041-.013a2.664 2.664 0 0 0-.772.2 1.976 1.976 0 0 1-.9-.026.805.805 0 0 1-.6-.469z" class="prefix__cls-6" data-name="Path 7412" transform="translate(-365.362 -332.635)"/>
    <path id="prefix__Path_7413" d="M410.342 349.264a5.221 5.221 0 0 1-1.162-.675.1.1 0 0 1-.017-.023 6.154 6.154 0 0 1-.581-2.35 10.675 10.675 0 0 1 1.036-3.67 6.614 6.614 0 0 1 2-2.95c.012-.009.011-.02.018-.029a4.1 4.1 0 0 1 1.07-.144c.222 0 .444.005.666.012-1 3.215-2.246 6.517-3.03 9.829z" class="prefix__cls-4" data-name="Path 7413" transform="translate(-398.445 -332.21)"/>
    <path id="prefix__Path_7414" d="M415.9 343.777a14.227 14.227 0 0 0-.728 2.238 2.427 2.427 0 0 1-.335-.138 2.815 2.815 0 0 1-.857-.634c-.169-.273-.326-.562-.47-.851a3.878 3.878 0 0 1-.055-.7 5.1 5.1 0 0 1 1.26-2.894 1.892 1.892 0 0 1 1.044-.618c.033.009.06.023.091.031a1.99 1.99 0 0 1 .36.284c.19.189.321.436.5.635a13.145 13.145 0 0 0-.81 2.647z" class="prefix__cls-6" data-name="Path 7414" transform="translate(-407.018 -332.153)"/>
    <g id="prefix__Group_13738" data-name="Group 13738">
        <path id="prefix__Path_7421" d="M422.164 365.979a.287.287 0 0 0-.082-.327c-.075-.07-.149-.134-.225-.2a.4.4 0 0 0-.061-.087c-.076-.077-.157-.149-.233-.225-.185-.466-.411-.922-.645-1.376a.869.869 0 0 1-.071-.213 23.981 23.981 0 0 0-6.861-5.244 60.787 60.787 0 0 0-13.363-6.069q-10.179-3.977-20.7-6.991a229.1 229.1 0 0 0-24.611-6.06c-.493-.329-1.41-.79-1.393-1.36a2.693 2.693 0 0 1 .574-.86 3.7 3.7 0 0 1 .52-.37c.116-.042.235-.077.349-.111a4.145 4.145 0 0 0 .811-.265 4.983 4.983 0 0 1 .879.1c2.926.6 5.664 2.081 8.423 3.178 5.048 2.01 10.679 5.427 16.292 4.313a.762.762 0 0 0 .56-.912c-.613-2.743-3.943-3.649-6.278-4.37-4.965-1.538-9.929-3.2-14.857-4.859-5.075-1.708-10.813-1.528-12.812 3.734a.262.262 0 0 0-.09.074l-.01-.006c-.131.2-.238.414-.364.618a4.582 4.582 0 0 0-.355.48 3.648 3.648 0 0 0-1.434.646 1.069 1.069 0 0 0-.863.033c-.038.008-.075.017-.114.024-.075-.014-.148-.032-.224-.049a.233.233 0 0 0-.288.17 3.346 3.346 0 0 0-.49.172.062.062 0 0 0-.067-.059c-.352-.005-.688-.057-1.047-.03-.308.023-.719-.076-.957.153a.168.168 0 0 0-.04.085c-.428.135-.872.332-.924.776a5.26 5.26 0 0 0-.617.6 5.6 5.6 0 0 0-1.263 3.691c-.009 1.769 1.543 4.361 3.486 4.705a3.573 3.573 0 0 0 1.117 1.979c.99 2.7 4.433 4.469 6.762 5.613a125.468 125.468 0 0 0 14.06 5.562c3.165 1.1 6.395 2.031 9.617 2.953a74.577 74.577 0 0 0 9.881 2.548c6.389.894 13 5.353 19.64 3.817a.266.266 0 0 0 .131-.083.424.424 0 0 0 .567.181.611.611 0 0 1 .342-.039.313.313 0 0 0 .229-.07c.958.115 1.919.215 2.88.27a30.3 30.3 0 0 0 5.084.024 16.768 16.768 0 0 0 6.8-1.577 4.14 4.14 0 0 0 2.057-.062 2.994 2.994 0 0 0 2-1.075c1.037-1.377-.607-2.7-1.721-3.547zm-78.526-21.644a14.23 14.23 0 0 0-.728 2.238 2.427 2.427 0 0 1-.335-.138 2.815 2.815 0 0 1-.857-.634c-.169-.273-.326-.562-.47-.851a3.878 3.878 0 0 1-.055-.7 5.1 5.1 0 0 1 1.26-2.894 1.892 1.892 0 0 1 1.044-.618c.033.009.06.023.091.031a1.99 1.99 0 0 1 .36.284c.191.189.321.436.5.635a13.145 13.145 0 0 0-.808 2.646zm3.014 5.431a5.261 5.261 0 0 1-1.162-.675.1.1 0 0 1-.017-.023 6.154 6.154 0 0 1-.581-2.35 10.675 10.675 0 0 1 1.036-3.67 6.614 6.614 0 0 1 2-2.95c.012-.009.011-.02.018-.029a4.1 4.1 0 0 1 1.07-.144c.222 0 .444.005.666.012-1 3.216-2.25 6.517-3.035 9.829zm3.651-13.548a5.311 5.311 0 0 1 4.152-2.381c2.713-.2 5.668 1.038 8.184 1.887 3.784 1.276 7.631 2.362 11.346 3.842 1.71.68 3.749 1.059 5.288 2.087a2.688 2.688 0 0 1 .149.618c.028.342-.067.423-.34.563a.33.33 0 0 0-.182.227c-2.868.077-5.955-2.094-8.4-3.191-3.663-1.642-7.562-2.493-11.275-3.98-2.942-1.175-4.905-.948-6.609.636-.017 0-.027-.012-.041-.013a2.63 2.63 0 0 0-.772.2 1.976 1.976 0 0 1-.9-.026.805.805 0 0 1-.6-.466zm26.636 24.982c-.087.1-.171.2-.253.3-.025.023-.051.043-.074.067a.4.4 0 0 0-.575-.124c-.94.588-2.587-.189-3.582-.43-1.321-.317-2.627-.685-3.93-1.063-1.419-.413-2.828-.855-4.236-1.3-3.769-1.374-7.523-2.79-11.285-4.2-.3-.116-.613-.237-.923-.362a.136.136 0 0 0-.045-.034c-1.857-.936-4.462-3.4-3.613-5.68a.151.151 0 0 0 0-.09c.883-2.734 1.565-5.583 2.369-8.273a40.213 40.213 0 0 1 5.863 1.093c7.954 1.9 15.9 3.729 23.752 6.008.351.1.7.206 1.047.311-1.4 4.551-3.383 9.134-4.514 13.786zm31.236 8.743a1.748 1.748 0 0 1-.675.4 1.02 1.02 0 0 0-.477.213c-.377-.035-.757-.073-1.144-.119a65.839 65.839 0 0 1-6.627-1.191 4.109 4.109 0 0 0-1.148-.305c-.27-.083-.549-.168-.836-.244.009-.028.019-.056.027-.085l-1.413-.359c-.241-.112-.482-.226-.721-.344a.228.228 0 0 0-.246.017c-.058-.017-.114-.041-.174-.057a.5.5 0 0 0-.3.016q-5.4-1.386-10.754-2.923c-.92-.389-1.852-.743-2.791-1.075a.352.352 0 0 0-.147-.1 5.689 5.689 0 0 1-.607-.269 5.459 5.459 0 0 1-.865-.746 2.412 2.412 0 0 1-.331-.753 8.8 8.8 0 0 1-.068-2.359c1.425-3.895 2.551-7.991 3.788-11.884 5.956 1.795 11.8 3.812 17.645 5.907 3.538 1.721 7.386 2.971 10.85 4.79q.422.221.842.45l-.235.725c-1.66-1.836-4.463-2.7-6.686-3.433-4.269-1.409-8.468-3.441-12.854-4.408a.161.161 0 0 0-.095.308c3.783 1.539 7.625 3.1 11.5 4.391 2.549.848 6.082 1.737 7.857 3.986a77.007 77.007 0 0 0-2.462 8.254 5.94 5.94 0 0 1-.857 1.2zm10.111-.774c-.161.171-.318.315-.447.461a23.094 23.094 0 0 1-7.253 1.1 1.708 1.708 0 0 1-.208-.423 3.78 3.78 0 0 1-.163-.883.274.274 0 0 0-.1-.2c.025-.13.042-.263.071-.391 1.18-3.011 1.951-6.317 2.822-9.359a31.409 31.409 0 0 1 5.6 3.942 11.455 11.455 0 0 1 .932.952 6.733 6.733 0 0 1 .161 1.684 12.722 12.722 0 0 0-5.174-4.7c-.206-.087-.329.229-.158.346a17.748 17.748 0 0 1 3.261 2.641 18.147 18.147 0 0 1 1.939 2.645 4.963 4.963 0 0 1-1.282 2.182z" class="prefix__cls-1" data-name="Path 7421" transform="translate(-334.754 -332.711)"/>
        <path id="prefix__Path_7422" d="M408.393 355.721a119.516 119.516 0 0 1-16.069-6.036c-.184-.08-.29.2-.14.306 4.627 3.238 10.518 5.181 15.915 6.7.626.173.923-.798.294-.97z" class="prefix__cls-1" data-name="Path 7422" transform="translate(-376.111 -331.444)"/>
        <path id="prefix__Path_7423" d="M389.837 357.116a2.475 2.475 0 0 0-1.179-.51 3.665 3.665 0 0 0-1.242-.144.5.5 0 0 0-.251.829 3.643 3.643 0 0 0 1.111.575 2.459 2.459 0 0 0 1.265.234.6.6 0 0 0 .296-.984z" class="prefix__cls-1" data-name="Path 7423" transform="translate(-351.901 -330.937)"/>
        <path id="prefix__Path_7424" d="M355.174 362.915a.319.319 0 0 0-.07-.081c-.4-.72-.678-1.588-1.018-2.3a11.281 11.281 0 0 0-2.419-3.481c-3.365-3.32-7.988-5.681-12.395-7.29-.177-.064-.355.2-.2.327 1.658 1.421 3.893 2.183 5.819 3.172a26.182 26.182 0 0 1 6.418 4.765 11.8 11.8 0 0 1 2.235 3.645c.292.631.6 1.881 1.3 2.19a.425.425 0 0 0 .491-.183c.137-.303.005-.508-.161-.764z" class="prefix__cls-1" data-name="Path 7424" transform="translate(-265.691 -331.438)"/>
        <path id="prefix__Path_7425" d="M357.116 348.993a3.414 3.414 0 0 1-1.133-.559c-.3-.244-.689.247-.424.513a2.9 2.9 0 0 0 .909.616c.337.153.878.419 1.193.121.354-.333-.333-.621-.545-.691z" class="prefix__cls-1" data-name="Path 7425" transform="translate(-285.75 -331.541)"/>
        <path id="prefix__Path_7426" d="M420.7 346.527c-.312-.664-.82-1.2-1.134-1.869a4.67 4.67 0 0 1-.326-2.347 8.213 8.213 0 0 1 2.113-4.214c.167-.214-.156-.44-.344-.287a7.13 7.13 0 0 0-2.5 4.482c-.234 1.541.39 3.785 1.821 4.578a.263.263 0 0 0 .37-.343z" class="prefix__cls-1" data-name="Path 7426" transform="translate(-417.096 -332.334)"/>
        <path id="prefix__Path_7427" d="M422.658 348.859a10.633 10.633 0 0 0-1.347-1.534 7.7 7.7 0 0 1-1.073-1.524.279.279 0 0 0-.31-.141l.12-.046a.149.149 0 0 0-.29.07c0 .042 0 .064.014.074a.318.318 0 0 0-.027.306c.427 1.1 1.48 2.773 2.705 3.045a.177.177 0 0 0 .208-.25z" class="prefix__cls-1" data-name="Path 7427" transform="translate(-419.72 -331.755)"/>
    </g>
</svg>
