<svg xmlns="http://www.w3.org/2000/svg" id="prefix__Group_13741" width="108.508" height="117.55" data-name="Group 13741" viewBox="0 0 108.508 117.55">
    <defs>
        <style>
            .prefix__cls-1{fill:#220501}.prefix__cls-1,.prefix__cls-3,.prefix__cls-5{fill-rule:evenodd}.prefix__cls-3{fill:#f8c58f}.prefix__cls-5{fill:#fff}
        </style>
    </defs>
    <path id="prefix__Path_7428" d="M157.712 272.6a6.66 6.66 0 0 0-1.61-1.912q-.206-.189-.408-.38a21.743 21.743 0 0 0-2.935-2.431c-2.447-1.655-5.3-1.421-8.258-1.007a26.06 26.06 0 0 0-6.406 1.694l-.213.085a15.189 15.189 0 0 0-1.812.828 5.249 5.249 0 0 0-1.065.752c-.838.37-1.676.778-2.486 1.173l-.778.377c-.3.132-.589.27-.864.406l-.179.085c-.169.079-.337.158-.506.233-2.333 1.038-4.726 2.043-7.041 3.017-2.277.957-4.632 1.946-6.931 2.967-.276.121-.553.249-.829.376a4 4 0 0 0-.5-.728 5.462 5.462 0 0 0-1.518-1.685c-.876-1.3-3.049-1.655-4.468-1.612a5.992 5.992 0 0 0-3.479 1.225 5.438 5.438 0 0 0-2.761 2.549 5.079 5.079 0 0 0-.055 4.117c.008.158.017.317.024.477a3.726 3.726 0 0 0 0 1.471 4.69 4.69 0 0 0 .112.6c-1.109.6-2.218 1.207-3.313 1.808-1.366.747-2.732 1.495-4.06 2.218-.886.392-1.768.791-2.655 1.2-1.279.592-2.574 1.165-3.871 1.739a100.2 100.2 0 0 0-9.927 4.838 1.063 1.063 0 0 0-.263.073 6.718 6.718 0 0 0-2.467 1.686 16.3 16.3 0 0 0-2.244 1.714 10.708 10.708 0 0 0-2.327 4.418 11.685 11.685 0 0 0-.605 3.435c-.275 2.052-.034 3.581.716 4.55a36.835 36.835 0 0 0 4.155 7.752c.464.723.925 1.44 1.366 2.158 2.661 4.338 5.056 9.036 7.28 13.475 1.277 2.548 2.546 5.157 3.773 7.681.1.208.2.417.307.627a.153.153 0 0 0-.025.193c.661 1.078 1.15 2.3 1.74 3.441.058.142.121.284.184.426a13 13 0 0 0 .676 1.644c.195.389.37.939.627 1.379.9 3.417 4.111 6.8 7.142 8.565a10.062 10.062 0 0 0 1.125.559 10.385 10.385 0 0 0 2.243.877 8.236 8.236 0 0 0 2.24.25l.318-.011c.156-.01.312-.025.458-.043 3.433-.377 6.591-1.9 9.645-3.366.518-.25 1.034-.5 1.549-.739 2.621-1.228 5.273-2.507 7.837-3.741q1.211-.582 2.421-1.159c-.63 1.907-1 3.917-1.644 5.815a35.326 35.326 0 0 0-1.592 8.921c-.175 2.6-.2 10.4 4.027 10.035 4.041-.35 5.01-7.53 5.708-10.331a135.9 135.9 0 0 0 3.079-18.192 67.084 67.084 0 0 0 4.683 8.191c1.26 2.005 2.862 5.062 5.084 6.093 1.918.89 3.691 1.763 5.531.267 2.478-2.016 2.439-6.518.71-8.906a.425.425 0 0 0-.14-.121 36.466 36.466 0 0 0-4.469-9.24 1.316 1.316 0 0 0 .459.253 29.358 29.358 0 0 0 6.515 3.161c1.9 1.007 3.787 2.045 5.674 3.117a.628.628 0 0 0 .489.059 14.047 14.047 0 0 0 3.941 1.855.57.57 0 0 0 .649-.242 4.573 4.573 0 0 0 1.423.362.386.386 0 0 0 .188.041 6.257 6.257 0 0 1 .75.073c2.007.427 3.955.286 4.938-1.346 1.478-2.448-1.018-5.208-2.79-6.689a59.291 59.291 0 0 0-7.046-4.644 40.4 40.4 0 0 0-5.824-3.166 17 17 0 0 0 2.546-.9c.293-.124.581-.243.855-.348.31-.12.642-.239.983-.359a18.461 18.461 0 0 0 2.831-1.189c.2-.111.39-.228.565-.347a7.625 7.625 0 0 0 1.5-.6 1.811 1.811 0 0 0 .6-.2 1.26 1.26 0 0 0 .487-.474 7.293 7.293 0 0 0 .753-.626 23.038 23.038 0 0 0 3.341-2.044 41.2 41.2 0 0 0 3.953-3.468 14.34 14.34 0 0 0 3.117-4.027 5.428 5.428 0 0 0 .446-1.55 4.763 4.763 0 0 0 .077-.529l.031-.07c.037-.081.075-.161.11-.243l.081-.19-.061-.2a1.361 1.361 0 0 1-.034-.613c.013-.088.019-.175.024-.263v-.26c-.1-.487-.24-1-.433-1.611l-.662-2.085-.028.15c-.4-1.011-.864-2-1.3-2.917-.421-.892-.819-1.731-1.093-2.47-2.626-7.061-5.551-13.882-8.827-21.425l-.1-.231c-2.522-5.779-5.12-11.768-9.184-16.601z" class="prefix__cls-1" data-name="Path 7428" transform="translate(-70.895 -260.167)"/>
    <path id="prefix__Path_7429" d="M163.345 287.568c.536 1.253 1.09 2.55 1.648 3.785q.721 1.6 1.448 3.2c2.245 4.943 4.567 10.055 6.564 15.256.316.822.674 1.662 1.021 2.47 1.339 3.13 2.722 6.366 2.094 9.676a13.154 13.154 0 0 1-1.493 2 27.7 27.7 0 0 1-5.3 4.19c-1 .666-2.024 1.354-2.979 2.089a32.387 32.387 0 0 1-3.964 2.588c-1.955 1.094-3.953 2.012-6.067 2.982q-.985.45-1.981.916c-4.8 2.248-9.6 4.713-14.234 7.094-3.4 1.746-6.915 3.552-10.4 5.258-1.579.772-3.146 1.557-4.708 2.342-4.066 2.039-8.27 4.148-12.524 5.911a.626.626 0 0 0-.11.014c-.7.163-1.352.363-1.984.556a13.4 13.4 0 0 1-3.86.77h-.113a15.521 15.521 0 0 1-5.253-.523 7.834 7.834 0 0 1-1.772-.842 1.01 1.01 0 0 1-.679-.218c-3.427-2.521-4.74-6.54-6.351-10.314-.791-1.5-1.544-3.031-2.281-4.535-.584-1.189-1.164-2.374-1.761-3.542-2.326-4.548-4.964-9.7-7.767-14.726-.865-1.547-1.8-3.067-2.712-4.536a72.193 72.193 0 0 1-4.219-7.494 11.564 11.564 0 0 1-.334-2.866 12.913 12.913 0 0 1 1.18-4.68 12.58 12.58 0 0 1 .649-1.259l.2-.3c.147-.22.294-.443.436-.664a7.947 7.947 0 0 1 2.288-2.114c.43-.3.875-.617 1.3-.981l.279-.158c1.245-.7 2.532-1.3 3.778-1.876l.306-.144c2.13-.994 4.313-1.972 6.426-2.918q2.221-.991 4.435-2c.772-.353 1.552-.72 2.341-1.092.836-.391 1.68-.789 2.53-1.177l.124-.057.2-.082.212-.088a10.076 10.076 0 0 0 2.082-1.085 7.845 7.845 0 0 0 1.847-.766 4.471 4.471 0 0 0 1.268-.678 1.035 1.035 0 0 0 .116-.111c.1-.056.195-.107.286-.153a33.072 33.072 0 0 0 3.532-2.088 10.213 10.213 0 0 1 1.522-.78c.407-.182.828-.37 1.228-.594a5.314 5.314 0 0 0 1.125-.815l.044-.047q1.066-.529 2.141-1.03c3.255-1.5 6.619-2.921 9.875-4.29q2.034-.858 4.064-1.721c2.617-1.12 4.89-2.134 6.948-3.1.113-.053.227-.1.34-.143l.418-.205.032-.023a11.278 11.278 0 0 1 4.972-1.91l.076-.016a11.532 11.532 0 0 1 1.641-.346l.456-.084v-.068c.114-.015.228-.033.342-.049a13.959 13.959 0 0 1 4.748-.144 11.662 11.662 0 0 1 6.66 4.353c3.347 3.978 5.521 9.063 7.624 13.982z" data-name="Path 7429" transform="translate(-70.718 -259.98)" style="fill:#f26d1f;fill-rule:evenodd"/>
    <path id="prefix__Path_7430" d="M161.23 340.594c1.192.788 7.59 5.62 3.72 6.773-3.686 1.1-8.242-2.374-11.355-3.963-2.831-1.443-5.707-2.79-8.533-4.238a6.77 6.77 0 0 0-2.026-1.073c-.191-.1-.386-.2-.575-.3a.341.341 0 0 0-.3-.025c-.033-.013-.067-.023-.1-.033.487-.244.976-.484 1.462-.727q3.419 1.791 6.764 3.708c1.177.671 2.364 1.325 3.57 1.941a8.6 8.6 0 0 0 2.771 1.124c.234.026.262-.284.112-.4a20.166 20.166 0 0 0-2.95-1.467c-1.217-.622-2.4-1.3-3.592-1.97a61.331 61.331 0 0 0-6.113-3.217c1.911-.947 3.828-1.888 5.753-2.8 4.083 1.51 7.798 4.288 11.392 6.667z" class="prefix__cls-3" data-name="Path 7430" transform="translate(-65.577 -255.133)"/>
    <path id="prefix__Path_7431" d="M143.2 344.317c1.434 2.636 2.663 5.175 3.88 7.908.162 2.129.219 4.486-1.83 5.284-1.641.641-3.849-2.876-4.662-3.981-2.57-3.485-3.654-7.834-6.256-11.347a1.931 1.931 0 0 0-.409-.4q1.975-.993 3.921-1.975a79.81 79.81 0 0 1 4.081 7.866c.208.494.509 1.769 1.11 1.95.3.089.433.017.43-.329a.141.141 0 0 0-.167-.132.319.319 0 0 0-.015-.049c-.114-.274-.235-.546-.348-.818-.248-.6-.47-1.211-.759-1.788-1.178-2.359-2.424-4.7-3.693-7.022.507-.255 1.016-.514 1.526-.769.2.1.416.207.633.3a37.448 37.448 0 0 0 2.558 5.302z" class="prefix__cls-3" data-name="Path 7431" transform="translate(-66.185 -254.776)"/>
    <path id="prefix__Path_7432" d="M128.944 355.558c-.473 2.5-1.087 4.966-1.738 7.422-.559 2.11-1.024 4.355-2.392 6.112-1.722 2.21-2.523-.716-2.848-2.252a25.868 25.868 0 0 1-.232-7.516 63.3 63.3 0 0 1 1.252-7.712c.37-1.727 1.045-3.365 1.381-5.092.876-.419 1.749-.842 2.626-1.257.393-.187.787-.38 1.18-.57a33.3 33.3 0 0 0-.609 4.644A36.241 36.241 0 0 1 127 353.6c-.179.833-.821 1.639-.919 2.427a.115.115 0 0 0 .112.118c1.473-.105 1.692-3.67 1.818-4.674.293-2.27.211-4.933.981-7.179l1.552-.748c-.82 3.913-.865 8.124-1.6 12.014z" class="prefix__cls-3" data-name="Path 7432" transform="translate(-67.108 -254.415)"/>
    <path id="prefix__Path_7433" d="M101.552 282.217a5.544 5.544 0 0 1 .488-3.471 6.092 6.092 0 0 1 1.926-2c.271-.078.541-.158.813-.234.16-.045.322-.083.48-.126a4.207 4.207 0 0 0 .5-.024 8.086 8.086 0 0 1 2.552.9 6.682 6.682 0 0 1 1.367 1.011c.315.3.447.62.832.825a.225.225 0 0 0 .19.013l.068.109c-2.886 1.379-5.738 2.861-8.545 4.37-.23-.453-.465-.911-.671-1.373z" class="prefix__cls-3" data-name="Path 7433" transform="translate(-68.611 -259.436)"/>
    <path id="prefix__Path_7434" d="M157.17 292.272l.084.174c2.679 5.647 5.075 10.754 7.238 16.062.227.551.55 1.18.893 1.845.354.686.734 1.423 1.06 2.183l.02-.117.549 1.571a12.189 12.189 0 0 1 .363 1.219l.006.2a1.867 1.867 0 0 1-.016.2 1.028 1.028 0 0 0 .038.469l.049.15-.059.147c-.025.066-.054.13-.083.193l-.024.055a3.618 3.618 0 0 1-.052.408 4.193 4.193 0 0 1-.328 1.21 11.663 11.663 0 0 1-2.385 3.23 34.145 34.145 0 0 1-3.049 2.837 18.855 18.855 0 0 1-2.59 1.717 5.913 5.913 0 0 1-.581.514 1.052 1.052 0 0 1-.375.385 1.455 1.455 0 0 1-.466.176 6.4 6.4 0 0 1-1.169.526c-.135.1-.284.2-.44.29a15 15 0 0 1-2.2 1.039c-.268.106-.526.213-.766.318-.215.095-.437.2-.666.306a10.2 10.2 0 0 1-2.678.96c-3.478 1.8-6.957 3.739-10.323 5.614-3.086 1.717-6.275 3.494-9.458 5.163-1.665.872-3.327 1.758-4.989 2.642-1.993 1.062-4.054 2.159-6.092 3.218-.4.21-.8.423-1.2.638a25 25 0 0 1-7.513 3.01c-.115.02-.238.039-.359.053l-.249.024a6.621 6.621 0 0 1-1.76-.092 7.879 7.879 0 0 1-1.772-.576 7.3 7.3 0 0 1-.892-.379c-2.643-1.343-5.5-4.182-5.906-7.04l-.01-.012c-.066-.105-.131-.212-.187-.313q-1.256-2.323-2.49-4.66c-1-1.884-2.034-3.831-3.073-5.732-1.812-3.31-3.759-6.812-5.911-10.025-.355-.532-.728-1.062-1.1-1.6a26.775 26.775 0 0 1-3.374-5.767 4.509 4.509 0 0 1-.629-3.464 8.984 8.984 0 0 1 .425-2.665 8.524 8.524 0 0 1 1.759-3.494 13.736 13.736 0 0 1 1.734-1.416 5.6 5.6 0 0 1 1.911-1.4.86.86 0 0 1 .2-.068A83.5 83.5 0 0 1 96 298.047c1.009-.5 2.017-1 3.011-1.5q1.033-.53 2.063-1.04c1.032-.612 2.093-1.247 3.152-1.883 4.217-2.523 8.577-5.133 13.044-7.345 1.789-.883 3.621-1.748 5.393-2.582 1.8-.851 3.664-1.73 5.477-2.629.131-.064.263-.134.394-.2l.139-.07c.214-.119.441-.238.672-.353l.605-.323c.63-.341 1.28-.689 1.933-1.01a4.393 4.393 0 0 1 .823-.625 13.216 13.216 0 0 1 1.408-.717l.167-.073a21.44 21.44 0 0 1 5-1.583c2.311-.447 4.547-.754 6.49.408a16.08 16.08 0 0 1 2.339 1.737l.326.274a4.856 4.856 0 0 1 1.292 1.4c3.256 3.519 5.383 8.004 7.442 12.339z" data-name="Path 7434" transform="translate(-70.052 -259.485)" style="fill:#3b897a;fill-rule:evenodd"/>
    <path id="prefix__Path_7435" d="M107.224 312.721c1.227 2.946 2.133 6.016 3.2 9.02.936 2.626 2.6 5.6 2.059 8.484a2.733 2.733 0 0 1-1.025 1.784 4.857 4.857 0 0 1-.946.419 4.794 4.794 0 0 1-3.7-1.08c-2.023-1.613-3.133-4.4-4.138-6.707-1.21-2.776-2.882-5.567-3.224-8.626-.011-.077-.015-.156-.031-.235-.129-.618-1.009-.37-.93.229.318 2-2.319 3.966-3.637 1.9-1.055-1.662-.292-4.061.722-6.058a.5.5 0 0 0 .559-.366 14.627 14.627 0 0 1 .609-1.657c.086-.134.17-.262.25-.383a.279.279 0 0 0 .035-.239c1.211-2.5 3.325-5.192 5.872-3.62a8.058 8.058 0 0 1 2.36 3.015 36.977 36.977 0 0 1 1.965 4.12z" class="prefix__cls-5" data-name="Path 7435" transform="translate(-69.143 -257.287)"/>
    <path id="prefix__Path_7436" d="M131.881 316.446c-.874.91-2.979.318-4 .085-1.144-.263-2.251-.657-3.388-.936a.489.489 0 0 0-.555.222c-1.243 2.519-1.083 5.97-3.126 8.066-1.658 1.7-2.841-1.411-2.968-2.613-.162-1.508.009-3.98 1.376-4.944a.527.527 0 0 0-.244-.977c-2.854-.406-6.588-1.4-6.776-4.877-.147-2.728 2.518-2.373 4.727-1.867a.176.176 0 0 0 .1.117c.419.221.882.46 1.364.662.031.02.058.044.09.064a2.606 2.606 0 0 0 .766.318.781.781 0 0 0 .142.09c.152.067.255.195.24.009a.342.342 0 0 0 .54.232.5.5 0 0 0 .618-.312 37.3 37.3 0 0 1 1.885-4.619c.691-1.3 2.506-3.353 4.2-2.5 1.871.94.89 5.232.807 6.837a2.017 2.017 0 0 0 1.051 2.069c1.444.869 5.18 2.761 3.151 4.874z" class="prefix__cls-5" data-name="Path 7436" transform="translate(-67.809 -257.485)"/>
    <path id="prefix__Path_7437" d="M151.93 309.216a9.036 9.036 0 0 1-3.146 3.118c-2.216 1.469-5.138 2.715-7.831 2.529-4.433-.3-4.01-6.578-2.374-9.342 1.1-1.856 2.7-3.448 3.265-5.582.375-1.408-.7-3.635-2.461-3.168-2.45.65-3.034 4.083-5.478 4.721-2.742.715-4.147-1.859-4.237-4.209a6.325 6.325 0 0 1 1.2-4c3.738-3.344 9.034-6.094 13.447-2.266 4.021 3.49 4.55 11.176 1.041 15.131a.46.46 0 0 0 .543.728c.708-.4 1.541-.541 2.27-.972.876-.514 2.07-1.513 3.118-.936 1.463.807 1.275 3.032.643 4.248z" class="prefix__cls-5" data-name="Path 7437" transform="translate(-66.503 -258.479)"/>
    <g id="prefix__Group_13740" data-name="Group 13740">
        <path id="prefix__Path_7438" d="M157.712 272.6a6.709 6.709 0 0 0-1.61-1.912q-.206-.189-.408-.38a21.827 21.827 0 0 0-2.935-2.431c-2.447-1.655-5.3-1.421-8.258-1.007a26.06 26.06 0 0 0-6.406 1.694l-.213.086a14.986 14.986 0 0 0-1.812.826 5.249 5.249 0 0 0-1.065.752c-.838.37-1.676.778-2.487 1.173l-.777.377c-.3.132-.589.27-.864.406l-.179.084q-.253.121-.506.234c-2.333 1.038-4.726 2.043-7.041 3.017-2.277.957-4.632 1.946-6.931 2.967-.276.121-.553.249-.829.376a4.041 4.041 0 0 0-.5-.728 5.473 5.473 0 0 0-1.516-1.685c-.877-1.3-3.05-1.655-4.469-1.612a5.992 5.992 0 0 0-3.479 1.225 5.438 5.438 0 0 0-2.761 2.549 5.079 5.079 0 0 0-.055 4.117c.008.158.017.317.024.477a3.726 3.726 0 0 0 0 1.471 4.69 4.69 0 0 0 .112.6c-1.109.6-2.218 1.207-3.313 1.808-1.366.747-2.732 1.495-4.06 2.218-.886.392-1.768.791-2.655 1.2-1.279.592-2.574 1.165-3.871 1.739a100.2 100.2 0 0 0-9.927 4.838 1.063 1.063 0 0 0-.263.073 6.718 6.718 0 0 0-2.467 1.686 16.3 16.3 0 0 0-2.244 1.714 10.708 10.708 0 0 0-2.327 4.418 11.65 11.65 0 0 0-.605 3.435c-.275 2.052-.034 3.581.716 4.55a36.88 36.88 0 0 0 4.154 7.752c.465.723.926 1.44 1.367 2.158 2.661 4.338 5.056 9.036 7.28 13.475 1.277 2.548 2.546 5.157 3.772 7.681l.308.627a.153.153 0 0 0-.025.193c.661 1.078 1.15 2.3 1.74 3.441.058.142.121.284.184.426a13.077 13.077 0 0 0 .676 1.645c.195.388.37.938.627 1.378.9 3.417 4.111 6.8 7.142 8.565a9.882 9.882 0 0 0 1.125.559 10.385 10.385 0 0 0 2.243.877 8.236 8.236 0 0 0 2.24.25l.318-.011c.156-.01.312-.025.458-.043 3.433-.377 6.59-1.9 9.645-3.366.518-.25 1.034-.5 1.549-.739 2.62-1.228 5.273-2.507 7.837-3.741q1.211-.582 2.421-1.159c-.63 1.907-1 3.917-1.644 5.815a35.334 35.334 0 0 0-1.592 8.921c-.175 2.6-.2 10.4 4.027 10.037 4.041-.353 5.01-7.531 5.708-10.334a135.9 135.9 0 0 0 3.079-18.192 67.084 67.084 0 0 0 4.683 8.191c1.26 2.005 2.862 5.062 5.082 6.093 1.919.89 3.692 1.763 5.532.267 2.478-2.016 2.439-6.518.71-8.906a.425.425 0 0 0-.14-.121 36.466 36.466 0 0 0-4.469-9.24 1.306 1.306 0 0 0 .459.253 29.358 29.358 0 0 0 6.515 3.161c1.9 1.007 3.787 2.045 5.674 3.117a.628.628 0 0 0 .489.059 14.047 14.047 0 0 0 3.941 1.855.571.571 0 0 0 .649-.242 4.573 4.573 0 0 0 1.423.362.383.383 0 0 0 .188.041 6.257 6.257 0 0 1 .75.073c2.007.427 3.955.286 4.938-1.346 1.478-2.448-1.018-5.208-2.79-6.689a59.365 59.365 0 0 0-7.045-4.644 40.427 40.427 0 0 0-5.826-3.166 16.968 16.968 0 0 0 2.547-.9c.293-.124.581-.243.855-.348.31-.12.642-.236.983-.359a18.461 18.461 0 0 0 2.831-1.189c.2-.112.39-.228.565-.347a7.625 7.625 0 0 0 1.5-.6 1.811 1.811 0 0 0 .6-.2 1.26 1.26 0 0 0 .487-.474 7.409 7.409 0 0 0 .753-.626 23.038 23.038 0 0 0 3.341-2.044 41.2 41.2 0 0 0 3.953-3.468 14.349 14.349 0 0 0 3.117-4.026 5.445 5.445 0 0 0 .446-1.551 4.727 4.727 0 0 0 .077-.529l.031-.07c.037-.081.075-.161.11-.243l.081-.19-.061-.2a1.375 1.375 0 0 1-.035-.613 2.4 2.4 0 0 0 .025-.263v-.26c-.1-.487-.24-1-.433-1.611l-.662-2.085-.028.15c-.4-1.011-.864-2-1.3-2.917-.421-.892-.819-1.731-1.093-2.469-2.626-7.062-5.551-13.883-8.827-21.426l-.1-.231c-2.516-5.794-5.115-11.782-9.178-16.611zm-53.876 10.344a5.537 5.537 0 0 1 .488-3.471 6.092 6.092 0 0 1 1.926-2c.271-.078.541-.158.813-.234.16-.045.321-.083.48-.126a4.207 4.207 0 0 0 .5-.024 8.033 8.033 0 0 1 2.552.9 6.682 6.682 0 0 1 1.367 1.011c.315.3.447.62.832.825a.225.225 0 0 0 .19.013l.068.109c-2.886 1.379-5.738 2.861-8.545 4.37-.225-.46-.46-.918-.666-1.38zm28.9 78.362c-.473 2.5-1.087 4.966-1.738 7.422-.559 2.11-1.023 4.355-2.392 6.112-1.722 2.21-2.523-.716-2.848-2.252a25.868 25.868 0 0 1-.232-7.516 63.3 63.3 0 0 1 1.252-7.712c.37-1.727 1.045-3.365 1.381-5.092.876-.419 1.749-.842 2.626-1.257.393-.187.787-.38 1.18-.57a33.3 33.3 0 0 0-.61 4.644 36.018 36.018 0 0 1-.56 4.266c-.178.833-.82 1.639-.918 2.427a.115.115 0 0 0 .112.118c1.473-.105 1.692-3.67 1.818-4.674.293-2.27.211-4.933.981-7.179.517-.249 1.035-.5 1.552-.748-.823 3.91-.868 8.121-1.6 12.011zm15.18-11.6c1.434 2.636 2.663 5.175 3.88 7.908.162 2.129.219 4.486-1.83 5.284-1.642.641-3.849-2.876-4.662-3.979-2.57-3.489-3.654-7.836-6.256-11.349a1.93 1.93 0 0 0-.409-.4q1.975-.993 3.921-1.975a79.814 79.814 0 0 1 4.081 7.866c.207.494.509 1.769 1.11 1.95.3.089.433.017.43-.329a.141.141 0 0 0-.167-.132.288.288 0 0 0-.015-.049c-.114-.274-.235-.546-.348-.818-.249-.6-.47-1.211-.759-1.788-1.178-2.359-2.426-4.7-3.693-7.022.507-.255 1.016-.514 1.526-.77.2.1.416.207.633.3a37.448 37.448 0 0 0 2.559 5.3zm18.638-4.08c1.192.788 7.59 5.62 3.72 6.773-3.686 1.1-8.242-2.374-11.355-3.963-2.831-1.443-5.708-2.79-8.533-4.238a6.77 6.77 0 0 0-2.026-1.073l-.576-.3a.343.343 0 0 0-.3-.025c-.031-.013-.066-.023-.1-.033.487-.244.976-.484 1.462-.727q3.419 1.791 6.764 3.708c1.177.672 2.364 1.325 3.57 1.941a8.6 8.6 0 0 0 2.771 1.124c.234.026.262-.284.112-.4a19.954 19.954 0 0 0-2.95-1.467c-1.217-.621-2.4-1.3-3.592-1.97a61.331 61.331 0 0 0-6.113-3.217c1.911-.948 3.828-1.888 5.753-2.8 4.083 1.507 7.8 4.285 11.392 6.664zm-3.026-57.872c.536 1.253 1.09 2.55 1.648 3.785q.721 1.6 1.448 3.2c2.245 4.943 4.567 10.055 6.564 15.256.316.822.674 1.662 1.021 2.472 1.339 3.127 2.722 6.364 2.094 9.674a13.154 13.154 0 0 1-1.493 2 27.7 27.7 0 0 1-5.3 4.19c-1 .666-2.025 1.354-2.979 2.089a32.387 32.387 0 0 1-3.964 2.588c-1.955 1.094-3.953 2.012-6.067 2.982q-.985.45-1.981.917c-4.8 2.247-9.6 4.712-14.235 7.093-3.4 1.746-6.914 3.552-10.4 5.258-1.579.772-3.146 1.557-4.708 2.342-4.066 2.039-8.27 4.148-12.524 5.911a.626.626 0 0 0-.11.014c-.7.163-1.352.363-1.984.556a13.4 13.4 0 0 1-3.86.77h-.113a15.572 15.572 0 0 1-5.253-.521 7.936 7.936 0 0 1-1.772-.844 1.01 1.01 0 0 1-.679-.218c-3.427-2.521-4.74-6.54-6.351-10.314-.791-1.5-1.544-3.031-2.281-4.535-.584-1.189-1.164-2.374-1.761-3.542-2.326-4.548-4.964-9.7-7.767-14.726-.865-1.547-1.8-3.067-2.712-4.536a72.193 72.193 0 0 1-4.219-7.494 11.668 11.668 0 0 1-.336-2.866 12.963 12.963 0 0 1 1.182-4.68 12.58 12.58 0 0 1 .649-1.259l.2-.3c.148-.22.3-.443.437-.663a7.936 7.936 0 0 1 2.288-2.115c.43-.3.875-.617 1.3-.981l.279-.158c1.245-.7 2.532-1.3 3.778-1.876l.306-.144c2.13-.994 4.313-1.972 6.426-2.918q2.221-.991 4.435-2c.772-.353 1.552-.72 2.341-1.092.836-.391 1.68-.789 2.53-1.177l.124-.057.2-.082.212-.088a10.076 10.076 0 0 0 2.082-1.085 7.845 7.845 0 0 0 1.847-.766 4.471 4.471 0 0 0 1.268-.678 1.136 1.136 0 0 0 .116-.111c.1-.056.195-.107.286-.153a33.072 33.072 0 0 0 3.532-2.088 10.213 10.213 0 0 1 1.522-.78c.407-.182.828-.37 1.228-.594a5.279 5.279 0 0 0 1.124-.815c.017-.016.031-.032.045-.047q1.066-.529 2.141-1.03c3.255-1.5 6.619-2.921 9.875-4.29q2.034-.858 4.064-1.721c2.617-1.12 4.89-2.134 6.948-3.1.113-.053.227-.1.34-.143l.418-.205.032-.023a11.278 11.278 0 0 1 4.972-1.91l.076-.016a11.532 11.532 0 0 1 1.641-.346l.456-.084v-.068c.114-.015.228-.033.341-.049a13.966 13.966 0 0 1 4.749-.144 11.662 11.662 0 0 1 6.66 4.353c3.342 3.979 5.516 9.065 7.618 13.984z" class="prefix__cls-1" data-name="Path 7438" transform="translate(-70.895 -260.167)"/>
        <path id="prefix__Path_7439" d="M150.547 279.006a4.977 4.977 0 0 0-1.329-1.44c-.114-.094-.225-.187-.336-.283a16.837 16.837 0 0 0-2.408-1.789c-2-1.2-4.305-.881-6.687-.419a22.071 22.071 0 0 0-5.149 1.631l-.171.075a13.09 13.09 0 0 0-1.452.737 4.505 4.505 0 0 0-.848.644c-.672.331-1.341.692-1.99 1.04l-.624.334c-.238.118-.471.239-.692.36l-.144.075-.4.208c-1.868.925-3.787 1.83-5.642 2.706-1.825.86-3.712 1.751-5.554 2.662-4.6 2.276-9.093 4.965-13.436 7.565-1.093.653-2.185 1.308-3.248 1.937q-1.062.527-2.125 1.074c-1.025.524-2.063 1.037-3.1 1.55a85.67 85.67 0 0 0-7.947 4.281.887.887 0 0 0-.211.068 5.779 5.779 0 0 0-1.968 1.447 14.19 14.19 0 0 0-1.786 1.457 8.8 8.8 0 0 0-1.811 3.6 9.2 9.2 0 0 0-.438 2.746 4.641 4.641 0 0 0 .647 3.565 27.657 27.657 0 0 0 3.476 5.943c.386.549.77 1.1 1.136 1.643 2.218 3.311 4.223 6.916 6.087 10.326 1.072 1.956 2.137 3.963 3.166 5.9.851 1.6 1.7 3.2 2.565 4.8.057.105.125.214.193.324l.008.011c.418 2.945 3.362 5.867 6.085 7.251a7.722 7.722 0 0 0 .918.391 8.2 8.2 0 0 0 1.827.592 6.873 6.873 0 0 0 1.813.1l.257-.025c.126-.014.25-.032.37-.054a25.783 25.783 0 0 0 7.739-3.1c.416-.222.828-.443 1.239-.657 2.1-1.092 4.223-2.221 6.275-3.315q2.568-1.369 5.139-2.722c3.279-1.721 6.564-3.549 9.741-5.317 3.468-1.931 7.052-3.929 10.634-5.782a10.6 10.6 0 0 0 2.758-.992c.236-.11.466-.217.687-.315.248-.107.515-.215.789-.328a15.97 15.97 0 0 0 2.269-1.068c.16-.1.312-.2.45-.3a6.8 6.8 0 0 0 1.207-.539 1.527 1.527 0 0 0 .479-.185 1.073 1.073 0 0 0 .387-.4 6.01 6.01 0 0 0 .6-.53 19.6 19.6 0 0 0 2.669-1.769 35.165 35.165 0 0 0 3.14-2.922 12.035 12.035 0 0 0 2.457-3.327 4.348 4.348 0 0 0 .336-1.246 3.48 3.48 0 0 0 .054-.421l.026-.058c.028-.063.058-.13.084-.2l.062-.154-.052-.153a1.048 1.048 0 0 1-.038-.484c.009-.07.013-.14.016-.208l-.008-.205a12.165 12.165 0 0 0-.374-1.255l-.566-1.619-.02.12c-.336-.782-.728-1.544-1.092-2.248-.354-.685-.688-1.333-.919-1.9-2.231-5.467-4.7-10.727-7.458-16.544l-.086-.177c-2.119-4.468-4.312-9.086-7.668-12.719zm6.714 13.344l.084.174c2.679 5.647 5.075 10.754 7.238 16.061.226.552.55 1.181.894 1.846.353.686.733 1.423 1.059 2.183l.02-.117.549 1.571a12.189 12.189 0 0 1 .363 1.219l.006.2a1.867 1.867 0 0 1-.016.2 1.028 1.028 0 0 0 .038.469l.049.15-.059.147c-.025.066-.054.13-.083.193l-.024.055a3.618 3.618 0 0 1-.052.408 4.193 4.193 0 0 1-.328 1.21 11.663 11.663 0 0 1-2.385 3.23 34.145 34.145 0 0 1-3.049 2.837 18.855 18.855 0 0 1-2.59 1.717 6.17 6.17 0 0 1-.581.514 1.052 1.052 0 0 1-.375.385 1.455 1.455 0 0 1-.466.176 6.438 6.438 0 0 1-1.169.526c-.136.1-.284.2-.44.29a15 15 0 0 1-2.2 1.039c-.268.106-.526.213-.766.318-.215.095-.437.2-.666.306a10.2 10.2 0 0 1-2.678.96c-3.478 1.8-6.957 3.739-10.323 5.614-3.086 1.717-6.275 3.494-9.458 5.163-1.665.872-3.327 1.758-4.989 2.642-1.993 1.062-4.054 2.159-6.092 3.218-.4.21-.8.423-1.2.638a24.99 24.99 0 0 1-7.515 3.01c-.114.02-.236.039-.358.053l-.249.024a6.621 6.621 0 0 1-1.76-.092 7.879 7.879 0 0 1-1.772-.576 7.3 7.3 0 0 1-.892-.379c-2.643-1.343-5.5-4.182-5.906-7.04l-.01-.012c-.066-.105-.131-.212-.187-.313-.839-1.549-1.665-3.106-2.491-4.66-1-1.884-2.033-3.831-3.072-5.733-1.812-3.309-3.759-6.811-5.911-10.024-.356-.532-.728-1.062-1.1-1.6a26.775 26.775 0 0 1-3.374-5.767 4.509 4.509 0 0 1-.629-3.464 8.984 8.984 0 0 1 .425-2.665 8.524 8.524 0 0 1 1.759-3.494 13.736 13.736 0 0 1 1.734-1.416 5.6 5.6 0 0 1 1.911-1.4.914.914 0 0 1 .2-.069 83.734 83.734 0 0 1 7.714-4.154c1.009-.5 2.017-1 3.011-1.5q1.033-.53 2.063-1.04c1.032-.612 2.093-1.247 3.152-1.883 4.216-2.523 8.577-5.133 13.044-7.345 1.789-.882 3.621-1.748 5.392-2.582 1.8-.851 3.665-1.73 5.478-2.629.131-.064.263-.134.393-.2l.14-.07c.214-.119.441-.238.672-.353l.605-.323c.63-.341 1.28-.689 1.933-1.01a4.393 4.393 0 0 1 .823-.625 12.761 12.761 0 0 1 1.408-.715l.167-.075a21.39 21.39 0 0 1 5-1.583c2.311-.448 4.547-.754 6.49.408a16.08 16.08 0 0 1 2.339 1.737l.326.275a4.835 4.835 0 0 1 1.291 1.4c3.259 3.522 5.384 8.008 7.445 12.342z" class="prefix__cls-1" data-name="Path 7439" transform="translate(-70.142 -259.563)"/>
        <path id="prefix__Path_7440" d="M107.612 349.664a10.1 10.1 0 0 1-7.416-.346 8.423 8.423 0 0 1-4.474-5.5.184.184 0 0 0-.362.04v.2a1.436 1.436 0 0 1 .075.943c.842 4.918 8.333 7.286 12.368 5.151a.266.266 0 0 0-.191-.488z" class="prefix__cls-1" data-name="Path 7440" transform="translate(-69.067 -254.405)"/>
        <path id="prefix__Path_7441" d="M105.309 349.016a9.958 9.958 0 0 0-1.559.019 6.723 6.723 0 0 1-2.043-.37c-.145-.051-.251.188-.107.25a6.508 6.508 0 0 0 1.752.493 3.314 3.314 0 0 0 1.985-.164.126.126 0 0 0-.028-.228z" class="prefix__cls-1" data-name="Path 7441" transform="translate(-68.606 -254.033)"/>
        <path id="prefix__Path_7442" d="M80.606 301.946c-1.564 1.251-1.941 4.1-1.883 5.971a12.62 12.62 0 0 0 2.177 6.613.158.158 0 0 0 .276-.154A19.168 19.168 0 0 1 79.4 308.3a9.465 9.465 0 0 1 .4-3.21c.292-1.029.99-1.856 1.29-2.858a.291.291 0 0 0-.484-.286z" class="prefix__cls-1" data-name="Path 7442" transform="translate(-70.311 -257.529)"/>
        <path id="prefix__Path_7443" d="M153.523 267.417a19.626 19.626 0 0 0-4.985-3.768c-3.364-1.777-7.648-2.191-10.759.322-.288.233.072.665.377.505a10.192 10.192 0 0 1 10.457.319 18.758 18.758 0 0 1 4.167 3.353 18.958 18.958 0 0 1 1.658 1.993c.4.547.688 1.4 1.306 1.712a.411.411 0 0 0 .613-.343c.095-1.31-1.999-3.218-2.834-4.093z" class="prefix__cls-1" data-name="Path 7443" transform="translate(-65.905 -260.494)"/>
        <path id="prefix__Path_7444" d="M147.575 261.349a5.589 5.589 0 0 0-3.8-.6c-.282.084-.261.557.059.535a7.151 7.151 0 0 1 3.6.854 8.272 8.272 0 0 1 1.486.954c.327.261.541.685.966.767a.3.3 0 0 0 .369-.274c.069-1.005-1.955-1.897-2.68-2.236z" class="prefix__cls-1" data-name="Path 7444" transform="translate(-65.464 -260.613)"/>
        <path id="prefix__Path_7445" d="M152.979 265.528a5.233 5.233 0 0 0-1.006-1.044c-.2-.143-.441.125-.328.322.227.4.488.787.746 1.164.22.32.442.758.874.735a.247.247 0 0 0 .24-.233c.056-.386-.305-.664-.526-.944z" class="prefix__cls-1" data-name="Path 7445" transform="translate(-64.863 -260.327)"/>
        <path id="prefix__Path_7446" d="M159.865 345.267a3.743 3.743 0 0 0-1.216-.42 4.34 4.34 0 0 1-1.4-.911c-.175-.164-.506.051-.353.265a3.574 3.574 0 0 0 1.247 1.106c.457.241 1.206.563 1.684.249a.185.185 0 0 0 .038-.289z" class="prefix__cls-1" data-name="Path 7446" transform="translate(-64.471 -254.39)"/>
        <path id="prefix__Path_7447" d="M104.237 357.224a9.339 9.339 0 0 0-1.646.334 7.723 7.723 0 0 1-2.124.033 12.131 12.131 0 0 1-4.6-1.593 20.408 20.408 0 0 1-6.519-6.169c-.168-.229-.631-.121-.512.2 1.066 2.9 4.006 5.233 6.584 6.731a12.957 12.957 0 0 0 4.7 1.688c1.294.17 3.3.293 4.346-.642a.345.345 0 0 0-.229-.582z" class="prefix__cls-1" data-name="Path 7447" transform="translate(-69.556 -253.954)"/>
        <path id="prefix__Path_7448" d="M108.053 355.708a4.276 4.276 0 0 0-1.482.622 8.492 8.492 0 0 0-1.141.546.29.29 0 0 0 .061.524c.377.143.859-.117 1.2-.257a3.709 3.709 0 0 0 1.652-.908.353.353 0 0 0-.29-.527z" class="prefix__cls-1" data-name="Path 7448" transform="translate(-68.325 -253.506)"/>
        <path id="prefix__Path_7449" d="M103.049 304.5c-3.762-2.018-6.717 3.272-7.737 6.3a11.106 11.106 0 0 0-1.708 4.234c-.241 1.434-.139 3.443 1.213 4.342a2.944 2.944 0 0 0 4.222-1.084 64.336 64.336 0 0 0 3.03 7.253c.36.836.742 1.691 1.169 2.525a7.081 7.081 0 0 0 5.655 5.706 5.894 5.894 0 0 0 3.965-.787 2.875 2.875 0 0 0 1.315-2.692c.015-.047.033-.092.046-.14a3.335 3.335 0 0 0-.314-2.412 3.925 3.925 0 0 0-.721-1.667 3.462 3.462 0 0 0-.772-1.841c-.186-.465-.368-.91-.526-1.32-1.36-3.492-2.374-7.11-3.772-10.588-1.072-2.667-2.361-6.38-5.066-7.832zm4.239 8.3c1.227 2.946 2.133 6.016 3.2 9.02.936 2.628 2.6 5.6 2.059 8.484a2.731 2.731 0 0 1-1.025 1.784 4.857 4.857 0 0 1-.946.419 4.794 4.794 0 0 1-3.7-1.08c-2.023-1.613-3.133-4.4-4.138-6.707-1.21-2.776-2.882-5.567-3.224-8.626-.012-.077-.015-.156-.031-.235-.13-.618-1.009-.37-.93.229.316 2-2.319 3.966-3.637 1.9-1.055-1.66-.292-4.06.722-6.057a.5.5 0 0 0 .559-.366 14.46 14.46 0 0 1 .609-1.655c.086-.136.17-.264.249-.385a.276.276 0 0 0 .037-.239c1.211-2.5 3.325-5.192 5.872-3.62a8.058 8.058 0 0 1 2.36 3.015 36.977 36.977 0 0 1 1.964 4.119z" class="prefix__cls-1" data-name="Path 7449" transform="translate(-69.206 -257.366)"/>
        <path id="prefix__Path_7450" d="M129.9 311.1a2.837 2.837 0 0 1-1.084-.7c-.289-.423-.07-1.477-.014-1.938.248-2.047.671-6.239-2.074-6.829-1.577-.342-3.2.841-4.11 2a17.238 17.238 0 0 0-2.419 5.147 9.343 9.343 0 0 1-1.463-.193c-.318-.125-.638-.248-.957-.375-.069-.061-.138-.125-.2-.189a.2.2 0 0 0-.278 0 7.6 7.6 0 0 0-3.316-.651 3.1 3.1 0 0 0-2.732 2.842c-.533 3.82 3.614 5.455 6.741 6.073-1.836 2.536-1.7 8.336 1.614 9.014 3.554.728 4.153-6.126 5.1-8.582 2.4.692 5.8 2.235 7.947.517 1.166-.935.9-3.139.005-4.132a9.548 9.548 0 0 0-2.765-2zm2.056 5.412c-.874.91-2.979.318-4 .085-1.142-.263-2.249-.657-3.386-.936a.487.487 0 0 0-.553.222c-1.245 2.519-1.084 5.97-3.127 8.066-1.658 1.7-2.841-1.411-2.969-2.613-.161-1.508.01-3.98 1.377-4.944a.527.527 0 0 0-.244-.977c-2.854-.406-6.588-1.4-6.776-4.876-.147-2.729 2.518-2.374 4.727-1.868a.176.176 0 0 0 .1.117c.419.221.882.46 1.364.661.031.021.058.045.09.066a2.606 2.606 0 0 0 .766.318.777.777 0 0 0 .142.09c.152.067.255.195.24.009a.342.342 0 0 0 .54.232.5.5 0 0 0 .618-.312 37.3 37.3 0 0 1 1.885-4.619c.691-1.3 2.506-3.353 4.2-2.5 1.871.94.89 5.232.807 6.837a2.019 2.019 0 0 0 1.051 2.07c1.44.868 5.176 2.76 3.147 4.873z" class="prefix__cls-1" data-name="Path 7450" transform="translate(-67.883 -257.552)"/>
        <path id="prefix__Path_7451" d="M149.116 304.456c-.6.3-1.15.681-1.735 1a2.714 2.714 0 0 1-.359.157c2.871-4.487 2.028-11.311-1.614-15.075-4.737-4.9-11.352-1.554-15.492 2.255a.47.47 0 0 0-.157.459 1.3 1.3 0 0 0-.125.521v.009c-1.4 2.463-1.246 6 .819 7.938a4.136 4.136 0 0 0 5.251.071 19.828 19.828 0 0 0 2.594-2.9c.372-.427.865-1 1.468-1.06.7-.066 1.217.791 1.24 1.374.084 2.082-2.178 4.242-3.208 5.888a9.1 9.1 0 0 0-.543 8.4c2.6 5.005 10.034 1.4 13.191-1 2.462-1.873 4.472-5.465 1.662-8.023-.883-.8-2.043-.488-3-.016zM152 309.3a9.036 9.036 0 0 1-3.146 3.118c-2.216 1.468-5.138 2.715-7.831 2.529-4.433-.3-4.01-6.578-2.375-9.342 1.1-1.856 2.7-3.448 3.266-5.582.375-1.408-.7-3.635-2.461-3.167-2.45.649-3.034 4.082-5.478 4.72-2.742.715-4.147-1.859-4.237-4.209a6.325 6.325 0 0 1 1.2-4c3.738-3.344 9.034-6.094 13.447-2.266 4.021 3.49 4.55 11.176 1.041 15.131a.46.46 0 0 0 .543.728c.708-.4 1.541-.541 2.27-.972.876-.514 2.07-1.513 3.118-.936 1.464.803 1.275 3.028.643 4.248z" class="prefix__cls-1" data-name="Path 7451" transform="translate(-66.574 -258.559)"/>
        <path id="prefix__Path_7452" d="M157.027 307.759a10.035 10.035 0 0 1 .394 5.3 8.213 8.213 0 0 1-.877 2.377 12.82 12.82 0 0 1-1.779 2.032.287.287 0 0 0 .268.479c1.781-.419 2.706-2.69 3.123-4.279a8.223 8.223 0 0 0-.672-6.087c-.135-.237-.555-.096-.457.178z" class="prefix__cls-1" data-name="Path 7452" transform="translate(-64.633 -257.112)"/>
        <path id="prefix__Path_7453" d="M153.67 317.946a3.314 3.314 0 0 0-1.01.693.246.246 0 0 0 .229.411 3.277 3.277 0 0 0 1.117-.5.346.346 0 0 0-.336-.604z" class="prefix__cls-1" data-name="Path 7453" transform="translate(-64.79 -256.331)"/>
        <path id="prefix__Path_7454" d="M96.513 303.654c-1.058.771-1.785 2.526-2.347 3.672a8.577 8.577 0 0 0-1.2 3.795c.008.192.312.263.353.052a15.625 15.625 0 0 1 1.447-3.918 36.582 36.582 0 0 0 1.9-3.482c.026-.079-.08-.173-.153-.119z" class="prefix__cls-1" data-name="Path 7454" transform="translate(-69.247 -257.397)"/>
        <path id="prefix__Path_7455" d="M98.707 302.484c-.345-.184-.7.149-.968.343a.277.277 0 0 0 .269.484c.305-.128.774-.257.8-.649a.2.2 0 0 0-.101-.178z" class="prefix__cls-1" data-name="Path 7455" transform="translate(-68.899 -257.488)"/>
        <path id="prefix__Path_7456" d="M131.784 293.778a4.3 4.3 0 0 0-.861 3.673c.149.964 1.191 2.469 2.284 1.615.076-.057.028-.181-.052-.2-.416-.123-.826-.056-1.188-.354a2.221 2.221 0 0 1-.585-1.381 4.406 4.406 0 0 1 .61-3.136c.124-.146-.072-.355-.208-.217z" class="prefix__cls-1" data-name="Path 7456" transform="translate(-66.415 -258.138)"/>
        <path id="prefix__Path_7457" d="M102.309 308.056a2.088 2.088 0 0 0-2.74-.876.271.271 0 0 0 .2.5c1.271-.226 1.889.488 2.475 1.531.387.689.617 1.808 1.319 2.241a.153.153 0 0 0 .227-.129 6.513 6.513 0 0 0-1.481-3.267z" class="prefix__cls-1" data-name="Path 7457" transform="translate(-68.763 -257.151)"/>
    </g>
</svg>
