<svg xmlns="http://www.w3.org/2000/svg" id="prefix__Group_13737" width="73.664" height="85.488" data-name="Group 13737" viewBox="0 0 73.664 85.488">
    <defs>
        <style>
            .prefix__cls-1{fill:#220501}.prefix__cls-1,.prefix__cls-3,.prefix__cls-4{fill-rule:evenodd}.prefix__cls-3{fill:#ec7e00}.prefix__cls-4{fill:#5d1913}
        </style>
    </defs>
    <path id="prefix__Path_7393" d="M433.052 129.515c-2.511-.414-5.155.562-7.642 1.286a25.586 25.586 0 0 1-5.945-3.155c-4.389-2.879-8.3-6.417-12.48-9.583-4.011-3.036-8.085-5.45-13.078-6.343-5.5-.986-11.2.9-15.791 3.867a11.568 11.568 0 0 0-1.637-3.654 5.8 5.8 0 0 0-3.174-2.514 6.145 6.145 0 0 0-5.41 1.434c-.964-.075-1.84 1.247-2.311 1.928a9.327 9.327 0 0 0-1.615 4.171 4.594 4.594 0 0 0 1.469 3.75 2.368 2.368 0 0 0 .288.281 8.26 8.26 0 0 0 3.578 1.852c-5.512 8.007-3.531 19.86 1.818 27.468 3.457 4.916 8.036 8.785 11.9 13.349a24.19 24.19 0 0 1 4.558 9.03c.744 2.585.661 5.28 1.285 7.883 0 .052.008.1.012.15s.006.116.009.176a2.063 2.063 0 0 0 .024.489.407.407 0 0 0-.255.49c1.361 4.186 9.612 2.289 12.642 1.754a20.3 20.3 0 0 0 7.914-3.436c.931-.659 1.962-1.447 2.977-2.313a53.06 53.06 0 0 0 8.232-6.5 4.189 4.189 0 0 0 .7 1.455 5.61 5.61 0 0 0 4.132 2.32 7.213 7.213 0 0 0 4.218-.144.538.538 0 0 0 .632-.231 3.2 3.2 0 0 0 .181-.3h.006a.606.606 0 0 0 .6-.4c.027-.06.2-.168.262-.224a.186.186 0 0 0 .026-.025 6.6 6.6 0 0 0 .987-.86 3.133 3.133 0 0 0 .921-1.876 9.812 9.812 0 0 0 .824-1c2.547-3.537 1.9-10.118-2.429-11.765a37.529 37.529 0 0 0 5.758-14.692 3.5 3.5 0 0 0 .285-2.458 24.959 24.959 0 0 0-.279-6.064c-.408-2.296-1.607-5.169-4.192-5.596z" class="prefix__cls-1" data-name="Path 7393" transform="translate(-363.942 -106.215)"/>
    <path id="prefix__Path_7394" d="M427.162 159.745a79.544 79.544 0 0 1-10.68 11.7.691.691 0 0 0-.206.052c-2.347.99-4.057 3.181-6.254 4.5-1.168.7-2.288 1.415-3.43 2.084a23.2 23.2 0 0 1-6.629 1.947 13.338 13.338 0 0 1-5.743-.706c-.047-.038-.094-.074-.146-.111a3.358 3.358 0 0 1-.838-1.09 7.756 7.756 0 0 1-.586-1.408c-.377-4.214-.581-8.383-2.507-12.3-2.644-5.383-8.145-8.781-12.356-12.794a27.578 27.578 0 0 1-7.825-14.9c-1.161-5.967.128-11.236 3.06-16.441a.58.58 0 0 0-.161-.729.728.728 0 0 0-.182-.2c-.4-.3-1.056-.118-1.516.1a2.189 2.189 0 0 0-.622.146 13.581 13.581 0 0 1-2.985-.639 1.646 1.646 0 0 1-1.017-1.225c-.328-1.465.77-3.311 1.765-4.419 1.042-1.16 2.75-2.392 4.4-1.99a3.589 3.589 0 0 1 2.06 1.636 9.31 9.31 0 0 1 .958 2.015 6.564 6.564 0 0 0 .978 2.525.88.88 0 0 0 1.477-.305 2.531 2.531 0 0 0 .123-.749c6.171-2.71 12.419-3.785 18.942-1.25 4.455 1.732 8.278 5.125 11.972 8.069 3.73 2.973 7.409 6.014 11.712 8.121.324.157.677.322 1.046.492.434.507.851 1.033 1.279 1.544.114.183.227.362.335.549.348.607.575 1.5 1 2.1 0 .035.009.071.014.106-.238 6.4-3.007 12.582-6.535 17.864-4.246 6.361-10.218 12.91-18.021 14.581-.361.077-.344.686.045.668 7.791-.363 14.56-7.839 18.889-13.7 3.607-4.886 7.966-11.845 8.583-18.533a3.979 3.979 0 0 1 2.433-1.655c1.119-.248 2.106.639 2.832 1.357.187.187.545.61.96 1a12.243 12.243 0 0 1 1.125 2.531c.026.085.044.178.063.271-.424 6.929-3.707 13.752-7.812 19.186z" data-name="Path 7394" transform="translate(-364.028 -106.066)" style="fill:#fbb403;fill-rule:evenodd"/>
    <path id="prefix__Path_7395" d="M429.592 172.991a38.821 38.821 0 0 1-3.837 3c-1.168.7-2.288 1.415-3.43 2.084a23.2 23.2 0 0 1-6.629 1.947 13.338 13.338 0 0 1-5.743-.706c-.047-.038-.094-.074-.146-.111a3.358 3.358 0 0 1-.838-1.09 7.754 7.754 0 0 1-.586-1.408c-.377-4.214-.581-8.383-2.507-12.3-2.644-5.383-8.145-8.781-12.356-12.794a27.578 27.578 0 0 1-7.825-14.9c-1.161-5.967.128-11.236 3.06-16.441a.58.58 0 0 0-.161-.729.728.728 0 0 0-.182-.2c-.4-.3-1.056-.118-1.516.1a2.189 2.189 0 0 0-.622.146 13.58 13.58 0 0 1-2.985-.639 1.646 1.646 0 0 1-1.017-1.225c-.328-1.465.77-3.311 1.765-4.419 1.042-1.16 2.75-2.392 4.4-1.99a3.589 3.589 0 0 1 2.06 1.636 9.309 9.309 0 0 1 .958 2.015 6.565 6.565 0 0 0 .978 2.525.887.887 0 0 0 1.343-.054c-.972 5.865-1 13.58 3.021 20.437 7.8 13.292 27.136 25.668 36.995 16.16-4.246 6.361-10.218 12.91-18.021 14.581-.361.077-.344.686.045.668 5.976-.279 11.348-4.74 15.482-9.449-1.484 4.059-2.866 9.412-1.706 13.156z" class="prefix__cls-3" data-name="Path 7395" transform="translate(-379.761 -106.066)"/>
    <path id="prefix__Path_7396" d="M376.533 160.548a6.586 6.586 0 0 1-1.8 5.516 4.126 4.126 0 0 1-2.724 1.446l-.131-.015a2.95 2.95 0 0 1-.353-.082c-.335-.162-.692-.261-1.045-.391a3.806 3.806 0 0 1-1.544-1.646.621.621 0 0 0-.265-.258 2.082 2.082 0 0 1-.112-1.072.642.642 0 0 0-.181-.6c1.924-2.146 3.721-4.342 5.324-6.494 1.355.979 2.434 1.698 2.831 3.596z" class="prefix__cls-3" data-name="Path 7396" transform="translate(-307.734 -102.649)"/>
    <g id="prefix__Group_13736" data-name="Group 13736">
        <path id="prefix__Path_7399" d="M433.052 129.515c-2.511-.414-5.155.562-7.642 1.286a25.586 25.586 0 0 1-5.945-3.155c-4.389-2.879-8.3-6.417-12.48-9.583-4.011-3.036-8.085-5.45-13.078-6.343-5.5-.986-11.2.9-15.791 3.867a11.568 11.568 0 0 0-1.637-3.654 5.8 5.8 0 0 0-3.174-2.514 6.145 6.145 0 0 0-5.41 1.434c-.964-.075-1.84 1.247-2.311 1.928a9.327 9.327 0 0 0-1.615 4.171 4.594 4.594 0 0 0 1.469 3.75 2.447 2.447 0 0 0 .288.281 8.26 8.26 0 0 0 3.578 1.852c-5.512 8.007-3.531 19.86 1.818 27.468 3.457 4.916 8.036 8.786 11.9 13.349a24.19 24.19 0 0 1 4.558 9.03c.744 2.585.661 5.28 1.285 7.883 0 .052.008.1.012.15s.006.116.009.176a2.075 2.075 0 0 0 .024.49.405.405 0 0 0-.255.489c1.361 4.186 9.612 2.289 12.642 1.754a20.3 20.3 0 0 0 7.914-3.436c.931-.659 1.962-1.447 2.977-2.313a53.06 53.06 0 0 0 8.232-6.5 4.189 4.189 0 0 0 .7 1.455 5.606 5.606 0 0 0 4.132 2.32 7.213 7.213 0 0 0 4.218-.144.538.538 0 0 0 .632-.231 3.2 3.2 0 0 0 .181-.3h.006a.605.605 0 0 0 .6-.4c.027-.06.2-.168.262-.224a.186.186 0 0 0 .026-.025 6.6 6.6 0 0 0 .987-.86 3.131 3.131 0 0 0 .921-1.876 9.7 9.7 0 0 0 .824-1c2.547-3.537 1.9-10.118-2.429-11.765a37.529 37.529 0 0 0 5.758-14.692 3.5 3.5 0 0 0 .285-2.458 24.959 24.959 0 0 0-.279-6.064c-.4-2.295-1.6-5.167-4.187-5.594zm-.311 34.6a6.586 6.586 0 0 1-1.8 5.516 4.126 4.126 0 0 1-2.724 1.446l-.131-.015a2.95 2.95 0 0 1-.353-.082c-.335-.162-.692-.261-1.045-.391a3.809 3.809 0 0 1-1.544-1.645.606.606 0 0 0-.265-.259 2.082 2.082 0 0 1-.112-1.072.643.643 0 0 0-.181-.6c1.924-2.146 3.721-4.343 5.324-6.494 1.356.978 2.435 1.7 2.832 3.6zm-5.665-4.221a79.544 79.544 0 0 1-10.68 11.7.691.691 0 0 0-.206.052c-2.348.99-4.057 3.181-6.254 4.5-1.168.7-2.288 1.415-3.431 2.084a23.184 23.184 0 0 1-6.628 1.947 13.338 13.338 0 0 1-5.743-.706c-.047-.038-.094-.074-.146-.111a3.358 3.358 0 0 1-.838-1.09 7.754 7.754 0 0 1-.586-1.408c-.377-4.214-.58-8.383-2.507-12.3-2.644-5.383-8.145-8.781-12.356-12.794a27.578 27.578 0 0 1-7.825-14.9c-1.161-5.967.128-11.236 3.06-16.441a.58.58 0 0 0-.161-.729.728.728 0 0 0-.182-.2c-.4-.3-1.056-.118-1.516.1a2.189 2.189 0 0 0-.622.146 13.581 13.581 0 0 1-2.985-.639 1.646 1.646 0 0 1-1.017-1.225c-.328-1.465.77-3.311 1.765-4.419 1.042-1.16 2.75-2.392 4.4-1.99a3.589 3.589 0 0 1 2.06 1.636 9.31 9.31 0 0 1 .958 2.015 6.558 6.558 0 0 0 .978 2.525.88.88 0 0 0 1.477-.305 2.537 2.537 0 0 0 .123-.749c6.171-2.71 12.419-3.785 18.942-1.25 4.455 1.732 8.278 5.125 11.972 8.069 3.73 2.973 7.409 6.014 11.712 8.121.324.157.677.322 1.046.492.434.507.851 1.033 1.279 1.544.114.183.227.362.335.549.348.607.575 1.5 1 2.1 0 .035.009.071.014.106-.238 6.4-3.007 12.582-6.535 17.864-4.246 6.361-10.218 12.91-18.021 14.581-.361.077-.344.686.045.668 7.791-.363 14.56-7.839 18.889-13.7 3.607-4.886 7.966-11.845 8.582-18.533a3.985 3.985 0 0 1 2.433-1.655c1.12-.248 2.108.639 2.833 1.357.187.187.545.61.96 1a12.244 12.244 0 0 1 1.125 2.531c.026.085.044.178.063.271-.424 6.929-3.707 13.752-7.811 19.186z" class="prefix__cls-1" data-name="Path 7399" transform="translate(-363.942 -106.215)"/>
        <path id="prefix__Path_7400" d="M424.928 146.458c-3.416-2.343-5.818-4.618-7.583-8.487a15.912 15.912 0 0 1-.657-11.573c.089-.253-.254-.513-.45-.3-5.535 6.023.389 20.051 7.944 21.9a.865.865 0 0 0 .746-1.54z" class="prefix__cls-1" data-name="Path 7400" transform="translate(-405.521 -104.961)"/>
        <path id="prefix__Path_7401" d="M412.664 149.6a4.184 4.184 0 0 0-2.127-1.158c-.691-.234-1.372-.5-2.059-.751a.952.952 0 0 0-1 1.531 6.182 6.182 0 0 0 2.128 1.23 4.888 4.888 0 0 0 2.608.531.848.848 0 0 0 .45-1.383z" class="prefix__cls-1" data-name="Path 7401" transform="translate(-385.707 -103.346)"/>
        <path id="prefix__Path_7402" d="M422.942 112.8a.063.063 0 0 0 .026.123c1.842-.4 2.607 1.849 2.862 3.256.069.378.637.256.58-.119-.251-1.573-1.621-3.776-3.468-3.26z" class="prefix__cls-1" data-name="Path 7402" transform="translate(-416.109 -105.955)"/>
        <path id="prefix__Path_7403" d="M414.813 114.613c-1.309-.954-2.486-2.2-3.742-3.245a20.857 20.857 0 0 0-6.519-3.456 29.392 29.392 0 0 0-6.99-1.442c-2-.17-4.334.093-5.683 1.74-.265.325.225.656.515.444 2.012-1.475 4.518-1.233 6.85-.843a30.354 30.354 0 0 1 6.645 1.9 21.311 21.311 0 0 1 5.728 3.713c.716.626 1.952 2.218 3.019 2.118.473-.042.498-.693.177-.929z" class="prefix__cls-1" data-name="Path 7403" transform="translate(-371.304 -106.426)"/>
        <path id="prefix__Path_7404" d="M389.269 116.663a2.5 2.5 0 0 0-1.872-.479c-.3.054-.358.553-.038.628a3.447 3.447 0 0 1 1.774 1.049c.232.249.429.592.792.652a.394.394 0 0 0 .473-.248c.224-.665-.673-1.286-1.129-1.602z" class="prefix__cls-1" data-name="Path 7404" transform="translate(-341.705 -105.699)"/>
        <path id="prefix__Path_7405" d="M413.867 181.556c-3.265 2.447-8.539 2.678-12.27 1.312a7.556 7.556 0 0 1-4.7-4.6c-.608-1.8-.783-3.747-1.332-5.575a.282.282 0 0 0-.551.114c.419 2.267.435 4.586 1.337 6.743a8.83 8.83 0 0 0 4.9 4.326 14.656 14.656 0 0 0 13.358-1.483c.583-.436-.167-1.267-.742-.837z" class="prefix__cls-1" data-name="Path 7405" transform="translate(-374.548 -101.489)"/>
        <path id="prefix__Path_7406" d="M409.717 185.078a13.647 13.647 0 0 1-4.4-1.392c-.409-.186-.6.406-.317.65a8.634 8.634 0 0 0 4.649 1.8c.681.064.751-.993.068-1.058z" class="prefix__cls-1" data-name="Path 7406" transform="translate(-380.509 -100.654)"/>
    </g>
</svg>
