<svg xmlns="http://www.w3.org/2000/svg" width="160" height="160" viewBox="0 0 160 160">
    <defs>
        <filter id="prefix__Ellipse_211" width="160" height="160" x="0" y="0" filterUnits="userSpaceOnUse">
            <feOffset dy="10"/>
            <feGaussianBlur result="blur" stdDeviation="12"/>
            <feFlood flood-opacity=".188"/>
            <feComposite in2="blur" operator="in"/>
            <feComposite in="SourceGraphic"/>
        </filter>
    </defs>
    <g id="prefix__Group_13641" data-name="Group 13641" transform="translate(-1101.652 -1962)">
        <g transform="translate(1101.65 1962)">
            <circle id="prefix__Ellipse_211-2" cx="44" cy="44" r="44" data-name="Ellipse 211" transform="translate(36 26)" style="fill:#151f2f"/>
        </g>
        <path id="prefix__Fill_15" d="M61.952 101.617l9.6-1.647.191-.042a60.055 60.055 0 0 0 14.243-5.8 56.9 56.9 0 0 0 8.318-5.843l1.547-1.3-7.4-8.706-3.074 2.606 4.759 5.6a51.605 51.605 0 0 1-6.159 4.159 55.907 55.907 0 0 1-13.207 5.38l-9.218 1.59c-.339.026-.68.046-1.021.066v.02l-7.158-.261v-.011C30.26 95.381 11.059 79.247 5.6 57.28A53.163 53.163 0 0 1 21.014 5.494l5.343 5.329 2.852-2.846L21.212 0l-1.417 1.2A57.147 57.147 0 0 0 1.679 58.248c5.853 23.528 26.328 40.829 51.01 43.152l-.015 9.879c-13.317.36-23.432 2.139-23.432 4.284s10.115 3.922 23.432 4.282v.04h1.833q1.548.026 3.142.026c15.689 0 28.407-1.948 28.407-4.348 0-2.242-11.068-4.086-25.289-4.324v-9.547c.4-.022.79-.046 1.186-.077" data-name="Fill 15" transform="translate(1123 1987.221)" style="fill:#023d4d"/>
    </g>
</svg>
