<svg xmlns="http://www.w3.org/2000/svg" width="113.078" height="141.056" viewBox="0 0 113.078 141.056">
    <defs>
        <style>
            .prefix__cls-1{fill:#74b570}.prefix__cls-2{fill:#01c089}.prefix__cls-5{fill:#fff}
        </style>
    </defs>
    <g id="prefix__Group_13688" data-name="Group 13688">
        <path id="prefix__Path_7316" d="M3003.62 1323.431c7.651 6.986 4.325 13.972-1.331 26.945s-6.653 60.876-6.653 60.876l4.657-.665s-.666-49.233 5.655-62.539 8.982-19.959 14.637-15.635-16.965-8.982-16.965-8.982z" class="prefix__cls-1" data-name="Path 7316" transform="translate(-2950.174 -1292.798)"/>
        <path id="prefix__Path_7317" d="M3009.759 1220.321c.929-4.14 6.447-8.619 13.826-12.419-1.1 6.106-4.615 16.09-.974 18.137 4.91 2.762.478-11.177 2.373-18.839a91.17 91.17 0 0 1 22.939-7.525c-.01.029-.019.056-.031.084-4.325 10.978-9.979 15.3-7.651 16.966 1.752 1.251 7.458-11.43 14.993-17.929 5.655-.3 10.44.465 13.271 2.706 4.375 3.463 7.312 6.536 2.912 17.083a19.774 19.774 0 0 1-9.553 3.463c-9.979 1-14.637 1.33-7.651 4.657 3.421 1.629 9.154-.092 13.8-1.14-1.508 2.779-3.362 5.925-5.615 9.507a35.28 35.28 0 0 1-4.675 5.95c-3.216.616-6.021.623-7.506-.013-4.657-2-16.632-8.316-19.625-5.655-2.931 2.6 22.178 4.254 20.438 10.873-12.171 7.012-26.1 3.676-28.559-2.763-3.303-8.647-15.51-10.682-12.712-23.143z" class="prefix__cls-2" data-name="Path 7317" transform="translate(-2960.515 -1198.733)"/>
        <path id="prefix__Path_7318" d="M2997.825 1466.083c-13.306-9.98-26.945-.665-33.93 9.979s-2 34.6-2 34.6 2.661 0 2.661-1-7.318-28.276 9.979-40.584c10.822-7.7 18.629-3.992 19.627-.333s-4.324 10.312-4.324 10.312z" class="prefix__cls-1" data-name="Path 7318" transform="translate(-2923.421 -1397.195)"/>
        <path id="prefix__Path_7319" d="M2987.05 1395.649c13.306 0 17.631 20.625 13.971 32.6s-8.649 34.264-8.649 34.264l-3.326-3.327s12.641-31.269 9.648-45.241-10.313-16.3-11.643-16.3-.001-1.996-.001-1.996z" data-name="Path 7319" transform="translate(-2943.25 -1347.275)" style="fill:#9cd499"/>
        <path id="prefix__Path_7320" d="M3024.042 1519.694a9.64 9.64 0 0 1 3.5-2.943 26.206 26.206 0 0 1-.691 2.851c-1.667 5.456-3.61 13.053-5.232 19.707l-.725-4.191c-.083-.479-.147-1-.193-1.548a129.056 129.056 0 0 0 3.341-13.876z" class="prefix__cls-1" data-name="Path 7320" transform="translate(-2969.083 -1438.627)"/>
        <path id="prefix__Path_7321" d="M3027.979 1471.546c25.282-10.645 11.962-25.252 34.25-15.606a16.544 16.544 0 0 1 5.4 4.756 16.594 16.594 0 0 1-7.062.567c-6.653-1-4.325 4.325 6.653 5.655a24.631 24.631 0 0 1 5.144 1.085c5.229 10.044 7.587 23.261-3.481 27.855a25.061 25.061 0 0 1-7.877 1.616c-3.415-2.714.833-18.421-4.431-16.253-5.055 2.082 1.584 13.465.674 16.333a72.934 72.934 0 0 1-15.793-2.213 7.861 7.861 0 0 1-4.175-4.8c-1.664-6.986 9.314-11.31 9.647-17.3.306-5.5-4.023 12.11-15.493 14.7-10.373-4.841-15.274-11.419-3.456-16.395z" class="prefix__cls-2" data-name="Path 7321" transform="translate(-2969.381 -1390.379)"/>
        <path id="prefix__Path_7322" d="M2851.155 1378.472c2.661-5.655-4.324-6.986-3.992-2.661.295 3.832.327 13.147-3.6 15.683a61.665 61.665 0 0 1-22.97-7.628 2.828 2.828 0 0 1 .293-1.734c2.994-5.988 22.288-10.978 16.3-12.974-4.769-1.589-13.125 7.793-19.858 12.519-4.044-3.068-6.754-6.726-6.754-10.809 0-5.526 6.715-11.782 15.4-14.772 3.908.394 7.538 2.531 13.209 5.744 8.377 4.747 6.44-2.928-1.48-7.483a23.857 23.857 0 0 1 18.682 10.254s-.476 2.983 2.681 7.6c8.613 12.589-1.326 19.938-13.209 19.461.668-3.322 3.459-9.293 5.298-13.2z" class="prefix__cls-2" data-name="Path 7322" transform="translate(-2810.571 -1316.126)"/>
        <path id="prefix__Path_7323" d="M3101.051 1476.6c6.505 5.027 13.732 10.9 22.6 14.9s7.1 17 7.1 17 1.331-11.237-6.062-15.081-12.271-8.427-17.89-9.315a81.463 81.463 0 0 1-8.724-1.774s1.775-3.549.74-4.88 2.236-.85 2.236-.85z" class="prefix__cls-1" data-name="Path 7323" transform="translate(-3027.447 -1408.276)"/>
        <path id="prefix__Path_7324" d="M3094.072 1236.565c-23.8 6.357-41.251 21.586-44.5 25.283s-3.253 4.731-3.253 4.731l2.513 4.731 1.183-.591s-1.922-3.992 3.1-9.167c8.669-8.924 19.221-15.968 26.466-19.073s14.491-5.914 14.491-5.914z" class="prefix__cls-1" data-name="Path 7324" transform="translate(-2988.402 -1227.271)"/>
        <path id="prefix__Rectangle_1116" d="M0 0h32.514v16.348a16.257 16.257 0 0 1-16.257 16.257A16.257 16.257 0 0 1 0 16.348V0z" data-name="Rectangle 1116" transform="translate(28.251 108.451)" style="fill:#75a1de"/>
        <path id="prefix__Rectangle_1117" d="M0 0H32.514V2.289H0z" class="prefix__cls-5" data-name="Rectangle 1117" transform="translate(28.251 112.186)"/>
        <path id="prefix__Rectangle_1118" d="M0 0H32.514V1.346H0z" class="prefix__cls-5" data-name="Rectangle 1118" transform="translate(28.251 116.36)"/>
    </g>
</svg>
