<svg xmlns="http://www.w3.org/2000/svg" width="134.42" height="43.057" viewBox="0 0 134.42 43.057">
    <defs>
        <style>
            .prefix__cls-1{fill:none}.prefix__cls-2{fill:#f15d34}
        </style>
    </defs>
    <g id="prefix__Group_13460" data-name="Group 13460" transform="translate(-23 -333.135)">
        <path id="prefix__Path_6937" d="M396.5 361.65c0-1.337-1.086-3.591-4.592-3.591h-8.434v6.722h8.434c3.464 0 4.592-1.461 4.592-3.131z" class="prefix__cls-1" data-name="Path 6937" transform="translate(-273.53 -18.913)"/>
        <path id="prefix__Path_6938" d="M207.614 483.6a1.457 1.457 0 0 0-1.128.463 2.183 2.183 0 0 0-.5 1.336H209a2.121 2.121 0 0 0-.367-1.322 1.211 1.211 0 0 0-1.019-.477z" class="prefix__cls-1" data-name="Path 6938" transform="translate(-138.854 -114.176)"/>
        <path id="prefix__Path_6939" d="M484.835 483.639a1.376 1.376 0 0 0-1.2.559 2.772 2.772 0 0 0-.4 1.624q0 2.067 1.606 2.067a1.458 1.458 0 0 0 1.208-.479 2.54 2.54 0 0 0 .385-1.579v-.076a2.709 2.709 0 0 0-.378-1.622 1.444 1.444 0 0 0-1.221-.494z" class="prefix__cls-1" data-name="Path 6939" transform="translate(-349.233 -114.204)"/>
        <path id="prefix__Path_6940" d="M391.907 406.009h-8.434v7.516h8.434c2.255 0 5.469-.753 5.469-3.508 0-2.631-3.215-4.008-5.469-4.008z" class="prefix__cls-1" data-name="Path 6940" transform="translate(-273.53 -55.297)"/>
        <path id="prefix__Path_6941" d="M386.213 479.276a1.111 1.111 0 0 0 .418-.96 1.035 1.035 0 0 0-.472-.949 2.688 2.688 0 0 0-1.407-.3h-1.32v2.51h1.441a2.3 2.3 0 0 0 1.34-.301z" class="prefix__cls-1" data-name="Path 6941" transform="translate(-273.499 -109.221)"/>
        <path id="prefix__Path_6942" d="M384.873 489.149h-1.441v2.823h1.539q1.816 0 1.817-1.477 0-1.346-1.915-1.346z" class="prefix__cls-1" data-name="Path 6942" transform="translate(-273.499 -118.385)"/>
        <path id="prefix__Path_6943" d="M565.865 483.75a1.254 1.254 0 0 0-.333.928 1.122 1.122 0 0 0 .342.875 1.533 1.533 0 0 0 1.848 0 1.177 1.177 0 0 0 .324-.895 1.215 1.215 0 0 0-.333-.933 1.315 1.315 0 0 0-.933-.311 1.236 1.236 0 0 0-.915.336z" class="prefix__cls-1" data-name="Path 6943" transform="translate(-411.678 -114.035)"/>
        <path id="prefix__Path_6944" d="M63.452 483.6a1.457 1.457 0 0 0-1.128.463 2.184 2.184 0 0 0-.5 1.336h3.007a2.121 2.121 0 0 0-.367-1.322 1.21 1.21 0 0 0-1.012-.477z" class="prefix__cls-1" data-name="Path 6944" transform="translate(-29.463 -114.176)"/>
        <path id="prefix__Path_6945" d="M563.992 502.63q0 1 1.49 1 1.915 0 1.915-1.222a.7.7 0 0 0-.3-.635 1.824 1.824 0 0 0-.971-.2h-.8q-1.334.005-1.334 1.057z" class="prefix__cls-1" data-name="Path 6945" transform="translate(-410.51 -127.816)"/>
        <path id="prefix__Path_6946" d="M47.3 337.113h-5.511v18.162l-14.321-18.12H23v29.225h5.512v-19.707l15.365 19.749v-.042H47.3z" class="prefix__cls-2" data-name="Path 6946" transform="translate(0 -3.019)"/>
        <path id="prefix__Path_6947" d="M156.114 334.863c-10.1 0-15.03 7.724-15.03 15.406s4.759 15.073 15.03 15.073 14.906-7.558 14.989-15.114c.084-7.641-4.927-15.365-14.989-15.365zm10.3 6.4a3.363 3.363 0 0 1-.472 1.557 2.947 2.947 0 0 1-1.137-.21 2.259 2.259 0 0 0 1.614-1.351zm-15.55 15.13c.072.909-1.36 2.4-1.36 2.4a1.359 1.359 0 0 1 .311-1.8.8.8 0 0 0 .245-1.049l.808-.21zm11.754-5.178l-.787 1.539s-.787-.56-.542-.979c0 0 .652-.595.519-1.049v-.49l.813-.656zm2.592-6.811a1.927 1.927 0 0 1-.335-.506l.033 1.014a8.973 8.973 0 0 0 .264 2.639c.24.709-1.364.42-1.364.42s-.14-.994-.979-1.169-1.469-.58-.979-1.524c0 0-2.064 1.307-.56 2.718l1.5 1.13a7.114 7.114 0 0 0-2.414 2.169 4.848 4.848 0 0 0-2.575.614l.046-.634s.115-1.274 1.164-.749c0 0 .28-.595.664-.315s1.05-.42 1.05-.42l-.35-.629a2.26 2.26 0 0 1-2.437-3.755 3.929 3.929 0 0 0-.708 3.8c-.749.506-2.187 1.511-2.117 1.861 0 0 .369.193-.557.594-.215.093-.3.338-.4.467s-.184.241-.3.375l-.134.181c-.445.675-.473 1.647-1.039 2.129-.619.526-3.061.837-3.463 1.084a9.258 9.258 0 0 0-1.253 2.414c-.279.588-1.738.862-1.738.862l.175-.506c.158-.52.276-.835.576-.95l.62-.238c.4-.34.212-1.18.274-1.767a1.023 1.023 0 0 1 .495-.8l1.341-1.215-.258-1.515a4.383 4.383 0 0 1 .093-.931c-.523.7-3.112 2.3-4.467.944a2.408 2.408 0 0 1-.685-1.757 3.635 3.635 0 0 1 1.469-2.9c1.248-1.137 2.379-1.463 3.114-2.21-.195.613-1.94 2.313-2.518 2.24a.431.431 0 0 0-.291.067 2.822 2.822 0 0 0-1.284 3.154c.516 2.159 3.1 1.455 4.058 0a7.888 7.888 0 0 1 3.1-3.031 5.88 5.88 0 0 0 1.471-1.458c.5-.709 4.344-5.444 5.928-5.254 1.473.178 3.114-.455 4.758 1.469 0 0 2.228 1.539 3.593-.7a3.864 3.864 0 0 1-2.576 2.584zm-2.714 4.03c-1.382-.73-1.382-1.461-1.382-1.461a2.9 2.9 0 0 0 1.268.539z" class="prefix__cls-2" data-name="Path 6947" transform="translate(-89.603 -1.311)"/>
        <path id="prefix__Path_6948" d="M235.465 377.709l.49.14-.49-.84z" class="prefix__cls-2" data-name="Path 6948" transform="translate(-161.221 -33.293)"/>
        <path id="prefix__Rectangle_974" d="M0 0H15.406V4.676H0z" class="prefix__cls-2" data-name="Rectangle 974" transform="translate(84.971 347.413)"/>
        <path id="prefix__Path_6949" d="M381.093 351.4a5.942 5.942 0 0 0 3.8-5.636c0-5.887-4.3-8.476-10.062-8.476h-13.863v29.226h13.862c6.054 0 10.939-2.088 10.939-8.6 0-1.84-1.253-5.473-4.676-6.514zm-14.7-9.1h8.434c3.507 0 4.593 2.254 4.593 3.591 0 1.67-1.127 3.131-4.593 3.131H366.4zm8.434 19.081H366.4v-7.516h8.434c2.255 0 5.469 1.377 5.469 4.008-.003 2.751-3.219 3.504-5.473 3.504z" class="prefix__cls-2" data-name="Path 6949" transform="translate(-256.453 -3.149)"/>
        <path id="prefix__Path_6950" d="M501.636 354.8c0-6.972-5.679-8.559-11.774-9.31-3.507-.418-6.513-1.127-6.513-3.675 0-2.171 1.963-3.882 6.054-3.882 3.173 0 5.929 1.587 6.931 3.256l4.384-2.255c-2.212-4.509-6.931-5.8-11.482-5.8-5.386.042-11.314 2.5-11.314 8.517 0 6.554 5.511 8.141 11.481 8.85 3.883.418 6.764 1.545 6.764 4.3 0 3.173-3.257 4.385-6.722 4.385-3.549 0-6.931-1.419-8.225-4.634l-4.592 2.379c2.171 5.344 6.763 7.183 12.734 7.183 6.513.001 12.274-2.797 12.274-9.314z" class="prefix__cls-2" data-name="Path 6950" transform="translate(-344.216)"/>
        <path id="prefix__Path_6951" d="M25.922 478.752h1.946v2.3a4.1 4.1 0 0 1-1.535.255 2.812 2.812 0 0 1-2.116-.745 3.079 3.079 0 0 1-.72-2.221 3 3 0 0 1 .759-2.155 2.694 2.694 0 0 1 2.051-.8 4.151 4.151 0 0 1 1.763.394l.183-.412a4.513 4.513 0 0 0-1.919-.394 3.568 3.568 0 0 0-1.752.421 2.867 2.867 0 0 0-1.172 1.192 3.72 3.72 0 0 0-.409 1.77 3.469 3.469 0 0 0 .826 2.477 3.107 3.107 0 0 0 2.374.875 5.412 5.412 0 0 0 2.134-.4v-2.985h-2.413z" class="prefix__cls-2" data-name="Path 6951" transform="translate(0 -107.63)"/>
        <path id="prefix__Path_6952" d="M61.9 481.97a1.89 1.89 0 0 0-1.544.7 2.853 2.853 0 0 0-.573 1.864 2.627 2.627 0 0 0 .593 1.83 2.119 2.119 0 0 0 1.653.653 4.233 4.233 0 0 0 .77-.065 3.579 3.579 0 0 0 .76-.244v-.4a4.437 4.437 0 0 1-.8.251 4.067 4.067 0 0 1-.732.058 1.646 1.646 0 0 1-1.313-.528 2.3 2.3 0 0 1-.468-1.53h3.5v-.359a2.475 2.475 0 0 0-.5-1.629 1.666 1.666 0 0 0-1.346-.601zm-1.624 2.192a2.184 2.184 0 0 1 .5-1.336 1.457 1.457 0 0 1 1.128-.463 1.21 1.21 0 0 1 1.016.477 2.121 2.121 0 0 1 .367 1.322z" class="prefix__cls-2" data-name="Path 6952" transform="translate(-27.914 -112.937)"/>
        <path id="prefix__Path_6953" d="M93.481 481.97a1.828 1.828 0 0 0-1.687.761h-.027l-.085-.667h-.376v4.864h.443v-2.685a2.078 2.078 0 0 1 .4-1.43 1.658 1.658 0 0 1 1.278-.441 1.247 1.247 0 0 1 .958.333 1.54 1.54 0 0 1 .309 1.067v3.155h.438v-3.181q.004-1.776-1.651-1.776z" class="prefix__cls-2" data-name="Path 6953" transform="translate(-51.831 -112.937)"/>
        <path id="prefix__Path_6954" d="M126.383 485.044a2.054 2.054 0 0 1-.409 1.427 1.672 1.672 0 0 1-1.278.438 1.247 1.247 0 0 1-.958-.333 1.539 1.539 0 0 1-.309-1.067v-3.15h-.438v3.177q0 1.776 1.66 1.776a1.828 1.828 0 0 0 1.687-.761h.027l.081.671h.376v-4.864h-.438z" class="prefix__cls-2" data-name="Path 6954" transform="translate(-75.874 -113.233)"/>
        <path id="prefix__Path_6955" d="M155.144 474.976q-.282 0-.282.43t.282.434a.248.248 0 0 0 .217-.116.563.563 0 0 0 .078-.318.55.55 0 0 0-.078-.318.251.251 0 0 0-.217-.112z" class="prefix__cls-2" data-name="Path 6955" transform="translate(-100.058 -107.63)"/>
        <path id="prefix__Rectangle_975" d="M0 0H0.443V4.864H0z" class="prefix__cls-2" data-name="Rectangle 975" transform="translate(54.867 369.127)"/>
        <path id="prefix__Path_6956" d="M175.384 481.97a1.828 1.828 0 0 0-1.687.761h-.027l-.085-.667h-.376v4.864h.443v-2.685a2.078 2.078 0 0 1 .4-1.43 1.658 1.658 0 0 1 1.277-.441 1.246 1.246 0 0 1 .958.333 1.538 1.538 0 0 1 .309 1.067v3.155h.438v-3.181q.006-1.776-1.65-1.776z" class="prefix__cls-2" data-name="Path 6956" transform="translate(-113.981 -112.937)"/>
        <path id="prefix__Path_6957" d="M206.065 481.97a1.89 1.89 0 0 0-1.544.7 2.853 2.853 0 0 0-.573 1.864 2.625 2.625 0 0 0 .593 1.83 2.119 2.119 0 0 0 1.653.653 4.233 4.233 0 0 0 .77-.065 3.584 3.584 0 0 0 .76-.244v-.4a4.436 4.436 0 0 1-.8.251 4.067 4.067 0 0 1-.732.058 1.646 1.646 0 0 1-1.313-.528 2.3 2.3 0 0 1-.468-1.53h3.5v-.359a2.475 2.475 0 0 0-.5-1.629 1.666 1.666 0 0 0-1.346-.601zm-1.624 2.192a2.183 2.183 0 0 1 .5-1.336 1.457 1.457 0 0 1 1.128-.463 1.21 1.21 0 0 1 1.016.477 2.121 2.121 0 0 1 .367 1.322z" class="prefix__cls-2" data-name="Path 6957" transform="translate(-137.306 -112.937)"/>
        <path id="prefix__Path_6958" d="M255.755 475.4h-.455v6.542h3.575v-.43h-3.119z" class="prefix__cls-2" data-name="Path 6958" transform="translate(-176.271 -107.954)"/>
        <path id="prefix__Path_6959" d="M283.853 474.976q-.282 0-.282.43t.282.434a.247.247 0 0 0 .217-.116.561.561 0 0 0 .078-.318.548.548 0 0 0-.078-.318.25.25 0 0 0-.217-.112z" class="prefix__cls-2" data-name="Path 6959" transform="translate(-197.724 -107.63)"/>
        <path id="prefix__Rectangle_976" d="M0 0H0.443V4.864H0z" class="prefix__cls-2" data-name="Rectangle 976" transform="translate(85.91 369.127)"/>
        <path id="prefix__Path_6960" d="M304.093 481.97a1.828 1.828 0 0 0-1.687.761h-.027l-.085-.667h-.376v4.864h.443v-2.685a2.076 2.076 0 0 1 .4-1.43 1.657 1.657 0 0 1 1.277-.441 1.247 1.247 0 0 1 .958.333 1.54 1.54 0 0 1 .309 1.067v3.155h.438v-3.181q.005-1.776-1.65-1.776z" class="prefix__cls-2" data-name="Path 6960" transform="translate(-211.646 -112.937)"/>
        <path id="prefix__Path_6961" d="M337.281 475.757h-.537l-2.483 2.729h-.022l.031-1.338v-3.49h-.443v6.962h.443v-1.732l.8-.725 1.848 2.456h.532l-2.081-2.788z" class="prefix__cls-2" data-name="Path 6961" transform="translate(-235.858 -106.631)"/>
        <path id="prefix__Path_6962" d="M384.323 478.517v-.027a1.69 1.69 0 0 0 1.013-.486 1.347 1.347 0 0 0 .347-.946 1.436 1.436 0 0 0-.568-1.244 3.066 3.066 0 0 0-1.781-.411h-1.794v6.542h2a2.63 2.63 0 0 0 1.7-.488 1.691 1.691 0 0 0 .6-1.392 1.445 1.445 0 0 0-.369-1.054 1.975 1.975 0 0 0-1.148-.494zM382 475.806h1.32a2.688 2.688 0 0 1 1.407.3 1.035 1.035 0 0 1 .472.949 1.111 1.111 0 0 1-.418.96 2.3 2.3 0 0 1-1.34.307H382zm1.539 5.736H382v-2.823h1.441q1.915 0 1.915 1.347-.004 1.476-1.82 1.476z" class="prefix__cls-2" data-name="Path 6962" transform="translate(-272.063 -107.954)"/>
        <path id="prefix__Path_6963" d="M417.564 485.044a2.053 2.053 0 0 1-.41 1.427 1.671 1.671 0 0 1-1.277.438 1.247 1.247 0 0 1-.958-.333 1.539 1.539 0 0 1-.309-1.067v-3.15h-.438v3.177q0 1.776 1.66 1.776a1.828 1.828 0 0 0 1.687-.761h.027l.08.671H418v-4.864h-.438z" class="prefix__cls-2" data-name="Path 6963" transform="translate(-296.825 -113.233)"/>
        <path id="prefix__Path_6964" d="M446.325 474.976q-.282 0-.282.43t.282.434a.247.247 0 0 0 .217-.116.561.561 0 0 0 .078-.318.548.548 0 0 0-.078-.318.25.25 0 0 0-.217-.112z" class="prefix__cls-2" data-name="Path 6964" transform="translate(-321.009 -107.63)"/>
        <path id="prefix__Rectangle_977" d="M0 0H0.443V4.864H0z" class="prefix__cls-2" data-name="Rectangle 977" transform="translate(125.097 369.127)"/>
        <path id="prefix__Rectangle_978" d="M0 0H0.443V6.962H0z" class="prefix__cls-2" data-name="Rectangle 978" transform="translate(129.459 367.028)"/>
        <path id="prefix__Path_6965" d="M484.973 475.408q0 .542.027 1.105h-.027a1.814 1.814 0 0 0-.689-.658 2.02 2.02 0 0 0-.913-.192 1.841 1.841 0 0 0-1.535.667 3.05 3.05 0 0 0-.528 1.929 2.747 2.747 0 0 0 .533 1.825 1.907 1.907 0 0 0 1.539.627 1.8 1.8 0 0 0 1.593-.832h.036l.112.743h.291v-6.962h-.438zm0 2.85a2.541 2.541 0 0 1-.385 1.579 1.458 1.458 0 0 1-1.208.479q-1.606 0-1.606-2.067a2.771 2.771 0 0 1 .4-1.624 1.376 1.376 0 0 1 1.2-.559 1.444 1.444 0 0 1 1.224.494 2.709 2.709 0 0 1 .378 1.622z" class="prefix__cls-2" data-name="Path 6965" transform="translate(-347.769 -106.631)"/>
        <path id="prefix__Rectangle_979" d="M0 0H0.443V4.864H0z" class="prefix__cls-2" data-name="Rectangle 979" transform="translate(141.567 369.127)"/>
        <path id="prefix__Path_6966" d="M514.612 474.976q-.282 0-.282.43t.282.434a.248.248 0 0 0 .217-.116.562.562 0 0 0 .078-.318.549.549 0 0 0-.078-.318.251.251 0 0 0-.217-.112z" class="prefix__cls-2" data-name="Path 6966" transform="translate(-372.826 -107.63)"/>
        <path id="prefix__Path_6967" d="M534.852 481.97a1.828 1.828 0 0 0-1.687.761h-.027l-.085-.667h-.376v4.864h.443v-2.685a2.078 2.078 0 0 1 .4-1.43 1.658 1.658 0 0 1 1.277-.441 1.246 1.246 0 0 1 .958.333 1.538 1.538 0 0 1 .309 1.067v3.155h.439v-3.181q.004-1.776-1.651-1.776z" class="prefix__cls-2" data-name="Path 6967" transform="translate(-386.748 -112.937)"/>
        <path id="prefix__Path_6968" d="M564.151 481.97a1.739 1.739 0 0 0-1.25.441 1.539 1.539 0 0 0-.463 1.17 1.564 1.564 0 0 0 .237.857 1.384 1.384 0 0 0 .662.548 1.041 1.041 0 0 0-.622.859.633.633 0 0 0 .132.4.857.857 0 0 0 .351.266 1.613 1.613 0 0 0-.843.452 1.169 1.169 0 0 0-.311.832 1.136 1.136 0 0 0 .5.984 2.447 2.447 0 0 0 1.421.354 3.182 3.182 0 0 0 1.779-.418 1.347 1.347 0 0 0 .624-1.188 1.115 1.115 0 0 0-.421-.946 1.974 1.974 0 0 0-1.212-.32h-.85a1.2 1.2 0 0 1-.593-.107.369.369 0 0 1-.177-.34.66.66 0 0 1 .139-.4 1.16 1.16 0 0 1 .4-.327 2.7 2.7 0 0 0 .465.027 1.766 1.766 0 0 0 1.255-.436 1.486 1.486 0 0 0 .468-1.139 1.718 1.718 0 0 0-.4-1.1l1.007-.063v-.309h-1.557a2.311 2.311 0 0 0-.741-.097zm-.3 4.729h.8a1.825 1.825 0 0 1 .971.2.7.7 0 0 1 .3.635q0 1.221-1.915 1.222-1.49 0-1.49-1-.003-1.056 1.335-1.056zm1.548-3.136a1.177 1.177 0 0 1-.324.895 1.533 1.533 0 0 1-1.848 0 1.121 1.121 0 0 1-.342-.875 1.254 1.254 0 0 1 .333-.928 1.236 1.236 0 0 1 .915-.333 1.315 1.315 0 0 1 .933.311 1.216 1.216 0 0 1 .334.93z" class="prefix__cls-2" data-name="Path 6968" transform="translate(-409.031 -112.937)"/>
    </g>
</svg>
