<svg xmlns="http://www.w3.org/2000/svg" width="56.161" height="37.773" viewBox="0 0 56.161 37.773">
    <defs>
        <style>
            .prefix__cls-1{fill:#169aa3}
        </style>
    </defs>
    <g id="prefix__Group_15001" data-name="Group 15001" transform="translate(-2276.531 -3329.614)">
        <path id="prefix__Path_11491" d="M2330.888 3330.159v24.37h-9.25v-2.029l-3.918 2.729-10.935-12.116-9.16 2.108-2.17-1.377-1.056-1.89 11-4.508 10.511-2.547h.582v-2.2l4.613-1.323h.53v-1.21z" class="prefix__cls-1" data-name="Path 11491" transform="translate(1.203 .037)"/>
        <path id="prefix__Path_11492" d="M2302.555 3357.119l-2.129-2.382-3.844-2.448-3.59-1.132-1.326.747-2.046 2.834v1.978l9.586 5.748 1.982 1.2h1.368l1.215-1.6 1.365-2.776z" class="prefix__cls-1" data-name="Path 11492" transform="translate(.881 1.45)"/>
        <g id="prefix__Group_15000" data-name="Group 15000" transform="translate(2276.531 3329.614)">
            <path id="prefix__Path_11489" fill="#043d4d" fill-rule="evenodd" d="M117.867 597.47l-.008-.022.008.022zm-2.439 16.641l3.037-5.111c-.219-.079-.438-.158-.655-.24l-.694-.26a.936.936 0 0 0-.59-.018.9.9 0 0 0-.42.274l-.345.513-2.1 3.106a.9.9 0 0 0 .006.375.948.948 0 0 0 .15.345.937.937 0 0 0 .284.248l1.329.767zm30.453-29.282h8.913a.607.607 0 0 1 .607.607v24.358a.607.607 0 0 1-.607.607h-8.913a.607.607 0 0 1-.6-.607v-1.067l-2.761 1.826-.018.014a2.016 2.016 0 0 1 .221.637 2.115 2.115 0 0 1-.138 1.177l-.189.45a14.738 14.738 0 0 1-1.893 3.313 14.588 14.588 0 0 1-2.7 2.694l-4.267 3.313a2.1 2.1 0 0 1-1.169.446 2.12 2.12 0 0 1-1.213-.3l-3.956-2.343a2.192 2.192 0 0 1-.467.525l-.018.016a2.194 2.194 0 0 1-1.578.426 2.053 2.053 0 0 1-.783-.272l-10.85-6.263a2.093 2.093 0 0 1-.651-.58 2.064 2.064 0 0 1-.359-.8 2.088 2.088 0 0 1-.014-.874 2.176 2.176 0 0 1 .087-.313l-3.191-2.84v.809a.608.608 0 0 1-.607.607h-8.922a.607.607 0 0 1-.6-.607v-24.353a.607.607 0 0 1 .6-.607h8.915a.608.608 0 0 1 .607.607v.489l4.431 1.394a2.126 2.126 0 0 1 1.388 2.66l-.032.1 5.249.459h.045l10.183 1.213c.834-.243 1.694-.462 2.619-.667l6.421-1.438a2.126 2.126 0 0 1 1.451-2.41l4.157-1.307v-.493a.607.607 0 0 1 .6-.607zm-4.143 24.809a.539.539 0 0 1 .11-.093l3.218-2.132a.82.82 0 0 1 .15-.071l-5.2-16.535-6.511 1.457c-.917.2-1.783.426-2.633.676h-.006l-.035.012h-.014l-.6.185c-1.055.333-2.094.712-3.193 1.163l-7.8 3.209.319.674a3.012 3.012 0 0 0 3.53 1.635l7.5-2.006a.6.6 0 0 1 .615.191l10.556 11.633zm-22.125-.2c.15.061.3.126.444.189.373.166.732.345 1.081.544a11.227 11.227 0 0 1 1.027.639l-3.262 5.311-2.426-1.4 3.137-5.285zm.339 7.29l2.56 1.479 2.938-4.847-2.315-1.822-3.183 5.19zm3.605 2.084l1.39.8a.915.915 0 0 0 .339.118.938.938 0 0 0 .355-.028.91.91 0 0 0 .325-.156l.01-.01a.9.9 0 0 0 .217-.264l1.7-3a.9.9 0 0 0-.227-1.163l-1.266-.994-2.849 4.7zm-13.916-11.2l3.565 3.173 1.854-2.644a2.134 2.134 0 0 1 1.106-.812 2.112 2.112 0 0 1 1.371.043l2.1.781a14.58 14.58 0 0 1 2.1.957 14.031 14.031 0 0 1 1.548 1.011h.008a.834.834 0 0 1 .1.079l.252.193 4.772 3.755a2.1 2.1 0 0 1 .546.635l6.387 4.419 1.7-1.323c.215-.168.422-.335.623-.509l-9.126-6.971a.606.606 0 0 1 .734-.964l9.284 7.1a12.988 12.988 0 0 0 .972-1.124q.374-.5.708-1.031l-8.158-7.269a.6.6 0 1 1 .805-.9l7.955 7.087c.148-.3.29-.609.424-.927l.189-.45a.934.934 0 0 0 .061-.509.923.923 0 0 0-.225-.457l-10.775-11.873-7.142 1.913a4.222 4.222 0 0 1-4.938-2.293l-.576-1.227-.02-.049a.6.6 0 0 1 .331-.789l8.389-3.447c.463-.191.915-.369 1.363-.536l-7.628-.909-5.5-.479h-.012l-5.141 16.346zm19.509 8.777a2.03 2.03 0 0 1-.2.477l-1.16 2.045 3.97 2.353a.908.908 0 0 0 .521.13.881.881 0 0 0 .5-.195l1.564-1.215-5.2-3.6zm-19.785-11.934l4.662-14.835a.9.9 0 0 0-.061-.7.912.912 0 0 0-.532-.446l-4.07-1.278v17.255zm-1.215-18.41h-7.7v23.147h7.7v-23.151zm37.126 17.452V587.2l-3.8 1.193a.907.907 0 0 0-.59 1.142l4.388 13.963zm1.213 3.948v1.747h7.7v-23.151h-7.7v.328z" data-name="Path 11489" transform="translate(-99.24 -584.828)"/>
        </g>
    </g>
</svg>
