<svg xmlns="http://www.w3.org/2000/svg" width="37.24" height="50.5" viewBox="0 0 37.24 50.5">
    <defs>
        <style>
            .prefix__cls-1{fill:#a5adc0}
        </style>
    </defs>
    <g id="prefix__java-ar21" transform="translate(-7 -7)">
        <path id="prefix__Path_9273" d="M19.028 43.606s-1.94 1.18 1.35 1.518a27.668 27.668 0 0 0 10.456-.424 15.958 15.958 0 0 0 2.783 1.35c-9.866 4.216-22.345-.252-14.588-2.445zm-1.265-5.48s-2.108 1.6 1.18 1.94a39.912 39.912 0 0 0 13.492-.674 5.13 5.13 0 0 0 2.023 1.265c-11.889 3.542-25.212.337-16.7-2.529zm23.274 9.612s1.434 1.18-1.6 2.108c-5.649 1.686-23.694 2.192-28.754 0-1.771-.757 1.6-1.866 2.7-2.023a8.434 8.434 0 0 1 1.686-.252c-1.939-1.35-12.9 2.783-5.566 3.952 20.153 3.288 36.764-1.434 31.536-3.794zM19.954 32.392s-9.191 2.192-3.289 2.951a73.391 73.391 0 0 0 12.142-.085c3.794-.337 7.589-1.012 7.589-1.012a20.306 20.306 0 0 0-2.277 1.18c-9.36 2.445-27.32 1.35-22.176-1.18a17.609 17.609 0 0 1 8.011-1.866zM36.4 41.583c9.443-4.891 5.059-9.612 2.023-9.022a5.413 5.413 0 0 0-1.1.337 1.446 1.446 0 0 1 .843-.674c5.986-2.108 10.709 6.323-1.94 9.612a1.052 1.052 0 0 0 .169-.252zM20.883 54.9c9.106.591 23.021-.337 23.357-4.637 0 0-.674 1.686-7.5 2.951a75.9 75.9 0 0 1-23.021.337s1.18 1.012 7.169 1.35z" class="prefix__cls-1" data-name="Path 9273" transform="translate(0 2.435)"/>
        <path id="prefix__Path_9274" d="M29.592 7s5.228 5.313-4.975 13.323c-8.179 6.492-1.866 10.2 0 14.419-4.806-4.3-8.263-8.094-5.9-11.637C22.172 17.877 31.7 15.348 29.591 7zm-2.7 24.2c2.445 2.783-.675 5.313-.675 5.313s6.24-3.206 3.372-7.169c-2.613-3.794-4.637-5.649 6.323-11.974 0 0-17.286 4.3-9.022 13.828z" class="prefix__cls-1" data-name="Path 9274" transform="translate(1.071)"/>
    </g>
</svg>
