<svg id="Layer_1" data-name="Layer 1" xmlns="http://www.w3.org/2000/svg" viewBox="0 0 805.32 205"><defs><style>.cls-1{fill:#f15b3d;}.cls-2{fill:#ffcd13;}.cls-3{fill:#111828;}.cls-4{fill:#038a81;}.cls-5{fill:#161616;}</style></defs><title>Lemontree</title><path class="cls-1" d="M14.61,102.64a81.75,81.75,0,1,1,81.75,81.75,81.75,81.75,0,0,1-81.75-81.75"/><path class="cls-2" d="M130.21,117.87A35.57,35.57,0,0,0,130,93.69a36.56,36.56,0,0,0-3.72-7.29,35.28,35.28,0,0,0-2.39-3.22A42.75,42.75,0,0,1,117,65.3h0A7.86,7.86,0,0,0,114.37,62a7.6,7.6,0,0,0-2.11-1.12,7.84,7.84,0,0,0-6.44.59h0a42.59,42.59,0,0,1-16.5,9.74,37,37,0,0,0-3.88,1A35.72,35.72,0,0,0,62.76,94.38l-.12.37c0,.12-.09.24-.14.36a35.8,35.8,0,0,0,4,31.47,37.36,37.36,0,0,0,2.4,3.22,42.74,42.74,0,0,1,6.87,17.88h0A7.82,7.82,0,0,0,78.34,151a7.85,7.85,0,0,0,8.56.53h0a42.59,42.59,0,0,1,16.5-9.74,36.33,36.33,0,0,0,3.88-1A35.72,35.72,0,0,0,130,118.6c.05-.12.08-.24.12-.37s.1-.24.14-.36"/><path class="cls-3" d="M111.81,76.56a1.38,1.38,0,1,1,2.57,1,1.38,1.38,0,0,1-1.78.79,1.39,1.39,0,0,1-.79-1.79"/><path class="cls-3" d="M116.58,82.67a1.37,1.37,0,0,1,1.78-.79,1.38,1.38,0,1,1-1,2.57,1.37,1.37,0,0,1-.78-1.78"/><path class="cls-3" d="M111.81,84.05a1.38,1.38,0,1,1,2.57,1,1.38,1.38,0,0,1-2.57-1"/><path class="cls-4" d="M114.26,61.71h0l-3.76-2.94a28.68,28.68,0,0,0-40.25,5L74,66.68a28.67,28.67,0,0,0,40.24-5"/><path class="cls-5" d="M784.29,135.08c-6.51,8.68-16.3,18.89-25.51,24.12-7.76,4.4-16.59,9.19-25.72,5.83a17.4,17.4,0,0,1-4.18-2.25,58.37,58.37,0,0,0,13.57-10.68c9-9.07,18.11-23.33,7.39-33.7-6.73-13.56-25.05-9.67-33.07.69-8.18,10.57-8.45,23.57-3.52,35a28.78,28.78,0,0,0,2.1,3.9,60.82,60.82,0,0,1-32.21,5.39c-1.71-1.51-3.23-2.71-4.63-3.93A148.2,148.2,0,0,0,691,149.76c7.7-6.83,16.72-16.92,13.69-28-2.7-9.9-20.12-16.28-28.76-12.35-10.4,4.74-16.64,19.13-16.84,29.91-.1,5.58,2.08,11.58,5.54,16.62-4.09,3.35-8.48,6.39-12.44,6.53-3.43.11-3.8-.73-6.07-3.35-3.28-3.78-5.42-8.28-4.86-13.06,1.05-9.08,5.93-17,12-23.55,3.14-3.38-6.36-7.55-8.55-7.38-5.22.41-12.09-2-17.37-2.62a40.75,40.75,0,0,1-4.7-.81,11.51,11.51,0,0,0-3.28-7.76c-1.77-1.75-5-3.08-7.42-2.1-7.06,2.85-4.87,8.47-.75,12.23-.8,3.46-1.53,7.09-1.67,7.66-1.31,5.29-2.69,10.79-4.24,16.26a46.27,46.27,0,0,1-9.75,17.47c-1.84,2.19-3.71,5.69-6,7.34-1.92,1.35-4.46,1.72-7,2-1.95-2.94-2.72-8-2.93-11-.4-5.61,1.68-12.16,3.1-17.6,3-11.37,8.06-22.23,11.45-33.67,2.72-9.21,6.12-18.21,9.14-27.34.41,0,.82,0,1.23,0,3.73.07-.37-.45,1.24-.34,2,.13,5.57,1,7.35,1.37,5.08.92,9.41.63,14.72.62,10.1,0,20.72,1.46,30.51-1.33,6-1.7-3.42-10.24-7.64-9C641.64,69,629.36,68.12,620,67.58c-4.67-.27-9.3-.81-13.93-1.3A127.86,127.86,0,0,1,613.93,48c1.35-2.64,2.55-5.29,3.82-8,2.2-4.7,5.6-8.32,8-12.84,2.13-4-8.09-10.25-10.12-6.47-2.62,4.89-6.08,9-8.53,14s-4.69,9.33-6.78,14.5-4.63,9.83-6.3,15.15c-.09.29-.2.57-.3.85-18.25-1.3-36.53-4.36-54.78-3.46-5.72.29,3.33,9.26,7.64,9,9.14-.45,19,1.07,28,2,5.07.5,10.31,1.06,15.56,1.5-.62,1.55-1.21,3.08-1.68,4.62-2.81,9.17-5.36,18.3-8.92,27.38a181.47,181.47,0,0,0-7.73,24c-3.26,13.75-6.6,33.66,9.08,41.61,15.15,7.68,27.59-11,32.66-22.37,3.39-7.63,4.76-15.87,6.65-23.68.51-2.1,1.15-4.4,1.64-6.75a79,79,0,0,0,11.31,2.05c1.48.18,3,.43,4.49.7a19.29,19.29,0,0,0-2.68,4.67c-.79,2-1.73,3.84-2.5,5.79-2.43,6-3.08,12-.71,18,4.48,11.37,17.24,23.79,30.37,19.57,3.75-1.2,7.09-3.57,10.31-6,4.25,3.16,8.43,6.76,13.73,7.79,6.07,1.17,12.61.87,18.7.38,6.83-.55,11.69-3.46,17.4-6.21,8.37,7,20.11,10.59,30.39,8.14,16.65-4,31.78-19.24,41.7-32.48C797,138.14,787,131.46,784.29,135.08ZM670.7,149.41a1.83,1.83,0,0,0,0-.48,26.9,26.9,0,0,1-1-3.62c-.27-3.34.82-7.75,1.78-10.88a29.89,29.89,0,0,1,6.24-11.05c4.62-4.93,6.65-7.43,14.06-5.44,2,.53,2,.53,2.09,3.61a15.19,15.19,0,0,1-3.22,10.56c-4.9,6.63-11.28,12.12-17.61,16.74-.57.41-1.17.89-1.78,1.39C671.14,150,670.92,149.69,670.7,149.41Zm56.91-24.77c2.53-2.86,7.69-6.55,11.82-6.82a1.25,1.25,0,0,1,1.08.47l.14.17c.82,1,3.62,2.74,4,3.73,1.15,2.94-2.58,12.1-4.56,14.8-2.75,3.75-6.2,6.92-9.44,10.18a55.24,55.24,0,0,1-8.32,6.85C718.76,144.42,721.41,131.62,727.61,124.64Z"/><path class="cls-5" d="M550.75,105.89c-12.56-3.2-20.93,10.72-27.49,18.54-.59.7-1.13,1.42-1.69,2.14.34-1.5.69-3,1.12-4.46,1.8-6.23,3.75-12.11,5.72-18.28.51-1.6-1.24-3.59-3.4-4.84-2.75-2.07-6.49-3.1-7.28-1-1.49,4.06-9.53,10.4-12.77,13.27a44.89,44.89,0,0,1-9.54,6.54l-2.17,1c-.05-2.63-.13-5-1.81-7.81a40,40,0,0,0-4.43-4.46,15.12,15.12,0,0,0-1.42-1.19,19.41,19.41,0,0,0-4.29-2.34c-3.25-1.41-7.58-3.17-11.16-3.13a21,21,0,0,0-6.17,1,18.72,18.72,0,0,0-1.24-3.33c-2.13-4.43-4.7-9.86-8-13.47a91.71,91.71,0,0,0-9.85-9.67c-3.89-3.1-8.07-2.27-12.32-4.12-.45-.2-2.33-.69-2.24.41.21,2.41,1.17,3.94,1.69,6.22.61,2.66-.35,5.69.08,8.43.87,5.58,4.25,10.17,8.13,14,3.52,3.44,5.73,5.71,10.63,6.93,1,.26,2.09.45,3.16.61-2.08,1.73-4.17,3.62-6.47,5.43a2.23,2.23,0,0,0-.89.81c-2.6,4.25-5.27,6.51-7,11.33a41.53,41.53,0,0,0-2.15,12.85c-.42,8.64.87,17.2,7.27,23.71,14.93,15.18,34.52,1.24,43-13a40,40,0,0,0,5.86-17.56,69.22,69.22,0,0,0,17.61-9.19l.12-.1c-1.15,4.75-2,9.47-3.61,14.07-2,5.56-2,11.21-3.81,16.81-.77,2.41-3.64,8.67-2.78,11.26s5,6.05,7.94,5.08c4.14-1.36,6.17-10.28,7.88-13.84,2.83-5.93,6.49-11,9.81-16.52,3.1-5.12,7.41-9.14,10.86-14,1.93-2.71,8.77-10.68,13.83-11a30.3,30.3,0,0,1,.39,10.51c-.44,2.94-1.66,5.73-2.12,8.68-.56,3.56-.2,6.82-1.31,10.37-3.09,9.85-5.62,19.35,1.34,28.08,2.63,3.3,11.77,4.33,7.33-1.24-4.72-5.93-1-14.44.52-21,1.48-6.21,2.8-12.88,4-19.42C563.55,119.2,561.77,108.71,550.75,105.89Zm-70.44,4.87a7.35,7.35,0,0,0,1.32.91c.67,3.19.45,7.39.67,10.15,0,.35,0,.67.05,1a23.42,23.42,0,0,1-5.11.45c-5.05-.14-7.3.2-8.19-5.48-.65-4.08,1.05-7,4.68-8.72a11.8,11.8,0,0,1,2.73-.06C477.69,109.14,479,110.29,480.31,110.76ZM479.26,137c-3.51,8.48-10.81,17.73-19.84,20.85-10.43,3.61-11.38-8.3-10.66-16.11A38,38,0,0,1,450.82,131c1.76-4.68,3.85-6.72,6.41-10.86.65-.53,1.31-1.1,2-1.69a20.26,20.26,0,0,0,3,5.31c4.45,5.64,11.7,8,18.86,8.38C480.56,133.7,480,135.27,479.26,137Z"/><path class="cls-5" d="M444.3,175c-2.54-.22-3.92.43-4.68.32a29.63,29.63,0,0,1-6.72-2.54c-3.88-2.31-7.06-8.09-8.2-12.39-1.53-5.76.08-14.48,1.09-20.1,1.52-8.4,1.82-17.3,6-25,1.77-3.25-4.29-6.53-6.74-6.75-11.88-1.06-19.6,9.17-25.87,18.28.85-4.82,1.66-9.7,2.34-14.56.48-3.39-5.22-6.36-8-6-12.25,1.76-21.4,13.82-28.81,22.7a30,30,0,0,0-2.59,3.68c1.12-3.3,1.79-7,3.12-10.22,1-2.47,3-4.45,4-6.85a26.89,26.89,0,0,0,1.29-4.16,27.22,27.22,0,0,0,1.39-4.14c1-4-9.49-9.64-10.67-4.81-1.45,6-4.23,7.14-7.72,11.61-2.7,3.47-5,7.11-8.1,10.42-5.2,5.61-11,13-17.12,17.46-5.81,4.22-10.7,9.62-17.28,13.22-4.4,2.41-11.2,6.18-16.85,6.44a8.6,8.6,0,0,1-3.76-5.95,18.41,18.41,0,0,1,0-4.83,112.39,112.39,0,0,0,31-15c6.85-4.9,13.81-13.94,11.3-22.78-2-7.18-11.79-12.2-19-11.77-7.44.43-15.83,7.28-20.44,13.11-9.21,11.65-21.06,35.89-8.34,48.55s29.56,4.94,41.77-4.32a202,202,0,0,0,21.54-19.48,66,66,0,0,0-2.54,7.15c-1.45,5.3-1.69,10.64-2.91,15.9-.75,3.23,7.38,8.31,9.44,5.12,6.8-10.5,13.59-21.8,21.47-31.5,4.4-5.41,10-13.08,16.63-17.84-.93,5.4-2,10.78-3.17,15.94-1.11,4.82-3.35,9.28-4.68,14s-1.52,9.52-2.26,14.42c-.55,3.63,8.3,8.76,9.69,4.38,1.91-6,5.83-10.67,8.66-16.11,2.27-4.36,3.69-8.61,6.67-12.86,3.34-4.74,6.45-9.67,10.25-14.12a21.84,21.84,0,0,1,2.9-2.71A165.39,165.39,0,0,0,415,138.39c-1.28,8.65-1.1,17.35,2.66,25.27,3.42,7.18,8.44,12.88,15.86,16.12a31.84,31.84,0,0,0,6.12,2.32c3.39.92,5.69.19,8.92.46C454.75,183.08,448,175.27,444.3,175ZM296.2,132c3.87-7.93,15.61-24.19,26-21.06.59,6.56-4.14,12.46-9.11,16.5-5.27,4.29-12.6,8.33-19.76,11.43A68.61,68.61,0,0,1,296.2,132Z"/><path class="cls-5" d="M280.82,176.55a35.42,35.42,0,0,1-9.36-5.42,24.1,24.1,0,0,0-3-1.58,38.91,38.91,0,0,0-2.47-3c-3.61-4.73-7.2-14.24-8.58-21.65-.08-.44-.15-.88-.22-1.32,1.05-1.51,2.09-3,3.14-4.45,8.5-11.71,16.69-23.77,23.26-36.66,13.44-26.39,23.78-55.22,27.6-84.61,1.44-11-9.2-19.19-19-12.26-5.5,3.89-9.59,12.29-12.68,18.06-2.29,4.27-4.54,8-6.72,12.39-12.46,25-22.72,52-26.62,79.74a84.36,84.36,0,0,0-.26,22.84c-2.77,3.87-5.59,7.73-8.6,11.38-4.77,5.79-11,11.37-15.1,17.8-2.27,3.57,7.39,9.8,9.75,6.24,4-6.1,10.56-11.53,15.29-17,.9-1.05,1.76-2.16,2.62-3.27a52.23,52.23,0,0,0,2.51,5.23c7.48,13.52,14.31,19.41,27.78,24.58C287.83,186.51,286.36,178.84,280.82,176.55ZM279.55,49.33c3.21-5.4,5.35-11.27,8.57-16.34s6.75-14.51,12.36-19.07c-.48,4.6-1.88,9.32-2.91,13.42-2.17,8.58-4.46,17.06-6.71,25.61-3.6,13.73-9.45,26.87-15.94,39.41a319.18,319.18,0,0,1-18,30.64A147,147,0,0,1,261,101.28C265.52,84.09,270.5,64.56,279.55,49.33Z"/></svg>