<svg xmlns="http://www.w3.org/2000/svg" xmlns:xlink="http://www.w3.org/1999/xlink" viewBox="0 0 1800.28 691.81"><defs><style>.cls-1{font-size:247.76px;font-family:Objectivity-Bold, Objectivity;font-weight:700;letter-spacing:-0.05em;}.cls-1,.cls-7{fill:#1e1e1e;}.cls-2{letter-spacing:-0.05em;}.cls-3{letter-spacing:-0.05em;}.cls-4{letter-spacing:-0.05em;}.cls-5{letter-spacing:-0.05em;}.cls-6{letter-spacing:-0.05em;}.cls-7{font-size:76.88px;font-family:Objectivity-Medium, Objectivity;font-weight:500;letter-spacing:-0.07em;}.cls-8{letter-spacing:-0.03em;}.cls-9{letter-spacing:-0.02em;}.cls-10{letter-spacing:-0.03em;}.cls-11{letter-spacing:-0.02em;}.cls-12{letter-spacing:-0.03em;}.cls-13{letter-spacing:-0.03em;}.cls-14{letter-spacing:-0.03em;}.cls-15{letter-spacing:-0.03em;}.cls-16{letter-spacing:-0.03em;}.cls-17{letter-spacing:-0.03em;}.cls-18{letter-spacing:-0.02em;}.cls-19{letter-spacing:-0.03em;}.cls-20{letter-spacing:-0.02em;}.cls-21{letter-spacing:-0.06em;}.cls-22{letter-spacing:-0.02em;}.cls-23{letter-spacing:-0.02em;}.cls-24{letter-spacing:-0.02em;}.cls-25{fill:url(#linear-gradient);}.cls-26{fill:url(#linear-gradient-2);}.cls-27{fill:url(#linear-gradient-3);}.cls-28{fill:url(#linear-gradient-4);}.cls-29{fill:url(#linear-gradient-5);}.cls-30{fill:url(#linear-gradient-6);}.cls-31{fill:url(#linear-gradient-7);}.cls-32{fill:url(#linear-gradient-8);}.cls-33{fill:url(#linear-gradient-9);}</style><linearGradient id="linear-gradient" x1="314.64" y1="448.93" x2="315.6" y2="448.93" gradientUnits="userSpaceOnUse"><stop offset="0" stop-color="#26d09b"/><stop offset="1" stop-color="#87d46a"/></linearGradient><linearGradient id="linear-gradient-2" x1="314.03" y1="484.78" x2="457.07" y2="484.78" xlink:href="#linear-gradient"/><linearGradient id="linear-gradient-3" x1="311.57" y1="449.01" x2="312.44" y2="449.01" gradientUnits="userSpaceOnUse"><stop offset="0" stop-color="#326483"/><stop offset="1" stop-color="#0c9aa3"/></linearGradient><linearGradient id="linear-gradient-4" x1="314.64" y1="448.93" x2="315.6" y2="448.93" xlink:href="#linear-gradient-3"/><linearGradient id="linear-gradient-5" x1="314.03" y1="486.41" x2="457.07" y2="486.41" xlink:href="#linear-gradient-3"/><linearGradient id="linear-gradient-6" x1="484.44" y1="330.34" x2="171.26" y2="149.52" xlink:href="#linear-gradient-3"/><linearGradient id="linear-gradient-7" x1="181.53" y1="344.7" x2="353.72" y2="344.7" xlink:href="#linear-gradient"/><linearGradient id="linear-gradient-8" x1="181.53" y1="427.83" x2="503.32" y2="427.83" xlink:href="#linear-gradient-3"/><linearGradient id="linear-gradient-9" x1="336.03" y1="449.01" x2="336.87" y2="449.01" xlink:href="#linear-gradient-3"/></defs><title>source file</title><g id="Layer_1" data-name="Layer 1"><text class="cls-1" transform="translate(643.65 429.54)">R<tspan class="cls-2" x="178.61" y="0">i</tspan><tspan class="cls-3" x="241.22" y="0">bb</tspan><tspan class="cls-4" x="548.45" y="0">a</tspan><tspan class="cls-5" x="703.06" y="0">s</tspan><tspan class="cls-6" x="830.67" y="0">h</tspan></text><text class="cls-7" transform="translate(659.8 537.02)">W<tspan class="cls-8" x="81.08" y="0">e</tspan><tspan class="cls-9" x="128.16" y="0"> </tspan><tspan class="cls-10" x="150.23" y="0">B</tspan><tspan class="cls-11" x="204.31" y="0">u</tspan><tspan class="cls-12" x="249.39" y="0">i</tspan><tspan class="cls-13" x="268.47" y="0">l</tspan><tspan class="cls-14" x="285.55" y="0">d</tspan><tspan class="cls-9" x="334.62" y="0"> </tspan><tspan class="cls-15" x="356.7" y="0">D</tspan><tspan class="cls-16" x="415.78" y="0">i</tspan><tspan class="cls-14" x="434.86" y="0">g</tspan><tspan class="cls-16" x="483.94" y="0">i</tspan><tspan class="cls-17" x="503.01" y="0">t</tspan><tspan class="cls-18" x="532.09" y="0">a</tspan><tspan class="cls-19" x="582.17" y="0">l</tspan><tspan class="cls-9" x="599.25" y="0"> </tspan><tspan class="cls-20" x="621.33" y="0">P</tspan><tspan class="cls-21" x="673.4" y="0">r</tspan><tspan class="cls-22" x="700.48" y="0">o</tspan><tspan class="cls-14" x="748.56" y="0">d</tspan><tspan class="cls-11" x="797.64" y="0">u</tspan><tspan class="cls-23" x="842.72" y="0">c</tspan><tspan class="cls-17" x="888.79" y="0">t</tspan><tspan class="cls-24" x="917.87" y="0">s</tspan></text><polygon class="cls-25" points="314.68 448.59 315.6 449.26 314.64 448.61 314.68 448.59"/><polygon class="cls-26" points="457.07 411.88 457.07 557.68 314.03 450.52 315.6 449.26 315.63 449.26 361.31 412.43 361.98 411.88 457.07 411.88"/><polygon class="cls-27" points="311.6 448.68 312.44 449.35 311.57 448.71 311.6 448.68"/><polygon class="cls-28" points="314.68 448.59 315.6 449.26 314.64 448.61 314.68 448.59"/><polygon class="cls-29" points="314.03 450.52 315.6 449.26 315.63 449.26 357.94 415.14 457.07 557.68 314.03 450.52"/><polygon class="cls-30" points="353.72 297.99 181.53 131.73 503.11 297.99 503 297.99 353.72 297.99 353.72 297.99"/><polygon class="cls-31" points="181.53 557.68 181.53 131.73 353.72 297.99 181.53 557.68"/><polygon class="cls-32" points="181.53 557.68 503.32 297.99 353.72 297.99 181.53 557.68"/><polygon class="cls-33" points="336.87 449.35 336.03 448.71 336.06 448.68 336.87 449.35"/></g></svg>