<svg xmlns="http://www.w3.org/2000/svg" xmlns:xlink="http://www.w3.org/1999/xlink" width="1461.941" height="432.873" viewBox="0 0 1461.941 432.873">
  <defs>
    <linearGradient id="linear-gradient" y1="0.5" x2="1" y2="0.5" gradientUnits="objectBoundingBox">
      <stop offset="0" stop-color="#b3b3b3"/>
      <stop offset="1" stop-color="#f2f2f2"/>
    </linearGradient>
    <linearGradient id="linear-gradient-2" x1="0" y1="0.5" x2="1" y2="0.5" xlink:href="#linear-gradient"/>
    <linearGradient id="linear-gradient-3" x1="0" y1="0.5" x2="1" y2="0.5" xlink:href="#linear-gradient"/>
    <linearGradient id="linear-gradient-5" x1="0.5" x2="0.5" y2="1" gradientUnits="objectBoundingBox">
      <stop offset="0.333" stop-color="#b3b3b3"/>
      <stop offset="1" stop-color="#f2f2f2"/>
    </linearGradient>
    <linearGradient id="linear-gradient-6" x1="0.263" y1="-0.294" x2="0.737" y2="1.294" xlink:href="#linear-gradient"/>
    <linearGradient id="linear-gradient-7" y1="0.5" x2="1" y2="0.5" gradientUnits="objectBoundingBox">
      <stop offset="0" stop-color="#b3b3b3"/>
      <stop offset="0.788" stop-color="#f2f2f2"/>
    </linearGradient>
    <linearGradient id="linear-gradient-8" y1="0.5" x2="1" y2="0.5" gradientUnits="objectBoundingBox">
      <stop offset="0.308" stop-color="#b3b3b3"/>
      <stop offset="1" stop-color="#f2f2f2"/>
    </linearGradient>
  </defs>
  <g id="Group_15317" data-name="Group 15317" transform="translate(1875.653 -128.112)">
    <g id="Group_15303" data-name="Group 15303">
      <g id="Group_15302" data-name="Group 15302">
        <path id="Path_12426" data-name="Path 12426" d="M-1343.208,430.955h-42.325V251.575h86.918c41.57,0,70.543,24.69,70.543,60.465,0,24.187-15.872,44.342-39.3,51.9l43.334,67.016h-47.364l-35.272-61.473h-36.531Zm0-147.384v56.183h37.791c19.9,0,35.019-11.086,35.019-27.714,0-18.14-15.116-28.469-35.019-28.469Z" fill="#fff"/>
        <path id="Path_12427" data-name="Path 12427" d="M-1208.162,263.416c0-12.345,9.069-21.163,21.919-21.163s21.918,8.818,21.918,21.163c0,12.6-9.07,21.415-21.918,21.415S-1208.162,276.013-1208.162,263.416Zm40.813,38.547V430.955h-37.79V301.963Z" fill="#fff"/>
        <path id="Path_12428" data-name="Path 12428" d="M-1063.391,435.994a54,54,0,0,1-43.081-20.659v15.62h-37.287V244.017h37.791v73.566a52.648,52.648,0,0,1,42.577-20.659c36.028,0,61.221,28.722,61.221,69.535S-1027.615,435.994-1063.391,435.994Zm-44.089-69.535c0,20.407,14.109,35.523,33.76,35.523,19.4,0,33.76-14.864,33.76-35.523,0-20.407-14.109-35.523-33.76-35.523S-1107.48,346.052-1107.48,366.459Z" fill="#fff"/>
        <path id="Path_12429" data-name="Path 12429" d="M-906.988,435.994a53.993,53.993,0,0,1-43.081-20.659v15.62h-37.287V244.017h37.791v73.566a52.646,52.646,0,0,1,42.577-20.659c36.027,0,61.22,28.722,61.22,69.535S-871.213,435.994-906.988,435.994Zm-44.089-69.535c0,20.407,14.108,35.523,33.76,35.523,19.4,0,33.759-14.864,33.759-35.523,0-20.407-14.109-35.523-33.759-35.523S-951.077,346.052-951.077,366.459Z" fill="#fff"/>
        <path id="Path_12430" data-name="Path 12430" d="M-731.186,301.963h37.79V430.955h-37.79V413.067c-10.078,14.361-25.446,22.927-43.837,22.927-36.279,0-61.725-28.722-61.725-69.535s25.446-69.535,61.725-69.535c18.391,0,33.759,8.566,43.837,22.927Zm-.252,64.5c0-20.911-14.108-36.279-33.759-36.279s-33.76,15.368-33.76,36.279,14.108,36.279,33.76,36.279S-731.438,387.37-731.438,366.459Z" fill="#fff"/>
        <path id="Path_12431" data-name="Path 12431" d="M-618.124,436.5c-34.768,0-59.962-20.407-59.71-48.624h32c0,12.849,11.842,21.918,28.218,21.918,13.856,0,23.933-6.55,23.933-15.116,0-10.833-14.612-13.857-30.232-15.368-28.721-3.528-52.655-8.062-52.655-39.554,0-25.194,23.934-43.334,55.426-43.334,34.516,0,59.458,18.643,59.458,44.594h-33.256c0-10.582-11.337-17.888-26.453-17.888-11.59,0-20.912,6.046-21.164,14.612,0,8.566,11.337,11.085,25.95,13.353,26.2,3.527,59.206,8.817,59.206,39.051C-557.407,417.1-582.1,436.5-618.124,436.5Z" fill="#fff"/>
        <path id="Path_12432" data-name="Path 12432" d="M-505.356,244.017v72.558c8.565-12.6,23.933-19.651,39.553-19.651,29.729,0,49.128,21.667,49.128,52.151v81.88h-37.791V356.886c0-15.62-9.069-26.454-24.185-26.706-14.613,0-26.7,11.841-26.7,28.216v72.559h-37.792V244.017Z" fill="#fff"/>
      </g>
    </g>
    <g id="Group_15305" data-name="Group 15305">
      <g id="Group_15304" data-name="Group 15304">
        <path id="Path_12433" data-name="Path 12433" d="M-1327.606,533.526l13.055-48.622h9.615l-15.243,55.345h-14.462l-10.788-44.792-10.709,44.792h-14.54L-1386,484.9h9.693l13.133,48.622,11.726-48.622h12.35Z" fill="#fff"/>
        <path id="Path_12434" data-name="Path 12434" d="M-1282.456,498.975c12.35,0,21.106,8.755,21.106,21.028,0,.937-.078,2.11-.156,3.049l-33.458-.078c1.017,7.035,5.941,11.725,12.43,11.725,5.315,0,10.24-3.127,11.725-7.505l7.974,1.173c-2.268,7.818-10.476,13.446-19.543,13.446-12.429,0-21.341-9.147-21.341-21.888C-1303.719,507.73-1294.807,498.975-1282.456,498.975Zm12.272,17.745a12.254,12.254,0,0,0-12.506-10.631c-6.411,0-11.1,4.3-12.2,10.631Z" fill="#fff"/>
        <path id="Path_12435" data-name="Path 12435" d="M-1230.267,540.249V484.9h25.015c10.71,0,18.292,6.254,18.292,14.853a11.714,11.714,0,0,1-8.208,11.413c5.707,1.406,9.771,6.879,9.771,13.289,0,9.224-8.129,15.79-19.542,15.79Zm9.381-47.606v14.93h14.227c6.019,0,10.241-3.048,10.241-7.426s-4.222-7.5-10.241-7.5Zm14.384,22.279h-14.384V532.51h14.384c6.8,0,11.647-3.752,11.647-8.833S-1199.7,514.922-1206.5,514.922Z" fill="#fff"/>
        <path id="Path_12436" data-name="Path 12436" d="M-1148.564,540.249v-5.081a15.5,15.5,0,0,1-12.82,6.645c-9.771,0-16.1-7.192-16.1-17.042V500.538h8.52v23.608c0,5.863,3.44,10.083,9.459,10.083a10.742,10.742,0,0,0,10.865-10.865V500.538h8.443v39.711Z" fill="#fff"/>
        <path id="Path_12437" data-name="Path 12437" d="M-1130.661,488.891a4.99,4.99,0,0,1,5.316-5.081,4.969,4.969,0,0,1,5.238,5.081,5.051,5.051,0,0,1-5.238,5.237A5.07,5.07,0,0,1-1130.661,488.891Zm9.537,11.647v39.711h-8.442V500.538Z" fill="#fff"/>
        <path id="Path_12438" data-name="Path 12438" d="M-1102.173,482.559v57.69h-8.442v-57.69Z" fill="#fff"/>
        <path id="Path_12439" data-name="Path 12439" d="M-1074.512,498.975a17.748,17.748,0,0,1,14.384,6.957V482.559h8.521v57.69h-8.287V534.7a18.005,18.005,0,0,1-14.618,7.114c-11.491,0-19.933-8.99-19.933-21.419S-1086.081,498.975-1074.512,498.975ZM-1086,520.394c0,7.9,5.629,13.445,13.133,13.445,7.583,0,13.055-5.706,13.055-13.445s-5.472-13.446-13.055-13.446S-1086,512.654-1086,520.394Z" fill="#fff"/>
        <path id="Path_12440" data-name="Path 12440" d="M-1018.993,484.9h18.84c19.229,0,32.049,11.022,32.049,27.672s-12.82,27.673-32.049,27.673h-18.84Zm18.84,7.817h-9.537v39.711h9.537c13.523,0,22.669-7.661,22.669-19.856S-986.63,492.721-1000.153,492.721Z" fill="#fff"/>
        <path id="Path_12441" data-name="Path 12441" d="M-960.433,488.891a4.991,4.991,0,0,1,5.317-5.081,4.969,4.969,0,0,1,5.237,5.081,5.05,5.05,0,0,1-5.237,5.237A5.071,5.071,0,0,1-960.433,488.891Zm9.537,11.647v39.711h-8.442V500.538Z" fill="#fff"/>
        <path id="Path_12442" data-name="Path 12442" d="M-907.946,539.468v-5.082a17.786,17.786,0,0,1-14.306,6.644c-11.569,0-20.012-8.6-20.012-20.636,0-12.351,8.443-21.263,20.012-21.263a17.736,17.736,0,0,1,14.384,6.8v-5.394h8.442v39.008c0,12.819-8.677,20.246-20.794,20.246-10.4,0-19-6.566-20.4-15.713l7.817-.937a12.668,12.668,0,0,0,12.273,9.458C-913.184,552.6-907.946,547.832-907.946,539.468Zm.312-19.074c0-8.052-5.472-13.836-13.055-13.836s-13.132,5.784-13.132,13.836c0,7.739,5.55,13.367,13.132,13.367S-907.634,528.133-907.634,520.394Z" fill="#fff"/>
        <path id="Path_12443" data-name="Path 12443" d="M-890.342,488.891a4.991,4.991,0,0,1,5.317-5.081,4.969,4.969,0,0,1,5.237,5.081,5.051,5.051,0,0,1-5.237,5.237A5.071,5.071,0,0,1-890.342,488.891Zm9.537,11.647v39.711h-8.442V500.538Z" fill="#fff"/>
        <path id="Path_12444" data-name="Path 12444" d="M-866.856,507.183h-6.1v-6.645h6.566l1.094-9.615h6.958v9.615h9.692v6.645h-9.692v21.34c0,3.6,2.188,6.1,5.784,6.1a16.838,16.838,0,0,0,4.456-.7v6.8a23.617,23.617,0,0,1-7.036,1.095c-7.113,0-11.725-5.16-11.725-12.743Z" fill="#fff"/>
        <path id="Path_12445" data-name="Path 12445" d="M-807.419,500.538h8.521v39.711h-8.521v-5.941a17.8,17.8,0,0,1-14.774,7.505c-11.648,0-19.934-8.99-19.934-21.419s8.286-21.419,19.934-21.419a17.794,17.794,0,0,1,14.774,7.5Zm-.078,19.856c0-8.052-5.472-13.836-13.055-13.836s-13.133,5.784-13.133,13.836c0,7.973,5.551,13.835,13.133,13.835S-807.5,528.445-807.5,520.394Z" fill="#fff"/>
        <path id="Path_12446" data-name="Path 12446" d="M-780.763,482.559v57.69h-8.442v-57.69Z" fill="#fff"/>
        <path id="Path_12447" data-name="Path 12447" d="M-738.561,523.364v16.885h-9.068V484.9h21.419c12.977,0,22.278,8.052,22.278,19.23s-9.3,19.23-22.356,19.23Zm0-30.721v22.9h10.788c8.442,0,14.54-4.769,14.461-11.413,0-6.723-6.019-11.491-14.461-11.491Z" fill="#fff"/>
        <path id="Path_12448" data-name="Path 12448" d="M-688.86,500.538v5.081a12.411,12.411,0,0,1,10.788-6.488,15.46,15.46,0,0,1,5.081,1.016v7.583a16.652,16.652,0,0,0-6.176-1.251c-5.628,0-9.381,5-9.381,12.039v21.731h-8.52V500.538Z" fill="#fff"/>
        <path id="Path_12449" data-name="Path 12449" d="M-627.826,520.394c0,12.585-8.911,21.419-21.575,21.419-12.743,0-21.576-8.834-21.576-21.419s8.833-21.419,21.576-21.419C-636.737,498.975-627.826,507.809-627.826,520.394Zm-8.443,0c0-8.052-5.549-13.836-13.132-13.836-7.661,0-13.055,5.784-13.055,13.836s5.394,13.835,13.055,13.835C-641.818,534.229-636.269,528.445-636.269,520.394Z" fill="#fff"/>
        <path id="Path_12450" data-name="Path 12450" d="M-601.92,498.975a17.751,17.751,0,0,1,14.384,6.957V482.559h8.52v57.69H-587.3V534.7a18.005,18.005,0,0,1-14.618,7.114c-11.491,0-19.934-8.99-19.934-21.419S-613.489,498.975-601.92,498.975Zm-11.491,21.419c0,7.9,5.629,13.445,13.133,13.445,7.583,0,13.054-5.706,13.054-13.445s-5.471-13.446-13.054-13.446S-613.411,512.654-613.411,520.394Z" fill="#fff"/>
        <path id="Path_12451" data-name="Path 12451" d="M-541.79,540.249v-5.081a15.5,15.5,0,0,1-12.819,6.645c-9.772,0-16.1-7.192-16.1-17.042V500.538h8.521v23.608c0,5.863,3.439,10.083,9.459,10.083a10.742,10.742,0,0,0,10.865-10.865V500.538h8.442v39.711Z" fill="#fff"/>
        <path id="Path_12452" data-name="Path 12452" d="M-485.034,514.062l-8.13,1.016a11.85,11.85,0,0,0-11.569-8.833c-7.036,0-12.586,5.941-12.586,14.149.078,8.208,5.472,14.149,12.586,14.149a11.963,11.963,0,0,0,11.647-8.756l8.13,1.017c-1.642,8.676-10.006,15.009-19.777,15.009-12.195,0-21.029-8.99-21.029-21.419s8.834-21.419,20.95-21.419C-494.728,498.975-486.441,505.307-485.034,514.062Z" fill="#fff"/>
        <path id="Path_12453" data-name="Path 12453" d="M-474.4,507.183h-6.1v-6.645h6.566l1.094-9.615h6.958v9.615h9.692v6.645h-9.692v21.34c0,3.6,2.189,6.1,5.784,6.1a16.837,16.837,0,0,0,4.456-.7v6.8a23.617,23.617,0,0,1-7.036,1.095c-7.113,0-11.725-5.16-11.725-12.743Z" fill="#fff"/>
        <path id="Path_12454" data-name="Path 12454" d="M-430.988,541.891c-10.475,0-18.057-6.332-18.057-15.087h7.816c0,4.69,4.3,8.13,10.241,8.13,5.316,0,9.146-2.424,9.068-5.707,0-4.143-6.176-5.16-10.162-5.706-9.3-1.408-16.338-2.581-16.338-12.039,0-7.27,6.957-12.586,15.947-12.586,10.241,0,17.744,5.708,17.744,13.6h-7.895c-.078-3.908-4.221-6.644-9.927-6.644-4.3,0-7.9,2.345-7.9,5.55,0,2.97,2.97,3.909,9.38,5,7.583,1.25,17.354,2.892,17.354,11.882C-413.712,536.185-420.9,541.891-430.988,541.891Z" fill="#fff"/>
      </g>
    </g>
    <g id="Group_15316" data-name="Group 15316">
      <g id="Group_15315" data-name="Group 15315">
        <g id="Group_15309" data-name="Group 15309">
          <path id="Path_12455" data-name="Path 12455" d="M-1740.344,450.127l.937.679-.97-.663Z" fill="url(#linear-gradient)"/>
          <path id="Path_12456" data-name="Path 12456" d="M-1595.639,412.814V560.985L-1741,452.084l1.594-1.277h.033l46.417-37.427.69-.566Z" fill="url(#linear-gradient-2)"/>
          <g id="Group_15306" data-name="Group 15306">
            <path id="Path_12457" data-name="Path 12457" d="M-1743.468,450.214l.854.683-.886-.653Z" fill="url(#linear-gradient-3)"/>
          </g>
          <g id="Group_15307" data-name="Group 15307">
            <path id="Path_12458" data-name="Path 12458" d="M-1740.344,450.127l.937.679-.97-.663Z" fill="url(#linear-gradient)"/>
          </g>
          <g id="Group_15308" data-name="Group 15308">
            <path id="Path_12459" data-name="Path 12459" d="M-1741,452.084l1.594-1.277h.033l43-34.678,100.736,144.856Z" fill="url(#linear-gradient-5)"/>
          </g>
        </g>
        <g id="Group_15313" data-name="Group 15313">
          <g id="Group_15310" data-name="Group 15310">
            <path id="Path_12460" data-name="Path 12460" d="M-1700.668,297.079l-174.984-168.967,326.8,168.967h-151.819Z" fill="url(#linear-gradient-6)"/>
          </g>
          <g id="Group_15311" data-name="Group 15311">
            <path id="Path_12461" data-name="Path 12461" d="M-1875.65,560.985l0-432.873,174.984,168.967Z" fill="url(#linear-gradient-7)"/>
          </g>
          <path id="Path_12462" data-name="Path 12462" d="M-1875.653,560.985" fill="#fff"/>
          <g id="Group_15312" data-name="Group 15312">
            <path id="Path_12463" data-name="Path 12463" d="M-1875.65,560.985l327.019-263.91h-152.033Z" fill="url(#linear-gradient-8)"/>
          </g>
        </g>
        <g id="Group_15314" data-name="Group 15314">
          <path id="Path_12464" data-name="Path 12464" d="M-1717.788,450.9l-.852-.653.031-.03Z" fill="url(#linear-gradient-2)"/>
        </g>
      </g>
    </g>
  </g>
</svg>
