<svg xmlns="http://www.w3.org/2000/svg" xmlns:xlink="http://www.w3.org/1999/xlink" viewBox="0 0 1800.28 691.81"><defs><style>.cls-1{fill:#1e1e1e;}.cls-2{fill:url(#linear-gradient);}.cls-3{fill:url(#linear-gradient-2);}.cls-4{fill:url(#linear-gradient-3);}.cls-5{fill:url(#linear-gradient-4);}.cls-6{fill:url(#linear-gradient-5);}.cls-7{fill:url(#linear-gradient-6);}.cls-8{fill:url(#linear-gradient-7);}.cls-9{fill:url(#linear-gradient-8);}.cls-10{fill:url(#linear-gradient-9);}</style><linearGradient id="linear-gradient" x1="314.64" y1="448.93" x2="315.6" y2="448.93" gradientUnits="userSpaceOnUse"><stop offset="0" stop-color="#26d09b"/><stop offset="1" stop-color="#87d46a"/></linearGradient><linearGradient id="linear-gradient-2" x1="314.03" y1="484.78" x2="457.07" y2="484.78" xlink:href="#linear-gradient"/><linearGradient id="linear-gradient-3" x1="311.57" y1="449.01" x2="312.44" y2="449.01" gradientUnits="userSpaceOnUse"><stop offset="0" stop-color="#326483"/><stop offset="1" stop-color="#0c9aa3"/></linearGradient><linearGradient id="linear-gradient-4" x1="314.64" y1="448.93" x2="315.6" y2="448.93" xlink:href="#linear-gradient-3"/><linearGradient id="linear-gradient-5" x1="314.03" y1="486.41" x2="457.07" y2="486.41" xlink:href="#linear-gradient-3"/><linearGradient id="linear-gradient-6" x1="484.44" y1="330.34" x2="171.26" y2="149.52" xlink:href="#linear-gradient-3"/><linearGradient id="linear-gradient-7" x1="181.53" y1="344.7" x2="353.72" y2="344.7" xlink:href="#linear-gradient"/><linearGradient id="linear-gradient-8" x1="181.53" y1="427.83" x2="503.32" y2="427.83" xlink:href="#linear-gradient-3"/><linearGradient id="linear-gradient-9" x1="336.03" y1="449.01" x2="336.87" y2="449.01" xlink:href="#linear-gradient-3"/></defs><title>source file</title><g id="Layer_1" data-name="Layer 1"><path class="cls-1" d="M705.34,429.54H663.72V253.14h85.47c40.88,0,69.37,24.28,69.37,59.46,0,23.79-15.6,43.61-38.65,51l42.62,65.9H776l-34.69-60.45H705.34Zm0-144.93v55.24H742.5c19.58,0,34.44-10.9,34.44-27.25,0-17.84-14.86-28-34.44-28Z"/><path class="cls-1" d="M838.36,264.78c0-12.14,8.92-20.81,21.56-20.81s21.55,8.67,21.55,20.81c0,12.39-8.92,21.06-21.55,21.06S838.36,277.17,838.36,264.78Zm40.14,37.91V429.54H841.34V302.69Z"/><path class="cls-1" d="M980,434.5a53.1,53.1,0,0,1-42.37-20.32v15.36H901V245.71h37.16v72.34A51.78,51.78,0,0,1,980,297.74c35.43,0,60.2,28.24,60.2,68.38S1015.19,434.5,980,434.5Zm-43.36-68.38c0,20.07,13.88,34.93,33.2,34.93,19.08,0,33.2-14.62,33.2-34.93,0-20.07-13.87-34.94-33.2-34.94S936.65,346.05,936.65,366.12Z"/><path class="cls-1" d="M1133.62,434.5a53.07,53.07,0,0,1-42.36-20.32v15.36h-36.67V245.71h37.16v72.34a51.78,51.78,0,0,1,41.87-20.31c35.43,0,60.21,28.24,60.21,68.38S1168.8,434.5,1133.62,434.5Zm-43.36-68.38c0,20.07,13.88,34.93,33.2,34.93,19.08,0,33.2-14.62,33.2-34.93,0-20.07-13.87-34.94-33.2-34.94S1090.26,346.05,1090.26,366.12Z"/><path class="cls-1" d="M1306.31,302.69h37.17V429.54h-37.17V412c-9.91,14.12-25,22.55-43.11,22.55-35.67,0-60.7-28.25-60.7-68.38s25-68.38,60.7-68.38c18.09,0,33.2,8.42,43.11,22.54Zm-.25,63.43c0-20.57-13.87-35.68-33.2-35.68s-33.2,15.11-33.2,35.68,13.88,35.67,33.2,35.67S1306.06,386.68,1306.06,366.12Z"/><path class="cls-1" d="M1417.32,435c-34.19,0-59-20.06-58.72-47.81h31.46c0,12.63,11.65,21.55,27.75,21.55,13.63,0,23.54-6.44,23.54-14.86,0-10.66-14.37-13.63-29.73-15.12-28.25-3.47-51.78-7.93-51.78-38.9,0-24.77,23.53-42.61,54.5-42.61,34,0,58.48,18.34,58.48,43.85h-32.71c0-10.4-11.15-17.59-26-17.59-11.4,0-20.57,5.95-20.81,14.37,0,8.43,11.14,10.9,25.51,13.13,25.77,3.47,58.23,8.68,58.23,38.41C1477,415.92,1452.75,435,1417.32,435Z"/><path class="cls-1" d="M1527.59,245.71v71.35c8.42-12.39,23.53-19.32,38.9-19.32,29.23,0,48.31,21.3,48.31,51.28v80.52h-37.17V356.7c0-15.36-8.92-26-23.78-26.26-14.37,0-26.26,11.64-26.26,27.75v71.35h-37.17V245.71Z"/><path class="cls-1" d="M720.68,530.41l12.84-47.81H743L728,537H713.76l-10.61-44-10.53,44h-14.3L663.26,482.6h9.53l12.91,47.81,11.54-47.81h12.14Z"/><path class="cls-1" d="M765.48,496.43c12.14,0,20.75,8.61,20.75,20.68,0,.92-.08,2.08-.15,3l-32.9-.08c1,6.92,5.84,11.53,12.22,11.53,5.23,0,10.07-3.07,11.53-7.38l7.84,1.16c-2.23,7.69-10.3,13.22-19.22,13.22-12.22,0-21-9-21-21.52C744.57,505,753.33,496.43,765.48,496.43Zm12.06,17.45a12,12,0,0,0-12.29-10.45c-6.31,0-10.92,4.23-12,10.45Z"/><path class="cls-1" d="M817,537V482.6h24.6c10.53,0,18,6.15,18,14.6a11.53,11.53,0,0,1-8.08,11.23c5.62,1.38,9.61,6.76,9.61,13.06,0,9.08-8,15.53-19.22,15.53Zm9.22-46.81v14.68h14c5.92,0,10.07-3,10.07-7.3s-4.15-7.38-10.07-7.38Zm14.15,21.91H826.25v17.29H840.4c6.68,0,11.45-3.69,11.45-8.68S847.08,512.12,840.4,512.12Z"/><path class="cls-1" d="M897.32,537v-5a15.25,15.25,0,0,1-12.61,6.53c-9.61,0-15.83-7.07-15.83-16.76V498h8.38v23.22c0,5.76,3.38,9.91,9.3,9.91a10.56,10.56,0,0,0,10.68-10.68V498h8.3v39Z"/><path class="cls-1" d="M914.72,486.52a5.19,5.19,0,0,1,10.38,0,5.19,5.19,0,0,1-10.38,0ZM924.1,498v39h-8.3V498Z"/><path class="cls-1" d="M942.1,480.29V537h-8.3V480.29Z"/><path class="cls-1" d="M968.64,496.43a17.45,17.45,0,0,1,14.14,6.84v-23h8.38V537H983v-5.46a17.68,17.68,0,0,1-14.37,7c-11.3,0-19.61-8.84-19.61-21.06S957.26,496.43,968.64,496.43Zm-11.3,21.07c0,7.76,5.53,13.22,12.91,13.22s12.84-5.61,12.84-13.22-5.38-13.23-12.84-13.23S957.34,509.89,957.34,517.5Z"/><path class="cls-1" d="M1023.5,482.6H1042c18.91,0,31.52,10.83,31.52,27.21S1060.93,537,1042,537H1023.5Zm18.52,7.68h-9.38v39.05H1042c13.3,0,22.3-7.53,22.3-19.52S1055.32,490.28,1042,490.28Z"/><path class="cls-1" d="M1081.11,486.52a5.19,5.19,0,0,1,10.38,0,5.19,5.19,0,0,1-10.38,0Zm9.38,11.45v39h-8.3V498Z"/><path class="cls-1" d="M1132.09,536.25v-5a17.47,17.47,0,0,1-14.06,6.53c-11.38,0-19.68-8.46-19.68-20.29,0-12.15,8.3-20.91,19.68-20.91a17.42,17.42,0,0,1,14.14,6.68V498h8.3v38.36c0,12.61-8.53,19.91-20.45,19.91-10.22,0-18.68-6.46-20.06-15.45l7.69-.92a12.46,12.46,0,0,0,12.07,9.3C1126.94,549.17,1132.09,544.48,1132.09,536.25Zm.31-18.75c0-7.92-5.38-13.61-12.84-13.61s-12.91,5.69-12.91,13.61c0,7.61,5.46,13.14,12.91,13.14S1132.4,525.11,1132.4,517.5Z"/><path class="cls-1" d="M1149.27,486.52a5.19,5.19,0,0,1,10.38,0,5.19,5.19,0,0,1-10.38,0Zm9.38,11.45v39h-8.3V498Z"/><path class="cls-1" d="M1171.73,504.5h-6V498h6.46l1.08-9.46h6.84V498h9.53v6.53h-9.53v21c0,3.54,2.15,6,5.69,6a16.62,16.62,0,0,0,4.38-.69v6.68a23,23,0,0,1-6.92,1.08c-7,0-11.53-5.07-11.53-12.53Z"/><path class="cls-1" d="M1229.71,498h8.38v39h-8.38v-5.84a17.49,17.49,0,0,1-14.53,7.38c-11.45,0-19.6-8.84-19.6-21.06s8.15-21.07,19.6-21.07a17.49,17.49,0,0,1,14.53,7.38Zm-.07,19.53c0-7.92-5.39-13.61-12.84-13.61s-12.92,5.69-12.92,13.61,5.46,13.6,12.92,13.6S1229.64,525.41,1229.64,517.5Z"/><path class="cls-1" d="M1255.81,480.29V537h-8.31V480.29Z"/><path class="cls-1" d="M1297,520.42V537h-8.92V482.6h21.06c12.76,0,21.91,7.91,21.91,18.91s-9.15,18.91-22,18.91Zm0-30.21v22.52h10.61c8.3,0,14.29-4.69,14.22-11.22s-5.92-11.3-14.22-11.3Z"/><path class="cls-1" d="M1346.81,498v5a12.2,12.2,0,0,1,10.61-6.38,15,15,0,0,1,5,1V505a16.38,16.38,0,0,0-6.07-1.23c-5.53,0-9.22,4.92-9.22,11.84V537h-8.38V498Z"/><path class="cls-1" d="M1406.33,517.5c0,12.37-8.77,21.06-21.22,21.06s-21.22-8.69-21.22-21.06,8.69-21.07,21.22-21.07S1406.33,505.12,1406.33,517.5Zm-8.3,0c0-7.92-5.46-13.61-12.92-13.61s-12.84,5.69-12.84,13.61,5.31,13.6,12.84,13.6S1398,525.41,1398,517.5Z"/><path class="cls-1" d="M1431.65,496.43a17.49,17.49,0,0,1,14.15,6.84v-23h8.37V537H1446v-5.46a17.7,17.7,0,0,1-14.38,7c-11.3,0-19.6-8.84-19.6-21.06S1420.27,496.43,1431.65,496.43Zm-11.3,21.07c0,7.76,5.54,13.22,12.92,13.22s12.83-5.61,12.83-13.22-5.38-13.23-12.83-13.23S1420.35,509.89,1420.35,517.5Z"/><path class="cls-1" d="M1490.65,537v-5a15.25,15.25,0,0,1-12.61,6.53c-9.61,0-15.84-7.07-15.84-16.76V498h8.38v23.22c0,5.76,3.38,9.91,9.3,9.91a10.57,10.57,0,0,0,10.69-10.68V498h8.3v39Z"/><path class="cls-1" d="M1546.26,511.27l-8,1a11.66,11.66,0,0,0-11.38-8.69c-6.92,0-12.37,5.84-12.37,13.92s5.38,13.91,12.37,13.91a11.77,11.77,0,0,0,11.46-8.61l8,1c-1.61,8.53-9.84,14.76-19.45,14.76-12,0-20.68-8.84-20.68-21.06s8.69-21.07,20.61-21.07C1536.72,496.43,1544.87,502.66,1546.26,511.27Z"/><path class="cls-1" d="M1557.51,504.5h-6V498H1558l1.08-9.46h6.84V498h9.53v6.53h-9.53v21c0,3.54,2.15,6,5.69,6a16.62,16.62,0,0,0,4.38-.69v6.68a23,23,0,0,1-6.92,1.08c-7,0-11.53-5.07-11.53-12.53Z"/><path class="cls-1" d="M1599.73,538.64c-10.3,0-17.75-6.23-17.75-14.84h7.68c0,4.61,4.23,8,10.07,8,5.23,0,9-2.38,8.92-5.61,0-4.07-6.07-5.07-10-5.61-9.15-1.38-16.07-2.54-16.07-11.84,0-7.15,6.84-12.37,15.68-12.37,10.07,0,17.45,5.61,17.45,13.37H1608c-.08-3.84-4.15-6.53-9.76-6.53-4.23,0-7.77,2.3-7.77,5.46,0,2.92,2.92,3.84,9.23,4.92,7.45,1.23,17.06,2.84,17.06,11.68C1616.72,533,1609.65,538.64,1599.73,538.64Z"/><polygon class="cls-2" points="314.68 448.59 315.6 449.26 314.64 448.61 314.68 448.59"/><polygon class="cls-3" points="457.07 411.88 457.07 557.68 314.03 450.52 315.6 449.26 315.63 449.26 361.31 412.43 361.98 411.88 457.07 411.88"/><polygon class="cls-4" points="311.6 448.68 312.44 449.35 311.57 448.71 311.6 448.68"/><polygon class="cls-5" points="314.68 448.59 315.6 449.26 314.64 448.61 314.68 448.59"/><polygon class="cls-6" points="314.03 450.52 315.6 449.26 315.63 449.26 357.94 415.14 457.07 557.68 314.03 450.52"/><polygon class="cls-7" points="353.72 297.99 181.53 131.73 503.11 297.99 503 297.99 353.72 297.99 353.72 297.99"/><polygon class="cls-8" points="181.53 557.68 181.53 131.73 353.72 297.99 181.53 557.68"/><polygon class="cls-9" points="181.53 557.68 503.32 297.99 353.72 297.99 181.53 557.68"/><polygon class="cls-10" points="336.87 449.35 336.03 448.71 336.06 448.68 336.87 449.35"/></g></svg>