<svg xmlns="http://www.w3.org/2000/svg" xmlns:xlink="http://www.w3.org/1999/xlink" width="229.632" height="67.782" viewBox="0 0 229.632 67.782"><defs><linearGradient id="a" y1="0.5" x2="1" y2="0.5" gradientUnits="objectBoundingBox"><stop offset="0" stop-color="#26d09b"/><stop offset="1" stop-color="#87d46a"/></linearGradient><linearGradient id="b" x1="0" y1="0.5" x2="1" y2="0.5" xlink:href="#a"/><linearGradient id="c" y1="0.5" x2="1" y2="0.5" gradientUnits="objectBoundingBox"><stop offset="0" stop-color="#326483"/><stop offset="1" stop-color="#0c9aa3"/></linearGradient><linearGradient id="d" x1="0" y1="0.5" x2="1" y2="0.5" xlink:href="#c"/><linearGradient id="f" x1="0.942" y1="1.195" x2="-0.032" y2="0.107" xlink:href="#c"/></defs><g transform="translate(-390 -25)"><text transform="translate(463.632 71.904)" fill="#1a1a1a" font-size="39" font-family="Objectivity-Bold, Objectivity" font-weight="700" letter-spacing="-0.05em"><tspan x="0" y="0">Ribbash</tspan></text><text transform="translate(466.205 89.679)" fill="#1a1a1a" font-size="12" font-family="Objectivity-Medium, Objectivity" font-weight="500" letter-spacing="-0.025em"><tspan x="0" y="0">We Build Digital Products</tspan></text><g transform="translate(-146.546 -803.78)"><g transform="translate(557.24 873.361)"><path d="M590.068,956.174l.147.106-.152-.1Z" transform="translate(-589.574 -950.331)" fill="url(#a)"/><path d="M612.578,941.412v23.2l-22.762-17.052.25-.2h.005l7.268-5.861.108-.089Z" transform="translate(-589.425 -941.412)" fill="url(#b)"/><path d="M588.833,956.208l.134.107-.139-.1Z" transform="translate(-588.828 -950.352)" fill="url(#c)"/><path d="M590.068,956.174l.147.106-.152-.1Z" transform="translate(-589.574 -950.331)" fill="url(#d)"/><path d="M589.816,948.354l.25-.2h.005l6.733-5.43,15.774,22.683Z" transform="translate(-589.425 -942.204)" fill="url(#c)"/></g><g transform="translate(536.546 828.78)"><path d="M563.947,855.238l-27.4-26.458,51.173,26.458H563.947Z" transform="translate(-536.546 -828.78)" fill="url(#f)"/><path d="M536.547,896.562V828.78l27.4,26.458Z" transform="translate(-536.546 -828.78)" fill="url(#b)"/><path d="M536.546,1000.031" transform="translate(-536.546 -932.249)" fill="#fff"/><path d="M536.547,936.949l51.207-41.325H563.948Z" transform="translate(-536.547 -869.167)" fill="url(#c)"/></g><path d="M598.8,956.315l-.133-.1,0,0Z" transform="translate(-37.53 -76.991)" fill="url(#c)"/></g></g></svg>