<svg xmlns="http://www.w3.org/2000/svg" xmlns:xlink="http://www.w3.org/1999/xlink" width="229.632" height="67.783" viewBox="0 0 229.632 67.783"><defs><linearGradient id="a" y1="0.5" x2="1" y2="0.5" gradientUnits="objectBoundingBox"><stop offset="0" stop-color="#b3b3b3"/><stop offset="1" stop-color="#f2f2f2"/></linearGradient><linearGradient id="b" x1="0" y1="0.5" x2="1" y2="0.5" xlink:href="#a"/><linearGradient id="c" x1="0" y1="0.5" x2="1" y2="0.5" xlink:href="#a"/><linearGradient id="e" x1="0.5" x2="0.5" y2="1" gradientUnits="objectBoundingBox"><stop offset="0.333" stop-color="#b3b3b3"/><stop offset="1" stop-color="#f2f2f2"/></linearGradient><linearGradient id="f" x1="0.263" y1="-0.294" x2="0.737" y2="1.294" xlink:href="#a"/><linearGradient id="g" y1="0.5" x2="1" y2="0.5" gradientUnits="objectBoundingBox"><stop offset="0" stop-color="#b3b3b3"/><stop offset="0.788" stop-color="#f2f2f2"/></linearGradient><linearGradient id="h" y1="0.5" x2="1" y2="0.5" gradientUnits="objectBoundingBox"><stop offset="0.308" stop-color="#b3b3b3"/><stop offset="1" stop-color="#f2f2f2"/></linearGradient></defs><g transform="translate(15038 13668)"><text transform="translate(-14964.368 -13621.096)" fill="#fff" font-size="39" font-family="Objectivity-Bold, Objectivity" font-weight="700" letter-spacing="-0.05em"><tspan x="0" y="0">Ribbash</tspan></text><text transform="translate(-14961.795 -13603.321)" fill="#fff" font-size="12" font-family="Objectivity-Medium, Objectivity" font-weight="500" letter-spacing="-0.025em"><tspan x="0" y="0">We Build Digital Products</tspan></text><g transform="translate(-15038 -13668)"><g transform="translate(0 0)"><g transform="translate(20.694 44.581)"><path d="M1513.434,1219.975l.147.106-.152-.1Z" transform="translate(-1512.94 -1214.132)" fill="url(#a)"/><path d="M1535.694,1190.284v23.2l-22.762-17.052.25-.2h.005l7.268-5.861.108-.089Z" transform="translate(-1512.541 -1190.284)" fill="url(#b)"/><g transform="translate(0 5.856)"><path d="M1510.949,1220.044l.134.107-.139-.1Z" transform="translate(-1510.944 -1220.044)" fill="url(#c)"/></g><g transform="translate(0.489 5.843)"><path d="M1513.434,1219.975l.147.106-.152-.1Z" transform="translate(-1513.429 -1219.975)" fill="url(#a)"/></g><g transform="translate(0.391 0.519)"><path d="M1512.933,1198.552l.25-.2h.005l6.733-5.43,15.774,22.683Z" transform="translate(-1512.933 -1192.921)" fill="url(#e)"/></g></g><g transform="translate(0)"><path d="M1433.188,990.2l-27.4-26.458,51.173,26.458h-23.773Z" transform="translate(-1405.787 -963.74)" fill="url(#f)"/></g><g transform="translate(0)"><path d="M1405.788,1031.523V963.74l27.4,26.458Z" transform="translate(-1405.787 -963.74)" fill="url(#g)"/></g><path d="M1405.787,1308.187" transform="translate(-1405.787 -1240.404)" fill="#fff"/><g transform="translate(0 26.457)"><path d="M1405.789,1139.512,1457,1098.187H1433.19Z" transform="translate(-1405.789 -1098.187)" fill="url(#h)"/></g><g transform="translate(24.586 50.437)"><path d="M1530.859,1220.151l-.134-.1,0,0Z" transform="translate(-1530.725 -1220.044)" fill="url(#c)"/></g></g></g></g></svg>