<svg xmlns="http://www.w3.org/2000/svg" xmlns:xlink="http://www.w3.org/1999/xlink" viewBox="0 0 1800.28 691.81"><defs><style>.cls-1{fill:#fff;}.cls-2{fill:url(#linear-gradient);}.cls-3{fill:url(#linear-gradient-2);}.cls-4{fill:url(#linear-gradient-3);}.cls-5{fill:url(#linear-gradient-5);}.cls-6{fill:url(#linear-gradient-6);}.cls-7{fill:url(#linear-gradient-7);}.cls-8{fill:url(#linear-gradient-8);}.cls-9{fill:url(#linear-gradient-9);}</style><linearGradient id="linear-gradient" x1="303.28" y1="450.47" x2="304.25" y2="450.47" gradientUnits="userSpaceOnUse"><stop offset="0" stop-color="#b3b3b3"/><stop offset="1" stop-color="#f2f2f2"/></linearGradient><linearGradient id="linear-gradient-2" x1="302.65" y1="486.9" x2="448.02" y2="486.9" xlink:href="#linear-gradient"/><linearGradient id="linear-gradient-3" x1="300.16" y1="450.56" x2="301.04" y2="450.56" xlink:href="#linear-gradient"/><linearGradient id="linear-gradient-5" x1="375.34" y1="416.13" x2="375.34" y2="560.98" gradientUnits="userSpaceOnUse"><stop offset="0.33" stop-color="#b3b3b3"/><stop offset="1" stop-color="#f2f2f2"/></linearGradient><linearGradient id="linear-gradient-6" x1="253.97" y1="78.48" x2="408.84" y2="346.71" xlink:href="#linear-gradient"/><linearGradient id="linear-gradient-7" x1="168" y1="344.55" x2="342.99" y2="344.55" gradientUnits="userSpaceOnUse"><stop offset="0" stop-color="#b3b3b3"/><stop offset="0.79" stop-color="#f2f2f2"/></linearGradient><linearGradient id="linear-gradient-8" x1="168.01" y1="429.03" x2="495.02" y2="429.03" gradientUnits="userSpaceOnUse"><stop offset="0.31" stop-color="#b3b3b3"/><stop offset="1" stop-color="#f2f2f2"/></linearGradient><linearGradient id="linear-gradient-9" x1="325.01" y1="450.56" x2="325.87" y2="450.56" xlink:href="#linear-gradient"/></defs><title>source file</title><g id="Layer_1" data-name="Layer 1"><path class="cls-1" d="M700.45,431H658.12V251.58H745c41.57,0,70.54,24.68,70.54,60.46,0,24.19-15.87,44.34-39.3,51.9l43.33,67H772.25L737,369.48H700.45Zm0-147.39v56.18h37.79c19.9,0,35-11.08,35-27.71,0-18.14-15.12-28.47-35-28.47Z"/><path class="cls-1" d="M835.49,263.42c0-12.35,9.07-21.17,21.92-21.17s21.92,8.82,21.92,21.17c0,12.59-9.07,21.41-21.92,21.41S835.49,276,835.49,263.42ZM876.31,302V431H838.52V302Z"/><path class="cls-1" d="M980.26,436a54,54,0,0,1-43.08-20.66V431H899.9V244h37.79v73.56a52.65,52.65,0,0,1,42.57-20.66c36,0,61.23,28.73,61.23,69.54S1016,436,980.26,436Zm-44.08-69.53c0,20.41,14.1,35.52,33.76,35.52,19.39,0,33.76-14.86,33.76-35.52,0-20.41-14.11-35.52-33.76-35.52S936.18,346.05,936.18,366.46Z"/><path class="cls-1" d="M1136.67,436a54,54,0,0,1-43.08-20.66V431H1056.3V244h37.79v73.56a52.65,52.65,0,0,1,42.58-20.66c36,0,61.22,28.73,61.22,69.54S1172.44,436,1136.67,436Zm-44.09-69.53c0,20.41,14.11,35.52,33.76,35.52,19.4,0,33.76-14.86,33.76-35.52,0-20.41-14.11-35.52-33.76-35.52S1092.58,346.05,1092.58,366.46Z"/><path class="cls-1" d="M1312.47,302h37.79V431h-37.79V413.07C1302.39,427.43,1287,436,1268.63,436c-36.28,0-61.72-28.72-61.72-69.53s25.44-69.54,61.72-69.54c18.39,0,33.76,8.57,43.84,22.93Zm-.25,64.5c0-20.91-14.11-36.28-33.76-36.28s-33.76,15.37-33.76,36.28,14.11,36.28,33.76,36.28S1312.22,387.37,1312.22,366.46Z"/><path class="cls-1" d="M1425.53,436.5c-34.77,0-60-20.41-59.71-48.63h32c0,12.85,11.84,21.92,28.22,21.92,13.85,0,23.93-6.55,23.93-15.11,0-10.84-14.61-13.86-30.23-15.37-28.72-3.53-52.66-8.06-52.66-39.56,0-25.19,23.94-43.33,55.43-43.33,34.51,0,59.45,18.64,59.45,44.59h-33.25c0-10.58-11.34-17.88-26.45-17.88-11.59,0-20.92,6-21.17,14.61,0,8.56,11.34,11.08,26,13.35,26.2,3.53,59.21,8.82,59.21,39.05C1486.25,417.1,1461.56,436.5,1425.53,436.5Z"/><path class="cls-1" d="M1538.3,244v72.56c8.56-12.6,23.93-19.66,39.55-19.66,29.73,0,49.13,21.67,49.13,52.16V431h-37.79V356.89c0-15.62-9.07-26.46-24.19-26.71-14.61,0-26.7,11.84-26.7,28.22V431h-37.79V244Z"/><path class="cls-1" d="M716.05,533.53,729.1,484.9h9.62l-15.24,55.35H709l-10.78-44.79-10.71,44.79H673L657.66,484.9h9.69l13.13,48.63,11.73-48.63h12.35Z"/><path class="cls-1" d="M761.2,499c12.35,0,21.11,8.76,21.11,21,0,.94-.08,2.11-.16,3L748.69,523c1,7,5.94,11.73,12.43,11.73,5.32,0,10.24-3.13,11.73-7.51l8,1.18c-2.27,7.81-10.48,13.44-19.54,13.44-12.43,0-21.34-9.14-21.34-21.89C739.94,507.73,748.85,499,761.2,499Zm12.27,17.75A12.26,12.26,0,0,0,761,506.09c-6.41,0-11.1,4.3-12.19,10.63Z"/><path class="cls-1" d="M813.39,540.25V484.9h25c10.71,0,18.3,6.26,18.3,14.86a11.71,11.71,0,0,1-8.21,11.41c5.7,1.41,9.77,6.88,9.77,13.29,0,9.22-8.13,15.79-19.54,15.79Zm9.38-47.61v14.93H837c6,0,10.24-3,10.24-7.42S843,492.64,837,492.64Zm14.38,22.28H822.77v17.59h14.38c6.8,0,11.65-3.75,11.65-8.83S844,514.92,837.15,514.92Z"/><path class="cls-1" d="M895.09,540.25v-5.08a15.5,15.5,0,0,1-12.82,6.64c-9.77,0-16.1-7.19-16.1-17V500.54h8.52v23.61c0,5.86,3.44,10.08,9.46,10.08A10.74,10.74,0,0,0,895,523.36V500.54h8.45v39.71Z"/><path class="cls-1" d="M913,488.89a5.28,5.28,0,0,1,10.56,0,5.28,5.28,0,0,1-10.56,0Zm9.54,11.65v39.71h-8.44V500.54Z"/><path class="cls-1" d="M941.48,482.56v57.69H933V482.56Z"/><path class="cls-1" d="M969.14,499a17.74,17.74,0,0,1,14.39,7V482.56h8.52v57.69h-8.29V534.7a18,18,0,0,1-14.62,7.11c-11.49,0-19.93-9-19.93-21.42S957.57,499,969.14,499Zm-11.49,21.42c0,7.9,5.63,13.45,13.14,13.45s13.05-5.71,13.05-13.45S978.37,507,970.79,507,957.65,512.65,957.65,520.39Z"/><path class="cls-1" d="M1024.66,484.9h18.84c19.23,0,32,11,32,27.68s-12.82,27.67-32,27.67h-18.84Zm18.84,7.82H1034v39.71h9.54c13.53,0,22.67-7.66,22.67-19.85S1057,492.72,1043.5,492.72Z"/><path class="cls-1" d="M1083.22,488.89a5.28,5.28,0,0,1,10.56,0,5.28,5.28,0,0,1-10.56,0Zm9.54,11.65v39.71h-8.44V500.54Z"/><path class="cls-1" d="M1135.71,539.47v-5.08A17.79,17.79,0,0,1,1121.4,541c-11.57,0-20-8.6-20-20.64,0-12.35,8.44-21.26,20-21.26a17.74,17.74,0,0,1,14.39,6.8v-5.39h8.44v39c0,12.82-8.68,20.24-20.79,20.24-10.4,0-19-6.56-20.41-15.71l7.82-.94a12.67,12.67,0,0,0,12.27,9.46C1130.47,552.6,1135.71,547.83,1135.71,539.47Zm.31-19.08c0-8-5.47-13.83-13-13.83s-13.14,5.78-13.14,13.83c0,7.74,5.55,13.37,13.14,13.37S1136,528.13,1136,520.39Z"/><path class="cls-1" d="M1153.31,488.89a5.28,5.28,0,0,1,10.56,0,5.28,5.28,0,0,1-10.56,0Zm9.54,11.65v39.71h-8.44V500.54Z"/><path class="cls-1" d="M1176.8,507.18h-6.1v-6.64h6.57l1.09-9.62h7v9.62H1195v6.64h-9.69v21.34c0,3.6,2.19,6.1,5.78,6.1a16.74,16.74,0,0,0,4.46-.7v6.8a23.75,23.75,0,0,1-7,1.09c-7.11,0-11.72-5.16-11.72-12.74Z"/><path class="cls-1" d="M1236.24,500.54h8.52v39.71h-8.52v-5.94a17.79,17.79,0,0,1-14.78,7.5c-11.65,0-19.93-9-19.93-21.42s8.28-21.42,19.93-21.42a17.8,17.8,0,0,1,14.78,7.51Zm-.08,19.85c0-8-5.47-13.83-13.06-13.83S1210,512.34,1210,520.39s5.55,13.84,13.13,13.84S1236.16,528.45,1236.16,520.39Z"/><path class="cls-1" d="M1262.89,482.56v57.69h-8.44V482.56Z"/><path class="cls-1" d="M1305.09,523.36v16.89H1296V484.9h21.42c13,0,22.27,8.06,22.27,19.23s-9.3,19.23-22.35,19.23Zm0-30.72v22.91h10.79c8.44,0,14.54-4.77,14.46-11.42s-6-11.49-14.46-11.49Z"/><path class="cls-1" d="M1354.8,500.54v5.08a12.39,12.39,0,0,1,10.78-6.49,15.3,15.3,0,0,1,5.08,1v7.58a16.59,16.59,0,0,0-6.17-1.25c-5.63,0-9.38,5-9.38,12v21.73h-8.52V500.54Z"/><path class="cls-1" d="M1415.83,520.39c0,12.59-8.91,21.42-21.58,21.42s-21.57-8.83-21.57-21.42,8.83-21.42,21.57-21.42S1415.83,507.81,1415.83,520.39Zm-8.44,0c0-8-5.55-13.83-13.14-13.83s-13,5.78-13,13.83,5.39,13.84,13,13.84S1407.39,528.45,1407.39,520.39Z"/><path class="cls-1" d="M1441.74,499a17.74,17.74,0,0,1,14.38,7V482.56h8.52v57.69h-8.29V534.7a18,18,0,0,1-14.61,7.11c-11.5,0-19.94-9-19.94-21.42S1430.17,499,1441.74,499Zm-11.5,21.42c0,7.9,5.63,13.45,13.14,13.45s13-5.71,13-13.45S1451,507,1443.38,507,1430.24,512.65,1430.24,520.39Z"/><path class="cls-1" d="M1501.87,540.25v-5.08a15.51,15.51,0,0,1-12.82,6.64c-9.78,0-16.11-7.19-16.11-17V500.54h8.52v23.61c0,5.86,3.44,10.08,9.46,10.08a10.75,10.75,0,0,0,10.87-10.87V500.54h8.44v39.71Z"/><path class="cls-1" d="M1558.62,514.06l-8.13,1a11.85,11.85,0,0,0-11.57-8.83c-7,0-12.58,5.94-12.58,14.14s5.47,14.15,12.58,14.15a12,12,0,0,0,11.65-8.75l8.13,1c-1.64,8.68-10,15-19.78,15-12.19,0-21-9-21-21.42s8.84-21.42,20.95-21.42C1548.93,499,1557.21,505.31,1558.62,514.06Z"/><path class="cls-1" d="M1569.25,507.18h-6.09v-6.64h6.56l1.1-9.62h7v9.62h9.69v6.64h-9.69v21.34c0,3.6,2.18,6.1,5.78,6.1a16.86,16.86,0,0,0,4.46-.7v6.8a23.8,23.8,0,0,1-7,1.09c-7.11,0-11.73-5.16-11.73-12.74Z"/><path class="cls-1" d="M1612.67,541.89c-10.48,0-18.06-6.33-18.06-15.09h7.82c0,4.69,4.3,8.13,10.24,8.13,5.31,0,9.14-2.42,9.07-5.7,0-4.15-6.18-5.16-10.17-5.71-9.3-1.41-16.33-2.58-16.33-12,0-7.27,7-12.58,15.94-12.58,10.24,0,17.75,5.7,17.75,13.6H1621c-.08-3.91-4.22-6.65-9.93-6.65-4.3,0-7.89,2.35-7.89,5.55,0,3,3,3.91,9.38,5,7.58,1.25,17.35,2.89,17.35,11.88C1629.94,536.18,1622.75,541.89,1612.67,541.89Z"/><polygon class="cls-2" points="303.31 450.13 304.25 450.81 303.28 450.14 303.31 450.13"/><polygon class="cls-3" points="448.02 412.81 448.02 560.99 302.65 452.08 304.25 450.81 304.28 450.81 350.7 413.38 351.39 412.81 448.02 412.81"/><polygon class="cls-4" points="300.19 450.21 301.04 450.9 300.15 450.24 300.19 450.21"/><polygon class="cls-2" points="303.31 450.13 304.25 450.81 303.28 450.14 303.31 450.13"/><polygon class="cls-5" points="302.65 452.08 304.25 450.81 304.28 450.81 347.28 416.13 448.02 560.99 302.65 452.08"/><polygon class="cls-6" points="342.99 297.08 168 128.11 494.81 297.08 494.7 297.08 342.99 297.08 342.99 297.08"/><polygon class="cls-7" points="168 560.99 168 128.11 342.99 297.08 168 560.99"/><polygon class="cls-8" points="168 560.99 495.02 297.07 342.99 297.07 168 560.99"/><polygon class="cls-9" points="325.87 450.9 325.01 450.24 325.05 450.21 325.87 450.9"/></g></svg>