<svg xmlns="http://www.w3.org/2000/svg" xmlns:xlink="http://www.w3.org/1999/xlink" width="1435.191" height="425.949" viewBox="0 0 1435.191 425.949">
  <defs>
    <linearGradient id="linear-gradient" y1="0.5" x2="1" y2="0.5" gradientUnits="objectBoundingBox">
      <stop offset="0" stop-color="#26d09b"/>
      <stop offset="1" stop-color="#87d46a"/>
    </linearGradient>
    <linearGradient id="linear-gradient-3" y1="0.5" x2="1" y2="0.5" gradientUnits="objectBoundingBox">
      <stop offset="0" stop-color="#326483"/>
      <stop offset="1" stop-color="#0c9aa3"/>
    </linearGradient>
    <linearGradient id="linear-gradient-6" x1="0.942" y1="1.195" x2="-0.032" y2="0.107" xlink:href="#linear-gradient-3"/>
  </defs>
  <g id="Group_15325" data-name="Group 15325" transform="translate(-181.532 -131.728)">
    <g id="Group_15319" data-name="Group 15319">
      <g id="Group_15318" data-name="Group 15318">
        <path id="Path_12465" data-name="Path 12465" d="M705.339,429.543H663.716V253.14h85.476c40.88,0,69.371,24.28,69.371,59.462,0,23.785-15.608,43.605-38.649,51.038l42.614,65.9H775.949L741.264,369.09H705.339Zm0-144.938v55.249H742.5c19.572,0,34.437-10.9,34.437-27.252,0-17.839-14.865-28-34.437-28Z" fill="#1e1e1e"/>
        <path id="Path_12466" data-name="Path 12466" d="M838.364,264.784c0-12.139,8.919-20.811,21.555-20.811s21.555,8.672,21.555,20.811c0,12.389-8.919,21.06-21.555,21.06S838.364,277.173,838.364,264.784ZM878.5,302.691V429.543H841.337V302.691Z" fill="#1e1e1e"/>
        <path id="Path_12467" data-name="Path 12467" d="M980.01,434.5a53.1,53.1,0,0,1-42.366-20.316v15.361H900.976V245.707h37.163v72.346a51.775,51.775,0,0,1,41.871-20.317c35.429,0,60.2,28.244,60.2,68.381S1015.191,434.5,980.01,434.5Zm-43.358-68.381c0,20.069,13.874,34.934,33.2,34.934,19.077,0,33.2-14.617,33.2-34.934,0-20.068-13.874-34.933-33.2-34.933S936.652,346.049,936.652,366.117Z" fill="#1e1e1e"/>
        <path id="Path_12468" data-name="Path 12468" d="M1133.622,434.5a53.1,53.1,0,0,1-42.366-20.316v15.361h-36.668V245.707h37.163v72.346a51.775,51.775,0,0,1,41.871-20.317c35.43,0,60.205,28.244,60.205,68.381S1168.8,434.5,1133.622,434.5Zm-43.357-68.381c0,20.069,13.874,34.934,33.2,34.934,19.077,0,33.2-14.617,33.2-34.934,0-20.068-13.874-34.933-33.2-34.933S1090.265,346.049,1090.265,366.117Z" fill="#1e1e1e"/>
        <path id="Path_12469" data-name="Path 12469" d="M1306.311,302.691h37.165V429.543h-37.165V411.952c-9.91,14.122-25.023,22.546-43.109,22.546-35.677,0-60.7-28.244-60.7-68.381s25.023-68.381,60.7-68.381c18.086,0,33.2,8.424,43.109,22.546Zm-.248,63.426c0-20.563-13.874-35.677-33.2-35.677s-33.2,15.114-33.2,35.677,13.874,35.677,33.2,35.677S1306.063,386.681,1306.063,366.117Z" fill="#1e1e1e"/>
        <path id="Path_12470" data-name="Path 12470" d="M1417.317,434.993c-34.19,0-58.965-20.067-58.717-47.816h31.464c0,12.636,11.645,21.554,27.749,21.554,13.626,0,23.538-6.441,23.538-14.865,0-10.653-14.371-13.627-29.732-15.113-28.244-3.469-51.781-7.929-51.781-38.9,0-24.775,23.537-42.613,54.507-42.613,33.942,0,58.47,18.334,58.47,43.853h-32.7c0-10.406-11.149-17.591-26.014-17.591-11.4,0-20.564,5.946-20.812,14.37,0,8.424,11.15,10.9,25.52,13.131,25.766,3.469,58.222,8.672,58.222,38.4C1477.027,415.916,1452.747,434.993,1417.317,434.993Z" fill="#1e1e1e"/>
        <path id="Path_12471" data-name="Path 12471" d="M1527.587,245.707v71.355c8.424-12.388,23.537-19.326,38.9-19.326,29.236,0,48.313,21.307,48.313,51.285v80.522h-37.164V356.7c0-15.36-8.919-26.014-23.784-26.262-14.371,0-26.263,11.645-26.263,27.748v71.355h-37.163V245.707Z" fill="#1e1e1e"/>
      </g>
    </g>
    <g id="Group_15321" data-name="Group 15321">
      <g id="Group_15320" data-name="Group 15320">
        <path id="Path_12472" data-name="Path 12472" d="M720.682,530.411,733.519,482.6h9.457l-14.991,54.426H713.764l-10.61-44.048-10.531,44.048h-14.3L663.257,482.6h9.532L685.7,530.411,697.235,482.6h12.147Z" fill="#1e1e1e"/>
        <path id="Path_12473" data-name="Path 12473" d="M765.476,496.433c12.146,0,20.755,8.61,20.755,20.679,0,.922-.077,2.076-.153,3l-32.9-.077c1,6.919,5.843,11.531,12.222,11.531,5.228,0,10.071-3.075,11.532-7.379l7.84,1.153c-2.228,7.687-10.3,13.222-19.217,13.222-12.224,0-20.988-8.995-20.988-21.525C744.565,505.043,753.329,496.433,765.476,496.433Zm12.069,17.451a12.053,12.053,0,0,0-12.3-10.455c-6.3,0-10.916,4.227-11.992,10.455Z" fill="#1e1e1e"/>
        <path id="Path_12474" data-name="Path 12474" d="M817.027,537.022V482.6h24.6c10.532,0,17.989,6.15,17.989,14.606a11.522,11.522,0,0,1-8.072,11.224c5.612,1.384,9.609,6.764,9.609,13.068,0,9.071-7.995,15.528-19.218,15.528Zm9.226-46.816V504.89h13.99c5.92,0,10.071-3,10.071-7.3s-4.151-7.38-10.071-7.38ZM840.4,512.115H826.253v17.3H840.4c6.688,0,11.455-3.69,11.455-8.686S847.085,512.115,840.4,512.115Z" fill="#1e1e1e"/>
        <path id="Path_12475" data-name="Path 12475" d="M897.319,537.022v-5a15.239,15.239,0,0,1-12.606,6.535c-9.61,0-15.836-7.073-15.836-16.758V497.971h8.379v23.216c0,5.765,3.383,9.917,9.3,9.917a10.565,10.565,0,0,0,10.685-10.686V497.971h8.3v39.051Z" fill="#1e1e1e"/>
        <path id="Path_12476" data-name="Path 12476" d="M914.724,486.517a5.193,5.193,0,0,1,10.378,0,5.189,5.189,0,0,1-10.378,0Zm9.378,11.454v39.051h-8.3V497.971Z" fill="#1e1e1e"/>
        <path id="Path_12477" data-name="Path 12477" d="M942.1,480.29v56.732h-8.3V480.29Z" fill="#1e1e1e"/>
        <path id="Path_12478" data-name="Path 12478" d="M968.637,496.433a17.455,17.455,0,0,1,14.144,6.841V480.29h8.379v56.732h-8.148v-5.458a17.7,17.7,0,0,1-14.375,7c-11.3,0-19.6-8.84-19.6-21.064S957.259,496.433,968.637,496.433Zm-11.3,21.063c0,7.765,5.535,13.223,12.915,13.223,7.457,0,12.838-5.612,12.838-13.223s-5.381-13.222-12.838-13.222S957.336,509.886,957.336,517.5Z" fill="#1e1e1e"/>
        <path id="Path_12479" data-name="Path 12479" d="M1023.495,482.6h18.527c18.911,0,31.518,10.839,31.518,27.214s-12.607,27.212-31.518,27.212h-18.527Zm18.527,7.687h-9.378v39.052h9.378c13.3,0,22.293-7.533,22.293-19.525S1055.321,490.283,1042.022,490.283Z" fill="#1e1e1e"/>
        <path id="Path_12480" data-name="Path 12480" d="M1081.113,486.517a5.193,5.193,0,0,1,10.378,0,5.189,5.189,0,0,1-10.378,0Zm9.378,11.454v39.051h-8.3V497.971Z" fill="#1e1e1e"/>
        <path id="Path_12481" data-name="Path 12481" d="M1132.094,536.254v-5a17.49,17.49,0,0,1-14.068,6.534c-11.378,0-19.679-8.456-19.679-20.3,0-12.145,8.3-20.909,19.679-20.909a17.444,17.444,0,0,1,14.145,6.687v-5.3h8.3v38.36c0,12.607-8.533,19.91-20.449,19.91-10.223,0-18.679-6.458-20.063-15.452l7.686-.922a12.459,12.459,0,0,0,12.07,9.3C1126.943,549.169,1132.094,544.479,1132.094,536.254Zm.307-18.758c0-7.918-5.381-13.606-12.838-13.606s-12.915,5.688-12.915,13.606c0,7.611,5.458,13.146,12.915,13.146S1132.4,525.107,1132.4,517.5Z" fill="#1e1e1e"/>
        <path id="Path_12482" data-name="Path 12482" d="M1149.269,486.517a5.193,5.193,0,0,1,10.378,0,5.189,5.189,0,0,1-10.378,0Zm9.378,11.454v39.051h-8.3V497.971Z" fill="#1e1e1e"/>
        <path id="Path_12483" data-name="Path 12483" d="M1171.729,504.505h-6v-6.534h6.458l1.077-9.456h6.841v9.456h9.533v6.534h-9.533v20.986c0,3.536,2.153,6,5.689,6a16.569,16.569,0,0,0,4.382-.691v6.687a23.207,23.207,0,0,1-6.919,1.077c-6.995,0-11.532-5.074-11.532-12.531Z" fill="#1e1e1e"/>
        <path id="Path_12484" data-name="Path 12484" d="M1229.713,497.971h8.379v39.051h-8.379V531.18a17.5,17.5,0,0,1-14.529,7.38c-11.455,0-19.6-8.84-19.6-21.064s8.148-21.063,19.6-21.063a17.5,17.5,0,0,1,14.529,7.38Zm-.077,19.525c0-7.918-5.381-13.606-12.838-13.606s-12.915,5.688-12.915,13.606c0,7.842,5.458,13.608,12.915,13.608S1229.636,525.414,1229.636,517.5Z" fill="#1e1e1e"/>
        <path id="Path_12485" data-name="Path 12485" d="M1255.806,480.29v56.732h-8.3V480.29Z" fill="#1e1e1e"/>
        <path id="Path_12486" data-name="Path 12486" d="M1297.037,520.418v16.6h-8.918V482.6h21.064c12.761,0,21.909,7.918,21.909,18.911s-9.148,18.911-21.986,18.911Zm0-30.212V512.73h10.608c8.3,0,14.3-4.689,14.222-11.223,0-6.611-5.919-11.3-14.222-11.3Z" fill="#1e1e1e"/>
        <path id="Path_12487" data-name="Path 12487" d="M1346.809,497.971v5a12.2,12.2,0,0,1,10.608-6.381,15.213,15.213,0,0,1,5,1v7.457a16.351,16.351,0,0,0-6.073-1.23c-5.534,0-9.225,4.92-9.225,11.838v21.371h-8.379V497.971Z" fill="#1e1e1e"/>
        <path id="Path_12488" data-name="Path 12488" d="M1406.328,517.5c0,12.377-8.764,21.064-21.218,21.064-12.53,0-21.216-8.687-21.216-21.064s8.686-21.063,21.216-21.063C1397.564,496.433,1406.328,505.12,1406.328,517.5Zm-8.3,0c0-7.918-5.458-13.606-12.915-13.606-7.533,0-12.838,5.688-12.838,13.606s5.305,13.608,12.838,13.608C1392.567,531.1,1398.025,525.414,1398.025,517.5Z" fill="#1e1e1e"/>
        <path id="Path_12489" data-name="Path 12489" d="M1431.651,496.433a17.457,17.457,0,0,1,14.145,6.841V480.29h8.379v56.732h-8.149v-5.458a17.7,17.7,0,0,1-14.375,7c-11.3,0-19.6-8.84-19.6-21.064S1420.273,496.433,1431.651,496.433Zm-11.3,21.063c0,7.765,5.535,13.223,12.915,13.223,7.457,0,12.837-5.612,12.837-13.223s-5.38-13.222-12.837-13.222S1420.351,509.886,1420.351,517.5Z" fill="#1e1e1e"/>
        <path id="Path_12490" data-name="Path 12490" d="M1490.645,537.022v-5a15.24,15.24,0,0,1-12.606,6.535c-9.609,0-15.836-7.073-15.836-16.758V497.971h8.379v23.216c0,5.765,3.383,9.917,9.3,9.917a10.565,10.565,0,0,0,10.685-10.686V497.971h8.3v39.051Z" fill="#1e1e1e"/>
        <path id="Path_12491" data-name="Path 12491" d="M1546.256,511.27l-7.995,1a11.652,11.652,0,0,0-11.377-8.688c-6.919,0-12.377,5.843-12.377,13.914.077,8.072,5.381,13.915,12.377,13.915a11.763,11.763,0,0,0,11.454-8.61l7.995,1c-1.614,8.533-9.84,14.76-19.449,14.76-11.992,0-20.68-8.84-20.68-21.064s8.688-21.063,20.6-21.063C1536.724,496.433,1544.872,502.66,1546.256,511.27Z" fill="#1e1e1e"/>
        <path id="Path_12492" data-name="Path 12492" d="M1557.51,504.505h-6v-6.534h6.458l1.076-9.456h6.842v9.456h9.532v6.534h-9.532v20.986c0,3.536,2.152,6,5.688,6a16.567,16.567,0,0,0,4.382-.691v6.687a23.205,23.205,0,0,1-6.919,1.077c-6.995,0-11.531-5.074-11.531-12.531Z" fill="#1e1e1e"/>
        <path id="Path_12493" data-name="Path 12493" d="M1599.733,538.637c-10.3,0-17.757-6.227-17.757-14.837h7.687c0,4.613,4.229,7.995,10.07,7.995,5.228,0,8.994-2.383,8.918-5.611,0-4.075-6.073-5.075-9.994-5.613-9.147-1.383-16.066-2.537-16.066-11.838,0-7.149,6.842-12.377,15.682-12.377,10.071,0,17.451,5.612,17.451,13.376h-7.765c-.077-3.843-4.151-6.534-9.763-6.534-4.228,0-7.764,2.306-7.764,5.458,0,2.921,2.921,3.844,9.225,4.92,7.456,1.23,17.066,2.844,17.066,11.685C1616.723,533.025,1609.65,538.637,1599.733,538.637Z" fill="#1e1e1e"/>
      </g>
    </g>
    <g id="Group_15324" data-name="Group 15324">
      <g id="Group_15322" data-name="Group 15322">
        <path id="Path_12494" data-name="Path 12494" d="M314.677,448.592l.922.668-.954-.652Z" fill="url(#linear-gradient)"/>
        <path id="Path_12495" data-name="Path 12495" d="M457.067,411.876v145.8L314.03,450.518l1.568-1.257h.032l45.674-36.828.679-.557Z" fill="url(#linear-gradient)"/>
        <path id="Path_12496" data-name="Path 12496" d="M311.6,448.678l.84.672-.872-.642Z" fill="url(#linear-gradient-3)"/>
        <path id="Path_12497" data-name="Path 12497" d="M314.677,448.592l.922.668-.954-.652Z" fill="url(#linear-gradient-3)"/>
        <path id="Path_12498" data-name="Path 12498" d="M314.03,450.518l1.568-1.257h.032l42.311-34.124,99.125,142.54Z" fill="url(#linear-gradient-3)"/>
      </g>
      <g id="Group_15323" data-name="Group 15323">
        <path id="Path_12499" data-name="Path 12499" d="M353.718,297.992,181.532,131.727,503.109,297.992H353.718Z" fill="url(#linear-gradient-6)"/>
        <path id="Path_12500" data-name="Path 12500" d="M181.535,557.677l0-425.949L353.718,297.992Z" fill="url(#linear-gradient)"/>
        <path id="Path_12501" data-name="Path 12501" d="M181.532,557.677" fill="#fff"/>
        <path id="Path_12502" data-name="Path 12502" d="M181.535,557.677l321.789-259.69h-149.6Z" fill="url(#linear-gradient-3)"/>
      </g>
      <path id="Path_12503" data-name="Path 12503" d="M336.872,449.35l-.839-.642.03-.03Z" fill="url(#linear-gradient-3)"/>
    </g>
  </g>
</svg>
