<svg xmlns="http://www.w3.org/2000/svg" id="prefix__Group_14081" width="98.227" height="238.74" data-name="Group 14081" viewBox="0 0 98.227 238.74">
    <defs>
        <style>
            .prefix__cls-1{fill:#ffb27d}.prefix__cls-3{fill:#233862}.prefix__cls-4{fill:#3b4685}.prefix__cls-5{fill:#283167}.prefix__cls-6{fill:#e9f3fe}.prefix__cls-8{fill:#d9e9f9}
        </style>
    </defs>
    <path id="prefix__Path_8123" d="M1751.58 830.83l-.009 1.559s.424 4.875-5.578 5.586-10.925.62-10.762-3.142a79.357 79.357 0 0 0 1.55-9.843 16.966 16.966 0 0 0-.213-2.919l11.631-.232 3.425.56z" class="prefix__cls-1" data-name="Path 8123" transform="translate(-1697.096 -796.492)"/>
    <path id="prefix__Path_8124" d="M1750.284 822.4l-.044 8.432a9.837 9.837 0 0 1-4.193.925c-5.345 0-8.8-3.92-10.607-6.765a16.941 16.941 0 0 0-.213-2.919l11.631-.232z" data-name="Path 8124" transform="translate(-1695.756 -796.492)" style="fill:#e2915a"/>
    <path id="prefix__Path_8125" d="M1726.388 774.335c1.349 7.263 10.721 7.024 14.771 6.568 1.14-.127 1.857-.272 1.857-.272 1.285-.343 2-2.367 2.335-5.019.661-5.247-.175-12.95-1.06-14.92-1.335-2.964-3.847-6.17-13.285-3.857s-6.349 8.195-4.618 17.5z" class="prefix__cls-1" data-name="Path 8125" transform="translate(-1687.808 -750.627)"/>
    <path id="prefix__Path_8126" d="M1769.35 1507.571h13.28a32.024 32.024 0 0 0-1.059-4.766 13.513 13.513 0 0 0-.752-1.913c-1.292-2.578-9.495-.938-9.495-.938s-.762.653-1.357 3.146a26.433 26.433 0 0 0-.617 4.471z" class="prefix__cls-3" data-name="Path 8126" transform="translate(-1738.438 -1268.831)"/>
    <path id="prefix__Path_8127" d="M1590.975 1490.942c.036 1.807.263 3.517.919 4.191h26.267c-.333-.95-1.279-2.38-3.976-2.818-3.064-.5-7.841-1.971-10.629-4.919a7.915 7.915 0 0 1-2.058-3.727c-1.236-5.5-10.218 1.686-10.218 1.686a44.532 44.532 0 0 0-.305 5.587z" class="prefix__cls-3" data-name="Path 8127" transform="translate(-1519.934 -1256.393)"/>
    <path id="prefix__Path_8128" d="M1650.57 1161.938a41.411 41.411 0 0 1 .659 4.852c.835 16.288 13.71 53.529 16.013 54.4 3.564 1.345 9.175-1.513 12.111-2.449a2.518 2.518 0 0 0 1.767-2.86c-6.376-29.313-8.72-71.522-9.572-96.512a113.408 113.408 0 0 0-2.591-21.282s-31.4-8.379-31.589 2.22c-.168 9.376 10.401 46.159 13.202 61.631z" class="prefix__cls-4" data-name="Path 8128" transform="translate(-1596.999 -986.864)"/>
    <path id="prefix__Path_8129" d="M1682.34 1161.938l20.979-42.572a113.413 113.413 0 0 0-2.591-21.282s-31.4-8.379-31.589 2.22c-.166 9.379 10.401 46.162 13.201 61.634z" class="prefix__cls-5" data-name="Path 8129" transform="translate(-1628.77 -986.864)"/>
    <path id="prefix__Path_8130" d="M1750.549 1103.963l-16.6 120.318s-7.29 1.758-12.96.352c0 0-4.86-63.991-4.455-79.461s-3.489-41.4.888-44.255 33.127 3.046 33.127 3.046z" class="prefix__cls-4" data-name="Path 8130" transform="translate(-1689.991 -990.485)"/>
    <path id="prefix__Path_8131" d="M1745.713 741.315a31.223 31.223 0 0 1-9.054-2.45c-3.976-1.729-8.993.175-10.622 1.033a2.413 2.413 0 0 1 .4-.98 2.185 2.185 0 0 0-.839 1.244c-.076.055-.109.094-.09.107a2.8 2.8 0 0 0-1.361.088s.373-.053.506.187a.215.215 0 0 0 .06.066c-6.2 3-6.776 12.8-4.78 15.07 2.4 2.729 5.281 8.876 5.281 8.876a5.27 5.27 0 0 0 .614-3.854c-.437-2.4 1.637-2.4 4.258-3.493s.437-4.149 2.729-6 10.7-.764 10.589-2.183c3.117-1.143 2.309-7.391 2.309-7.711z" class="prefix__cls-3" data-name="Path 8131" transform="translate(-1686.334 -738.164)"/>
    <path id="prefix__Path_8132" d="M1679.034 871.636l3.823 82.009s31.9.521 30.989-6.7-11.5-72.8-11.5-72.8z" class="prefix__cls-6" data-name="Path 8132" transform="translate(-1642.314 -831.204)"/>
    <path id="prefix__Path_8133" d="M1765.433 911.1c1.9 5.693-1.68 24.8-2.956 31.27-.28 1.369-.467 2.178-.467 2.178 4.418 7.187 20.6 7.094 20.6 7.094 3.111-13.753 4.729-35.657 4.729-35.657l-12.415-54.42-15.624 14.441s1.182 8.805 2.645 17.766c1.155 7.094 2.461 14.313 3.488 17.328z" class="prefix__cls-4" data-name="Path 8133" transform="translate(-1740.103 -824.186)"/>
    <path id="prefix__Path_8134" d="M1729.075 818.376s.3.937 2.668.595c0 0 1.985-.287 1.838-1.331a6.441 6.441 0 0 0-4.506.736z" data-name="Path 8134" transform="translate(-1677.197 -793.474)" style="fill:#fff"/>
    <path id="prefix__Path_8135" d="M1610.251 866.169s0 .014.007.035c.755.731 22.05 21.407 26.176 29.506 4.2 8.215-19.2 24.58-19.2 24.58a5.448 5.448 0 0 1-2.551.363c1.1 9.083 2.342 17.464 1.608 21.041-1.326 6.465-7.307 8.637-7.307 8.14 0-.158-2.187-23.5-3.375-35.672a421.431 421.431 0 0 0-8.927-52.045 44.9 44.9 0 0 1 13.569 4.052zm12.679 33.088a.189.189 0 0 0 .031-.125c0-1.183-4.512-3.8-9.4-6.876l-.093-.094-.01-.006c.087 2.517.077 4.985-.072 7.284a93.167 93.167 0 0 0 .549 14.546c2.329-3.632 8.541-13.391 8.996-14.729z" class="prefix__cls-4" data-name="Path 8135" transform="translate(-1540.443 -824.568)"/>
    <g id="prefix__Group_14054" data-name="Group 14054" transform="translate(35.815 34.485)">
        <path id="prefix__Path_8136" d="M1747.807 856.956c-.039-.782 3.668-1.864 3.668-1.864s4.243 5.883 11.234 5.985c0 0-1.992 3.877-4.34 4.881 0 0-10.331-4.358-10.562-9.002z" class="prefix__cls-8" data-name="Path 8136" transform="translate(-1747.807 -854.157)"/>
        <path id="prefix__Path_8137" d="M1723.148 863.785s3.7-2.2 3.716-4.575c0 0 2.392-.3 3.437.86 0 0 .878 4.079-.287 6.448-.001 0-5.333-.812-6.866-2.733z" class="prefix__cls-8" data-name="Path 8137" transform="translate(-1708.246 -857.003)"/>
        <path id="prefix__Path_8138" d="M1737.632 870.459l5.022-1.2a.76.76 0 0 1 .638.875c-.018.818-1.414 3.208-2.033 3.4s-4.814-1.42-3.627-3.075z" data-name="Path 8138" transform="translate(-1725.245 -864.03)" style="fill:#ba4c43"/>
        <path id="prefix__Path_8139" d="M1747.808 854.4c-.039-.783 2.47-2.4 2.47-2.4s4.856 5.676 11.847 5.777c0 0-1.992 3.877-4.34 4.881-.001.005-9.747-3.61-9.977-8.258z" class="prefix__cls-6" data-name="Path 8139" transform="translate(-1747.223 -852.005)"/>
        <path id="prefix__Path_8140" d="M1723.245 861.031s3.746-1.985 3.758-4.365a11.967 11.967 0 0 1 3.306 2.155 6.872 6.872 0 0 1-.2 4.944s-5.33-.813-6.864-2.734z" class="prefix__cls-6" data-name="Path 8140" transform="translate(-1708.344 -855.254)"/>
        <g id="prefix__Group_14053" data-name="Group 14053" transform="translate(14.374 8.001)">
            <path id="prefix__Path_8141" d="M1724.743 932.764a7.741 7.741 0 0 1-2.465 5l-2.224 2.049a1.3 1.3 0 0 1-1.906-.153l-2.755-3.5a4.645 4.645 0 0 1-.973-3.315c.258-2.648.738-7.75 1.122-12.673.313-3.99.563-7.866.582-10.223.061-7.529-1.433-31.535-1.433-31.535l1.8.094a96.668 96.668 0 0 1 6.829 22 83.874 83.874 0 0 1 1.247 9.884s.946 13.714.176 22.372z" data-name="Path 8141" transform="translate(-1714.398 -878.418)" style="fill:#f15d34"/>
            <path id="prefix__Path_8142" d="M1724.743 983.6a7.741 7.741 0 0 1-2.465 5l-2.224 2.049a1.3 1.3 0 0 1-1.906-.153l-2.755-3.5a4.645 4.645 0 0 1-.973-3.315c.258-2.648.738-7.75 1.122-12.673 4.988-5.6 7.008-13.347 7.784-19.666a83.875 83.875 0 0 1 1.247 9.884s.94 13.719.17 22.374z" data-name="Path 8142" transform="translate(-1714.398 -929.256)" style="fill:#cc5230"/>
        </g>
    </g>
    <path id="prefix__Path_8143" d="M1663.819 1050.518a3.452 3.452 0 0 0-3.9-3.455 2.139 2.139 0 0 0-1.451.8c-1.422 1.893-2.775 7.4-.255 7.659a5.536 5.536 0 0 0 3.358-1.386c1.031-.783 2.252-2.01 2.252-3.3z" class="prefix__cls-1" data-name="Path 8143" transform="translate(-1585.534 -953.464)"/>
    <path id="prefix__Path_8144" d="M1801.612 1016.479c4.574-4.76 12.477-14.126 12.2-21.812-.373-10.766-12.726-26.789-12.726-26.789 1.151 7.094 2.458 14.313 3.485 17.331 1.895 5.691-1.683 24.798-2.959 31.27z" class="prefix__cls-5" data-name="Path 8144" transform="translate(-1779.238 -898.292)"/>
    <path id="prefix__Path_8145" d="M1795.052 1066.5s3.288 1.644 5.284.822 4.345-1.439 6.576 1.1 2.7 4.3 2.231 5.24-5.671.587-6.535 0-2.228-2.032-3.094-1.78c-2.389.694-4.4-1.129-5.528-2.58-.68-.874 1.154-1.302 1.066-2.802z" class="prefix__cls-1" data-name="Path 8145" transform="translate(-1772.533 -967.041)"/>
    <path id="prefix__Path_8146" d="M1835.105 861.568s-13.1 1.45-16.185 7.153-19.149 28.816-18.623 38.422 21.908 20.376 21.908 20.376 4.736-2 4.807-4.154-14.782-15.021-13.882-17.422 17.256-21.394 18.833-27.657 3.142-16.718 3.142-16.718z" class="prefix__cls-4" data-name="Path 8146" transform="translate(-1800.285 -824.186)"/>
    <path id="prefix__Path_8147" d="M1642.691 947.764l.093.094c4.885 3.08 9.4 5.693 9.4 6.876.653-2.085-5.694-10.8-7.748-12.57-2.087-1.805-1.745 5.6-1.745 5.6z" class="prefix__cls-3" data-name="Path 8147" transform="translate(-1569.662 -880.17)"/>
    <path id="prefix__Path_8148" d="M1764.505 852.005s9.942 41.642 8.36 57.328c0 0-3.656-16.763-12.452-30.493 0 0 3.21-2.823 3.036-3.864a10.994 10.994 0 0 0-4.7-.231s.255-17.95 1.7-19.846a10.507 10.507 0 0 1 4.056-2.894z" class="prefix__cls-5" data-name="Path 8148" transform="translate(-1725.635 -817.52)"/>
    <path id="prefix__Path_8149" d="M1700.1 856.666c-.2-.119 9.852 40.691 10.693 53.7 0 0-1-23.206-.9-29.894 0 0-4.129-2.186-4.129-2.953s4.405-2.841 4.405-2.841-2.79-14.291-4.312-15.866-5.757-2.146-5.757-2.146z" class="prefix__cls-5" data-name="Path 8149" transform="translate(-1645.628 -820.768)"/>
</svg>
