<svg xmlns="http://www.w3.org/2000/svg" width="128.391" height="193.94" viewBox="0 0 128.391 193.94">
    <defs>
        <style>
            .prefix__cls-1{fill:#fd5e5a}.prefix__cls-4{fill:#fc7575}.prefix__cls-11{fill:#3a3745}.prefix__cls-13{fill:#501f5e}.prefix__cls-14{fill:#fff}.prefix__cls-15{fill:#42124a}.prefix__cls-18{fill:#432c47}.prefix__cls-19{fill:#653870}.prefix__cls-22{fill:#d24307}.prefix__cls-23{fill:#692204}.prefix__cls-24{fill:#874e36}.prefix__cls-26{fill:#172866}.prefix__cls-27{fill:#2f499f}
        </style>
    </defs>
    <g id="prefix__Group_14596" data-name="Group 14596" transform="translate(-896.135 -5562.746)">
        <g id="prefix__Group_14573" data-name="Group 14573" transform="translate(948.397 5567.64)">
            <g id="prefix__Group_14572" data-name="Group 14572">
                <path id="prefix__Path_9667" d="M2558.8 1059.953s2.165-1.3 3.5-1.226c1.7.1 5.1-.342 5.939-1.143s5.7-3.132 5.7-3.132l3.408 2.632s-16.264 9.674-17.534 9.6 3.606-2.485 3.321-2.786-5.135 3.681-5.623 2.7 5.149-2.966 5.141-3.675-5.714 3.541-6.477 2.742 6.19-3.7 6.19-3.7-.294-.5-2.291.169-3.83 1.414-3.837.8 5.489-1.9 5.479-2.844c-.002.001-2.737.57-2.916-.137z" class="prefix__cls-1" data-name="Path 9667" transform="translate(-2556.115 -998.681)"/>
                <path id="prefix__Path_9668" fill="#131537" d="M2616.523 995.477s-11.805 17.063-14.254 19.512-18.328 10.376-18.328 10.376l2.705 5.681 19.048-9.731 11.595-10.634z" data-name="Path 9668" transform="translate(-2570.008 -969.237)"/>
                <path id="prefix__Path_9669" fill="#1d1c22" d="M2677.524 1296.616l-.1 6.277.7.02.9-7.155z" data-name="Path 9669" transform="translate(-2616.681 -1119.161)"/>
                <g id="prefix__Group_14569" data-name="Group 14569" transform="translate(24.252 111.984)">
                    <path id="prefix__Path_9670" d="M2666.2 1187.189s.748 9.815 1.949 12.746-.947 41.7-1.967 44.822a9.557 9.557 0 0 1-.849 1.856c-1.115 1.905-1.366 2.293.125 2.3 1.919.006 3.6-.359 3.972-1.144.643-1.357 1.212-6.03 2.524-6.025a5.47 5.47 0 0 0 .673-2.659c-.337-1.379-1.275-.67-1.269-2.589s6.363-31.075 5.367-35.319-1.7-4.752-1.683-9.8-8.842-4.188-8.842-4.188z" class="prefix__cls-4" data-name="Path 9670" transform="translate(-2634.442 -1176.911)"/>
                    <path id="prefix__Path_9671" d="M2631.972 1166.718s-7.158 13.642-6.7 17.682 1.969 7.3.671 12.818-11.563 25.516-11.809 29.173c-.1 1.541.367 1.685.367 1.685-.02 2.656-.849 5.5-1.4 6.051-.709.7-1.508 4.205-2.181 4.2s-6.361.606-6.361.606c-.147-1.3 1.594-.256 2.612-2.945s1.638-6.725 2.935-12.173 6.617-30.308 6.636-36.028-.507-5.75.381-9.516 4.209-10.822 4.209-10.822z" class="prefix__cls-1" data-name="Path 9671" transform="translate(-2604.549 -1166.718)"/>
                    <path id="prefix__Path_9672" fill="#e85553" d="M2637.292 1184.4c-.458-4.04 6.7-17.682 6.7-17.682l-10.642.735s-3.322 7.056-4.209 10.822a16.671 16.671 0 0 0-.445 5.977c2.034.437 5.2 1.077 8.813 1.66-.084-.495-.158-.997-.217-1.512z" data-name="Path 9672" transform="translate(-2616.569 -1166.718)"/>
                    <path id="prefix__Path_9673" d="M2676.824 1191.377c.017-5.048-8.844-4.188-8.844-4.188s.477 6.259 1.281 10.273a40.2 40.2 0 0 0 8.17-.3 20.154 20.154 0 0 1-.607-5.785z" class="prefix__cls-1" data-name="Path 9673" transform="translate(-2636.219 -1176.911)"/>
                </g>
                <path id="prefix__Path_9674" fill="#5c1145" d="M2635.9 1072.068s-1.248 19.216-2.189 23.793-6.327 37.019-6.327 37.019 23.989 2.02 29.778 0c0 0 .646-41.63-.717-46.981s-7.321-15.088-7.321-15.088z" data-name="Path 9674" transform="translate(-2591.698 -1006.849)"/>
                <path id="prefix__Path_9675" fill="#e469a6" d="M2644.133 994.342s3.316-2.551 14.544-.016c.306.069.585 12.254.585 12.254s-5.21 20.394-4.218 25.484c0 0-5.956 5.026-14.841.651 0 0 1.155-16.016.347-19.583s-2.421-6.8-.132-10.5a42 42 0 0 0 3.715-8.29z" data-name="Path 9675" transform="translate(-2597.618 -968.101)"/>
                <path id="prefix__Path_9676" fill="#25275a" d="M2644.133 994.342s3.316-2.551 14.544-.016c.306.069.585 12.254.585 12.254s-5.21 20.394-4.218 25.484c0 0-5.956 5.026-14.841.651 0 0 1.155-16.016.347-19.583s-2.421-6.8-.132-10.5a42 42 0 0 0 3.715-8.29z" data-name="Path 9676" transform="translate(-2597.618 -968.101)"/>
                <path id="prefix__Path_9677" d="M2679.012 1078.523c.182-.181 1.774-2.527 2.114-2.187s-1.409 2.5-1.409 2.5 2.029-2.053 2.43-1.652-2.712 3.173-3.04 3.173-.095-1.834-.095-1.834z" class="prefix__cls-1" data-name="Path 9677" transform="translate(-2617.435 -1009.591)"/>
                <path id="prefix__Path_9678" d="M2673.144 1072.605s-.858 1.31-.226 1.941.293 1.288.723 1.716 2.348.5 2.348.5a13.182 13.182 0 0 1 1.083-3.973 14.831 14.831 0 0 1 1.534-2.18 25.994 25.994 0 0 0-2.65-1.516c-1.587 2.058-2.783 3.461-2.812 3.512z" class="prefix__cls-4" data-name="Path 9678" transform="translate(-2614.316 -1005.99)"/>
                <path id="prefix__Path_9679" fill="#5e5da8" d="M2677.556 995.48s-1.114 8.851 0 11.289c1.085 2.373 7.421 5.111 8.508 9.919.813 3.593-4.476 11.172-7.923 15.648a27.693 27.693 0 0 0 3.108 2.848c3.508-4.464 11.154-14.976 11.375-17.441.271-3.028-10.358-22.579-15.068-22.263z" data-name="Path 9679" transform="translate(-2616.5 -969.236)"/>
                <path id="prefix__Path_9680" fill="#828ac3" d="M2677.4 995.484c-.167 2.064-.3 4.041-.339 6.146-.034 3.718.189 4.89 1.01 5.823 1.9 2.208 7 4.905 7.837 9.239-1.186-4.3-6.118-6.688-8.109-9.008a4.644 4.644 0 0 1-.99-2.965 46.159 46.159 0 0 1 .591-9.235z" data-name="Path 9680" transform="translate(-2616.348 -969.24)"/>
                <path id="prefix__Path_9681" d="M2670.849 1287.675c-.59 3.509-2.561 9.558-3.916 10.125-2.245.471-2.257.237-2.244-.989-1.114 1.9-2.375 2.879-.882 2.884 1.918.006 4.911.133 5.283-.653.643-1.356 1.009-6.494 2.322-6.49l-.429 6.325.7.02s1.062-8.707.838-9.577a2.513 2.513 0 0 0-1.672-1.645z" class="prefix__cls-11" data-name="Path 9681" transform="translate(-2609.542 -1115.125)"/>
                <path id="prefix__Path_9682" d="M2605.019 1298.411c-1.563.967-3.5.988-3.381 2.028 0 0 7.364-.292 8.037-.289s1.259-4.136 1.969-4.84.253 4.847.253 4.847h.726a59.481 59.481 0 0 1 1.185-7.938 2.41 2.41 0 0 0-.762-2.962c-2.225 4.22-2.462 10.162-8.027 9.154z" class="prefix__cls-11" data-name="Path 9682" transform="translate(-2578.841 -1115.916)"/>
                <g id="prefix__Group_14571" data-name="Group 14571" transform="translate(41.032)">
                    <path id="prefix__Path_9683" fill="#3c1247" d="M2662.52 963.038s4.517.823 4.517 4.028-.694 1.756-1.419 4.045-.051 4.245-3.1 4.245-2.518.2-4.037 1.123-4.517-.627-4.842-3.931 5.248-3.073 5.248-5.482 3.633-4.028 3.633-4.028z" data-name="Path 9683" transform="translate(-2645.833 -953.041)"/>
                    <path id="prefix__Path_9684" d="M2653.655 974.871a8.554 8.554 0 0 1 1.352 4.851 15.926 15.926 0 0 1-.789 4.187c-.893 2.179 1.591 3.084 3.181 2.474 1.307-.5 3.292-1.433 3.9-2.894.4-.976-3.251-12.022-3.251-12.022z" class="prefix__cls-4" data-name="Path 9684" transform="translate(-2645.847 -957.249)"/>
                    <path id="prefix__Path_9685" d="M2653.655 974.871l4.389-3.4s.43 1.3.979 3.045a8.788 8.788 0 0 1-4.1 3.649 9.139 9.139 0 0 0-1.268-3.294z" class="prefix__cls-1" data-name="Path 9685" transform="translate(-2645.847 -957.249)"/>
                    <path id="prefix__Path_9686" d="M2645.526 948.479a5.038 5.038 0 0 0-1.858 2.862c-.44 1.9.675 4.156.559 5.777s2.305 9.572 6.147 8.033 4.736-7.558 4.831-8.876-2.153-5.892-4.282-7.126-5.397-.67-5.397-.67z" class="prefix__cls-4" data-name="Path 9686" transform="translate(-2640.809 -945.708)"/>
                    <g id="prefix__Group_14570" data-name="Group 14570" transform="translate(2.641 8.478)">
                        <path id="prefix__Path_9687" d="M2649.768 964.67a26.52 26.52 0 0 1-.369 3.258 1.914 1.914 0 0 0 1.144.192 1.787 1.787 0 0 1-1.33-.091 27.941 27.941 0 0 1 .555-3.359z" class="prefix__cls-13" data-name="Path 9687" transform="translate(-2646.269 -962.334)"/>
                        <path id="prefix__Path_9688" d="M2653.86 960.7a3.77 3.77 0 0 1 1.642-.69c.886-.1 2.112.927 2.112.927a4.815 4.815 0 0 0-1.934-.682 3.368 3.368 0 0 0-1.168.486z" class="prefix__cls-13" data-name="Path 9688" transform="translate(-2648.59 -960.004)"/>
                        <path id="prefix__Path_9689" d="M2646.472 960.746a3.161 3.161 0 0 0-1.412-.694c-.75-.106-1.726.918-1.726.918s1.089-.768 1.589-.673a2.8 2.8 0 0 1 1.005.487z" class="prefix__cls-13" data-name="Path 9689" transform="translate(-2643.334 -960.024)"/>
                        <path id="prefix__Path_9690" d="M2652.344 974.574c-1.907.717-2.619.667-3.277.521a2.565 2.565 0 0 0 3.277-.521z" class="prefix__cls-14" data-name="Path 9690" transform="translate(-2646.196 -967.279)"/>
                        <path id="prefix__Path_9691" d="M2654.983 963.339a.509.509 0 1 0 .351-.683.544.544 0 0 0-.351.683z" class="prefix__cls-13" data-name="Path 9691" transform="translate(-2649.141 -961.322)"/>
                        <path id="prefix__Path_9692" d="M2656.339 963.352c-2.019-1.784-2.637-.31-3.247-.161.506-.009 1.034-.6 1.6-.5a8.15 8.15 0 0 1 1.647.661z" class="prefix__cls-15" data-name="Path 9692" transform="translate(-2648.206 -961.239)"/>
                        <path id="prefix__Path_9693" d="M2646.521 963.8c.072.31.3.517.513.46s.324-.354.252-.664-.3-.518-.513-.461-.324.357-.252.665z" class="prefix__cls-13" data-name="Path 9693" transform="translate(-2644.914 -961.565)"/>
                        <path id="prefix__Path_9694" d="M2647.034 963.85c-1.63-1.706-2.192-.221-2.707-.052.423-.026.883-.634 1.351-.553a5.745 5.745 0 0 1 1.356.605z" class="prefix__cls-15" data-name="Path 9694" transform="translate(-2643.83 -961.519)"/>
                        <path id="prefix__Path_9695" d="M2655.239 968.766a1.348 1.348 0 1 0 1.025-1.277 1.177 1.177 0 0 0-1.025 1.277z" class="prefix__cls-1" data-name="Path 9695" transform="translate(-2649.267 -963.716)"/>
                    </g>
                    <path id="prefix__Path_9696" d="M2647.022 945.8a4.046 4.046 0 0 1 3.818-2.612c.09-.007.18-.013.27-.017a19.117 19.117 0 0 1 5 .121 6.33 6.33 0 0 1 2.7 1.294 4.733 4.733 0 0 1 1.948 2.89c.225 2.157-.768 4.514-.05 6.595l.016.045a4.529 4.529 0 0 1-2.475 5.693c-1.267.539-2.3.716-2.993-.425.1-1.172 2.994-4.926.335-7.736-.186.134-.079 1.128-.513 1.14-1.053.03-1.738-2.256-1.859-3.209a4.333 4.333 0 0 0-1.847-2.58 6.27 6.27 0 0 0-3.183-1.154 6.729 6.729 0 0 0-.75.059c-.264.05-.424.113-.481.107a.706.706 0 0 1 .064-.211z" class="prefix__cls-13" data-name="Path 9696" transform="translate(-2642.502 -943.072)"/>
                    <path id="prefix__Path_9697" d="M2643.706 945.839a5.6 5.6 0 0 0-3.737 1.282c-1.651 1.436-1.409 6.6-.4 7.589s-3.1 2.732-.8 2.738c3.247.01 6.967-11.236 4.937-11.609z" class="prefix__cls-13" data-name="Path 9697" transform="translate(-2638.061 -944.451)"/>
                    <path id="prefix__Path_9698" fill="#6d2a81" d="M2644.142 947.382c-3.069.145-4.788 2.8-3.765 5.316a1.514 1.514 0 0 0 .877.973l.125-.636c-.169-.006-.414-.415-.489-.568-1.09-2.177.35-4.724 3.252-5.085z" data-name="Path 9698" transform="translate(-2639.069 -945.224)"/>
                    <path id="prefix__Path_9699" d="M2663.147 960.332s.18-1.634 1.48-1.178.756 4.428-.391 4.039-1.089-2.861-1.089-2.861z" class="prefix__cls-4" data-name="Path 9699" transform="translate(-2650.586 -951.061)"/>
                    <path id="prefix__Path_9700" d="M2663.723 961.786s.159-1.774.806-1.3.713 2.208.037 2.315-.843-1.015-.843-1.015z" class="prefix__cls-1" data-name="Path 9700" transform="translate(-2650.873 -951.725)"/>
                </g>
            </g>
        </g>
        <g id="prefix__Group_14576" data-name="Group 14576" transform="translate(896.135 5562.746)">
            <path id="prefix__Path_9701" d="M2538.133 1129.808s3.129 9.486 3.687 10.461.571 5.427-.32 6.033-.242-1.807-.479-3.08a10.118 10.118 0 0 0-1.4-2.971 8.283 8.283 0 0 1 1.28 2.915c.24 1.227-.07 2.783-.488 3.024-.963.557-.174-.934-.5-2.711a4.713 4.713 0 0 0-1.3-2.612s.8 3.314-.049 3.786-3.813-12.9-3.813-12.9z" class="prefix__cls-1" data-name="Path 9701" transform="translate(-2493.182 -1031.411)"/>
            <path id="prefix__Path_9702" fill="#341102" d="M2517.479 1000.01a38.336 38.336 0 0 1 5.809 16.444c.3 3.727.035 22.2 1.839 29.889 2.335 9.955 5.587 19.474 5.587 19.474l-7.562 4.575-5.945-23.72-1.616-16.9z" data-name="Path 9702" transform="translate(-2483.62 -966.606)"/>
            <g id="prefix__Group_14574" data-name="Group 14574" transform="translate(0 27.686)">
                <path id="prefix__Path_9703" d="M2496.951 1140.4l-10.393 76.548 4.932-.867 8.471-41.494s5.583-38.51 5.583-52.414z" class="prefix__cls-18" data-name="Path 9703" transform="translate(-2469.124 -1055.284)"/>
                <path id="prefix__Path_9704" d="M2453.331 1313.643h9.6l-6.013-3.9.655-3.1c-1.373 0-1.7.977-3.091.977-.394 2.28-1.151 6.023-1.151 6.023z" class="prefix__cls-18" data-name="Path 9704" transform="translate(-2452.534 -1147.388)"/>
                <path id="prefix__Path_9705" d="M2487.763 1312.563h9.4l-6.012-3.9.654-3.1c-1.372 0-1.7.977-3.09.977-.393 2.28-.952 6.023-.952 6.023z" class="prefix__cls-18" data-name="Path 9705" transform="translate(-2469.725 -1146.849)"/>
                <path id="prefix__Path_9706" d="M2487.815 1099.651c-10.223.235-14.5 6.41-24 9.237l.374 2.907-.656 49s-9.819 34.533-11.792 46c0 0 5.611-.36 5.289-.36l16.511-40.968 7.456-37.427 6.106-14.55z" class="prefix__cls-19" data-name="Path 9706" transform="translate(-2451.74 -1044.04)"/>
                <path id="prefix__Path_9707" fill="#70497a" d="M2486.27 1156.349l-8.931 36.894-15.037 41.5 16.512-40.969z" data-name="Path 9707" transform="translate(-2457.014 -1072.348)"/>
                <path id="prefix__Path_9708" fill="#375866" d="M2492.6 988.589l-.366 5.731 13.582-1.544-3.173-3.888z" data-name="Path 9708" transform="translate(-2471.959 -988.589)"/>
                <path id="prefix__Path_9709" d="M2499.24 1034.852c0-19.443-3.013-38.784-7.261-41.244 0 0-4.939-.34-7.478-.425-3.791-.127-6.74 1.787-9.887 12.512-1.984 6.761-3.93 23.08-3.717 37.3.094 6.306-.865 12.2-.73 16.663 10.706 0 18.536-.356 28.925-.356.161-3.392.148-18.338.148-24.45z" class="prefix__cls-22" data-name="Path 9709" transform="translate(-2460.934 -990.879)"/>
                <path id="prefix__Path_9710" d="M2482.552 1017.2c.03.233-6.315-22.875-6.315-22.875a26.62 26.62 0 0 0-4.956 2.094c-2.827 1.511-4.09 12.964-4.09 12.964s-1.687 23.66-1.687 25.537c0 1.01-2.033 16.124-3.913 29.879l23.161 1.775c-.352-19.186-2.2-49.374-2.2-49.374z" class="prefix__cls-23" data-name="Path 9710" transform="translate(-2456.658 -991.453)"/>
                <path id="prefix__Path_9711" d="M2513.741 994.037s5.748 2.572 7.505 19.847 4.181 52.546 4.181 52.546h-8s-.868-50.387-.868-53.842-2.818-18.551-2.818-18.551z" class="prefix__cls-23" data-name="Path 9711" transform="translate(-2482.696 -991.309)"/>
                <path id="prefix__Path_9712" d="M2513.024 989.187l3.162 24.838 1.121-12.419-1.109-1.347v-7.183z" class="prefix__cls-24" data-name="Path 9712" transform="translate(-2482.338 -988.887)"/>
                <path id="prefix__Path_9713" d="M2485.337 1042.908c-.006 0-.011-.012-.017-.017.145-.011.136-.004.017.017z" class="prefix__cls-4" data-name="Path 9713" transform="translate(-2468.506 -1015.698)"/>
                <path id="prefix__Path_9714" d="M2557.64 1059.827s-2.382.844-3.17 1.923c-1.005 1.378-5.07 3.874-6.222 4.014s-4.436 1.06-4.436 1.06l-.169 5.5s15.954-4.842 18.553-7.442c.9-.9-4.211 1.207-4.261.8s6.1-1.626 5.659-2.625-5.561 2.091-6.1 1.635 6.365-2.163 6.232-3.26-6.787 2.432-6.787 2.432-.2-.541 1.585-1.662 3.525-2.06 3.052-2.458-4.958 3.029-5.677 2.424c.001-.003 2.173-1.754 1.741-2.341z" class="prefix__cls-4" data-name="Path 9714" transform="translate(-2497.625 -1024.098)"/>
                <path id="prefix__Path_9715" d="M2492.808 1014.336l-5.25-25.748-5.425 4.218 4.748 8.816-.353 2.761z" class="prefix__cls-24" data-name="Path 9715" transform="translate(-2466.915 -988.589)"/>
            </g>
            <g id="prefix__Group_14575" data-name="Group 14575" transform="translate(14.229)">
                <path id="prefix__Path_9716" fill="#381a3f" d="M2494.912 961.425c-.235-.149-3.151-7.4-3.151-7.4s-1.946-5.448-.689-6.37 4.244-4.119 6.861-4.177a9.933 9.933 0 0 1 4.608.875c.235.149 1.932 3.013 1.932 3.013s-.789-.965-1.2 2.615-8.361 11.444-8.361 11.444z" data-name="Path 9716" transform="translate(-2485.395 -938.376)"/>
                <path id="prefix__Path_9717" d="M2504.031 973.094c-.311.926-.177 7.543-.422 9.208-.243 1.645-7.751 4.193-7.9-1.789s.444-13.017.444-13.017z" class="prefix__cls-4" data-name="Path 9717" transform="translate(-2487.91 -950.373)"/>
                <path id="prefix__Path_9718" d="M2504.219 973.094l-2.614-1.858-5.263-3.739v.019c0 .026-.005.072-.01.139-.018.218-.051.652-.092 1.253-.007.121-.017.25-.026.385v.026c-.029.435-.061.934-.092 1.484v.093l-.023.4c0 .07-.007.142-.011.213v.136c0 .048 0 .094-.007.142.978 3.206 4.673 6.689 7.87 7.1.007-.221.019-.444.035-.668a37.871 37.871 0 0 1 .233-5.125z" class="prefix__cls-1" data-name="Path 9718" transform="translate(-2488.099 -950.373)"/>
                <path id="prefix__Path_9719" d="M2495.407 953.425a11.539 11.539 0 0 0 1.28 10.076c2.292 3.308 5.456 5.014 7.723 3.345s2.915-12.139 1.277-14.833-8.814-2.233-10.28 1.412z" class="prefix__cls-4" data-name="Path 9719" transform="translate(-2487.458 -941.781)"/>
                <path id="prefix__Path_9720" d="M2488.107 954.99s-.509-3.424-1.823-4.259-1.907-1.343-2.145-2.552-4.621-2.018-3.9-4.006 4.147-2.92 5.892-6.376 3.628-5.371 7.7-4.111 4.635 3.74 4.635 3.74a2.869 2.869 0 0 1 2.891 1.836 3.669 3.669 0 0 1-.4 4.375s.151-2.835-.821-2.638.008 3.316.008 3.316a25.713 25.713 0 0 1-3.018-3.044c-1.556-1.848-1.173.315-.713 2.657s-2.992.136-4.527-1.558-3.729-.111-4.531 2.291 2.65 6.175.752 10.329z" class="prefix__cls-19" data-name="Path 9720" transform="translate(-2480.156 -933.297)"/>
                <path id="prefix__Path_9721" d="M2495.052 962.4s-1.434-2.449-2.18-1.385-.131 4.245 1.45 4.276.73-2.891.73-2.891z" class="prefix__cls-4" data-name="Path 9721" transform="translate(-2486.348 -947.004)"/>
                <path id="prefix__Path_9722" d="M2494.891 963.366s.054-1.419-.716-.948.005 2.749.716 2.7 0-1.752 0-1.752z" class="prefix__cls-1" data-name="Path 9722" transform="translate(-2486.996 -947.789)"/>
                <path id="prefix__Path_9723" d="M2511.465 963.1a8.847 8.847 0 0 1 .576 2.021 5.3 5.3 0 0 1-.022 2.239c-.175-.033-.639-.1-1.254-.262.4-.011.789 0 1.179.021l-.132.1a27.176 27.176 0 0 0-.347-4.119z" class="prefix__cls-26" data-name="Path 9723" transform="translate(-2495.438 -948.176)"/>
                <path id="prefix__Path_9724" d="M2507.143 963.159a.71.71 0 0 1-.414.884c-.312.063-.633-.23-.717-.656a.71.71 0 0 1 .414-.884c.313-.062.634.231.717.656z" class="prefix__cls-27" data-name="Path 9724" transform="translate(-2493.056 -947.875)"/>
                <path id="prefix__Path_9725" d="M2515.722 961.94a.709.709 0 0 1-.414.884c-.312.064-.633-.23-.716-.655a.71.71 0 0 1 .414-.884c.312-.063.632.231.716.655z" class="prefix__cls-27" data-name="Path 9725" transform="translate(-2497.339 -947.267)"/>
                <path id="prefix__Path_9726" d="M2503.413 960.259a3.052 3.052 0 0 1 1.759-1.381c1.1-.222.767.7.51.754s-2.312.409-2.269.627z" class="prefix__cls-26" data-name="Path 9726" transform="translate(-2491.767 -946.052)"/>
                <path id="prefix__Path_9727" d="M2513.71 957.845s1.3.385 1.549.984c0 0-1.378-.115-1.627-.438a.366.366 0 0 1 .078-.546z" class="prefix__cls-26" data-name="Path 9727" transform="translate(-2496.824 -945.553)"/>
                <path id="prefix__Path_9728" d="M2505.238 974.735s3.361 1.263 5.184.049c0 0-.511 1.692-.975 2-.979.639-3.382.152-4.209-2.049z" class="prefix__cls-14" data-name="Path 9728" transform="translate(-2492.679 -953.986)"/>
            </g>
        </g>
        <path id="prefix__Path_9845" d="M2538.535 1072.531l5.611-.729 1.236 5.524-6.034 1.335z" class="prefix__cls-22" data-name="Path 9845" transform="translate(-1598.94 4560.296)"/>
        <path id="prefix__Path_9846" fill="#75260b" d="M2475.369 998.5c-2.353.705-6.527 10.641-5.4 16.285s9.481 26.219 11.982 28.72 25.892-1.7 25.892-1.7l-.868-7.1s-15.181 0-15.541-.862c-1.697-4.077-13.712-36.051-16.065-35.343z" data-name="Path 9846" transform="translate(-1564.611 4596.901)"/>
    </g>
</svg>
