<svg xmlns="http://www.w3.org/2000/svg" width="34.609" height="39.518" viewBox="0 0 34.609 39.518">
    <defs>
        <style>
            .prefix__cls-1{fill:#0c9aa3}.prefix__cls-2{fill:#023d4d}.prefix__cls-4{fill:#002c49}
        </style>
    </defs>
    <g id="prefix__Group_12234" data-name="Group 12234" transform="translate(-21253.59 -1194.018)">
        <path id="prefix__Path_5076" d="M1055.244 596.614v3.686a1.871 1.871 0 0 0 1.993 1.7h22.163a1.871 1.871 0 0 0 1.993-1.7v-3.687zm13.455 3.917a1.157 1.157 0 1 1 1.157-1.157 1.157 1.157 0 0 1-1.156 1.157z" class="prefix__cls-1" data-name="Path 5076" transform="translate(20198.691 630.712)"/>
        <g id="prefix__Group_12138" data-name="Group 12138" transform="translate(21253.59 1194.018)">
            <g id="prefix__Group_12135" data-name="Group 12135">
                <g id="prefix__Group_12132" data-name="Group 12132" transform="translate(.554 .779)">
                    <path id="prefix__Path_5084" d="M1079.093 451.048H1057.3a1.872 1.872 0 0 0-1.993 1.7v.96h25.78v-.96a1.872 1.872 0 0 0-1.994-1.7z" class="prefix__cls-1" data-name="Path 5084" transform="translate(-1055.306 -451.048)"/>
                </g>
                <g id="prefix__Group_12134" data-name="Group 12134">
                    <g id="prefix__Group_12133" data-name="Group 12133">
                        <path id="prefix__Path_5085" d="M1077.293 487.081h-21.913a2.424 2.424 0 0 1-2.552-2.264v-34.99a2.424 2.424 0 0 1 2.552-2.264h11.244l10.224.019a2.847 2.847 0 0 1 3 2.65v5.7h-1.118v-5.7a1.738 1.738 0 0 0-1.881-1.532l-10.223-.019h-11.246a1.333 1.333 0 0 0-1.434 1.146v34.99a1.333 1.333 0 0 0 1.434 1.146h21.913a1.333 1.333 0 0 0 1.434-1.146v-5.576h1.118v5.576a2.424 2.424 0 0 1-2.552 2.264z" class="prefix__cls-2" data-name="Path 5085" transform="translate(-1052.827 -447.563)"/>
                    </g>
                </g>
            </g>
            <g id="prefix__Group_12136" data-name="Group 12136" transform="translate(.554 2.885)">
                <path id="prefix__Rectangle_914" d="M0 0H26.134V1.118H0z" class="prefix__cls-2" data-name="Rectangle 914"/>
            </g>
            <g id="prefix__Group_12137" data-name="Group 12137" transform="translate(.54 32.731)">
                <path id="prefix__Rectangle_915" d="M0 0H25.794V1.118H0z" class="prefix__cls-2" data-name="Rectangle 915"/>
            </g>
        </g>
        <g id="prefix__Group_12148" data-name="Group 12148" transform="translate(21275.012 1202.129)">
            <g id="prefix__Group_12145" data-name="Group 12145">
                <g id="prefix__Group_12141" data-name="Group 12141" transform="translate(.551 .689)">
                    <g id="prefix__Group_12139" data-name="Group 12139" transform="translate(0 20.126)">
                        <path id="prefix__Path_5086" d="M1151.944 577.021v1.279a.973.973 0 0 0 .929 1.007h10.327a.973.973 0 0 0 .929-1.007v-1.279z" class="prefix__cls-1" data-name="Path 5086" transform="translate(-1151.944 -577.021)"/>
                    </g>
                    <g id="prefix__Group_12140" data-name="Group 12140" transform="translate(.006)">
                        <path id="prefix__Path_5087" d="M1163.057 487.027H1152.9a.973.973 0 0 0-.929 1.007v.567h12.013v-.567a.973.973 0 0 0-.927-1.007z" class="prefix__cls-1" data-name="Path 5087" transform="translate(-1151.973 -487.027)"/>
                    </g>
                </g>
                <g id="prefix__Group_12144" data-name="Group 12144">
                    <g id="prefix__Group_12142" data-name="Group 12142">
                        <path id="prefix__Path_5088" d="M1161.181 507.743h-10.211a1.53 1.53 0 0 1-1.488-1.566v-20.666a1.53 1.53 0 0 1 1.488-1.566h5.24l4.765.011a1.751 1.751 0 0 1 1.695 1.794v20.427a1.53 1.53 0 0 1-1.489 1.566zm-10.212-22.68a.42.42 0 0 0-.37.448v20.666a.42.42 0 0 0 .37.448h10.212a.42.42 0 0 0 .37-.448V485.75a.635.635 0 0 0-.579-.676l-4.764-.011z" class="prefix__cls-2" data-name="Path 5088" transform="translate(-1149.482 -483.945)"/>
                    </g>
                    <g id="prefix__Group_12143" data-name="Group 12143" transform="translate(6.191 21.226)">
                        <path id="prefix__Rectangle_916" d="M0 0H1.073V1.118H0z" class="prefix__cls-2" data-name="Rectangle 916"/>
                    </g>
                </g>
            </g>
            <g id="prefix__Group_12146" data-name="Group 12146" transform="translate(.557 2.151)">
                <path id="prefix__Rectangle_917" d="M0 0H12.178V1.118H0z" class="prefix__cls-2" data-name="Rectangle 917"/>
            </g>
            <g id="prefix__Group_12147" data-name="Group 12147" transform="translate(.55 19.809)">
                <path id="prefix__Rectangle_918" d="M0 0H12.02V1.118H0z" class="prefix__cls-2" data-name="Rectangle 918"/>
            </g>
        </g>
        <g id="prefix__Group_12149" data-name="Group 12149" transform="translate(21265.676 1228.37)">
            <path id="prefix__Path_5089" fill="#fff" d="M1110.232 604.938a1.157 1.157 0 1 0 1.157-1.157 1.157 1.157 0 0 0-1.157 1.157z" data-name="Path 5089" transform="translate(-1109.673 -603.222)"/>
            <path id="prefix__Path_5090" d="M1109.448 604.714a1.716 1.716 0 1 1 1.716-1.716 1.719 1.719 0 0 1-1.716 1.716zm0-2.314a.6.6 0 1 0 .6.6.6.6 0 0 0-.6-.6z" class="prefix__cls-2" data-name="Path 5090" transform="translate(-1107.732 -601.281)"/>
        </g>
        <g id="prefix__Group_12153" data-name="Group 12153" transform="translate(21278.408 1209.323)">
            <path id="prefix__Rectangle_919" d="M0 0H6.411V1.118H0z" class="prefix__cls-2" data-name="Rectangle 919"/>
        </g>
        <g id="prefix__Group_12154" data-name="Group 12154" transform="translate(21278.369 1212.827)">
            <path id="prefix__Rectangle_920" d="M0 0H6.411V1.118H0z" class="prefix__cls-2" data-name="Rectangle 920"/>
        </g>
        <g id="prefix__Group_12155" data-name="Group 12155" transform="translate(21278.332 1216.331)">
            <path id="prefix__Rectangle_921" d="M0 0H6.411V1.118H0z" class="prefix__cls-2" data-name="Rectangle 921"/>
        </g>
        <g id="prefix__Group_12156" data-name="Group 12156" transform="translate(21261.064 1210.689)">
            <path id="prefix__Path_5091" d="M39.471 65.942a.616.616 0 0 1-.437-.181l-1.853-1.853a.617.617 0 0 1 0-.873l1.853-1.853a.618.618 0 0 1 .873.874l-1.417 1.416 1.417 1.417a.618.618 0 0 1-.437 1.055z" class="prefix__cls-4" data-name="Path 5091" transform="translate(-37 -60.382)"/>
            <path id="prefix__Path_5092" d="M50.618 65.942a.618.618 0 0 1-.437-1.055l1.419-1.416-1.417-1.416a.618.618 0 0 1 .874-.874l1.853 1.853a.617.617 0 0 1 0 .873l-1.853 1.853a.616.616 0 0 1-.439.182z" class="prefix__cls-4" data-name="Path 5092" transform="translate(-41.97 -60.382)"/>
            <path id="prefix__Path_5093" d="M43.617 66.178a.618.618 0 0 1-.552-.894l2.471-4.942a.618.618 0 0 1 1.106.552l-2.472 4.942a.618.618 0 0 1-.553.342z" class="prefix__cls-4" data-name="Path 5093" transform="translate(-39.293 -60)"/>
        </g>
    </g>
</svg>
