<svg xmlns="http://www.w3.org/2000/svg" width="82.018" height="47.302" viewBox="0 0 82.018 47.302">
    <defs>
        <style>
            .prefix__cls-1{fill:#a5adc0}
        </style>
    </defs>
    <g id="prefix__net-seeklogo_com" transform="translate(-.81 -117.342)">
        <g id="prefix__Group_14479" data-name="Group 14479" transform="translate(10.767 117.342)">
            <path id="prefix__Path_9225" d="M182.985 8.741a.429.429 0 0 0-.135-.353.844.844 0 0 0-.519-.125h-.349v.96h.422c.389 0 .582-.162.582-.483zm.545 2h-.48l-.306-.676c-.156-.339-.322-.508-.5-.508h-.259v1.184h-.4V7.927h.793a1.176 1.176 0 0 1 .8.236.676.676 0 0 1 .231.531.692.692 0 0 1-.189.492.949.949 0 0 1-.526.277v.012c.157.037.314.209.466.52l.371.75zm.877-1.381a1.88 1.88 0 0 0-.566-1.393 1.968 1.968 0 0 0-2.767 2.8 1.955 1.955 0 0 0 3.333-1.405zm.266-.012a2.1 2.1 0 0 1-.643 1.564 2.316 2.316 0 0 1-3.164.018 2.106 2.106 0 0 1-.626-1.565 2.125 2.125 0 0 1 .637-1.562 2.3 2.3 0 0 1 3.149-.029 2.088 2.088 0 0 1 .648 1.574z" class="prefix__cls-1" data-name="Path 9225" transform="translate(-112.611 -4.728)"/>
            <path id="prefix__Path_9226" d="M12.4 14.556h-1.366V6.744c0-.617.041-1.368.113-2.255h-.031a7.4 7.4 0 0 1-.348 1.127L6.8 14.556h-.664L2.161 5.681a6.487 6.487 0 0 1-.348-1.191h-.03c.042.466.065 1.222.065 2.27v7.8H.533V2.923h1.8L5.9 11.035a10.491 10.491 0 0 1 .528 1.393h.057c.232-.636.417-1.113.557-1.427l3.648-8.078h1.71v11.633z" class="prefix__cls-1" data-name="Path 9226" transform="translate(-.533 -2.08)"/>
            <path id="prefix__Path_9227" d="M40.719 13.711h-1.327V5.4h1.327v8.308zm.229-11.286a.831.831 0 0 1-.257.617.844.844 0 0 1-.619.252.858.858 0 0 1-.612-.243.829.829 0 0 1-.253-.626.825.825 0 0 1 .253-.611.892.892 0 0 1 1.231 0 .821.821 0 0 1 .257.611z" class="prefix__cls-1" data-name="Path 9227" transform="translate(-24.653 -1.235)"/>
            <path id="prefix__Path_9228" d="M54.931 19.347a4.271 4.271 0 0 1-2.276.585 3.746 3.746 0 0 1-2.883-1.185 4.194 4.194 0 0 1-1.07-2.969 4.631 4.631 0 0 1 1.174-3.3 4.094 4.094 0 0 1 3.15-1.257 4.24 4.24 0 0 1 1.922.422v1.365a3.371 3.371 0 0 0-1.979-.651 2.662 2.662 0 0 0-2.068.885 3.43 3.43 0 0 0-.837 2.416 3.294 3.294 0 0 0 .768 2.3 2.642 2.642 0 0 0 2.055.843 3.354 3.354 0 0 0 2.044-.714v1.263z" class="prefix__cls-1" data-name="Path 9228" transform="translate(-30.576 -7.255)"/>
            <path id="prefix__Path_9229" d="M74.935 12.867a1.778 1.778 0 0 0-2.378.462 3.642 3.642 0 0 0-.625 2.262v4.235H70.6v-8.307h1.33v1.713h.032a2.917 2.917 0 0 1 .9-1.4 1.99 1.99 0 0 1 1.273-.454 2.157 2.157 0 0 1 .8.113v1.379z" class="prefix__cls-1" data-name="Path 9229" transform="translate(-44.234 -7.351)"/>
            <path id="prefix__Path_9230" d="M90.517 15.59a3.631 3.631 0 0 0-.72-2.433 2.454 2.454 0 0 0-1.956-.8 2.563 2.563 0 0 0-1.985.813 3.526 3.526 0 0 0-.786 2.456 3.358 3.358 0 0 0 .753 2.332 2.573 2.573 0 0 0 2.019.84 2.429 2.429 0 0 0 2-.851 3.645 3.645 0 0 0 .674-2.353m1.364-.047a4.48 4.48 0 0 1-1.119 3.184 3.934 3.934 0 0 1-3.02 1.2 3.817 3.817 0 0 1-2.967-1.2 4.326 4.326 0 0 1-1.074-3.06 4.456 4.456 0 0 1 1.217-3.351 4.129 4.129 0 0 1 3.015-1.1 3.733 3.733 0 0 1 2.9 1.151 4.582 4.582 0 0 1 1.04 3.175" class="prefix__cls-1" data-name="Path 9230" transform="translate(-52.405 -7.253)"/>
            <path id="prefix__Path_9231" d="M114.5 17.507a2.16 2.16 0 0 1-.763 1.693 3.348 3.348 0 0 1-2.279.729 4.076 4.076 0 0 1-2.061-.5V18a3.342 3.342 0 0 0 2.159.8q1.579 0 1.581-1.16a1.026 1.026 0 0 0-.349-.8 5.529 5.529 0 0 0-1.364-.763 4.375 4.375 0 0 1-1.484-.942 2.292 2.292 0 0 1 .292-3.221 3.167 3.167 0 0 1 2.11-.688 3.941 3.941 0 0 1 1.776.389v1.339a3.133 3.133 0 0 0-1.885-.593 1.632 1.632 0 0 0-1.057.323 1.036 1.036 0 0 0-.4.837 1.11 1.11 0 0 0 .334.859 4.622 4.622 0 0 0 1.247.689 4.8 4.8 0 0 1 1.534.92 2.049 2.049 0 0 1 .609 1.524" class="prefix__cls-1" data-name="Path 9231" transform="translate(-68.427 -7.254)"/>
            <path id="prefix__Path_9232" d="M133.259 15.59a3.623 3.623 0 0 0-.722-2.433 2.451 2.451 0 0 0-1.955-.8 2.574 2.574 0 0 0-1.988.813 3.532 3.532 0 0 0-.783 2.456 3.379 3.379 0 0 0 .748 2.332 2.6 2.6 0 0 0 2.024.84 2.427 2.427 0 0 0 2-.851 3.645 3.645 0 0 0 .674-2.353m1.367-.047a4.476 4.476 0 0 1-1.123 3.184 3.923 3.923 0 0 1-3.017 1.2 3.818 3.818 0 0 1-2.969-1.2 4.326 4.326 0 0 1-1.071-3.056 4.473 4.473 0 0 1 1.216-3.351 4.134 4.134 0 0 1 3.018-1.1 3.724 3.724 0 0 1 2.9 1.151 4.577 4.577 0 0 1 1.045 3.175" class="prefix__cls-1" data-name="Path 9232" transform="translate(-79.062 -7.253)"/>
            <path id="prefix__Path_9233" d="M155.432 2.029a1.786 1.786 0 0 0-.883-.219c-.931 0-1.393.586-1.393 1.761v1.28h1.944v1.127h-1.947v7.181h-1.331V5.978h-1.413V4.852h1.413V3.505a2.754 2.754 0 0 1 .85-2.149 2.548 2.548 0 0 1 1.794-.673 2.6 2.6 0 0 1 .963.145v1.2z" class="prefix__cls-1" data-name="Path 9233" transform="translate(-94.009 -.684)"/>
            <path id="prefix__Path_9234" d="M169.662 15.909a2.508 2.508 0 0 1-1.25.269q-2.175 0-2.175-2.452V8.813h-1.425V7.685h1.425V5.658c.425-.134.866-.28 1.333-.431v2.458h2.091v1.128h-2.091V13.5a1.9 1.9 0 0 0 .282 1.187 1.147 1.147 0 0 0 .95.356 1.409 1.409 0 0 0 .86-.268v1.134z" class="prefix__cls-1" data-name="Path 9234" transform="translate(-102.99 -3.517)"/>
        </g>
        <g id="prefix__Group_14480" data-name="Group 14480" transform="translate(.81 133.652)">
            <path id="prefix__Path_9235" d="M5.553 72.264a2.322 2.322 0 0 1-.7 1.69 2.305 2.305 0 0 1-1.7.713 2.213 2.213 0 0 1-1.659-.713 2.454 2.454 0 0 1 0-3.392 2.22 2.22 0 0 1 1.659-.7 2.3 2.3 0 0 1 1.7.711 2.327 2.327 0 0 1 .7 1.693" class="prefix__cls-1" data-name="Path 9235" transform="translate(-.81 -43.674)"/>
            <path id="prefix__Path_9236" d="M51.813 30.781h-4.337L31.734 6.469a11.156 11.156 0 0 1-.954-1.915h-.13a31.675 31.675 0 0 1 .169 4.189v22.038h-3.575V.279h4.64l15.272 23.929c.608.95 1.023 1.63 1.234 2.039h.085a32.132 32.132 0 0 1-.215-4.485V.279h3.554v30.5z" class="prefix__cls-1" data-name="Path 9236" transform="translate(-17.296 -.278)"/>
            <path id="prefix__Path_9237" d="M126.644 30.781h-16.166V.279h15.464v3.232h-11.891v10.147h11.019v3.234h-11.019v10.656h12.594v3.233z" class="prefix__cls-1" data-name="Path 9237" transform="translate(-69.208 -.278)"/>
            <path id="prefix__Path_9238" d="M183.522 3.51h-8.786v27.27h-3.574V3.51h-8.8V.276h21.163V3.51z" class="prefix__cls-1" data-name="Path 9238" transform="translate(-101.564 -.276)"/>
        </g>
    </g>
</svg>
