<svg id="Layer_1" data-name="Layer 1" xmlns="http://www.w3.org/2000/svg" viewBox="0 0 557.32 178.52"><defs><style>.cls-1{fill:none;}.cls-2{fill:#f15d34;}</style></defs><title>NO-BS</title><path class="cls-1" d="M433.46,96c0-5.55-4.5-14.89-19-14.89h-35V109h35C428.79,109,433.46,102.94,433.46,96Z" transform="translate(-18.98 -56.2)"/><path class="cls-1" d="M208.71,206.67a6,6,0,0,0-4.68,1.92,9.09,9.09,0,0,0-2.06,5.54h12.47a8.85,8.85,0,0,0-1.52-5.49A5,5,0,0,0,208.71,206.67Z" transform="translate(-18.98 -56.2)"/><path class="cls-1" d="M485.84,206.71a5.71,5.71,0,0,0-5,2.31q-1.67,2.32-1.66,6.74,0,8.56,6.66,8.57a6,6,0,0,0,5-2q1.59-2,1.59-6.54v-.32q0-4.68-1.56-6.72T485.84,206.71Z" transform="translate(-18.98 -56.2)"/><path class="cls-1" d="M414.42,129.08h-35v31.16h35c9.35,0,22.68-3.12,22.68-14.55C437.1,134.79,423.77,129.08,414.42,129.08Z" transform="translate(-18.98 -56.2)"/><path class="cls-1" d="M390.94,209.28a4.61,4.61,0,0,0,1.74-4,4.29,4.29,0,0,0-2-3.94,11.2,11.2,0,0,0-5.83-1.22h-5.48v10.41h6C387.94,210.55,389.79,210.12,390.94,209.28Z" transform="translate(-18.98 -56.2)"/><path class="cls-1" d="M385.39,212.22h-6v11.7h6.39q7.53,0,7.53-6.12Q393.33,212.22,385.39,212.22Z" transform="translate(-18.98 -56.2)"/><path class="cls-1" d="M562.9,207.87a5.16,5.16,0,0,0-1.39,3.84,4.68,4.68,0,0,0,1.42,3.63,6.35,6.35,0,0,0,7.66,0,4.87,4.87,0,0,0,1.35-3.71,5,5,0,0,0-1.38-3.87,5.45,5.45,0,0,0-3.87-1.29A5.08,5.08,0,0,0,562.9,207.87Z" transform="translate(-18.98 -56.2)"/><path class="cls-1" d="M64.54,206.67a6,6,0,0,0-4.67,1.92,9,9,0,0,0-2.06,5.54H70.28a8.78,8.78,0,0,0-1.53-5.49A5,5,0,0,0,64.54,206.67Z" transform="translate(-18.98 -56.2)"/><path class="cls-1" d="M560,229c0,2.78,2.06,4.16,6.18,4.16q7.94,0,7.94-5.06a2.92,2.92,0,0,0-1.24-2.64,7.63,7.63,0,0,0-4-.81h-3.3Q560,224.65,560,229Z" transform="translate(-18.98 -56.2)"/><polygon class="cls-2" points="100.75 3.98 77.9 3.98 77.9 79.28 18.52 4.15 0 4.15 0 125.32 22.85 125.32 22.85 43.62 86.56 125.5 86.56 125.32 100.75 125.32 100.75 3.98"/><path class="cls-2" d="M199.38,57.93c-41.89,0-62.31,32-62.31,63.87s19.73,62.5,62.31,62.5,61.8-31.34,62.15-62.67C261.87,90,241.1,57.93,199.38,57.93Zm42.73,26.52c.12,3-2,6.45-2,6.45a12.19,12.19,0,0,1-4.71-.87A9.36,9.36,0,0,0,242.11,84.45Zm-64.47,62.73c.3,3.77-5.64,9.93-5.64,9.93-2.9-3.91,1.29-7.47,1.29-7.47a3.33,3.33,0,0,0,1-4.35l3.35-.87Zm48.73-21.47-3.26,6.38s-3.27-2.32-2.25-4.06c0,0,2.7-2.46,2.15-4.35v-2l3.37-2.72Zm10.75-28.24a7.53,7.53,0,0,1-1.39-2.1l.13,4.21c-.16,3.12.22,8.35,1.1,10.94,1,2.94-5.66,1.74-5.66,1.74s-.58-4.12-4.06-4.85-6.09-2.4-4.06-6.32c0,0-8.56,5.42-2.32,11.27l6.24,4.69s-7.55,4.2-10,9c0,0-7.29-.21-10.68,2.54l.19-2.63s.48-5.28,4.83-3.1c0,0,1.16-2.47,2.76-1.31s4.35-1.74,4.35-1.74l-1.45-2.61s-5.8,1.74-10.3-1.59c-4.64-7.26.19-14,.19-14-5.4,7.28-3.75,13.61-2.93,15.76-3.11,2.09-9.07,6.26-8.78,7.71,0,0,1.53.8-2.31,2.47-.89.39-1.26,1.4-1.67,1.94s-.77,1-1.25,1.55c-.2.27-.39.52-.55.75-1.85,2.8-2,6.83-4.31,8.83-2.57,2.18-12.69,3.47-14.36,4.49s-4,7.57-5.2,10-7.2,3.58-7.2,3.58l.72-2.1c.66-2.15,1.15-3.46,2.39-3.94l2.57-1c1.67-1.41.88-4.9,1.14-7.33a4.23,4.23,0,0,1,2-3.34l5.56-5-1.07-6.28a18,18,0,0,1,.39-3.86c-2.17,2.92-12.91,9.54-18.52,3.92a10,10,0,0,1-2.85-7.29c0-5.75,2.62-8.84,6.1-12,5.17-4.72,9.86-6.07,12.9-9.16-.8,2.54-8,9.59-10.43,9.28a1.79,1.79,0,0,0-1.21.28,11.7,11.7,0,0,0-5.33,13.07c2.14,9,12.86,6,16.83,0,4.5-6.84,5-7.16,12.83-12.56a24.19,24.19,0,0,0,6.1-6.05c2.07-2.94,18-22.57,24.58-21.78,6.11.74,12.91-1.88,19.73,6.09,0,0,9.24,6.39,14.89-2.9C247.79,86.73,245.35,95.52,237.12,97.47Zm-11.26,16.71c-5.73-3-5.73-6.06-5.73-6.06a12.1,12.1,0,0,0,5.26,2.24Z" transform="translate(-18.98 -56.2)"/><polygon class="cls-2" points="212.47 46.78 214.5 47.36 212.47 43.88 212.47 46.78"/><rect class="cls-2" x="256.94" y="59.2" width="63.88" height="19.39"/><path class="cls-2" d="M440.39,118.86c11.25-5,15.75-14,15.75-23.37,0-24.4-17.83-35.14-41.72-35.14H357V181.52h57.47c25.1,0,45.36-8.65,45.36-35.65C459.78,138.25,454.58,123.19,440.39,118.86ZM379.45,81.13h35c14.54,0,19,9.34,19,14.89,0,6.92-4.67,13-19,13h-35Zm35,79.11h-35V129.08h35c9.35,0,22.68,5.71,22.68,16.61C437.1,157.12,423.77,160.24,414.42,160.24Z" transform="translate(-18.98 -56.2)"/><path class="cls-2" d="M576.3,146c0-28.91-23.55-35.49-48.82-38.6-14.54-1.73-27-4.67-27-15.24,0-9,8.13-16.09,25.1-16.09,13.15,0,24.58,6.58,28.73,13.5l18.18-9.35c-9.17-18.7-28.74-24.06-47.6-24.06C502.56,56.37,478,66.58,478,91.52c0,27.17,22.84,33.75,47.6,36.69,16.1,1.73,28,6.4,28,17.83,0,13.15-13.5,18.18-27.87,18.18-14.71,0-28.73-5.89-34.1-19.22l-19,9.87c9,22.15,28,29.78,52.79,29.78C552.41,184.65,576.3,173.05,576.3,146Z" transform="translate(-18.98 -56.2)"/><path class="cls-2" d="M31.1,213.7h8.07v9.54a17.16,17.16,0,0,1-6.37,1q-5.79,0-8.77-3.09T21,212a12.43,12.43,0,0,1,3.15-8.93,11.15,11.15,0,0,1,8.5-3.31A17.19,17.19,0,0,1,40,201.38l.76-1.7a18.69,18.69,0,0,0-8-1.64,14.72,14.72,0,0,0-7.26,1.75,11.87,11.87,0,0,0-4.86,4.94,15.44,15.44,0,0,0-1.7,7.34q0,6.63,3.42,10.27T32.25,226a22.29,22.29,0,0,0,8.84-1.67V211.92h-10Z" transform="translate(-18.98 -56.2)"/><path class="cls-2" d="M64.54,205a7.84,7.84,0,0,0-6.4,2.9,11.85,11.85,0,0,0-2.37,7.73q0,4.88,2.46,7.58A8.77,8.77,0,0,0,65.08,226a17.41,17.41,0,0,0,3.19-.27,14.5,14.5,0,0,0,3.16-1V223a18.49,18.49,0,0,1-3.32,1,16.92,16.92,0,0,1-3,.24,6.8,6.8,0,0,1-5.44-2.19,9.49,9.49,0,0,1-1.94-6.34H72.22v-1.49a10.23,10.23,0,0,0-2.06-6.75A6.91,6.91,0,0,0,64.54,205Zm-6.73,9.09a9,9,0,0,1,2.06-5.54,6,6,0,0,1,4.67-1.92,5,5,0,0,1,4.21,2,8.78,8.78,0,0,1,1.53,5.49Z" transform="translate(-18.98 -56.2)"/><path class="cls-2" d="M96.3,205q-5,0-7,3.15H89.2l-.35-2.76H87.29v20.16h1.83V214.46q0-4.1,1.68-5.93t5.3-1.82a5.17,5.17,0,0,1,4,1.38,6.38,6.38,0,0,1,1.28,4.42v13.08h1.82V212.4Q103.17,205,96.3,205Z" transform="translate(-18.98 -56.2)"/><path class="cls-2" d="M133,216.56q0,4.09-1.69,5.91c-1.13,1.22-2.9,1.82-5.3,1.82a5.17,5.17,0,0,1-4-1.38,6.39,6.39,0,0,1-1.28-4.42V205.43H119V218.6q0,7.36,6.89,7.36,5,0,7-3.15H133l.33,2.78h1.56V205.43H133Z" transform="translate(-18.98 -56.2)"/><path class="cls-2" d="M152,198c-.78,0-1.17.6-1.17,1.78s.39,1.8,1.17,1.8a1,1,0,0,0,.9-.48,2.3,2.3,0,0,0,.33-1.32,2.22,2.22,0,0,0-.33-1.31A1,1,0,0,0,152,198Z" transform="translate(-18.98 -56.2)"/><rect class="cls-2" x="132.12" y="149.22" width="1.84" height="20.17"/><path class="cls-2" d="M178.21,205c-3.35,0-5.69,1.05-7,3.15h-.11l-.35-2.76h-1.56v20.16H171V214.46q0-4.1,1.68-5.93t5.29-1.82a5.16,5.16,0,0,1,4,1.38,6.33,6.33,0,0,1,1.28,4.42v13.08h1.82V212.4Q185.07,205,178.21,205Z" transform="translate(-18.98 -56.2)"/><path class="cls-2" d="M208.71,205a7.81,7.81,0,0,0-6.4,2.9,11.8,11.8,0,0,0-2.38,7.73q0,4.88,2.46,7.58a8.77,8.77,0,0,0,6.85,2.71,17.34,17.34,0,0,0,3.19-.27,14.5,14.5,0,0,0,3.16-1V223a18.68,18.68,0,0,1-3.31,1,17.11,17.11,0,0,1-3,.24,6.82,6.82,0,0,1-5.44-2.19,9.49,9.49,0,0,1-1.94-6.34h14.53v-1.49a10.29,10.29,0,0,0-2.06-6.75A6.94,6.94,0,0,0,208.71,205ZM202,214.13a9.09,9.09,0,0,1,2.06-5.54,6,6,0,0,1,4.68-1.92,5,5,0,0,1,4.21,2,8.85,8.85,0,0,1,1.52,5.49Z" transform="translate(-18.98 -56.2)"/><polygon class="cls-2" points="234.19 142.27 232.3 142.27 232.3 169.39 247.12 169.39 247.12 167.61 234.19 167.61 234.19 142.27"/><path class="cls-2" d="M280.72,198c-.78,0-1.17.6-1.17,1.78s.39,1.8,1.17,1.8a1,1,0,0,0,.9-.48,2.3,2.3,0,0,0,.33-1.32,2.22,2.22,0,0,0-.33-1.31A1.05,1.05,0,0,0,280.72,198Z" transform="translate(-18.98 -56.2)"/><rect class="cls-2" x="260.83" y="149.22" width="1.84" height="20.17"/><path class="cls-2" d="M306.92,205q-5,0-7,3.15h-.11l-.35-2.76H297.9v20.16h1.84V214.46q0-4.1,1.68-5.93c1.11-1.21,2.88-1.82,5.29-1.82a5.17,5.17,0,0,1,4,1.38,6.38,6.38,0,0,1,1.28,4.42v13.08h1.82V212.4Q313.78,205,306.92,205Z" transform="translate(-18.98 -56.2)"/><polygon class="cls-2" points="325.15 149.22 322.92 149.22 312.63 160.54 312.53 160.54 312.66 154.99 312.66 140.52 310.83 140.52 310.83 169.39 312.66 169.39 312.66 162.21 315.96 159.21 323.63 169.39 325.83 169.39 317.21 157.83 325.15 149.22"/><path class="cls-2" d="M389.06,211.38v-.11a7.06,7.06,0,0,0,4.2-2,5.6,5.6,0,0,0,1.44-3.93,5.93,5.93,0,0,0-2.36-5.15q-2.35-1.71-7.38-1.71h-7.44v27.12h8.31c3.05,0,5.39-.67,7.05-2a7,7,0,0,0,2.49-5.77,6,6,0,0,0-1.53-4.37A8.23,8.23,0,0,0,389.06,211.38Zm-9.65-11.24h5.48a11.2,11.2,0,0,1,5.83,1.22,4.29,4.29,0,0,1,2,3.94,4.61,4.61,0,0,1-1.74,4c-1.15.84-3,1.27-5.55,1.27h-6Zm6.39,23.78h-6.39v-11.7h6q7.94,0,7.94,5.58Q393.33,223.92,385.8,223.92Z" transform="translate(-18.98 -56.2)"/><path class="cls-2" d="M424.22,216.56q0,4.09-1.7,5.91c-1.13,1.22-2.9,1.82-5.3,1.82a5.17,5.17,0,0,1-4-1.38,6.39,6.39,0,0,1-1.28-4.42V205.43h-1.82V218.6q0,7.36,6.89,7.36,5,0,7-3.15h.11l.33,2.78H426V205.43h-1.81Z" transform="translate(-18.98 -56.2)"/><path class="cls-2" d="M443.19,198c-.78,0-1.17.6-1.17,1.78s.39,1.8,1.17,1.8a1,1,0,0,0,.9-.48,2.3,2.3,0,0,0,.33-1.32,2.22,2.22,0,0,0-.33-1.31A1,1,0,0,0,443.19,198Z" transform="translate(-18.98 -56.2)"/><rect class="cls-2" x="423.3" y="149.22" width="1.84" height="20.17"/><rect class="cls-2" x="441.39" y="140.52" width="1.84" height="28.87"/><path class="cls-2" d="M492.48,204c0,1.5,0,3,.12,4.58h-.12a7.58,7.58,0,0,0-2.85-2.73,8.44,8.44,0,0,0-3.79-.79,7.64,7.64,0,0,0-6.36,2.76q-2.19,2.76-2.19,8,0,5,2.21,7.57a7.91,7.91,0,0,0,6.38,2.59,7.45,7.45,0,0,0,6.6-3.45h.15l.47,3.08h1.2V196.73h-1.82Zm0,11.82q0,4.56-1.59,6.54a6,6,0,0,1-5,2q-6.66,0-6.66-8.57,0-4.41,1.66-6.74a5.71,5.71,0,0,1,5-2.31q3.51,0,5.08,2t1.56,6.72Z" transform="translate(-18.98 -56.2)"/><rect class="cls-2" x="491.59" y="149.22" width="1.84" height="20.17"/><path class="cls-2" d="M511.48,198c-.78,0-1.17.6-1.17,1.78s.39,1.8,1.17,1.8a1,1,0,0,0,.9-.48,2.3,2.3,0,0,0,.32-1.32,2.23,2.23,0,0,0-.32-1.31A1.05,1.05,0,0,0,511.48,198Z" transform="translate(-18.98 -56.2)"/><path class="cls-2" d="M537.67,205q-5,0-7,3.15h-.11l-.35-2.76h-1.56v20.16h1.84V214.46q0-4.1,1.67-5.93t5.3-1.82a5.17,5.17,0,0,1,4,1.38,6.38,6.38,0,0,1,1.28,4.42v13.08h1.82V212.4Q544.54,205,537.67,205Z" transform="translate(-18.98 -56.2)"/><path class="cls-2" d="M566.76,205a7.24,7.24,0,0,0-5.18,1.82,6.39,6.39,0,0,0-1.92,4.85,6.56,6.56,0,0,0,1,3.56,5.75,5.75,0,0,0,2.75,2.27c-1.72,1-2.58,2.21-2.58,3.56a2.58,2.58,0,0,0,.55,1.64,3.53,3.53,0,0,0,1.45,1.11,6.7,6.7,0,0,0-3.5,1.87,4.89,4.89,0,0,0-1.28,3.45,4.69,4.69,0,0,0,2.08,4.08,10.13,10.13,0,0,0,5.89,1.47q4.79,0,7.38-1.74a5.57,5.57,0,0,0,2.58-4.92,4.62,4.62,0,0,0-1.74-3.92,8.15,8.15,0,0,0-5-1.33h-3.52a5,5,0,0,1-2.46-.45,1.51,1.51,0,0,1-.73-1.41,2.75,2.75,0,0,1,.57-1.65,4.81,4.81,0,0,1,1.67-1.35,11.87,11.87,0,0,0,1.93.11,7.33,7.33,0,0,0,5.21-1.81,6.17,6.17,0,0,0,1.93-4.72,7.06,7.06,0,0,0-1.67-4.56l4.18-.26v-1.28h-6.46A9.53,9.53,0,0,0,566.76,205Zm-1.24,19.61h3.3a7.63,7.63,0,0,1,4,.81,2.92,2.92,0,0,1,1.24,2.64q0,5.06-7.94,5.06c-4.12,0-6.18-1.38-6.18-4.16S561.82,224.65,565.52,224.65Zm6.42-13a4.87,4.87,0,0,1-1.35,3.71,6.35,6.35,0,0,1-7.66,0,4.68,4.68,0,0,1-1.42-3.63,5.16,5.16,0,0,1,1.39-3.84,5.08,5.08,0,0,1,3.79-1.39,5.45,5.45,0,0,1,3.87,1.29A5,5,0,0,1,571.94,211.64Z" transform="translate(-18.98 -56.2)"/></svg>