<svg xmlns="http://www.w3.org/2000/svg" width="172.082" height="55.12" viewBox="0 0 172.082 55.12">
    <defs>
        <style>
            .prefix__cls-1{fill:none}.prefix__cls-2{fill:#fff}
        </style>
    </defs>
    <g id="prefix__Group_13773" data-name="Group 13773" transform="translate(-23 -333.135)">
        <path id="prefix__Path_6937" d="M400.149 362.657c0-1.712-1.39-4.6-5.879-4.6h-10.8v8.605h10.8c4.436.002 5.879-1.868 5.879-4.005z" class="prefix__cls-1" data-name="Path 6937" transform="translate(-249.171 -17.228)"/>
        <path id="prefix__Path_6938" d="M208.069 483.6a1.866 1.866 0 0 0-1.444.593 2.8 2.8 0 0 0-.636 1.71h3.849a2.715 2.715 0 0 0-.47-1.693 1.55 1.55 0 0 0-1.299-.61z" class="prefix__cls-1" data-name="Path 6938" transform="translate(-126.489 -104.008)"/>
        <path id="prefix__Path_6939" d="M485.283 483.639a1.761 1.761 0 0 0-1.532.716 3.549 3.549 0 0 0-.513 2.079q0 2.646 2.056 2.646a1.866 1.866 0 0 0 1.547-.613 3.252 3.252 0 0 0 .493-2.022v-.1a3.467 3.467 0 0 0-.484-2.076 1.848 1.848 0 0 0-1.567-.63z" class="prefix__cls-1" data-name="Path 6939" transform="translate(-318.131 -104.033)"/>
        <path id="prefix__Path_6940" d="M394.27 406.009h-10.8v9.622h10.8c2.886 0 7-.964 7-4.491.002-3.368-4.114-5.131-7-5.131z" class="prefix__cls-1" data-name="Path 6940" transform="translate(-249.171 -50.373)"/>
        <path id="prefix__Path_6941" d="M386.992 479.893a1.422 1.422 0 0 0 .536-1.229 1.325 1.325 0 0 0-.6-1.214 3.441 3.441 0 0 0-1.8-.378h-1.69v3.214h1.845a2.942 2.942 0 0 0 1.709-.393z" class="prefix__cls-1" data-name="Path 6941" transform="translate(-249.142 -99.494)"/>
        <path id="prefix__Path_6942" d="M385.277 489.149h-1.845v3.615h1.968q2.325 0 2.326-1.89.002-1.725-2.449-1.725z" class="prefix__cls-1" data-name="Path 6942" transform="translate(-249.142 -107.842)"/>
        <path id="prefix__Path_6943" d="M565.959 483.844a1.6 1.6 0 0 0-.427 1.188 1.436 1.436 0 0 0 .438 1.12 1.962 1.962 0 0 0 2.365 0 1.507 1.507 0 0 0 .415-1.146 1.556 1.556 0 0 0-.427-1.194 1.684 1.684 0 0 0-1.194-.4 1.582 1.582 0 0 0-1.17.432z" class="prefix__cls-1" data-name="Path 6943" transform="translate(-375.016 -103.88)"/>
        <path id="prefix__Path_6944" d="M63.907 483.6a1.865 1.865 0 0 0-1.443.593 2.8 2.8 0 0 0-.636 1.71h3.849a2.715 2.715 0 0 0-.47-1.693 1.55 1.55 0 0 0-1.3-.61z" class="prefix__cls-1" data-name="Path 6944" transform="translate(-26.839 -104.008)"/>
        <path id="prefix__Path_6945" d="M563.992 502.924q0 1.283 1.907 1.283 2.452 0 2.452-1.564a.9.9 0 0 0-.384-.813 2.335 2.335 0 0 0-1.243-.252H565.7q-1.708 0-1.708 1.346z" class="prefix__cls-1" data-name="Path 6945" transform="translate(-373.951 -116.433)"/>
        <path id="prefix__Path_6946" d="M54.108 337.113h-7.055v23.251l-18.333-23.2H23v37.414h7.056v-25.226l19.67 25.282v-.053h4.382z" class="prefix__cls-2" data-name="Path 6946" transform="translate(0 -2.75)"/>
        <path id="prefix__Path_6947" d="M160.326 334.863c-12.935 0-19.242 9.888-19.242 19.722s6.093 19.3 19.242 19.3 19.082-9.676 19.188-19.349c.107-9.785-6.307-19.673-19.188-19.673zm13.192 8.188a4.305 4.305 0 0 1-.6 1.993 3.773 3.773 0 0 1-1.456-.269 2.892 2.892 0 0 0 2.056-1.724zm-19.907 19.369c.093 1.164-1.741 3.068-1.741 3.068a1.74 1.74 0 0 1 .4-2.307 1.027 1.027 0 0 0 .313-1.343l1.034-.269zm15.047-6.628l-1.008 1.971s-1.007-.716-.694-1.254c0 0 .835-.761.664-1.343v-.627l1.041-.84zm3.318-8.719a2.468 2.468 0 0 1-.429-.648l.043 1.3a11.486 11.486 0 0 0 .338 3.378c.307.908-1.747.537-1.747.537s-.179-1.273-1.254-1.5-1.881-.742-1.254-1.951c0 0-2.642 1.674-.717 3.479l1.926 1.447a9.107 9.107 0 0 0-3.09 2.777s-2.25-.064-3.3.786l.059-.812s.147-1.631 1.49-.959c0 0 .358-.761.851-.4s1.344-.538 1.344-.538l-.448-.806a2.894 2.894 0 0 1-3.12-4.807 5.029 5.029 0 0 0-.907 4.865c-.959.647-2.8 1.935-2.71 2.382 0 0 .472.247-.714.761-.275.12-.388.433-.517.6-.11.15-.235.309-.383.48-.063.083-.121.161-.172.232-.569.864-.606 2.109-1.33 2.725-.792.673-3.919 1.071-4.434 1.388s-1.248 2.338-1.6 3.09-2.225 1.1-2.225 1.1l.224-.647c.2-.665.354-1.069.738-1.216l.793-.3c.515-.435.272-1.51.351-2.263a1.309 1.309 0 0 1 .634-1.029l1.717-1.556-.331-1.939a5.611 5.611 0 0 1 .12-1.192c-.67.9-3.984 2.945-5.719 1.208a3.083 3.083 0 0 1-.877-2.249 4.654 4.654 0 0 1 1.881-3.71c1.6-1.456 3.045-1.873 3.986-2.829-.249.785-2.484 2.961-3.223 2.867a.551.551 0 0 0-.373.085 3.613 3.613 0 0 0-1.644 4.037c.66 2.764 3.971 1.862 5.2 0 1.389-2.114 1.555-2.213 3.963-3.88a7.528 7.528 0 0 0 1.883-1.866c.638-.908 5.562-6.97 7.589-6.726 1.886.227 3.986-.582 6.091 1.881 0 0 2.853 1.971 4.6-.9a4.947 4.947 0 0 1-3.303 3.318zm-3.475 5.159c-1.769-.935-1.769-1.87-1.769-1.87a3.712 3.712 0 0 0 1.624.69z" class="prefix__cls-2" data-name="Path 6947" transform="translate(-81.623 -1.195)"/>
        <path id="prefix__Path_6948" d="M235.465 377.906l.627.179-.627-1.075z" data-name="Path 6948" transform="translate(-146.863 -30.328)" style="fill:#f15d34"/>
        <path id="prefix__Rectangle_974" d="M0 0H19.723V5.986H0z" class="prefix__cls-2" data-name="Rectangle 974" transform="translate(102.335 351.414)"/>
        <path id="prefix__Path_6949" d="M386.731 355.351a7.607 7.607 0 0 0 4.864-7.216c0-7.536-5.505-10.851-12.881-10.851h-17.746V374.7h17.746c7.75 0 14-2.673 14-11.01.003-2.351-1.601-7.002-5.983-8.339zM367.917 343.7h10.8c4.489 0 5.879 2.886 5.879 4.6 0 2.138-1.443 4.008-5.879 4.008h-10.8zm10.8 24.428h-10.8V358.5h10.8c2.886 0 7 1.763 7 5.131-.002 3.532-4.117 4.496-7.003 4.496z" class="prefix__cls-2" data-name="Path 6949" transform="translate(-233.614 -2.869)"/>
        <path id="prefix__Path_6950" d="M508.643 360.874c0-8.926-7.27-10.957-15.073-11.918-4.489-.535-8.338-1.443-8.338-4.7 0-2.779 2.512-4.97 7.75-4.97 4.062 0 7.59 2.031 8.873 4.169l5.612-2.887c-2.832-5.773-8.873-7.428-14.7-7.428-6.895.053-14.484 3.2-14.484 10.9 0 8.391 7.055 10.422 14.7 11.33 4.971.535 8.659 1.978 8.659 5.505 0 4.062-4.169 5.613-8.605 5.613-4.543 0-8.873-1.817-10.53-5.932l-5.879 3.045c2.779 6.842 8.658 9.2 16.3 9.2 8.339-.006 15.715-3.588 15.715-11.927z" class="prefix__cls-2" data-name="Path 6950" transform="translate(-313.561)"/>
        <path id="prefix__Path_6951" d="M26.74 479.81h2.492v2.944a5.248 5.248 0 0 1-1.965.326 3.6 3.6 0 0 1-2.709-.954 3.942 3.942 0 0 1-.922-2.844 3.84 3.84 0 0 1 .971-2.758 3.449 3.449 0 0 1 2.626-1.022 5.314 5.314 0 0 1 2.257.5l.235-.527a5.778 5.778 0 0 0-2.457-.5 4.567 4.567 0 0 0-2.243.538 3.67 3.67 0 0 0-1.5 1.527 4.763 4.763 0 0 0-.525 2.267 4.441 4.441 0 0 0 1.057 3.17A3.978 3.978 0 0 0 27.1 483.6a6.928 6.928 0 0 0 2.732-.516v-3.824H26.74z" class="prefix__cls-2" data-name="Path 6951" transform="translate(0 -98.045)"/>
        <path id="prefix__Path_6952" d="M62.5 481.97a2.42 2.42 0 0 0-1.976.9 3.653 3.653 0 0 0-.733 2.386 3.362 3.362 0 0 0 .759 2.343 2.713 2.713 0 0 0 2.117.836 5.417 5.417 0 0 0 .985-.083 4.584 4.584 0 0 0 .974-.312v-.516a5.682 5.682 0 0 1-1.022.321 5.206 5.206 0 0 1-.936.074 2.108 2.108 0 0 1-1.681-.676 2.945 2.945 0 0 1-.6-1.959h4.485v-.458a3.169 3.169 0 0 0-.636-2.085 2.133 2.133 0 0 0-1.736-.771zm-2.079 2.807a2.8 2.8 0 0 1 .636-1.71 1.865 1.865 0 0 1 1.443-.593 1.55 1.55 0 0 1 1.3.61 2.715 2.715 0 0 1 .47 1.693z" class="prefix__cls-2" data-name="Path 6952" transform="translate(-25.428 -102.88)"/>
        <path id="prefix__Path_6953" d="M94.09 481.97a2.34 2.34 0 0 0-2.16.974h-.03l-.109-.854h-.481v6.227h.567v-3.437a2.66 2.66 0 0 1 .518-1.83 2.122 2.122 0 0 1 1.636-.564 1.6 1.6 0 0 1 1.226.427 1.971 1.971 0 0 1 .4 1.366v4.038h.561v-4.073q-.009-2.274-2.128-2.274z" class="prefix__cls-2" data-name="Path 6953" transform="translate(-47.215 -102.88)"/>
        <path id="prefix__Path_6954" d="M127.333 485.8a2.629 2.629 0 0 1-.524 1.827 2.14 2.14 0 0 1-1.636.561 1.6 1.6 0 0 1-1.226-.427 1.97 1.97 0 0 1-.4-1.366v-4.032h-.561v4.067q0 2.274 2.125 2.274a2.341 2.341 0 0 0 2.16-.974h.034l.1.859h.481v-6.227h-.561z" class="prefix__cls-2" data-name="Path 6954" transform="translate(-69.117 -103.148)"/>
        <path id="prefix__Path_6955" d="M155.223 474.976q-.361 0-.361.55t.361.555a.317.317 0 0 0 .278-.149.721.721 0 0 0 .1-.407.7.7 0 0 0-.1-.407.321.321 0 0 0-.278-.142z" class="prefix__cls-2" data-name="Path 6955" transform="translate(-91.147 -98.045)"/>
        <path id="prefix__Rectangle_975" d="M0 0H0.567V6.226H0z" class="prefix__cls-2" data-name="Rectangle 975" transform="translate(63.795 379.211)"/>
        <path id="prefix__Path_6956" d="M175.994 481.97a2.34 2.34 0 0 0-2.159.974h-.035l-.109-.854h-.481v6.227h.567v-3.437a2.66 2.66 0 0 1 .518-1.83 2.122 2.122 0 0 1 1.635-.564 1.6 1.6 0 0 1 1.226.427 1.969 1.969 0 0 1 .4 1.366v4.038h.561v-4.073q-.004-2.274-2.123-2.274z" class="prefix__cls-2" data-name="Path 6956" transform="translate(-103.83 -102.88)"/>
        <path id="prefix__Path_6957" d="M206.658 481.97a2.42 2.42 0 0 0-1.976.9 3.653 3.653 0 0 0-.733 2.386 3.361 3.361 0 0 0 .759 2.343 2.713 2.713 0 0 0 2.117.836 5.416 5.416 0 0 0 .985-.083 4.59 4.59 0 0 0 .974-.312v-.516a5.683 5.683 0 0 1-1.022.321 5.206 5.206 0 0 1-.937.074 2.107 2.107 0 0 1-1.681-.676 2.945 2.945 0 0 1-.6-1.959h4.485v-.458a3.169 3.169 0 0 0-.636-2.085 2.133 2.133 0 0 0-1.735-.771zm-2.079 2.807a2.794 2.794 0 0 1 .636-1.71 1.865 1.865 0 0 1 1.443-.593 1.55 1.55 0 0 1 1.3.61 2.715 2.715 0 0 1 .47 1.693z" class="prefix__cls-2" data-name="Path 6957" transform="translate(-125.078 -102.88)"/>
        <path id="prefix__Path_6958" d="M255.883 475.4h-.583v8.374h4.577v-.55h-3.993z" class="prefix__cls-2" data-name="Path 6958" transform="translate(-160.572 -98.34)"/>
        <path id="prefix__Path_6959" d="M283.932 474.976q-.361 0-.361.55t.361.555a.316.316 0 0 0 .278-.149.718.718 0 0 0 .1-.407.7.7 0 0 0-.1-.407.32.32 0 0 0-.278-.142z" class="prefix__cls-2" data-name="Path 6959" transform="translate(-180.115 -98.045)"/>
        <path id="prefix__Rectangle_976" d="M0 0H0.567V6.226H0z" class="prefix__cls-2" data-name="Rectangle 976" transform="translate(103.536 379.211)"/>
        <path id="prefix__Path_6960" d="M304.7 481.97a2.34 2.34 0 0 0-2.16.974h-.034l-.109-.854h-.481v6.227h.567v-3.437a2.658 2.658 0 0 1 .518-1.83 2.122 2.122 0 0 1 1.635-.564 1.6 1.6 0 0 1 1.226.427 1.971 1.971 0 0 1 .4 1.366v4.038h.561v-4.073q-.002-2.274-2.123-2.274z" class="prefix__cls-2" data-name="Path 6960" transform="translate(-192.797 -102.88)"/>
        <path id="prefix__Path_6961" d="M338.248 476.345h-.687l-3.179 3.494h-.029l.04-1.713v-4.468h-.567v8.913h.567v-2.217l1.02-.928 2.366 3.145h.682L335.8 479z" class="prefix__cls-2" data-name="Path 6961" transform="translate(-214.853 -97.135)"/>
        <path id="prefix__Path_6962" d="M385.1 479.39v-.034a2.163 2.163 0 0 0 1.3-.622 1.724 1.724 0 0 0 .444-1.211 1.838 1.838 0 0 0-.727-1.593 3.925 3.925 0 0 0-2.28-.527h-2.3v8.374h2.566a3.366 3.366 0 0 0 2.177-.624 2.165 2.165 0 0 0 .768-1.781 1.85 1.85 0 0 0-.473-1.349 2.529 2.529 0 0 0-1.475-.633zm-2.979-3.471h1.69a3.441 3.441 0 0 1 1.8.378 1.325 1.325 0 0 1 .6 1.214 1.422 1.422 0 0 1-.536 1.229 2.942 2.942 0 0 1-1.716.392h-1.845zm1.971 7.343h-1.971v-3.614h1.845q2.452 0 2.452 1.724.002 1.89-2.323 1.89z" class="prefix__cls-2" data-name="Path 6962" transform="translate(-247.834 -98.34)"/>
        <path id="prefix__Path_6963" d="M418.514 485.8a2.628 2.628 0 0 1-.524 1.827 2.14 2.14 0 0 1-1.635.561 1.6 1.6 0 0 1-1.226-.427 1.97 1.97 0 0 1-.4-1.366v-4.032h-.561v4.067q0 2.274 2.125 2.274a2.34 2.34 0 0 0 2.16-.974h.035l.1.859h.481v-6.227h-.561z" class="prefix__cls-2" data-name="Path 6963" transform="translate(-270.391 -103.148)"/>
        <path id="prefix__Path_6964" d="M446.4 474.976q-.361 0-.361.55t.361.555a.316.316 0 0 0 .278-.149.718.718 0 0 0 .1-.407.7.7 0 0 0-.1-.407.32.32 0 0 0-.278-.142z" class="prefix__cls-2" data-name="Path 6964" transform="translate(-292.421 -98.045)"/>
        <path id="prefix__Rectangle_977" d="M0 0H0.567V6.226H0z" class="prefix__cls-2" data-name="Rectangle 977" transform="translate(153.702 379.211)"/>
        <path id="prefix__Rectangle_978" d="M0 0H0.567V8.913H0z" class="prefix__cls-2" data-name="Rectangle 978" transform="translate(159.287 376.524)"/>
        <path id="prefix__Path_6965" d="M486 475.9q0 .693.035 1.415H486a2.321 2.321 0 0 0-.882-.842 2.585 2.585 0 0 0-1.169-.246 2.356 2.356 0 0 0-1.965.853 3.9 3.9 0 0 0-.676 2.469 3.517 3.517 0 0 0 .682 2.337 2.441 2.441 0 0 0 1.97.8 2.3 2.3 0 0 0 2.04-1.065h.046l.143.951h.372v-8.913H486zm0 3.649a3.253 3.253 0 0 1-.492 2.022 1.867 1.867 0 0 1-1.547.613q-2.056 0-2.056-2.646a3.548 3.548 0 0 1 .513-2.079 1.761 1.761 0 0 1 1.532-.716 1.848 1.848 0 0 1 1.567.633 3.468 3.468 0 0 1 .483 2.074z" class="prefix__cls-2" data-name="Path 6965" transform="translate(-316.798 -97.135)"/>
        <path id="prefix__Rectangle_979" d="M0 0H0.567V6.226H0z" class="prefix__cls-2" data-name="Rectangle 979" transform="translate(174.787 379.211)"/>
        <path id="prefix__Path_6966" d="M514.691 474.976q-.361 0-.361.55t.361.555a.317.317 0 0 0 .278-.149.72.72 0 0 0 .1-.407.7.7 0 0 0-.1-.407.321.321 0 0 0-.278-.142z" class="prefix__cls-2" data-name="Path 6966" transform="translate(-339.623 -98.045)"/>
        <path id="prefix__Path_6967" d="M535.461 481.97a2.34 2.34 0 0 0-2.16.974h-.034l-.109-.854h-.481v6.227h.567v-3.437a2.66 2.66 0 0 1 .518-1.83 2.122 2.122 0 0 1 1.635-.564 1.6 1.6 0 0 1 1.226.427 1.969 1.969 0 0 1 .4 1.366v4.038h.561v-4.073q-.004-2.274-2.123-2.274z" class="prefix__cls-2" data-name="Path 6967" transform="translate(-352.305 -102.88)"/>
        <path id="prefix__Path_6968" d="M564.742 481.97a2.226 2.226 0 0 0-1.6.564 1.971 1.971 0 0 0-.593 1.5 2 2 0 0 0 .3 1.1 1.772 1.772 0 0 0 .848.7 1.333 1.333 0 0 0-.8 1.1.81.81 0 0 0 .169.507 1.1 1.1 0 0 0 .45.341 2.066 2.066 0 0 0-1.08.578 1.5 1.5 0 0 0-.4 1.066 1.454 1.454 0 0 0 .644 1.26 3.134 3.134 0 0 0 1.819.453 4.073 4.073 0 0 0 2.277-.536 1.725 1.725 0 0 0 .8-1.521 1.427 1.427 0 0 0-.538-1.212 2.527 2.527 0 0 0-1.552-.409H564.4a1.542 1.542 0 0 1-.759-.137.473.473 0 0 1-.226-.435.845.845 0 0 1 .177-.51 1.486 1.486 0 0 1 .516-.418 3.458 3.458 0 0 0 .6.035 2.26 2.26 0 0 0 1.607-.559 1.9 1.9 0 0 0 .6-1.458 2.2 2.2 0 0 0-.516-1.409l1.289-.08v-.4h-1.993a2.956 2.956 0 0 0-.953-.12zm-.384 6.054h1.02a2.336 2.336 0 0 1 1.243.252.9.9 0 0 1 .384.813q0 1.564-2.451 1.564-1.907 0-1.907-1.283-.001-1.345 1.711-1.346zm1.982-4.015a1.507 1.507 0 0 1-.415 1.145 1.962 1.962 0 0 1-2.366 0 1.435 1.435 0 0 1-.438-1.12 1.605 1.605 0 0 1 .427-1.188 1.583 1.583 0 0 1 1.171-.427 1.684 1.684 0 0 1 1.194.4 1.556 1.556 0 0 1 .427 1.19z" class="prefix__cls-2" data-name="Path 6968" transform="translate(-372.604 -102.88)"/>
    </g>
</svg>
