<svg xmlns="http://www.w3.org/2000/svg" xmlns:xlink="http://www.w3.org/1999/xlink" width="77.235" height="47.302" viewBox="0 0 77.235 47.302">
  <defs>
    <linearGradient id="linear-gradient" x1="0.681" y1="0.175" x2="0.278" y2="0.897" gradientUnits="objectBoundingBox">
      <stop offset="0" stop-color="#3f873f"/>
      <stop offset="0.33" stop-color="#3e8a3d"/>
      <stop offset="0.637" stop-color="#3e9537"/>
      <stop offset="0.934" stop-color="#3da82d"/>
      <stop offset="1" stop-color="#3dae2b"/>
    </linearGradient>
    <clipPath id="clip-path">
      <path id="Path_9257" data-name="Path 9257" d="M203.042,226.045a.889.889,0,0,0-.888,0L194.8,230.29a.888.888,0,0,0-.444.77v8.5a.889.889,0,0,0,.444.77l7.356,4.248a.888.888,0,0,0,.889,0l7.355-4.248a.889.889,0,0,0,.444-.77v-8.5a.888.888,0,0,0-.444-.769Z" transform="translate(-194.353 -225.926)" fill="url(#linear-gradient)" clip-rule="evenodd"/>
    </clipPath>
    <linearGradient id="linear-gradient-2" x1="-57.151" y1="0.5" x2="68.852" y2="0.5" gradientUnits="objectBoundingBox">
      <stop offset="0.092" stop-color="#6abf4b"/>
      <stop offset="0.289" stop-color="#63b649"/>
      <stop offset="0.603" stop-color="#519f44"/>
      <stop offset="0.862" stop-color="#3f873f"/>
    </linearGradient>
    <linearGradient id="linear-gradient-3" x1="-347.794" x2="1" xlink:href="#linear-gradient-2"/>
    <linearGradient id="linear-gradient-4" x1="-1.037" x2="1.006" xlink:href="#linear-gradient-2"/>
    <linearGradient id="linear-gradient-5" x1="1.303" y1="-2.11" x2="0.044" y2="2.012" xlink:href="#linear-gradient"/>
  </defs>
  <g id="Group_14488" data-name="Group 14488" transform="translate(-78.306 -164.017)">
    <g id="Group_14481" data-name="Group 14481" transform="translate(108.042 192.286)">
      <path id="Path_9239" data-name="Path 9239" d="M257.062,344.962a1.463,1.463,0,0,1-.732-.2L254,343.388c-.348-.194-.178-.263-.063-.3a4.638,4.638,0,0,0,1.053-.479.179.179,0,0,1,.173.013l1.789,1.062a.23.23,0,0,0,.216,0l6.975-4.026a.22.22,0,0,0,.107-.189v-8.049a.225.225,0,0,0-.108-.192l-6.972-4.022a.219.219,0,0,0-.215,0l-6.97,4.023a.225.225,0,0,0-.111.191v8.049a.214.214,0,0,0,.11.186l1.911,1.1c1.037.518,1.672-.092,1.672-.705V332.1a.2.2,0,0,1,.2-.2h.884a.2.2,0,0,1,.2.2v7.947a1.933,1.933,0,0,1-2.065,2.177,2.984,2.984,0,0,1-1.607-.437l-1.829-1.053a1.473,1.473,0,0,1-.732-1.272v-8.049a1.469,1.469,0,0,1,.732-1.271l6.975-4.03a1.528,1.528,0,0,1,1.466,0l6.974,4.03a1.472,1.472,0,0,1,.733,1.271v8.049a1.476,1.476,0,0,1-.733,1.272l-6.974,4.027A1.463,1.463,0,0,1,257.062,344.962Z" transform="translate(-248.624 -325.929)" fill="#a5adc0"/>
      <path id="Path_9240" data-name="Path 9240" d="M291.841,366.65c-3.052,0-3.692-1.4-3.692-2.576a.2.2,0,0,1,.2-.2h.9a.2.2,0,0,1,.2.171c.136.918.542,1.381,2.388,1.381,1.469,0,2.095-.332,2.095-1.112,0-.45-.177-.783-2.461-1.007-1.908-.189-3.089-.61-3.089-2.137,0-1.407,1.186-2.246,3.175-2.246,2.234,0,3.34.775,3.48,2.439a.2.2,0,0,1-.2.219h-.905a.2.2,0,0,1-.2-.158c-.217-.966-.745-1.275-2.178-1.275-1.6,0-1.791.559-1.791.978,0,.507.22.655,2.386.942,2.143.283,3.162.685,3.162,2.191S294.051,366.65,291.841,366.65Z" transform="translate(-281.248 -353.162)" fill="#a5adc0"/>
    </g>
    <g id="Group_14482" data-name="Group 14482" transform="translate(126.004 195.988)">
      <path id="Path_9241" data-name="Path 9241" d="M354.189,348.475a1.344,1.344,0,1,1-1.344-1.345A1.348,1.348,0,0,1,354.189,348.475Zm-2.471,0a1.127,1.127,0,1,0,1.124-1.124A1.128,1.128,0,0,0,351.717,348.471Zm.622-.75h.519c.178,0,.527,0,.527.4a.347.347,0,0,1-.285.37c.207.014.221.149.249.341a1.487,1.487,0,0,0,.078.4h-.32c-.008-.071-.057-.455-.057-.476-.021-.086-.05-.128-.156-.128h-.263v.6h-.292Zm.285.661h.234a.2.2,0,0,0,.228-.213c0-.207-.142-.207-.221-.207h-.241Z" transform="translate(-351.5 -347.13)" fill="#a5adc0"/>
    </g>
    <path id="Path_9242" data-name="Path 9242" d="M94.881,230.222a.892.892,0,0,0-.447-.776l-7.395-4.256a.869.869,0,0,0-.407-.118h-.076a.881.881,0,0,0-.408.118l-7.395,4.256a.9.9,0,0,0-.447.776l.016,11.459a.439.439,0,0,0,.223.386.43.43,0,0,0,.444,0l4.395-2.517a.9.9,0,0,0,.447-.775v-5.354a.89.89,0,0,1,.446-.773l1.871-1.078a.889.889,0,0,1,.448-.12.875.875,0,0,1,.444.12l1.871,1.078a.891.891,0,0,1,.447.773v5.354a.9.9,0,0,0,.448.775l4.394,2.517a.435.435,0,0,0,.446,0,.446.446,0,0,0,.222-.386Z" transform="translate(0 -50.396)" fill="#a5adc0" fill-rule="evenodd"/>
    <path id="Path_9243" data-name="Path 9243" d="M321.621,164.074a.447.447,0,0,0-.664.39v11.349a.312.312,0,0,1-.469.271l-1.852-1.067a.893.893,0,0,0-.893,0l-7.4,4.269a.893.893,0,0,0-.447.774v8.54a.894.894,0,0,0,.447.774l7.4,4.272a.893.893,0,0,0,.894,0l7.4-4.272a.894.894,0,0,0,.447-.774V167.31a.894.894,0,0,0-.458-.78Zm-.686,21.72a.223.223,0,0,1-.112.193l-2.54,1.464a.223.223,0,0,1-.223,0l-2.54-1.464a.223.223,0,0,1-.112-.193v-2.933a.224.224,0,0,1,.112-.194l2.54-1.467a.223.223,0,0,1,.223,0l2.54,1.467a.224.224,0,0,1,.111.194Z" transform="translate(-191.158)" fill="#a5adc0" fill-rule="evenodd"/>
    <g id="Group_14483" data-name="Group 14483" transform="translate(139.009 174.781)">
      <path id="Path_9244" data-name="Path 9244" d="M442.076,233.67a.893.893,0,0,0,.445-.772v-2.07a.893.893,0,0,0-.445-.773l-7.35-4.268a.893.893,0,0,0-.9,0l-7.4,4.269a.893.893,0,0,0-.447.773v8.538a.893.893,0,0,0,.451.776l7.349,4.188a.893.893,0,0,0,.876,0l4.445-2.471a.447.447,0,0,0,.006-.778l-7.442-4.271a.447.447,0,0,1-.225-.387v-2.676a.446.446,0,0,1,.224-.387l2.316-1.335a.446.446,0,0,1,.446,0l2.317,1.335a.446.446,0,0,1,.224.387v2.105a.447.447,0,0,0,.671.386Z" transform="translate(-425.989 -225.667)" fill="#a5adc0" fill-rule="evenodd"/>
      <path id="Path_9245" data-name="Path 9245" d="M465.731,269.105a.171.171,0,0,1,.171,0l1.42.819a.172.172,0,0,1,.086.149v1.639a.172.172,0,0,1-.086.149l-1.42.819a.171.171,0,0,1-.171,0l-1.418-.819a.172.172,0,0,1-.086-.149v-1.639a.172.172,0,0,1,.086-.149Z" transform="translate(-457.551 -261.502)" fill="#9099b1" fill-rule="evenodd"/>
    </g>
    <g id="Group_14487" data-name="Group 14487" transform="translate(98.567 174.826)">
      <path id="Path_9246" data-name="Path 9246" d="M203.042,226.045a.889.889,0,0,0-.888,0L194.8,230.29a.888.888,0,0,0-.444.77v8.5a.889.889,0,0,0,.444.77l7.356,4.248a.888.888,0,0,0,.889,0l7.355-4.248a.889.889,0,0,0,.444-.77v-8.5a.888.888,0,0,0-.444-.769Z" transform="translate(-194.353 -225.926)" fill="#8890a7" fill-rule="evenodd"/>
      <g id="Group_14486" data-name="Group 14486" transform="translate(0 0)" clip-path="url(#clip-path)">
        <g id="Group_14484" data-name="Group 14484" transform="translate(-0.062 0.001)">
          <path id="Path_9247" data-name="Path 9247" d="M201.847,226.048l-7.372,4.245a.918.918,0,0,0-.475.77v8.5a.859.859,0,0,0,.229.565l8.283-14.169A.9.9,0,0,0,201.847,226.048Z" transform="translate(-194 -225.929)" fill="none"/>
          <path id="Path_9248" data-name="Path 9248" d="M242.988,266.011a.876.876,0,0,0,.207-.086l7.364-4.248a.907.907,0,0,0,.462-.77v-8.5a.878.878,0,0,0-.269-.617Z" transform="translate(-234.435 -247.277)" fill="none"/>
          <path id="Path_9249" data-name="Path 9249" d="M211.2,230.418l-7.377-4.245a.885.885,0,0,0-.231-.092l-8.283,14.169a1.015,1.015,0,0,0,.248.2l7.389,4.248a.9.9,0,0,0,.686.086L211.4,230.57A.972.972,0,0,0,211.2,230.418Z" transform="translate(-195.084 -226.054)" fill="#9099b1"/>
        </g>
        <g id="Group_14485" data-name="Group 14485" transform="translate(-0.062 -1.442)">
          <path id="Path_9250" data-name="Path 9250" d="M250.639,239.647v-8.5a.91.91,0,0,0-.467-.769l-7.377-4.245a.887.887,0,0,0-.271-.1l8.087,13.815A.813.813,0,0,0,250.639,239.647Z" transform="translate(-234.053 -224.575)" fill="none"/>
          <path id="Path_9251" data-name="Path 9251" d="M194.475,250.8a.918.918,0,0,0-.475.77v8.5a.922.922,0,0,0,.477.77l7.389,4.248a.9.9,0,0,0,.568.111l-7.916-14.42Z" transform="translate(-194 -244.995)" fill="none"/>
          <path id="Path_9252" data-name="Path 9252" d="M237.149,217.669l-.1.058h.135Z" transform="translate(-229.532 -217.669)" fill="url(#linear-gradient-2)"/>
          <path id="Path_9253" data-name="Path 9253" d="M212.58,240.333a.93.93,0,0,0,.435-.566l-8.087-13.815a.9.9,0,0,0-.625.1l-7.327,4.22,7.916,14.42a.888.888,0,0,0,.325-.111Z" transform="translate(-196.456 -224.491)" fill="#a5adc0"/>
          <path id="Path_9254" data-name="Path 9254" d="M290.049,307.226l-.049-.083v.112Z" transform="translate(-273.239 -291.521)" fill="url(#linear-gradient-3)"/>
          <path id="Path_9255" data-name="Path 9255" d="M250,305.73l-7.364,4.248a.888.888,0,0,1-.325.111l.147.267,8.179-4.734v-.112l-.2-.346A.93.93,0,0,1,250,305.73Z" transform="translate(-233.878 -289.888)" fill="url(#linear-gradient-4)"/>
          <path id="Path_9256" data-name="Path 9256" d="M250,305.73l-7.364,4.248a.888.888,0,0,1-.325.111l.147.267,8.179-4.734v-.112l-.2-.346A.93.93,0,0,1,250,305.73Z" transform="translate(-233.878 -289.888)" fill="url(#linear-gradient-5)"/>
        </g>
      </g>
    </g>
  </g>
</svg>
