<svg xmlns="http://www.w3.org/2000/svg" width="162.747" height="53.773" viewBox="0 0 162.747 53.773">
    <defs>
        <clipPath id="prefix__clip-path">
            <path id="prefix__Clip_22" d="M0 0h3.4v11.063H0z" class="prefix__cls-1" data-name="Clip 22" transform="translate(0 .361)"/>
        </clipPath>
        <style>
            .prefix__cls-1{fill:#e6e6e6}.prefix__cls-2{fill:#fff}
        </style>
    </defs>
    <g id="prefix__Group_31" data-name="Group 31" transform="translate(0 -.227)">
        <path id="prefix__Fill_1" d="M19.755 15.246L5.989.773 0 .749v32.424h9.246v-14.9L23.044 34H29V0h-9.245z" class="prefix__cls-2" data-name="Fill 1" transform="translate(3 19)"/>
        <path id="prefix__Fill_2" d="M16.494 13.97L5.956.147H0V34h9.113V19.417l5.026 5.638h4.638l5.11-5.678V34H33V.231L27.072 0z" class="prefix__cls-2" data-name="Fill 2" transform="translate(79 19)"/>
        <g id="prefix__Group_30" data-name="Group 30">
            <path id="prefix__Fill_3" d="M12.809 32.647H0V0h12.747A16.487 16.487 0 0 1 24.1 4.735 16.062 16.062 0 0 1 29.084 16.3a15.856 15.856 0 0 1-4.771 11.331A17.639 17.639 0 0 1 12.87 32.64zM9.09 8.827V23.82h3.657a7.232 7.232 0 0 0 7.084-7.52c0-4.332-2.979-7.476-7.084-7.476z" class="prefix__cls-2" data-name="Fill 3" transform="translate(133.663 18.906)"/>
            <path id="prefix__Fill_5" d="M13.618 27.193a14.063 14.063 0 0 1-2.278-.187 16.274 16.274 0 0 1-2.14-.557c-.272-.084-.553-.171-.832-.251a1.892 1.892 0 0 0-.594-.312l-.137-.053A13.986 13.986 0 0 1 2.9 21.99 13.628 13.628 0 0 1 4.579 3.422 13.424 13.424 0 0 1 10.873.3a14.2 14.2 0 0 1 2.85-.3 13.475 13.475 0 0 1 7.166 2.108c.062.038.129.072.193.1l.1.05a2.44 2.44 0 0 0 .668.473l.053.057a1.066 1.066 0 0 0 .111.112 13.943 13.943 0 0 1 4.618 6.622 13.646 13.646 0 0 1 0 8.055 13.32 13.32 0 0 1-4.909 6.96 13.577 13.577 0 0 1-8.105 2.656zM3.82 17.7a.721.721 0 0 0-.08.616A8.16 8.16 0 0 0 5.062 21.3a1.8 1.8 0 0 1 .421 1.411.762.762 0 0 0 .305.7c.114.108.233.214.348.316a6.559 6.559 0 0 1 .956.985 2.175 2.175 0 0 0 1.371 1.068 4.978 4.978 0 0 1 1.6.415l.117-.372c.082-.255.158-.493.216-.733.076-.316.265-.341.5-.341h.034a.751.751 0 0 0 .4-.072l-.1-.237-.293-.666.135-.074h.006c.423-.231.823-.45.948-.934.15-.009.3-.02.446-.031.327-.024.634-.047.946-.047h.071c.308 0 .459-.107.523-.369l.137.066.073.036c.134.066.261.129.39.181a1.049 1.049 0 0 1 .186.109.569.569 0 0 0 .285.129.2.2 0 0 0 .087-.02l.211-.1a2.716 2.716 0 0 0 1.613-1.393 3.278 3.278 0 0 1 .438-.825 4.317 4.317 0 0 1-1.715-2.059 1.736 1.736 0 0 0-.216-.422c-.077-.109-.148-.226-.217-.339a1.611 1.611 0 0 0-1.117-.947.5.5 0 0 1-.407-.269l.184.055h.01a4.179 4.179 0 0 0 .477.125 1.156 1.156 0 0 0 .205.02.452.452 0 0 0 .345-.124.631.631 0 0 0 .119-.482c-.065-1.029-.065-1.029-1.1-1.069a.471.471 0 0 1-.121-.026l-.046-.013a.784.784 0 0 1 .167-.758 1.978 1.978 0 0 0 .145-.25.772.772 0 0 0-.405-.223.72.72 0 0 1-.393-.219v-.006h-.007a1.97 1.97 0 0 1-.832-1.233.812.812 0 0 1 .078-.638.266.266 0 0 1 .13.132c.043.069.087.141.185.141h.034a.2.2 0 0 0 .167-.247 9.612 9.612 0 0 0-.6-2.48.912.912 0 0 0-.91-.526 1.843 1.843 0 0 0-.813.2c-.024.012-.049.022-.075.033-.1.042-.213.085-.214.24s.1.186.206.2a.366.366 0 0 1 .139.044.222.222 0 0 0 .1.028c.071.008.145.017.171.132a.237.237 0 0 1-.156.047 1 1 0 0 1-.128-.011.986.986 0 0 0-.131-.013c-.091 0-.189.026-.229.216a.873.873 0 0 1-.177-1.026.13.13 0 0 0-.12-.079.343.343 0 0 0-.084.014.351.351 0 0 1-.079.014c-.047 0-.076-.027-.094-.086l-.044-.147a3.18 3.18 0 0 1-.145-.636.253.253 0 0 1 .063-.2.433.433 0 0 1 .316-.114h.039a.847.847 0 0 0 .665-.272.976.976 0 0 0 .183-.8.739.739 0 0 0-.293.427.714.714 0 0 1-.2.34.7.7 0 0 1-.411.178.448.448 0 0 1-.358-.213c.375-.395.517-.627.505-.831-.009-.153-.1-.295-.319-.474a1.3 1.3 0 0 1 .133-.05c.13-.044.254-.085.293-.225a1.541 1.541 0 0 1 .323-.521c.252-.308.512-.627.219-1.126a.367.367 0 0 1 .083-.4 2.438 2.438 0 0 1 .714-.558 12.446 12.446 0 0 1 2.946-1.013.319.319 0 0 0 .259-.39.649.649 0 0 1-.162.021 1.083 1.083 0 0 1-.512-.174 1.823 1.823 0 0 0-.273-.129 6.667 6.667 0 0 0-1.542-.262c-.21-.019-.427-.039-.638-.066a.334.334 0 0 0 .108.279.245.245 0 0 1 .087.2.55.55 0 0 1-.337.153.416.416 0 0 1-.218-.067.865.865 0 0 0-.459-.132 1.54 1.54 0 0 0-.71.224c-.171.092-.339.194-.5.294-.1.063-.211.129-.318.191a.222.222 0 0 1-.09.024h-.026a.242.242 0 0 1-.041-.164c0-.072 0-.141-.079-.187h-.07a1.4 1.4 0 0 0-.888.4 5.307 5.307 0 0 1-1.8.86 5.448 5.448 0 0 0-2.5 1.682 13.561 13.561 0 0 0-2.882 4.829 3.077 3.077 0 0 0-.2 1.488l.029.2a3.835 3.835 0 0 1-.148 2.32.73.73 0 0 0 .232.038 1.207 1.207 0 0 0 .249-.033l.089-.017a3.759 3.759 0 0 1 .638-.06 2 2 0 0 1 1.345.468 2.588 2.588 0 0 0 1.06.516c.294.075.582.153.887.237l.02.005.363.1c-.361.385-.621.592-.957.592a1.935 1.935 0 0 1-.733-.2.389.389 0 0 0-.155-.034.6.6 0 0 0-.159.026c-.411.113-.421.4-.431.7 0 .053 0 .105-.008.157a2 2 0 0 0 .488.092.953.953 0 0 1 .958.591 1.624 1.624 0 0 1-.232 1.65l-.222-.279zm11.4 6.649a.938.938 0 0 0 .268 1.094l.047.035a.275.275 0 0 0 .159.077.167.167 0 0 0 .085-.025.355.355 0 0 0 .164-.318c.023-.434-.254-.592-.547-.759-.053-.029-.113-.063-.171-.1zm9.98-15.6a1.867 1.867 0 0 1 .706.977 1.031 1.031 0 0 1 .069.713.225.225 0 0 1-.1.089c-.135.068-.21.143-.231.229-.031.128.059.264.171.417a1 1 0 0 0 .131.135c.115.1.234.212.169.361a1.139 1.139 0 0 0 .089.957l.031.076a1.488 1.488 0 0 1 .052 1.153 8.046 8.046 0 0 1-.639 1.062c-.08.119-.163.241-.241.363a8.146 8.146 0 0 0-.5.937 4.173 4.173 0 0 1-1.16 1.665l.135.234.15.259a3.081 3.081 0 0 0-.684 1.206.725.725 0 0 1-.489.529c-.035.015-.072.028-.11.041-.183.066-.372.134-.446.362a4.775 4.775 0 0 1-1.2 1.739l-.2.213a.994.994 0 0 1-.077.072c-.073.064-.147.129-.15.209a.193.193 0 0 0 .069.14 1.3 1.3 0 0 1 .177.25c.11.183.223.373.456.373a.491.491 0 0 0 .073-.006 2.647 2.647 0 0 0 1.631-.778 13.709 13.709 0 0 0 3.418-6.378c.023-.1.054-.2.086-.3.146-.468.3-.951-.257-1.351.483-.239.467-.619.452-.987 0-.075-.006-.152 0-.226a1.436 1.436 0 0 0-.2-.651 1.553 1.553 0 0 1-.189-.561.115.115 0 0 1 .1-.053.27.27 0 0 1 .073.014.28.28 0 0 0 .071.013.088.088 0 0 0 .074-.038 12.688 12.688 0 0 0-2.443-6.358 5.885 5.885 0 0 0-1.7-1.64 13.124 13.124 0 0 0-2.583-1.166 5.539 5.539 0 0 1-.642-.269 5.64 5.64 0 0 0-.6-.253 3.055 3.055 0 0 1-1.242-.676 1.867 1.867 0 0 0-.6-.34 2.282 2.282 0 0 1-.555-.3.033.033 0 0 0-.021-.006.245.245 0 0 0-.062.014.391.391 0 0 1-.044.012c0 .05.033.081.068.111s.086.073.061.144c-.067-.009-.134-.021-.2-.033a2.3 2.3 0 0 0-.407-.048.991.991 0 0 0-.327.053c.149.3-.013.412-.185.528a.582.582 0 0 0-.254.262 2.3 2.3 0 0 0 1.328.627 2.924 2.924 0 0 1 1.127.426c-.141.319.06.438.273.564a.853.853 0 0 1 .287.228c-.135.165-.2.237-.255.237s-.092-.067-.166-.226c-.061-.13-.127-.213-.269-.222h-.035a.809.809 0 0 0-.747.716c-.006.111-.018.221-.031.348l-.021.214a.517.517 0 0 0-.188-.037.793.793 0 0 0-.414.158h-.007a.779.779 0 0 1-.4.155h-.047a.759.759 0 0 0-.016.477 5.018 5.018 0 0 0 .827.054h.549c.39 0 .49-.146.539-.414a.431.431 0 0 0-.272-.227.707.707 0 0 1-.164-.087 1.338 1.338 0 0 0 .043-.218c.033-.232.066-.472.433-.472.032 0 .067 0 .1.005a.8.8 0 0 0-.065.454 1.233 1.233 0 0 1 0 .223h.067c.05 0 .1.006.143.006a.335.335 0 0 0 .258-.08.392.392 0 0 0 .06-.309.78.78 0 0 1 .159.1.388.388 0 0 0 .213.1.227.227 0 0 0 .131-.043.291.291 0 0 0 .1-.257.316.316 0 0 1 .086-.243.227.227 0 0 1 .189.245v.048a.631.631 0 0 1-.1.5.8.8 0 0 1-.49.183 1.532 1.532 0 0 0-.3.061c-.4.14-.584.2-.474.634.026.1.045.207.063.31a1.2 1.2 0 0 0 .568 1 .215.215 0 0 1 .076.113c.249.673.475.868 1.007.868.077 0 .161 0 .259-.013a3.858 3.858 0 0 0 .022-1.088l-.018-.26-.047-.011a.223.223 0 0 0-.053-.01h-.014a1.309 1.309 0 0 1-.343.049.687.687 0 0 1-.562-.239.833.833 0 0 1-.11-.716.326.326 0 0 0-.043-.232.463.463 0 0 1-.045-.122l.047-.078.038-.042a.691.691 0 0 1 .29.324 1.166 1.166 0 0 0 .1.152c0 .065-.053.076-.1.086a.12.12 0 0 0-.085.041.129.129 0 0 0 0 .1 2.1 2.1 0 0 1 .18.136 1.045 1.045 0 0 0 .378.228.3.3 0 0 0 .154-.161c.043-.078.084-.151.193-.154l-.008.01h.012c.1.438.244.641.453.641a.811.811 0 0 0 .467-.227c-.111-.388-.12-.42-.419-.42H19.388v-.01a.917.917 0 0 1 .788-.323c.049 0 .1 0 .16.005.386.025.466.434.482.559a.923.923 0 0 0 .182.427 1.611 1.611 0 0 1 .121.194 2.651 2.651 0 0 0 .224.351 1.749 1.749 0 0 1 .353.705c-.158-.093-.31-.185-.459-.275-.353-.214-.687-.415-1.033-.592a.613.613 0 0 0-.271-.078.258.258 0 0 0-.195.079.555.555 0 0 0-.105.41.961.961 0 0 0 .314.689.16.16 0 0 1-.132.058.568.568 0 0 1-.061 0 .551.551 0 0 0-.06 0 .119.119 0 0 0-.107.052.145.145 0 0 0 .062.145.318.318 0 0 1 .046.052c.032.049.066.1.1.145a1.155 1.155 0 0 1 .3.829c-.048.328-.056.49.023.582s.24.107.551.109h.007a.619.619 0 0 0 .415-.169.494.494 0 0 1 .281-.135.157.157 0 0 1 .139.082.706.706 0 0 0 .647.373 2.3 2.3 0 0 0 .424-.052 1.482 1.482 0 0 1 .214-.02.693.693 0 0 0 .478-.148.357.357 0 0 1 .23-.07.454.454 0 0 1 .27.081.948.948 0 0 0 .581.156.612.612 0 0 1 .562.369 1.414 1.414 0 0 1 .058.131c.063.155.128.315.337.345l.024-.037a.141.141 0 0 0 .03-.06.268.268 0 0 0-.012-.139l-.086-.169a1.581 1.581 0 0 1-.17-1.688.27.27 0 0 0 .011-.166.57.57 0 0 1-.006-.116.73.73 0 0 0 0-.108c-.006-.1-.011-.206.1-.277zM3.873 21.464a1.267 1.267 0 0 0 .18 1 1.285 1.285 0 0 0 .754.7 1.343 1.343 0 0 0-.934-1.7zm16.7-5.016a.806.806 0 0 0 0 .9.9.9 0 0 0 .607-.723l-.571-.167-.04-.012zm-3.346-1.2a.425.425 0 0 0-.315.142.179.179 0 0 0-.046.167.193.193 0 0 0 .136.136l.027.009a1.273 1.273 0 0 0 .379.085c.2 0 .338-.12.434-.376a1.681 1.681 0 0 1-.272-.081 1.048 1.048 0 0 0-.343-.083zm8.5-3.8a.741.741 0 0 0-.4.488l-.009.023a2.93 2.93 0 0 0-.14 1.237 3.232 3.232 0 0 1-.1 1.133 1.417 1.417 0 0 0 .368-1.271c-.005-.117-.011-.239-.008-.355a1.593 1.593 0 0 1 .192-.845.762.762 0 0 1 .052-.071.26.26 0 0 0 .05-.34zm-4.309 1.891a.505.505 0 0 0-.418.141c-.108.129-.125.363-.055.759.513-.055.638-.238.608-.891-.043-.004-.09-.006-.136-.006zm-7.877.132a2.138 2.138 0 0 1 .42.057 2.185 2.185 0 0 0 .437.058 1 1 0 0 0 .212-.022 1.313 1.313 0 0 1-.1-1.664l-.256-.142-.247-.136a1.747 1.747 0 0 1-.337 1.058 1.906 1.906 0 0 0-.323.811.868.868 0 0 1 .193-.017zm5.193-1.371c-.082.072-.173.14-.261.206-.336.252-.653.49-.529.917.068.234.293.347.69.347.079 0 .164 0 .261-.014a3.575 3.575 0 0 0-.112-.443 1.425 1.425 0 0 1-.048-1.014zm-4.048.45a.529.529 0 0 0-.161.029c.035.445.075.549.392.549.069 0 .154 0 .291-.017a.715.715 0 0 1-.208-.289c-.074-.14-.14-.273-.314-.273zM21 11.066c-.244.161-.331.272-.2.5.211-.086.263-.214.2-.5zm-5.776-1.16a.25.25 0 0 0-.212.176.156.156 0 0 0 .059.209l.045.023a.889.889 0 0 0 .39.131.413.413 0 0 0 .227-.069c.265-.168.284-.287.1-.636a.738.738 0 0 1-.454.182.606.606 0 0 1-.117-.012.211.211 0 0 0-.042 0zm-.886-2.8c.244 0 .3.165.308.413a1.246 1.246 0 0 0 .275.643 1.215 1.215 0 0 1 .279.685c0 .043.079.1.133.128a8.8 8.8 0 0 0 1.17.43c.168.053.341.107.508.165a2.409 2.409 0 0 1 .842.421 1.062 1.062 0 0 1 .091.091c.073.08.149.162.245.162a.221.221 0 0 0 .13-.048.487.487 0 0 0 .152-.56c-.034-.1-.064-.206-.092-.308-.129-.463-.263-.942-.889-1.093-.155-.037-.206-.245-.244-.4-.021-.084-.037-.151-.065-.168-.367-.23-.329-.511-.289-.81.009-.064.018-.13.022-.2a.428.428 0 0 0-.1-.327.5.5 0 0 0-.37-.143l-.263-.006A7.681 7.681 0 0 1 15.1 6.12a.71.71 0 0 0-.117-.01.559.559 0 0 0-.428.2.165.165 0 0 0-.058.121c0 .055.059.1.112.137s.1.079.113.133a.545.545 0 0 1-.2.126.61.61 0 0 0-.338.3.76.76 0 0 1 .154-.017zm-1.478-.081c-.036.079.009.118.052.156s.079.07.052.134l-.164.038-.331.075a.5.5 0 0 0 .455.361.485.485 0 0 0 .126-.017c.229-.061.38-.266.449-.607l-.044-.01zm-1.594-2.353a.229.229 0 0 0-.08.014.691.691 0 0 0 .276.46l.021.02a.259.259 0 0 0 .177.066.3.3 0 0 0 .214-.09c.012-.012.026-.025.042-.038.066-.058.147-.13.069-.233l-.037-.055c-.042-.066-.09-.14-.143-.14a.074.074 0 0 0-.052.025.216.216 0 0 1-.152.073.377.377 0 0 1-.157-.049h-.005a.415.415 0 0 0-.173-.053z" class="prefix__cls-1" data-name="Fill 5" transform="translate(44.154 17.798)"/>
            <path id="prefix__Fill_7" d="M2.392.008c.348-.028.457.365.766.441.083.02.041.317-.1.454l-.148.121c-.063.051-.15.092-.1.2.1.022.141-.039.191-.09l.173-.113 1.645-1c-.109.449-.545.6-.8.927.1.106.018.3.182.4A1.721 1.721 0 0 1 5.243.456 1.04 1.04 0 0 1 6.335.75a2.4 2.4 0 0 1 .715 1.06l.007-.01c-.077-.009-.179.013-.228-.029-.563-.471-1.029-.284-1.448.207a.45.45 0 0 1-.727.047 1.509 1.509 0 0 0-1.6-.265.535.535 0 0 1-.373.026L0 .827C.553.51 1.023.284 1.587.672a.583.583 0 0 0 .787-.046C2.586.416 2.3.2 2.4 0z" class="prefix__cls-1" data-name="Fill 7" transform="translate(50.786 32.518)"/>
            <path id="prefix__Fill_9" d="M1.2 2.781C.83 2.39.154 2.566.083 1.874c-.022-.211.057-.264.208-.306-.033-.2-.336-.224-.285-.473.169-.048.29.1.441.105C.771.86.7.416.8 0c.083.405.344.77.106 1.221a.73.73 0 0 0 .257 1.108c.149.108.079.211.039.452" class="prefix__cls-1" data-name="Fill 9" transform="translate(55.238 27.622)"/>
            <path id="prefix__Fill_11" d="M1.414 1.771A12.737 12.737 0 0 1 0 .828C.2.479.658.416.719 0 .986.23.986.23.68.51c.2.264.408-.067.655.043a1.562 1.562 0 0 1 .071 1.225z" class="prefix__cls-1" data-name="Fill 11" transform="translate(51.801 30.771)"/>
            <path id="prefix__Fill_13" d="M14.475 28.889a14.445 14.445 0 1 1 14.474-14.445 14.476 14.476 0 0 1-14.474 14.445zm0-27.474a13.03 13.03 0 1 0 13.057 13.029A13.058 13.058 0 0 0 14.475 1.415z" class="prefix__cls-2" data-name="Fill 13" transform="translate(43.384 17.102)"/>
            <path id="prefix__Fill_15" d="M18.58 30.476l2.881-.494.057-.013a18.011 18.011 0 0 0 4.272-1.739 17.066 17.066 0 0 0 2.494-1.752l.464-.391-2.221-2.611-.922.782 1.427 1.679a15.477 15.477 0 0 1-1.847 1.247 16.767 16.767 0 0 1-3.96 1.616l-2.764.477c-.1.008-.2.014-.306.02v.003l-2.147-.078a16.129 16.129 0 0 1-14.33-12.043A15.944 15.944 0 0 1 6.3 1.648l1.6 1.6.855-.853L6.362 0l-.425.36A17.139 17.139 0 0 0 .5 17.469a17.337 17.337 0 0 0 15.3 12.942v2.963c-3.994.108-7.027.641-7.027 1.285s3.027 1.176 7.027 1.284v.012h.55q.464.008.942.008c4.705 0 8.52-.584 8.52-1.3 0-.672-3.319-1.226-7.584-1.3V30.5c.119-.007.237-.014.356-.023" class="prefix__cls-2" data-name="Fill 15" transform="translate(40.348 18.037)"/>
            <path id="prefix__Fill_17" d="M8.34 35.119c-.6 0-.922-.8-.934-1.01l-.006-.122a7.687 7.687 0 0 1-.013-.914 3.061 3.061 0 0 0-.146-1.087l-.041-.141a3.248 3.248 0 0 1-.2-1.012 1.047 1.047 0 0 1 .032-.242 5.5 5.5 0 0 0 .168-1.356c0-.465-.05-.938-.1-1.4l-.024-.235c-.028-.28-.074-.563-.119-.837a8.918 8.918 0 0 1-.145-1.257 13.326 13.326 0 0 1 .067-1.43c.033-.365.056-.737.079-1.1l.031-.476a.562.562 0 0 0-.069-.275 6.091 6.091 0 0 1-.435-1.327 6.2 6.2 0 0 0-.309-.928l-.049-.125c-.021-.056-.062-.068-.113-.078a2.561 2.561 0 0 0-.468-.048H5.53a9.117 9.117 0 0 0-1.509.109 3.951 3.951 0 0 1-.679.076 1.678 1.678 0 0 1-.446-.056 1.649 1.649 0 0 1-.676-.368 3.151 3.151 0 0 1-.671-.869 3.737 3.737 0 0 1-.42-1.52 6.661 6.661 0 0 1 .4-2.593.229.229 0 0 0-.036-.251c-.05-.065-.105-.129-.158-.19a2.239 2.239 0 0 1-.284-.38 1.9 1.9 0 0 1-.158-.956 12.111 12.111 0 0 0-.168-1.8Q.7 10.772.68 10.615a4.327 4.327 0 0 0-.408-1.186l-.031-.067a.352.352 0 0 0-.075-.1c-.015-.016-.03-.031-.043-.048a.316.316 0 0 1 .006-.453.127.127 0 0 0 .025-.156A2.417 2.417 0 0 1 0 7.739a1.464 1.464 0 0 1 .36-.975 1.284 1.284 0 0 1 .749-.412 3.377 3.377 0 0 0 1.219-.437c.041-.024.06-.045.063-.068S2.38 5.8 2.35 5.774l-.007-.006c-.012-.01-.029-.023-.029-.04a.035.035 0 0 1 .013-.028.3.3 0 0 0 .053-.34.1.1 0 0 1 .012-.072.193.193 0 0 0 .018-.055l-.02.013c-.043.027-.067.041-.026.111a.209.209 0 0 1-.055.232.119.119 0 0 0-.033.081c-.007.043-.013.084-.066.084h-.028a.129.129 0 0 1-.014-.084.172.172 0 0 0 0-.061c-.023 0-.043.074-.064.147s-.041.144-.065.149c.011-.073.009-.12-.006-.139a.024.024 0 0 0-.019-.009c-.056 0-.162.149-.166.156a1.8 1.8 0 0 1 .072-.171A1.849 1.849 0 0 0 2 5.545c-.052 0-.217.164-.315.294l-.009.013a.318.318 0 0 1-.17.134.719.719 0 0 0 .1-.12l-.293.034c0-.024.109-.058.222-.092a.523.523 0 0 0 .075-.025.529.529 0 0 0 .227-.367.15.15 0 0 0-.04 0 1.8 1.8 0 0 0-.47.138l-.035.013a1.94 1.94 0 0 1-.549.152A.228.228 0 0 1 .67 5.7l.057-.021c.313-.114 1.047-.38 1.059-.656h-.018a.094.094 0 0 0-.072.042l-.007.008A3.762 3.762 0 0 1 .427 5.5l.2-.1c.315-.156.84-.415 1.015-.526a.331.331 0 0 0 .045-.036.212.212 0 0 1 .061-.038c.229-.089.253-.292.275-.488v-.017a2.975 2.975 0 0 0-.037-1.049 1.221 1.221 0 0 1 .02-.622l.075-.258c.092-.318.187-.646.287-.967a3.139 3.139 0 0 1 .385-.736c.034-.053.068-.106.1-.16a.633.633 0 0 1 .57-.3H3.588a.655.655 0 0 0 .375-.12A.516.516 0 0 1 4.252 0a.5.5 0 0 1 .284.093.258.258 0 0 0 .143.038.507.507 0 0 1 .064.006 1.087 1.087 0 0 1 .673.433.2.2 0 0 0 .169.083.8.8 0 0 1 .777.518 1.091 1.091 0 0 0 .111.185.871.871 0 0 1 .136.25 3.322 3.322 0 0 1 .089.5c.009.073.018.145.029.217.034.219.081.438.127.649.032.149.066.3.094.455a2.522 2.522 0 0 1 .028.82.222.222 0 0 1-.129.2.245.245 0 0 0-.138.137l-.009.025a.068.068 0 0 1-.053-.019.091.091 0 0 1 0-.072v-.005c.014-.079.025-.159.036-.236a3.713 3.713 0 0 1 .079-.432v-.007a.31.31 0 0 0-.015-.289c-.055.006-.058.04-.06.07a.154.154 0 0 1 0 .026c-.03.112-.057.227-.083.338-.04.17-.082.345-.133.516a1.421 1.421 0 0 0 .014.675c.022.1.051.209.08.311a3.034 3.034 0 0 1 .1.455c0 .042.028.051.059.063h.01a1.78 1.78 0 0 0 .18.062 1.3 1.3 0 0 1 .253.1 1.59 1.59 0 0 1 .595.635 2.953 2.953 0 0 1 .435 1.224L8.261 8c.043-.015.082-.029.121-.041a.249.249 0 0 1 .069-.012.073.073 0 0 1 .06.023.126.126 0 0 1 .01.1 3.466 3.466 0 0 0 .184 1.839 7.977 7.977 0 0 0 1.037 2.147 1.739 1.739 0 0 1 .236.644l.018.081v.018c.022.1.042.189.165.21a.065.065 0 0 1 .042.031.483.483 0 0 0 .411.21l.074.011c.121.019.236.038.293.159a5.17 5.17 0 0 0 .937-.115c.2-.037.407-.076.613-.1.029 0 .173-.033.288-.058l.148-.031q1.327-.232 2.652-.467h.007l.215-.038h.006l.089-.013a.429.429 0 0 1 .059 0 .182.182 0 0 1 .16.067.237.237 0 0 1 0 .221q-.337.875-.677 1.749l-.247.638c-.216.56-.439 1.138-.668 1.7a1.615 1.615 0 0 0-.094.46l-.006.061a.188.188 0 0 1-.174.187l-1.926.417h-.01l-.728.158-1.525.344a.3.3 0 0 0-.052.018l-.018.007c.03.158.076.313.121.464.027.092.055.186.079.279a.686.686 0 0 0 .36.371.527.527 0 0 1 .244.3.171.171 0 0 0 .031.055 11.678 11.678 0 0 1 1.422 2.2l.174.317a7.637 7.637 0 0 0 .538.8c.137.187.279.381.405.581a1.113 1.113 0 0 0 .277.281 2.668 2.668 0 0 1 .581.645 9.346 9.346 0 0 0 1.613 1.9c.485.414.863 1.058.545 1.494a.773.773 0 0 1-.648.345 1.76 1.76 0 0 1-1.058-.489 6.147 6.147 0 0 1-.886-1.068c-.112-.178-.243-.346-.37-.508s-.246-.315-.354-.483l-.031-.048a2.032 2.032 0 0 1-.124-.207 2.9 2.9 0 0 0-.424-.586l-.126-.148a11.527 11.527 0 0 0-1.472-1.4c-.221-.187-.449-.38-.667-.577-.294-.266-.607-.555-.918-.9a1.754 1.754 0 0 1-.031.175.851.851 0 0 0-.029.272 10.756 10.756 0 0 1 .082 1.89 18.428 18.428 0 0 1-.276 2.22c-.1.573-.186 1.181-.266 1.971-.017.158-.04.321-.069.485v.026a1.65 1.65 0 0 0-.036.476.631.631 0 0 1-.033.283.472.472 0 0 0-.019.132v.015a4.938 4.938 0 0 0 .256 1.789 8.3 8.3 0 0 1 .3 1.269 2.677 2.677 0 0 1 .013 1.054 1.009 1.009 0 0 1-.849.822zM7.4 11.347a1.318 1.318 0 0 1-.373.26.273.273 0 0 0-.15.249c-.009.092-.014.185-.019.276a2.814 2.814 0 0 1-.092.669.8.8 0 0 0 .094.656c.054.1.11.2.166.3a6.352 6.352 0 0 1 .55 1.163l.257.817c0 .008 0 .017.006.025.006.031.013.062.052.073a.177.177 0 0 0 .05.007.307.307 0 0 0 .277-.2l.105-.427c.092-.376.187-.763.293-1.141a.479.479 0 0 0-.139-.5 1.974 1.974 0 0 1-.559-.993 4.219 4.219 0 0 0-.4-.988c-.038-.084-.078-.164-.118-.246zM6.345 4.816c-.011.037-.026.075-.04.112a.425.425 0 0 0 0 .434 1.834 1.834 0 0 1 .04-.546z" class="prefix__cls-1" data-name="Fill 17" transform="translate(1.702 .479)"/>
            <path id="prefix__Fill_19" d="M3.961 20.506a.688.688 0 0 1-.079 0 4.584 4.584 0 0 1-.563-.115l-.068-.017a1.284 1.284 0 0 0-.306-.047.62.62 0 0 0-.194.03 2.548 2.548 0 0 1-.793.129 2.622 2.622 0 0 1-.817-.134.383.383 0 0 1-.248-.213.135.135 0 0 1-.011-.113.133.133 0 0 1 .1-.06.413.413 0 0 0 .118-.066l.034-.023a.471.471 0 0 1 .175-.086.527.527 0 0 0 .306-.168.268.268 0 0 1 .2-.078.23.23 0 0 1 .077.012l-.008.012-.022.032h.021a.161.161 0 0 0 .109-.056l.021-.019c.185-.153.376-.311.577-.455a1.164 1.164 0 0 0 .446-.572.9.9 0 0 0 .036-.24 1.6 1.6 0 0 1-.407.055 1.562 1.562 0 0 1-.262-.023 1.111 1.111 0 0 0-.187-.016 1.5 1.5 0 0 0-.609.147 1.557 1.557 0 0 1-.615.138 1.268 1.268 0 0 1-.729-.236.685.685 0 0 1-.236-.26.154.154 0 0 1 .069-.23.351.351 0 0 1 .113-.043H.22c.016 0 .034 0 .037-.022.01-.053.05-.071.089-.089l.025-.012a.3.3 0 0 0 .136-.12.2.2 0 0 1 .178-.116.322.322 0 0 1 .082.012.092.092 0 0 0 .024 0 .079.079 0 0 0 .05-.019.619.619 0 0 1 .25-.137.114.114 0 0 0 .06-.039 1.3 1.3 0 0 1 .35-.279.381.381 0 0 0 .178-.2.228.228 0 0 1 .058-.1.775.775 0 0 0 .185-.289v-.007a4.131 4.131 0 0 0 .353-1.891 6.272 6.272 0 0 1 .047-1.215l.018-.123a5.7 5.7 0 0 0 .075-.734v-.084a1.6 1.6 0 0 1 .021-.318l.056-.276v-.007l.058-.283a.782.782 0 0 1 .549-.626c.029-.009.061-.015.091-.021l.058-.012a.134.134 0 0 1-.065-.072.135.135 0 0 0-.045-.058.122.122 0 0 1-.058-.116v-.028a.107.107 0 0 1 .015-.083.1.1 0 0 1 .075-.029l.008-.009.01-.014c-.091 0-.119-.054-.134-.134a.332.332 0 0 0-.027-.068l-.007-.014q-.22-.478-.453-.959l-.234-.5-.468-.988a.266.266 0 0 1-.036-.17c.009-.04.019-.07.069-.074.066 0 .134-.006.2-.006s.162 0 .248.008a.227.227 0 0 1 .208.152c.266.564.539 1.135.8 1.687l.5 1.056c.02.04.038.061.085.061h.01c.2-.006.411-.011.655-.013a.087.087 0 0 0 .085-.049.718.718 0 0 1 .24-.262.757.757 0 0 0 .071-.041.28.28 0 0 1 .156-.078c.041 0 .082 0 .122-.008s.1-.008.145-.008a.628.628 0 0 1 .11.009.3.3 0 0 0 .056.005.227.227 0 0 0 .137-.04.224.224 0 0 1 .141-.046.6.6 0 0 1 .122.017l.045.009a1.335 1.335 0 0 0 .227.021.947.947 0 0 0 .379-.075 2.167 2.167 0 0 0 .563-.39l.127-.109a1.586 1.586 0 0 0 .425-.55c.059-.124.122-.247.183-.367.046-.091.093-.182.138-.274.009-.018.019-.035.03-.052A.416.416 0 0 0 8.159 8a.581.581 0 0 0-.148-.516 1.491 1.491 0 0 1-.223-.416.59.59 0 0 1-.027-.332 4.3 4.3 0 0 1 .339-.982.275.275 0 0 0 .029-.115v-.073a1.367 1.367 0 0 1 .068-.555.157.157 0 0 0 .003-.04.2.2 0 0 1 .005-.031.291.291 0 0 1 .195-.24.046.046 0 0 0 .038-.036c.015-.076.072-.1.139-.13l.021-.008a.19.19 0 0 0 .078-.043 1.587 1.587 0 0 1 .2-.172 1.677 1.677 0 0 0 .195-.165l.022-.023c.065-.066.067-.069.014-.168a.192.192 0 0 1-.024-.068 1.134 1.134 0 0 0-.2-.446l-.03-.049-.039.028-.079.055a.4.4 0 0 1-.215.062.319.319 0 0 1-.273-.137l-.023-.033L8.2 3.33a.129.129 0 0 0-.114-.076h-.011a.056.056 0 0 1-.043-.018.093.093 0 0 1-.018-.072.072.072 0 0 1 .006-.02.045.045 0 0 0 0-.043h-.009c-.05-.009-.1-.019-.118-.077a.235.235 0 0 0-.162-.157c-.049-.019-.113-.053-.111-.123a.549.549 0 0 0-.044-.2.574.574 0 0 1-.045-.2.14.14 0 0 0-.024.017.051.051 0 0 1-.033.016.045.045 0 0 1-.016 0 .088.088 0 0 1 0-.02.046.046 0 0 0-.01-.05.168.168 0 0 1-.046-.132.165.165 0 0 0-.051-.122.077.077 0 0 1-.029-.056 1.762 1.762 0 0 0-.022-.232c-.01-.052-.02-.1-.026-.158v-.04a.219.219 0 0 0-.05-.151c-.051-.008-.058-.048-.065-.086a.214.214 0 0 0-.045-.113c-.068-.077-.034-.15 0-.22V.978a.812.812 0 0 1 .236-.3.3.3 0 0 0 .092-.13.191.191 0 0 1 .1-.122.557.557 0 0 0 .134-.067.384.384 0 0 1 .205-.079h.013a.137.137 0 0 0 .088-.034A.758.758 0 0 1 8.276.1a1.1 1.1 0 0 0 .208-.084A.131.131 0 0 1 8.552 0 .218.218 0 0 1 8.6 0l.087.015.064.01a.835.835 0 0 1 .666.42.149.149 0 0 0 .061.073.122.122 0 0 1 .073.151.044.044 0 0 0 .019.053h.022l.036-.006a.17.17 0 0 1 0-.13c0 .061 0 .123.094.14l.024.007a.154.154 0 0 0 .048.01h.066a.406.406 0 0 1 .232.057.86.86 0 0 1 .421.544c0 .022.008.043.012.065a1.088 1.088 0 0 1 .022.141.57.57 0 0 1-.116.461L10.424 2l.007-.012a.453.453 0 0 0 .09-.261c-.011 0-.013.01-.014.018s0 .017-.015.017a.061.061 0 0 1 0-.041.092.092 0 0 0-.01-.063c-.01.049-.023.1-.036.143a1.42 1.42 0 0 0-.05.232l.011.011a.1.1 0 0 1-.04.03c-.019.01-.038.02-.044.042a.126.126 0 0 0 .106.07.274.274 0 0 0 .1-.029.454.454 0 0 1 .062-.023c.052-.013.05-.053.048-.09a.125.125 0 0 1 .008-.066.107.107 0 0 1 .012.064.2.2 0 0 0 0 .049.22.22 0 0 0 .057-.091.422.422 0 0 1 .03-.052.272.272 0 0 1-.072.154.249.249 0 0 0-.068.145.279.279 0 0 0 .1-.1l.017-.024a.332.332 0 0 1-.134.186.168.168 0 0 0 .07.061.08.08 0 0 0 .036-.02.065.065 0 0 1 .04-.019h.007a.065.065 0 0 1-.018.039.048.048 0 0 0-.015.036.228.228 0 0 1 .091.164.221.221 0 0 1-.083.163c-.113.1-.116.136-.018.245a.2.2 0 0 1 .052.2l-.017-.041-.011-.027c-.048.039-.041.088-.034.14a.166.166 0 0 1-.024.143.251.251 0 0 1 0-.04.09.09 0 0 0-.037-.1.388.388 0 0 0-.012.071.172.172 0 0 1-.063.141 2.847 2.847 0 0 1 .508.495 1.494 1.494 0 0 1 .359.664 6.013 6.013 0 0 1 .083.761c0 .035 0 .069.007.1a1.749 1.749 0 0 1-.01.476 9.757 9.757 0 0 1-.338 1.265c-.014.039-.03.078-.045.116a1.483 1.483 0 0 0-.082.239 1.226 1.226 0 0 0-.035.506c0 .024.016.252.031.569.033.654.082 1.643.126 2.04l.014.121a4.713 4.713 0 0 1 .046.762c0 .067-.009.134-.014.2a3.355 3.355 0 0 0-.009.6.6.6 0 0 1-.066.3c-.007.017-.02.048-.035.05-.077.017-.093.075-.109.131 0 .014-.008.027-.012.04l-.009.025a.317.317 0 0 1-.142.2l-.037.019a1.173 1.173 0 0 1-.137.065.159.159 0 0 0-.1.1l-.089.225c-.04.1-.081.2-.12.306-.027.072-.061.116-.147.116h-.055a2.226 2.226 0 0 0-.332.025 2.372 2.372 0 0 1-.341.019 4.653 4.653 0 0 1-.974-.13 2.907 2.907 0 0 1-1.031-.5.376.376 0 0 0-.2-.086.224.224 0 0 0-.135.051.094.094 0 0 1-.032.014h-.013a5.8 5.8 0 0 1-1.655.287 2.8 2.8 0 0 0-.909.2c-.143.052-.139.078-.117.221.016.106.041.211.065.311a2.526 2.526 0 0 1 .083.49v.118a2.761 2.761 0 0 1-.06.874A7.311 7.311 0 0 0 4.283 17c-.023.2-.044.4-.065.6l-.029.274a3.3 3.3 0 0 0 .015.892v.013a.123.123 0 0 0 .045.093.129.129 0 0 1 .06.158.111.111 0 0 0 0 .063v.006l.011.038a.65.65 0 0 1 0 .535c.136.079.139.086.107.229a2.564 2.564 0 0 1-.1.327c-.017.046-.034.092-.049.138a.184.184 0 0 1-.154.117.872.872 0 0 1-.163.023zm-.927-4.27c-.006.042-.014.084-.022.125a.987.987 0 0 0-.022.394.221.221 0 0 0 .043.092l.015.019c.038.049.078.1.047.173 0 .007 0 .018.009.029l.006.013a4.311 4.311 0 0 0-.076-.845z" class="prefix__cls-1" data-name="Fill 19" transform="translate(126.377 6.673)"/>
            <g id="prefix__Group_23" data-name="Group 23" transform="translate(0 7.244)">
                <path id="prefix__Clip_22-2" d="M0 0h3.4v11.063H0z" data-name="Clip 22" transform="translate(0 .361)" style="fill:none"/>
                <g id="prefix__Group_23-2" data-name="Group 23">
                    <path id="prefix__Fill_21" d="M2.465.353L2.163 0s-.191-.045-.271.441l.139.5L1.663 1a2.585 2.585 0 0 0-.757 1.517 3.613 3.613 0 0 1 .31 2.023S1.155 3.327.827 3.078c0 0-1.027-.614-.791 2.993A31.5 31.5 0 0 0 .7 10.785s.482.724 1.392-.166A6.079 6.079 0 0 0 3.4 8.681z" class="prefix__cls-1" data-name="Fill 21" transform="translate(0 .361)"/>
                </g>
            </g>
            <path id="prefix__Fill_24" d="M6.089 11.2a1.864 1.864 0 0 1-.2.439c-.073.13-.169.247-.249.373v.009l-.268.431c-.1.157-.19.312-.223.376a.05.05 0 0 1-.007.011c-.079.138-.148.1-.22.061a.166.166 0 0 1-.07-.084.482.482 0 0 1-.032-.123 1.63 1.63 0 0 0-.066-.2l-.013-.026c-.011-.025-.032-.071-.065-.15-.059-.138.024-.164.024-.164.08-.061.037-.127.046-.151a.407.407 0 0 1 .054-.242c.046-.1-.111-.331-.23-.451a3.343 3.343 0 0 0-.566-.411c-.244-.162-.5-.308-.74-.475a.328.328 0 0 0-.361-.045 2.68 2.68 0 0 1-.344.106l-.059-.016a4.839 4.839 0 0 0 .011.853 3.2 3.2 0 0 0 .3.731c.1.207.053.348-.169.394a4.639 4.639 0 0 1-.621.068c-.41.026-.821.042-1.231.06a.193.193 0 0 1-.137-.03c-.07-.061-.034-.227.112-.3.1-.048.164-.173.251-.256.039-.037.1-.086.143-.075.2.059.271-.051.381-.19.294-.367.057-.741.044-1.109a2.085 2.085 0 0 0-.16-.5 4.1 4.1 0 0 1-.079-1.393c.006-.259.166-.5.044-.778-.036-.083.046-.221.082-.33a.939.939 0 0 1 .077-.152l-.23-.153.152-.427-.054-.047a2.575 2.575 0 0 0-.493.351.759.759 0 0 1-.531.278l-.1.288a.41.41 0 0 1-.28-.512.446.446 0 0 1 .43-.439.831.831 0 0 0 .628-.849 3.586 3.586 0 0 1 .116-1.944.677.677 0 0 0-.005-.429c-.086-.269-.08-.311.194-.406a.18.18 0 0 0 .045-.028c-.154-.037-.355-.028-.451-.124-.081-.081-.3-.168-.21-.333L.65 2.435v-.018c-.257-.14-.011-.312-.035-.457a.827.827 0 0 0-.227-.446C.2 1.334.12 1.2.243.979a1.674 1.674 0 0 1 .33-.373 2.508 2.508 0 0 1 .3-.232c.062-.043.131-.109.2-.11a2.364 2.364 0 0 0 .663-.2 1.309 1.309 0 0 1 .823.012c.292.1.312.373.452.57a4.734 4.734 0 0 1 .325.551.532.532 0 0 1 .083.273 1.417 1.417 0 0 1-.257.763c-.078.105-.223.157-.328.245a3.337 3.337 0 0 0-.246.259 1.2 1.2 0 0 1 .245.042c.046.021.112.077.108.112a.851.851 0 0 0 .275.689 1.262 1.262 0 0 1 .236.42 2.767 2.767 0 0 0 .509.842 2.468 2.468 0 0 1 .426.956c.076.267.137.543.186.817a3.268 3.268 0 0 0 .245.645 1.676 1.676 0 0 1 .026.754c0 .04-.22.074-.341.086a.473.473 0 0 1-.184-.048v-.417h-.064l-.05.334h-.05c-.021-.035-.06-.069-.061-.106a4.681 4.681 0 0 1-.019-.693 2.229 2.229 0 0 0-.312-1.195c-.077.45-.164.847.167 1.21l-.191.055c0 .02-.012.04-.006.055a.749.749 0 0 1-.061.727.15.15 0 0 0-.032.09 3.293 3.293 0 0 1-.15 1.1.5.5 0 0 0 0 .119c.168.133.31.234.441.35.368.329.731.664 1.1 1 .018.018.048.045.064.04.35-.111.6.154.907.235.193.05.112.177.092.253" class="prefix__cls-1" data-name="Fill 24" transform="translate(142.875 6.471)"/>
            <path id="prefix__Fill_26" d="M7.014 18.579c-.109-.119-.257-.2-.352-.33-.24-.314-.583-.574-.581-1.024a9.686 9.686 0 0 0-.295-2.506 4.653 4.653 0 0 1-.026-1.982 3.492 3.492 0 0 0 .048-1.5 6.075 6.075 0 0 1-.1-.888c.292-.082.663 0 .841-.235.053-.069-.04-.211.006-.277.193-.272.04-.514-.025-.769a1.187 1.187 0 0 1-.08-.458c.04-.236.168-.456.216-.691a7.394 7.394 0 0 0 .174-1.212 1.9 1.9 0 0 0-.17-.815 10.731 10.731 0 0 0-.712-1.279c-.079-.125-.261-.186-.4-.279.257-.271.263-.306.03-.559-.137-.15-.048-.25.044-.373a4.912 4.912 0 0 0 .4-.59.285.285 0 0 0-.139-.412.966.966 0 0 1-.583-.948c0-.053-.03-.105-.033-.159C5.23.493 4.571.29 4 .018c-.1-.048-.26.014-.39.035-.069.011-.135.051-.2.06a1.466 1.466 0 0 0-1.258 1.4 1.1 1.1 0 0 1-.063.473 9.717 9.717 0 0 1-.552.914c-.115.178-.174.327.038.477a.2.2 0 0 1 .038.337.4.4 0 0 0-.018.3c.026.119.12.227.137.346.022.176.132.416-.09.513a1.747 1.747 0 0 0-.881 1.071C.625 6.28.261 6.562.463 7c.017.036-.026.1-.04.153a5.973 5.973 0 0 0-.23 1.512 6.241 6.241 0 0 1-.161 2.477A.586.586 0 0 0 0 11.3c-.035.331.283.78.531.722.31-.072.475-.1.57-.21a.923.923 0 0 0 .158-1 1.918 1.918 0 0 1-.2-.855c.1-.8.284-1.586.436-2.377l.116.006c.028.317.079.634.084.953a14.9 14.9 0 0 1 0 2.766 2.877 2.877 0 0 0 .016.857 9.6 9.6 0 0 1 .1 2.712 6.432 6.432 0 0 0 .1 2.082 1.659 1.659 0 0 1-.055 1.13 1.71 1.71 0 0 0-.11.757c0 .1.114.265.192.276.441.056.887.084 1.332.1.057 0 .172-.149.166-.221a2 2 0 0 0-.15-.811 2.312 2.312 0 0 1-.235-1.609 11.6 11.6 0 0 1 .375-2.227 4.6 4.6 0 0 0 .054-.868c.059-.427.153-.851.235-1.278a.263.263 0 0 1 .07-.013c.114.646.191 1.3.348 1.933.2.789.45 1.563.7 2.339a3.149 3.149 0 0 1 .24 1.338c-.034.283-.1.565-.1.85a.435.435 0 0 0 .177.318 2.187 2.187 0 0 0 1.768.112c.227-.048.269-.318.1-.5" class="prefix__cls-1" data-name="Fill 26" transform="translate(22.997 .227)"/>
            <path id="prefix__Fill_28" d="M16.35 28.707H9.013l-2.682-7.879H1.093L0 0h6.533l9.817 28.706zM3.188 11.044l-1.221 3.6h2.447z" class="prefix__cls-2" data-name="Fill 28" transform="translate(109.576 23.872)"/>
        </g>
    </g>
</svg>
