<svg id="Layer_1" data-name="Layer 1" xmlns="http://www.w3.org/2000/svg" xmlns:xlink="http://www.w3.org/1999/xlink" viewBox="0 0 407.08 148.36"><defs><style>.cls-1,.cls-2{fill:none;}.cls-1{clip-rule:evenodd;}.cls-3{clip-path:url(#clip-path);}.cls-4{fill:#151f2f;}.cls-5{clip-path:url(#clip-path-2);}.cls-6{clip-path:url(#clip-path-3);}.cls-7{clip-path:url(#clip-path-4);}.cls-8{fill:#afafaf;}.cls-9{clip-path:url(#clip-path-5);}.cls-10{clip-path:url(#clip-path-6);}.cls-11{clip-path:url(#clip-path-7);}.cls-12{clip-path:url(#clip-path-8);}.cls-13{clip-path:url(#clip-path-9);}.cls-14{clip-path:url(#clip-path-10);}.cls-15{fill:#01c089;}.cls-16{clip-path:url(#clip-path-11);}.cls-17{clip-path:url(#clip-path-12);}.cls-18{isolation:isolate;}.cls-19{clip-path:url(#clip-path-13);}.cls-20{clip-path:url(#clip-path-14);}.cls-21{clip-path:url(#clip-path-15);}.cls-22{clip-path:url(#clip-path-16);}.cls-23{clip-path:url(#clip-path-17);}.cls-24{clip-path:url(#clip-path-18);}</style><clipPath id="clip-path"><polygon class="cls-1" points="67.81 90.33 36.09 56.8 22.29 56.74 22.29 131.88 43.6 131.88 43.6 97.34 75.39 133.8 89.11 133.8 89.11 55.01 67.81 55.01 67.81 90.33"/></clipPath><clipPath id="clip-path-2"><polygon class="cls-1" points="236.28 87.38 211.93 55.35 198.16 55.35 198.16 133.8 219.22 133.8 219.22 100 230.84 113.07 241.56 113.07 253.37 99.91 253.37 133.8 274.43 133.8 274.43 55.54 260.73 55.01 236.28 87.38"/></clipPath><clipPath id="clip-path-3"><path class="cls-1" d="M380.2,66.15a38.19,38.19,0,0,0-26.26-10.94H324.46v75.45h29.77a40.86,40.86,0,0,0,26.46-11.58,36.65,36.65,0,0,0,11-26.19A37.11,37.11,0,0,0,380.2,66.15Zm-34.72,9.46h8.46c9.49,0,16.38,7.27,16.38,17.28,0,9.74-7.19,17.37-16.38,17.37h-8.46Z"/></clipPath><clipPath id="clip-path-4"><path class="cls-1" d="M135.12,112.35a32.59,32.59,0,0,1-10.94-8.88,31.4,31.4,0,0,1,18.43-50.14,30.89,30.89,0,0,1,23.16,4.19c.22.13.45.24.68.36A5.39,5.39,0,0,0,168,59a4.68,4.68,0,0,0,.38.39c10.41,8.38,14.51,21.12,10.67,33.92a31.38,31.38,0,0,1-35.35,21.78,62.93,62.93,0,0,1-6.88-1.86,5.6,5.6,0,0,0-1.69-.85m27.15-44.79c.37,1.62,1,1.91,2.14,1-.28-1-.28-1-1.18-1h-1a2.4,2.4,0,0,1,2.22-.76,1.3,1.3,0,0,1,1.11,1.29c.08.62.49,1,.72,1.43A8.93,8.93,0,0,1,167.64,72c-1.24-.73-2.31-1.43-3.45-2-.89-.44-1.37,0-1.32,1a2.24,2.24,0,0,0,.72,1.6c-.26.31-.63-.06-.83.23,0,.24.15.31.25.46.45.69,1.06,1.35.93,2.25-.21,1.44-.11,1.58,1.33,1.59a1.37,1.37,0,0,0,1-.39c.28-.22.73-.51,1-.12.65,1,1.46.94,2.48.74.55-.1,1.09.06,1.6-.39a1.06,1.06,0,0,1,1.16,0,2.21,2.21,0,0,0,1.35.36,1.4,1.4,0,0,1,1.29.85c.22.41.29,1,.91,1.1a.93.93,0,0,0,.13-.22.61.61,0,0,0,0-.33c-.68-1.35-1.55-2.67-.59-4.26.1-.17,0-.44,0-.66s-.13-.67.23-.89c1,.47,2.21,3,1.79,3.91a.45.45,0,0,1-.23.2c-.85.43-.55.93-.14,1.5.27.36.91.65.7,1.14a2.87,2.87,0,0,0,.28,2.4,3.41,3.41,0,0,1,.12,2.67,28.07,28.07,0,0,1-2,3.29c-1.3,2-1.81,4.5-3.83,6l.66,1.14a7.15,7.15,0,0,0-1.58,2.79,1.66,1.66,0,0,1-1.13,1.22c-.48.2-1.08.3-1.28.93-.6,1.85-2,3.15-3.24,4.52-.25.27-.8.54-.37,1s.68,1.57,1.63,1.43a6.19,6.19,0,0,0,3.78-1.8,31.48,31.48,0,0,0,7.88-14.76c.29-1.25,1.16-2.69-.4-3.82,1.35-.66,1-1.79,1-2.8s-.83-1.83-.89-2.8c.24-.32.53.11.73-.15-.15-4.38-2.52-10.49-5.65-14.7a13.55,13.55,0,0,0-3.94-3.79,30.27,30.27,0,0,0-6-2.7c-1-.32-1.9-.88-2.87-1.2a7.05,7.05,0,0,1-2.88-1.56c-.72-.69-1.86-.82-2.67-1.46,0-.05-.2,0-.29,0,0,.25.4.29.29.59a4.33,4.33,0,0,0-2.15-.07c.56,1.12-.76,1.1-1,1.83,1.49,1.7,3.93,1.16,5.67,2.43-.49,1.13.87,1.19,1.3,1.84-.59.71-.65.73-1,0-.14-.31-.3-.49-.62-.51a1.85,1.85,0,0,0-1.81,1.65c0,.39-.07.78-.12,1.3-1-.4-1.54.74-2.44.64a1.74,1.74,0,0,0,0,1.1,19.49,19.49,0,0,0,3.14.12c.9,0,1.16-.29,1.28-1-.2-.48-.68-.47-1-.72.22-.68,0-1.72,1.34-1.58-.29.57-.09,1.07-.15,1.56.67,0,1.33.16,1.23-.87.43.17.69.65,1.15.35s.07-.86.43-1.17a.53.53,0,0,1,.44.57c0,.44.09,1-.23,1.26-.47.48-1.21.36-1.81.57-.93.32-1.35.46-1.1,1.46s.2,2.39,1.46,3a.55.55,0,0,1,.18.26c.64,1.74,1.21,2.13,2.92,2a11.64,11.64,0,0,0,0-3.12.86.86,0,0,0-.26,0c-1.65.46-2.72-.47-2.35-2.09.08-.35-.15-.54-.2-.82l.18-.28c.5.24.63.77.89,1.1,0,.34-.57,0-.43.52a5.15,5.15,0,0,0,1.29.85c.4-.15.34-.72.8-.73M148.33,83.85c-1.47-.86-2.48-3.33-1.75-4.33.34.12.32.7.81.63a.47.47,0,0,0,.39-.57,22.87,22.87,0,0,0-1.39-5.73c-.57-1.39-2.46-1.52-4-.75-.27.13-.66.18-.67.63s.53.39.8.57.54,0,.63.37c-.45.37-1.29-.39-1.48.55a2,2,0,0,1-.42-2.37c-.25-.47-.72.18-.87-.32a9.35,9.35,0,0,1-.43-1.81c-.05-.54.47-.73.91-.72a1.94,1.94,0,0,0,2-2.48c-.73.43-.61,1.35-1.15,1.77s-1.22.68-1.78-.08c1.43-1.5,1.53-2.1.43-3,.38-.17.86-.2,1-.63.36-1.28,2.29-2,1.25-3.81a.83.83,0,0,1,.19-.92,5.44,5.44,0,0,1,1.65-1.29,28.89,28.89,0,0,1,6.81-2.34.73.73,0,0,0,.6-.9c-.88.23-1.49-.42-2.19-.65a26,26,0,0,0-5-.76c-.07.58.51.68.45,1.11a1,1,0,0,1-1.28.19,2.54,2.54,0,0,0-2.7.22c-.65.34-1.27.75-1.9,1.12a.74.74,0,0,1-.27.06c-.21-.25.05-.62-.27-.81a3.06,3.06,0,0,0-2.22.91,12.54,12.54,0,0,1-4.15,2,12.87,12.87,0,0,0-5.79,3.89,31,31,0,0,0-6.67,11.16,7.12,7.12,0,0,0-.46,3.44c.27,1.94.66,3.89-.28,5.82a2.32,2.32,0,0,0,1.32,0,5.29,5.29,0,0,1,4.59,1,6,6,0,0,0,2.45,1.19c1,.25,1.93.51,2.94.79-1.45,1.54-2.07,1.68-3.91.91a1,1,0,0,0-.73,0c-1.11.31-1,1.18-1,2,1.19.44,2.6-.13,3.34,1.58.63,1.47.24,2.44-.54,3.81l-1.26-1.59a1.68,1.68,0,0,0-.18,1.43,18.74,18.74,0,0,0,3,6.89,4.19,4.19,0,0,1,1,3.26,1.75,1.75,0,0,0,.7,1.61,23.21,23.21,0,0,1,3,3c.78,1.06,1.69,2.3,3.17,2.47a11.25,11.25,0,0,1,3.69,1c.29-.94.58-1.74.77-2.55.31-1.26,1.44-.51,2.17-1-.29-.67-.6-1.35-.92-2.08,1.09-.61,2.2-1.1,2.52-2.34,1.15-.07,2.25-.19,3.35-.18.66,0,1.08-.18,1.24-.85.53.25.95.47,1.39.65s.87.71,1.29.5c1.67-.81,3.49-1.51,4.22-3.45a8,8,0,0,1,1-1.91,10.07,10.07,0,0,1-4-4.75,3.78,3.78,0,0,0-.5-1c-.84-1.18-1.34-2.7-3.09-3a1.17,1.17,0,0,1-.95-.65l0,0c.53.14,1.05.33,1.58.43,1.12.2,1.62-.26,1.55-1.36-.15-2.37-.15-2.37-2.55-2.47a1.51,1.51,0,0,1-.38-.09c-.37-1,.4-1.59.73-2.33-.5-.61-1.41-.42-1.86-1,1-.23,1.89.39,2.93.16a3,3,0,0,1-.23-3.84l-1.16-.65c.15,1.79-1.41,2.78-1.53,4.34m1.95-14.73c.89-.18,1,.29,1.06.91,0,1.18,1.29,1.86,1.28,3.07,0,.1.18.24.31.3a35.73,35.73,0,0,0,3.88,1.37,5.39,5.39,0,0,1,1.94,1c.31.26.59.82,1.08.47a1.13,1.13,0,0,0,.35-1.29c-.44-1.29-.5-2.82-2.27-3.24-.55-.14-.53-1.2-.71-1.31-1-.64-.68-1.46-.62-2.32,0-.66-.35-1.07-1.08-1.09a23,23,0,0,1-3.11-.18,1.28,1.28,0,0,0-1.25.45c-.45.47.33.57.38.9-.31.36-.88.28-1.24,1m-21.7,37.06c.38-2-.26-3.13-2.16-3.92-.49,1.16.91,3.7,2.16,3.92m32.21-25.57c-.89.78-2.19,1.34-1.83,2.6.24.81,1.28.86,2.2.77-.19-1.17-.86-2.19-.37-3.37M177,79.11a1.78,1.78,0,0,0-1,1.18c-.73,1.77.05,3.69-.55,5.48,1.2-1.06.8-2.49.83-3.76a3.72,3.72,0,0,1,.45-2c.16-.26.5-.47.23-1m-24.28,29.82a2.16,2.16,0,0,0,.62,2.53c.2.14.38.37.67.2a.81.81,0,0,0,.38-.73c.07-1.21-.89-1.5-1.67-2m13.23-23.37c1.19-.13,1.48-.57,1.41-2.06-1.35-.11-1.7.38-1.41,2.06m-11.82-10.4a1.61,1.61,0,0,1-1.32.39c-.29-.06-.48.15-.59.4a.37.37,0,0,0,.14.48c.48.24,1,.55,1.53.2s.66-.67.24-1.47m-5.41-6-1.47-.32c-.16.36.37.37.24.67l-1.15.26a1.11,1.11,0,0,0,1.35.8,1.62,1.62,0,0,0,1-1.41M165,90.66a1.87,1.87,0,0,0,0,2.09,2.08,2.08,0,0,0,1.41-1.67L165,90.66m-6.31-2.4c-.78-.13-1.46-.75-2.15-.05a.41.41,0,0,0,.21.7c.73.25,1.49.54,1.94-.65M143.34,63.48a1.69,1.69,0,0,0,.68,1.11.67.67,0,0,0,.91-.06c.15-.16.47-.33.25-.63s-.32-.6-.54-.39c-.48.48-.79-.22-1.3,0M152.64,83c-.66-.46-.49-1.58-1.58-1.23.09,1.25.19,1.35,1.58,1.23M166,78.22c-.55.36-.77.62-.47,1.17.5-.22.6-.52.47-1.17"/></clipPath><clipPath id="clip-path-5"><path class="cls-1" d="M138.34,86.69c.8-.07,1,.84,1.77,1,.19,0,.09.73-.23,1l-.34.28c-.15.12-.35.22-.22.46.22.05.32-.09.44-.21l.4-.26L144,86.7c-.25,1-1.26,1.38-1.85,2.14.24.25,0,.7.42.93a4,4,0,0,1,2.4-2,2.41,2.41,0,0,1,2.52.68,5.61,5.61,0,0,1,1.66,2.45v0c-.17,0-.41,0-.52-.07-1.31-1.08-2.39-.65-3.35.48a1,1,0,0,1-1.68.11,3.51,3.51,0,0,0-3.7-.61,1.27,1.27,0,0,1-.86.06l-6.21-2.22c1.28-.73,2.37-1.25,3.67-.36a1.36,1.36,0,0,0,1.82-.1c.49-.49-.16-1,.07-1.45Z"/></clipPath><clipPath id="clip-path-6"><path class="cls-1" d="M145.88,81.78c-.86-.9-2.42-.5-2.59-2.1,0-.48.13-.61.48-.71-.07-.46-.77-.51-.66-1.09.39-.11.67.24,1,.25.75-.79.59-1.82.82-2.78.2.94.8,1.78.25,2.82a1.69,1.69,0,0,0,.59,2.56c.35.25.19.49.09,1"/></clipPath><clipPath id="clip-path-7"><path class="cls-1" d="M138.42,86.72a27.33,27.33,0,0,1-3.27-2.18c.47-.8,1.52-1,1.67-1.91.61.53.61.53-.1,1.18.46.61.95-.16,1.52.1a3.59,3.59,0,0,1,.16,2.83Z"/></clipPath><clipPath id="clip-path-8"><path class="cls-1" d="M149.16,117.81a33.39,33.39,0,1,1,33.47-33.39,33.47,33.47,0,0,1-33.47,33.39m0-63.5a30.12,30.12,0,1,0,30.2,30.11,30.18,30.18,0,0,0-30.2-30.11"/></clipPath><clipPath id="clip-path-9"><path class="cls-1" d="M151.63,123.64l6.66-1.14.14,0a41.77,41.77,0,0,0,9.88-4,39.81,39.81,0,0,0,5.76-4l1.08-.91-5.14-6-2.13,1.81,3.3,3.88a36.73,36.73,0,0,1-4.27,2.88,38.74,38.74,0,0,1-9.16,3.73l-6.39,1.1-.71,0h0l-5-.18h0A37.29,37.29,0,0,1,112.55,92.9,36.82,36.82,0,0,1,123.24,57l3.7,3.69,2-2-5.54-5.53-1,.83a39.61,39.61,0,0,0-12.56,39.55,40.09,40.09,0,0,0,35.38,29.91v6.85c-9.24.25-16.25,1.48-16.25,3s7,2.71,16.25,3v0h1.27l2.18,0c10.88,0,19.7-1.35,19.7-3s-7.68-2.84-17.54-3v-6.62l.82,0"/></clipPath><clipPath id="clip-path-10"><path class="cls-1" d="M38.69,93.78c-1.49.1-2.24-1.86-2.27-2.33a19.07,19.07,0,0,1,0-2.39A7.12,7.12,0,0,0,36,86.55a8.78,8.78,0,0,1-.56-2.67,2.68,2.68,0,0,1,.07-.56,12.38,12.38,0,0,0,.4-3.13,36.56,36.56,0,0,0-.28-3.77c-.16-1.62-.58-3.21-.61-4.84a30.44,30.44,0,0,1,.16-3.31c.1-1.21.17-2.42.25-3.63a1.2,1.2,0,0,0-.16-.64,13.87,13.87,0,0,1-1-3.06,17.09,17.09,0,0,0-.83-2.44.29.29,0,0,0-.26-.18,6.18,6.18,0,0,0-1.13-.11,20.54,20.54,0,0,0-3.5.25,5.85,5.85,0,0,1-2.6,0,4,4,0,0,1-1.56-.85,7.41,7.41,0,0,1-1.55-2,8.7,8.7,0,0,1-1-3.52,15.29,15.29,0,0,1,.92-6,.51.51,0,0,0-.08-.58,10.81,10.81,0,0,1-1-1.32A4.4,4.4,0,0,1,21.36,42a33.34,33.34,0,0,0-.49-4.88,10.78,10.78,0,0,0-1-2.89,1.88,1.88,0,0,0-.28-.34.73.73,0,0,1,0-1.05.29.29,0,0,0,.06-.36,5.69,5.69,0,0,1-.35-2,3.39,3.39,0,0,1,.83-2.26,2.89,2.89,0,0,1,1.73-.95,7.7,7.7,0,0,0,2.82-1c.16-.09.21-.19.05-.33s-.13-.09-.05-.16A.7.7,0,0,0,24.8,25c0-.1.05-.17.07-.29-.13.08-.21.1-.1.28a.49.49,0,0,1-.13.54c-.14.11,0,.43-.3.38-.07-.12,0-.23,0-.34s-.19.66-.3.68c.12-.78-.45,0-.45,0s.36-.79.36-.85a2.36,2.36,0,0,0-.73.68.73.73,0,0,1-.41.34h0a1.4,1.4,0,0,0,.22-.28l-.67.08c0-.08.66-.24.69-.27a1.22,1.22,0,0,0,.52-.84c-.44-.13-2.15.85-2.7.66.62-.22,2.55-.88,2.59-1.56-.12,0-.18.05-.23.11a8.75,8.75,0,0,1-2.92,1c.56-.28,2.3-1.12,2.81-1.45.09-.05.15-.15.25-.18.54-.22.59-.7.64-1.17a6.86,6.86,0,0,0-.09-2.43,2.89,2.89,0,0,1,.05-1.43c.27-.95.54-1.9.84-2.84a8.77,8.77,0,0,1,1.12-2.06,1.51,1.51,0,0,1,1.53-.68,1.45,1.45,0,0,0,1-.27,1.14,1.14,0,0,1,1.33,0,.93.93,0,0,0,.48.1,2.58,2.58,0,0,1,1.55,1,.45.45,0,0,0,.39.2A1.85,1.85,0,0,1,34,15.32c.15.36.46.62.57,1A13.38,13.38,0,0,1,34.86,18c.13.86.35,1.7.51,2.55a6.05,6.05,0,0,1,.06,1.9.51.51,0,0,1-.3.46c-.2.07-.26.22-.35.37s-.14-.12-.13-.22c.1-.52.13-1,.27-1.55a.74.74,0,0,0,0-.68c-.16,0-.13.14-.15.22-.17.66-.3,1.32-.5,2a3.3,3.3,0,0,0,0,1.56c.13.59.35,1.16.43,1.77,0,.1.08.12.16.15a9.25,9.25,0,0,1,1,.37,3.68,3.68,0,0,1,1.38,1.47,6.77,6.77,0,0,1,1,2.83l.44-.15c.26-.08.38,0,.32.27a8.12,8.12,0,0,0,.43,4.25,18.35,18.35,0,0,0,2.4,5,4.61,4.61,0,0,1,.59,1.68c0,.23.08.47.39.52a.23.23,0,0,1,.1.07c.24.45.7.45,1.12.52.27,0,.54.08.67.37,1.23,0,2.39-.37,3.59-.49l1-.21L56,41.79l.22,0c.47-.06.68.2.5.66-.52,1.35-1,2.69-1.57,4-.7,1.8-1.38,3.62-2.11,5.41a4.24,4.24,0,0,0-.23,1.2.45.45,0,0,1-.4.44L46.2,54.84l-3.55.77-.16.06c.12.58.32,1.14.47,1.71a1.52,1.52,0,0,0,.83.86,1.22,1.22,0,0,1,.56.7.4.4,0,0,0,.07.13,31.2,31.2,0,0,1,3.69,5.81C48.74,66,49.6,67,50.3,68.08a2.47,2.47,0,0,0,.64.65,6.15,6.15,0,0,1,1.34,1.49A21.42,21.42,0,0,0,56,74.6c1.13,1,2,2.45,1.26,3.46-1.28,1.75-3.49.12-4-.34a13.89,13.89,0,0,1-2-2.47c-.51-.8-1.17-1.49-1.68-2.29a5.8,5.8,0,0,1-.36-.59A9.53,9.53,0,0,0,48,70.67,47.6,47.6,0,0,0,43,66.1c-.72-.65-1.42-1.31-2.12-2.07a5,5,0,0,0-.14,1A24.6,24.6,0,0,1,41,69.43a41.88,41.88,0,0,1-.64,5.12c-.27,1.51-.46,3-.61,4.56,0,.37-.1.75-.16,1.12a4.08,4.08,0,0,0-.1,1.16,1.44,1.44,0,0,1-.07.65,1.27,1.27,0,0,0,0,.34,11.59,11.59,0,0,0,.59,4.13,18.49,18.49,0,0,1,.7,2.94,6.21,6.21,0,0,1,0,2.43C40.61,92,40.22,93.68,38.69,93.78ZM24,24.55a1.51,1.51,0,0,0-.32.36C23.79,24.93,23.93,24.63,24,24.55Zm.27-.65c0,.2-.31.27-.23.51.19-.12.16-.34.24-.51h0ZM36.41,38.84a3.23,3.23,0,0,1-.86.61.62.62,0,0,0-.35.57,10.74,10.74,0,0,1-.26,2.19,1.83,1.83,0,0,0,.22,1.51,20.37,20.37,0,0,1,1.66,3.38c.19.63.39,1.26.59,1.89,0,.09,0,.2.14.23a.69.69,0,0,0,.75-.45c.3-1.21.59-2.43.92-3.63A1.1,1.1,0,0,0,38.9,44a4.57,4.57,0,0,1-1.29-2.29A13.51,13.51,0,0,0,36.41,38.84ZM33.4,15a.77.77,0,0,0-.86-.33C32.71,15.11,33.07,15,33.4,15ZM34,23.75c-.12.39-.41.77-.09,1.26A4.26,4.26,0,0,1,34,23.75Zm-10.47.86c-.13,0-.2.06-.15.18S23.49,24.73,23.5,24.61Zm11.56-1.92c0,.1-.06.13,0,.18Z"/></clipPath><clipPath id="clip-path-11"><path class="cls-1" d="M314.63,64.46a3.33,3.33,0,0,0-.11,1.2.51.51,0,0,0,.1.21c.1.13.23.25.15.45,0,0,0,.06,0,.09a9.41,9.41,0,0,0-.17-2m17.08-32.91a1,1,0,0,0,.22-.63c-.05,0,0,.08-.07.07s0-.14,0-.23c-.06.3-.17.57-.2.86l0,0c-.05.07-.17.07-.19.16.19.31.41.1.62.05s.06-.25.13-.36c0,.07,0,.16,0,.26a1.11,1.11,0,0,0,.21-.32c0,.29-.31.42-.32.69a.83.83,0,0,0,.28-.28.84.84,0,0,1-.31.43.43.43,0,0,0,.16.14c.07,0,.11-.1.19-.09s-.08.11-.07.17a.46.46,0,0,1,0,.76c-.26.23-.27.31,0,.57a.45.45,0,0,1,.12.46l-.06-.15c-.22.17,0,.44-.14.65,0-.11.05-.23-.08-.31-.05.17,0,.36-.18.48a6.43,6.43,0,0,1,1.18,1.15,3.48,3.48,0,0,1,.83,1.53,13.15,13.15,0,0,1,.19,1.76,5.46,5.46,0,0,1,0,1.34,20.94,20.94,0,0,1-.78,2.92c-.1.28-.23.54-.3.82a3,3,0,0,0-.08,1.15c0,.16.21,4.65.37,6a12.56,12.56,0,0,1,.13,2,12.53,12.53,0,0,0-.05,1.84,1.39,1.39,0,0,1-.15.69s-.05.11-.08.11c-.22,0-.23.24-.28.4a.88.88,0,0,1-.35.53c-.14.06-.27.14-.4.19a.4.4,0,0,0-.23.23c-.15.41-.33.82-.48,1.23a.34.34,0,0,1-.36.27,5,5,0,0,0-.87.05,8.51,8.51,0,0,1-3.06-.24,6.68,6.68,0,0,1-2.38-1.16c-.27-.18-.5-.29-.79-.08l-.1,0a13.88,13.88,0,0,1-3.83.67,6.32,6.32,0,0,0-2.1.45c-.33.12-.32.18-.27.52a16.12,16.12,0,0,1,.34,1.84,7.12,7.12,0,0,1-.13,2.3,16,16,0,0,0-.46,2.65c-.08.67-.15,1.35-.22,2a7.48,7.48,0,0,0,0,2.06.33.33,0,0,0,.1.25.3.3,0,0,1,.14.37.31.31,0,0,0,0,.16,1.64,1.64,0,0,1,0,1.32c.3.18.32.2.24.53a10.45,10.45,0,0,1-.35,1.08.45.45,0,0,1-.35.27,2.24,2.24,0,0,1-.58,0,11.83,11.83,0,0,1-1.46-.31A2.08,2.08,0,0,0,314,74a5.78,5.78,0,0,1-3.72,0,.86.86,0,0,1-.58-.49c-.09-.22,0-.34.2-.4a1,1,0,0,0,.29-.14,1.34,1.34,0,0,1,.49-.25,1.18,1.18,0,0,0,.7-.39.66.66,0,0,1,.64-.15.36.36,0,0,0-.07.1c.16,0,.25-.09.35-.17.43-.36.87-.72,1.33-1a2.69,2.69,0,0,0,1-1.32,2,2,0,0,0,.08-.56,3.5,3.5,0,0,1-1.54.08,3.08,3.08,0,0,0-1.84.3,3,3,0,0,1-3.11-.22,1.62,1.62,0,0,1-.55-.61.36.36,0,0,1,.16-.53.82.82,0,0,1,.26-.1c.05,0,.11,0,.12,0s.15-.18.26-.24a.63.63,0,0,0,.31-.27.47.47,0,0,1,.61-.24.22.22,0,0,0,.17,0,1.38,1.38,0,0,1,.58-.32.2.2,0,0,0,.13-.09,3.18,3.18,0,0,1,.82-.64.88.88,0,0,0,.4-.47.59.59,0,0,1,.14-.22,1.79,1.79,0,0,0,.43-.68,9.52,9.52,0,0,0,.82-4.37,14.69,14.69,0,0,1,.11-2.81,16.41,16.41,0,0,0,.21-2,5.8,5.8,0,0,1,.05-.93l.27-1.31A1.79,1.79,0,0,1,314.79,52l.34-.07c-.14-.07-.14-.24-.25-.31s-.13-.2-.14-.33,0-.25.21-.26c0,0,0,0,0,0-.22,0-.28-.14-.31-.31a1.08,1.08,0,0,0-.08-.19l-1.05-2.24-1.62-3.42a.63.63,0,0,1-.09-.4c0-.08,0-.16.16-.17a9.2,9.2,0,0,1,1.05,0,.52.52,0,0,1,.48.35q1.5,3.18,3,6.34a.2.2,0,0,0,.21.14c.51,0,1,0,1.52,0a.23.23,0,0,0,.2-.11,1.61,1.61,0,0,1,.55-.61c.16-.1.31-.28.5-.28a4.3,4.3,0,0,1,.88,0,.56.56,0,0,0,.44-.08.83.83,0,0,1,.72,0,2.4,2.4,0,0,0,1.4-.12,6.76,6.76,0,0,0,1.59-1.16,3.62,3.62,0,0,0,1-1.27c.23-.5.49-1,.74-1.48a1.84,1.84,0,0,0,.19-.4,1.36,1.36,0,0,0-.34-1.19,3.58,3.58,0,0,1-.52-1,1.44,1.44,0,0,1-.06-.77,9.91,9.91,0,0,1,.78-2.28.62.62,0,0,0,.06-.26,3.75,3.75,0,0,1,.16-1.45c0-.06,0-.11,0-.17a.66.66,0,0,1,.44-.55.1.1,0,0,0,.08-.08c0-.18.18-.25.33-.31a.7.7,0,0,0,.23-.11c.27-.3.63-.49.91-.78s.22-.19.09-.44a.44.44,0,0,1-.06-.16,3,3,0,0,0-.52-1.14l-.28.19a.83.83,0,0,1-1.13-.19l-.1-.15c-.07-.1-.13-.18-.28-.17s-.17-.09-.15-.21,0-.09,0-.15-.25,0-.29-.18a.56.56,0,0,0-.37-.36c-.13-.05-.27-.12-.26-.28,0-.34-.21-.6-.21-.94-.07,0-.09.1-.17.07s0-.11,0-.16-.1-.19-.11-.31a.36.36,0,0,0-.12-.28.16.16,0,0,1-.06-.13c0-.3-.1-.59-.14-.88s0-.32-.12-.44c0,0,.05,0,.1,0s-.08-.14-.13-.21c0,.09.08.13,0,.2s-.14-.12-.15-.21a.55.55,0,0,0-.1-.25c-.18-.2-.07-.38,0-.55a1.89,1.89,0,0,1,.55-.7.71.71,0,0,0,.21-.3.45.45,0,0,1,.24-.28c.28-.09.48-.36.81-.34a.32.32,0,0,0,.2-.08c.33-.3.79-.32,1.16-.53a.38.38,0,0,1,.26,0l.35.05a2,2,0,0,1,1.54,1,.3.3,0,0,0,.14.17.28.28,0,0,1,.17.35.1.1,0,0,0,0,.12l.15,0a.39.39,0,0,1,0-.3c0,.16,0,.29.22.33a.47.47,0,0,0,.17,0,1.16,1.16,0,0,1,.69.13,2,2,0,0,1,1,1.26,3.85,3.85,0,0,1,.08.47,1.29,1.29,0,0,1-.27,1.07l0,0"/></clipPath><clipPath id="clip-path-12"><rect class="cls-2" x="15.36" y="29.09" width="7.87" height="25.57"/></clipPath><clipPath id="clip-path-13"><rect class="cls-2" x="14.73" y="28.53" width="8.82" height="27.74"/></clipPath><clipPath id="clip-path-14"><path class="cls-1" d="M21.06,29.9l-.7-.81s-.44-.1-.63,1l.33,1.16-.86.13a6,6,0,0,0-1.75,3.51,8.27,8.27,0,0,1,.72,4.67s-.14-2.8-.9-3.38c0,0-2.38-1.42-1.83,6.92A73.58,73.58,0,0,0,17,54s1.11,1.67,3.22-.39a14.14,14.14,0,0,0,3-4.48Z"/></clipPath><clipPath id="clip-path-15"><rect class="cls-2" x="15.36" y="28.53" width="8.19" height="26.47"/></clipPath><clipPath id="clip-path-16"><path class="cls-1" d="M359.85,52.35a4.48,4.48,0,0,1-.47,1c-.17.3-.39.57-.58.86v0l-.62,1-.52.87v0c-.19.32-.35.22-.51.14a.35.35,0,0,1-.16-.2,1.41,1.41,0,0,1-.08-.28,2.92,2.92,0,0,0-.15-.47l0-.06c0-.05-.07-.16-.15-.34s.06-.38.06-.38c.18-.14.08-.3.1-.35a.94.94,0,0,1,.15-.55c.11-.22-.25-.77-.53-1a7,7,0,0,0-1.31-1c-.56-.38-1.15-.72-1.71-1.1a.77.77,0,0,0-.83-.11,5.31,5.31,0,0,1-.8.25l-.13,0a11.75,11.75,0,0,0,0,2,7.24,7.24,0,0,0,.69,1.69c.22.48.12.81-.39.92a11.52,11.52,0,0,1-1.44.15c-.95.06-1.9.1-2.85.14a.45.45,0,0,1-.31-.07c-.16-.14-.08-.52.26-.68s.38-.4.58-.6.24-.19.33-.17c.45.14.62-.12.88-.44.68-.85.13-1.71.1-2.56a5.45,5.45,0,0,0-.37-1.17,9.41,9.41,0,0,1-.19-3.22c0-.59.39-1.16.11-1.79-.09-.2.1-.51.19-.77a1.87,1.87,0,0,1,.17-.35l-.53-.35.35-1-.12-.11a6.47,6.47,0,0,0-1.14.81,1.77,1.77,0,0,1-1.23.65l-.24.66a.93.93,0,0,1-.64-1.18,1,1,0,0,1,1-1,1.91,1.91,0,0,0,1.45-2,8.18,8.18,0,0,1,.27-4.49,1.6,1.6,0,0,0,0-1c-.19-.62-.18-.72.45-.94a.52.52,0,0,0,.11-.07c-.36-.08-.82-.06-1.05-.28s-.7-.39-.48-.77l-.25-.58s0,0,0-.05c-.59-.32,0-.72-.08-1a1.9,1.9,0,0,0-.53-1c-.44-.42-.62-.72-.33-1.24a3.85,3.85,0,0,1,.76-.86,6.2,6.2,0,0,1,.7-.54c.14-.1.3-.25.46-.25a5.33,5.33,0,0,0,1.53-.47,3,3,0,0,1,1.91,0c.67.23.72.86,1,1.31a10.85,10.85,0,0,1,.75,1.27,1.29,1.29,0,0,1,.2.63,3.27,3.27,0,0,1-.6,1.77,4,4,0,0,1-.76.56c-.18.16-.33.35-.57.6a3.63,3.63,0,0,1,.57.1c.11,0,.26.18.25.26a2,2,0,0,0,.64,1.59,3.28,3.28,0,0,1,.54,1,6.43,6.43,0,0,0,1.18,1.94,5.71,5.71,0,0,1,1,2.21,17.24,17.24,0,0,1,.43,1.89,7.65,7.65,0,0,0,.57,1.49A3.9,3.9,0,0,1,357,45c0,.1-.51.17-.79.2a1,1,0,0,1-.42-.11v-1h-.15l-.12.77h-.11c-.05-.08-.14-.16-.15-.24a12.22,12.22,0,0,1,0-1.6,5.12,5.12,0,0,0-.72-2.76c-.18,1-.38,1.95.38,2.79l-.44.13s0,.09,0,.13a1.74,1.74,0,0,1-.14,1.68.34.34,0,0,0-.08.21,7.73,7.73,0,0,1-.34,2.53,1.4,1.4,0,0,0,0,.27c.39.31.72.54,1,.81l2.54,2.3s.11.1.15.09c.81-.25,1.37.36,2.09.55.45.11.26.41.22.58"/></clipPath><clipPath id="clip-path-17"><path class="cls-1" d="M84.76,55c-.25-.28-.59-.48-.81-.77-.56-.72-1.35-1.32-1.35-2.36a22.28,22.28,0,0,0-.68-5.8,10.87,10.87,0,0,1-.06-4.58A7.86,7.86,0,0,0,82,38,14.43,14.43,0,0,1,81.74,36c.67-.18,1.53,0,1.94-.54.12-.16-.09-.49,0-.64.45-.63.1-1.19,0-1.77A2.71,2.71,0,0,1,83.45,32c.09-.55.39-1.06.5-1.6a15.88,15.88,0,0,0,.4-2.8A4.42,4.42,0,0,0,84,25.66a24.39,24.39,0,0,0-1.65-2.95c-.18-.29-.6-.43-.92-.64.59-.63.61-.71.07-1.3-.32-.34-.11-.58.1-.86a11.19,11.19,0,0,0,.92-1.36.67.67,0,0,0-.31-1,2.23,2.23,0,0,1-1.35-2.19c0-.13-.07-.25-.08-.37-.11-1.85-1.63-2.32-2.95-2.95-.24-.11-.6,0-.9.08s-.31.12-.47.14a3.38,3.38,0,0,0-2.91,3.24,2.6,2.6,0,0,1-.15,1.09,21.6,21.6,0,0,1-1.27,2.12c-.27.41-.41.75.08,1.1a.46.46,0,0,1,.09.78.94.94,0,0,0,0,.69c.06.28.28.53.32.8s.3,1-.21,1.19a4.05,4.05,0,0,0-2,2.46c-.31.78-1.16,1.43-.69,2.44,0,.09-.06.24-.09.36A13.65,13.65,0,0,0,69,32.06c0,1.91.39,3.86-.38,5.73a1.43,1.43,0,0,0-.06.37c-.08.76.65,1.8,1.22,1.66.72-.16,1.1-.23,1.32-.48A2.13,2.13,0,0,0,71.46,37,4.36,4.36,0,0,1,71,35c.23-1.84.65-3.66,1-5.49h.27c.07.74.18,1.47.19,2.2a33.38,33.38,0,0,1,0,6.4,6.58,6.58,0,0,0,0,2,22.37,22.37,0,0,1,.24,6.27A14.64,14.64,0,0,0,73,51.22a3.86,3.86,0,0,1-.13,2.61,3.88,3.88,0,0,0-.25,1.75.81.81,0,0,0,.44.64c1,.13,2,.19,3.08.22.13,0,.4-.35.39-.51a4.77,4.77,0,0,0-.35-1.88,5.34,5.34,0,0,1-.55-3.71,26.53,26.53,0,0,1,.87-5.15,11,11,0,0,0,.13-2c.13-1,.35-2,.54-3l.16,0c.27,1.49.44,3,.81,4.47.45,1.82,1,3.61,1.61,5.41a7.27,7.27,0,0,1,.55,3.09c-.08.65-.22,1.3-.24,2a1.05,1.05,0,0,0,.41.74c1.3.86,2.72.55,4.09.26A.66.66,0,0,0,84.76,55"/></clipPath><clipPath id="clip-path-18"><path class="cls-1" d="M283.87,66.69H268.76l2.52,48.13H283.4L289.6,133h17Zm-10.56,33.84,2.82-8.32,2.84,8.32Z"/></clipPath></defs><title>Nomad</title><g class="cls-3"><rect class="cls-4" x="19.14" y="51.85" width="73.12" height="85.1"/></g><g class="cls-5"><rect class="cls-4" x="195.01" y="51.85" width="82.58" height="85.1"/></g><g class="cls-6"><rect class="cls-4" x="321.31" y="52.06" width="73.56" height="81.76"/></g><g class="cls-7"><rect class="cls-8" x="114.32" y="49.49" width="69.29" height="69.15"/></g><g class="cls-9"><rect class="cls-8" x="129.65" y="83.52" width="22.62" height="11.36"/></g><g class="cls-10"><rect class="cls-8" x="139.95" y="72.2" width="9.21" height="12.73"/></g><g class="cls-11"><rect class="cls-8" x="132" y="79.48" width="9.78" height="10.41"/></g><g class="cls-12"><rect class="cls-4" x="112.54" y="47.89" width="73.25" height="73.07"/></g><g class="cls-13"><rect class="cls-4" x="105.51" y="50.05" width="72.78" height="89.42"/></g><g class="cls-14"><rect class="cls-15" x="16.14" y="9.47" width="44.55" height="87.47"/></g><g class="cls-16"><rect class="cls-15" x="304.46" y="23.78" width="32.95" height="53.7"/></g><g class="cls-17"><g class="cls-18"><g class="cls-19"><g class="cls-20"><g class="cls-21"><rect class="cls-15" x="12.21" y="25.94" width="14.18" height="31.87"/></g></g></g></g></g><g class="cls-22"><rect class="cls-15" x="342.61" y="23.32" width="20.46" height="36.19"/></g><g class="cls-23"><rect class="cls-15" x="65.39" y="8.88" width="22.76" height="50.7"/></g><g class="cls-24"><rect class="cls-4" x="265.61" y="63.53" width="44.11" height="72.65"/></g></svg>