<svg xmlns="http://www.w3.org/2000/svg" xmlns:xlink="http://www.w3.org/1999/xlink" width="446" height="342.531" viewBox="0 0 446 342.531">
  <defs>
    <filter id="Rectangle_Copy_13" x="0" y="101" width="446" height="140.531" filterUnits="userSpaceOnUse">
      <feOffset input="SourceAlpha"/>
      <feGaussianBlur stdDeviation="10" result="blur"/>
      <feFlood flood-opacity="0.051"/>
      <feComposite operator="in" in2="blur"/>
      <feComposite in="SourceGraphic"/>
    </filter>
    <filter id="Rectangle_Copy_13-2" x="0" y="0" width="446" height="140.531" filterUnits="userSpaceOnUse">
      <feOffset input="SourceAlpha"/>
      <feGaussianBlur stdDeviation="10" result="blur-2"/>
      <feFlood flood-opacity="0.051"/>
      <feComposite operator="in" in2="blur-2"/>
      <feComposite in="SourceGraphic"/>
    </filter>
    <filter id="Rectangle_Copy_14" x="0" y="202" width="446" height="140.531" filterUnits="userSpaceOnUse">
      <feOffset input="SourceAlpha"/>
      <feGaussianBlur stdDeviation="10" result="blur-3"/>
      <feFlood flood-opacity="0.051"/>
      <feComposite operator="in" in2="blur-3"/>
      <feComposite in="SourceGraphic"/>
    </filter>
    <clipPath id="clip-path">
      <path id="Clip_2" data-name="Clip 2" d="M0,0H62.138V47.131H0Z" transform="translate(0.001 0.002)" fill="none"/>
    </clipPath>
  </defs>
  <g id="Group_15135" data-name="Group 15135" transform="translate(-1033 -4554)">
    <g transform="matrix(1, 0, 0, 1, 1033, 4554)" filter="url(#Rectangle_Copy_13)">
      <rect id="Rectangle_Copy_13-3" data-name="Rectangle Copy 13" width="386" height="80.531" rx="5" transform="translate(30 131)" fill="#fff"/>
    </g>
    <g transform="matrix(1, 0, 0, 1, 1033, 4554)" filter="url(#Rectangle_Copy_13-2)">
      <rect id="Rectangle_Copy_13-4" data-name="Rectangle Copy 13" width="386" height="80.531" rx="5" transform="translate(30 30)" fill="#fff"/>
    </g>
    <g transform="matrix(1, 0, 0, 1, 1033, 4554)" filter="url(#Rectangle_Copy_14)">
      <rect id="Rectangle_Copy_14-2" data-name="Rectangle Copy 14" width="386" height="80.531" rx="5" transform="translate(30 232)" fill="#fff"/>
    </g>
    <path id="Path" d="M6,0H4V4H0V6H4v4H6V6h4V4H6Z" transform="translate(1413 4720)" fill="#242833"/>
    <path id="Path-2" data-name="Path" d="M6,0H4V4H0V6H4v4H6V6h4V4H6Z" transform="translate(1413 4619)" fill="#242833"/>
    <path id="Subtraction_2" data-name="Subtraction 2" d="M87,13355a10,10,0,1,1,10-10A10.012,10.012,0,0,1,87,13355Zm0-18a8,8,0,1,0,8,8A8.009,8.009,0,0,0,87,13337Z" transform="translate(1331 -8620)" fill="#242833" stroke="rgba(0,0,0,0)" stroke-miterlimit="10" stroke-width="1"/>
    <path id="Subtraction_4" data-name="Subtraction 4" d="M87,13355a10,10,0,1,1,10-10A10.012,10.012,0,0,1,87,13355Zm0-18a8,8,0,1,0,8,8A8.009,8.009,0,0,0,87,13337Z" transform="translate(1331 -8721)" fill="#242833" stroke="rgba(0,0,0,0)" stroke-miterlimit="10" stroke-width="1"/>
    <path id="Path-3" data-name="Path" d="M6,0H4V4H0V6H4v4H6V6h4V4H6Z" transform="translate(1413 4821)" fill="#242833"/>
    <path id="Subtraction_3" data-name="Subtraction 3" d="M87,13355a10,10,0,1,1,10-10A10.012,10.012,0,0,1,87,13355Zm0-18a8,8,0,1,0,8,8A8.009,8.009,0,0,0,87,13337Z" transform="translate(1331 -8519)" fill="#242833" stroke="rgba(0,0,0,0)" stroke-miterlimit="10" stroke-width="1"/>
    <g id="Group_4" data-name="Group 4" transform="translate(1085 4705)">
      <rect id="Rectangle_Copy_10" data-name="Rectangle Copy 10" width="42" height="5" transform="translate(11 35)" fill="#3291e9"/>
      <path id="Fill_1" data-name="Fill 1" d="M53.067,40.035H11.16a.579.579,0,0,1-.579-.579V36.089H3.466A3.472,3.472,0,0,1,0,32.623V3.466A3.454,3.454,0,0,1,1.019,1.019l.005-.006A3.45,3.45,0,0,1,3.466,0H60.757a3.469,3.469,0,0,1,3.466,3.466V32.623a3.469,3.469,0,0,1-3.466,3.466H53.644v3.367A.578.578,0,0,1,53.067,40.035ZM11.736,36.089v2.787H52.489V36.089ZM57.91,1.154V34.934h2.848a2.3,2.3,0,0,0,2.309-2.311V3.466a2.309,2.309,0,0,0-2.309-2.312ZM7.472,30.7v4.235H56.756V30.7ZM3.466,1.154a2.317,2.317,0,0,0-2.31,2.312V32.623a2.318,2.318,0,0,0,2.31,2.311H6.313V30.185c0-.019,0-.04,0-.064V1.154Zm4.006,0V29.545H56.756V1.152ZM34.345,34.036H29.878a.578.578,0,0,1-.576-.579V31.63a.576.576,0,0,1,.576-.574h4.467a.576.576,0,0,1,.576.574v1.828A.578.578,0,0,1,34.345,34.036Zm-3.889-1.827v.67h3.309v-.67Z" transform="translate(0 0)" fill="#0047cc"/>
    </g>
    <text id="TV_Mounting" data-name="TV Mounting" transform="translate(1170 4731)" fill="#242833" font-size="18" font-family="HelveticaNeue, Helvetica Neue"><tspan x="0" y="0">TV Mounting</tspan></text>
    <text id="TV_Mounting-2" data-name="TV Mounting" transform="translate(1170 4630)" fill="#242833" font-size="18" font-family="HelveticaNeue, Helvetica Neue"><tspan x="0" y="0">Computer Support</tspan></text>
    <text id="Audio_Video" data-name="Audio &amp; Video" transform="translate(1170 4832)" fill="#242833" font-size="18" font-family="HelveticaNeue, Helvetica Neue"><tspan x="0" y="0">Audio &amp; Video</tspan></text>
    <g id="Group_4-2" data-name="Group 4" transform="translate(1084 4802)">
      <g id="Group_3" data-name="Group 3">
        <path id="Clip_2-2" data-name="Clip 2" d="M0,0H62.138V47.131H0Z" transform="translate(0.001 0.002)" fill="none"/>
        <g id="Group_3-2" data-name="Group 3" clip-path="url(#clip-path)">
          <path id="Fill_1-2" data-name="Fill 1" d="M57.721,47.131H4.414A4.413,4.413,0,0,1,0,42.718V4.357L0,4.3V4.244L0,4.19.01,4.13l0-.054,0-.057.005-.054L.03,3.909l0-.051,0-.005L.041,3.8.05,3.747l.01-.054.01-.055.007-.051V3.581L.088,3.53.1,3.479l.013-.057.012-.049h0l0,0,.007-.049.018-.052.014-.051V3.209l.014-.046V3.155L.2,3.109.214,3.06l0-.005.014-.049.015-.049,0-.005L.266,2.9l.02-.049L.3,2.806l.023-.044,0-.007.017-.049.023-.05.019-.049,0,0,.023-.044.024-.05.02-.044.027-.05L.5,2.365l0,0,.022-.04,0-.007.02-.042,0,0,.022-.04.03-.044,0-.007.024-.037,0-.01.022-.037,0-.007L.694,2.05l0-.01L.724,2,.726,2l.024-.04,0,0L.78,1.915l.032-.044,0-.008.027-.034.005-.01.024-.034.007-.005.027-.037.005,0L.938,1.7l.005-.007L.97,1.657l0-.005L1,1.622l.007-.01.03-.037.005,0,.027-.032.007-.007.03-.034,0-.007.03-.032.007,0,.027-.035.008,0,.029-.032.008-.007.029-.032.008-.008.027-.027L1.3,1.3l.01-.012.031-.03.005-.005.029-.027.01-.01.03-.029.01-.008.032-.031,0,0,.034-.03.005,0,.031-.035.01,0,.032-.03.007,0,.032-.027L1.62,1l.034-.03,0,0,.035-.03,0,0L1.735.914l.01-.005L1.778.877l0-.005.04-.027,0,0,.04-.027.005,0L1.908.785l0-.007.04-.022,0-.005L1.994.724,2,.721,2.04.7h.008L2.085.664,2.129.64l.007,0L2.179.616l0,0L2.22.586l.01,0L2.267.559l.01,0,.04-.024,0,0,.042-.02,0,0,.04-.02,0,0L2.459.46l.005,0L2.506.433l.05-.02,0,0L2.6.392l.007,0L2.651.367,2.7.347l.005,0,.047-.02L2.8.308l0,0L2.85.288h.007L2.9.266l.05-.017L3.005.231,3.055.214l.005,0L3.107.2,3.158.185l0,0L3.209.17,3.215.165l.047-.01,0,0L3.316.138,3.365.123h.007l.047-.01,0,0L3.473.1,3.525.091,3.581.079l.052-.01.054-.01h.005L3.744.05,3.8.041,3.855.034,3.907.027l.059,0L4.019.017l.054,0L4.13,0h.057l.054,0h.116l.057,0H57.721a4.423,4.423,0,0,1,4.418,4.411V42.718a4.392,4.392,0,0,1-1.294,3.118l-.005.005A4.4,4.4,0,0,1,57.721,47.131Zm-7.665-7.205v5.736h7.665A2.92,2.92,0,0,0,59.8,44.8l.005-.007a2.924,2.924,0,0,0,.859-2.08V39.926ZM13.556,1.47V45.662H48.581V1.47ZM1.47,39.926v2.792a2.955,2.955,0,0,0,2.944,2.944h7.668V39.926ZM50.055,29.48v8.977H60.667V29.48Zm-48.586,0v8.977H12.083V29.48ZM50.055,19.126V28H60.667V19.126Zm-48.586,0V28H12.083V19.126Zm48.586-10.4v8.925H60.667V8.726Zm-48.586,0v8.925H12.083V8.726ZM50.055,1.47v5.79H60.665V4.411A2.955,2.955,0,0,0,57.721,1.47Zm-45.642,0a2.9,2.9,0,0,0-2.077.864l-.005,0A2.906,2.906,0,0,0,1.47,4.411V7.259H12.082V1.47ZM22.329,34.383a.729.729,0,0,1-.66-.409.689.689,0,0,1-.076-.322h-.006V12.713a.739.739,0,0,1,1.108-.635L43.889,22.525a.731.731,0,0,1,.332.98.712.712,0,0,1-.342.338L22.651,34.309A.731.731,0,0,1,22.329,34.383ZM23.063,13.9V32.473L41.9,23.183Z" transform="translate(0.001 0.002)" fill="#0047cc"/>
        </g>
      </g>
      <g id="Path-4" data-name="Path" transform="translate(21.589 11.982)" fill="#3291e9" stroke-miterlimit="10">
        <path d="M 0.7411388158798218 21.90305328369141 C 0.6697688102722168 21.90305328369141 0.5768988132476807 21.8691234588623 0.5302587747573853 21.77391242980957 L 0.5272887945175171 21.7678337097168 L 0.5241488218307495 21.76184272766113 C 0.5117487907409668 21.73817253112793 0.5049188137054443 21.7060432434082 0.5049188137054443 21.67138290405273 L 0.5049188137054443 21.17138290405273 L 0.4999988079071045 21.17138290405273 L 0.4999988079071045 0.7335430383682251 C 0.4999988079071045 0.6047729849815369 0.6058688163757324 0.5000030398368835 0.735998809337616 0.5000030398368835 C 0.7807387709617615 0.5000030398368835 0.8212987780570984 0.5100030303001404 0.8533087968826294 0.5289230346679688 L 0.8696287870407104 0.5385630130767822 L 0.8866288065910339 0.5469430088996887 L 22.08047866821289 10.99371337890625 C 22.15548896789551 11.03045272827148 22.18583869934082 11.09278297424316 22.19735908508301 11.12672328948975 C 22.2088794708252 11.16066265106201 22.22272872924805 11.22863292694092 22.1860294342041 11.3025426864624 C 22.16126823425293 11.35284328460693 22.12708854675293 11.38761329650879 22.08363914489746 11.40749263763428 L 22.07706832885742 11.41050338745117 L 22.07057952880859 11.41370296478271 L 0.842278778553009 21.88016319274902 C 0.8118488192558289 21.89495277404785 0.7770187854766846 21.90305328369141 0.7411388158798218 21.90305328369141 Z" stroke="none"/>
        <path d="M 0.9999980926513672 1.160259246826172 L 0.9999980926513672 20.67138290405273 L 1.004919052124023 20.67138290405273 L 1.004919052124023 21.24250221252441 L 21.3707160949707 11.2012939453125 L 0.9999980926513672 1.160259246826172 M 0.7359981536865234 3.814697265625e-06 C 0.8713779449462891 3.814697265625e-06 0.9993782043457031 0.03446388244628906 1.107688903808594 0.09846305847167969 L 22.30153846740723 10.54523277282715 C 22.66338920593262 10.72246265411377 22.81353950500488 11.16307258605957 22.63384819030762 11.52492332458496 C 22.55753898620605 11.68000316619873 22.43691825866699 11.79569339752197 22.29168891906738 11.86215305328369 L 1.063388824462891 22.32861328125 C 0.9595699310302734 22.37911796569824 0.8494853973388672 22.40304756164551 0.7411346435546875 22.40304756164551 C 0.4692707061767578 22.40304756164551 0.2079524993896484 22.2525749206543 0.08122825622558594 21.99384307861328 C 0.02707862854003906 21.89046287536621 0.004919052124023438 21.7772331237793 0.004919052124023438 21.67138290405273 L -1.9073486328125e-06 21.67138290405273 L -1.9073486328125e-06 0.7335338592529297 C -1.9073486328125e-06 0.3298435211181641 0.3298492431640625 3.814697265625e-06 0.7359981536865234 3.814697265625e-06 Z" stroke="none" fill="#0047cc"/>
      </g>
    </g>
    <g id="Group_4-3" data-name="Group 4" transform="translate(1085 4603)">
      <rect id="Rectangle" width="52" height="5" transform="translate(1 30)" fill="#3291e9"/>
      <rect id="Rectangle_Copy_8" data-name="Rectangle Copy 8" width="26" height="3" transform="translate(14 39)" fill="#3291e9"/>
      <path id="Fill_1-3" data-name="Fill 1" d="M63.623,42.4H45.413a1.909,1.909,0,0,1-1.363-.566.125.125,0,0,1-.029-.03,1.924,1.924,0,0,1-.535-1.331V35.7H33.551v2.8h6.825a.552.552,0,0,1,.551.552v2.78a.551.551,0,0,1-.551.55H13.619a.55.55,0,0,1-.549-.55v-2.78a.551.551,0,0,1,.549-.552h6.826V35.7H1.929a1.912,1.912,0,0,1-1.361-.564c-.011-.011-.024-.024-.033-.035A1.929,1.929,0,0,1,0,33.771V30.254a.38.38,0,0,1,0-.063V1.927A1.913,1.913,0,0,1,.531.6L.542.588A.312.312,0,0,1,.562.564,1.946,1.946,0,0,1,1.733.007h.022l.023,0H1.8l.025,0h.024l.026,0H63.623A1.93,1.93,0,0,1,65.55,1.927V40.469A1.927,1.927,0,0,1,63.623,42.4ZM44.585,35.7v4.772a.828.828,0,0,0,.221.564l.023.021a.813.813,0,0,0,.583.241h18.21a.827.827,0,0,0,.828-.826V1.927a.821.821,0,0,0-.828-.824H53.808l0,.009.007.011,0,.011.007.012,0,.01h0v.005l.007.009,0,.007,0,.005.007.015,0,.009.005.013,0,.012,0,.011.008.014,0,.007.007.017,0,.011.005.015.005.011.005.013,0,.014,0,.011.006.014,0,.007,0,0,.005.014v.011l.005.015,0,.013.005.011,0,.015v.011l.005.014v.005l0,.006,0,.013v.007l.007.019,0,.014,0,.013,0,.013,0,.011,0,.014,0,.01,0,.016,0,.006v.024l0,.01,0,.016,0,.013v.009l0,.019,0,.005h0V1.75l0,.014,0,.014V1.8l0,.013V1.86l0,.013V9.666h6.271a.553.553,0,0,1,0,1.106H53.995V32.6h2.989a.551.551,0,0,1,.549.552v4.927a.55.55,0,0,1-.549.549H52.057a.551.551,0,0,1-.552-.549V35.7ZM14.17,39.6v1.677H39.826V39.6H14.17ZM21.546,35.7v2.8h10.9V35.7Zm31.071-.079-.011,0v1.9H56.43V33.7H53.995v.07a1.915,1.915,0,0,1-.566,1.363l-.011.011,0,.005-.007.006-.009.009-.011.009-.005.007-.006,0-.011.012-.011.009-.007.007-.006,0-.009.011-.011.01-.009.007-.013.011-.006.005-.005,0-.011.01-.005,0-.008.009-.007,0-.005.005-.013.012-.012.007-.005.005-.007,0-.011.007-.014.009-.007.008-.007,0-.009.009-.013.007-.007.007-.016.012-.013.007-.01.007-.016.007,0,0-.01.005-.011.008-.014.009-.005,0-.008,0-.014.009-.011.007-.007,0-.006,0-.013.007-.014.005-.005.005-.008,0-.014.005-.009.008-.012,0-.005,0-.013.007-.013,0-.012.007-.005,0-.013,0-.011.008-.014.007-.018.005-.013.005-.013.005-.013.005-.012,0-.018.008-.017.007-.005,0-.007,0-.013,0-.017.007-.009,0-.02.007,0,0-.011,0-.011,0-.015.007h-.005ZM1.1,30.745v3.026a.811.811,0,0,0,.221.563l.022.022a.823.823,0,0,0,.581.242H52.068a.83.83,0,0,0,.824-.826V30.745Zm.24-29.4a.839.839,0,0,0-.24.584V29.641H52.892V1.876l0-.012V1.855l0-.009V1.813L52.88,1.8V1.783l-.005-.011V1.761l0-.01V1.741l0-.007-.005-.011,0-.01V1.7l0-.011,0-.007,0-.01,0-.011,0-.009-.005-.012,0-.009,0-.009-.005-.009,0-.01L52.822,1.6l0-.009-.005-.009,0-.01,0-.007L52.8,1.553l0-.009,0-.007-.005-.01-.005-.009,0-.011,0-.005-.005-.01-.005-.009-.007-.007,0-.009-.007-.009,0-.006-.008-.009-.005-.007-.005-.009-.007-.008-.005-.009L52.7,1.4l-.006,0-.007-.007-.007-.01-.005-.009-.007,0-.007-.009-.008-.005-.007-.007a.765.765,0,0,0-.273-.183l-.032-.013-.007,0-.009,0-.017-.005-.005,0-.005,0-.007,0-.005,0-.017,0-.007-.005h-.009l-.01,0-.011,0h-.009l-.011-.006H52.2l-.007,0h-.011l-.005,0h0l-.009,0H52.16l-.011,0H52.14l-.012,0H1.866l-.011,0a.8.8,0,0,0-.507.24Zm29.051,31.84H23.6a.55.55,0,0,1,0-1.1h6.8a.55.55,0,1,1,0,1.1Z" transform="translate(0 0)" fill="#0a47cc"/>
    </g>
  </g>
</svg>
