<svg xmlns="http://www.w3.org/2000/svg" width="193.599" height="64.587" viewBox="0 0 193.599 64.587">
    <defs>
        <style>
            .prefix__cls-1{fill:#fff}
        </style>
    </defs>
    <g id="prefix__Group_13728" data-name="Group 13728" transform="translate(-20665 -5840)">
        <g id="prefix__Group_13511" data-name="Group 13511" transform="translate(20665 5840)">
            <g id="prefix__Group_13508" data-name="Group 13508">
                <g id="prefix__Group_13507" data-name="Group 13507">
                    <path id="prefix__Path_7014" d="M210.455 48.822C210.438 52.8 203.167 66 203.167 66s-7.15-13.257-7.131-17.241a7.209 7.209 0 1 1 14.418.066zm-7.2-2.911a4.652 4.652 0 0 0-4.672 4.632c-.01 2.567 4.591 13.711 4.591 13.711s4.7-11.1 4.712-13.67a4.651 4.651 0 0 0-4.628-4.673z" class="prefix__cls-1" data-name="Path 7014" transform="translate(-179.869 -41.579)"/>
                    <path id="prefix__Path_7015" d="M269.087 121.065c-3.572 1.755-18.624 1.116-18.624 1.116s8.694-12.3 12.27-14.058a7.209 7.209 0 1 1 6.355 12.942zm-.594-7.742a4.652 4.652 0 0 0-6.225-2.122c-2.3 1.133-10.24 10.211-10.24 10.211s12.036-.727 14.342-1.861a4.653 4.653 0 0 0 2.123-6.227z" class="prefix__cls-1" data-name="Path 7015" transform="translate(-226.31 -97.728)"/>
                    <path id="prefix__Path_7016" d="M86.566 112.1a7.206 7.206 0 0 1 9.63-3.349c3.585 1.733 12.352 13.984 12.352 13.984s-15.049.729-18.631-1a7.213 7.213 0 0 1-3.351-9.635zm6.061 8.1c2.312 1.12 14.35 1.778 14.35 1.778s-7.987-9.033-10.3-10.153a4.652 4.652 0 0 0-4.052 8.375z" class="prefix__cls-1" data-name="Path 7016" transform="translate(-85.846 -98.279)"/>
                    <path id="prefix__Path_7017" d="M270.929 375.018a1.96 1.96 0 0 1-1.96 1.96h-14.1a1.959 1.959 0 0 1-1.96-1.96v-14.1a1.959 1.959 0 0 1 1.96-1.959h14.1a1.96 1.96 0 0 1 1.96 1.959z" class="prefix__cls-1" data-name="Path 7017" transform="translate(-228.396 -312.391)"/>
                    <path id="prefix__Path_7018" d="M126.243 375.018a1.959 1.959 0 0 1-1.96 1.96h-14.1a1.959 1.959 0 0 1-1.959-1.96v-14.1a1.959 1.959 0 0 1 1.959-1.959h14.1a1.959 1.959 0 0 1 1.96 1.959z" class="prefix__cls-1" data-name="Path 7018" transform="translate(-104.938 -312.391)"/>
                    <path id="prefix__Path_7019" d="M118.011 288.312a1.064 1.064 0 0 1-1.065 1.064h-7.661a1.064 1.064 0 0 1-1.064-1.064v-7.661a1.065 1.065 0 0 1 1.064-1.065h7.661a1.065 1.065 0 0 1 1.065 1.065z" class="prefix__cls-1" data-name="Path 7019" transform="translate(-104.938 -244.665)"/>
                    <path id="prefix__Path_7020" d="M205.507 243.114a1.893 1.893 0 0 1-1.894 1.893h-13.63a1.893 1.893 0 0 1-1.895-1.893v-13.632a1.894 1.894 0 0 1 1.895-1.894h13.631a1.894 1.894 0 0 1 1.894 1.894z" class="prefix__cls-1" data-name="Path 7020" transform="translate(-173.087 -200.297)"/>
                    <path id="prefix__Path_7021" d="M328.142 297.829a.89.89 0 0 1-.89.889h-6.4a.889.889 0 0 1-.89-.889v-6.4a.89.89 0 0 1 .89-.89h6.4a.89.89 0 0 1 .89.89z" class="prefix__cls-1" data-name="Path 7021" transform="translate(-285.609 -254.008)"/>
                    <rect id="prefix__Rectangle_991" width="8.184" height="8.185" class="prefix__cls-1" data-name="Rectangle 991" rx="4.092" transform="translate(34.349 27.291)"/>
                    <path id="prefix__Rectangle_992" d="M2.132 0a2.133 2.133 0 0 1 2.137 2.133 2.134 2.134 0 0 1-2.135 2.136A2.134 2.134 0 0 1 0 2.135 2.132 2.132 0 0 1 2.132 0z" class="prefix__cls-1" data-name="Rectangle 992" transform="translate(3.431 27.291)"/>
                    <path id="prefix__Path_7022" d="M150.118 231.394a.464.464 0 0 1-.464.464h-3.341a.464.464 0 0 1-.464-.464v-3.341a.465.465 0 0 1 .464-.464h3.341a.465.465 0 0 1 .464.464z" class="prefix__cls-1" data-name="Path 7022" transform="translate(-137.045 -200.297)"/>
                </g>
            </g>
            <g id="prefix__Group_13509" data-name="Group 13509" transform="translate(45.903 26.065)">
                <path id="prefix__Path_7023" d="M398.707 233.448q0-8.717 5.259-12.223 3.116-2 9.447-2 6.136 0 9.35 2 5.259 3.214 5.259 12.126a27.689 27.689 0 0 1-4.285 15.632q-4.286 6.477-10.324 6.477t-10.421-6.428a25.19 25.19 0 0 1-3.214-7.085 31.449 31.449 0 0 1-1.071-8.499zm9.009-7.256q-2.825 2.387-2.824 7.5a24.017 24.017 0 0 0 3.9 13.294q2.045 3.166 4.529 3.165 3.749 0 6.623-7.012a26.117 26.117 0 0 0 1.948-9.545q0-5.015-2.873-7.4-1.753-1.461-5.649-1.461-3.803-.002-5.654 1.459z" class="prefix__cls-1" data-name="Path 7023" transform="translate(-398.707 -219.228)"/>
                <path id="prefix__Path_7024" d="M625.728 308.967v-26.345h10.811q4.675 0 6.769 2.094t2.094 6.818v17.434h-5.8v-16.85a4.872 4.872 0 0 0-1.023-3.311 4.1 4.1 0 0 0-1.607-1.023l-1.9-.1h-3.555v21.232z" class="prefix__cls-1" data-name="Path 7024" transform="translate(-592.419 -273.321)"/>
                <path id="prefix__Path_7025" d="M797.03 300.547a7.055 7.055 0 0 0 2.045 1.315 22.865 22.865 0 0 0 4.188.633l3.263.1-1.364 4.675-2.386.049a30.008 30.008 0 0 1-3.165-.146 17.338 17.338 0 0 1-2.776-.535 13.053 13.053 0 0 1-7.475-5.43 16.4 16.4 0 0 1-2.995-9.666q0-6.038 3.555-8.863 2.58-2.049 8.08-2.049 10.128 0 10.129 7.3a10.19 10.19 0 0 1-3.993 7.938 53.8 53.8 0 0 1-7.106 4.679zm-3.7-3.652a23.714 23.714 0 0 0 5.941-3.36q2.922-2.337 2.922-4.821 0-3.262-4.626-3.263-5.5 0-5.5 6.038a13.915 13.915 0 0 0 .316 2.654 9.77 9.77 0 0 0 .946 2.752z" class="prefix__cls-1" data-name="Path 7025" transform="translate(-729.487 -271.621)"/>
                <path id="prefix__Path_7026" d="M981.717 257.99h-4.772a39.535 39.535 0 0 1-4.724-.244 18.887 18.887 0 0 1-3.847-.877 19.95 19.95 0 0 1-6.525-3.847A20.4 20.4 0 0 1 954.642 237q0-8.278 5.99-12.028 3.506-2.093 9.788-2.094h8.522l1.315 5.211h-7.694q-5.259 0-8.181 1.753-3.6 2.192-3.6 7.451a15.531 15.531 0 0 0 4.261 10.64q4.261 4.748 9.52 4.748h1.023v-12.222h-3.36v-5.211h9.5z" class="prefix__cls-1" data-name="Path 7026" transform="translate(-873.075 -222.343)"/>
                <path id="prefix__Path_7027" d="M1172.7 308.967v-26.345h5.795v26.345z" class="prefix__cls-1" data-name="Path 7027" transform="translate(-1059.137 -273.321)"/>
                <path id="prefix__Path_7028" d="M1234.095 236.758v-5.113h2.094v-2.095a6.76 6.76 0 0 1 1.7-4.918 6.414 6.414 0 0 1 4.821-1.753h3.652l1.363 4.87H1245a3.433 3.433 0 0 0-2.216.56 2.486 2.486 0 0 0-.657 1.972v1.364h3.7v5.113h-3.8v21.232h-5.8v-21.232z" class="prefix__cls-1" data-name="Path 7028" transform="translate(-1111.526 -222.343)"/>
                <path id="prefix__Path_7029" d="M1313.748 248.369v-5.113h2.338v-5.016l5.844-1.753v6.769h4.236v5.113h-4.285v12.856a3.362 3.362 0 0 0 .779 2.557 3.461 3.461 0 0 0 2.386.706h2.143l-1.461 5.113h-3.263a6.408 6.408 0 0 1-5.015-2q-1.461-1.7-1.461-5.308v-13.924z" class="prefix__cls-1" data-name="Path 7029" transform="translate(-1179.492 -233.955)"/>
            </g>
            <g id="prefix__Group_13510" data-name="Group 13510" transform="translate(159.174 23.436)">
                <path id="prefix__Path_7030" d="M1182.516 216.432c-.005 1.137-2.084 6.045-2.084 6.045s-2.035-4.929-2.03-6.063a2.057 2.057 0 1 1 4.114.018z" class="prefix__cls-1" data-name="Path 7030" transform="translate(-1177.275 -212.451)"/>
                <path id="prefix__Path_7031" d="M1173.878 211.338s2.079-4.908 2.084-6.045a2.057 2.057 0 0 0-4.114-.018c-.005 1.135 2.03 6.063 2.03 6.063zm3.219-6.823c-.008 1.759-3.222 7.593-3.222 7.593s-3.162-5.86-3.154-7.622a3.188 3.188 0 1 1 6.375.029z" class="prefix__cls-1" data-name="Path 7031" transform="translate(-1170.722 -201.312)"/>
            </g>
        </g>
    </g>
</svg>
