<svg id="Capa_1" data-name="Capa 1" xmlns="http://www.w3.org/2000/svg" viewBox="0 0 1500 514.95"><defs><style>.cls-1{fill:#a5208e;}.cls-2{fill:#c9d81d;}.cls-3{fill:#fbb403;}.cls-4{fill:#f26d1f;}.cls-5{fill:#fac000;}.cls-6{fill:#2ea1e4;}.cls-7{fill:#77be37;}.cls-8{fill:#c0db18;}</style></defs><title>Vector Smart Object</title><path class="cls-1" d="M294.31,91C294.19,118.08,244.64,208,244.64,208S195.91,117.66,196,90.5a49.14,49.14,0,1,1,98.27.45ZM245.25,71.11a31.71,31.71,0,0,0-31.84,31.57c-.07,17.49,31.29,93.45,31.29,93.45s32-75.67,32.11-93.17A31.69,31.69,0,0,0,245.25,71.11Z"/><path class="cls-2" d="M377.4,200.64c-24.35,12-126.94,7.61-126.94,7.61s59.25-83.86,83.63-95.82a49.13,49.13,0,1,1,43.31,88.21Zm-4-52.76a31.71,31.71,0,0,0-42.43-14.47c-15.71,7.72-69.79,69.6-69.79,69.6s82-5,97.75-12.69A31.71,31.71,0,0,0,373.35,147.88Z"/><path class="cls-3" d="M90.76,135.78A49.1,49.1,0,0,1,156.39,113c24.44,11.81,84.19,95.3,84.19,95.3s-102.57,5-127-6.84A49.16,49.16,0,0,1,90.76,135.78ZM132.07,191c15.76,7.63,97.8,12.12,97.8,12.12s-54.43-61.57-70.19-69.2A31.7,31.7,0,0,0,132.07,191Z"/><path class="cls-2" d="M375.74,468.43a13.36,13.36,0,0,1-13.36,13.35H266.26a13.35,13.35,0,0,1-13.35-13.35V372.31A13.34,13.34,0,0,1,266.26,359h96.12a13.35,13.35,0,0,1,13.36,13.35Z"/><path class="cls-3" d="M231.05,468.43a13.36,13.36,0,0,1-13.36,13.35H121.58a13.36,13.36,0,0,1-13.36-13.35V372.31A13.35,13.35,0,0,1,121.58,359h96.11a13.35,13.35,0,0,1,13.36,13.35Z"/><path class="cls-1" d="M175,339.06a7.25,7.25,0,0,1-7.26,7.25H115.48a7.25,7.25,0,0,1-7.26-7.25V286.85a7.26,7.26,0,0,1,7.26-7.26h52.21a7.26,7.26,0,0,1,7.26,7.26Z"/><path class="cls-4" d="M306.81,333.41a12.9,12.9,0,0,1-12.91,12.9H201a12.9,12.9,0,0,1-12.91-12.9V240.5A12.91,12.91,0,0,1,201,227.59h92.9a12.91,12.91,0,0,1,12.91,12.91Z"/><path class="cls-5" d="M375.74,340.25a6.06,6.06,0,0,1-6.07,6.06H326a6.06,6.06,0,0,1-6.06-6.06V296.6a6.06,6.06,0,0,1,6.06-6.06h43.65a6.06,6.06,0,0,1,6.07,6.06Z"/><rect class="cls-6" x="319.96" y="227.59" width="55.78" height="55.78" rx="6.07"/><rect class="cls-7" x="109.23" y="227.59" width="29.1" height="29.1" rx="3.16"/><path class="cls-8" d="M175,253.53a3.17,3.17,0,0,1-3.17,3.16H149a3.17,3.17,0,0,1-3.16-3.16V230.75a3.17,3.17,0,0,1,3.16-3.16h22.77a3.17,3.17,0,0,1,3.17,3.16Z"/><path class="cls-4" d="M398.71,316.14q0-59.4,35.84-83.3,21.24-13.6,64.39-13.61,41.82,0,63.73,13.61,35.83,21.9,35.84,82.64,0,62.4-29.2,106.54t-70.37,44.14q-41.16,0-71-43.81A171.78,171.78,0,0,1,406,374.06Q398.71,348,398.71,316.14Zm61.4-49.45q-19.26,16.26-19.25,51.11a163.71,163.71,0,0,0,26.55,90.61Q481.36,430,498.28,430q25.54,0,45.14-47.8,13.26-33.85,13.27-65.05,0-34.18-19.58-50.45-11.94-10-38.5-10Q472.72,256.73,460.11,266.69Z"/><path class="cls-6" d="M625.73,462.18V282.62h73.68q31.86,0,46.14,14.27t14.27,46.47V462.18h-39.5V347.34q0-14.59-7-22.57a28.09,28.09,0,0,0-11-7l-12.95-.66H665.22V461.85Z"/><path class="cls-6" d="M859.05,416.38a48.19,48.19,0,0,0,13.94,9q7,2.32,28.55,4.31l22.23.67-9.29,31.86-16.26.33a206.32,206.32,0,0,1-21.58-1,119.56,119.56,0,0,1-18.92-3.65q-30.53-8-50.94-37T786.37,355q0-41.16,24.23-60.41,17.58-13.94,55.09-13.94,69,0,69,49.79,0,30.87-27.22,54.1Q891.91,397.47,859.05,416.38Zm-25.22-24.89q25.54-10.62,40.49-22.91,19.92-15.93,19.91-32.85,0-22.23-31.53-22.24-37.5,0-37.5,41.15a94.82,94.82,0,0,0,2.15,18.09A66.59,66.59,0,0,0,833.83,391.49Z"/><path class="cls-4" d="M1139.18,462.18h-32.53a269.35,269.35,0,0,1-32.19-1.66,128.12,128.12,0,0,1-26.22-6q-23.23-8-44.48-26.22-49.12-43.14-49.12-109.2,0-56.42,40.83-82,23.89-14.27,66.71-14.27h58.08l9,35.51h-52.44q-35.83,0-55.76,11.95-24.57,14.94-24.56,50.78,0,40.17,29,72.52T1090.39,426h7V342.7h-22.9V307.18h64.72Z"/><path class="cls-6" d="M1172.7,462.18V282.62h39.49V462.18Z"/><path class="cls-6" d="M1234.09,317.47V282.62h14.28V268.35q0-21.57,11.61-33.52t32.86-12h24.9l9.29,33.19h-18.59q-10.62,0-15.1,3.82t-4.48,13.44v9.29h25.22v34.85H1288.2V462.18h-39.5V317.47Z"/><path class="cls-6" d="M1313.75,317.47V282.62h15.93V248.44l39.83-11.95v46.13h28.87v34.85h-29.2v87.62q0,12.63,5.31,17.43t16.26,4.81h14.6l-9.95,34.85h-22.24q-21.9,0-34.19-13.61-10-11.61-10-36.17V317.47Z"/><path class="cls-4" d="M1206.44,228.45c0,7.75-14.2,41.2-14.2,41.2s-13.87-33.59-13.84-41.33a14,14,0,0,1,28,.13Z"/><path class="cls-4" d="M1192.24,269.65s14.17-33.45,14.2-41.2a14,14,0,0,0-28-.13C1178.37,236.06,1192.24,269.65,1192.24,269.65Zm21.93-46.5c-.05,12-22,51.75-22,51.75S1170.67,235,1170.72,223a21.73,21.73,0,1,1,43.45.2Z"/></svg>