<svg xmlns="http://www.w3.org/2000/svg" width="306.243" height="45.709" viewBox="0 0 306.243 45.709">
    <defs>
        <clipPath id="prefix__clip-path">
            <circle id="prefix__Ellipse_236" cx="14.157" cy="14.157" r="14.157" class="prefix__cls-1" data-name="Ellipse 236" transform="translate(343.495 -1931.314)"/>
        </clipPath>
        <clipPath id="prefix__clip-path-2">
            <path id="prefix__Rectangle_1134" d="M0 0H2144.809V3514.368H0z" class="prefix__cls-1" data-name="Rectangle 1134" transform="translate(-122.752 -1969.357)"/>
        </clipPath>
        <clipPath id="prefix__clip-path-3">
            <path id="prefix__Path_7572" d="M317.31-1927.068a10.3 10.3 0 0 0 3.766 14.068 10.3 10.3 0 0 0 14.064-3.766 10.3 10.3 0 0 0-3.765-14.065 10.3 10.3 0 0 0-14.064 3.766z" class="prefix__cls-1" data-name="Path 7572"/>
        </clipPath>
        <clipPath id="prefix__clip-path-4">
            <path id="prefix__Rectangle_1135" d="M0 0H2144.809V3514.368H0z" class="prefix__cls-1" data-name="Rectangle 1135" transform="translate(-122.751 -1969.357)"/>
        </clipPath>
        <clipPath id="prefix__clip-path-5">
            <path id="prefix__Path_7573" d="M335.578-1943.276a7.722 7.722 0 0 0 2.824 10.548 7.722 7.722 0 0 0 10.549-2.825 7.721 7.721 0 0 0-2.816-10.55l-.01-.006a7.72 7.72 0 0 0-10.545 2.828z" class="prefix__cls-1" data-name="Path 7573"/>
        </clipPath>
        <clipPath id="prefix__clip-path-6">
            <path id="prefix__Rectangle_1136" d="M0 0H2144.809V3514.368H0z" class="prefix__cls-1" data-name="Rectangle 1136" transform="translate(-122.753 -1969.357)"/>
        </clipPath>
        <style>
            .prefix__cls-1{fill:none}.prefix__cls-2{fill:#fff}
        </style>
    </defs>
    <g id="prefix__Group_13761" data-name="Group 13761" transform="translate(-315.93 1947.144)">
        <g id="prefix__Group_13694" data-name="Group 13694">
            <path id="prefix__Path_7325" d="M399.654-1934.59a11.182 11.182 0 0 1-.968 4.8 7.289 7.289 0 0 1-2.768 3.183 7.655 7.655 0 0 1-4.131 1.121 7.7 7.7 0 0 1-4.113-1.108 7.343 7.343 0 0 1-2.8-3.165 10.848 10.848 0 0 1-1.005-4.728v-.917a11.131 11.131 0 0 1 .986-4.819 7.35 7.35 0 0 1 2.788-3.194 7.675 7.675 0 0 1 4.12-1.115 7.679 7.679 0 0 1 4.118 1.115 7.35 7.35 0 0 1 2.788 3.194 11.1 11.1 0 0 1 .986 4.806zm-3.871-.84a7.806 7.806 0 0 0-1.043-4.43 3.4 3.4 0 0 0-2.98-1.515 3.407 3.407 0 0 0-2.967 1.5 7.712 7.712 0 0 0-1.056 4.385v.9a7.894 7.894 0 0 0 1.043 4.4 3.392 3.392 0 0 0 3.006 1.566 3.364 3.364 0 0 0 2.954-1.508 7.857 7.857 0 0 0 1.043-4.4z" class="prefix__cls-2" data-name="Path 7325"/>
            <path id="prefix__Path_7326" d="M405.548-1939.516l.114 1.592a4.812 4.812 0 0 1 3.961-1.847 4 4 0 0 1 3.259 1.286 5.994 5.994 0 0 1 1.094 3.845v8.9H410.3v-8.81a2.4 2.4 0 0 0-.509-1.7 2.289 2.289 0 0 0-1.693-.527 2.528 2.528 0 0 0-2.329 1.324v9.714h-3.681v-13.776z" class="prefix__cls-2" data-name="Path 7326"/>
            <path id="prefix__Path_7327" d="M424.2-1929.547a1.189 1.189 0 0 0-.669-1.063 7.653 7.653 0 0 0-2.146-.694q-4.916-1.032-4.914-4.176a3.788 3.788 0 0 1 1.521-3.062 6.141 6.141 0 0 1 3.978-1.228 6.609 6.609 0 0 1 4.2 1.236 3.891 3.891 0 0 1 1.573 3.209h-3.68a1.788 1.788 0 0 0-.51-1.307 2.164 2.164 0 0 0-1.59-.514 2.2 2.2 0 0 0-1.438.42 1.323 1.323 0 0 0-.51 1.069 1.131 1.131 0 0 0 .579.986 5.9 5.9 0 0 0 1.954.651 16.127 16.127 0 0 1 2.318.617q2.913 1.07 2.915 3.7a3.589 3.589 0 0 1-1.617 3.049 6.964 6.964 0 0 1-4.176 1.166 7.286 7.286 0 0 1-3.074-.617 5.148 5.148 0 0 1-2.108-1.7 3.933 3.933 0 0 1-.763-2.324h3.488a1.914 1.914 0 0 0 .726 1.5 2.866 2.866 0 0 0 1.808.523 2.669 2.669 0 0 0 1.6-.4 1.251 1.251 0 0 0 .535-1.041z" class="prefix__cls-2" data-name="Path 7327"/>
            <path id="prefix__Path_7328" d="M433.711-1938.014a4.6 4.6 0 0 1 3.679-1.757q4.48 0 4.544 5.208v8.823h-3.681v-8.722a2.557 2.557 0 0 0-.508-1.75 2.192 2.192 0 0 0-1.693-.566 2.5 2.5 0 0 0-2.342 1.247v9.791h-3.681v-19.56h3.681z" class="prefix__cls-2" data-name="Path 7328"/>
            <path id="prefix__Path_7329" d="M444.112-1932.755a8.166 8.166 0 0 1 .789-3.653 5.761 5.761 0 0 1 2.273-2.483 6.624 6.624 0 0 1 3.443-.879 6.277 6.277 0 0 1 4.552 1.706 6.848 6.848 0 0 1 1.967 4.634l.026.943a7.2 7.2 0 0 1-1.77 5.086 6.15 6.15 0 0 1-4.749 1.917 6.183 6.183 0 0 1-4.756-1.911 7.324 7.324 0 0 1-1.776-5.195zm3.679.262a5.14 5.14 0 0 0 .739 3 2.437 2.437 0 0 0 2.113 1.04 2.44 2.44 0 0 0 2.088-1.027 5.632 5.632 0 0 0 .752-3.284 5.093 5.093 0 0 0-.752-2.983 2.439 2.439 0 0 0-2.114-1.059 2.4 2.4 0 0 0-2.087 1.053 5.714 5.714 0 0 0-.739 3.26z" class="prefix__cls-2" data-name="Path 7329"/>
            <path id="prefix__Path_7330" d="M467.143-1936.062a10.122 10.122 0 0 0-1.324-.1 2.7 2.7 0 0 0-2.738 1.412v9.015H459.4v-13.776h3.477l.1 1.643a3.409 3.409 0 0 1 3.068-1.9 3.87 3.87 0 0 1 1.146.165z" class="prefix__cls-2" data-name="Path 7330"/>
            <path id="prefix__Path_7331" d="M475.227-1925.485a6.755 6.755 0 0 1-4.934-1.86 6.6 6.6 0 0 1-1.9-4.953v-.356a8.319 8.319 0 0 1 .8-3.71 5.883 5.883 0 0 1 2.273-2.521 6.364 6.364 0 0 1 3.354-.886 5.717 5.717 0 0 1 4.45 1.783 7.246 7.246 0 0 1 1.624 5.054v1.5h-8.773a3.416 3.416 0 0 0 1.076 2.164 3.249 3.249 0 0 0 2.273.816 3.974 3.974 0 0 0 3.323-1.541l1.808 2.025a5.513 5.513 0 0 1-2.241 1.825 7.343 7.343 0 0 1-3.133.66zm-.42-11.319a2.3 2.3 0 0 0-1.776.742 3.83 3.83 0 0 0-.872 2.124h5.118v-.3a2.741 2.741 0 0 0-.662-1.9 2.371 2.371 0 0 0-1.808-.666z" class="prefix__cls-2" data-name="Path 7331"/>
            <path id="prefix__Path_7332" d="M494.659-1944.278l4.761 13.445 4.735-13.445h5.017v18.538h-3.832v-5.067l.383-8.747-5 13.814H498.1l-4.99-13.8.381 8.735v5.067h-3.82v-18.54z" class="prefix__cls-2" data-name="Path 7332"/>
            <path id="prefix__Path_7333" d="M511.665-1932.755a8.165 8.165 0 0 1 .788-3.653 5.778 5.778 0 0 1 2.273-2.483 6.627 6.627 0 0 1 3.444-.879 6.275 6.275 0 0 1 4.552 1.706 6.86 6.86 0 0 1 1.968 4.634l.025.943a7.2 7.2 0 0 1-1.77 5.086 6.151 6.151 0 0 1-4.75 1.917 6.18 6.18 0 0 1-4.754-1.911 7.324 7.324 0 0 1-1.776-5.195zm3.68.262a5.135 5.135 0 0 0 .737 3 2.435 2.435 0 0 0 2.114 1.04 2.441 2.441 0 0 0 2.089-1.027 5.646 5.646 0 0 0 .75-3.284 5.1 5.1 0 0 0-.75-2.983 2.443 2.443 0 0 0-2.113-1.059 2.4 2.4 0 0 0-2.089 1.053 5.714 5.714 0 0 0-.739 3.26z" class="prefix__cls-2" data-name="Path 7333"/>
            <path id="prefix__Path_7334" d="M530.408-1939.516l.114 1.54a4.841 4.841 0 0 1 3.959-1.8 3.675 3.675 0 0 1 3.653 2.1 4.737 4.737 0 0 1 4.139-2.1 4.115 4.115 0 0 1 3.335 1.309 6.005 6.005 0 0 1 1.1 3.929v8.8h-3.7v-8.786a2.623 2.623 0 0 0-.459-1.711 2.034 2.034 0 0 0-1.617-.542 2.3 2.3 0 0 0-2.292 1.578l.013 9.461h-3.679v-8.773a2.606 2.606 0 0 0-.471-1.731 2.055 2.055 0 0 0-1.6-.535 2.382 2.382 0 0 0-2.266 1.3v9.74h-3.679v-13.776z" class="prefix__cls-2" data-name="Path 7334"/>
            <path id="prefix__Path_7335" d="M555.842-1925.485a6.754 6.754 0 0 1-4.934-1.86 6.6 6.6 0 0 1-1.9-4.953v-.356a8.29 8.29 0 0 1 .8-3.71 5.885 5.885 0 0 1 2.271-2.521 6.376 6.376 0 0 1 3.355-.886 5.717 5.717 0 0 1 4.45 1.783 7.246 7.246 0 0 1 1.624 5.054v1.5h-8.772a3.411 3.411 0 0 0 1.076 2.164 3.249 3.249 0 0 0 2.273.816 3.974 3.974 0 0 0 3.323-1.541l1.808 2.025a5.513 5.513 0 0 1-2.241 1.825 7.343 7.343 0 0 1-3.133.66zm-.42-11.319a2.3 2.3 0 0 0-1.777.742 3.852 3.852 0 0 0-.872 2.124h5.119v-.3a2.741 2.741 0 0 0-.662-1.9 2.371 2.371 0 0 0-1.808-.662z" class="prefix__cls-2" data-name="Path 7335"/>
            <path id="prefix__Path_7336" d="M566.956-1939.516l.116 1.592a4.807 4.807 0 0 1 3.959-1.847 4 4 0 0 1 3.259 1.286 6.009 6.009 0 0 1 1.1 3.845v8.9h-3.68v-8.81a2.392 2.392 0 0 0-.51-1.7 2.289 2.289 0 0 0-1.693-.527 2.528 2.528 0 0 0-2.329 1.324v9.714H563.5v-13.776z" class="prefix__cls-2" data-name="Path 7336"/>
            <path id="prefix__Path_7337" d="M582.553-1942.9v3.387h2.356v2.7h-2.356v6.875a1.637 1.637 0 0 0 .293 1.1 1.458 1.458 0 0 0 1.12.332 5.783 5.783 0 0 0 1.082-.09v2.789a7.576 7.576 0 0 1-2.228.332q-3.87 0-3.946-3.91v-7.423h-2.011v-2.7h2.012v-3.387z" class="prefix__cls-2" data-name="Path 7337"/>
            <path id="prefix__Path_7338" d="M595.183-1927.141a4.615 4.615 0 0 1-3.769 1.656 4.349 4.349 0 0 1-3.38-1.273 5.439 5.439 0 0 1-1.191-3.732v-9.026h3.679v8.909q0 2.157 1.961 2.155a2.655 2.655 0 0 0 2.571-1.3v-9.764h3.692v13.776h-3.464z" class="prefix__cls-2" data-name="Path 7338"/>
            <path id="prefix__Path_7339" d="M604.947-1939.516l.115 1.54a4.84 4.84 0 0 1 3.959-1.8 3.675 3.675 0 0 1 3.653 2.1 4.737 4.737 0 0 1 4.139-2.1 4.115 4.115 0 0 1 3.336 1.305 6.005 6.005 0 0 1 1.1 3.929v8.8h-3.693v-8.786a2.623 2.623 0 0 0-.459-1.711 2.034 2.034 0 0 0-1.617-.542 2.3 2.3 0 0 0-2.292 1.578l.013 9.461h-3.679v-8.773a2.6 2.6 0 0 0-.471-1.731 2.055 2.055 0 0 0-1.6-.535 2.382 2.382 0 0 0-2.266 1.3v9.74h-3.693v-13.776z" class="prefix__cls-2" data-name="Path 7339"/>
        </g>
        <g id="prefix__Group_13695" data-name="Group 13695">
            <path id="prefix__Path_7340" d="M386.922-1911.364l3.594 8.615h.041l3.608-8.615h1.062v9.782h-.8v-4.32l.067-4.281-.039-.015-3.636 8.615h-.558l-3.628-8.573-.041.006.074 4.247v4.32h-.8v-9.781z" class="prefix__cls-2" data-name="Path 7340"/>
            <path id="prefix__Path_7341" d="M406.05-1905.673a4.446 4.446 0 0 1-1.039 3.065 3.533 3.533 0 0 1-2.784 1.169 3.464 3.464 0 0 1-2.745-1.169 4.482 4.482 0 0 1-1.026-3.065v-1.59a4.512 4.512 0 0 1 1.021-3.065 3.452 3.452 0 0 1 2.742-1.176 3.537 3.537 0 0 1 2.788 1.176 4.449 4.449 0 0 1 1.042 3.065zm-.8-1.6a3.881 3.881 0 0 0-.8-2.558 2.739 2.739 0 0 0-2.228-.969 2.641 2.641 0 0 0-2.177.969 3.957 3.957 0 0 0-.779 2.558v1.608a3.968 3.968 0 0 0 .784 2.571 2.638 2.638 0 0 0 2.18.969 2.726 2.726 0 0 0 2.228-.965 3.929 3.929 0 0 0 .8-2.576z" class="prefix__cls-2" data-name="Path 7341"/>
            <path id="prefix__Path_7342" d="M411.883-1903.232l.2.65h.039l.2-.65 2.936-8.131h.874l-3.649 9.782h-.759l-3.649-9.782h.874z" class="prefix__cls-2" data-name="Path 7342"/>
            <path id="prefix__Path_7343" d="M419.719-1901.581h-.807v-9.783h.807z" class="prefix__cls-2" data-name="Path 7343"/>
            <path id="prefix__Path_7344" d="M430.777-1901.581h-.8l-5.557-8.412-.041.007v8.4h-.807v-9.778h.807l5.557 8.4.041-.006v-8.394h.8z" class="prefix__cls-2" data-name="Path 7344"/>
            <path id="prefix__Path_7345" d="M441.441-1902.742a2.974 2.974 0 0 1-1.2.891 5.126 5.126 0 0 1-2.193.413 3.664 3.664 0 0 1-2.8-1.163 4.214 4.214 0 0 1-1.092-3.01v-1.8a4.222 4.222 0 0 1 1.039-2.957 3.471 3.471 0 0 1 2.692-1.143 3.6 3.6 0 0 1 2.469.789 3.1 3.1 0 0 1 1.031 2.054l-.013.039h-.746a2.773 2.773 0 0 0-.827-1.589 2.7 2.7 0 0 0-1.914-.607 2.63 2.63 0 0 0-2.121.953 3.662 3.662 0 0 0-.8 2.442v1.806a3.686 3.686 0 0 0 .853 2.512 2.813 2.813 0 0 0 2.231.981 4.47 4.47 0 0 0 1.656-.271 2.227 2.227 0 0 0 .931-.594v-2.549h-2.6v-.685h3.407z" class="prefix__cls-2" data-name="Path 7345"/>
            <path id="prefix__Path_7346" d="M456.006-1910.679h-3.365v9.1h-.807v-9.1h-3.366v-.684h7.538z" class="prefix__cls-2" data-name="Path 7346"/>
            <path id="prefix__Path_7347" d="M464.224-1906.318h-4.711v4.053h5.4v.684h-6.2v-9.783h6.163v.684h-5.363v3.68h4.711z" class="prefix__cls-2" data-name="Path 7347"/>
            <path id="prefix__Path_7348" d="M474.5-1904.637l.013.039a3.4 3.4 0 0 1-1.047 2.316 3.508 3.508 0 0 1-2.466.843 3.284 3.284 0 0 1-2.635-1.179 4.558 4.558 0 0 1-1-3.055v-1.59a4.575 4.575 0 0 1 1-3.055A3.286 3.286 0 0 1 471-1911.5a3.557 3.557 0 0 1 2.473.826 3.382 3.382 0 0 1 1.04 2.326l-.013.039h-.752a3.036 3.036 0 0 0-.837-1.86 2.662 2.662 0 0 0-1.911-.645 2.483 2.483 0 0 0-2.06.992 4.013 4.013 0 0 0-.776 2.545v1.6a4.03 4.03 0 0 0 .776 2.563 2.486 2.486 0 0 0 2.06.991 2.7 2.7 0 0 0 1.914-.63 2.971 2.971 0 0 0 .834-1.883z" class="prefix__cls-2" data-name="Path 7348"/>
            <path id="prefix__Path_7349" d="M484.859-1901.581h-.8v-4.5h-5.564v4.5h-.8v-9.783h.8v4.595h5.564v-4.595h.8z" class="prefix__cls-2" data-name="Path 7349"/>
            <path id="prefix__Path_7350" d="M495.744-1901.581h-.8l-5.557-8.412-.041.007v8.4h-.807v-9.778h.807l5.557 8.4.041-.006v-8.394h.8z" class="prefix__cls-2" data-name="Path 7350"/>
            <path id="prefix__Path_7351" d="M506.568-1905.673a4.446 4.446 0 0 1-1.039 3.065 3.534 3.534 0 0 1-2.784 1.169 3.464 3.464 0 0 1-2.745-1.169 4.486 4.486 0 0 1-1.024-3.065v-1.59a4.5 4.5 0 0 1 1.021-3.065 3.445 3.445 0 0 1 2.741-1.176 3.539 3.539 0 0 1 2.789 1.176 4.449 4.449 0 0 1 1.042 3.065zm-.8-1.6a3.886 3.886 0 0 0-.8-2.558 2.739 2.739 0 0 0-2.228-.969 2.64 2.64 0 0 0-2.177.969 3.957 3.957 0 0 0-.779 2.558v1.608a3.963 3.963 0 0 0 .784 2.571 2.645 2.645 0 0 0 2.18.969 2.726 2.726 0 0 0 2.228-.965 3.934 3.934 0 0 0 .8-2.576z" class="prefix__cls-2" data-name="Path 7351"/>
            <path id="prefix__Path_7352" d="M510.605-1902.264h4.838v.684H509.8v-9.784h.8z" class="prefix__cls-2" data-name="Path 7352"/>
            <path id="prefix__Path_7353" d="M524.872-1905.673a4.447 4.447 0 0 1-1.039 3.065 3.53 3.53 0 0 1-2.784 1.169 3.463 3.463 0 0 1-2.745-1.169 4.482 4.482 0 0 1-1.026-3.065v-1.59a4.512 4.512 0 0 1 1.021-3.065 3.447 3.447 0 0 1 2.742-1.176 3.539 3.539 0 0 1 2.789 1.176 4.459 4.459 0 0 1 1.042 3.065zm-.8-1.6a3.886 3.886 0 0 0-.8-2.558 2.739 2.739 0 0 0-2.228-.969 2.641 2.641 0 0 0-2.177.969 3.957 3.957 0 0 0-.779 2.558v1.608a3.974 3.974 0 0 0 .782 2.571 2.645 2.645 0 0 0 2.182.969 2.723 2.723 0 0 0 2.226-.965 3.921 3.921 0 0 0 .8-2.576z" class="prefix__cls-2" data-name="Path 7353"/>
            <path id="prefix__Path_7354" d="M535.088-1902.742a2.974 2.974 0 0 1-1.2.891 5.126 5.126 0 0 1-2.193.413 3.664 3.664 0 0 1-2.8-1.163 4.214 4.214 0 0 1-1.092-3.01v-1.8a4.223 4.223 0 0 1 1.039-2.957 3.469 3.469 0 0 1 2.691-1.143 3.605 3.605 0 0 1 2.469.789 3.1 3.1 0 0 1 1.031 2.054l-.013.039h-.746a2.773 2.773 0 0 0-.827-1.589 2.7 2.7 0 0 0-1.914-.607 2.632 2.632 0 0 0-2.121.953 3.662 3.662 0 0 0-.8 2.442v1.806a3.687 3.687 0 0 0 .853 2.512 2.813 2.813 0 0 0 2.231.981 4.47 4.47 0 0 0 1.656-.271 2.212 2.212 0 0 0 .932-.594v-2.549h-2.6v-.685h3.407z" class="prefix__cls-2" data-name="Path 7354"/>
            <path id="prefix__Path_7355" d="M541.513-1905.926l3.03-5.437h.934l-3.569 6.209v3.574h-.8v-3.621l-3.54-6.161h.934z" class="prefix__cls-2" data-name="Path 7355"/>
            <path id="prefix__Path_7356" d="M558.124-1906.164h-4.758v4.588h-.8v-9.788h6.244v.684h-5.444v3.824h4.758z" class="prefix__cls-2" data-name="Path 7356"/>
            <path id="prefix__Path_7357" d="M568.759-1905.673a4.446 4.446 0 0 1-1.039 3.065 3.537 3.537 0 0 1-2.784 1.169 3.464 3.464 0 0 1-2.745-1.169 4.481 4.481 0 0 1-1.025-3.065v-1.59a4.512 4.512 0 0 1 1.021-3.065 3.447 3.447 0 0 1 2.742-1.176 3.535 3.535 0 0 1 2.789 1.176 4.459 4.459 0 0 1 1.042 3.065zm-.8-1.6a3.875 3.875 0 0 0-.8-2.558 2.734 2.734 0 0 0-2.226-.969 2.641 2.641 0 0 0-2.177.969 3.958 3.958 0 0 0-.78 2.558v1.608a3.974 3.974 0 0 0 .782 2.571 2.646 2.646 0 0 0 2.181.969 2.723 2.723 0 0 0 2.227-.965 3.921 3.921 0 0 0 .8-2.576z" class="prefix__cls-2" data-name="Path 7357"/>
            <path id="prefix__Path_7358" d="M572.767-1906v4.421h-.8v-9.782h3.313a3.724 3.724 0 0 1 2.412.69 2.446 2.446 0 0 1 .84 2.012 2.3 2.3 0 0 1-.451 1.4 2.546 2.546 0 0 1-1.27.9 2.136 2.136 0 0 1 1.307.815 2.575 2.575 0 0 1 .4 1.476v.92a2.947 2.947 0 0 0 .107.82 1.285 1.285 0 0 0 .356.591v.161h-.818a1.34 1.34 0 0 1-.351-.678 4.06 4.06 0 0 1-.1-.907v-.894a1.814 1.814 0 0 0-.581-1.421 2.348 2.348 0 0 0-1.624-.521zm0-.685h2.413a2.9 2.9 0 0 0 1.935-.535 1.811 1.811 0 0 0 .611-1.44 1.854 1.854 0 0 0-.608-1.489 2.767 2.767 0 0 0-1.837-.521h-2.514z" class="prefix__cls-2" data-name="Path 7358"/>
            <path id="prefix__Path_7359" d="M583.871-1904.349l.3 1.5.039.006.37-1.505 2.07-7.014h.759l2.07 7.014.356 1.512.04-.007.316-1.505 1.767-7.014h.82l-2.513 9.782h-.765l-2.2-7.505-.256-1.027h-.039l-.249 1.027-2.216 7.5h-.766l-2.512-9.782h.826z" class="prefix__cls-2" data-name="Path 7359"/>
            <path id="prefix__Path_7360" d="M600.564-1904.307h-4.482l-1.008 2.726h-.833l3.717-9.782h.759l3.688 9.782h-.833zm-4.213-.72h3.95l-1.948-5.3h-.041z" class="prefix__cls-2" data-name="Path 7360"/>
            <path id="prefix__Path_7361" d="M605.8-1906v4.421h-.8v-9.782h3.313a3.724 3.724 0 0 1 2.412.69 2.446 2.446 0 0 1 .84 2.012 2.3 2.3 0 0 1-.451 1.4 2.548 2.548 0 0 1-1.269.9 2.14 2.14 0 0 1 1.307.815 2.575 2.575 0 0 1 .4 1.476v.92a2.833 2.833 0 0 0 .109.82 1.256 1.256 0 0 0 .356.591v.161h-.82a1.33 1.33 0 0 1-.349-.678 3.946 3.946 0 0 1-.1-.907v-.894a1.814 1.814 0 0 0-.581-1.421 2.348 2.348 0 0 0-1.624-.521zm0-.685h2.412a2.9 2.9 0 0 0 1.935-.535 1.812 1.812 0 0 0 .613-1.44 1.86 1.86 0 0 0-.608-1.489 2.775 2.775 0 0 0-1.838-.521H605.8z" class="prefix__cls-2" data-name="Path 7361"/>
            <path id="prefix__Path_7362" d="M615.2-1901.581v-9.783h2.842a3.969 3.969 0 0 1 2.964 1.2 4.2 4.2 0 0 1 1.169 3.07v1.256a4.2 4.2 0 0 1-1.169 3.071 3.977 3.977 0 0 1-2.964 1.189zm.8-9.1v8.415h2.043a3.112 3.112 0 0 0 2.389-1.014 3.629 3.629 0 0 0 .939-2.565v-1.276a3.6 3.6 0 0 0-.942-2.545 3.12 3.12 0 0 0-2.386-1.014z" class="prefix__cls-2" data-name="Path 7362"/>
        </g>
        <g id="prefix__Group_13707" data-name="Group 13707">
            <g id="prefix__Group_13752" data-name="Group 13752">
                <g id="prefix__Group_13751" data-name="Group 13751">
                    <g id="prefix__Group_13706" data-name="Group 13706">
                        <g id="prefix__Group_13705" data-name="Group 13705">
                            <g id="prefix__Group_13750" data-name="Group 13750">
                                <g id="prefix__Group_13749" data-name="Group 13749">
                                    <g id="prefix__Group_13704" data-name="Group 13704">
                                        <path id="prefix__Path_6877" d="M384.621-1924.385l-19.742 34.185-34.187-19.742 19.741-34.187z" class="prefix__cls-2" data-name="Path 6877"/>
                                    </g>
                                </g>
                            </g>
                        </g>
                    </g>
                </g>
            </g>
        </g>
        <g id="prefix__Group_13719" data-name="Group 13719">
            <g id="prefix__Group_13756" data-name="Group 13756">
                <g id="prefix__Group_13755" data-name="Group 13755">
                    <g id="prefix__Group_13718" data-name="Group 13718">
                        <g id="prefix__Group_13717" data-name="Group 13717">
                            <g id="prefix__Group_13754" data-name="Group 13754">
                                <g id="prefix__Group_13753" data-name="Group 13753">
                                    <g id="prefix__Group_13716" data-name="Group 13716">
                                        <path id="prefix__Path_6884" d="M347.921-1927.741l-15.881 27.509-27.5-15.881 15.877-27.508z" data-name="Path 6884" style="fill:#fcba30"/>
                                    </g>
                                </g>
                            </g>
                        </g>
                    </g>
                </g>
            </g>
        </g>
        <g id="prefix__Group_13723" data-name="Group 13723">
            <g id="prefix__Group_13760" data-name="Group 13760">
                <g id="prefix__Group_13759" data-name="Group 13759">
                    <g id="prefix__Group_13722" data-name="Group 13722">
                        <g id="prefix__Group_13721" data-name="Group 13721">
                            <g id="prefix__Group_13758" data-name="Group 13758">
                                <g id="prefix__Group_13757" data-name="Group 13757">
                                    <g id="prefix__Group_13720" data-name="Group 13720">
                                        <path id="prefix__Path_6887" d="M360.442-1944.286l-13.306 23.049-23.055-13.307 13.313-23.049z" data-name="Path 6887" style="fill:#01c088"/>
                                    </g>
                                </g>
                            </g>
                        </g>
                    </g>
                </g>
            </g>
        </g>
    </g>
</svg>
