<svg xmlns="http://www.w3.org/2000/svg" width="424.944" height="399.286" viewBox="0 0 424.944 399.286">
    <defs>
        <linearGradient id="prefix__linear-gradient" x1=".518" x2=".491" y1="1.121" y2=".26" gradientUnits="objectBoundingBox">
            <stop offset="0" stop-color="#fff"/>
            <stop offset="1" stop-color="#e2f0fa"/>
        </linearGradient>
        <style>
            .prefix__cls-1{fill:url(#prefix__linear-gradient)}.prefix__cls-11,.prefix__cls-3,.prefix__cls-7{fill:#27debf}.prefix__cls-10,.prefix__cls-12,.prefix__cls-13,.prefix__cls-24,.prefix__cls-4,.prefix__cls-5,.prefix__cls-6,.prefix__cls-8,.prefix__cls-9{fill:#fff}.prefix__cls-4{opacity:.9}.prefix__cls-5{opacity:.8}.prefix__cls-6{opacity:.3}.prefix__cls-6,.prefix__cls-8{mix-blend-mode:lighten}.prefix__cls-14,.prefix__cls-6,.prefix__cls-8{isolation:isolate}.prefix__cls-7{opacity:.1}.prefix__cls-10,.prefix__cls-8{opacity:.5}.prefix__cls-9{opacity:.7}.prefix__cls-11,.prefix__cls-13{opacity:.2}.prefix__cls-12{opacity:.6}.prefix__cls-14,.prefix__cls-19{fill:#455a64}.prefix__cls-14{opacity:.05;mix-blend-mode:multiply}.prefix__cls-22{opacity:.15}.prefix__cls-17{fill:#263238}.prefix__cls-18{fill:#37474f}.prefix__cls-25{fill:#052a30}.prefix__cls-26{fill:#ffa8a7}.prefix__cls-27{fill:#085e72}.prefix__cls-28{fill:#023d4d}.prefix__cls-29{fill:#f28f8f}
        </style>
    </defs>
    <g id="prefix__Group_14992" data-name="Group 14992" transform="translate(-3022 -1491)">
        <g id="prefix__Floor" transform="translate(3022 1696.371)">
            <ellipse id="prefix__Floor-2" cx="212.472" cy="96.958" class="prefix__cls-1" data-name="Floor" rx="212.472" ry="96.958"/>
        </g>
        <g id="prefix__Clouds" transform="translate(3066.409 1495.237)">
            <g id="prefix__Clouds-2" data-name="Clouds">
                <g id="prefix__Group_14926" data-name="Group 14926" transform="translate(64.67 32.7)">
                    <path id="prefix__Path_11278" d="M182.4 91.68l-7.572 4.372a9.072 9.072 0 0 0 .064-1v-2.197c0-3.9-2.74-5.486-6.121-3.534a11.846 11.846 0 0 0-3.648 3.508c-.554-4.908-4.4-6.737-9.082-4.036-5.057 2.92-9.158 10.021-9.158 15.861v3.281a8.647 8.647 0 0 0 .775 3.8l-6.289 3.631a7.5 7.5 0 0 0-3.4 5.88c0 2.165 1.52 3.043 3.4 1.96L182.4 99.52a7.5 7.5 0 0 0 3.4-5.881c0-2.165-1.524-3.039-3.4-1.959z" class="prefix__cls-1" data-name="Path 11278" transform="translate(-137.976 -87.544)"/>
                </g>
                <g id="prefix__Group_14927" data-name="Group 14927">
                    <path id="prefix__Path_11279" d="M73.931 89.766l4.716-3.632V75.745c0-8.237 6.57-17.8 13.7-21.916 7.133-4.119 12.915-.78 12.915 7.456v1.509a18.432 18.432 0 0 1 5.994-6c5.133-2.963 9.294-.56 9.294 5.366v.686l6.575-3.8c3.381-1.951 6.121-.37 6.121 3.534a13.527 13.527 0 0 1-6.121 10.6L73.931 103.9c-3.381 1.951-6.121.371-6.121-3.533a13.527 13.527 0 0 1 6.121-10.601z" class="prefix__cls-1" data-name="Path 11279" transform="translate(-67.81 -52.065)"/>
                </g>
            </g>
        </g>
        <g id="prefix__Shadows" transform="translate(3096.519 1783.354)">
            <ellipse id="prefix__Shadow" cx="46.971" cy="27.119" fill="#d2e8f7" rx="46.971" ry="27.119" transform="translate(0 13.918)"/>
        </g>
        <g id="prefix__Rocket" transform="translate(3191.002 1491)">
            <g id="prefix__Rocket-2" data-name="Rocket">
                <g id="prefix__Group_14945" data-name="Group 14945" transform="translate(59.157 270.35)">
                    <path id="prefix__Path_11305" d="M381.416 386.1c0 12.383-24.487 22.421-54.693 22.421S272.03 398.484 272.03 386.1s24.486-22.42 54.693-22.42 54.693 10.04 54.693 22.42z" class="prefix__cls-3" data-name="Path 11305" transform="translate(-267.556 -342.586)"/>
                    <path id="prefix__Path_11306" d="M381.416 386.1c0 12.383-24.487 22.421-54.693 22.421S272.03 398.484 272.03 386.1s24.486-22.42 54.693-22.42 54.693 10.04 54.693 22.42z" class="prefix__cls-3" data-name="Path 11306" transform="translate(-267.556 -342.586)"/>
                    <ellipse id="prefix__Ellipse_428" cx="59.167" cy="24.254" class="prefix__cls-4" data-name="Ellipse 428" rx="59.167" ry="24.254" transform="translate(0 19.262)"/>
                    <g id="prefix__Group_14941" data-name="Group 14941" transform="translate(3.441)">
                        <path id="prefix__Path_11307" d="M270.93 364.43a24.3 24.3 0 0 1 48.585 0c.021.232.021.444.021.677s0 .444-.021.677c-.275 3.365-2.645 6.666-7.11 9.247-9.48 5.481-24.885 5.481-34.387 0-4.443-2.582-6.814-5.882-7.089-9.247-.021-.233-.021-.444-.021-.677s.001-.444.022-.677z" class="prefix__cls-3" data-name="Path 11307" transform="translate(-270.909 -340.793)"/>
                        <path id="prefix__Path_11308" d="M270.93 364.43a24.3 24.3 0 0 1 48.585 0c.021.232.021.444.021.677s0 .444-.021.677c-.275 3.365-2.645 6.666-7.11 9.247-9.48 5.481-24.885 5.481-34.387 0-4.443-2.582-6.814-5.882-7.089-9.247-.021-.233-.021-.444-.021-.677s.001-.444.022-.677z" class="prefix__cls-5" data-name="Path 11308" transform="translate(-270.909 -340.793)"/>
                        <path id="prefix__Path_11309" d="M285.849 343.221a24.265 24.265 0 0 1 34.837 21.21c.021.232.021.444.021.677s0 .444-.021.677c-.275 3.365-2.645 6.666-7.11 9.247a32.343 32.343 0 0 1-12.193 3.8c6.3-1.088 10.385-8.126 8.445-15.9-2.248-9.01-11.363-22.041-23.979-19.711z" class="prefix__cls-6" data-name="Path 11309" transform="translate(-272.079 -340.793)"/>
                        <path id="prefix__Path_11310" d="M270.93 366.3c-.021-.233-.021-.444-.021-.677s0-.444.021-.677a24.174 24.174 0 0 1 8.249-17.561c-2.64 2.714-8.513 12.945-2.131 20.743 4.2 5.13 24.118 12.45 40.514 3.043a16.912 16.912 0 0 1-5.157 4.375c-9.48 5.481-24.885 5.481-34.387 0-4.443-2.58-6.818-5.88-7.088-9.246z" class="prefix__cls-7" data-name="Path 11310" transform="translate(-270.909 -341.309)"/>
                        <path id="prefix__Path_11311" d="M297.533 346.531c-1.088 2.477 1 5.79 4.668 7.4s7.519.908 8.608-1.57-1-5.79-4.668-7.4-7.52-.907-8.608 1.57z" class="prefix__cls-8" data-name="Path 11311" transform="translate(-272.972 -341.052)"/>
                        <path id="prefix__Path_11312" d="M312.816 357.558a3.192 3.192 0 1 0 3.889-1.078 2.884 2.884 0 0 0-3.889 1.078z" class="prefix__cls-8" data-name="Path 11312" transform="translate(-274.177 -341.997)"/>
                    </g>
                    <g id="prefix__Group_14942" data-name="Group 14942" transform="translate(63.767 3.189)">
                        <path id="prefix__Path_11313" d="M377.64 364.326a20.639 20.639 0 0 0-41.262 0c-.018.2-.018.377-.018.575s0 .377.018.575c.234 2.857 2.247 5.661 6.039 7.854 8.051 4.654 21.133 4.654 29.2 0 3.774-2.193 5.787-5 6.02-7.854.017-.2.017-.377.017-.575s.004-.377-.014-.575z" class="prefix__cls-3" data-name="Path 11313" transform="translate(-336.361 -344.253)"/>
                        <path id="prefix__Path_11314" d="M377.64 364.326a20.639 20.639 0 0 0-41.262 0c-.018.2-.018.377-.018.575s0 .377.018.575c.234 2.857 2.247 5.661 6.039 7.854 8.051 4.654 21.133 4.654 29.2 0 3.774-2.193 5.787-5 6.02-7.854.017-.2.017-.377.017-.575s.004-.377-.014-.575z" class="prefix__cls-5" data-name="Path 11314" transform="translate(-336.361 -344.253)"/>
                        <path id="prefix__Path_11315" d="M365.964 346.314a20.609 20.609 0 0 0-29.586 18.012c-.018.2-.018.377-.018.575s0 .377.018.575c.234 2.857 2.247 5.661 6.039 7.854a27.455 27.455 0 0 0 10.355 3.23c-5.354-.924-8.82-6.9-7.172-13.5 1.909-7.66 9.65-18.725 20.364-16.746z" class="prefix__cls-6" data-name="Path 11315" transform="translate(-336.361 -344.253)"/>
                        <path id="prefix__Path_11316" d="M377.783 365.915c.017-.2.017-.377.017-.575s0-.377-.017-.575a20.531 20.531 0 0 0-7.006-14.914c2.242 2.305 7.23 10.994 1.81 17.617-3.565 4.357-20.483 10.573-34.407 2.584a14.368 14.368 0 0 0 4.38 3.716c8.051 4.655 21.133 4.655 29.2 0 3.776-2.192 5.789-4.996 6.023-7.853z" class="prefix__cls-7" data-name="Path 11316" transform="translate(-336.503 -344.691)"/>
                        <path id="prefix__Path_11317" d="M357.557 349.125c.924 2.1-.851 4.917-3.964 6.285s-6.385.77-7.31-1.334.852-4.917 3.965-6.285 6.386-.769 7.309 1.334z" class="prefix__cls-8" data-name="Path 11317" transform="translate(-337.119 -344.473)"/>
                        <path id="prefix__Path_11318" d="M345.139 358.49a2.711 2.711 0 1 1-3.3-.916 2.449 2.449 0 0 1 3.3.916z" class="prefix__cls-8" data-name="Path 11318" transform="translate(-336.656 -345.275)"/>
                    </g>
                    <g id="prefix__Group_14943" data-name="Group 14943" transform="translate(97.9 12.366)">
                        <path id="prefix__Path_11319" d="M400.691 367.484a13.647 13.647 0 0 0-27.284 0c-.012.131-.012.25-.012.381s0 .249.012.38c.154 1.889 1.485 3.744 3.993 5.194 5.324 3.078 13.975 3.078 19.311 0 2.495-1.45 3.827-3.3 3.981-5.194.012-.131.012-.25.012-.38s-.004-.25-.013-.381z" class="prefix__cls-3" data-name="Path 11319" transform="translate(-373.395 -354.21)"/>
                        <path id="prefix__Path_11320" d="M400.691 367.484a13.647 13.647 0 0 0-27.284 0c-.012.131-.012.25-.012.381s0 .249.012.38c.154 1.889 1.485 3.744 3.993 5.194 5.324 3.078 13.975 3.078 19.311 0 2.495-1.45 3.827-3.3 3.981-5.194.012-.131.012-.25.012-.38s-.004-.25-.013-.381z" class="prefix__cls-4" data-name="Path 11320" transform="translate(-373.395 -354.21)"/>
                        <path id="prefix__Path_11321" d="M392.97 355.573a13.627 13.627 0 0 0-19.563 11.911c-.012.131-.012.25-.012.381s0 .249.012.38c.154 1.889 1.485 3.744 3.993 5.194a18.176 18.176 0 0 0 6.847 2.136c-3.54-.611-5.831-4.564-4.743-8.929 1.263-5.063 6.382-12.382 13.466-11.073z" class="prefix__cls-8" data-name="Path 11321" transform="translate(-373.395 -354.21)"/>
                        <path id="prefix__Path_11322" d="M400.786 368.534c.012-.131.012-.25.012-.38s0-.25-.012-.381a13.578 13.578 0 0 0-4.632-9.862c1.482 1.524 4.781 7.27 1.2 11.649-2.357 2.881-13.544 6.992-22.752 1.71a9.505 9.505 0 0 0 2.9 2.457c5.324 3.078 13.975 3.078 19.311 0 2.487-1.449 3.819-3.303 3.973-5.193z" class="prefix__cls-7" data-name="Path 11322" transform="translate(-373.489 -354.5)"/>
                        <path id="prefix__Path_11323" d="M387.412 357.432c.611 1.392-.563 3.252-2.621 4.156s-4.223.51-4.834-.881.563-3.253 2.621-4.156 4.222-.51 4.834.881z" class="prefix__cls-8" data-name="Path 11323" transform="translate(-373.896 -354.355)"/>
                        <path id="prefix__Path_11324" d="M379.2 363.625a1.792 1.792 0 1 1-2.183-.606 1.618 1.618 0 0 1 2.183.606z" class="prefix__cls-8" data-name="Path 11324" transform="translate(-373.59 -354.886)"/>
                    </g>
                    <g id="prefix__Group_14944" data-name="Group 14944" transform="translate(117.173 13.537)">
                        <path id="prefix__Path_11325" d="M431.4 373.519a18.546 18.546 0 0 0-37.079 0c-.017.178-.017.339-.017.517s0 .339.017.517c.209 2.568 2.018 5.087 5.426 7.057 7.235 4.183 18.992 4.183 26.244 0 3.391-1.971 5.2-4.49 5.409-7.057.017-.178.017-.339.017-.517s.001-.336-.017-.517z" class="prefix__cls-3" data-name="Path 11325" transform="translate(-394.306 -355.48)"/>
                        <path id="prefix__Path_11326" d="M431.4 373.519a18.546 18.546 0 0 0-37.079 0c-.017.178-.017.339-.017.517s0 .339.017.517c.209 2.568 2.018 5.087 5.426 7.057 7.235 4.183 18.992 4.183 26.244 0 3.391-1.971 5.2-4.49 5.409-7.057.017-.178.017-.339.017-.517s.001-.336-.017-.517z" class="prefix__cls-9" data-name="Path 11326" transform="translate(-394.306 -355.48)"/>
                        <path id="prefix__Path_11327" d="M420.909 357.333a18.519 18.519 0 0 0-26.587 16.186c-.017.178-.017.339-.017.517s0 .339.017.517c.209 2.568 2.018 5.087 5.426 7.057a24.68 24.68 0 0 0 9.306 2.9c-4.812-.83-7.925-6.2-6.446-12.134 1.717-6.876 8.673-16.822 18.301-15.043z" class="prefix__cls-6" data-name="Path 11327" transform="translate(-394.306 -355.48)"/>
                        <path id="prefix__Path_11328" d="M431.53 374.947c.017-.178.017-.339.017-.517s0-.339-.017-.517a18.446 18.446 0 0 0-6.3-13.4c2.014 2.071 6.5 9.879 1.626 15.831-3.2 3.915-18.407 9.5-30.919 2.323a12.932 12.932 0 0 0 3.94 3.333c7.235 4.183 18.992 4.183 26.244 0 3.39-1.966 5.199-4.485 5.409-7.053z" class="prefix__cls-7" data-name="Path 11328" transform="translate(-394.434 -355.874)"/>
                        <path id="prefix__Path_11329" d="M413.354 359.859c.83 1.89-.764 4.419-3.562 5.647s-5.738.692-6.569-1.2.765-4.419 3.562-5.647 5.74-.69 6.569 1.2z" class="prefix__cls-8" data-name="Path 11329" transform="translate(-394.987 -355.677)"/>
                        <path id="prefix__Path_11330" d="M402.195 368.275a2.436 2.436 0 1 1-2.968-.824 2.2 2.2 0 0 1 2.968.824z" class="prefix__cls-8" data-name="Path 11330" transform="translate(-394.571 -356.399)"/>
                    </g>
                </g>
                <g id="prefix__Group_14946" data-name="Group 14946" transform="translate(96.159 209.131)">
                    <path id="prefix__Path_11331" d="M351.679 296.554a22.1 22.1 0 0 1-7.819 16.886 14.433 14.433 0 0 0-5.254 10.985v53.1c0 1.349-.881 2.7-2.665 3.725a11.39 11.39 0 0 1-3.347 1.227 15.676 15.676 0 0 1-6.2 0 11.514 11.514 0 0 1-3.335-1.227c-1.773-1.026-2.665-2.375-2.665-3.725v-53.2a14.3 14.3 0 0 0-5.219-10.863 22.038 22.038 0 0 1-7.852-17.086 22.178 22.178 0 0 1 44.356.178z" class="prefix__cls-3" data-name="Path 11331" transform="translate(-307.322 -274.371)"/>
                    <path id="prefix__Path_11332" d="M351.679 296.554a22.1 22.1 0 0 1-7.819 16.886 14.433 14.433 0 0 0-5.254 10.985v53.1c0 1.349-.881 2.7-2.665 3.725a11.39 11.39 0 0 1-3.347 1.227 15.676 15.676 0 0 1-6.2 0 11.514 11.514 0 0 1-3.335-1.227c-1.773-1.026-2.665-2.375-2.665-3.725v-53.2a14.3 14.3 0 0 0-5.219-10.863 22.038 22.038 0 0 1-7.852-17.086 22.178 22.178 0 0 1 44.356.178z" class="prefix__cls-10" data-name="Path 11332" transform="translate(-307.322 -274.371)"/>
                    <path id="prefix__Path_11333" d="M342.708 297.387a12.347 12.347 0 0 1-5.219 10.078 10.046 10.046 0 0 0-4.061 8.227v63.982a3.138 3.138 0 0 1-3.068 3.172h-.06a3.139 3.139 0 0 1-3.069-3.172v-64.141a9.879 9.879 0 0 0-4.059-8.075 12.343 12.343 0 0 1-5.208-10.417 12.376 12.376 0 0 1 24.748.346z" class="prefix__cls-3" data-name="Path 11333" transform="translate(-308.155 -275.204)"/>
                    <path id="prefix__Path_11334" d="M342.708 297.387a12.347 12.347 0 0 1-5.219 10.078 10.046 10.046 0 0 0-4.061 8.227v63.982a3.138 3.138 0 0 1-3.068 3.172h-.06a3.139 3.139 0 0 1-3.069-3.172v-64.141a9.879 9.879 0 0 0-4.059-8.075 12.343 12.343 0 0 1-5.208-10.417 12.376 12.376 0 0 1 24.748.346z" class="prefix__cls-9" data-name="Path 11334" transform="translate(-308.155 -275.204)"/>
                    <circle id="prefix__Ellipse_429" cx="4.688" cy="4.688" r="4.688" class="prefix__cls-5" data-name="Ellipse 429" transform="translate(28.726 28.099)"/>
                    <path id="prefix__Path_11335" d="M337.592 294.543a3.532 3.532 0 1 1 3.532 3.533 3.532 3.532 0 0 1-3.532-3.533z" class="prefix__cls-9" data-name="Path 11335" transform="translate(-309.693 -275.674)"/>
                    <path id="prefix__Path_11336" d="M330.267 288.579a1.75 1.75 0 1 1 1.75 1.75 1.751 1.751 0 0 1-1.75-1.75z" class="prefix__cls-5" data-name="Path 11336" transform="translate(-309.119 -275.347)"/>
                    <path id="prefix__Path_11337" d="M315.1 290.607a4.749 4.749 0 1 1 4.749 4.749 4.749 4.749 0 0 1-4.749-4.749z" class="prefix__cls-9" data-name="Path 11337" transform="translate(-307.931 -275.271)"/>
                    <path id="prefix__Path_11338" d="M314.237 300.136a2.227 2.227 0 1 0 2.228-2.228 2.227 2.227 0 0 0-2.228 2.228z" class="prefix__cls-5" data-name="Path 11338" transform="translate(-307.864 -276.215)"/>
                    <path id="prefix__Path_11339" d="M314.495 309.187a4.33 4.33 0 1 1 4.33 4.33 4.329 4.329 0 0 1-4.33-4.33z" class="prefix__cls-9" data-name="Path 11339" transform="translate(-307.884 -276.759)"/>
                    <path id="prefix__Path_11340" d="M326.163 316.158a2.978 2.978 0 1 1 2.978 2.978 2.977 2.977 0 0 1-2.978-2.978z" class="prefix__cls-9" data-name="Path 11340" transform="translate(-308.798 -277.411)"/>
                    <path id="prefix__Path_11341" d="M309.649 294.714a1.519 1.519 0 1 1 1.519 1.519 1.519 1.519 0 0 1-1.519-1.519z" class="prefix__cls-9" data-name="Path 11341" transform="translate(-307.504 -275.845)"/>
                    <path id="prefix__Path_11342" d="M345.5 287.859a2 2 0 1 1 2 2 2 2 0 0 1-2-2z" class="prefix__cls-5" data-name="Path 11342" transform="translate(-310.312 -275.271)"/>
                    <path id="prefix__Path_11343" d="M347.656 298.5a2.013 2.013 0 1 1 2.013 2.013 2.014 2.014 0 0 1-2.013-2.013z" class="prefix__cls-9" data-name="Path 11343" transform="translate(-310.481 -276.104)"/>
                    <path id="prefix__Path_11344" d="M327.21 300.689a2.013 2.013 0 1 1 2.013 2.014 2.013 2.013 0 0 1-2.013-2.014z" class="prefix__cls-5" data-name="Path 11344" transform="translate(-308.88 -276.275)"/>
                </g>
                <g id="prefix__Group_14961" data-name="Group 14961" transform="translate(0 287.745)">
                    <g id="prefix__Group_14947" data-name="Group 14947" transform="translate(211.756 6.399)">
                        <path id="prefix__Path_11345" d="M455.351 377.6a11.3 11.3 0 0 0-22.6 0c-.01.108-.01.206-.01.314s0 .207.01.315c.127 1.565 1.23 3.1 3.307 4.3 4.409 2.549 11.575 2.549 15.995 0 2.066-1.2 3.17-2.736 3.3-4.3.01-.108.01-.206.01-.315s-.002-.202-.012-.314z" class="prefix__cls-3" data-name="Path 11345" transform="translate(-432.742 -366.609)"/>
                        <path id="prefix__Path_11346" d="M455.351 377.6a11.3 11.3 0 0 0-22.6 0c-.01.108-.01.206-.01.314s0 .207.01.315c.127 1.565 1.23 3.1 3.307 4.3 4.409 2.549 11.575 2.549 15.995 0 2.066-1.2 3.17-2.736 3.3-4.3.01-.108.01-.206.01-.315s-.002-.202-.012-.314z" class="prefix__cls-10" data-name="Path 11346" transform="translate(-432.742 -366.609)"/>
                        <path id="prefix__Path_11347" d="M448.956 367.738a11.287 11.287 0 0 0-16.2 9.866c-.01.108-.01.206-.01.314s0 .207.01.315c.127 1.565 1.23 3.1 3.307 4.3a15.037 15.037 0 0 0 5.672 1.77c-2.933-.506-4.831-3.78-3.929-7.4 1.042-4.187 5.282-10.249 11.15-9.165z" class="prefix__cls-8" data-name="Path 11347" transform="translate(-432.742 -366.609)"/>
                        <path id="prefix__Path_11348" d="M455.429 378.473c.01-.108.01-.206.01-.315s0-.206-.01-.314a11.243 11.243 0 0 0-3.837-8.169c1.228 1.263 3.96 6.021.992 9.649-1.952 2.386-11.219 5.791-18.845 1.416a7.858 7.858 0 0 0 2.4 2.035c4.409 2.549 11.575 2.549 15.995 0 2.066-1.201 3.166-2.737 3.295-4.302z" class="prefix__cls-11" data-name="Path 11348" transform="translate(-432.82 -366.849)"/>
                        <path id="prefix__Path_11349" d="M444.352 369.278c.506 1.152-.466 2.693-2.171 3.442s-3.5.422-4-.73.466-2.693 2.171-3.442 3.494-.422 4 .73z" class="prefix__cls-8" data-name="Path 11349" transform="translate(-433.157 -366.729)"/>
                        <path id="prefix__Path_11350" d="M437.55 374.407a1.484 1.484 0 1 1-1.808-.5 1.342 1.342 0 0 1 1.808.5z" class="prefix__cls-8" data-name="Path 11350" transform="translate(-432.903 -367.169)"/>
                    </g>
                    <g id="prefix__Group_14948" data-name="Group 14948" transform="translate(186.306 11.558)">
                        <path id="prefix__Path_11351" d="M436.261 387.345a15.566 15.566 0 0 0-31.119 0c-.013.149-.013.285-.013.434s0 .285.013.433c.176 2.155 1.694 4.27 4.554 5.924 6.072 3.51 15.939 3.51 22.025 0 2.846-1.653 4.364-3.769 4.54-5.924.013-.148.013-.284.013-.433s0-.284-.013-.434z" class="prefix__cls-3" data-name="Path 11351" transform="translate(-405.129 -372.206)"/>
                        <path id="prefix__Path_11352" d="M436.261 387.345a15.566 15.566 0 0 0-31.119 0c-.013.149-.013.285-.013.434s0 .285.013.433c.176 2.155 1.694 4.27 4.554 5.924 6.072 3.51 15.939 3.51 22.025 0 2.846-1.653 4.364-3.769 4.54-5.924.013-.148.013-.284.013-.433s0-.284-.013-.434z" class="prefix__cls-12" data-name="Path 11352" transform="translate(-405.129 -372.206)"/>
                        <path id="prefix__Path_11353" d="M427.456 373.761a15.543 15.543 0 0 0-22.314 13.585c-.013.149-.013.285-.013.434s0 .285.013.433c.176 2.155 1.694 4.27 4.554 5.924a20.718 20.718 0 0 0 7.81 2.437c-4.039-.7-6.652-5.206-5.41-10.184 1.441-5.775 7.278-14.121 15.36-12.629z" class="prefix__cls-8" data-name="Path 11353" transform="translate(-405.129 -372.206)"/>
                        <path id="prefix__Path_11354" d="M436.369 388.544c.013-.148.013-.284.013-.433s0-.285-.013-.434a15.486 15.486 0 0 0-5.283-11.247c1.69 1.738 5.452 8.291 1.364 13.286-2.689 3.284-15.45 7.973-25.95 1.948a10.835 10.835 0 0 0 3.3 2.8c6.072 3.51 15.939 3.51 22.025 0 2.85-1.65 4.368-3.764 4.544-5.92z" class="prefix__cls-7" data-name="Path 11354" transform="translate(-405.236 -372.537)"/>
                        <path id="prefix__Path_11355" d="M421.115 375.881c.7 1.586-.641 3.708-2.99 4.739s-4.816.582-5.513-1.006.641-3.709 2.99-4.74 4.816-.58 5.513 1.007z" class="prefix__cls-6" data-name="Path 11355" transform="translate(-405.701 -372.372)"/>
                        <path id="prefix__Path_11356" d="M411.749 382.945a2.044 2.044 0 1 1-2.49-.691 1.846 1.846 0 0 1 2.49.691z" class="prefix__cls-6" data-name="Path 11356" transform="translate(-405.351 -372.977)"/>
                    </g>
                    <g id="prefix__Group_14949" data-name="Group 14949" transform="translate(151.194 15.484)">
                        <path id="prefix__Path_11357" d="M405.672 395.255a19.318 19.318 0 0 0-38.621 0c-.017.184-.017.353-.017.538s0 .353.017.538c.218 2.675 2.1 5.3 5.652 7.35 7.536 4.357 19.781 4.357 27.334 0 3.532-2.052 5.417-4.676 5.635-7.35.017-.185.017-.353.017-.538s0-.353-.017-.538z" class="prefix__cls-3" data-name="Path 11357" transform="translate(-367.034 -376.466)"/>
                        <path id="prefix__Path_11358" d="M405.672 395.255a19.318 19.318 0 0 0-38.621 0c-.017.184-.017.353-.017.538s0 .353.017.538c.218 2.675 2.1 5.3 5.652 7.35 7.536 4.357 19.781 4.357 27.334 0 3.532-2.052 5.417-4.676 5.635-7.35.017-.185.017-.353.017-.538s0-.353-.017-.538z" class="prefix__cls-5" data-name="Path 11358" transform="translate(-367.034 -376.466)"/>
                        <path id="prefix__Path_11359" d="M394.744 378.4a19.289 19.289 0 0 0-27.693 16.859c-.017.184-.017.353-.017.538s0 .353.017.538c.218 2.675 2.1 5.3 5.652 7.35a25.7 25.7 0 0 0 9.692 3.025c-5.011-.865-8.255-6.46-6.713-12.639 1.787-7.171 9.033-17.528 19.062-15.671z" class="prefix__cls-6" data-name="Path 11359" transform="translate(-367.034 -376.466)"/>
                        <path id="prefix__Path_11360" d="M405.806 396.742c.017-.185.017-.353.017-.538s0-.354-.017-.538a19.217 19.217 0 0 0-6.557-13.959c2.1 2.157 6.766 10.29 1.693 16.489-3.336 4.077-19.172 9.9-32.2 2.418a13.436 13.436 0 0 0 4.1 3.478c7.536 4.357 19.781 4.357 27.334 0 3.524-2.051 5.411-4.675 5.63-7.35z" class="prefix__cls-7" data-name="Path 11360" transform="translate(-367.167 -376.876)"/>
                        <path id="prefix__Path_11361" d="M386.875 381.027c.865 1.97-.8 4.6-3.711 5.883s-5.977.721-6.842-1.249.8-4.6 3.711-5.882 5.977-.721 6.842 1.248z" class="prefix__cls-6" data-name="Path 11361" transform="translate(-367.744 -376.672)"/>
                        <path id="prefix__Path_11362" d="M375.251 389.793a2.538 2.538 0 1 1-3.091-.857 2.291 2.291 0 0 1 3.091.857z" class="prefix__cls-6" data-name="Path 11362" transform="translate(-367.31 -377.423)"/>
                    </g>
                    <g id="prefix__Group_14950" data-name="Group 14950" transform="translate(88.373 14.765)">
                        <path id="prefix__Path_11363" d="M331.2 391.407a16.163 16.163 0 0 0-32.315 0c-.014.154-.014.295-.014.45s0 .3.014.451c.183 2.238 1.759 4.433 4.729 6.15 6.305 3.645 16.551 3.645 22.87 0 2.956-1.717 4.532-3.913 4.715-6.15.014-.155.014-.3.014-.451s.003-.296-.013-.45z" class="prefix__cls-3" data-name="Path 11363" transform="translate(-298.874 -375.686)"/>
                        <path id="prefix__Path_11364" d="M331.2 391.407a16.163 16.163 0 0 0-32.315 0c-.014.154-.014.295-.014.45s0 .3.014.451c.183 2.238 1.759 4.433 4.729 6.15 6.305 3.645 16.551 3.645 22.87 0 2.956-1.717 4.532-3.913 4.715-6.15.014-.155.014-.3.014-.451s.003-.296-.013-.45z" class="prefix__cls-5" data-name="Path 11364" transform="translate(-298.874 -375.686)"/>
                        <path id="prefix__Path_11365" d="M322.059 377.3a16.141 16.141 0 0 0-23.171 14.107c-.014.154-.014.295-.014.45s0 .3.014.451c.183 2.238 1.759 4.433 4.729 6.15a21.516 21.516 0 0 0 8.11 2.53c-4.193-.724-6.907-5.4-5.618-10.574 1.491-5.996 7.559-14.663 15.95-13.114z" class="prefix__cls-6" data-name="Path 11365" transform="translate(-298.874 -375.686)"/>
                        <path id="prefix__Path_11366" d="M331.314 392.651c.014-.155.014-.3.014-.451s0-.3-.014-.45a16.079 16.079 0 0 0-5.487-11.68c1.756 1.806 5.662 8.61 1.418 13.8-2.792 3.411-16.042 8.279-26.946 2.023a11.239 11.239 0 0 0 3.43 2.911c6.305 3.645 16.551 3.645 22.87 0 2.956-1.72 4.532-3.915 4.715-6.153z" class="prefix__cls-7" data-name="Path 11366" transform="translate(-298.986 -376.029)"/>
                        <path id="prefix__Path_11367" d="M315.474 379.5c.724 1.648-.666 3.852-3.1 4.922s-5 .6-5.725-1.044.667-3.851 3.105-4.922 4.997-.602 5.72 1.044z" class="prefix__cls-6" data-name="Path 11367" transform="translate(-299.468 -375.858)"/>
                        <path id="prefix__Path_11368" d="M305.749 386.836a2.124 2.124 0 1 1-2.587-.717 1.918 1.918 0 0 1 2.587.717z" class="prefix__cls-6" data-name="Path 11368" transform="translate(-299.105 -376.487)"/>
                    </g>
                    <g id="prefix__Group_14951" data-name="Group 14951" transform="translate(119.179 20.034)">
                        <path id="prefix__Path_11369" d="M360.675 395.2a14.188 14.188 0 0 0-28.365 0c-.013.136-.013.26-.013.4s0 .26.013.4c.16 1.964 1.544 3.891 4.15 5.4 5.535 3.2 14.528 3.2 20.076 0 2.594-1.508 3.978-3.435 4.138-5.4.012-.135.012-.259.012-.4s.001-.262-.011-.4z" class="prefix__cls-3" data-name="Path 11369" transform="translate(-332.298 -381.402)"/>
                        <path id="prefix__Path_11370" d="M360.675 395.2a14.188 14.188 0 0 0-28.365 0c-.013.136-.013.26-.013.4s0 .26.013.4c.16 1.964 1.544 3.891 4.15 5.4 5.535 3.2 14.528 3.2 20.076 0 2.594-1.508 3.978-3.435 4.138-5.4.012-.135.012-.259.012-.4s.001-.262-.011-.4z" class="prefix__cls-5" data-name="Path 11370" transform="translate(-332.298 -381.402)"/>
                        <path id="prefix__Path_11371" d="M352.649 382.82a14.166 14.166 0 0 0-20.338 12.38c-.013.136-.013.26-.013.4s0 .26.013.4c.16 1.964 1.544 3.891 4.15 5.4a18.906 18.906 0 0 0 7.119 2.221c-3.681-.636-6.063-4.745-4.931-9.282 1.313-5.272 6.634-12.881 14-11.519z" class="prefix__cls-6" data-name="Path 11371" transform="translate(-332.298 -381.402)"/>
                        <path id="prefix__Path_11372" d="M360.773 396.294c.012-.135.012-.259.012-.4s0-.259-.012-.4a14.115 14.115 0 0 0-4.816-10.252c1.541 1.584 4.97 7.558 1.244 12.111-2.451 2.995-14.081 7.267-23.653 1.776a9.889 9.889 0 0 0 3.01 2.555c5.535 3.2 14.528 3.2 20.076 0 2.595-1.499 3.979-3.426 4.139-5.39z" class="prefix__cls-7" data-name="Path 11372" transform="translate(-332.396 -381.703)"/>
                        <path id="prefix__Path_11373" d="M346.87 384.752c.635 1.446-.585 3.38-2.725 4.32s-4.39.529-5.025-.917.585-3.38 2.725-4.32 4.39-.529 5.025.917z" class="prefix__cls-6" data-name="Path 11373" transform="translate(-332.819 -381.553)"/>
                        <path id="prefix__Path_11374" d="M338.333 391.19a1.864 1.864 0 1 1-2.271-.629 1.682 1.682 0 0 1 2.271.629z" class="prefix__cls-6" data-name="Path 11374" transform="translate(-332.501 -382.105)"/>
                    </g>
                    <g id="prefix__Group_14952" data-name="Group 14952" transform="translate(230.268 13.398)">
                        <path id="prefix__Path_11375" d="M466.488 380.846a6.83 6.83 0 0 0-13.655 0 2.789 2.789 0 0 0 0 .381 3.506 3.506 0 0 0 2 2.6 10.686 10.686 0 0 0 9.665 0 3.512 3.512 0 0 0 1.992-2.6 2.8 2.8 0 0 0 0-.381z" class="prefix__cls-3" data-name="Path 11375" transform="translate(-452.827 -374.203)"/>
                        <path id="prefix__Path_11376" d="M466.488 380.846a6.83 6.83 0 0 0-13.655 0 2.789 2.789 0 0 0 0 .381 3.506 3.506 0 0 0 2 2.6 10.686 10.686 0 0 0 9.665 0 3.512 3.512 0 0 0 1.992-2.6 2.8 2.8 0 0 0 0-.381z" class="prefix__cls-13" data-name="Path 11376" transform="translate(-452.827 -374.203)"/>
                        <path id="prefix__Path_11377" d="M462.624 374.886a6.819 6.819 0 0 0-9.791 5.961 2.789 2.789 0 0 0 0 .381 3.506 3.506 0 0 0 2 2.6 9.093 9.093 0 0 0 3.427 1.07c-1.771-.306-2.919-2.285-2.374-4.469.63-2.536 3.193-6.198 6.738-5.543z" class="prefix__cls-8" data-name="Path 11377" transform="translate(-452.827 -374.203)"/>
                        <path id="prefix__Path_11378" d="M466.535 381.372a2.8 2.8 0 0 0 0-.381 6.8 6.8 0 0 0-2.318-4.936c.742.763 2.393 3.639.6 5.831-1.18 1.442-6.779 3.5-11.387.855a4.764 4.764 0 0 0 1.45 1.23 10.686 10.686 0 0 0 9.665 0 3.512 3.512 0 0 0 1.99-2.599z" class="prefix__cls-14" data-name="Path 11378" transform="translate(-452.874 -374.348)"/>
                        <path id="prefix__Path_11379" d="M459.842 375.816c.306.7-.281 1.628-1.312 2.08s-2.113.254-2.419-.441.281-1.628 1.312-2.08 2.113-.255 2.419.441z" class="prefix__cls-6" data-name="Path 11379" transform="translate(-453.078 -374.276)"/>
                        <path id="prefix__Path_11380" d="M455.732 378.916a.9.9 0 1 1-1.093-.3.811.811 0 0 1 1.093.3z" class="prefix__cls-6" data-name="Path 11380" transform="translate(-452.925 -374.541)"/>
                    </g>
                    <g id="prefix__Group_14953" data-name="Group 14953" transform="translate(9.561 .638)">
                        <path id="prefix__Path_11381" d="M213.373 371.353a11.3 11.3 0 0 1 22.6 0c.01.109.01.206.01.315s0 .206-.01.314c-.128 1.565-1.23 3.1-3.307 4.3-4.41 2.549-11.575 2.549-15.995 0-2.067-1.2-3.17-2.736-3.3-4.3-.009-.108-.009-.206-.009-.314s.002-.207.011-.315z" class="prefix__cls-3" data-name="Path 11381" transform="translate(-213.364 -360.358)"/>
                        <path id="prefix__Path_11382" d="M213.373 371.353a11.3 11.3 0 0 1 22.6 0c.01.109.01.206.01.315s0 .206-.01.314c-.128 1.565-1.23 3.1-3.307 4.3-4.41 2.549-11.575 2.549-15.995 0-2.067-1.2-3.17-2.736-3.3-4.3-.009-.108-.009-.206-.009-.314s.002-.207.011-.315z" class="prefix__cls-10" data-name="Path 11382" transform="translate(-213.364 -360.358)"/>
                        <path id="prefix__Path_11383" d="M220.313 361.487a11.287 11.287 0 0 1 16.2 9.866c.01.109.01.206.01.315s0 .206-.01.314c-.128 1.565-1.23 3.1-3.307 4.3a15.041 15.041 0 0 1-5.672 1.77c2.933-.506 4.831-3.78 3.928-7.4-1.041-4.187-5.281-10.252-11.149-9.165z" class="prefix__cls-8" data-name="Path 11383" transform="translate(-213.908 -360.358)"/>
                        <path id="prefix__Path_11384" d="M213.373 372.222c-.009-.108-.009-.206-.009-.314s0-.206.009-.315a11.248 11.248 0 0 1 3.837-8.168c-1.228 1.262-3.96 6.021-.991 9.648 1.952 2.386 11.219 5.791 18.845 1.416a7.868 7.868 0 0 1-2.4 2.035c-4.41 2.549-11.575 2.549-15.995 0-2.069-1.201-3.169-2.737-3.296-4.302z" class="prefix__cls-11" data-name="Path 11384" transform="translate(-213.364 -360.598)"/>
                        <path id="prefix__Path_11385" d="M225.748 363.027c-.506 1.152.466 2.693 2.171 3.442s3.5.421 4-.731-.465-2.693-2.171-3.441-3.494-.422-4 .73z" class="prefix__cls-6" data-name="Path 11385" transform="translate(-214.323 -360.478)"/>
                        <path id="prefix__Path_11386" d="M232.856 368.157a1.485 1.485 0 1 0 1.809-.5 1.34 1.34 0 0 0-1.809.5z" class="prefix__cls-6" data-name="Path 11386" transform="translate(-214.884 -360.918)"/>
                    </g>
                    <g id="prefix__Group_14954" data-name="Group 14954" transform="translate(33.792)">
                        <path id="prefix__Path_11387" d="M239.669 375.613a16.4 16.4 0 0 1 32.78 0c.015.158.015.3.015.457s0 .3-.015.457c-.185 2.27-1.784 4.5-4.8 6.239-6.4 3.7-16.789 3.7-23.2 0-3-1.742-4.6-3.969-4.783-6.239-.014-.158-.014-.3-.014-.457s.003-.3.017-.457z" class="prefix__cls-3" data-name="Path 11387" transform="translate(-239.655 -359.666)"/>
                        <path id="prefix__Path_11388" d="M239.669 375.613a16.4 16.4 0 0 1 32.78 0c.015.158.015.3.015.457s0 .3-.015.457c-.185 2.27-1.784 4.5-4.8 6.239-6.4 3.7-16.789 3.7-23.2 0-3-1.742-4.6-3.969-4.783-6.239-.014-.158-.014-.3-.014-.457s.003-.3.017-.457z" class="prefix__cls-9" data-name="Path 11388" transform="translate(-239.655 -359.666)"/>
                        <path id="prefix__Path_11389" d="M249.734 361.3a16.374 16.374 0 0 1 23.5 14.31c.015.158.015.3.015.457s0 .3-.015.457c-.185 2.27-1.784 4.5-4.8 6.239a21.811 21.811 0 0 1-8.227 2.567c4.254-.734 7.008-5.483 5.7-10.727-1.507-6.08-7.661-14.872-16.173-13.303z" class="prefix__cls-6" data-name="Path 11389" transform="translate(-240.444 -359.666)"/>
                        <path id="prefix__Path_11390" d="M239.669 376.875c-.014-.158-.014-.3-.014-.457s0-.3.014-.457a16.311 16.311 0 0 1 5.565-11.848c-1.781 1.831-5.743 8.735-1.438 14 2.832 3.462 16.273 8.4 27.335 2.053a11.418 11.418 0 0 1-3.479 2.952c-6.4 3.7-16.789 3.7-23.2 0-2.999-1.746-4.598-3.972-4.783-6.243z" class="prefix__cls-7" data-name="Path 11390" transform="translate(-239.655 -360.014)"/>
                        <path id="prefix__Path_11391" d="M257.617 363.536c-.735 1.671.677 3.907 3.149 4.993s5.073.612 5.807-1.059-.677-3.907-3.149-4.993-5.073-.612-5.807 1.059z" class="prefix__cls-8" data-name="Path 11391" transform="translate(-241.047 -359.841)"/>
                        <path id="prefix__Path_11392" d="M267.929 370.977a2.154 2.154 0 1 0 2.624-.728 1.946 1.946 0 0 0-2.624.728z" class="prefix__cls-8" data-name="Path 11392" transform="translate(-241.86 -360.478)"/>
                    </g>
                    <g id="prefix__Group_14955" data-name="Group 14955" transform="translate(19.358 10.431)">
                        <path id="prefix__Path_11393" d="M224.008 386.122a15.566 15.566 0 0 1 31.119 0c.014.149.014.285.014.434s0 .285-.014.433c-.176 2.155-1.694 4.269-4.554 5.923-6.072 3.511-15.939 3.511-22.025 0-2.846-1.654-4.364-3.768-4.54-5.923-.014-.148-.014-.285-.014-.433s0-.284.014-.434z" class="prefix__cls-3" data-name="Path 11393" transform="translate(-223.994 -370.983)"/>
                        <path id="prefix__Path_11394" d="M224.008 386.122a15.566 15.566 0 0 1 31.119 0c.014.149.014.285.014.434s0 .285-.014.433c-.176 2.155-1.694 4.269-4.554 5.923-6.072 3.511-15.939 3.511-22.025 0-2.846-1.654-4.364-3.768-4.54-5.923-.014-.148-.014-.285-.014-.433s0-.284.014-.434z" class="prefix__cls-12" data-name="Path 11394" transform="translate(-223.994 -370.983)"/>
                        <path id="prefix__Path_11395" d="M233.563 372.538a15.543 15.543 0 0 1 22.314 13.585c.014.149.014.285.014.434s0 .285-.014.433c-.176 2.155-1.694 4.269-4.554 5.923a20.723 20.723 0 0 1-7.81 2.438c4.039-.7 6.652-5.206 5.41-10.184-1.441-5.775-7.279-14.122-15.36-12.629z" class="prefix__cls-8" data-name="Path 11395" transform="translate(-224.743 -370.983)"/>
                        <path id="prefix__Path_11396" fill="#27debf" d="M224.008 387.32c-.014-.148-.014-.285-.014-.433s0-.285.014-.434a15.485 15.485 0 0 1 5.283-11.247c-1.69 1.738-5.452 8.291-1.365 13.286 2.689 3.286 15.448 7.974 25.95 1.949a10.832 10.832 0 0 1-3.3 2.8c-6.072 3.511-15.939 3.511-22.025 0-2.851-1.651-4.367-3.766-4.543-5.921z" data-name="Path 11396" opacity="0.15" transform="translate(-223.994 -371.314)"/>
                        <path id="prefix__Path_11397" d="M241.047 374.658c-.7 1.586.642 3.708 2.99 4.739s4.816.581 5.513-1.005-.641-3.709-2.99-4.74-4.816-.581-5.513 1.006z" class="prefix__cls-6" data-name="Path 11397" transform="translate(-225.315 -371.149)"/>
                        <path id="prefix__Path_11398" d="M250.835 381.721a2.045 2.045 0 1 0 2.491-.69 1.847 1.847 0 0 0-2.491.69z" class="prefix__cls-6" data-name="Path 11398" transform="translate(-226.087 -371.754)"/>
                    </g>
                    <g id="prefix__Group_14956" data-name="Group 14956" transform="translate(52.372 13.612)">
                        <path id="prefix__Path_11399" d="M259.831 393.223a19.318 19.318 0 0 1 38.621 0c.017.185.017.353.017.538s0 .353-.017.538c-.218 2.675-2.1 5.3-5.652 7.35-7.537 4.357-19.782 4.357-27.334 0-3.533-2.052-5.417-4.676-5.635-7.35-.017-.185-.017-.353-.017-.538s0-.352.017-.538z" class="prefix__cls-3" data-name="Path 11399" transform="translate(-259.814 -374.435)"/>
                        <path id="prefix__Path_11400" d="M259.831 393.223a19.318 19.318 0 0 1 38.621 0c.017.185.017.353.017.538s0 .353-.017.538c-.218 2.675-2.1 5.3-5.652 7.35-7.537 4.357-19.782 4.357-27.334 0-3.533-2.052-5.417-4.676-5.635-7.35-.017-.185-.017-.353-.017-.538s0-.352.017-.538z" class="prefix__cls-5" data-name="Path 11400" transform="translate(-259.814 -374.435)"/>
                        <path id="prefix__Path_11401" d="M271.689 376.364a19.291 19.291 0 0 1 27.693 16.859c.017.185.017.353.017.538s0 .353-.017.538c-.218 2.675-2.1 5.3-5.652 7.35a25.7 25.7 0 0 1-9.692 3.025c5.011-.865 8.255-6.46 6.714-12.638-1.788-7.166-9.034-17.524-19.063-15.672z" class="prefix__cls-6" data-name="Path 11401" transform="translate(-260.744 -374.435)"/>
                        <path id="prefix__Path_11402" d="M259.831 394.71c-.017-.185-.017-.353-.017-.538s0-.353.017-.538a19.215 19.215 0 0 1 6.557-13.959c-2.1 2.158-6.766 10.29-1.694 16.489 3.337 4.078 19.173 9.9 32.205 2.419a13.434 13.434 0 0 1-4.1 3.477c-7.537 4.357-19.782 4.357-27.334 0-3.532-2.051-5.416-4.675-5.634-7.35z" class="prefix__cls-7" data-name="Path 11402" transform="translate(-259.814 -374.845)"/>
                        <path id="prefix__Path_11403" d="M280.978 379c-.865 1.969.8 4.6 3.711 5.882s5.977.721 6.842-1.248-.8-4.6-3.711-5.882-5.978-.726-6.842 1.248z" class="prefix__cls-6" data-name="Path 11403" transform="translate(-261.454 -374.641)"/>
                        <path id="prefix__Path_11404" d="M293.126 387.761a2.537 2.537 0 1 0 3.091-.857 2.293 2.293 0 0 0-3.091.857z" class="prefix__cls-6" data-name="Path 11404" transform="translate(-262.412 -375.392)"/>
                    </g>
                    <g id="prefix__Group_14957" data-name="Group 14957" transform="translate(120.634 28.029)">
                        <path id="prefix__Path_11405" d="M369.15 407.23a17.636 17.636 0 0 0-35.259 0c-.015.169-.015.322-.015.49s0 .323.015.492c.2 2.442 1.92 4.837 5.16 6.711 6.879 3.977 18.058 3.977 24.953 0 3.225-1.874 4.945-4.269 5.145-6.711.015-.17.015-.323.015-.492s.001-.32-.014-.49z" class="prefix__cls-3" data-name="Path 11405" transform="translate(-333.877 -390.077)"/>
                        <path id="prefix__Path_11406" d="M369.15 407.23a17.636 17.636 0 0 0-35.259 0c-.015.169-.015.322-.015.49s0 .323.015.492c.2 2.442 1.92 4.837 5.16 6.711 6.879 3.977 18.058 3.977 24.953 0 3.225-1.874 4.945-4.269 5.145-6.711.015-.17.015-.323.015-.492s.001-.32-.014-.49z" class="prefix__cls-4" data-name="Path 11406" transform="translate(-333.877 -390.077)"/>
                        <path id="prefix__Path_11407" d="M359.173 391.838a17.611 17.611 0 0 0-25.282 15.392c-.015.169-.015.322-.015.49s0 .323.015.492c.2 2.442 1.92 4.837 5.16 6.711a23.461 23.461 0 0 0 8.848 2.76c-4.575-.789-7.536-5.9-6.129-11.538 1.63-6.545 8.247-15.998 17.403-14.307z" class="prefix__cls-8" data-name="Path 11407" transform="translate(-333.877 -390.077)"/>
                        <path id="prefix__Path_11408" d="M369.272 408.588c.015-.17.015-.323.015-.492s0-.322-.015-.49a17.544 17.544 0 0 0-5.986-12.744c1.915 1.97 6.177 9.395 1.547 15.054-3.046 3.723-17.5 9.034-29.4 2.208a12.263 12.263 0 0 0 3.742 3.175c6.879 3.977 18.058 3.977 24.953 0 3.224-1.875 4.944-4.27 5.144-6.711z" class="prefix__cls-7" data-name="Path 11408" transform="translate(-333.999 -390.452)"/>
                        <path id="prefix__Path_11409" d="M351.99 394.241c.79 1.8-.727 4.2-3.387 5.37s-5.457.658-6.246-1.139.727-4.2 3.387-5.371 5.456-.658 6.246 1.14z" class="prefix__cls-8" data-name="Path 11409" transform="translate(-334.525 -390.265)"/>
                        <path id="prefix__Path_11410" d="M341.378 402.243a2.317 2.317 0 1 1-2.822-.782 2.093 2.093 0 0 1 2.822.782z" class="prefix__cls-8" data-name="Path 11410" transform="translate(-334.129 -390.951)"/>
                    </g>
                    <g id="prefix__Group_14958" data-name="Group 14958" transform="translate(82.257 30.785)">
                        <path id="prefix__Path_11411" d="M292.253 409.381a16.772 16.772 0 0 1 33.532 0c.015.16.015.307.015.467s0 .307-.015.467c-.19 2.323-1.826 4.6-4.907 6.383-6.543 3.783-17.175 3.783-23.733 0-3.066-1.782-4.7-4.06-4.892-6.383-.015-.16-.015-.306-.015-.467s0-.307.015-.467z" class="prefix__cls-3" data-name="Path 11411" transform="translate(-292.238 -393.067)"/>
                        <path id="prefix__Path_11412" d="M292.253 409.381a16.772 16.772 0 0 1 33.532 0c.015.16.015.307.015.467s0 .307-.015.467c-.19 2.323-1.826 4.6-4.907 6.383-6.543 3.783-17.175 3.783-23.733 0-3.066-1.782-4.7-4.06-4.892-6.383-.015-.16-.015-.306-.015-.467s0-.307.015-.467z" class="prefix__cls-4" data-name="Path 11412" transform="translate(-292.238 -393.067)"/>
                        <path id="prefix__Path_11413" d="M302.549 394.743a16.747 16.747 0 0 1 24.044 14.638c.015.16.015.307.015.467s0 .307-.015.467c-.19 2.323-1.826 4.6-4.907 6.383a22.323 22.323 0 0 1-8.416 2.626c4.351-.751 7.168-5.608 5.83-10.974-1.553-6.222-7.844-15.216-16.551-13.607z" class="prefix__cls-8" data-name="Path 11413" transform="translate(-293.046 -393.067)"/>
                        <path id="prefix__Path_11414" d="M292.253 410.672c-.015-.16-.015-.306-.015-.467s0-.307.015-.467a16.682 16.682 0 0 1 5.693-12.12c-1.822 1.874-5.876 8.935-1.471 14.317 2.9 3.54 16.646 8.592 27.962 2.1a11.661 11.661 0 0 1-3.559 3.02c-6.543 3.783-17.175 3.783-23.733 0-3.066-1.782-4.702-4.061-4.892-6.383z" class="prefix__cls-7" data-name="Path 11414" transform="translate(-292.238 -393.423)"/>
                        <path id="prefix__Path_11415" d="M310.613 397.027c-.75 1.71.691 4 3.222 5.107s5.189.626 5.94-1.084-.692-4-3.222-5.107-5.19-.626-5.94 1.084z" class="prefix__cls-8" data-name="Path 11415" transform="translate(-293.662 -393.246)"/>
                        <path id="prefix__Path_11416" d="M321.161 404.638a2.2 2.2 0 1 0 2.684-.745 1.989 1.989 0 0 0-2.684.745z" class="prefix__cls-8" data-name="Path 11416" transform="translate(-294.494 -393.898)"/>
                    </g>
                    <g id="prefix__Group_14959" data-name="Group 14959" transform="translate(112.117 46.318)">
                        <path id="prefix__Path_11417" d="M338.3 416.563a6.83 6.83 0 0 0-13.656 0 2.8 2.8 0 0 0 0 .381 3.511 3.511 0 0 0 2 2.6 10.686 10.686 0 0 0 9.665 0 3.516 3.516 0 0 0 1.993-2.6c.006-.065.006-.124.006-.19s-.008-.125-.008-.191z" class="prefix__cls-3" data-name="Path 11417" transform="translate(-324.636 -409.92)"/>
                        <path id="prefix__Path_11418" d="M338.3 416.563a6.83 6.83 0 0 0-13.656 0 2.8 2.8 0 0 0 0 .381 3.511 3.511 0 0 0 2 2.6 10.686 10.686 0 0 0 9.665 0 3.516 3.516 0 0 0 1.993-2.6c.006-.065.006-.124.006-.19s-.008-.125-.008-.191z" class="prefix__cls-4" data-name="Path 11418" transform="translate(-324.636 -409.92)"/>
                        <path id="prefix__Path_11419" fill="#fff" d="M334.433 410.6a6.82 6.82 0 0 0-9.791 5.961 2.8 2.8 0 0 0 0 .381 3.511 3.511 0 0 0 2 2.6 9.081 9.081 0 0 0 3.427 1.069c-1.771-.305-2.918-2.284-2.373-4.468.63-2.533 3.192-6.195 6.737-5.543z" data-name="Path 11419" transform="translate(-324.636 -409.92)" style="isolation:isolate;mix-blend-mode:lighten" opacity="0.6"/>
                        <path id="prefix__Path_11420" d="M338.345 417.089c.006-.065.006-.124.006-.19s0-.125-.006-.191a6.792 6.792 0 0 0-2.319-4.936c.742.763 2.393 3.639.6 5.83-1.18 1.441-6.779 3.5-11.386.855a4.748 4.748 0 0 0 1.449 1.23 10.686 10.686 0 0 0 9.665 0 3.515 3.515 0 0 0 1.991-2.598z" class="prefix__cls-7" data-name="Path 11420" transform="translate(-324.683 -410.065)"/>
                        <path id="prefix__Path_11421" d="M331.651 411.533c.306.7-.281 1.628-1.312 2.08s-2.113.254-2.419-.441.282-1.628 1.313-2.08 2.113-.255 2.418.441z" class="prefix__cls-8" data-name="Path 11421" transform="translate(-324.887 -409.993)"/>
                        <path id="prefix__Path_11422" d="M327.542 414.633a.9.9 0 1 1-1.093-.3.812.812 0 0 1 1.093.3z" class="prefix__cls-8" data-name="Path 11422" transform="translate(-324.734 -410.258)"/>
                    </g>
                    <g id="prefix__Group_14960" data-name="Group 14960" transform="translate(0 7.638)">
                        <path id="prefix__Path_11423" d="M203 374.6a6.83 6.83 0 0 1 13.656 0 1.857 1.857 0 0 1 .006.19 1.885 1.885 0 0 1-.006.191 3.51 3.51 0 0 1-2 2.6 10.686 10.686 0 0 1-9.665 0 3.517 3.517 0 0 1-1.993-2.6c-.006-.065-.006-.125-.006-.191s-.001-.129.008-.19z" class="prefix__cls-3" data-name="Path 11423" transform="translate(-202.991 -367.953)"/>
                        <path id="prefix__Path_11424" d="M203 374.6a6.83 6.83 0 0 1 13.656 0 1.857 1.857 0 0 1 .006.19 1.885 1.885 0 0 1-.006.191 3.51 3.51 0 0 1-2 2.6 10.686 10.686 0 0 1-9.665 0 3.517 3.517 0 0 1-1.993-2.6c-.006-.065-.006-.125-.006-.191s-.001-.129.008-.19z" class="prefix__cls-13" data-name="Path 11424" transform="translate(-202.991 -367.953)"/>
                        <path id="prefix__Path_11425" d="M207.19 368.635a6.82 6.82 0 0 1 9.791 5.961 1.857 1.857 0 0 1 .006.19 1.885 1.885 0 0 1-.006.191 3.51 3.51 0 0 1-2 2.6 9.112 9.112 0 0 1-3.427 1.069c1.771-.306 2.918-2.284 2.373-4.469-.627-2.535-3.191-6.197-6.737-5.542z" class="prefix__cls-8" data-name="Path 11425" transform="translate(-203.32 -367.953)"/>
                        <path id="prefix__Path_11426" d="M203 375.122c-.006-.065-.006-.125-.006-.191s0-.125.006-.19a6.793 6.793 0 0 1 2.318-4.936c-.741.762-2.392 3.638-.6 5.83 1.18 1.442 6.779 3.5 11.386.855a4.749 4.749 0 0 1-1.449 1.23 10.686 10.686 0 0 1-9.665 0 3.517 3.517 0 0 1-1.99-2.598z" class="prefix__cls-14" data-name="Path 11426" transform="translate(-202.991 -368.098)"/>
                        <path id="prefix__Path_11427" d="M210.473 369.565c-.305.7.282 1.628 1.312 2.08s2.113.255 2.419-.441-.282-1.628-1.312-2.079-2.113-.256-2.419.44z" class="prefix__cls-6" data-name="Path 11427" transform="translate(-203.571 -368.026)"/>
                        <path id="prefix__Path_11428" d="M214.769 372.665a.9.9 0 1 0 1.093-.3.811.811 0 0 0-1.093.3z" class="prefix__cls-6" data-name="Path 11428" transform="translate(-203.91 -368.291)"/>
                    </g>
                </g>
                <g id="prefix__Group_14969" data-name="Group 14969" transform="translate(67.498)">
                    <path id="prefix__Path_11429" d="M355.743 241.472l3.743-45.392 15.083 8.708c7.243 4.182 10.487 14.894 9.3 30.707l-1.915 25.43-4.066-14.085c-2.214-7.671-7.859-10.316-16-7.5z" class="prefix__cls-17" data-name="Path 11429" transform="translate(-282.453 -59.108)"/>
                    <path id="prefix__Path_11430" d="M304.588 241.472l-3.744-45.392-15.082 8.708c-7.243 4.182-10.487 14.894-9.3 30.707l1.915 25.43 4.066-14.085c2.215-7.671 7.859-10.316 16-7.5z" class="prefix__cls-17" data-name="Path 11430" transform="translate(-276.225 -59.108)"/>
                    <g id="prefix__Group_14963" data-name="Group 14963" transform="translate(28.404 182.004)">
                        <path id="prefix__Path_11431" d="M351.771 268.091h.015l-2.834-12.506H310l-2.833 12.506h.015c-.74 3.785 1.389 7.723 6.418 10.626 8.768 5.062 22.982 5.062 31.75 0 5.032-2.903 7.161-6.84 6.421-10.626z" class="prefix__cls-18" data-name="Path 11431" transform="translate(-307.043 -245.773)"/>
                        <ellipse id="prefix__Ellipse_430" cx="19.654" cy="11.347" class="prefix__cls-19" data-name="Ellipse 430" rx="19.654" ry="11.347" transform="translate(2.782)"/>
                        <g id="prefix__Group_14962" data-name="Group 14962" transform="translate(0 9.811)">
                            <path id="prefix__Path_11432" d="M307.186 268.85c-.74 3.785 1.389 7.723 6.418 10.626 8.768 5.062 22.982 5.062 31.75 0 5.029-2.9 7.158-6.841 6.418-10.626l-.793-3.581c.782 3.429-1.162 7.109-5.842 9.81-8.648 4.993-22.669 4.993-31.317 0-4.663-2.692-6.609-6.356-5.85-9.774z" class="prefix__cls-17" data-name="Path 11432" transform="translate(-307.043 -256.343)"/>
                            <path id="prefix__Path_11433" d="M309.1 260.227c-.774 3.365 1.108 6.938 5.647 9.56 8.217 4.744 21.539 4.744 29.755 0 4.518-2.608 6.4-6.16 5.658-9.511l-1.062-4.692c.8 3.393-1.061 6.953-5.577 9.56-7.675 4.431-20.119 4.431-27.795 0-4.515-2.606-6.374-6.167-5.576-9.56z" class="prefix__cls-17" data-name="Path 11433" transform="translate(-307.191 -255.584)"/>
                            <path id="prefix__Path_11434" fill="#fff" d="M345.114 255.585h-2.946c.974 4.225 3.555 15.53 3.893 18.107.418 3.183-6.639 8.541-25.182 7.541 8.347 2.306 18.643 1.477 25.558-2.516a15.741 15.741 0 0 0 4.53-3.765z" data-name="Path 11434" opacity="0.1" transform="translate(-308.126 -255.584)"/>
                        </g>
                        <ellipse id="prefix__Ellipse_431" cx="19.654" cy="11.347" class="prefix__cls-19" data-name="Ellipse 431" rx="19.654" ry="11.347" transform="translate(2.782)"/>
                    </g>
                    <g id="prefix__Group_14964" data-name="Group 14964" transform="translate(11.69)">
                        <path id="prefix__Path_11435" fill="#27b99c" d="M367.208 148.673c0-48.487-20.486-90.391-35.719-100.094-.132-.095-.268-.183-.408-.268-.024-.015-.049-.034-.074-.048H331a5.845 5.845 0 0 0-5.888 0h-.006c-.024.014-.049.033-.074.048-.139.085-.276.173-.407.268-15.233 9.7-35.719 51.606-35.719 100.094 0 46.658 13.079 88.013 14.327 91.854.031.1.062.194.1.291.95 2.711 3.242 5.3 6.883 7.4 9.855 5.69 25.833 5.69 35.687 0 3.772-2.178 6.1-4.875 6.98-7.692 1.249-3.848 14.325-45.199 14.325-91.853z" data-name="Path 11435" transform="translate(-288.908 -47.468)"/>
                        <path id="prefix__Path_11436" d="M344.166 60.234c-3.778-5.41-7.6-9.41-11.142-11.659-.13-.092-.268-.175-.406-.267a.2.2 0 0 1-.073-.046h-.01a5.866 5.866 0 0 0-5.89 0h-.009a.2.2 0 0 1-.073.046c-.139.092-.268.175-.406.267-3.539 2.258-7.364 6.249-11.152 11.668a98.531 98.531 0 0 0-6.525 10.876c.664 2.507 2.664 4.913 6.009 6.839 8.341 4.82 21.862 4.82 30.2 0 3.336-1.926 5.346-4.332 6.009-6.839a97.709 97.709 0 0 0-6.532-10.885z" class="prefix__cls-19" data-name="Path 11436" transform="translate(-290.441 -47.468)"/>
                        <path id="prefix__Path_11437" d="M288.908 148.768c0 46.658 13.079 88.013 14.327 91.854.031.1.062.194.1.291.95 2.711 3.242 5.3 6.883 7.4a28.769 28.769 0 0 0 5.491 2.391c-6.381-22.939-13.868-61.889-13.869-100.754 0-53.725 13.227-91.793 22.79-101.276-15.236 9.703-35.722 51.606-35.722 100.094z" class="prefix__cls-22" data-name="Path 11437" transform="translate(-288.908 -47.562)"/>
                        <path id="prefix__Path_11438" fill="#fff" d="M370.827 148.768c0 46.658-13.079 88.013-14.327 91.854-.03.1-.062.194-.1.291-.95 2.711-3.242 5.3-6.883 7.4 7.391-27.033 15.836-59.5 15.837-98.363 0-53.725-20.687-91.793-30.249-101.276 15.236 9.703 35.722 51.606 35.722 100.094z" data-name="Path 11438" opacity="0.35" transform="translate(-292.527 -47.562)"/>
                    </g>
                    <g id="prefix__Group_14965" data-name="Group 14965" transform="translate(70.525 143.456)">
                        <path id="prefix__Path_11439" d="M377.156 229.239l-14.162-26.124-3.744 2.162-6.508 41.069 6.143 4.966a45.869 45.869 0 0 1 16 25.969l4.066 18.78s1.786-11.938 3.744-26.391c1.752-12.944 1.705-27.884-5.539-40.431z" class="prefix__cls-19" data-name="Path 11439" transform="translate(-352.743 -203.115)"/>
                        <path id="prefix__Path_11440" d="M352.743 246.53l6.508-41.069 14.161 26.124c7.243 12.546 8.643 27 7.453 41.442l-1.915 23.218-4.066-18.78a45.869 45.869 0 0 0-16-25.969z" class="prefix__cls-18" data-name="Path 11440" transform="translate(-352.743 -203.299)"/>
                    </g>
                    <g id="prefix__Group_14966" data-name="Group 14966" transform="translate(.223 143.456)">
                        <path id="prefix__Path_11441" d="M282.957 229.239l14.162-26.124 3.744 2.162 6.508 41.069-6.143 4.966a45.87 45.87 0 0 0-16 25.969l-4.066 18.78s-1.786-11.938-3.744-26.391c-1.751-12.944-1.704-27.884 5.539-40.431z" class="prefix__cls-19" data-name="Path 11441" transform="translate(-276.466 -203.115)"/>
                        <path id="prefix__Path_11442" d="M307.575 246.53l-6.508-41.069-14.162 26.124c-7.243 12.546-8.643 27-7.453 41.442l1.915 23.218 4.066-18.78a45.87 45.87 0 0 1 16-25.969z" class="prefix__cls-18" data-name="Path 11442" transform="translate(-276.671 -203.299)"/>
                    </g>
                    <g id="prefix__Group_14967" data-name="Group 14967" transform="translate(32.335 56.86)">
                        <circle id="prefix__Ellipse_432" cx="17.149" cy="17.149" r="17.149" class="prefix__cls-18" data-name="Ellipse 432" transform="rotate(-85.269 18.563 17.09)"/>
                        <circle id="prefix__Ellipse_433" cx="13.628" cy="13.628" r="13.628" class="prefix__cls-3" data-name="Ellipse 433" transform="translate(4.877 4.877)"/>
                        <circle id="prefix__Ellipse_434" cx="13.628" cy="13.628" r="13.628" class="prefix__cls-24" data-name="Ellipse 434" transform="translate(4.877 4.877)"/>
                    </g>
                    <g id="prefix__Group_14968" data-name="Group 14968" transform="translate(38.611 104.233)">
                        <path id="prefix__Path_11443" d="M342.575 172.788a12.229 12.229 0 1 1-12.229-12.229 12.23 12.23 0 0 1 12.229 12.229z" class="prefix__cls-18" data-name="Path 11443" transform="translate(-318.117 -160.559)"/>
                        <circle id="prefix__Ellipse_435" cx="8.894" cy="8.894" r="8.894" class="prefix__cls-3" data-name="Ellipse 435" transform="rotate(-76.718 12.668 8.455)"/>
                        <circle id="prefix__Ellipse_436" cx="8.894" cy="8.894" r="8.894" class="prefix__cls-24" data-name="Ellipse 436" transform="rotate(-76.718 12.668 8.455)"/>
                    </g>
                </g>
            </g>
            <g id="prefix__Shine" transform="translate(44.003 9.851)">
                <g id="prefix__Group_14970" data-name="Group 14970" transform="translate(12.303 42.302)">
                    <path id="prefix__Path_11444" d="M272.69 108.871a.565.565 0 0 1-.586.5l-.549-.023a2.868 2.868 0 0 0-2.951 2.322l-.106.538a.566.566 0 0 1-1.121-.133l.023-.549a2.865 2.865 0 0 0-2.322-2.949l-.539-.107a.566.566 0 0 1-.453-.622.566.566 0 0 1 .587-.5l.548.024a2.868 2.868 0 0 0 2.95-2.323l.107-.539a.566.566 0 0 1 1.121.135l-.024.549a2.868 2.868 0 0 0 2.323 2.949l.538.106a.565.565 0 0 1 .453.621zm-4.476.945a3.987 3.987 0 0 1 1.63-1.284 3.98 3.98 0 0 1-1.283-1.63 3.976 3.976 0 0 1-1.63 1.284 3.981 3.981 0 0 1 1.283 1.629z" class="prefix__cls-3" data-name="Path 11444" transform="translate(-264.082 -104.053)"/>
                </g>
                <g id="prefix__Group_14971" data-name="Group 14971" transform="translate(0 12.555)">
                    <path id="prefix__Path_11445" d="M257.972 75.84a3.632 3.632 0 1 1-3.177-4.036 3.636 3.636 0 0 1 3.177 4.036zm-6.089-.726a2.5 2.5 0 1 0 2.778-2.186 2.5 2.5 0 0 0-2.778 2.186z" class="prefix__cls-3" data-name="Path 11445" transform="translate(-250.733 -71.778)"/>
                </g>
                <g id="prefix__Group_14976" data-name="Group 14976" transform="translate(31.564)">
                    <g id="prefix__Group_14972" data-name="Group 14972" transform="translate(0 2.752)">
                        <path id="prefix__Path_11446" d="M287.985 62a.566.566 0 0 1-.629.495l-1.877-.224a.566.566 0 0 1 .134-1.124l1.877.223a.567.567 0 0 1 .495.63z" class="prefix__cls-3" data-name="Path 11446" transform="translate(-284.98 -61.141)"/>
                    </g>
                    <g id="prefix__Group_14973" data-name="Group 14973" transform="translate(2.642 4.231)">
                        <path id="prefix__Path_11447" d="M289.2 63.379l-.224 1.878a.566.566 0 1 1-1.124-.135l.224-1.877a.566.566 0 0 1 1.124.134z" class="prefix__cls-3" data-name="Path 11447" transform="translate(-287.846 -62.746)"/>
                    </g>
                    <g id="prefix__Group_14974" data-name="Group 14974" transform="translate(4.23 3.256)">
                        <path id="prefix__Path_11448" d="M292.576 62.545a.567.567 0 0 1-.629.5l-1.877-.224a.566.566 0 1 1 .134-1.124l1.877.224a.566.566 0 0 1 .495.624z" class="prefix__cls-3" data-name="Path 11448" transform="translate(-289.57 -61.689)"/>
                    </g>
                    <g id="prefix__Group_14975" data-name="Group 14975" transform="translate(3.146)">
                        <path id="prefix__Path_11449" d="M289.745 58.789l-.224 1.877a.566.566 0 0 1-1.124-.134l.224-1.877a.566.566 0 1 1 1.124.135z" class="prefix__cls-3" data-name="Path 11449" transform="translate(-288.393 -58.156)"/>
                    </g>
                </g>
                <g id="prefix__Group_14977" data-name="Group 14977" transform="translate(126.843 46.608)">
                    <path id="prefix__Path_11450" d="M394.076 108.762l.02.008a.569.569 0 0 1 .312.7l-.179.521a2.865 2.865 0 0 0 1.383 3.489l.487.255a.567.567 0 0 1-.447 1.038l-.52-.179a2.863 2.863 0 0 0-3.489 1.383l-.255.486a.578.578 0 0 1-.726.257.568.568 0 0 1-.311-.7l.179-.519a2.866 2.866 0 0 0-1.383-3.49l-.487-.256a.567.567 0 0 1 .449-1.037l.519.18a2.867 2.867 0 0 0 3.489-1.384l.255-.487a.567.567 0 0 1 .704-.265zm-.35 4.568a3.96 3.96 0 0 1-.765-1.928 3.967 3.967 0 0 1-1.928.764 3.981 3.981 0 0 1 .765 1.929 3.965 3.965 0 0 1 1.928-.765z" class="prefix__cls-3" data-name="Path 11450" transform="translate(-388.356 -108.724)"/>
                </g>
                <g id="prefix__Group_14978" data-name="Group 14978" transform="translate(114.761 11.423)">
                    <path id="prefix__Path_11451" d="M380.192 70.794a3.632 3.632 0 1 1-3.294.341 3.613 3.613 0 0 1 3.294-.341zm-2.219 5.716a2.582 2.582 0 0 0 .388.115 2.5 2.5 0 0 0 2.614-3.808 2.5 2.5 0 1 0-3 3.693z" class="prefix__cls-3" data-name="Path 11451" transform="translate(-375.247 -70.549)"/>
                </g>
                <g id="prefix__Group_14983" data-name="Group 14983" transform="translate(144.426 18.831)">
                    <g id="prefix__Group_14979" data-name="Group 14979" transform="translate(3.945 3.224)">
                        <path id="prefix__Path_11452" d="M412.484 82.123h.01l1.75.714a.566.566 0 1 1-.428 1.048l-1.751-.713a.566.566 0 0 1 .418-1.053z" class="prefix__cls-3" data-name="Path 11452" transform="translate(-411.713 -82.085)"/>
                    </g>
                    <g id="prefix__Group_14980" data-name="Group 14980" transform="translate(3.326)">
                        <path id="prefix__Path_11453" d="M412.526 78.625h.01a.565.565 0 0 1 .311.738l-.714 1.75a.579.579 0 0 1-.738.31.565.565 0 0 1-.31-.738l.713-1.75a.567.567 0 0 1 .728-.31z" class="prefix__cls-3" data-name="Path 11453" transform="translate(-411.042 -78.587)"/>
                    </g>
                    <g id="prefix__Group_14981" data-name="Group 14981" transform="translate(0 1.614)">
                        <path id="prefix__Path_11454" d="M408.2 80.376h.01l1.75.714a.567.567 0 0 1 .31.738.581.581 0 0 1-.738.311l-1.75-.715a.566.566 0 0 1 .418-1.053z" class="prefix__cls-3" data-name="Path 11454" transform="translate(-407.433 -80.338)"/>
                    </g>
                    <g id="prefix__Group_14982" data-name="Group 14982" transform="translate(1.716 3.947)">
                        <path id="prefix__Path_11455" d="M410.78 82.907h.01a.567.567 0 0 1 .311.738l-.715 1.75a.566.566 0 0 1-1.048-.429l.714-1.749a.566.566 0 0 1 .728-.31z" class="prefix__cls-3" data-name="Path 11455" transform="translate(-409.295 -82.869)"/>
                    </g>
                </g>
            </g>
        </g>
        <g id="prefix__Character" transform="translate(3071.488 1614.527)">
            <g id="prefix__Character-2" data-name="Character">
                <g id="prefix__Group_14984" data-name="Group 14984" transform="translate(40.339 91.834)">
                    <path id="prefix__Path_11456" d="M166.7 419.206c.239.947.741 3.627 5.725 3.627s7.844-2.042 8.825-4.575.418-4.41.326-6.619 1.551-3.617 1.914-4.809c.535-1.759-.934-4.179-.934-4.179z" class="prefix__cls-25" data-name="Path 11456" transform="translate(-120.973 -290.649)"/>
                    <path id="prefix__Path_11457" d="M117.273 407.418a2.991 2.991 0 0 0 .434 2.371 10.338 10.338 0 0 0 8 1.74 19.062 19.062 0 0 0 8.212-3.676 11.035 11.035 0 0 1 6.369-2.167c2.369-.194 4.079-.8 4.23-1.435.264-1.109.23-1.8-.287-1.742z" class="prefix__cls-25" data-name="Path 11457" transform="translate(-117.094 -290.638)"/>
                    <path id="prefix__Path_11458" d="M181.127 397.869c0 4.544-8.7 5.373-8.484 1.714l-3.031-10.618 9.832-1.043z" class="prefix__cls-26" data-name="Path 11458" transform="translate(-121.201 -289.495)"/>
                    <path id="prefix__Path_11459" d="M166.735 416.513a28.533 28.533 0 0 1 1.88-2.995 24.427 24.427 0 0 0 3.3-13.677c-.017-.265-.053-.779.185-.971s.537-.009.834.074l.013-.015.006.02a5.163 5.163 0 0 0 1.569.188 28.533 28.533 0 0 0 4.061-.723c.342 0 .589 1.028.717 2.159.563-.475.658-1.275 1.15-1.8.265-.285.4-.311.335-.711-.04-.261-.089-.493-.127-.754.426-.192 1.034 1.463 1.579 2.713.63 1.449 1.392 3.077 1.008 4.689a13.134 13.134 0 0 1-1.054 2.553 9.87 9.87 0 0 0-1.181 4.572c.028.7.177 1.385.172 2.082a6.112 6.112 0 0 1-3.585 5.556c-2.855 1.342-7.354 1.813-10.269.088-1.017-.605-.916-2.185-.593-3.048z" class="prefix__cls-27" data-name="Path 11459" transform="translate(-120.958 -290.229)"/>
                    <path id="prefix__Path_11460" d="M143.264 393.433a7.123 7.123 0 0 1-7.942.527l-1.456-15.492h10.64z" class="prefix__cls-26" data-name="Path 11460" transform="translate(-118.401 -288.755)"/>
                    <path id="prefix__Path_11461" d="M165.851 281.539c1.964 18.027 4.572 57.128 4.572 57.128a44.232 44.232 0 0 1 4.105 14.12c1.422 10.738 3.093 32.818 3.093 32.818s-5.023 3.265-9.908 1.687c0 0-11.176-33.9-13.406-44.473-1.946-9.227-5.391-31.478-5.391-31.478l-4.309 29.09A40.31 40.31 0 0 1 146 353c-.207 4.967-2.163 25.605-2.163 25.605-1.618 1.529-7.835 1.736-9.91.413 0 0-2.984-33.264-3.419-38.482-.573-6.863-1.634-59.4-1.634-59.4z" class="prefix__cls-25" data-name="Path 11461" transform="translate(-118.01 -281.131)"/>
                    <path id="prefix__Path_11462" d="M149.632 312.6l-2.406-11.089a26.212 26.212 0 0 1-9.217-4.307s1.407 3.538 7.3 6.245l2.457 10.388-2.113 26.088z" data-name="Path 11462" transform="translate(-118.726 -282.39)"/>
                    <path id="prefix__Path_11463" d="M119.108 403.308a50.79 50.79 0 0 0 10.077-5.942 21.313 21.313 0 0 0 1.578-1.44c.945-1.124 1.383-3.437 1.807-3.733.137-.1.353-.012.664.147a.73.73 0 0 1 .5-.282l.065.575a6.741 6.741 0 0 0 2.864.778c2.514.105 2.571-.4 2.718.4a5.766 5.766 0 0 1 .064.9c1.312-.282 2.553-.678 2.586-1.182l.147-1.781c1.312-.182 1.229 2.263 1.786 4.89.452 2.126 1.04 3.654.525 5.258-1.911 1.835-5.444 1.58-7.431 2.006-2.809.6-4.034 2.76-7.907 4.31-6.243 2.5-10.372.154-11.614-.894-.856-1.363-.571-2.995 1.571-4.01z" class="prefix__cls-27" data-name="Path 11463" transform="translate(-117.087 -289.795)"/>
                </g>
                <g id="prefix__Group_14985" data-name="Group 14985" transform="translate(0 37.552)">
                    <path id="prefix__Path_11464" d="M118.23 232.754c-6.175 5.818-12.888 13.378-12.888 13.378a129.6 129.6 0 0 1-13.821-7.219 8.375 8.375 0 0 1-2.544-2.277 13.165 13.165 0 0 1-.907-3.215 24.3 24.3 0 0 0-1.689-5.067 7.83 7.83 0 0 0-5.156-3.663 12.716 12.716 0 0 1-2.53-.62 4.627 4.627 0 0 1-1.441-1.082 2.375 2.375 0 0 0-.833-.7c-.55-.206-.816.171-.936.626a3.418 3.418 0 0 0 .17 2.039 22.406 22.406 0 0 0 1.648 2.91 10.891 10.891 0 0 1 1.508 5.23c-.014.352-.15 1.078-.59.6a14.753 14.753 0 0 0-1.774-1.808 3.043 3.043 0 0 0-2.36-.7 1.044 1.044 0 0 0-.655.358c-.214.291-.076.49.1.717a6.961 6.961 0 0 1 .473.771c.311.541.622 1.082.94 1.618 1.856 3.132 4.024 6.263 7.256 8.1.469.267.947.519 1.428.765 2.059 1.052 5.723 4.035 8.631 6.154a97.541 97.541 0 0 0 8.58 5.248c4.159 2.313 5.991 2.3 6.952 2.024a18.138 18.138 0 0 0 3.85-2.192c4.187-2.67 19.753-16.1 19.753-16.1l3.315-14.8c-5.647-.372-8.024.94-16.48 8.905z" class="prefix__cls-26" data-name="Path 11464" transform="translate(-73.321 -222.236)"/>
                    <path id="prefix__Path_11465" d="M136.156 223.756c-3.669-.472-7.309-.022-12.1 4.2-6.129 5.406-17.4 17.751-17.4 17.751s-5.33-2.457-11.1-5.466c-.737.053-2.518 1.488-3.324 3.282a8.886 8.886 0 0 0-.83 5s8.086 5.49 13.15 8.058c4.383 2.222 5.889.777 9.2-1.257s18.672-13.167 18.672-13.167z" class="prefix__cls-27" data-name="Path 11465" transform="translate(-74.731 -222.343)"/>
                    <path id="prefix__Path_11466" d="M107.71 247.535a11.2 11.2 0 0 0-2.905 5.081s-.56-3.478 1.588-5.7z" class="prefix__cls-28" data-name="Path 11466" transform="translate(-75.781 -224.169)"/>
                </g>
                <g id="prefix__Group_14986" data-name="Group 14986" transform="translate(50.969 38.82)">
                    <path id="prefix__Path_11467" d="M150.518 224.376c5.036.765 10.8 1.165 14.328 1.647 3.855.526 3.93 2.971 3.61 9.567-.458 9.437-2.934 20.281-3.346 28.274l1.351 16.557c-4.518 4.832-26.162 6.946-37.7-.136 0 0-.31-34.591 0-40.145.547-9.773 6.195-16.022 9.8-16.3-.003.001 3.298-.778 11.957.536z" class="prefix__cls-28" data-name="Path 11467" transform="translate(-128.621 -223.611)"/>
                </g>
                <g id="prefix__Group_14987" data-name="Group 14987" transform="translate(59.204 45.464)">
                    <path id="prefix__Path_11468" d="M144.481 236.434c.081 2.275 1.1 29.212 1.471 31.812s-2.934 6.623-3.84 6.561-4.157-3.182-4.556-6.07c.228-3.565 3.036-28.744 4.68-32.573z" class="prefix__cls-3" data-name="Path 11468" transform="translate(-137.556 -231.239)"/>
                    <path id="prefix__Path_11469" d="M142.5 236.476c.041-.109.083-.216.124-.312l2.244.27c.006.19.02.484.039.853a4.292 4.292 0 0 1-2.407-.811z" class="prefix__cls-22" data-name="Path 11469" transform="translate(-137.943 -231.239)"/>
                    <path id="prefix__Path_11470" d="M145.952 231.119a8.808 8.808 0 0 1-3.37-.3 12.5 12.5 0 0 0-.876 2.468 6.8 6.8 0 0 0 .854 2.457 2.7 2.7 0 0 0 2.244.27 8.645 8.645 0 0 0 1.953-1.837 15.824 15.824 0 0 0-.805-3.058z" class="prefix__cls-3" data-name="Path 11470" transform="translate(-137.881 -230.82)"/>
                </g>
                <g id="prefix__Group_14990" data-name="Group 14990" transform="translate(56.311)">
                    <g id="prefix__Group_14988" data-name="Group 14988">
                        <path id="prefix__Path_11471" d="M140.408 191.448s-2.761.384-3.774 2.465c-.88 1.81-.561 6.18.612 10.942a43.951 43.951 0 0 0 2.97 8.949 3.635 3.635 0 0 0 2.108 1.688l-.138-5.651-.2-3.937s2.527-3.451 2.8-6.28c.358-3.641-.408-5.13-.408-5.13z" class="prefix__cls-25" data-name="Path 11471" transform="translate(-134.551 -182.272)"/>
                        <path id="prefix__Path_11472" d="M139.737 191.929l-3.892-1.781a2.282 2.282 0 0 1 2.947-1.208 2.2 2.2 0 0 1 .945 2.989z" class="prefix__cls-25" data-name="Path 11472" transform="translate(-134.529 -182.062)"/>
                        <path id="prefix__Path_11473" d="M148.812 196.32a9.285 9.285 0 1 0 9.255-9.314 9.285 9.285 0 0 0-9.255 9.314z" class="prefix__cls-25" data-name="Path 11473" transform="translate(-135.545 -181.924)"/>
                        <path id="prefix__Path_11474" d="M142 205.248c-.949.824-1.723-1.308-2.522-2.138s-3.4-1.961-4.691.776c-1.312 2.789 1.193 6.578 3.139 7.481a3.025 3.025 0 0 0 4.13-1.553l.251 9.747c-1.931 4.36.419 5.975 1.361 8.446.558-2.193 6.559-.841 10.174-5.842l.014-3.857a22.192 22.192 0 0 0 4.72.213c2.593-.409 3.948-2.365 4.726-5.176 1.249-4.514 1.751-12.1.016-20.867-2.905-2.246-12.976-1.875-19.07 1.989.441 7.774-1.304 9.958-2.248 10.781z" class="prefix__cls-26" data-name="Path 11474" transform="translate(-134.417 -182.245)"/>
                        <path id="prefix__Path_11475" d="M165.179 185.518a.478.478 0 0 0-.377-.291.612.612 0 0 0-.355.155 16.871 16.871 0 0 1-2.31 1.556 8.337 8.337 0 0 0 .04-3.152c-.114-.64-.3-2.12-1.087-2.278-.472-.094-.882.3-1.233.629-3.171 2.967-7.31 1.594-11.13 1.716-3.195.1-7.05 1.4-8.492 4.508-.66 1.421-.773 2.919.531 3.9a9 9 0 0 0 3.895 1.453c6.364 1.108 15.485 3.725 20.19-2.208a4.689 4.689 0 0 0 .985-3.113 6.421 6.421 0 0 0-.639-2.838z" class="prefix__cls-25" data-name="Path 11475" transform="translate(-134.835 -181.493)"/>
                        <path id="prefix__Path_11476" d="M154.6 220.195s-5.831-1.162-7.859-2.232a6.671 6.671 0 0 1-2.808-2.759 9.133 9.133 0 0 0 1.6 3.261c1.487 1.888 9.035 3.257 9.035 3.257z" class="prefix__cls-29" data-name="Path 11476" transform="translate(-135.162 -184.133)"/>
                    </g>
                    <g id="prefix__Group_14989" data-name="Group 14989" transform="translate(14.891 15.709)">
                        <path id="prefix__Path_11477" d="M153.79 204.443a1.161 1.161 0 1 1-1.164-1.206 1.179 1.179 0 0 1 1.164 1.206z" class="prefix__cls-25" data-name="Path 11477" transform="translate(-150.643 -198.904)"/>
                        <path id="prefix__Path_11478" d="M153.274 199.774l-2.587 1.161a1.489 1.489 0 0 1 .739-1.923 1.384 1.384 0 0 1 1.848.762z" class="prefix__cls-25" data-name="Path 11478" transform="translate(-150.573 -198.564)"/>
                        <path id="prefix__Path_11479" fill="#b16668" d="M154.441 212.481l3.705 1.376a1.943 1.943 0 0 1-2.51 1.235 2.07 2.07 0 0 1-1.195-2.611z" data-name="Path 11479" transform="translate(-150.867 -199.629)"/>
                        <path id="prefix__Path_11480" d="M155.64 215.174a1.884 1.884 0 0 0 1.025.076 1.8 1.8 0 0 0-1.791-1.72 1.773 1.773 0 0 0-.5.08 2.023 2.023 0 0 0 1.266 1.564z" class="prefix__cls-29" data-name="Path 11480" transform="translate(-150.871 -199.711)"/>
                        <path id="prefix__Path_11481" d="M165.243 200.488l-2.68-.99a1.37 1.37 0 0 1 1.788-.875 1.5 1.5 0 0 1 .892 1.865z" class="prefix__cls-25" data-name="Path 11481" transform="translate(-151.512 -198.536)"/>
                        <path id="prefix__Path_11482" d="M164.184 204.024a1.161 1.161 0 1 1-1.165-1.206 1.179 1.179 0 0 1 1.165 1.206z" class="prefix__cls-25" data-name="Path 11482" transform="translate(-151.458 -198.872)"/>
                        <path id="prefix__Path_11483" d="M158.1 202.983l.427 7.389 3.64-1.254z" class="prefix__cls-29" data-name="Path 11483" transform="translate(-151.163 -198.885)"/>
                    </g>
                </g>
                <g id="prefix__Group_14991" data-name="Group 14991" transform="translate(61.025 36.345)">
                    <path id="prefix__Path_11484" d="M154.634 220.926c.734.055 1.063.166 1.661 1.362.682 1.363 1.27 2.609 1.27 2.609a8.209 8.209 0 0 1-2.487 5.285c-2.462 2.5-7.92 4.189-7.92 4.189s-.454-2.523-.8-3.561c-.761-2.268-1.906-.466-1.906-.466a2.626 2.626 0 0 1 .622-1.343c.487-.434 3.611-.7 6.1-2.271a9.118 9.118 0 0 0 3.423-4.34z" class="prefix__cls-27" data-name="Path 11484" transform="translate(-139.917 -220.926)"/>
                    <path id="prefix__Path_11485" d="M144.064 230.426a2.571 2.571 0 0 0-.661-2 4.871 4.871 0 0 1-.705-3.037c-.008-1.051 0-3.407 0-3.407a2.063 2.063 0 0 0-2 1.571 12.962 12.962 0 0 0-1.06 6.631c.438 2.625 1.567 3.5 1.567 3.5s.649-2.219 1.055-3.245 1.193-1.3 1.804-.013z" class="prefix__cls-27" data-name="Path 11485" transform="translate(-139.532 -221.009)"/>
                </g>
                <path id="prefix__Path_11486" d="M227.272 229.132a2.25 2.25 0 0 0-.186-.474c-.5-.928-1.575-.754-2.407-.392a23.123 23.123 0 0 0-2.31 1.546 27.786 27.786 0 0 1-5.585 3.179 2.546 2.546 0 0 1-1.97.249 4.594 4.594 0 0 1 .591-1.674 8.3 8.3 0 0 0 .736-1.617 2.251 2.251 0 0 0-.147-1.736.752.752 0 0 0-.815-.419.994.994 0 0 0-.358.27c-.6.61-1.183 1.23-1.788 1.83a11.826 11.826 0 0 0-1.385 1.865c-.611.909-1.057 1.794-1.573 2.742a20.352 20.352 0 0 1-3.74 5.153c-1.846 1.761-11.218 9.624-12.984 11.164 0 0-10.387-11.561-13.613-15.438-6.013-7.223-8.411-8.8-12.22-9.217l1.329 19.445s16.236 14.117 19.709 16.56c4.3 3.243 6 2.729 7.826.955 1.768-1.719 4.843-4.84 6.447-6.725 2.4-2.822 4.778-5.668 7.235-8.437.619-.7 1.242-1.386 1.883-2.047a11.185 11.185 0 0 1 2.962-2.529c1.635-.918 3.653-1.054 5.369-1.844a17.361 17.361 0 0 0 4.718-3.2 8.515 8.515 0 0 0 2.284-3.258 11.282 11.282 0 0 0 .141-5.1 5.944 5.944 0 0 0-.149-.851z" class="prefix__cls-26" data-name="Path 11486" transform="translate(-80.699 -184.992)"/>
                <path id="prefix__Path_11487" d="M165.986 226.01c3.2.377 5.67.407 9.573 4.433 4.241 4.374 17.454 19.736 17.454 19.736l10.271-8.137a6.979 6.979 0 0 0 1.877 4.007 8.207 8.207 0 0 0 4.079 2.513s-9.807 12.051-13.049 14.713c-2.981 2.447-4.1 2.151-7.375-.091-3.767-2.576-20.252-16.583-20.252-16.583s-8.431-10.308-2.578-20.591z" class="prefix__cls-27" data-name="Path 11487" transform="translate(-80.417 -184.979)"/>
                <path id="prefix__Path_11488" d="M195.085 252.123a17.422 17.422 0 0 0-4.7 6.627 10.089 10.089 0 0 1 3.583-7.923z" class="prefix__cls-28" data-name="Path 11488" transform="translate(-82.488 -186.923)"/>
            </g>
        </g>
    </g>
</svg>
