<svg xmlns="http://www.w3.org/2000/svg" id="prefix__php-logo" width="76.228" height="38.302" viewBox="0 0 76.228 38.302">
    <defs>
        <style>
            .prefix__cls-1{fill:#a5adc0}
        </style>
    </defs>
    <path id="prefix__Path_9203" d="M6.032 10.123h11.3q4.977.042 7.213 2.868t1.476 7.719a14.806 14.806 0 0 1-1.302 4.39 13.041 13.041 0 0 1-2.7 3.881 9.423 9.423 0 0 1-4.514 2.784 20.781 20.781 0 0 1-4.978.591H7.466l-1.6 8.015H0l6.032-30.248m4.935 4.809l-2.53 12.655a3.1 3.1 0 0 0 .506.042h.591a22.181 22.181 0 0 0 6.749-.8q2.7-.886 3.628-6.159.759-4.429-1.519-5.1a18.928 18.928 0 0 0-5.61-.633q-.506.042-.97.042h-.886l.042-.042" class="prefix__cls-1" data-name="Path 9203" transform="translate(0 -2.066)"/>
    <path id="prefix__Path_9204" d="M39.535 0h5.821l-1.645 8.057h5.231q4.3.085 6.412 1.772 2.151 1.687 1.265 6.412l-2.826 14.046h-5.906l2.7-13.414a3.806 3.806 0 0 0-.253-2.995q-.675-.886-2.911-.886l-4.682-.042-3.459 17.337h-5.821L39.535 0" class="prefix__cls-1" data-name="Path 9204" transform="translate(-6.829)"/>
    <path id="prefix__Path_9205" d="M68.865 10.123h11.3q4.977.042 7.213 2.868t1.476 7.719a14.806 14.806 0 0 1-1.302 4.39 13.041 13.041 0 0 1-2.7 3.881 9.423 9.423 0 0 1-4.514 2.784 20.781 20.781 0 0 1-4.978.591H70.3l-1.6 8.015h-5.867l6.032-30.245m4.935 4.806l-2.53 12.655a3.1 3.1 0 0 0 .506.042h.591a22.181 22.181 0 0 0 6.749-.8q2.7-.886 3.628-6.159.759-4.429-1.519-5.1a18.928 18.928 0 0 0-5.61-.633q-.506.042-.97.042h-.886l.042-.042" class="prefix__cls-1" data-name="Path 9205" transform="translate(-12.824 -2.066)"/>
</svg>
