<svg id="Layer_1" data-name="Layer 1" xmlns="http://www.w3.org/2000/svg" xmlns:xlink="http://www.w3.org/1999/xlink" viewBox="0 0 839.24 255.06"><defs><style>.cls-1{fill:none;}.cls-2{clip-path:url(#clip-path);}.cls-3{fill:#42b580;}.cls-4{clip-path:url(#clip-path-2);}.cls-5{fill:#1e2a34;}</style><clipPath id="clip-path"><rect class="cls-1" x="45.48" y="44.86" width="196.35" height="165.33"/></clipPath><clipPath id="clip-path-2"><rect class="cls-1" x="272.06" y="114.4" width="521.69" height="95.79"/></clipPath></defs><title>PropLogix</title><g id="Group_7" data-name="Group 7"><g id="Group_3" data-name="Group 3"><path id="Clip_2-2" data-name="Clip 2-2" class="cls-1" d="M45.48,44.86H241.83V210.19H45.48Z"/><g class="cls-2"><g id="Group_3-2" data-name="Group 3-2"><path id="Fill_1" data-name="Fill 1" class="cls-3" d="M107.15,170.52v2.38a4.58,4.58,0,0,1-4.57,4.57H77.22a4.56,4.56,0,0,1-4.56-4.55h0c0-2.87,0-5.7,0-8.53,0-7,.07-14,0-21H50.05a4.58,4.58,0,0,1-3.23-7.8l86.37-86.39a14.84,14.84,0,0,1,21,.06l0,0,86.24,86.24a4.58,4.58,0,0,1-3.21,7.84H214.62c-.24,16.39-.16,27-.08,39.55.05,6.53.09,13.6.11,22.3,0,.13,0,.27,0,.41a4.57,4.57,0,0,1-4.58,4.57H118.6a4.58,4.58,0,0,1-4.58-4.57V147.84a30.1,30.1,0,0,1,.2-3.29,28.8,28.8,0,0,1,1.91-7.58,30.34,30.34,0,0,1,2-4.05,29,29,0,0,1,2.12-3.12,29.51,29.51,0,0,1,41.37-5.47,28.76,28.76,0,0,1,2.7,2.35,2.11,2.11,0,0,1,.27.25,30.31,30.31,0,0,1,4.63,6,29.93,29.93,0,0,1,2,4.06,29,29,0,0,1,1.35,4.3,30.18,30.18,0,0,1,.56,3.27,29.69,29.69,0,0,1-29.44,32.93H137a4.58,4.58,0,0,1-4.57-4.58v-2.38a4.56,4.56,0,0,1,4.55-4.6h6.67a18,18,0,0,0,6.9-1.36,18.3,18.3,0,0,0,9.82-9.82,18,18,0,0,0,1.38-6.91,18.43,18.43,0,0,0-.22-2.88,18.71,18.71,0,0,0-2.46-6.59,18.42,18.42,0,0,0-2.42-3.13l-.32-.31h0a18,18,0,0,0-19.54-3.87,18.13,18.13,0,0,0-5.86,3.89l-.09.08a18.31,18.31,0,0,0-4.3,6.81l-.09.31a16.74,16.74,0,0,0-.91,5.66v51h77.81V136.63a4.57,4.57,0,0,1,4.58-4.57H221l-72.6-72.61a6.6,6.6,0,0,0-9.15-.36L68.79,129.56l-2.5,2.5H79.37A4.58,4.58,0,0,1,84,136.63h0v29.29h18.63a4.58,4.58,0,0,1,4.58,4.58"/></g></g></g><g id="Group_6" data-name="Group 6"><path id="Clip_5-2" data-name="Clip 5-2" class="cls-1" d="M272.06,114.4h521.7v95.79H272.06Z"/><g class="cls-4"><g id="Group_6-2" data-name="Group 6-2"><path id="Fill_4" data-name="Fill 4" class="cls-5" d="M668.84,210.19a51.48,51.48,0,0,1-24.07-5.68l5.28-11.58a35.65,35.65,0,0,0,18.38,5,16.33,16.33,0,0,0,11.73-3.74,14.8,14.8,0,0,0,3.8-11.07v-2.64a21.15,21.15,0,0,1-17.78,8.84,24,24,0,0,1-16.85-6.64A25.44,25.44,0,0,1,642,163.89v-.2a25.37,25.37,0,0,1,7.4-18.79,24,24,0,0,1,16.77-6.6,22.09,22.09,0,0,1,17.57,8.11v-7.1h15.47v42.14c0,10.18-2.49,17.4-7.6,22.07C686.67,208,679.23,210.19,668.84,210.19Zm1.82-59.1a12.48,12.48,0,0,0-13.18,11.74c0,.28,0,.57,0,.85v.21a13.27,13.27,0,0,0,26.51,0v-.21a12.54,12.54,0,0,0-12.46-12.61C671.23,151.07,671,151.07,670.66,151.09ZM462.08,210H446.63V139.31h15.45v7.82a20,20,0,0,1,17-8.84,23.68,23.68,0,0,1,17.16,7.25,29.29,29.29,0,0,1,7.63,20.88v.21a29.35,29.35,0,0,1-7.56,20.88,23.64,23.64,0,0,1-17.22,7.25,20.81,20.81,0,0,1-17-8.11V210Zm13-58.6c-7.53,0-13.2,6.47-13.2,15v.21c0,8.57,5.67,15,13.2,15,7.71,0,13.3-6.32,13.3-15v-.21c0-8.56-5.73-15-13.31-15ZM603.74,195a29.9,29.9,0,0,1-21-8.2,27.52,27.52,0,0,1-8.35-19.94v-.2a27.69,27.69,0,0,1,8.42-20,31,31,0,0,1,42.13-.1,27.51,27.51,0,0,1,8.35,19.92v.21a27.72,27.72,0,0,1-8.43,20A30,30,0,0,1,603.74,195Zm0-43.37a13.86,13.86,0,0,0-14.15,13.56q0,.63,0,1.26v.21a14.52,14.52,0,0,0,14,15h.3a13.86,13.86,0,0,0,14.15-13.56c0-.42,0-.84,0-1.27v-.2a14.54,14.54,0,0,0-14-15h-.29ZM405.92,195a29.9,29.9,0,0,1-21-8.2,27.52,27.52,0,0,1-8.36-19.94v-.2a27.74,27.74,0,0,1,8.43-20,31,31,0,0,1,42.12-.1,27.51,27.51,0,0,1,8.35,19.92v.21a27.67,27.67,0,0,1-8.42,20A30,30,0,0,1,405.92,195Zm0-43.37a13.86,13.86,0,0,0-14.15,13.56c0,.42,0,.84,0,1.26v.21a14.54,14.54,0,0,0,14,15h.29a13.85,13.85,0,0,0,14.14-13.57q0-.63,0-1.26v-.2a14.54,14.54,0,0,0-14-15h-.28Zm349.34,42.15H739.11l19.09-27.62-18.38-26.81h16.55l10.16,15.84,10.26-15.84h16.14l-18.38,26.52,19.19,27.92H777.2l-11-16.95-11,16.95Zm-26.1,0H713.72V139.31h15.45v54.43Zm-161.27,0H516.81V122.65h15.64v56.88h35.44v14.21Zm-214.18,0H338.27V139.31h15.44v11c3.43-8.19,8.62-12,16.32-12,.34,0,.69,0,1,0v16.14h-.81c-10.67,0-16.55,6.82-16.55,19.2v20.1Zm-66,0H272.06V122.65h29.05c16.53,0,27.21,9.65,27.21,24.58v.2a23,23,0,0,1-8.39,18.66,31.87,31.87,0,0,1-20.35,6.32H287.7v21.33Zm0-57v21.74h12.39c7.41,0,12.39-4.33,12.39-10.77v-.21c0-6.83-4.63-10.76-12.7-10.76Zm433.74-4h0a9.2,9.2,0,1,1,9.2-9.2h0A9.21,9.21,0,0,1,721.44,132.81Z"/></g></g></g></g></svg>