<svg xmlns="http://www.w3.org/2000/svg" width="162.979" height="47.302" viewBox="0 0 162.979 47.302">
    <defs>
        <style>
            .prefix__cls-1{fill:#a5adc0}
        </style>
    </defs>
    <g id="prefix__g2303" transform="translate(-5.591 -3.262)">
        <path id="prefix__path46" d="M160.9 43.263q0-7.5-4.276-7.705a8.032 8.032 0 0 0-3.319.545 4.873 4.873 0 0 0-1.743.92v11.931a8.471 8.471 0 0 0 4.855 1.593q4.478-.296 4.483-7.284zm3.516.207a10.6 10.6 0 0 1-1.793 6.323 6.613 6.613 0 0 1-5.551 2.928 9.846 9.846 0 0 1-5.51-1.673v10.844L148.5 60.8V36.732a6.831 6.831 0 0 1 1.93-1.593 13.249 13.249 0 0 1 6.635-1.633l.043.043a6.086 6.086 0 0 1 5.5 2.928 12.443 12.443 0 0 1 1.805 6.994z" class="prefix__cls-1" transform="translate(-93.855 -19.863)"/>
        <path id="prefix__path48" d="M219.9 50.587q0 5.109-1.024 7.076a7.215 7.215 0 0 1-3.918 3.138 15 15 0 0 1-5.065 1.007l-.505-1.927a24.338 24.338 0 0 0 3.894-.753 5.147 5.147 0 0 0 3.058-2.3 11.553 11.553 0 0 0 .669-4.815v-.8a15.712 15.712 0 0 1-6.574 1.422 6.044 6.044 0 0 1-3.978-1.422 4.838 4.838 0 0 1-1.927-3.935V34.554l3.058-1.047v12.811a3.893 3.893 0 0 0 1.325 3.162 5.007 5.007 0 0 0 3.429 1.067 8.576 8.576 0 0 0 4.5-1.633V33.969h3.058z" class="prefix__cls-1" transform="translate(-130.649 -19.863)"/>
        <path id="prefix__path50" d="M267.657 41.582c-.365.03-.7.043-1.007.043a6.019 6.019 0 0 1-4.042-1.238 4.278 4.278 0 0 1-1.442-3.423V24.92h-2.094V23h2.094v-5.112l3.055-1.087V23h3.436v1.92h-3.436v11.962a2.9 2.9 0 0 0 .923 2.436 4.669 4.669 0 0 0 2.513.673z" class="prefix__cls-1" transform="translate(-166.471 -8.891)"/>
        <path id="prefix__path52" d="M309.5 32.44h-3.058v-11.8a5.58 5.58 0 0 0-.84-3.1 3.056 3.056 0 0 0-2.693-1.465q-2.1 0-5.26 2.218V32.44h-3.059V4.225l3.058-.964v12.852a10.655 10.655 0 0 1 6.407-2.135 5.107 5.107 0 0 1 3.935 1.633 5.75 5.75 0 0 1 1.509 4.062V32.44z" class="prefix__cls-1" transform="translate(-189.798)"/>
        <path id="prefix__path54" d="M359.654 42.781a9.4 9.4 0 0 0-1.091-4.761 4.566 4.566 0 0 0-4.018-2.419q-5.029.291-5.025 7.2a11.844 11.844 0 0 0 1.051 5.29 4.224 4.224 0 0 0 4.035 2.663q5.048-.04 5.048-7.973zM363 42.8a10.878 10.878 0 0 1-2.094 6.825 7.533 7.533 0 0 1-6.364 3.055 7.382 7.382 0 0 1-6.283-3.055 11.023 11.023 0 0 1-2.049-6.825 9.744 9.744 0 0 1 2.218-6.491 7.643 7.643 0 0 1 6.156-2.8 7.771 7.771 0 0 1 6.2 2.8A9.744 9.744 0 0 1 363 42.8z" class="prefix__cls-1" transform="translate(-223.699 -19.863)"/>
        <path id="prefix__path56" d="M417.918 52.3h-3.058V39.83a4.172 4.172 0 0 0-1.235-3.205 4.484 4.484 0 0 0-3.289-1.107 7.351 7.351 0 0 0-4.145 1.422V52.3h-3.058V36.562a15.063 15.063 0 0 1 4.858-2.509 14.821 14.821 0 0 1 3.687-.545 9.574 9.574 0 0 1 2.051.211 5.9 5.9 0 0 1 2.931 1.549 4.1 4.1 0 0 1 1.258 3.015z" class="prefix__cls-1" transform="translate(-261.083 -19.863)"/>
        <path id="prefix__path1948" d="M24.443 6.4a26.28 26.28 0 0 0-4.4.375c-3.895.688-4.6 2.128-4.6 4.784v3.508h9.2v1.169H11.989a5.746 5.746 0 0 0-5.75 4.664 17.2 17.2 0 0 0 0 9.354c.654 2.725 2.217 4.666 4.891 4.666h3.17v-4.2A5.849 5.849 0 0 1 20.045 25h9.193a4.637 4.637 0 0 0 4.6-4.677v-8.766c0-2.494-2.1-4.368-4.6-4.784a28.706 28.706 0 0 0-4.795-.373zm-4.978 2.819a1.754 1.754 0 1 1-1.727 1.759 1.746 1.746 0 0 1 1.727-1.759z" class="prefix__cls-1" transform="translate(0 -2.059)"/>
        <path id="prefix__path1950" fill="#9099b1" d="M53.836 35.054v4.087a5.9 5.9 0 0 1-5.75 5.835h-9.193a4.7 4.7 0 0 0-4.6 4.677v8.764c0 2.494 2.169 3.961 4.6 4.677a15.4 15.4 0 0 0 9.193 0c2.317-.671 4.6-2.021 4.6-4.677V54.91h-9.191v-1.17H57.29c2.675 0 3.672-1.866 4.6-4.666.961-2.883.92-5.655 0-9.354-.661-2.663-1.924-4.666-4.6-4.666zm-5.17 22.194A1.754 1.754 0 1 1 46.938 59a1.737 1.737 0 0 1 1.727-1.752z" transform="translate(-18.849 -20.88)"/>
        <path id="prefix__text3004" d="M461.124 19.709h.536v-3.363h1.27v-.4h-3.076v.4h1.27v3.363m2.282 0h.458v-3.071l.994 3.071h.51l1.036-3.06v3.061h.5v-3.765h-.661l-1.132 3.224-.966-3.224h-.739v3.763" class="prefix__cls-1" transform="translate(-298.334 -8.33)"/>
        <path id="prefix__path1894" fill="#a5adc0" d="M33.895 102.512c0 1.321-5.522 2.392-12.334 2.392s-12.334-1.071-12.334-2.392 5.522-2.392 12.334-2.392 12.334 1.071 12.334 2.392z" opacity="0.444" transform="translate(3.19 -54.34)"/>
    </g>
</svg>
