<svg xmlns="http://www.w3.org/2000/svg" width="41.574" height="42.033" viewBox="0 0 41.574 42.033">
  <g id="Group_14505" data-name="Group 14505" transform="translate(-93 -3302.135)">
    <path id="path1948" d="M26.131,6.4a28.633,28.633,0,0,0-4.792.409c-4.243.75-5.014,2.319-5.014,5.213v3.822H26.353v1.274H12.562A6.261,6.261,0,0,0,6.3,22.2a18.744,18.744,0,0,0,0,10.191c.713,2.969,2.415,5.084,5.329,5.084h3.448V32.892a6.372,6.372,0,0,1,6.264-6.229H31.355a5.052,5.052,0,0,0,5.014-5.1V12.019c0-2.718-2.293-4.759-5.014-5.213A31.277,31.277,0,0,0,26.131,6.4ZM20.708,9.471a1.911,1.911,0,1,1-1.882,1.917A1.9,1.9,0,0,1,20.708,9.471Z" transform="translate(87.408 3295.738)" fill="#a5adc0"/>
    <path id="path1950" d="M55.586,35.054v4.453a6.432,6.432,0,0,1-6.264,6.358H39.305a5.115,5.115,0,0,0-5.014,5.1v9.549c0,2.718,2.363,4.316,5.014,5.1a16.777,16.777,0,0,0,10.016,0c2.525-.731,5.014-2.2,5.014-5.1V56.687H44.319V55.413h15.03c2.914,0,4-2.033,5.014-5.084,1.047-3.141,1-6.162,0-10.191-.72-2.9-2.1-5.084-5.014-5.084ZM49.952,59.235a1.911,1.911,0,1,1-1.882,1.905A1.893,1.893,0,0,1,49.952,59.235Z" transform="translate(69.442 3277.799)" fill="#8e97ad"/>
  </g>
</svg>
