<svg xmlns="http://www.w3.org/2000/svg" width="53.116" height="47.302" viewBox="0 0 53.116 47.302">
    <defs>
        <style>
            .prefix__cls-1{fill:#a5adc0}
        </style>
    </defs>
    <g id="prefix__React-icon" transform="translate(-175.7 -78)">
        <path id="prefix__Path_9270" d="M228.816 101.656c0-3.519-4.406-6.853-11.162-8.921 1.559-6.886.866-12.364-2.187-14.118a4.747 4.747 0 0 0-2.425-.606v2.414a2.507 2.507 0 0 1 1.234.281c1.472.844 2.111 4.06 1.613 8.2-.119 1.018-.314 2.09-.552 3.183a52.468 52.468 0 0 0-6.875-1.18 52.812 52.812 0 0 0-4.5-5.413c3.53-3.28 6.842-5.078 9.094-5.078V78c-2.977 0-6.875 2.122-10.816 5.8-3.941-3.659-7.839-5.76-10.816-5.76v2.414c2.241 0 5.565 1.786 9.094 5.045a51.136 51.136 0 0 0-4.471 5.4 50.559 50.559 0 0 0-6.886 1.191c-.249-1.083-.433-2.133-.563-3.14-.509-4.136.119-7.351 1.581-8.207a2.409 2.409 0 0 1 1.245-.282v-2.407a4.827 4.827 0 0 0-2.447.606c-3.042 1.754-3.724 7.221-2.155 14.086-6.734 2.079-11.119 5.4-11.119 8.91s4.406 6.853 11.162 8.921c-1.559 6.886-.866 12.364 2.187 14.118a4.759 4.759 0 0 0 2.436.606c2.977 0 6.875-2.122 10.816-5.8 3.941 3.659 7.839 5.76 10.816 5.76a4.827 4.827 0 0 0 2.447-.606c3.042-1.754 3.724-7.221 2.155-14.086 6.709-2.069 11.094-5.405 11.094-8.913zm-14.1-7.221c-.4 1.4-.9 2.837-1.462 4.277-.444-.866-.909-1.732-1.418-2.6s-1.029-1.711-1.559-2.533c1.541.228 3.023.509 4.442.856zm-4.959 11.53c-.844 1.462-1.711 2.847-2.609 4.136-1.613.141-3.248.217-4.894.217s-3.27-.076-4.872-.206q-1.348-1.933-2.62-4.114-1.234-2.127-2.252-4.309c.671-1.451 1.429-2.9 2.241-4.32.844-1.462 1.711-2.847 2.609-4.136 1.613-.141 3.248-.217 4.894-.217s3.27.076 4.872.206q1.348 1.933 2.62 4.114 1.234 2.127 2.252 4.309c-.678 1.455-1.425 2.902-2.237 4.32zm3.5-1.407c.585 1.451 1.083 2.9 1.494 4.309-1.418.346-2.912.639-4.461.866.531-.834 1.061-1.689 1.559-2.566s.965-1.743 1.409-2.609zM202.28 116.11a44.633 44.633 0 0 1-3.01-3.465c.974.043 1.97.076 2.977.076s2.025-.022 3.01-.076a42.259 42.259 0 0 1-2.977 3.465zm-8.055-6.377c-1.537-.227-3.021-.509-4.439-.855.4-1.4.9-2.837 1.462-4.277.444.866.909 1.732 1.418 2.6s1.028 1.709 1.559 2.532zm8-22.53a44.631 44.631 0 0 1 3.01 3.465c-.974-.043-1.97-.076-2.977-.076s-2.025.022-3.01.076a42.261 42.261 0 0 1 2.977-3.468zm-8.012 6.377c-.531.834-1.061 1.689-1.559 2.566s-.964 1.732-1.407 2.6c-.585-1.451-1.083-2.9-1.494-4.309 1.418-.337 2.912-.63 4.461-.857zm-9.8 13.555c-3.833-1.635-6.312-3.779-6.312-5.478s2.479-3.854 6.312-5.478c.931-.4 1.949-.758 3-1.093a52 52 0 0 0 2.436 6.593 51.262 51.262 0 0 0-2.4 6.561c-1.074-.34-2.092-.705-3.033-1.105zm5.825 15.471c-1.472-.844-2.111-4.06-1.613-8.2.119-1.018.314-2.09.552-3.183a52.469 52.469 0 0 0 6.875 1.18 52.811 52.811 0 0 0 4.5 5.413c-3.529 3.28-6.842 5.078-9.094 5.078a2.584 2.584 0 0 1-1.218-.288zm25.681-8.25c.509 4.136-.119 7.351-1.581 8.207a2.409 2.409 0 0 1-1.245.282c-2.241 0-5.565-1.786-9.094-5.045a51.139 51.139 0 0 0 4.471-5.4 50.557 50.557 0 0 0 6.886-1.191 30.315 30.315 0 0 1 .565 3.147zm4.168-7.221c-.931.4-1.949.758-3 1.093a52 52 0 0 0-2.436-6.593 51.269 51.269 0 0 0 2.4-6.561c1.072.336 2.09.7 3.042 1.1 3.833 1.635 6.312 3.779 6.312 5.478s-2.483 3.859-6.316 5.483z" class="prefix__cls-1" data-name="Path 9270"/>
        <circle id="prefix__Ellipse_393" cx="4.948" cy="4.948" r="4.948" class="prefix__cls-1" data-name="Ellipse 393" transform="translate(197.299 96.709)"/>
    </g>
</svg>
