<svg xmlns="http://www.w3.org/2000/svg" width="48.548" height="49.84" viewBox="0 0 48.548 49.84">
    <defs>
        <style>
            .prefix__cls-1{fill:#169aa3}
        </style>
    </defs>
    <g id="prefix__Group_15003" data-name="Group 15003" transform="translate(-2120.452 -3520)">
        <path id="prefix__Path_11497" d="M2142.379 3524.025l11.355 11.106 2.755-2.812.358-1.758-1.145-1.844-8.267-8.063h-1.5l-1.148.277z" class="prefix__cls-1" data-name="Path 11497"/>
        <path id="prefix__Path_11498" d="M2148.352 3540.763l19.951 19.881v1.13l-1.256 1.594-1.019.209-1.883-1.48-18.822-18.74z" class="prefix__cls-1" data-name="Path 11498"/>
        <path id="prefix__Path_11499" d="M2139.818 3548.693l-11.5-11.548-2.364 2.6-.682 1.5.682 1.688 8.162 8.414 2.514.624z" class="prefix__cls-1" data-name="Path 11499"/>
        <path id="prefix__Path_11500" d="M2158.74 3564.2v5.088h-37.892v-5.088z" class="prefix__cls-1" data-name="Path 11500"/>
        <path id="prefix__Path_11496" fill="#043d4d" fill-rule="evenodd" d="M868.288 604.059l2.722-2.724.011-.011 2.39-2.39-.906-.9-8.954-8.958-.906-.9-7.522 7.522.908.9 8.954 8.956.906.9 2.4-2.4zm-21.137 15.426h31.976a.555.555 0 0 1 .555.557v4.618h2.44a.556.556 0 0 1 .557.557v5.17a.556.556 0 0 1-.557.557h-37.967a.556.556 0 0 1-.555-.557v-5.17a.556.556 0 0 1 .555-.557h2.44v-4.618a.556.556 0 0 1 .555-.557zm31.423 1.11h-30.866v4.065h30.866v-4.06zm-33.863 9.238h36.858v-4.065h-36.858v4.065zm17.156-21.949l-8.171-8.171 1.94-1.94 8.171 8.169-1.941 1.942zm2.724-1.157l-1.94 1.942.908.9a.558.558 0 0 1 0 .785l-2.193 2.193a3.338 3.338 0 0 1-4.707 0l-7.625-7.628-.032-.032a3.334 3.334 0 0 1 .032-4.676l2.191-2.191a.554.554 0 0 1 .782 0l.908.906 1.939-1.942-.9-.9a.555.555 0 0 1 0-.785l8.306-8.306a.552.552 0 0 1 .784 0l.906.906 1.94-1.942-.906-.9a.558.558 0 0 1 0-.786l2.191-2.193a3.336 3.336 0 0 1 4.676-.03l.033.03 7.616 7.622a3.331 3.331 0 0 1 0 4.709l-2.188 2.189a.555.555 0 0 1-.785 0l-.906-.9-1.942 1.941.908.9a.558.558 0 0 1 0 .786l-2.4 2.4 19.394 19.392.031.035a1.942 1.942 0 0 1-.031 2.709l-.763.761a1.932 1.932 0 0 1-2.741 0h-.006l-19.39-19.388-2.4 2.4a.558.558 0 0 1-.785 0l-.906-.906zm-3.1 2.343l.893.9-1.8 1.8a2.226 2.226 0 0 1-3.14 0l-7.625-7.627-.03-.028a2.227 2.227 0 0 1 .03-3.11l1.8-1.8.9.893.009.011 8.956 8.958.011.007zm5.565-23.516l-.9-.893 1.8-1.8a2.227 2.227 0 0 1 3.112-.028l.028.028 7.625 7.626a2.226 2.226 0 0 1 0 3.138l-1.8 1.8-.9-.893-.009-.011-8.954-8.956-.009-.009zm5.847 11.3l-8.172-8.171 1.942-1.939 8.169 8.171-1.939 1.939zm-1.495 5.658L890.8 621.9l.022.022a.822.822 0 0 1 .219.566.835.835 0 0 1-.241.589l-.763.759a.841.841 0 0 1-1.179 0l-19.392-19.39z" data-name="Path 11496" transform="translate(1276.852 2938.896)"/>
    </g>
</svg>
