<svg xmlns="http://www.w3.org/2000/svg" xmlns:xlink="http://www.w3.org/1999/xlink" viewBox="0 0 1800.28 691.81"><defs><style>.cls-1{font-size:251.94px;font-family:Objectivity-Bold, Objectivity;font-weight:700;letter-spacing:-0.05em;}.cls-1,.cls-7{fill:#fff;}.cls-2{letter-spacing:-0.05em;}.cls-3{letter-spacing:-0.05em;}.cls-4{letter-spacing:-0.05em;}.cls-5{letter-spacing:-0.05em;}.cls-6{letter-spacing:-0.05em;}.cls-7{font-size:78.18px;font-family:Objectivity-Medium, Objectivity;font-weight:500;letter-spacing:-0.08em;}.cls-8{letter-spacing:-0.02em;}.cls-9{letter-spacing:-0.03em;}.cls-10{letter-spacing:-0.03em;}.cls-11{letter-spacing:-0.02em;}.cls-12{letter-spacing:-0.02em;}.cls-13{letter-spacing:-0.02em;}.cls-14{letter-spacing:-0.03em;}.cls-15{letter-spacing:-0.03em;}.cls-16{letter-spacing:-0.02em;}.cls-17{letter-spacing:-0.03em;}.cls-18{letter-spacing:-0.02em;}.cls-19{letter-spacing:-0.02em;}.cls-20{letter-spacing:-0.03em;}.cls-21{letter-spacing:-0.05em;}.cls-22{letter-spacing:-0.02em;}.cls-23{letter-spacing:-0.02em;}.cls-24{letter-spacing:-0.03em;}.cls-25{letter-spacing:-0.02em;}.cls-26{fill:url(#linear-gradient);}.cls-27{fill:url(#linear-gradient-2);}.cls-28{fill:url(#linear-gradient-3);}.cls-29{fill:url(#linear-gradient-5);}.cls-30{fill:url(#linear-gradient-6);}.cls-31{fill:url(#linear-gradient-7);}.cls-32{fill:url(#linear-gradient-8);}.cls-33{fill:url(#linear-gradient-9);}</style><linearGradient id="linear-gradient" x1="303.28" y1="450.47" x2="304.25" y2="450.47" gradientUnits="userSpaceOnUse"><stop offset="0" stop-color="#b3b3b3"/><stop offset="1" stop-color="#f2f2f2"/></linearGradient><linearGradient id="linear-gradient-2" x1="302.65" y1="486.9" x2="448.02" y2="486.9" xlink:href="#linear-gradient"/><linearGradient id="linear-gradient-3" x1="300.16" y1="450.56" x2="301.04" y2="450.56" xlink:href="#linear-gradient"/><linearGradient id="linear-gradient-5" x1="375.34" y1="416.13" x2="375.34" y2="560.98" gradientUnits="userSpaceOnUse"><stop offset="0.33" stop-color="#b3b3b3"/><stop offset="1" stop-color="#f2f2f2"/></linearGradient><linearGradient id="linear-gradient-6" x1="253.97" y1="78.48" x2="408.84" y2="346.71" xlink:href="#linear-gradient"/><linearGradient id="linear-gradient-7" x1="168" y1="344.55" x2="342.99" y2="344.55" gradientUnits="userSpaceOnUse"><stop offset="0" stop-color="#b3b3b3"/><stop offset="0.79" stop-color="#f2f2f2"/></linearGradient><linearGradient id="linear-gradient-8" x1="168.01" y1="429.03" x2="495.02" y2="429.03" gradientUnits="userSpaceOnUse"><stop offset="0.31" stop-color="#b3b3b3"/><stop offset="1" stop-color="#f2f2f2"/></linearGradient><linearGradient id="linear-gradient-9" x1="325.01" y1="450.56" x2="325.87" y2="450.56" xlink:href="#linear-gradient"/></defs><title>source file</title><g id="Layer_1" data-name="Layer 1"><text class="cls-1" transform="translate(637.72 430.95)">R<tspan class="cls-2" x="181.4" y="0">i</tspan><tspan class="cls-3" x="245.81" y="0">bb</tspan><tspan class="cls-4" x="558.61" y="0">a</tspan><tspan class="cls-5" x="716.01" y="0">s</tspan><tspan class="cls-6" x="846.42" y="0">h</tspan></text><text class="cls-7" transform="translate(654.14 540.25)">W<tspan class="cls-8" x="82.05" y="0">e</tspan><tspan class="cls-9" x="130.09" y="0"> </tspan><tspan class="cls-10" x="152.14" y="0">B</tspan><tspan class="cls-11" x="207.18" y="0">u</tspan><tspan class="cls-12" x="253.23" y="0">i</tspan><tspan class="cls-13" x="273.27" y="0">l</tspan><tspan class="cls-14" x="291.32" y="0">d</tspan><tspan class="cls-9" x="341.36" y="0"> </tspan><tspan class="cls-15" x="363.41" y="0">D</tspan><tspan class="cls-16" x="423.46" y="0">i</tspan><tspan class="cls-17" x="443.5" y="0">g</tspan><tspan class="cls-12" x="493.55" y="0">i</tspan><tspan class="cls-18" x="513.59" y="0">t</tspan><tspan class="cls-19" x="543.64" y="0">a</tspan><tspan class="cls-13" x="594.68" y="0">l</tspan><tspan class="cls-9" x="612.73" y="0"> </tspan><tspan class="cls-20" x="634.78" y="0">P</tspan><tspan class="cls-21" x="686.82" y="0">r</tspan><tspan class="cls-22" x="714.87" y="0">o</tspan><tspan class="cls-14" x="763.91" y="0">d</tspan><tspan class="cls-23" x="813.96" y="0">u</tspan><tspan class="cls-24" x="860" y="0">c</tspan><tspan class="cls-25" x="906.05" y="0">t</tspan><tspan class="cls-13" x="936.09" y="0">s</tspan></text><polygon class="cls-26" points="303.31 450.13 304.25 450.81 303.28 450.14 303.31 450.13"/><polygon class="cls-27" points="448.02 412.81 448.02 560.99 302.65 452.08 304.25 450.81 304.28 450.81 350.7 413.38 351.39 412.81 448.02 412.81"/><polygon class="cls-28" points="300.19 450.21 301.04 450.9 300.15 450.24 300.19 450.21"/><polygon class="cls-26" points="303.31 450.13 304.25 450.81 303.28 450.14 303.31 450.13"/><polygon class="cls-29" points="302.65 452.08 304.25 450.81 304.28 450.81 347.28 416.13 448.02 560.99 302.65 452.08"/><polygon class="cls-30" points="342.99 297.08 168 128.11 494.81 297.08 494.7 297.08 342.99 297.08 342.99 297.08"/><polygon class="cls-31" points="168 560.99 168 128.11 342.99 297.08 168 560.99"/><polygon class="cls-32" points="168 560.99 495.02 297.07 342.99 297.07 168 560.99"/><polygon class="cls-33" points="325.87 450.9 325.01 450.24 325.05 450.21 325.87 450.9"/></g></svg>