<svg xmlns="http://www.w3.org/2000/svg" id="prefix__Ruby_logo" width="47.433" height="47.302" viewBox="0 0 47.433 47.302">
    <defs>
        <style>
            .prefix__cls-2,.prefix__cls-3,.prefix__cls-5,.prefix__cls-6{fill-rule:evenodd}.prefix__cls-2{fill:#919ab1}.prefix__cls-3{fill:#9099b1}.prefix__cls-5{fill:#a5adc0}.prefix__cls-6{fill:#a2acc3}
        </style>
    </defs>
    <path id="prefix__polygon3282" fill="#8994b1" fill-rule="evenodd" d="M67.462 61.607L40.38 77.688l35.065-2.379 2.7-35.358z" transform="translate(-30.713 -30.386)"/>
    <path id="prefix__polygon3293" d="M151.432 121.452l-3.014-20.8-8.209 10.84z" class="prefix__cls-2" transform="translate(-106.642 -76.554)"/>
    <path id="prefix__polygon3304" d="M75.916 182.033l-22.08-1.733-12.966 4.092z" class="prefix__cls-2" transform="translate(-31.085 -137.135)"/>
    <path id="prefix__polygon3319" d="M19.962 140l5.516-18.07-12.138 2.6z" class="prefix__cls-3" transform="translate(-10.146 -92.739)"/>
    <path id="prefix__polygon3334" d="M77.93 83.02l-5.075-19.88L58.33 76.755z" class="prefix__cls-3" transform="translate(-44.365 -48.024)"/>
    <path id="prefix__polygon3349" d="M137.553 28.684l-13.73-11.214L120 29.831z" class="prefix__cls-3" transform="translate(-91.271 -13.288)"/>
    <path id="prefix__polygon3362" d="M124.66.58l-8.075 4.463L111.49.52z" class="prefix__cls-3" transform="translate(-84.799 -.396)"/>
    <path id="prefix__polygon3375" d="M0 115.139l3.383-6.169-2.737-7.35z" class="prefix__cls-3" transform="translate(0 -77.292)"/>
    <path id="prefix__path3377" fill="#fff" fill-rule="evenodd" d="M1.94 24.1l2.753 7.809 11.963-2.684 13.658-12.697 3.855-12.243L28.1 0 17.781 3.862c-3.251 3.024-9.559 9.006-9.787 9.119S3.829 20.543 1.94 24.1z" transform="translate(-1.476)"/>
    <path id="prefix__path3400" d="M15.345 13.852c7.046-6.986 16.129-11.113 19.615-7.6S34.748 18.32 27.7 25.3 11.687 36.642 8.2 33.125s.1-12.289 7.141-19.272z" class="prefix__cls-5" transform="translate(-5.213 -3.785)"/>
    <path id="prefix__path3413" d="M41 139.788l5.473-18.128 18.175 5.84c-6.571 6.161-13.88 11.371-23.648 12.288z" class="prefix__cls-5" transform="translate(-31.184 -92.534)"/>
    <path id="prefix__path3424" d="M120.56 65.171l4.666 18.482c5.49-5.772 10.417-11.977 12.83-19.653z" class="prefix__cls-5" transform="translate(-91.697 -48.678)"/>
    <path id="prefix__path3435" d="M149.812 16.031C151.679 10.4 152.11 2.311 143.3.81l-7.221 3.99z" class="prefix__cls-5" transform="translate(-103.501 -.616)"/>
    <path id="prefix__path3437" d="M0 139.009c.259 9.3 6.969 9.44 9.828 9.521l-6.6-15.42z" class="prefix__cls-5" transform="translate(0 -101.243)"/>
    <path id="prefix__path3448" d="M120.669 65.336c4.218 2.593 12.72 7.8 12.892 7.9.268.151 3.665-5.729 4.436-9.052z" class="prefix__cls-6" transform="translate(-91.78 -48.815)"/>
    <path id="prefix__path3459" d="M63.83 121.66l7.316 14.115a47.306 47.306 0 0 0 10.816-8.267z" class="prefix__cls-6" transform="translate(-48.549 -92.534)"/>
    <path id="prefix__path3472" d="M10.057 133.18L9.02 145.524c1.956 2.672 4.647 2.9 7.469 2.7-2.042-5.087-6.121-15.25-6.432-15.044z" class="prefix__cls-6" transform="translate(-6.861 -101.294)"/>
    <path id="prefix__path3485" d="M135.9 4.8l14.534 2.04c-.776-3.287-3.158-5.408-7.218-6.071z" class="prefix__cls-6" transform="translate(-103.365 -.586)"/>
</svg>
