<svg xmlns="http://www.w3.org/2000/svg" id="prefix__Group_14078" width="148.922" height="211.096" data-name="Group 14078" viewBox="0 0 148.922 211.096">
    <defs>
        <style>
            .prefix__cls-1{fill:#ffb27d}.prefix__cls-2{fill:#cc5230}.prefix__cls-5{fill:#1c468a}.prefix__cls-8{fill:#6bb7bf}.prefix__cls-10{fill:#599dad}.prefix__cls-11{fill:#d1a586}.prefix__cls-12{fill:#e5bd9e}.prefix__cls-14{fill:#a0795f}
        </style>
    </defs>
    <g id="prefix__Group_14076" data-name="Group 14076">
        <path id="prefix__Path_8102" d="M2016.922 1192.278s-13.856 15.826-16.692 15.567c-2.9-.263-4.665-1.176-7.187 0-1.812.846-7.539 5.453-6 5.148s4.32-.662 5.055-.732c1.011-.1 2.635-.118 3.736-.31.7-.121 3.214-.192 4.054-.219 3.646-.12 20.894-10.2 20.894-10.2z" class="prefix__cls-1" data-name="Path 8102" transform="translate(-1938.387 -1102.692)"/>
        <g id="prefix__Group_14049" data-name="Group 14049" transform="translate(41.596 70.781)">
            <path id="prefix__Path_8103" d="M1982.232 1142.492a3.866 3.866 0 0 0-2.4-.044v-1.124a5.925 5.925 0 0 0-.048-.734h-11.645a5.832 5.832 0 0 0-.048.734v2.286a5.863 5.863 0 0 0 10.272 3.872s2.77-.682 3.64-1.715 1.154-2.703.229-3.275zm-.614 2.114c-.294.76-1.615 1.169-2.267 1.327a5.807 5.807 0 0 0 .469-1.932 1.717 1.717 0 0 1 1.5-.788c.419.075.67.431.298 1.393z" class="prefix__cls-2" data-name="Path 8103" transform="translate(-1968.093 -1140.589)"/>
            <path id="prefix__Path_8104" d="M1970.714 1141.322v2.287a5.889 5.889 0 0 0 5.869 5.872 5.434 5.434 0 0 0 .789-.057 5.888 5.888 0 0 1-5.08-5.814v-2.287a5.851 5.851 0 0 1 .047-.734h-1.578a5.805 5.805 0 0 0-.047.733z" data-name="Path 8104" transform="translate(-1969.76 -1140.588)" style="fill:#f15d34"/>
            <path id="prefix__Rectangle_1194" d="M0 0H4.792V0.718H0z" data-name="Rectangle 1194" transform="translate(3.47 8.379)" style="fill:#c45446"/>
        </g>
        <path id="prefix__Path_8105" d="M2090.279 955.247s.627-7.949 12.06-5.885c3.022.546 5.1-4.844 10.048-2.924 10.654 4.135 11.28-1.325 14.36 6.339 1.289 3.208 9.485 6.942 6.982 12.485s1.686 9.272-1.258 13.616c-1.522 2.248-.9 6.266-8.088 6.409-3.578.071-9.151 6.7-13.166 7.906s-16.072-.533-15.617-6.042c.354-4.3-4.658-3.94-7.737-8.881-2.691-4.319 2.111-5.406-.457-12.389-1.884-5.116 3.02-6.363 2.873-10.634z" class="prefix__cls-5" data-name="Path 8105" transform="translate(-2002.13 -946.024)"/>
        <g id="prefix__Group_14050" data-name="Group 14050" transform="translate(0 185.923)">
            <path id="prefix__Path_8106" d="M1879.051 1475.932c.245 2.659-3.456 3.306-7.744 3.519s-2.991 1.092-8.866 2.156-8.229-.544-8.655-1.338c-.379-.7 2.352-1.806 5.263-3.05.367-.156.733-.316 1.1-.476 3.277-1.44 5.114-4.379 7.669-7.1 2.419-2.58 4.716-10.842 4.716-10.842l7.984-1.7s-2.242 7.436-3.02 10.61c-.458 1.867.218 3.955.817 5.543a10.443 10.443 0 0 1 .736 2.678z" class="prefix__cls-1" data-name="Path 8106" transform="translate(-1853.751 -1457.093)"/>
            <path id="prefix__Path_8107" d="M1871.307 1507.7c-4.287.214-2.991 1.091-8.866 2.156s-8.229-.544-8.655-1.338c-.379-.7 2.352-1.806 5.263-3.051l.046.049a16.728 16.728 0 0 0 8.9.107c3.886-1.056 7.644-3.378 10.322-4.128a10.409 10.409 0 0 1 .734 2.687c.249 2.659-3.456 3.306-7.744 3.518z" class="prefix__cls-2" data-name="Path 8107" transform="translate(-1853.751 -1485.342)"/>
        </g>
        <path id="prefix__Path_8108" d="M1977.3 1232.194s-44.245 1.988-54.233 8.292-26.006 79.727-26.006 79.727a6.514 6.514 0 0 0 3.2 1.031c2.054.222 6.577-.985 6.577-.985s23.021-32.853 24.642-41.128 1.226-15.662 4.918-15.859 49.72 5.6 56.683-6.67-15.781-24.408-15.781-24.408z" data-name="Path 8108" transform="translate(-1881.307 -1128.087)" style="fill:#283167"/>
        <g id="prefix__Group_14051" data-name="Group 14051" transform="translate(18.254 186.222)">
            <path id="prefix__Path_8109" d="M1929.229 1476.754c.245 2.659-3.457 3.306-7.744 3.52s-2.991 1.091-8.867 2.155-8.229-.544-8.655-1.338c-.379-.7 2.353-1.806 5.263-3.051.367-.156.734-.316 1.1-.476 3.276-1.441 5.115-4.379 7.669-7.1 2.42-2.581 4.717-10.842 4.717-10.842l7.983-1.7s-2.241 7.436-3.02 10.61c-.458 1.867.218 3.955.818 5.543a10.467 10.467 0 0 1 .736 2.679z" class="prefix__cls-1" data-name="Path 8109" transform="translate(-1903.928 -1457.914)"/>
            <path id="prefix__Path_8110" d="M1921.485 1508.522c-4.287.213-2.992 1.091-8.867 2.156s-8.229-.544-8.654-1.337c-.379-.7 2.353-1.806 5.263-3.051l.045.05a16.734 16.734 0 0 0 8.9.106c3.886-1.055 7.645-3.378 10.322-4.129a10.474 10.474 0 0 1 .734 2.686c.245 2.659-3.456 3.306-7.743 3.519z" class="prefix__cls-2" data-name="Path 8110" transform="translate(-1903.928 -1486.163)"/>
        </g>
        <path id="prefix__Path_8111" d="M2025.311 1235.07s-47.129 2.231-56.864 8.918-22.883 80.678-22.883 80.678a6.507 6.507 0 0 0 3.234.906c2.061.142 6.533-1.24 6.533-1.24s21.725-33.723 23.023-42.056.615-15.7 4.3-16.039 49.9 3.656 56.38-8.871-13.723-22.296-13.723-22.296z" data-name="Path 8111" transform="translate(-1912.164 -1129.917)" style="fill:#3b4685"/>
        <path id="prefix__Path_8112" d="M2129.989 1042.475a.931.931 0 0 0-.06-.073 7.431 7.431 0 0 0-1.315-1.151l-.017-.013c-3.851-2.69-10.729-3.265-10.729-3.265s-.752-.071-1.943-.125a35.644 35.644 0 0 1-2.247-10.854l-.682.182-11.467 3.076s.508 3.639.745 7.084c.053.755.091 1.5.11 2.195-.332.121-7.467 1.127-9.019 2.794s-4.653 12.774-5.435 14.741l44.148.722s1.104-11.536-2.089-15.313z" class="prefix__cls-1" data-name="Path 8112" transform="translate(-2002.736 -997.538)"/>
        <path id="prefix__Path_8113" d="M2109.221 1146.349c-5.227.5-22.843-10.14-28.713-13.6l-.295-.174c-2.445-1.436-5.884-2.114-9.153-2.657-4.166-.682-8.053-1.14-9.3-2.628-1.481-1.774 2.876-3.739 6.377-5.776 1.763-1.029 3.314-2.079 3.8-3.126.372-.824.344-2.629.094-4.938-.042-.431-.1-.88-.16-1.346a14.893 14.893 0 0 1-1.051 1.815 26.649 26.649 0 0 1-3.741 4.378 12.43 12.43 0 0 1-4.347 3 3.42 3.42 0 0 1-2.075-.188c-1.833-.716-3.6-2.733-5.008-4.677-.33-.459-.643-.918-.929-1.352-.959-1.454-1.641-2.661-1.9-2.946-.782-.866 3.147-2.58 4.76-3.867s7.942-26.282 7.942-26.282c.783-1.968 3.885-13.071 5.435-14.744 0 0 6.051 7.389 13.9 6.965 7.79-.417 21.132-7.932 21.337-8.05a4.857 4.857 0 0 1 1.4 1.238c3.192 3.777 2.083 15.311 2.083 15.311s-6.106 26.911-6.106 29.627c0 4.98 4.117 16.427 6.082 24.672 1.247 5.218 1.63 9.151-.432 9.345z" class="prefix__cls-8" data-name="Path 8113" transform="translate(-1980.336 -1022.449)"/>
        <path id="prefix__Path_8114" d="M2125.308 1030.57s.508 3.64.745 7.084c6.491-.617 9.532-6.778 10.722-10.159z" data-name="Path 8114" transform="translate(-2026.518 -997.857)" style="fill:#f4a269"/>
        <path id="prefix__Path_8115" d="M2108.881 999.132s15.4-.772 14.773-10.356.936-16.139-8.924-16.051-11.529 3.87-12.1 7.12 2.229 19.241 6.251 19.287z" class="prefix__cls-1" data-name="Path 8115" transform="translate(-2012.046 -963.011)"/>
        <path id="prefix__Path_8116" d="M2118.153 970.962s3.682-.859 4.884.931.344 2.793 3.029 3.545 3.6.7 3.331 2.578 2.7 3.276 2.826 4.78a2.633 2.633 0 0 0 2.543 2.363c1.183.107.646-19.389-3.92-20.248s-8.969.161-10.312 1.235-2.381 4.816-2.381 4.816z" class="prefix__cls-5" data-name="Path 8116" transform="translate(-2021.966 -957.836)"/>
        <path id="prefix__Path_8117" d="M2103.562 973.093s-3.58-.251-4.225 1.79.215 2.524-.7 3.759-.385 3.426-.385 3.426-7.08-13.04.385-13.9 7.27.664 4.925 4.925z" class="prefix__cls-5" data-name="Path 8117" transform="translate(-2007.375 -959.967)"/>
        <path id="prefix__Path_8118" d="M2075.344 1142.821a39.711 39.711 0 0 1-4.767 9.263 12.439 12.439 0 0 1-4.347 3 3.423 3.423 0 0 1-2.076-.188c-1.833-.717-3.6-2.733-5.008-4.677-.33-.459-.644-.918-.928-1.353 4.893-3.926 14.167-12.909 15.13-25.2 1.318-16.791 2.066 19.927 1.996 19.155z" class="prefix__cls-10" data-name="Path 8118" transform="translate(-1983.835 -1056.24)"/>
        <path id="prefix__Path_8119" d="M2074.535 1204.637c1.707-2.6 5.181-5.171 10.164-7.188-2.295 3.436-6.221 6.924-8.088 7.376a3.425 3.425 0 0 1-2.076-.188z" class="prefix__cls-10" data-name="Path 8119" transform="translate(-1994.216 -1105.982)"/>
        <path id="prefix__Path_8120" d="M2116.666 1128.4s-3.846 38.648-20.865 43.955c-.1-.059-.2-.118-.3-.174-2.444-1.436-5.884-2.114-9.153-2.657-4.166-.682-8.054-1.14-9.3-2.629-1.481-1.773 2.875-3.739 6.377-5.776 1.763-1.029 3.314-2.079 3.8-3.126.372-.824.345-2.629.095-4.938 16.517-6.113 29.346-24.655 29.346-24.655z" class="prefix__cls-10" data-name="Path 8120" transform="translate(-1995.63 -1062.051)"/>
        <path id="prefix__Path_8121" d="M2064.034 1088.646c-1.782-8.034-9.871-3.424-9.871-3.424-2.8-.64-23.384 32.719-25.031 33.474-1.4.64-20.364-4.869-26.123-6.565-1.486-1.167-6.711-5.221-7.625-5.29-1.067-.08-8.2 1.754-8.16 2.887s1.715 2.8 4.351 3.215c2 .319 5.383 1.634 7.542 1.962s20.935 14.26 29.845 16c8.023 1.566 36.856-34.225 35.072-42.259z" class="prefix__cls-1" data-name="Path 8121" transform="translate(-1938.668 -1033.745)"/>
        <path id="prefix__Path_8122" d="M2064.643 1115.039s-4.825 12.4.956 17.113 18.327 3.128 32.069-16.037 19.334-29.6 12.2-32.645-13.029 1.733-16.688 9.187c-3.8 7.748-10.813 18.477-15.019 18.885s-13.518 3.497-13.518 3.497z" class="prefix__cls-8" data-name="Path 8122" transform="translate(-1986.722 -1032.876)"/>
    </g>
    <g id="prefix__Group_14077" data-name="Group 14077" transform="translate(60.124 56.321)">
        <path id="prefix__Path_8060" d="M2176.819 1160.884a270.418 270.418 0 0 1 3.208-33.607c2.3-13.123 4.372-20.673 4.4-20.753.3-1.154 4.681-5.824 14.416-5.679s8.812 6.268 8.812 6.268a1.976 1.976 0 0 1-.071.544c-.094.316-9.029 32.274-8.642 73.537.005.579.071 1.581.03 2.247 0 0-22.559.575-22.565 0-.79-3.606-.407-13.599.412-22.557z" class="prefix__cls-11" data-name="Path 8060" transform="translate(-2118.877 -1100.841)"/>
        <path id="prefix__Path_8061" d="M2169.69 1180.99c.007.575.314 1.035.69 1.035h.009c.375-.009.674-.469.678-1.035h19.333c.007.575.314 1.035.69 1.035h.009c.382-.009.685-.484.681-1.066a284.207 284.207 0 0 1 1.6-32.576c2.57-24.277 7.321-40.5 7.389-40.727a1.984 1.984 0 0 0 .07-.544s.924-6.124-8.811-6.268-14.114 4.525-14.417 5.68c-.018.06-1.19 4.336-2.749 12.021-.516 2.546-1.074 5.466-1.647 8.73a270.606 270.606 0 0 0-3.208 33.607c-.816 8.96-1.107 16.503-.317 20.108z" class="prefix__cls-12" data-name="Path 8061" transform="translate(-2114.584 -1100.841)"/>
        <path id="prefix__Path_8062" d="M2169.69 1211.952c.006.575.314 1.035.689 1.035h.009c.375-.009.673-.469.678-1.035h19.334c.006.575.314 1.035.689 1.035h.01c.381-.009.685-.484.68-1.065a284.106 284.106 0 0 1 1.6-32.576c-3.2-15.406-15.55-27.19-18.519-29.838-.516 2.546-1.074 5.466-1.647 8.73a270.9 270.9 0 0 0-3.207 33.607c-.815 8.955-1.106 16.502-.316 20.107z" data-name="Path 8062" transform="translate(-2114.583 -1131.803)" style="fill:#dfb697"/>
        <g id="prefix__Group_14028" data-name="Group 14028" transform="translate(56.094 2.43)">
            <path id="prefix__Path_8063" d="M2191.711 1185.043l-.054-.038c-.016-.011-.028-.02-.035-.1h-.011a.511.511 0 0 0-.151-.4c-.609-.622-2.951-.6-5.918-.562a61.786 61.786 0 0 1-11.279-.614c-2.075-.359-.675-16.124.8-30.872.25-2.5.448-4.483.538-5.648.961-12.548 6.512-34.814 6.563-34.989.246-.938 3.585-4.416 10.824-4.3 2.738.041 4.678.712 5.767 2a3.738 3.738 0 0 1 .891 2.79 1.508 1.508 0 0 1-.055.419c-.03.122-5.034 28.924-5.851 35.835-1.349 11.4-1.885 34.975-1.908 36.292a.475.475 0 0 1 0 .049v.066zm-4.319-1.333c2.165 0 3.691.1 4.224.644.009-.544.037-1.56.091-3.477.063-2.255.173-5.777.332-9.75.278-6.951.76-16.512 1.479-22.591.838-7.082 5.832-35.783 5.858-35.873a1.357 1.357 0 0 0 .047-.373 3.589 3.589 0 0 0-.842-2.635c-1.047-1.231-2.93-1.876-5.6-1.915-7.118-.094-10.371 3.234-10.609 4.14-.054.2-5.593 22.376-6.556 34.947-.089 1.166-.287 3.146-.537 5.652-.983 9.828-3.029 30.279-.982 30.633a61.7 61.7 0 0 0 11.239.611c.664-.005 1.281-.013 1.856-.013z" class="prefix__cls-11" data-name="Path 8063" transform="translate(-2173.214 -1107.519)"/>
        </g>
        <path id="prefix__Path_8064" d="M2102.594 1313.332H2026.8s1.764-7.046 45.66-6c31.063.746 30.134 6 30.134 6z" class="prefix__cls-12" data-name="Path 8064" transform="translate(-2023.97 -1232.146)"/>
        <g id="prefix__Group_14029" data-name="Group 14029" transform="translate(71.945 82.276)">
            <path id="prefix__Path_8065" d="M2229.633 1399.5c-8.788-43.882-6.529-70.81-6.516-71.149.021-.676-1.241-1.289-1.919-1.311s-3.722-.2-4.073.379c-.459.757-2.229 33.935 10.868 72.082z" class="prefix__cls-11" data-name="Path 8065" transform="translate(-2216.784 -1327.004)"/>
        </g>
        <g id="prefix__Group_14030" data-name="Group 14030" transform="translate(14.025 82.276)">
            <path id="prefix__Path_8066" d="M2057.574 1399.5c8.788-43.882 6.529-70.81 6.517-71.149-.022-.676 1.24-1.289 1.919-1.311s3.721-.2 4.072.379c.46.757 2.229 33.935-10.868 72.082z" class="prefix__cls-11" data-name="Path 8066" transform="translate(-2057.574 -1327.004)"/>
        </g>
        <g id="prefix__Group_14031" data-name="Group 14031" transform="translate(0 82.276)">
            <path id="prefix__Path_8067" d="M2019.022 1399.5c8.789-43.882 6.529-70.81 6.518-71.149-.023-.676 1.24-1.289 1.919-1.311s3.721-.2 4.072.379c.46.757 2.229 33.935-10.868 72.082z" class="prefix__cls-14" data-name="Path 8067" transform="translate(-2019.022 -1327.004)"/>
        </g>
        <g id="prefix__Group_14032" data-name="Group 14032" transform="translate(57.825 82.276)">
            <path id="prefix__Path_8068" d="M2190.822 1399.5c-8.788-43.882-6.528-70.81-6.517-71.149.022-.676-1.24-1.289-1.919-1.311s-3.721-.2-4.072.379c-.459.757-2.23 33.935 10.868 72.082z" class="prefix__cls-14" data-name="Path 8068" transform="translate(-2177.973 -1327.004)"/>
        </g>
        <path id="prefix__Rectangle_1192" d="M2.035 0h74.83A2.035 2.035 0 0 1 78.9 2.035a2.035 2.035 0 0 1-2.036 2.035H2.035A2.035 2.035 0 0 1 0 2.035 2.035 2.035 0 0 1 2.035 0z" class="prefix__cls-11" data-name="Rectangle 1192" transform="translate(1.232 79.364)"/>
    </g>
</svg>
