<svg xmlns="http://www.w3.org/2000/svg" id="prefix__Group_14061" width="104.925" height="227.537" data-name="Group 14061" viewBox="0 0 104.925 227.537">
    <defs>
        <style>
            .prefix__cls-1{fill:#ffb27d}.prefix__cls-2{fill:#163560}.prefix__cls-3{fill:#e37970}.prefix__cls-5{fill:#3b4685}.prefix__cls-7{fill:#cc5230}.prefix__cls-8{fill:#283167}.prefix__cls-9{fill:#f15d34}.prefix__cls-10{fill:#c45446}
        </style>
    </defs>
    <path id="prefix__Path_8173" d="M963.261 1029.892s-4.285-3.5-5.824-3.52-4.464-.788-4.349-.288 2.579 1.154 2.155 1.385-4-.731-5-.154-3.348 2.963-1.462 4 7.543 2.694 9.005 2.5 4.772-.423 4.772-.423z" class="prefix__cls-1" data-name="Path 8173" transform="translate(-944.34 -959.535)"/>
    <path id="prefix__Path_8174" d="M787.345 1442.545l-3.593 15.135-5.383-.031-.2-15.1z" class="prefix__cls-1" data-name="Path 8174" transform="translate(-713.703 -1241.974)"/>
    <path id="prefix__Path_8175" d="M932.953 1440.355l-10.224 14.49-3.985-5.117 6.154-11.365z" class="prefix__cls-1" data-name="Path 8175" transform="translate(-904.588 -1239.139)"/>
    <path id="prefix__Path_8176" d="M684.749 838.031a.682.682 0 0 1 .009-.111c.068-.754.154-1.5.256-2.241a49.013 49.013 0 0 1 1.29-6.4c.311-1.118.65-2.161 1.016-3.1.055-.145.111-.28.163-.419.875-2.133 1.872-3.667 2.891-4.245a10.456 10.456 0 0 1 5.643-1.081 2.643 2.643 0 0 0-1.191-.563 8.723 8.723 0 0 1 3.122.813c13.435-5.175 15.547 14.606 15.264 19.2s4.517 6.1 11.505 9.717c13.337 6.908 14.507 16.16 14.507 16.16-.1.062-.212.133-.326.213-.662-1.12-2.026-3.226-3.174-3.544a47.282 47.282 0 0 1 1.85 4.5c-1.684 1.283-3.99 3.226-6.484 5.4-3.337 2.909-7 6.231-9.938 8.922a7.559 7.559 0 0 0-.351-2.912l-.56 3.374-.074.44c-1.872 1.721-3.347 3.094-4.095 3.8-.077.071-.145.136-.206.191-.218.2-.336.314-.336.314.108-1.179-1.549-3.965-4.144-7.4-.179-.24-.367-.483-.557-.729-.835-1.084-1.755-2.22-2.737-3.387-.354-.422-.711-.844-1.081-1.272-.3-.345-.594-.686-.9-1.034-.727-.825-1.475-1.653-2.235-2.481-1.97-2.146-4.033-4.261-6.047-6.182a61.465 61.465 0 0 0-8.026-6.69c-.086-.126-.169-.256-.246-.388a13.934 13.934 0 0 1-1.1-2.266c-.1-.24-.185-.483-.268-.727a32.9 32.9 0 0 1-1.382-5.819 33.73 33.73 0 0 0 .957 5.93c.086.314.173.6.262.871a12.348 12.348 0 0 0 .6 1.509 8.282 8.282 0 0 1-1.077-1.219 9.682 9.682 0 0 1-.606-.942c-2.256-3.924-2.743-10.183-2.194-16.202z" class="prefix__cls-2" data-name="Path 8176" transform="translate(-635.429 -819.817)"/>
    <path id="prefix__Path_8177" d="M797.083 909.139c-.045.02 4.317 2.285 7.6 1.388 3.086-.841 5.1-4.843 5.06-4.851-1.307-.26-1.684-2.056-1.656-9.772l-.591.117-9.933 1.967s.226 3.126.232 6.071c.005 2.471-.146 4.816-.712 5.08z" class="prefix__cls-1" data-name="Path 8177" transform="translate(-742.19 -871.397)"/>
    <path id="prefix__Path_8178" d="M812.557 830.063s-4.9-5.217-11.052-.267c-.005.004 3.58-.619 11.052.267z" class="prefix__cls-3" data-name="Path 8178" transform="translate(-746.43 -825.136)"/>
    <path id="prefix__Path_8179" d="M804.061 898.232s.226 3.126.233 6.071c5.558-.157 8.5-5.227 9.7-8.038z" data-name="Path 8179" transform="translate(-748.691 -871.642)" style="fill:#ed975d"/>
    <path id="prefix__Path_8180" d="M806.611 849.949s2.913-4.6 3.612-8.538c.5-2.81-.932-13.225-11.4-11.725a14.221 14.221 0 0 0-5.9 2.229c-2.272 1.535-5.552 4.848-1.885 13.936l.952 3.07z" class="prefix__cls-2" data-name="Path 8180" transform="translate(-740.282 -826.407)"/>
    <path id="prefix__Path_8181" d="M782.764 1221.516l5.265.161 5.7.175a112.5 112.5 0 0 0 20.549-38.153q.258-.819.546-1.658c4.041-11.784 12.419-26.575 16.834-39.963.7-2.133 1.334-4.14 1.9-6.04.181-.609.358-1.206.526-1.794a142.008 142.008 0 0 0 5.064-26.658l-31.881.255a594.274 594.274 0 0 1-24.503 113.675z" class="prefix__cls-5" data-name="Path 8181" transform="translate(-766.985 -1014.899)"/>
    <path id="prefix__Path_8182" d="M744.963 964.537c.08 15.171-2.226 21.68-2.226 21.68a42.84 42.84 0 0 0 29.874 1.83c.191-.06 13.433-3.082 13.433-3.082-.272-.614-2.686-10.838-2.95-11.4-3.425-7.355-6.026-10.581-6.433-12.842a48.1 48.1 0 0 1-.394-12.71 101.994 101.994 0 0 1 3.934-19.96c-4.421-1.006-8.56-2.773-13.161-4.5-1.058 1.318-4.294 2.7-7.1 2.634-3.231-.071-4.28-1.455-4.112-2.965-3.444 1.916-6.192 3.727-6.192 3.727-2.927 5.084-8.863 10.021-9.293 17.82-.106 1.916 4.618 19.343 4.62 19.768z" data-name="Path 8182" transform="translate(-700.218 -889.916)" style="fill:#e7f1fd"/>
    <path id="prefix__Path_8183" d="M803.727 864.321s13.151.217 13.16-7.975 1.713-13.681-6.684-14.166-10.031 2.64-10.7 5.373.803 16.5 4.224 16.768z" class="prefix__cls-1" data-name="Path 8183" transform="translate(-750.213 -834.943)"/>
    <path id="prefix__Path_8184" d="M786.217 838.158s3.6 9.611 9.127 11.032 7.923-.06 7.923-.06a15.65 15.65 0 0 1-5.118-9.245s-9.216-6.302-11.932-1.727z" class="prefix__cls-2" data-name="Path 8184" transform="translate(-732.217 -831.122)"/>
    <path id="prefix__Path_8185" d="M843.042 840.786s-2.689 2.146-3.345 4.232-.951 6.38-2.2 6.234c0 0-2.713-6.533.336-10.228 3.231-3.918 5.209-.238 5.209-.238z" class="prefix__cls-2" data-name="Path 8185" transform="translate(-788.149 -832.97)"/>
    <path id="prefix__Path_8186" d="M793.342 1486.908a14.585 14.585 0 0 0 .685 6.205s.881 4.014-3.072 4.089-4.923-.3-4.475-2.76 1.3-6.718 1.3-6.718z" class="prefix__cls-1" data-name="Path 8186" transform="translate(-723.112 -1272.049)"/>
    <path id="prefix__Path_8187" d="M784.528 1512.429h8.659c.354-1.78-.43-5.578-.559-6.308-.009-.056-.018-.1-.024-.123a.4.4 0 0 0-.006-.04c-4.473 4.1-7.275-.1-7.275-.1a.116.116 0 0 0-.009.022c-.657 1.602-.796 5.92-.786 6.549z" class="prefix__cls-7" data-name="Path 8187" transform="translate(-721.683 -1284.892)"/>
    <path id="prefix__Path_8188" d="M946.039 1485.855s7.288-8.09 9.526-12.206l5.419 2.777-12.114 11.374-2.835-.373z" class="prefix__cls-1" data-name="Path 8188" transform="translate(-941.409 -1263.06)"/>
    <path id="prefix__Path_8189" d="M941.769 1496.442h9.169c1.351 0 2.429-2.238 3.883-5.147a4.893 4.893 0 0 1 3.3-2.206l-.036 7.353h2.115l1.948-7.776c1.292-2.372.1-4.522-.806-6.4-1.056 0-3.9.72-9.282 6.787a7.06 7.06 0 0 1-5.664 2.643.437.437 0 0 1-.081.043c-4.472 2.017-4.546 4.703-4.546 4.703z" class="prefix__cls-7" data-name="Path 8189" transform="translate(-941.769 -1268.905)"/>
    <path id="prefix__Path_8190" d="M798.487 1270.287l5.7.174a112.5 112.5 0 0 0 20.549-38.153q.259-.819.546-1.658c4.041-11.784 12.419-26.576 16.834-39.964.7-2.133 1.334-4.14 1.9-6.04.181-.609.358-1.206.526-1.794l-4.695-3.563s-14.1 22.825-18.459 44.305c-3.788 18.659-18.971 41.106-22.901 46.693z" class="prefix__cls-8" data-name="Path 8190" transform="translate(-777.443 -1063.51)"/>
    <path id="prefix__Path_8191" d="M741.909 1212.846c-.081 10.445.447 34.461 1.808 44.4h5.048c2.791 0 4.183-.04 4.183-.04 3.412-17.287 5.84-31.59 7.608-43.916 1.45-10.114 2.739-18.786 3.73-26.251 1-7.512 1.692-13.8 1.94-19.117.038-.837.067-1.651.083-2.441s.02-1.567.014-2.316l-27.547-2.685c.347 18.306 3.178 46.295 3.133 52.366z" class="prefix__cls-5" data-name="Path 8191" transform="translate(-679.995 -1050.76)"/>
    <path id="prefix__Path_8192" d="M739.084 1272.915c2.791 0 4.183-.04 4.183-.04 3.412-17.287 5.84-31.59 7.608-43.916 1.45-10.114 2.739-18.786 3.73-26.251 1-7.512 1.692-13.8 1.94-19.117l-10.108 5.946s6.452 2.276 3.99 19.506-7.917 61.432-11.343 63.872z" class="prefix__cls-8" data-name="Path 8192" transform="translate(-670.314 -1066.425)"/>
    <path id="prefix__Path_8193" d="M729.4 1007.719s1.94 7.01 8.653 6.115 16.259-4.923 16.259-4.923-2.869-9.065-6.436-20.974c-4.319-14.418-5.394-34.681-7.913-46.4-.707-3.285-5.462-4.351-5.641-6.316l-5.57-10.806s-8.3 18.638-8.752 23.337 9.4 59.967 9.4 59.967z" class="prefix__cls-9" data-name="Path 8193" transform="translate(-661.931 -890.722)"/>
    <path id="prefix__Path_8194" d="M739.981 1010.963c.3 7.608 2.962 20.585 13.656 26.29.042.022.085.043.128.061-4.319-14.418-4.263-28.25-6.783-39.974-5.748-1.197-7.164 9.434-7.001 13.623z" class="prefix__cls-7" data-name="Path 8194" transform="translate(-667.819 -940.099)"/>
    <g id="prefix__Group_14060" data-name="Group 14060" transform="translate(2.661 66.313)">
        <path id="prefix__Path_8195" d="M966.06 1025.7h10.31c.006.049.016.246.031.523.04.933.1 2.765.092 2.934a4.551 4.551 0 0 1-3.137 3.969.093.093 0 0 1-.022.012 6.935 6.935 0 0 1-1.019.3 5.824 5.824 0 0 1-.7.108 3.733 3.733 0 0 1-.4.022 5.157 5.157 0 0 1-2.115-.453 5.214 5.214 0 0 1-3.085-4.744v-2.026a5.086 5.086 0 0 1 .045-.645z" class="prefix__cls-10" data-name="Path 8195" transform="translate(-966.016 -1025.705)"/>
        <path id="prefix__Path_8196" d="M977.666 1025.7h1.4a5.046 5.046 0 0 0-.043.65v2.026a5.193 5.193 0 0 0 1.49 3.636 5.263 5.263 0 0 0 1.6 1.108 5.161 5.161 0 0 0 .967.323c.145.034.292.059.443.08a4.715 4.715 0 0 1-.7.049 4.156 4.156 0 0 1-.441-.022 5 5 0 0 1-1.672-.431 5.256 5.256 0 0 1-2.328-2.057 5.247 5.247 0 0 1-.521-1.155 5.133 5.133 0 0 1-.231-1.53v-2.026a5.069 5.069 0 0 1 .036-.651z" class="prefix__cls-3" data-name="Path 8196" transform="translate(-976.779 -1025.705)"/>
        <path id="prefix__Rectangle_1196" d="M0 0H4.243V0.635H0z" class="prefix__cls-10" data-name="Rectangle 1196" transform="translate(3.074 7.419)"/>
    </g>
    <path id="prefix__Path_8197" d="M743.151 1091.485s-4.8-1.036-6.029.333-1.924 3.545-.693 4.31 4.8-1.334 6.081-.487c.919.606 1.209 2.148 2.132 1.609s1.9-4.072 1.9-4.072z" class="prefix__cls-1" data-name="Path 8197" transform="translate(-659.243 -1003.731)"/>
    <path id="prefix__Path_8198" d="M681.045 924.41s12.942.568 16.053 3.458 21.737 25.209 22.045 31.059-16.318 22.473-16.318 22.473-4.618-1.112-6.619-4.02c0 0 10.314-18.39 9.7-19.192s-18.088-15.119-19.519-11.943c-1.236 2.739-5.342-21.835-5.342-21.835z" class="prefix__cls-9" data-name="Path 8198" transform="translate(-614.222 -890.722)"/>
    <path id="prefix__Path_8199" d="M835.876 958.377s14.778 4.926 16.625 4.515 4.485-20.435 5.911-27.3c1.837-8.839 8.841-10.6 8.841-10.6l6.646-1.778s-7.609 18.8-7.833 22.6-.9 62.209-.9 62.209.448 2.685-4.7 1.566-6.489-2.238-6.489-2.238 2.231-16.327 3.279-30.822c-5.244-.9-22.1-9.441-22.1-9.441-2.615-4.1.72-8.711.72-8.711z" class="prefix__cls-9" data-name="Path 8199" transform="translate(-818.289 -889.916)"/>
</svg>
