<svg xmlns="http://www.w3.org/2000/svg" width="52.054" height="49.84" viewBox="0 0 52.054 49.84">
    <defs>
        <style>
            .prefix__cls-1{fill:#0c9aa3}
        </style>
    </defs>
    <g id="prefix__Group_15004" data-name="Group 15004" transform="translate(-575 -995.018)">
        <path id="prefix__Path_9264" d="M8956.193 6606.843l3.88 8.358 9.852 1.1v.906l-6.906 5.755 1.963 9.848-8.788-4.975-8.4 4.975 1.943-9.848-7.47-6.662 9.852-.541z" class="prefix__cls-1" data-name="Path 9264" transform="translate(-8355.166 -5604.339)"/>
        <path id="prefix__Path_9265" d="M8976.959 6634.322l6.4 6.558 1.376 1.457h-9.835v10.56l-9.848-9.813 3.48-1.594 2.683-1.575 2.634-2.147z" class="prefix__cls-1" data-name="Path 9265" transform="translate(-8358.623 -5608.51)"/>
        <path id="prefix__Path_9266" d="M8937.135 6633.633l1.092 1.9 1.946 2.307 1.951 1.612 1.934 1.358 3.028 1.441 1.575.7-9.88 9.584v-10.287h-10.193z" class="prefix__cls-1" data-name="Path 9266" transform="translate(-8353.089 -5608.405)"/>
        <g id="prefix__Group_14493" data-name="Group 14493" transform="translate(575 995.018)">
            <path id="prefix__Path_9263" fill="#023d4d" fill-rule="evenodd" d="M1918.57 611.952l8.141 8.143a.581.581 0 0 1 0 .824.589.589 0 0 1-.412.172h-9.618v9.616a.583.583 0 0 1-1 .412l-.01-.008-9.629-9.633a20.492 20.492 0 0 1-9.053.256c-.443-.09-.881-.191-1.312-.309l-9.645 9.645-.01.012a.584.584 0 0 1-1-.414v-9.616h-9.62a.572.572 0 0 1-.41-.172.587.587 0 0 1 0-.826l8.26-8.258a20.279 20.279 0 0 1-1.092-2.234 20.313 20.313 0 0 1 1.881-19.065 20.243 20.243 0 0 1 2.535-3.083 20.383 20.383 0 0 1 3.089-2.533 19.994 19.994 0 0 1 3.517-1.883 20.351 20.351 0 0 1 22.151 4.415l.028.031a20.316 20.316 0 0 1 3.2 24.51zm-24.159 9.088l-.158-.055-.051-.016.209.07zm-.209-.07l-.018-.008-.015-.006-.013-.006-.018-.008H1894.102l-.016-.008h-.018l-.012-.008h-.024l-.016-.008h-.022l-.014-.006h-.016l-.017-.01h-.016l-.018-.008-.016-.006-.019-.008h-.018l-.016-.008-.02-.006h-.006l-.057-.024c-.2-.072-.387-.148-.578-.226a20.4 20.4 0 0 1-6.6-4.417l-.027-.027-.016-.016-.012-.012-.027-.027-.006-.006-.021-.021-.021-.021-.006-.006-.027-.027-.01-.012-.018-.016-.025-.029-.024-.027-.017-.014-.012-.014-.027-.027v-.006l-.024-.022-.019-.021-.008-.008-.026-.029-.01-.008-.018-.021-.025-.027-.027-.027-.053-.061h-.006l-.049-.055-.026-.029-.008-.006a20.981 20.981 0 0 1-1.437-1.752l-.014-.023-.012-.014-.008-.01-.015-.023c-.068-.1-.141-.2-.209-.293l-.016-.023-.008-.008-.008-.014-.018-.023-.01-.016-.006-.008-.014-.023-.015-.023-.014-.021-.016-.023h-.006l-.012-.02-.016-.021-.01-.012v-.012l-.019-.023-.008-.018-.006-.006-.014-.022-.017-.023-.016-.025-.014-.019-.006-.008-.01-.019-.018-.022-.005-.012-.008-.012-.015-.021-.012-.018v-.008l-.013-.021-.016-.021-.017-.023-.014-.025-7.059 7.063h8.791a.584.584 0 0 1 .584.582v8.794l8.216-8.22-.209-.07zm-.572-1.467c.2.082.4.162.6.238h.015l.016.008h.014l.014.006.082.029.014.006.014.006.017.006.016.006h.016l.014.006.017.006.016.006.016.006h.015l.014.01h.034l.016.008h.014l.016.006h.018l.014.006.008.006h.008l.016.006.014.006h.027l.017.008h.014l.016.006h.016l.013.006.016.006h.033l.015.008.014.006h.028l.019.006H1894.955l.014.008h.017l.06.021c.2.061.395.123.6.182l.045.014h.006c.494.143 1 .267 1.512.365a19.248 19.248 0 0 0 8.813-.308.576.576 0 0 1 .076-.022h.01l.066-.018.047-.016.026-.006.076-.023h.008l.066-.02.073-.022.074-.023h.01l.063-.02a19.108 19.108 0 0 0 3.916-1.711l.066-.039.066-.039.051-.029.015-.01.266-.16.021-.012.043-.027.055-.037h.011l.065-.041.025-.016.041-.029.057-.035h.01l.064-.045.026-.018.039-.025.06-.039h.006l.063-.045.029-.018.037-.025.058-.041.066-.047.027-.02.035-.023.062-.043.062-.047.031-.02.031-.023.064-.045.062-.045.033-.026.027-.019.062-.047.059-.043.037-.027.024-.02.062-.047h.008l.056-.041.037-.029.024-.02.06-.045.008-.008.094-.072.021-.018.059-.047.012-.008.05-.041.041-.031.017-.016.061-.049.011-.01.051-.039.041-.035.016-.016.076-.058.043-.037.047-.039.014-.012.059-.051.018-.014.041-.037.049-.039.01-.008.059-.053.017-.016.041-.035.049-.045.066-.059.018-.018.039-.033.05-.045.008-.008.057-.053.021-.021.036-.029.05-.051h.008l.054-.051.026-.022.031-.033.051-.051.057-.053.027-.025.03-.029.052-.053.055-.057.027-.027.03-.027.055-.053a20.052 20.052 0 0 0 1.523-1.713 19.44 19.44 0 0 0 1.3-1.885l.013-.018a19.093 19.093 0 0 0 2.406-6.194 19.378 19.378 0 0 0 0-7.489 19.1 19.1 0 0 0-2.857-6.9 19.32 19.32 0 0 0-2.361-2.878l-.029-.027a19.067 19.067 0 0 0-9.809-5.251 19.209 19.209 0 0 0-11.076 1.086 18.974 18.974 0 0 0-3.31 1.773 19.23 19.23 0 0 0-2.912 2.392 19.107 19.107 0 0 0-2.39 2.906 19.1 19.1 0 0 0-2.857 6.9 19.208 19.208 0 0 0 1.086 11.076 19.338 19.338 0 0 0 1.234 2.463l.006.008v.006l.02.029.01.016.01.02.019.029.02.029.01.021.01.012.018.031.016.029.015.023v.008l.019.033.006.008.016.024.018.027.02.033.008.016.012.016.019.029.021.035.012.016.005.014.021.031v.006l.016.027.018.021.005.01.022.031v.01l.016.02.015.027v.006l.019.031.01.012.012.02.019.031.022.029.012.02.008.01.022.033h.005l.014.026.018.023v.008l.021.031.006.008.014.021.021.027v.006l.022.031.008.012.012.016.021.033.02.027.062.092.018.025.049.066.021.027.066.09.063.086.008.008a18.33 18.33 0 0 0 1.185 1.455l.008.006.146.16.01.016.012.012.026.025h.006l.021.023.019.021.08.086.027.027.01.014.016.016.027.025.024.025.015.016.011.012.026.027.024.024.02.018.006.01.027.027.008.008.017.018.024.024.025.027.012.01.016.016.025.028a19.293 19.293 0 0 0 6.226 4.161zm-6.646-21.442a.6.6 0 0 0-.431.2.584.584 0 0 0 .055.822l7.264 6.405-2.113 9.42a.575.575 0 0 0 .059.453.581.581 0 0 0 .8.2l8.339-4.931 8.331 4.941a.581.581 0 0 0 .861-.627l-2.113-9.454 7.274-6.4a.582.582 0 0 0-.33-1.016l-9.643-.91-3.839-8.9a.568.568 0 0 0-.3-.307.582.582 0 0 0-.762.3l-3.847 8.889-9.6.9zm10.046.226l-8.641.811 6.512 5.743a.581.581 0 0 1 .182.564l-1.9 8.471 7.469-4.417a.588.588 0 0 1 .6-.006l7.469 4.429-1.882-8.426a.583.583 0 0 1 .172-.611l6.518-5.735-8.6-.814a.585.585 0 0 1-.523-.352l-3.443-7.973-3.441 7.95a.58.58 0 0 1-.49.367zm15.812 20c-.109.078-.219.158-.332.234l-.036.023-.033.023c-.113.078-.224.152-.34.228l-.039.025-.03.02-.07.045h-.006l-.062.041-.071.045-.072.045h-.006l-.063.041-.044.027-.027.016-.068.041-.012.006-.058.037-.047.027-.024.016-.072.043-.012.006-.058.037-.049.027-.023.012-.057.035-.027.016-.027.016-.061.035-.02.01-.035.021-.057.031-.02.01-.039.023-.059.033-.01.006-.048.025-.057.029v.006l-.055.027-.057.031-.059.031-.053.027h-.006l-.057.029-.049.025-.012.008-.058.029-.041.02-.018.01-.059.029-.037.016-.021.016-.058.029-.033.014-.027.016-.058.027-.025.012-.036.019-.059.029-.02.006-.041.022-.061.029-.014.006-.045.021-.06.027h-.008l-.05.025-.062.029-.059.025-.059.025-.06.027-.051.023h-.008l-.062.027-.043.018-.016.008-.062.027-.06.025-.061.025-.15.065-.035.014-.061.025-.016.006-.047.02-.123.047-.058.023-.062.023c-.33.129-.666.252-1.006.361l8.192 8.192v-8.792a.585.585 0 0 1 .586-.582h8.792l-6.948-6.95c-.312.474-.644.932-.99 1.375a20.782 20.782 0 0 1-1.613 1.816l-.06.06-.03.029-.027.027-.058.055v.006l-.055.053-.031.031-.027.025-.059.057-.056.053-.033.033-.025.023-.061.055-.058.055-.039.037-.023.02-.059.057-.008.006-.053.049-.041.035-.022.018-.06.055-.01.01-.051.045-.043.037-.02.016-.062.057-.014.01-.049.043-.045.039-.017.014-.063.053-.015.014-.047.039-.047.041-.016.012-.062.051-.018.016-.047.037-.065.053-.063.051-.066.053-.049.041-.011.008-.068.051-.062.051-.057.041-.008.01-.066.051-.024.018-.041.033-.131.1-.025.02-.041.031-.131.1-.029.023z" data-name="Path 9263" transform="translate(-1874.829 -581.453)"/>
        </g>
    </g>
</svg>
