<svg xmlns="http://www.w3.org/2000/svg" width="51.892" height="46.5" viewBox="0 0 51.892 46.5">
    <path id="prefix__Swift_logo" fill="#a5adc0" d="M39.141 43.283c-6.113 3.531-14.517 3.894-22.973.27A35.928 35.928 0 0 1 0 29.715a27.243 27.243 0 0 0 5.972 3.641c8.732 4.093 17.463 3.813 23.607.01l-.009-.01c-8.74-6.7-16.169-15.44-21.7-22.577a24.93 24.93 0 0 1-2.918-3.933 168.109 168.109 0 0 0 21.121 16.023A155.636 155.636 0 0 1 11.215 4.224a147.743 147.743 0 0 0 24.472 20.1c.39.22.692.4.934.567a19.166 19.166 0 0 0 .668-2.024C39.329 15.441 37 6.991 31.9 0c11.8 7.138 18.791 20.538 15.877 31.755q-.114.454-.248.895.051.061.1.126c5.826 7.283 4.224 15 3.5 13.547-3.16-6.185-9.011-4.293-11.985-3.039z"/>
</svg>
