<svg xmlns="http://www.w3.org/2000/svg" width="95.104" height="285.21" viewBox="0 0 95.104 285.21">
    <defs>
        <style>
            .prefix__cls-2{fill:#260e0d}.prefix__cls-6{fill:#fc7575}.prefix__cls-7{fill:#fd5e5a}.prefix__cls-8{fill:#121841}.prefix__cls-9{fill:#2f499f}.prefix__cls-10{fill:#555da2}.prefix__cls-11{fill:#777eb5}
        </style>
    </defs>
    <g id="prefix__Group_14534" data-name="Group 14534">
        <path id="prefix__Path_9299" fill="#363a68" d="M359.663 363.98s2.387 14.279 9.877 23.892c5.6 7.186 17.308 15.195 17.308 15.195l-6.633 7.27-18.288-15.1z" data-name="Path 9299" transform="translate(-309.291 -301.173)"/>
        <path id="prefix__Path_9300" d="M336.585 343.557h-14.667l.474 48.237 19.472 1.313z" class="prefix__cls-2" data-name="Path 9300" transform="translate(-296.228 -294.105)"/>
        <path id="prefix__Path_9301" d="M360.953 691.961c8.262 0 8.06 3.4 8.06 3.4h-24.181s1.2-10.437 1.386-12.906h5.682c.624 3.014 2.708 9.506 9.053 9.506z" class="prefix__cls-2" data-name="Path 9301" transform="translate(-304.159 -411.393)"/>
        <path id="prefix__Path_9302" d="M303.4 693.207c7.522 0 9.059-9.118 9.275-10.756h5.433v.794c0 1.132 1.41 13.358 1.41 13.358h-24.174s-.202-3.396 8.056-3.396z" class="prefix__cls-2" data-name="Path 9302" transform="translate(-287.031 -411.393)"/>
        <path id="prefix__Path_9303" fill="#2f1954" d="M306.88 553.712l-7.722-65.287 2.181-19.322h42.5l.3 17.026 4.461 66.337s-11.086 55.235-10.9 56.147h-8.024c.015-.2 2.267-60.562 2.267-60.562l-9.169-53.772-3.587 56.44s1.63 50.875 1.655 57.893h-7.553c.026-.159-6.409-54.9-6.409-54.9z" data-name="Path 9303" transform="translate(-288.351 -337.555)"/>
        <path id="prefix__Path_9304" fill="#0e0e0e" d="M302.056 471.643l.286-2.54h42.5l.04 2.225-8.919 3.034a37.35 37.35 0 0 1-22.374.57z" data-name="Path 9304" transform="translate(-289.354 -337.555)"/>
        <path id="prefix__Path_9305" fill="#f1a97e" d="M296.583 356.941c4.62-5.191 15.315-13.475 27.1-11.476l12.317 5.47 3.622 26.584 3.243 50.639-43.922.5-4.177-49.294s-2.803-17.232 1.817-22.423z" data-name="Path 9305" transform="translate(-286.54 -294.66)"/>
        <path id="prefix__Path_9306" d="M335.383 324.653s.128 10.388 1.119 15.679a4.4 4.4 0 0 1-2.291 4.9 8.57 8.57 0 0 1-5.105.478c-5.527-1.053-5.715-7.263-5.715-7.263l1.864-18.944z" class="prefix__cls-6" data-name="Path 9306" transform="translate(-296.738 -285.779)"/>
        <path id="prefix__Path_9307" d="M325.966 319.5l10.128 5.155s.047 3.835.307 8.031c-2.643.13-5.964-1.369-9.488-5.889q-.786-1.007-1.468-2z" class="prefix__cls-7" data-name="Path 9307" transform="translate(-297.449 -285.779)"/>
        <path id="prefix__Path_9308" d="M332.481 286.451a18.179 18.179 0 0 1 4.966 7.894c1.5 4.948 2.811 8.526 2.811 8.526l-1.593 1.053s1.268 6.906.281 9.263c-1.5 3.58-7.823 6.474-14.99-1.579s-7.776-15.157-6.558-18.631 12.272-8.315 15.083-6.526z" class="prefix__cls-6" data-name="Path 9308" transform="translate(-294.491 -274.208)"/>
        <path id="prefix__Path_9309" d="M320.319 287.878a8.611 8.611 0 0 1 7.776-1.684c4.59 1.263 6.136-.685 5.246-1.684a6.025 6.025 0 0 0 5.528-3.58c1.5-3.684 1.124-14.842-6-12.736s-5.682 7.158-5.682 7.158-2.281-2.421-4.436-1.158a3.193 3.193 0 0 0-1.874 3.052s-1.968 4.105-4.685 4.632-2.435 6.631-2.435 6.631-1.593 1.263-.469 5.684 7.746 11.279 7.746 13.384c0 0 1.624-2.752.312-7.069s-1.312-6.841.094-6.841-1.121-5.789-1.121-5.789z" class="prefix__cls-8" data-name="Path 9309" transform="translate(-293.104 -267.932)"/>
        <path id="prefix__Path_9310" d="M325.636 309.732s-.457-3.631-1.476-3.631-1.968.395-1.722 2.447 1.3 4.342 2.636 3.395a1.628 1.628 0 0 0 .562-2.211z" class="prefix__cls-6" data-name="Path 9310" transform="translate(-296.395 -281.142)"/>
        <path id="prefix__Path_9311" d="M308.413 297.955a1.325 1.325 0 0 1 .624-.778c.953-.456 2.227.526 3.066 1.205l.142-.191a6.6 6.6 0 0 0-2-1.73 1.982 1.982 0 0 0-2.8 1.123z" class="prefix__cls-8" data-name="Path 9311" transform="translate(-291.218 -277.727)"/>
        <path id="prefix__Path_9312" d="M308.176 303.674a4.482 4.482 0 0 1 .032-1.688c.61-2.731 3.57-2.493 3.714-2.574v-.17c-.084.034-4.283-.882-4.884 3.529a5.164 5.164 0 0 0-.046 1.172z" class="prefix__cls-8" data-name="Path 9312" transform="translate(-291.057 -278.748)"/>
        <path id="prefix__Path_9313" d="M341.974 302.563c0 .894.351 1.618.785 1.618s.785-.725.785-1.618-.352-1.618-.785-1.618-.785.725-.785 1.618z" class="prefix__cls-9" data-name="Path 9313" transform="translate(-303.169 -279.358)"/>
        <path id="prefix__Path_9314" d="M339.219 299.868a3.186 3.186 0 0 1 3.636-.549l.294-1.165a3.461 3.461 0 0 0-4.042.637z" class="prefix__cls-9" data-name="Path 9314" transform="translate(-302.178 -278.259)"/>
        <path id="prefix__Path_9315" d="M346.588 346.363l3.274 98.29h20.375l-6.007-44.644-3.94-27.143s-1.91-18.253-6.06-21.514a48.9 48.9 0 0 0-7.642-4.989z" class="prefix__cls-10" data-name="Path 9315" transform="translate(-304.766 -295.076)"/>
        <path id="prefix__Path_9316" d="M325.506 308.846s-.594-1.231-1.126-1.055-.652 2.648.292 3.689 1.741-.666.834-2.634z" class="prefix__cls-7" data-name="Path 9316" transform="translate(-296.939 -281.721)"/>
        <path id="prefix__Path_9317" d="M311.092 345.543l2.145 98.826h-21.821s-.822-78.327 1.594-86.516 18.082-12.31 18.082-12.31z" class="prefix__cls-10" data-name="Path 9317" transform="translate(-285.625 -294.792)"/>
        <path id="prefix__Path_9318" d="M353.735 349.046l-9.387-5.489 3.032 48.862 5.147-27.715-1.817-1.25z" class="prefix__cls-11" data-name="Path 9318" transform="translate(-303.991 -294.105)"/>
        <path id="prefix__Path_9319" d="M318.291 391.957l-.8-48.4-8.363 3.8 4.555 16.06-1.156.9z" class="prefix__cls-11" data-name="Path 9319" transform="translate(-291.802 -294.105)"/>
        <path id="prefix__Path_9320" fill="#1e3340" d="M368.047 425.733l30.248-23.133-32.035-2.97-24.225 26.1z" data-name="Path 9320" transform="translate(-303.19 -313.512)"/>
        <path id="prefix__Path_9321" d="M345.187 424.532s-3.287.751-4.5 2.079c-1.551 1.7-5.231 4.452-6.778 4.452s-8.133.658-8.133.658l-1.106 7.4s24.577-5.749 25.734-7.014-5.764.94-5.764.375 8.337-1.2 7.906-2.62-7.691 1.915-8.336 1.21 8.766-1.88 8.766-3.383-9.368 2.174-9.368 2.174-.171-.764 2.364-1.986 4.993-2.206 4.431-2.82-7.043 3.28-7.9 2.345z" class="prefix__cls-6" data-name="Path 9321" transform="translate(-297.18 -322.13)"/>
        <path id="prefix__Path_9322" d="M296.028 360.286a32.243 32.243 0 0 1 2.859 16.285c-.713 9.613-1.93 24.353.07 29.159s16.65 0 16.65 0v11.375s-21.242 8.812-27.394 5.928-5.567-27.717-5.567-39.894 9.454-31.589 13.382-22.853z" class="prefix__cls-11" data-name="Path 9322" transform="translate(-282.631 -299.137)"/>
        <path id="prefix__Path_9323" fill="#eef1f9" d="M303.119 361.445a34.076 34.076 0 0 1 2.552 15.538c-.66 8.948-2.746 28.37 1.069 31.322 3.68 2.312 12 .007 15.958-1.416-3.887 1.053-14.891 3.646-16.319-.175-1.218-3.056-1.023-10.442-.908-13.727.443-14.2 2.147-19.2-.79-27.867a22.7 22.7 0 0 0-1.562-3.675z" data-name="Path 9323" transform="translate(-289.722 -300.296)"/>
        <path id="prefix__Path_9324" fill="#2b3278" d="M345.1 321.19l-.281 1.787a7.556 7.556 0 0 1-5.306-3.479c2.105 2.152 5.587 1.692 5.587 1.692z" data-name="Path 9324" transform="translate(-302.317 -285.779)"/>
        <path id="prefix__Path_9325" d="M391.044 423.676a10.094 10.094 0 0 1 1.105 2.167c.657 1.582-1.171 3.207-1.53 3.55a17.3 17.3 0 0 1-2.672 1.983 6.269 6.269 0 0 1-1.991.835c-1.081.241-3.5-3.691-3.171-4.068.224-.252.5-.45.747-.371s2.955 2.23 2.955 2.23-2.427-3.094-2.151-4.014.8-.807 1.008-.573 3.3 3.14 3.3 3.14-2.079-3.7-1.9-4.3 1.02-1.022 1.973.468a17.627 17.627 0 0 0 1.939 2.2s-1.169-2.79-.9-3.691 1.288.444 1.288.444z" class="prefix__cls-6" data-name="Path 9325" transform="translate(-317.283 -321.571)"/>
    </g>
</svg>
