<svg xmlns="http://www.w3.org/2000/svg" xmlns:xlink="http://www.w3.org/1999/xlink" width="489.468" height="273.582" viewBox="0 0 489.468 273.582">
  <defs>
    <linearGradient id="linear-gradient" x1="0.479" y1="0.042" x2="0.509" y2="0.95" gradientUnits="objectBoundingBox">
      <stop offset="0" stop-color="#fff"/>
      <stop offset="1" stop-color="#e2f0fa"/>
    </linearGradient>
    <linearGradient id="linear-gradient-2" x1="-56.428" y1="-7.667" x2="-56.612" y2="-6.829" gradientUnits="objectBoundingBox">
      <stop offset="0" stop-color="#fff" stop-opacity="0.502"/>
      <stop offset="1"/>
    </linearGradient>
    <linearGradient id="linear-gradient-3" x1="-94.185" y1="-9.697" x2="-94.483" y2="-8.672" xlink:href="#linear-gradient-2"/>
    <linearGradient id="linear-gradient-4" x1="0.088" y1="-0.094" x2="0.933" y2="1.024" gradientUnits="objectBoundingBox">
      <stop offset="0" stop-color="#f85254"/>
      <stop offset="0.996" stop-color="#f79865" stop-opacity="0.6"/>
    </linearGradient>
    <linearGradient id="linear-gradient-5" x1="0.162" y1="2.47" x2="-1.005" y2="9.508" gradientUnits="objectBoundingBox">
      <stop offset="0" stop-color="#172652" stop-opacity="0"/>
      <stop offset="1" stop-color="#00579f"/>
    </linearGradient>
    <linearGradient id="linear-gradient-6" x1="0.504" y1="0.599" x2="0.627" y2="0.71" gradientUnits="objectBoundingBox">
      <stop offset="0" stop-color="#172652" stop-opacity="0"/>
      <stop offset="0.602" stop-color="#094380" stop-opacity="0.604"/>
      <stop offset="1" stop-color="#00579f"/>
    </linearGradient>
  </defs>
  <g id="Group_15289" data-name="Group 15289" transform="translate(-715 -308.379)">
    <path id="Path_12217" data-name="Path 12217" d="M901.753,685.138a26.028,26.028,0,0,1-6.909,7,28.883,28.883,0,0,1-16.639,4.8A25.338,25.338,0,0,0,852.957,721.2c-.013.33-.02.664-.02,1A46.225,46.225,0,0,1,806.843,768.3H496.925a59.881,59.881,0,0,1,0-119.762H498.5a12.017,12.017,0,0,0,0-24.034H491.89a29.213,29.213,0,0,1-.057-58.425h28.507A25.34,25.34,0,0,0,545.6,540.809a46.231,46.231,0,0,1,46.093-46.1H827.258a59.881,59.881,0,0,1,0,119.762,12.017,12.017,0,0,0,0,24.034H878.2C905.393,638.509,913.242,668.068,901.753,685.138Z" transform="translate(297.596 -186.333)" fill-rule="evenodd" fill="url(#linear-gradient)"/>
    <path id="Path_12218" data-name="Path 12218" d="M279.4,2090.812h.007c-.391.408-.772.823-1.142,1.24C278.635,2091.635,279.016,2091.22,279.4,2090.812Z" transform="translate(436.732 -1591.905)" fill="#83d9ff" fill-rule="evenodd"/>
    <path id="Path_12220" data-name="Path 12220" d="M4188.132,2165.552c.159-.172.317-.344.468-.515-.151.172-.3.347-.458.515Z" transform="translate(-2989.52 -1656.95)" fill="#4fbafc" fill-rule="evenodd"/>
    <g id="Group_15222" data-name="Group 15222" transform="translate(830.422 418.226)">
      <path id="Path_12242" data-name="Path 12242" d="M1223.3,1510.57h-8.04a3.87,3.87,0,0,1-3.859-3.859v-55.1a13.115,13.115,0,0,1,13.075-13.076h8.04a13.115,13.115,0,0,0-13.076,13.076v55.1A3.87,3.87,0,0,0,1223.3,1510.57Z" transform="translate(-1211.406 -1438.535)" fill="#107d7f"/>
      <path id="Path_12243" data-name="Path 12243" d="M1348.439,1442.394v64.317a3.87,3.87,0,0,1-3.859,3.859h-64.317a3.87,3.87,0,0,1-3.859-3.859v-55.1a13.115,13.115,0,0,1,13.076-13.076h55.1A3.87,3.87,0,0,1,1348.439,1442.394Z" transform="translate(-1268.364 -1438.535)" fill="#169aa3"/>
    </g>
    <g id="Group_15223" data-name="Group 15223" transform="translate(954.23 422.728)">
      <path id="Path_12244" data-name="Path 12244" d="M2223.509,1542.467h-7.523a3.625,3.625,0,0,1-3.611-3.618v-51.657a12.284,12.284,0,0,1,12.235-12.258h7.523a12.284,12.284,0,0,0-12.235,12.258v51.657A3.625,3.625,0,0,0,2223.509,1542.467Z" transform="translate(-2212.375 -1474.934)" fill="#107d7f"/>
      <path id="Path_12245" data-name="Path 12245" d="M2340.6,1478.552v60.3a3.625,3.625,0,0,1-3.611,3.618h-60.184a3.625,3.625,0,0,1-3.611-3.618v-51.657a12.284,12.284,0,0,1,12.236-12.258h51.56A3.625,3.625,0,0,1,2340.6,1478.552Z" transform="translate(-2265.673 -1474.934)" fill="#169aa3"/>
    </g>
    <g id="Group_15224" data-name="Group 15224" transform="translate(788.291 486.106)">
      <rect id="Rectangle_1535" data-name="Rectangle 1535" width="302.934" height="45.022" transform="translate(35.374 43.71)" fill="#27b99c"/>
      <rect id="Rectangle_1536" data-name="Rectangle 1536" width="26.048" height="52.097" rx="13.024" transform="translate(16.079 43.71)" fill="#18836e"/>
      <rect id="Rectangle_1537" data-name="Rectangle 1537" width="20.26" height="52.097" rx="10.13" transform="translate(16.079 43.71)" fill="#1da389"/>
      <rect id="Rectangle_1538" data-name="Rectangle 1538" width="26.048" height="52.097" rx="13.024" transform="translate(325.445 43.71)" fill="#18836e"/>
      <rect id="Rectangle_1539" data-name="Rectangle 1539" width="19.938" height="52.097" rx="9.969" transform="translate(331.555 43.71)" fill="#1da389"/>
      <path id="Path_12246" data-name="Path 12246" d="M1256.293,2024.6H891.615l31.039-37.278h301.8l10.609,12.423Z" transform="translate(-889.043 -1987.326)" fill="#326483"/>
      <rect id="Rectangle_1540" data-name="Rectangle 1540" width="369.823" height="12.863" rx="6.432" transform="translate(0 37.278)" fill="#0c9aa3"/>
    </g>
    <path id="Path_12247" data-name="Path 12247" d="M2305.1,1196.422s-18.37-30.815-27.443-48.961a22.76,22.76,0,0,0-8.743-9.062c-5.6-8.724-1.005-15.9-.672-20.6.661-9.324-.141-31.426-17.452-32.19a7.247,7.247,0,0,0-2.443-.526c-2.128-1.573-5.541-2.8-10.168-.426a.729.729,0,0,0-.154.078l-.017.01-.006,0c-2.714-1.213-7.55-2.551-11.53.73-3.805,3.14-5.081,7.68-5.506,10.5a3.985,3.985,0,0,0,2.323,3.891,47.522,47.522,0,0,0-1.935,4.644,2.961,2.961,0,0,0-2.26,1.9,3.007,3.007,0,0,0,.843,3.041,27.106,27.106,0,0,0,.028,12.745c1.457,5.428-1.528,8.327-5.087,10.868h-11.061a12.284,12.284,0,0,0-12.236,12.258v51.657a3.625,3.625,0,0,0,3.611,3.618h67.707a3.625,3.625,0,0,0,3.611-3.618v-.563Z" transform="translate(-1239.916 -709.043)" fill="#ccc" opacity="0.7" style="mix-blend-mode: multiply;isolation: isolate"/>
    <g id="Group_15236" data-name="Group 15236" transform="translate(964.727 372.991)">
      <path id="Path_12248" data-name="Path 12248" d="M2349.874,1101.2s-9.043,13.721-5.614,26.507-17.775,11.538-13.1,24.636,21.829,9.044,21.829,9.044,19.335,9.667,30.562,6.237,15.281-14.969,9.667-23.7-1.017-15.916-.684-20.613c.684-9.636-.2-32.923-19.247-32.195Z" transform="translate(-2326.37 -1088.842)" fill="#352d29"/>
      <path id="Path_12249" data-name="Path 12249" d="M2548.68,1351.353l-.935,9.667s5.3,17.464,14.345,15.593,1.559-19.335,1.559-19.335l-1.559-15.593Z" transform="translate(-2516.757 -1308.429)" fill="#ffba94"/>
      <path id="Path_12250" data-name="Path 12250" d="M2400.241,1531.987h-94.8a48.525,48.525,0,0,1-2.529-4.316c-2.673-5.061-6.4-13.824-5.579-22.191.9-9.262,7.045-19.506,10.36-24.449a14.81,14.81,0,0,1,5.042-4.855l15.159-7.182s7.485,19.959,15.281,17.464c4-1.279.936-18.711.936-18.711s21.83,1.559,28.69,15.281C2381.871,1501.172,2400.241,1531.987,2400.241,1531.987Z" transform="translate(-2297.216 -1418.898)" fill="#27b99c"/>
      <path id="Path_12251" data-name="Path 12251" d="M2542.7,1442.8l.593-5.3a53.284,53.284,0,0,1,8.944,20.97S2542.7,1447.792,2542.7,1442.8Z" transform="translate(-2512.337 -1392.395)" fill="#1e9a81"/>
      <g id="Group_15225" data-name="Group 15225" transform="translate(19.767 7.808)">
        <path id="Path_12252" data-name="Path 12252" d="M2459.97,1144.062s-4.714,20.536,2.309,26.874a10.369,10.369,0,0,0,2.6,1.705c4.981,2.29,11.872,1.752,16.927-4.844,6.029-7.865,6.266-21.311,6.266-21.311l-12.114-10.539-.531.113-9.117,1.916Z" transform="translate(-2458.249 -1135.948)" fill="#f9a880"/>
        <path id="Path_12253" data-name="Path 12253" d="M2458.749,1144.864a76.137,76.137,0,0,0-1.366,8.4,58.2,58.2,0,0,0-.353,6.647c.041,5.025,1.2,9.272,4.028,11.822a10.368,10.368,0,0,0,2.6,1.705c4.883,1.594,11.677.181,16.338-5.9,6.029-7.865,10.507-19.1,10.507-19.1l-16.3-11.578-9.118,1.916Z" transform="translate(-2457.027 -1136.749)" fill="#ffba94"/>
      </g>
      <path id="Path_12254" data-name="Path 12254" d="M2671.286,1087.018s5.148-.154,10.369,7.253l-10.371-2.884Z" transform="translate(-2625.015 -1085.262)" fill="#443a36"/>
      <path id="Path_12255" data-name="Path 12255" d="M2528.936,1084.082a9.677,9.677,0,0,0,1.678.181s3.719-1.032,4.262,1.114-.132,13.763,11.371,18.26l0,.258-.13,7.149s12.731-3.587,12.477-17.777-11.735-15.916-11.735-15.916-5.472-9.323-15.826-1.215C2523.577,1081.973,2526.637,1083.617,2528.936,1084.082Z" transform="translate(-2497.979 -1072.823)" fill="#352d29"/>
      <path id="Path_12256" data-name="Path 12256" d="M2449.718,1086.136a4.067,4.067,0,0,0,2.606,4.033,38.144,38.144,0,0,0,6.184,2.222c.526.139,1.008.256,1.438.352,1.059.237,2-.329,2.02-1.224a14.947,14.947,0,0,1,.229-2.082,22.3,22.3,0,0,1,3.445-8.541l2.856-4.293.375-.563s-.319-.216-.873-.521c-.336-.181-.755-.395-1.243-.61-2.714-1.213-7.55-2.552-11.53.73C2451.419,1078.778,2450.143,1083.319,2449.718,1086.136Z" transform="translate(-2430.827 -1073.487)" fill="#352d29"/>
      <path id="Path_12257" data-name="Path 12257" d="M2544.872,1222.781a7.686,7.686,0,0,1-1.283-.741c-.44-.291-.885-.578-1.277-.822s-.847-.518-1.3-.785a7.6,7.6,0,0,1-1.227-.822c-.294-.274-.311-.545.237-.524a7.22,7.22,0,0,1,2.955,1.188,6.79,6.79,0,0,1,2.317,2.1C2545.525,1222.836,2545.255,1222.928,2544.872,1222.781Z" transform="translate(-2509.602 -1200.994)" fill="#352d29"/>
      <path id="Path_12258" data-name="Path 12258" d="M2465.971,1222.079a3.414,3.414,0,0,1-.866-.036c-.306-.037-.615-.071-.884-.094s-.58-.043-.888-.058a3.391,3.391,0,0,1-.858-.112c-.225-.079-.3-.257-.009-.442a3.351,3.351,0,0,1,1.863-.269,3.183,3.183,0,0,1,1.758.579C2466.33,1221.879,2466.211,1222.04,2465.971,1222.079Z" transform="translate(-2441.859 -1202.715)" fill="#352d29"/>
      <path id="Path_12259" data-name="Path 12259" d="M2457.067,1276.564a55.892,55.892,0,0,0-.339,6.376,7.947,7.947,0,0,0,.8-2.873A7.645,7.645,0,0,0,2457.067,1276.564Z" transform="translate(-2436.997 -1251.363)" fill="#fca286"/>
      <path id="Path_12260" data-name="Path 12260" d="M2477.844,1297.677l-1.5,1.8s-.523-1.085.281-1.679A1.387,1.387,0,0,1,2477.844,1297.677Z" transform="translate(-2454.042 -1269.785)" fill="#ffba94"/>
      <path id="Path_12261" data-name="Path 12261" d="M2475.237,1282.307l.059.023.779.268a.185.185,0,0,0,.218-.131.173.173,0,0,0-.082-.234l-.779-.268a.76.76,0,0,1-.463-.587,1.845,1.845,0,0,1,.094-1.054l.04-.108c.107-.285.335-.469.511-.409a.91.91,0,0,0,.841-.184,1.921,1.921,0,0,0,.628-.873l.566-1.542a.18.18,0,0,0-.083-.233.185.185,0,0,0-.217.132l-.566,1.541a1.459,1.459,0,0,1-.475.665.608.608,0,0,1-.558.13c-.34-.117-.765.184-.946.67l-.04.108a2.287,2.287,0,0,0-.113,1.308A1.07,1.07,0,0,0,2475.237,1282.307Z" transform="translate(-2452.659 -1251.716)" fill="#ff806d"/>
      <ellipse id="Ellipse_483" data-name="Ellipse 483" cx="5.79" cy="5.275" rx="5.79" ry="5.275" transform="matrix(0.543, -0.84, 0.84, 0.543, 29.693, 34.454)" fill="#fca286"/>
      <path id="Path_12262" data-name="Path 12262" d="M2488.278,1351.52s3.893.877,5.8.241c0,0-.822,4.928-2.739,4.179S2488.278,1351.52,2488.278,1351.52Z" transform="translate(-2464.645 -1317.048)" fill="#ff806d"/>
      <g id="Group_15226" data-name="Group 15226" transform="translate(29.935 24.195)">
        <path id="Path_12263" data-name="Path 12263" d="M2539.283,1269.517a1.112,1.112,0,1,0,1.382-1.062A1.249,1.249,0,0,0,2539.283,1269.517Z" transform="translate(-2539.231 -1268.429)" fill="#352d29"/>
        <path id="Path_12264" data-name="Path 12264" d="M2554.267,1272.96a1.921,1.921,0,0,0,1-.438,3.929,3.929,0,0,1-.661.8C2554.319,1273.533,2554.267,1272.96,2554.267,1272.96Z" transform="translate(-2552.407 -1272.016)" fill="#352d29"/>
      </g>
      <g id="Group_15227" data-name="Group 15227" transform="translate(21 23.054)">
        <path id="Path_12265" data-name="Path 12265" d="M2469.736,1260.63c-.113.674-.59,1.182-1.067,1.133s-.771-.635-.659-1.31.591-1.182,1.067-1.133S2469.849,1259.955,2469.736,1260.63Z" transform="translate(-2467.864 -1259.303)" fill="#352d29"/>
        <path id="Path_12266" data-name="Path 12266" d="M2467.58,1259.878a1.426,1.426,0,0,1-.589-.668,3.556,3.556,0,0,0,.217.873C2467.348,1260.348,2467.58,1259.878,2467.58,1259.878Z" transform="translate(-2466.992 -1259.21)" fill="#352d29"/>
      </g>
      <path id="Path_12267" data-name="Path 12267" d="M2681.563,1183.613s8-6.833,6.958-14.846C2688.521,1168.768,2688.011,1177.672,2681.563,1183.613Z" transform="translate(-2634.023 -1156.9)" fill="#443a36"/>
      <path id="Path_12268" data-name="Path 12268" d="M2639.477,1162.113s9.629-4.236,10.944-12.208C2650.421,1149.905,2647.365,1158.284,2639.477,1162.113Z" transform="translate(-2597.142 -1140.371)" fill="#443a36"/>
      <path id="Path_12269" data-name="Path 12269" d="M2547.49,1141.329a9.679,9.679,0,0,0,1.678.181s3.719-1.032,4.261,1.114-.132,13.763,11.371,18.26l0,.258c.994-.028.846-.4-1.486-1.393-8.294-3.519-7.1-15.761-8.944-19.522s-5.5-1.265-5.5-1.265Z" transform="translate(-2516.533 -1130.07)" opacity="0.6" fill="url(#linear-gradient-2)" style="mix-blend-mode: multiply;isolation: isolate"/>
      <path id="Path_12270" data-name="Path 12270" d="M2519.562,1100.023c.027.306.064.6.109.88.526.139,1.008.256,1.437.352,1.059.237,2-.329,2.021-1.224a15.015,15.015,0,0,1,.228-2.082,22.3,22.3,0,0,1,3.445-8.542l3.247-4.9c-.16-.43-.718-.19-.89-.478-.386-.646-.792-.907-1.22-.624l-.022.013A17.528,17.528,0,0,0,2519.562,1100.023Z" transform="translate(-2491.989 -1081.998)" opacity="0.6" fill="url(#linear-gradient-3)" style="mix-blend-mode: multiply;isolation: isolate"/>
      <g id="Group_15232" data-name="Group 15232" transform="translate(16.653 20.864)">
        <g id="Group_15228" data-name="Group 15228" transform="translate(10.053 0.854)">
          <path id="Path_12271" data-name="Path 12271" d="M2523.275,1252.007c.036,1.722-1.536,2.87-3.035,3.331a6.3,6.3,0,0,1-5.3-.655,2.68,2.68,0,0,1-.733-3.991,5.794,5.794,0,0,1,4.836-1.806c1.78.108,4.083,1.08,4.237,3.12.022.3.49.3.468,0-.143-1.9-1.893-3.062-3.616-3.438a6.673,6.673,0,0,0-5.946,1.454,3.1,3.1,0,0,0-.324,4.313c1.359,1.614,3.8,2,5.776,1.632,1.948-.366,4.156-1.742,4.11-3.961A.234.234,0,0,0,2523.275,1252.007Z" transform="translate(-2513.129 -1248.403)" fill="#211e1c"/>
        </g>
        <g id="Group_15229" data-name="Group 15229">
          <path id="Path_12272" data-name="Path 12272" d="M2431.992,1243.659c-.955,3.2,3.151,5.491,5.8,4.18a2.983,2.983,0,0,0,1.589-3.521,4.165,4.165,0,0,0-3.326-2.756,3.559,3.559,0,0,0-4.067,2.1c-.1.283.348.406.451.125,1.284-3.518,7.667-1.391,6.478,2.164s-7.547,1.421-6.478-2.164A.234.234,0,0,0,2431.992,1243.659Z" transform="translate(-2431.851 -1241.502)" fill="#211e1c"/>
        </g>
        <g id="Group_15230" data-name="Group 15230" transform="translate(7.093 3.681)">
          <path id="Path_12273" data-name="Path 12273" d="M2492.429,1272.528c-.762-1.052-2.143-1.867-3.174-.671-.2.227.134.559.331.331.813-.943,1.849-.238,2.439.576.175.241.581.008.4-.236Z" transform="translate(-2489.196 -1271.265)" fill="#211e1c"/>
        </g>
        <g id="Group_15231" data-name="Group 15231" transform="translate(20.188 4.206)">
          <path id="Path_12274" data-name="Path 12274" d="M2595.228,1275.962l9.667,2.495a.234.234,0,0,0,.125-.451l-9.667-2.495a.234.234,0,0,0-.124.451Z" transform="translate(-2595.061 -1275.503)" fill="#211e1c"/>
        </g>
      </g>
      <path id="Path_12275" data-name="Path 12275" d="M2661.247,1277.751s2.245-3.8,5.717-1.688,2.034,8.359-1.457,10.716-5.84-1.448-5.84-1.448Z" transform="translate(-2614.835 -1250.364)" fill="#ffba94"/>
      <path id="Path_12276" data-name="Path 12276" d="M2680.923,1308.16a.477.477,0,0,1-.3-.2l-1.629-2.359,3.349-2.73a.474.474,0,0,1,.7.1.57.57,0,0,1-.109.755l-2.541,2.072,1.042,1.51a.569.569,0,0,1-.111.755A.482.482,0,0,1,2680.923,1308.16Z" transform="translate(-2631.77 -1274.317)" fill="#ff806d"/>
      <path id="Path_12277" data-name="Path 12277" d="M2658.331,1404.932s-5.011,12.732,1.559,23.362l1.017-15.373Z" transform="translate(-2612.062 -1363.853)" fill="#1e9a81"/>
      <path id="Path_12278" data-name="Path 12278" d="M2423.263,1589.03s.643-1.929,6.753-.965c0,0-1.93-14.793-8.04-27.335a176.75,176.75,0,0,1,12.22,24.44c6.11,15.436,41.206,1.853,40.841,6.11-2.894,33.766-54.67,2.251-54.67,2.251Z" transform="translate(-2405.135 -1500.381)" fill="#1e9a81"/>
    </g>
    <g id="Group_15237" data-name="Group 15237" transform="translate(971.563 466.39)">
      <path id="Path_12280" data-name="Path 12280" d="M2684.707,1900.423a9.4,9.4,0,0,1,2.473-.708c.345.145.063,2.4.063,2.4s-2.267,10.35-4.375,10.531.429-8.276.429-8.276Z" transform="translate(-2641.27 -1890.821)" fill="#e07127"/>
      <path id="Path_12281" data-name="Path 12281" d="M2634.885,1851.476l8.592.587a7.543,7.543,0,0,0,4.165-.923c3.094-1.71,8.98-4.935,10.76-5.709a30.009,30.009,0,0,1,5.578-1.411.765.765,0,0,1,.6,1.363l-4.735,3.6a1.3,1.3,0,0,0,.451,2.289l5.753,1.533a5.74,5.74,0,0,0,2.437.114c2.362-.4,7.67-1.135,10.687-.274a.5.5,0,0,1,.057.94l-2.191.952-4.417,1.24-.206.867-2.6,3.856a7.393,7.393,0,0,1-1.558,1.674l-3.073,2.416a5.886,5.886,0,0,1-4.728,1.157l-16.892-3.182a11.3,11.3,0,0,0-1.841-.193l-9.278-.207Z" transform="translate(-2597.809 -1842.017)" fill="#ffba94"/>
      <path id="Path_12282" data-name="Path 12282" d="M2406.079,1841.835a16.383,16.383,0,0,0-.093,6.4c.059.366.13.741.211,1.127a.008.008,0,0,0-.005,0c-.406.186-20.717,9.473-35.227-1.13l5.355-13.619a8.85,8.85,0,0,1,1.2-1.587c2.12-2.32,7.3-6.221,17.4-4.806,14.093,1.973,14.093,8.456,14.093,8.456A8.86,8.86,0,0,0,2406.079,1841.835Z" transform="translate(-2368.679 -1827.923)" fill="#27b99c"/>
      <path id="Path_12283" data-name="Path 12283" d="M2390,1885.545a.009.009,0,0,0-.006,0c-.406.186-20.717,9.473-35.227-1.13a43.856,43.856,0,0,1-2.286-3.9l7.641-9.718a8.842,8.842,0,0,1,1.2-1.587c2.573,4.3,9.577,9.656,28.558,8.805a16.389,16.389,0,0,0-.093,6.4C2389.851,1884.784,2389.921,1885.158,2390,1885.545Z" transform="translate(-2352.485 -1864.104)" fill="#1e9a81"/>
      <path id="Path_12284" data-name="Path 12284" d="M2654.534,1898.721s-5.073,2.819-2.819,12.684l3.642.428a1.01,1.01,0,0,0,1.129-1c.009-2.642.365-9.167,3.55-11.658a.252.252,0,0,0-.15-.454Z" transform="translate(-2614.197 -1889.964)" fill="#1e9a81"/>
    </g>
    <path id="Path_12285" data-name="Path 12285" d="M1363.862,1040.7c-.466-1.63-13.91.786-21.3,2.244.926-.347,1.888-.738,2.669-1.128,4.008-2,2.226-4.332,2.226-4.332l-9.189,2.533-7.189,4.827-3.234,8.163-12.621,9.657-.527-.691-12.159,6.85c-.711.328-1.4.662-2.058,1-.588.3-1.157.6-1.711.91l-1.334-1.438-7.175-7.731-.041.016h0c-.769-.942-12.554-15.3-16.164-19.337-2.626-2.938-7.757-6.919-10.567-9.02q-.045-.615-.118-1.219a11.842,11.842,0,0,0,5.581-3.606c3-3.565,3.175-7.973,4.093-11.806a75.335,75.335,0,0,0,1.6-10.427c.01-.108.019-.215.029-.323v0l1.973-11.117a8.139,8.139,0,0,0,4.979-5.9c.559-2.9-1.137-4.222-3.2-4.8a9.092,9.092,0,0,0,.422-2.337h0a10.152,10.152,0,0,0,.251-1.54c.5-5.976-8.016-11.34-14.146-7.758s-3.677,3.539-15.094,2.833c-8.648-.535-10.759,5.9-11.275,9.051-2.017-.455-4.737-.207-6.368,3.494-1.036,2.352-.722,5.211.09,7.892l0-.005s.414,4.3,1.1,7.939a9.674,9.674,0,0,0,1.847,8.7c.068,1.705.356,5.4,1.587,5.894a3.871,3.871,0,0,0,2.333.186l-.635,2.6c-8.232,1.142-10.273,4.981-10.273,4.981.011.089.024.173.036.261l-1.187-.324s-25.809,4.943-43.487,20.528c-23.011,20.288-35.5,49.738-11.356,59.633l68.5,2.884h0v6.111l19.143.808a24.313,24.313,0,0,1,1.171-10c.888-2.56,1.767-4.92,2.5-6.816h-2.247c.448-1.277.89-2.495,1.308-3.622.331-.891.648-1.728.94-2.488.329-.848.624-1.6.879-2.246h0c.485-1.227.816-2.024.9-2.228a21.741,21.741,0,0,0,5.065,4.561l.026.017.326.207.342.217.06.037c6.335,3.988,12.742,7.011,15.656,7.78a14.866,14.866,0,0,0,3.5,1.167,15.127,15.127,0,0,0,3.956.248l1.63.154a10.013,10.013,0,0,0,4.361-1.544,39.48,39.48,0,0,0,10.67-6.637c.865-.724,1.711-1.47,2.531-2.225a101.321,101.321,0,0,0,13.089-14.934l-2.649-3.469,12.359-14.547-.529-.424.461.283s9.326.322,12.22-1.286,1.93-2.894,1.93-2.894a4.175,4.175,0,0,0,1.608-4.181c-.643-2.573-.322-1.608-.322-1.608.322-.965-.965-3.859-.965-3.859S1364.612,1043.325,1363.862,1040.7Z" transform="translate(-335.219 -610.813)" fill="#bcbcbc" opacity="0.61" style="mix-blend-mode: multiply;isolation: isolate"/>
    <g id="Group_15241" data-name="Group 15241" transform="translate(821.262 358.411)">
      <path id="Path_12286" data-name="Path 12286" d="M2540.553,1515.9s25.406-5.467,26.048-3.216c.75,2.624-13.185,4.824-13.185,4.824s1.286,2.894.964,3.859c0,0-.322-.965.322,1.608a4.175,4.175,0,0,1-1.608,4.181s.964,1.286-1.929,2.894-12.22,1.286-12.22,1.286l-4.18-2.573Z" transform="translate(-2361.919 -1443.218)" fill="#ffba94"/>
      <path id="Path_12287" data-name="Path 12287" d="M1268.445,1432.569l-1.059,19.472-.253,4.6-.806,14.868-.049.889a.8.8,0,0,1-.08-.009c-2.357-.246-10.261-3.721-17.573-8.414a18.393,18.393,0,0,1-3.176-2.6c-.009-.009-.016-.019-.028-.031-.689-.7-1.179-1.29-1.5-1.622-.212-.212-.329-.345-.357-.372l-.006-.006s-.357.849-.923,2.281c-.255.643-.551,1.4-.88,2.247-.726,1.9-1.607,4.257-2.493,6.817a24.276,24.276,0,0,0-1.173,10l-19.143-.809-68.5-2.884c-24.141-9.895-11.655-39.344,11.357-59.632,17.678-15.585,43.487-20.528,43.487-20.528l4.2,1.148,30.223,4.746s8.793,6.285,12.523,10.458c3.61,4.035,15.394,18.4,16.164,19.337Z" transform="translate(-1137.358 -1342.174)" fill="#023d4d"/>
      <path id="Path_12288" data-name="Path 12288" d="M1771.509,1271.049l-4.009,16.423s.889,11.331,8.47,12.061,10.453-1.548,11.754-3l2.034-14.521Z" transform="translate(-1689.557 -1231.95)" fill="#f9a880"/>
      <path id="Path_12289" data-name="Path 12289" d="M1904,1403.64s-.1,7.312-5.089,11.552c0,0,3.411,4.1,5.547,7.337a1.558,1.558,0,0,0,2.6,0c1.436-2.223,2.509-8.437,1.832-13.734Z" transform="translate(-1804.718 -1348.141)" fill="#06242b"/>
      <path id="Path_12290" data-name="Path 12290" d="M1838.078,1462.845l-2.1,4.761,2.575,12.932a1.266,1.266,0,0,0,2.483,0l3.387-16.73Z" transform="translate(-1749.569 -1400.023)" fill="#f9a880"/>
      <path id="Path_12291" data-name="Path 12291" d="M1706.591,1363.115c1.058,3.5,3.228,8.859,7.143,11.8a12.711,12.711,0,0,1-7.382,5.36,4.833,4.833,0,0,1-5.4-2.314,42.893,42.893,0,0,1-5.1-15.939s2.045-3.849,10.3-4.986h0A13.747,13.747,0,0,0,1706.591,1363.115Z" transform="translate(-1626.777 -1307.301)" fill="#06242b"/>
      <path id="Path_12292" data-name="Path 12292" d="M2133.463,1713.946c-.328,4.284-1.094,8.7-4.551,11.034a10.018,10.018,0,0,1-4.361,1.543l-1.63-.155-4.184-.4-2.045-.691-.035-.151-4.03-16.388-.91-3.708-3.859-15.687,11-4.087.042-.016,7.175,7.731,1.334,1.438,3.795,4.084S2134.025,1706.543,2133.463,1713.946Z" transform="translate(-1987.816 -1594.911)" fill="#023d4d"/>
      <path id="Path_12293" data-name="Path 12293" d="M2170.678,1704.053a101.341,101.341,0,0,1-13.089,14.934c-.82.756-1.666,1.5-2.531,2.225a39.472,39.472,0,0,1-10.67,6.638,20.029,20.029,0,0,1-5.992,1.389,15.118,15.118,0,0,1-3.955-.248,14.862,14.862,0,0,1-3.5-1.167,18.311,18.311,0,0,1-5.084-3.689c-.074-.074-.145-.157-.215-.238a9.7,9.7,0,0,1-.1-1.045,22.563,22.563,0,0,1,2.56-11.243c.332-.653.7-1.315,1.116-1.987q.5-.81,1.087-1.63a30.007,30.007,0,0,1,2.634-3.177,40.946,40.946,0,0,1,9.947-7.535c.553-.306,1.122-.611,1.711-.91.66-.341,1.348-.675,2.058-1l12.159-6.85.528.691,8.686,11.375Z" transform="translate(-2003.292 -1597.782)" fill="#023d4d"/>
      <path id="Path_12294" data-name="Path 12294" d="M2045.859,1757.331c-.643,1.077-1.312,2.122-2.01,3.122-.82.756-1.666,1.5-2.531,2.225a39.474,39.474,0,0,1-10.67,6.638,10.016,10.016,0,0,1-4.361,1.544l-1.63-.154a15.128,15.128,0,0,1-3.956-.248c-.27-.1-.543-.2-.817-.306l-1.457-.537-.344-.151a6.164,6.164,0,0,1-.881-.174c-3.026-.8-9.818-4.026-16.385-8.242a18.392,18.392,0,0,1-3.174-2.6c-.01-.01-.016-.019-.029-.032-1.187-1.351-1.83-2.219-1.885-2.274l-.007-.01,8.191-20.3a38.883,38.883,0,0,0,9.538,13.532c.643.589,1.318,1.164,2.026,1.72q1.259.994,2.656,1.894c.389.251.785.5,1.193.733a33.646,33.646,0,0,0,15.87,4.566A43.19,43.19,0,0,0,2045.859,1757.331Z" transform="translate(-1889.552 -1639.248)" fill="#06242b"/>
      <path id="Path_12295" data-name="Path 12295" d="M1403.031,1846.085s6.4-5.434,17.827-2.049c14.177,4.2,22.625,14.684,22.506,16.811,0,0,2.061-1.814-1.449-6.789C1435.418,1844.852,1409.757,1834.876,1403.031,1846.085Z" transform="translate(-1370.17 -1731.502)" fill="#f27c49"/>
      <path id="Path_12296" data-name="Path 12296" d="M1544.248,1536.449a40.011,40.011,0,0,1-.818,14.589c-2.185,8.439-9.922,19.262-9.922,19.262l-.935-5.083A54.925,54.925,0,0,0,1544.248,1536.449Z" transform="translate(-1483.689 -1464.523)" fill="#06242b"/>
      <path id="Path_12297" data-name="Path 12297" d="M1722.169,1920.67c-.255.642-.55,1.4-.879,2.247-.728,1.9-1.607,4.256-2.5,6.816a24.31,24.31,0,0,0-1.171,10l-19.143-1.073-13.9-.781a76.615,76.615,0,0,0,13.9-2.388c11.272-3.092,17.984-8.261,21.85-12.572C1721.035,1922.133,1721.644,1921.38,1722.169,1920.67Z" transform="translate(-1616.895 -1801.219)" opacity="0.6" fill="url(#linear-gradient-4)"/>
      <path id="Path_12298" data-name="Path 12298" d="M1999.738,1871.169a22.956,22.956,0,0,1-5.249-4.746,50.734,50.734,0,0,1,2.154-4.924Z" transform="translate(-1888.47 -1749.367)" fill="#06242b"/>
      <path id="Path_12299" data-name="Path 12299" d="M1752.189,1279.94s0,6.11,1.608,6.753a3.758,3.758,0,0,0,2.894,0l1.447-5.065-3.054-1.046Z" transform="translate(-1676.14 -1239.742)" fill="#5a1104"/>
      <g id="Group_15240" data-name="Group 15240" transform="translate(72.379)">
        <path id="Path_12300" data-name="Path 12300" d="M2046.292,1129.883l-2.3,12.972-3.829-9.612Z" transform="translate(-2000.87 -1108.246)" fill="#5a1104"/>
        <path id="Path_12301" data-name="Path 12301" d="M1728.533,1152.359s1.211,12.6,2.926,12.886.8-6.593.8-6.593Z" transform="translate(-1727.789 -1127.941)" fill="#5a1104"/>
        <path id="Path_12302" data-name="Path 12302" d="M1732.138,1060.2s-6.129-3.991-8.961,2.441,4.408,16.652,4.408,16.652l2.772-1.257Z" transform="translate(-1722.519 -1046.106)" fill="#5a1104"/>
        <path id="Path_12303" data-name="Path 12303" d="M1819.972,1086.546c-7.13,8.482-27.587,5.355-28.844-18.943-1.1-21.283,10.031-30.953,20.225-26.751s14.844,10.918,14.844,10.918.08,5.818-.532,12.544a75.388,75.388,0,0,1-1.6,10.427C1823.147,1078.573,1822.969,1082.982,1819.972,1086.546Z" transform="translate(-1782.576 -1029.384)" fill="#ffba94"/>
        <path id="Path_12304" data-name="Path 12304" d="M1743.826,1190.05s-1.442-4.655-5.835-3.2-4.4,8.752-1.132,12.262,6.851-.108,6.851-.108Z" transform="translate(-1733.049 -1157.919)" fill="#ffba94"/>
        <path id="Path_12305" data-name="Path 12305" d="M1779.293,1048.892s2.066-11.365,3.4-10.633,29.645,8.619,31.9-.559-7.775-10.513-7.775-10.513S1772.318,1017.293,1779.293,1048.892Z" transform="translate(-1771.454 -1016.966)" fill="#5a1104"/>
        <path id="Path_12306" data-name="Path 12306" d="M1777.953,969.673s.026-11.443,11.443-10.737,8.964.749,15.094-2.833,14.646,1.782,14.146,7.758-6.07,9.17-6.07,9.17Z" transform="translate(-1771.096 -954.949)" fill="#5a1104"/>
        <path id="Path_12307" data-name="Path 12307" d="M2005.422,1055.117s10.286-1.48,9.021,5.076c-1.7,8.791-15.933,7.529-15.933,7.529Z" transform="translate(-1964.373 -1042.602)" fill="#5a1104"/>
        <path id="Path_12308" data-name="Path 12308" d="M1976.765,1248.879a2.607,2.607,0,0,1-1.979.781c-.047,0-.095-.007-.143-.013l-1.863-.225a.361.361,0,0,1,.086-.717l1.863.225a1.866,1.866,0,0,0,1.534-.571,3.016,3.016,0,0,0,.862-1.815l.026-.212a.926.926,0,0,0-.637-1.109,2.116,2.116,0,0,1-1.536-1.022,3.026,3.026,0,0,1-.413-1.975l.382-3.023a.375.375,0,0,1,.4-.313.361.361,0,0,1,.313.4l-.382,3.021a2.3,2.3,0,0,0,.308,1.5,1.4,1.4,0,0,0,1.012.691,1.635,1.635,0,0,1,1.267,1.913l-.026.212a3.742,3.742,0,0,1-1.077,2.249" transform="translate(-1941.546 -1203.766)" fill="#ff806d"/>
        <g id="Group_15238" data-name="Group 15238" transform="translate(19.825 24.657)">
          <path id="Path_12309" data-name="Path 12309" d="M1883.37,1157.447a5.306,5.306,0,0,0,1.935-.05c.682-.1,1.37-.18,1.97-.233s1.293-.1,1.981-.121a5.28,5.28,0,0,0,1.909-.295c.5-.237.66-.8-.01-1.418a5.744,5.744,0,0,0-4.183-1,5.576,5.576,0,0,0-3.891,1.728C1882.555,1156.778,1882.831,1157.3,1883.37,1157.447Z" transform="translate(-1882.799 -1154.294)" fill="#5a1104"/>
        </g>
        <g id="Group_15239" data-name="Group 15239" transform="translate(35.368 29.794)">
          <path id="Path_12310" data-name="Path 12310" d="M2008.708,1197.089a4.811,4.811,0,0,0,1.457.66c.54.179,1.08.37,1.544.549s.994.4,1.515.629a4.785,4.785,0,0,0,1.52.485c.451.019.761-.3.469-.959a5.045,5.045,0,0,0-2.776-2.176,4.864,4.864,0,0,0-3.476-.23C2008.326,1196.346,2008.356,1196.8,2008.708,1197.089Z" transform="translate(-2008.46 -1195.826)" fill="#5a1104"/>
        </g>
        <path id="Path_12311" data-name="Path 12311" d="M1924.3,1223.175a1.458,1.458,0,1,1-1.162-1.977A1.646,1.646,0,0,1,1924.3,1223.175Z" transform="translate(-1896.865 -1188.257)" fill="#703127"/>
        <path id="Path_12312" data-name="Path 12312" d="M2021.777,1238.065a1.458,1.458,0,1,1-1.014-2.057A1.645,1.645,0,0,1,2021.777,1238.065Z" transform="translate(-1982.288 -1201.222)" fill="#703127"/>
        <circle id="Ellipse_487" data-name="Ellipse 487" cx="6.24" cy="6.24" r="6.24" transform="translate(10.816 32.221)" fill="#fca286"/>
        <path id="Path_12313" data-name="Path 12313" d="M2042.744,1247.776a6.239,6.239,0,0,1,1.6-10.427A75.3,75.3,0,0,1,2042.744,1247.776Z" transform="translate(-2001.255 -1202.419)" fill="#fca286"/>
        <path id="Path_12314" data-name="Path 12314" d="M1788.135,1089.564s-2.773,6.03-5.346,18.572l-1.186-15.5,4.941-8.011Z" transform="translate(-1774.296 -1068.581)" fill="#5a1104"/>
        <path id="Path_12315" data-name="Path 12315" d="M1757.391,1232.507a.42.42,0,0,0,.3-.113l1.87-1.7-2.336-3.013a.418.418,0,0,0-.621-.057.5.5,0,0,0-.056.671l1.773,2.287-1.2,1.091a.5.5,0,0,0-.054.671A.425.425,0,0,0,1757.391,1232.507Z" transform="translate(-1752.247 -1193.795)" fill="#ff806d"/>
        <path id="Path_12316" data-name="Path 12316" d="M1931.614,1347.875s-4.952-.038-7.836-3.15a5.116,5.116,0,0,0,2.694,4.155A3.829,3.829,0,0,0,1931.614,1347.875Z" transform="translate(-1898.884 -1296.513)" fill="#ff806d"/>
      </g>
      <path id="Path_12317" data-name="Path 12317" d="M1817.271,1995.046a24.312,24.312,0,0,0-1.171,10l-19.143-.808V1988.23h22.809C1819.038,1990.126,1818.159,1992.486,1817.271,1995.046Z" transform="translate(-1715.371 -1860.423)" fill="#70a3ff"/>
      <path id="Path_12318" data-name="Path 12318" d="M2393.589,1625.262l13.459-10.3,8.252,6.618-13.843,16.293Z" transform="translate(-2238.205 -1533.327)" fill="#ffba94"/>
      <path id="Path_12319" data-name="Path 12319" d="M2501.754,1512.289l-2.222-5.773,3.417-8.624,7.189-4.827,9.188-2.533s1.782,2.333-2.226,4.332a49.428,49.428,0,0,1-6.088,2.289S2514.286,1506.133,2501.754,1512.289Z" transform="translate(-2331.045 -1424.286)" fill="#ffba94"/>
      <path id="Path_12320" data-name="Path 12320" d="M1822.684,1001.748a18.545,18.545,0,0,1-6.677,1.871,14.331,14.331,0,0,1-3.494-.139,32.748,32.748,0,0,0-3.436-.367,19.113,19.113,0,0,0-3.439.1,9.252,9.252,0,0,0-3.257.979,5.293,5.293,0,0,0-1.341,1.036,4.812,4.812,0,0,0-.911,1.431,6.008,6.008,0,0,0-.419,1.661,9.466,9.466,0,0,0-.02,1.73,8.434,8.434,0,0,1-.063-1.738,6.107,6.107,0,0,1,.358-1.711,4.914,4.914,0,0,1,.906-1.508,5.518,5.518,0,0,1,1.369-1.113,7.4,7.4,0,0,1,1.62-.695,11.5,11.5,0,0,1,1.718-.372,18.9,18.9,0,0,1,3.5-.121,32.247,32.247,0,0,1,3.468.384,14.611,14.611,0,0,0,1.708.2,16.445,16.445,0,0,0,1.721,0,18.333,18.333,0,0,0,3.409-.527A19.827,19.827,0,0,0,1822.684,1001.748Z" transform="translate(-1717.693 -995.96)" fill="#431209"/>
      <path id="Path_12321" data-name="Path 12321" d="M1839.924,1005.648c-.643,3.216-9.326,4.5-20.635,2.77s-11.2,5.591-11.2,5.591" transform="translate(-1725.124 -999.377)" opacity="0.9" fill="url(#linear-gradient-5)" style="mix-blend-mode: screen;isolation: isolate"/>
      <path id="Path_12322" data-name="Path 12322" d="M1825.566,1046.579a2.124,2.124,0,0,1,.527-.324,3.927,3.927,0,0,1,.585-.209,6.116,6.116,0,0,1,1.229-.19,10.868,10.868,0,0,1,2.479.177,18.651,18.651,0,0,1,2.409.618c.785.263,1.569.5,2.368.7a41.144,41.144,0,0,0,9.771,1.232,30.642,30.642,0,0,0,4.913-.332,18.949,18.949,0,0,0,4.722-1.322,11.388,11.388,0,0,0,2.126-1.215,8.613,8.613,0,0,0,1.754-1.7,7.77,7.77,0,0,0,1.169-2.15,9.41,9.41,0,0,0,.491-2.415,10.073,10.073,0,0,1-.119,1.234,8.657,8.657,0,0,1-.292,1.208,7.893,7.893,0,0,1-1.124,2.217,8.7,8.7,0,0,1-1.758,1.769,11.638,11.638,0,0,1-2.145,1.277,18.2,18.2,0,0,1-4.779,1.386,30.94,30.94,0,0,1-4.96.364,40.505,40.505,0,0,1-4.958-.354q-1.232-.163-2.453-.4-.61-.118-1.216-.256t-1.205-.3c-.8-.214-1.593-.47-2.37-.746a18.556,18.556,0,0,0-2.375-.655,10.733,10.733,0,0,0-2.446-.248,6.05,6.05,0,0,0-1.22.152,3.889,3.889,0,0,0-.588.184A2.112,2.112,0,0,0,1825.566,1046.579Z" transform="translate(-1740.441 -1028.995)" fill="#431209"/>
      <path id="Path_12323" data-name="Path 12323" d="M1756.874,1071.465a5.633,5.633,0,0,0-.717-.123,5.73,5.73,0,0,0-.723-.04,3.538,3.538,0,0,0-1.4.271,2.037,2.037,0,0,0-1.012.922,3.045,3.045,0,0,0-.312,1.357,8.079,8.079,0,0,0,.561,2.792c.321.908.708,1.8,1.1,2.685s.781,1.78,1.145,2.684.7,1.821.971,2.759a20.78,20.78,0,0,1,.635,2.857,15.216,15.216,0,0,1,.129,2.916,16.9,16.9,0,0,0-.284-2.891,20.825,20.825,0,0,0-.715-2.809,56.944,56.944,0,0,0-2.174-5.388c-.386-.892-.774-1.787-1.091-2.715a11.85,11.85,0,0,1-.394-1.421,5.707,5.707,0,0,1-.127-1.48,3.272,3.272,0,0,1,.382-1.446,2.21,2.21,0,0,1,1.13-.969,3.664,3.664,0,0,1,1.458-.21A5.6,5.6,0,0,1,1756.874,1071.465Z" transform="translate(-1676.376 -1056.833)" fill="#431209"/>
      <path id="Path_12324" data-name="Path 12324" d="M1738.234,1067.957a4.627,4.627,0,0,0-2.235.577,3.318,3.318,0,0,0-.469.328c-.069.065-.141.127-.206.2a2.534,2.534,0,0,0-.184.216,2.85,2.85,0,0,0-.487,1.015,2.182,2.182,0,0,0-.061.277c-.013.094-.035.186-.04.282l-.023.285,0,.286a2.821,2.821,0,0,0,.013.287c.009.1.01.191.024.286.028.19.047.382.09.57l.057.284.07.281c.045.187.1.375.152.565l.32,1.134c.414,1.514.842,3.029,1.133,4.582a12.241,12.241,0,0,1,.232,2.36,4.081,4.081,0,0,1-.666,2.247,4.173,4.173,0,0,0,.509-2.248,12.215,12.215,0,0,0-.318-2.311c-.344-1.525-.779-3.033-1.2-4.545l-.312-1.136c-.053-.189-.1-.379-.151-.574l-.071-.29-.054-.295c-.041-.2-.057-.4-.083-.594-.013-.1-.013-.2-.019-.3a2.955,2.955,0,0,1-.007-.3,4.012,4.012,0,0,1,.169-1.2,3.073,3.073,0,0,1,.565-1.074,2.948,2.948,0,0,1,.941-.753,4.08,4.08,0,0,1,1.132-.374A4.605,4.605,0,0,1,1738.234,1067.957Z" transform="translate(-1660.417 -1053.968)" fill="#431209"/>
    </g>
    <path id="Path_12325" data-name="Path 12325" d="M1150.048,2200.83l-24.44,9.969h98.405l17.663-11Z" transform="translate(-305.799 -1687.414)" fill="#23516e"/>
    <g id="Group_15243" data-name="Group 15243" transform="translate(829.697 455.852)">
      <path id="Path_12326" data-name="Path 12326" d="M1994.534,2092.937h-25.61l9,9Z" transform="translate(-1874.501 -2049.619)" fill="#169aa3"/>
      <g id="Group_15242" data-name="Group 15242" transform="translate(0 0)">
        <path id="Path_12327" data-name="Path 12327" d="M2054.156,2092.937l-17.195,9.259v5.952l17.195-10.251Z" transform="translate(-1934.123 -2049.619)" fill="#0d6b6d"/>
        <path id="Path_12329" data-name="Path 12329" d="M1205.545,1744.71l2.174-1.3a4.768,4.768,0,0,1,2.454-.68h83.915a2.727,2.727,0,0,1,2.623,1.982l13.987,49.271-2.315,1.323Z" transform="translate(-1205.545 -1742.726)" fill="#0d6b6d"/>
        <path id="Path_12330" data-name="Path 12330" d="M1308.392,1809.359h-87.3l-15.539-50.592h87.963a1.3,1.3,0,0,1,1.248.949l10.763,39.211Z" transform="translate(-1205.554 -1756.783)" fill="#0c9aa3"/>
        <rect id="Rectangle_1541" data-name="Rectangle 1541" width="89.281" height="5.952" rx="2.976" transform="translate(14.549 52.576)" fill="#0d6b6d"/>
      </g>
      <rect id="Rectangle_1542" data-name="Rectangle 1542" width="10.291" height="1.93" rx="0.965" transform="translate(53.465 25.084) rotate(180)" fill="#fff"/>
      <rect id="Rectangle_1543" data-name="Rectangle 1543" width="10.291" height="1.93" rx="0.965" transform="translate(55.394 28.299) rotate(-180)" fill="#fff"/>
      <rect id="Rectangle_1544" data-name="Rectangle 1544" width="10.291" height="1.93" rx="0.965" transform="translate(57.646 31.194) rotate(180)" fill="#fff"/>
      <path id="Path_12331" data-name="Path 12331" d="M1308.392,1809.359h-87.3l-15.539-50.592h17.385c12.744,11.381,42.986,34.622,82.59,40.16Z" transform="translate(-1205.554 -1756.783)" fill="#0b7d7f" opacity="0.2"/>
    </g>
    <g id="Group_15248" data-name="Group 15248" transform="translate(1012.512 363.235)">
      <path id="Path_12332" data-name="Path 12332" d="M3142.755,2117.834h-76.537l-21.868-15.114,54.348-9,29.908,7.718Z" transform="translate(-2999.723 -1957.684)" fill="#23516e"/>
      <g id="Group_15247" data-name="Group 15247">
        <path id="Path_12333" data-name="Path 12333" d="M2807.294,1034.79l-27.335-40.841s-109.017,17.687-95.189,116.736l120.916-4.824Z" transform="translate(-2683.558 -993.949)" opacity="0.42" fill="url(#linear-gradient-6)" style="mix-blend-mode: screen;isolation: isolate"/>
        <path id="Path_12334" data-name="Path 12334" d="M2899.05,1320.177l-97.828,2.976a5.021,5.021,0,0,0-4.981,5.06v64.828a5.021,5.021,0,0,0,4.981,5.06l97.828-6.547a5.02,5.02,0,0,0,4.98-5.06v-61.257A5.021,5.021,0,0,0,2899.05,1320.177Z" transform="translate(-2782.303 -1279.826)" fill="#dbdbdb"/>
        <path id="Path_12335" data-name="Path 12335" d="M2935.88,1323.855v64.02a3.652,3.652,0,0,1-3.621,3.678l-3,.2-34.937,2.274-62.615,4.077a3.652,3.652,0,0,1-3.62-3.678v-67.591a3.686,3.686,0,0,1,2.089-3.333,3.575,3.575,0,0,1,1.532-.345l100.548-2.976a3.549,3.549,0,0,1,1.8.485A3.7,3.7,0,0,1,2935.88,1323.855Z" transform="translate(-2810.214 -1279.826)" fill="#fff"/>
        <g id="Group_15245" data-name="Group 15245" transform="translate(23.249 93.92)">
          <path id="Path_12336" data-name="Path 12336" d="M2901.6,1781.438l-11.817.6-18.263,20.275,40.107-2.678Z" transform="translate(-2871.516 -1777.953)" fill="#c7c7c7"/>
          <path id="Path_12337" data-name="Path 12337" d="M3153.026,1759.784l7.385,41.315a5.853,5.853,0,0,1-5.7,6.909l-32.126,2.976-7.878-48.521Z" transform="translate(-3084.628 -1758.977)" fill="#fff"/>
          <path id="Path_12338" data-name="Path 12338" d="M3398.518,1771.265l-34.937,2.274,9.877-19.472,14.1-.806Z" transform="translate(-3302.718 -1753.26)" fill="#c7c7c7"/>
          <path id="Path_12339" data-name="Path 12339" d="M3176.187,1759.784l7.385,41.315a5.853,5.853,0,0,1-5.7,6.909l-32.126,2.976-7.878-48.521Z" transform="translate(-3104.925 -1758.977)" fill="#dbdbdb"/>
        </g>
        <path id="Path_12340" data-name="Path 12340" d="M2844.968,1323.5l15.1,15.663,78.071-4.166s8.067-10.1,10.706-14.334a3.55,3.55,0,0,0-1.8-.484l-100.548,2.976A3.548,3.548,0,0,0,2844.968,1323.5Z" transform="translate(-2825.003 -1279.826)" fill="#dbdbdb"/>
        <g id="Group_15246" data-name="Group 15246" transform="translate(50.106 63.636)">
          <path id="Path_12341" data-name="Path 12341" d="M3089.716,1514.315l46.575-2.976a1.072,1.072,0,0,0,1.063-1.08v-.75a1.072,1.072,0,0,0-1.063-1.08l-46.575,2.976a1.072,1.072,0,0,0-1.063,1.08v.75A1.072,1.072,0,0,0,3089.716,1514.315Z" transform="translate(-3088.653 -1508.428)" fill="#dbdbdb"/>
          <path id="Path_12342" data-name="Path 12342" d="M3089.716,1564.318l46.575-2.976a1.072,1.072,0,0,0,1.063-1.081v-.75a1.072,1.072,0,0,0-1.063-1.081l-46.575,2.976a1.072,1.072,0,0,0-1.063,1.08v.75A1.072,1.072,0,0,0,3089.716,1564.318Z" transform="translate(-3088.653 -1552.247)" fill="#dbdbdb"/>
          <path id="Path_12343" data-name="Path 12343" d="M3089.716,1614.323l46.575-2.976a1.072,1.072,0,0,0,1.063-1.081v-.75a1.072,1.072,0,0,0-1.063-1.08l-46.575,2.976a1.072,1.072,0,0,0-1.063,1.08v.75A1.072,1.072,0,0,0,3089.716,1614.323Z" transform="translate(-3088.653 -1596.066)" fill="#dbdbdb"/>
          <path id="Path_12344" data-name="Path 12344" d="M3089.716,1661.386l46.575-2.976a1.072,1.072,0,0,0,1.063-1.081v-.75a1.072,1.072,0,0,0-1.063-1.08l-46.575,2.976a1.072,1.072,0,0,0-1.063,1.08v.75A1.072,1.072,0,0,0,3089.716,1661.386Z" transform="translate(-3088.653 -1637.308)" fill="#dbdbdb"/>
        </g>
        <path id="Path_12345" data-name="Path 12345" d="M3045.539,2128.438l-19.719-1.068a2.534,2.534,0,0,1-2.375-2.409l-.017-.3a2.535,2.535,0,0,1,2.575-2.695l19.535.522Z" transform="translate(-2981.386 -1982.437)" fill="#dbdbdb"/>
        <path id="Path_12346" data-name="Path 12346" d="M3043.547,2103.813l15.226-2.479.485,2.988Z" transform="translate(-2999.02 -1964.36)" fill="#fff"/>
      </g>
    </g>
    <g id="Group_15272" data-name="Group 15272" transform="translate(1008.938 500.119)">
      <g id="Group_15270" data-name="Group 15270" transform="translate(23.539 5.9)">
        <path id="Path_12360" data-name="Path 12360" d="M2845.224,2152.1c2.848,1.316,5.81,2.677,8.034,4.954,2.309,2.364,3.368,5.552,4.489,8.585a110.485,110.485,0,0,0,7.927,17.477,52.979,52.979,0,0,0,12.071,14.561,48.516,48.516,0,0,0,16.59,8.739,67.421,67.421,0,0,0,19.553,2.458,49.16,49.16,0,0,0,19.679-3.694,16.82,16.82,0,0,0,3.688-2.111,25.676,25.676,0,0,0,3.25-3.053,17.942,17.942,0,0,0,4.51-7.759c1.255-5.13.818-10.624-.276-15.739a55.667,55.667,0,0,0-5.781-15.367,35.228,35.228,0,0,0-9.129-11.158,18.017,18.017,0,0,0-2.548-1.619c-.55-.286-1.038.546-.487.833,3.983,2.073,7.049,5.681,9.482,9.376a53.5,53.5,0,0,1,6.6,14.486,41.928,41.928,0,0,1,1.8,15.256,16.7,16.7,0,0,1-2.81,8.5,24.147,24.147,0,0,1-6.211,6.216,21.761,21.761,0,0,1-4.107,1.935,41.146,41.146,0,0,1-4.812,1.506,50.165,50.165,0,0,1-9.769,1.36,83.577,83.577,0,0,1-9.98-.2,59.378,59.378,0,0,1-9.622-1.4,48.452,48.452,0,0,1-16.757-7.583,49.052,49.052,0,0,1-12.7-13.738,94.828,94.828,0,0,1-8.2-16.82,67.123,67.123,0,0,0-3.554-8.73,16.152,16.152,0,0,0-6.463-6.132c-1.29-.723-2.632-1.347-3.974-1.967-.56-.259-1.051.573-.487.833Z" transform="translate(-2844.974 -2148.317)" fill="#fff"/>
      </g>
      <g id="Group_15271" data-name="Group 15271">
        <path id="Path_12361" data-name="Path 12361" d="M2681.222,2110.285a2.877,2.877,0,0,1-.215.424c-1.029,1.672-3.91,2.875-9.329,2.875a42.077,42.077,0,0,1-6.428-.448c-5.673-.875-8.448-2.878-9.805-4.573a3.518,3.518,0,0,1,.5-4.907c1.952-1.627,5.785-3.509,12.838-2.936a19.266,19.266,0,0,1,5.879,1.431C2679.363,2104.126,2682.319,2107.667,2681.222,2110.285Z" transform="translate(-2654.672 -2100.616)" fill="#fff"/>
        <path id="Path_12362" data-name="Path 12362" d="M2755.943,2131.957c-1.029,1.673-3.911,2.875-9.33,2.875a42.156,42.156,0,0,1-6.428-.447,14.857,14.857,0,0,1,6.428-9.522C2751.264,2126.088,2754.611,2130.108,2755.943,2131.957Z" transform="translate(-2729.608 -2121.864)" fill="#ebebeb"/>
        <path id="Path_12363" data-name="Path 12363" d="M2806.258,2121.167c-2.994-4.9-8.9-6.991-8.9-6.991.511-.257,1.367-.672,2.341-1.142C2804.4,2115.008,2807.355,2118.549,2806.258,2121.167Z" transform="translate(-2779.708 -2111.498)" fill="#ebebeb"/>
        <path id="Path_12364" data-name="Path 12364" d="M2681.382,2129.778a2.873,2.873,0,0,1-.215.424c-1.029,1.673-3.911,2.875-9.329,2.875a42.147,42.147,0,0,1-6.428-.447c-5.673-.875-8.448-2.878-9.805-4.573a3.475,3.475,0,0,1-.75-1.833,21.125,21.125,0,0,0,6.374,1.9,42.121,42.121,0,0,0,6.428.447c5.419,0,8.3-1.2,9.329-2.875a2.951,2.951,0,0,0,.216-.424,3.294,3.294,0,0,0,0-2.415C2680.466,2124.877,2682.279,2127.637,2681.382,2129.778Z" transform="translate(-2654.832 -2120.109)" fill="#c7c7c7" opacity="0.56" style="mix-blend-mode: multiply;isolation: isolate"/>
      </g>
    </g>
  </g>
</svg>
