<svg xmlns="http://www.w3.org/2000/svg" width="242.759" height="237.891" viewBox="0 0 242.759 237.891">
    <g id="prefix__Group_14191" data-name="Group 14191" transform="rotate(44.03 -11333.318 -18947.003)">
        <path id="prefix__Path_7014" fill="#a5208e" d="M275.476 81.489c-.093 21.93-40.152 94.629-40.152 94.629s-39.391-73.041-39.287-94.993a39.72 39.72 0 1 1 79.439.365zM235.821 65.45a25.631 25.631 0 0 0-25.742 25.52c-.055 14.141 25.295 75.544 25.295 75.544s25.905-61.168 25.96-75.315a25.625 25.625 0 0 0-25.513-25.749z" data-name="Path 7014" transform="translate(9924.039 -13330.577)"/>
        <path id="prefix__Path_7015" fill="#c9d81d" d="M353.076 182.771c-19.681 9.669-102.613 6.148-102.613 6.148s47.9-67.785 67.6-77.455a39.72 39.72 0 1 1 35.013 71.307zm-3.276-42.654a25.632 25.632 0 0 0-34.3-11.693c-12.7 6.24-56.416 56.261-56.416 56.261s66.316-4.006 79.019-10.256a25.637 25.637 0 0 0 11.697-34.312z" data-name="Path 7015" transform="translate(9913.611 -13343.187)"/>
        <path id="prefix__Path_7016" fill="#fbb403" d="M89.817 130.461a39.7 39.7 0 0 1 53.055-18.45c19.754 9.549 68.054 77.044 68.054 77.044s-82.915 4.018-102.651-5.531a39.741 39.741 0 0 1-18.458-53.063zm33.393 44.627c12.74 6.169 79.065 9.8 79.065 9.8s-44.006-49.768-56.742-55.937a25.629 25.629 0 0 0-22.323 46.142z" data-name="Path 7016" transform="translate(9945.154 -13343.313)"/>
    </g>
</svg>
