<svg xmlns="http://www.w3.org/2000/svg" width="57.915" height="54.27" viewBox="0 0 57.915 54.27">
    <g id="prefix__Group_14460" data-name="Group 14460" transform="translate(-1010 -1349)">
        <path id="prefix__Path_9196" fill="#0c9aa3" d="M7151.677 6970.091v35.476h-23.71l-1.521-1.3-.693-1.741v-30.75l2.214-1.689z" data-name="Path 9196" transform="translate(-6115 -5603)"/>
        <circle id="prefix__Ellipse_391" cx="3" cy="3" r="3" fill="#fff" data-name="Ellipse 391" transform="translate(1022 1393)"/>
        <path id="prefix__Path_9195" fill="#30383b" fill-rule="evenodd" d="M1536.112 625.8a3.959 3.959 0 0 1 2.8 6.759l-.046.037a3.92 3.92 0 0 1-2.755 1.123 3.959 3.959 0 1 1 0-7.918zm11.966-24.986v-.114a.683.683 0 0 0-.686-.68h-22.525a4.119 4.119 0 0 0-4.116 4.107v28.774a4.123 4.123 0 0 0 4.116 4.112h22.525a.685.685 0 0 0 .686-.68v-.629h15.442a15.171 15.171 0 0 0 15.146-15.144v-13.505a4.107 4.107 0 0 0-1.2-2.9l-.007-.007a4.115 4.115 0 0 0-2.907-1.208h-11.28l2.144-15.506a4.047 4.047 0 0 0-.121-1.74 4 4 0 0 0-.854-1.527 4.085 4.085 0 0 0-1.391-1.054 4.106 4.106 0 0 0-1.708-.363h-1.37a4.089 4.089 0 0 0-2.14.592 4.047 4.047 0 0 0-1.509 1.63l-8.24 15.846zm9.452-15.217a2.643 2.643 0 0 1 2.436-1.476h1.37a2.787 2.787 0 0 1 1.141.232h.007a2.719 2.719 0 0 1 .927.707 2.679 2.679 0 0 1 .569 1.012 2.748 2.748 0 0 1 .078 1.166l-2.25 16.285a.679.679 0 0 0 .583.771.456.456 0 0 0 .1.007h12.063a2.739 2.739 0 0 1 1.938.806 2.736 2.736 0 0 1 .8 1.94v13.511a13.8 13.8 0 0 1-13.773 13.771h-15.442v-30.541l9.452-18.188zm-10.83 15.785h-21.838a2.751 2.751 0 0 0-2.746 2.75v28.774a2.747 2.747 0 0 0 2.746 2.753h21.838v-34.277zm-8.761 26.549a2.586 2.586 0 1 0-.032 3.694l.032-.034a2.594 2.594 0 0 0 0-3.66z" data-name="Path 9195" transform="translate(-510.75 766.251)"/>
    </g>
</svg>
