<svg xmlns="http://www.w3.org/2000/svg" width="71.251" height="71.251" viewBox="0 0 71.251 71.251">
    <defs>
        <style>
            .prefix__cls-1{fill:#0c9aa3}
        </style>
    </defs>
    <g id="prefix__Group_14409" data-name="Group 14409" transform="translate(-442 -1169)">
        <path id="prefix__Path_9173" d="M4062.53 1863.953h2.192v1.634l.4 1.191-.75 3.59-.828 2.125v.825l2.146.307h1.593l.406.877-.406 2.795-3.514 8.116-2.15 4.312-.82-.394-.9-.337v-11.281h-3.156l-1.3-.769v-5.376l1.043-6.8.989-.817h5.056z" class="prefix__cls-1" data-name="Path 9173" transform="translate(-3583.296 -693.778)"/>
        <path id="prefix__Path_9174" d="M4280.621 1890.3v8.657h-2.783l.337 2.438-.337.94-1.61.422-1.438 1.073-2.136-.472-.385-1.963-.646-1.974-1.428-.464-.516-1.781-.48-2.985v-3.891z" class="prefix__cls-1" data-name="Path 9174" transform="translate(-3797.353 -687.629)"/>
        <path id="prefix__Path_9175" d="M4288.95 1895.785h8.876v5.494l-1.268 2.159-2.547 1.451h-2.154l-1.644-1.451-1.263-1.3v-6.357z" class="prefix__cls-1" data-name="Path 9175" transform="translate(-3792.743 -686.349)"/>
        <path id="prefix__Path_9176" d="M4260.689 1895.875v5.31l-1.579 2.7-3.048 1.319-2.726-.927-1.519-1.808-.5-3.13.5-2.925v-1.014z" class="prefix__cls-1" data-name="Path 9176" transform="translate(-3801.525 -686.439)"/>
        <path id="prefix__think-different" fill="#023d4d" d="M66.505 56.162h-4.6a1.15 1.15 0 0 1-1.149-1.149v-3.564a5.756 5.756 0 0 0 4.6-5.63v-4.413a12.267 12.267 0 0 1 2.711-4.368c1.962-2.387 4.184-5.092 4.184-9.606a12.622 12.622 0 0 0-20.706-9.712 14.907 14.907 0 0 0-9.2-13.282c.01-.1.025-.207.025-.311A3.131 3.131 0 0 0 39.245 1h-5.136a3.437 3.437 0 0 0-3.43 3.1l-.046.456a15.025 15.025 0 0 0-8.926 13.16A12.622 12.622 0 0 0 1 27.432c0 4.514 2.223 7.219 4.184 9.606A12.267 12.267 0 0 1 7.9 41.406v4.413a5.757 5.757 0 0 0 4.6 5.63v3.564a3.452 3.452 0 0 0 3.448 3.448h4.6a1.149 1.149 0 1 1 0 2.3H6.746a3.448 3.448 0 1 0 0 6.9h4.6a1.15 1.15 0 0 1 1.146 1.139v3.448h2.3V68.8a3.452 3.452 0 0 0-3.448-3.448h-4.6a1.149 1.149 0 1 1 0-2.3h13.793a3.448 3.448 0 1 0 0-6.9h-4.6a1.15 1.15 0 0 1-1.149-1.149v-3.554a5.756 5.756 0 0 0 4.6-5.63v-4.413a12.267 12.267 0 0 1 2.712-4.368c1.705-2.075 3.6-4.395 4.072-7.931.074.093.146.188.218.282a22.755 22.755 0 0 1 3.341 5.191v6.642a3.443 3.443 0 0 0 2.3 3.236v.211a4.592 4.592 0 0 0 3.444 4.431v1.312a1.15 1.15 0 0 1-1.149 1.149h-3.448a4.6 4.6 0 1 0 0 9.194h10.343a3.448 3.448 0 1 1 0 6.9h-2.3a3.452 3.452 0 0 0-3.446 3.445v1.149h2.3V71.1a1.15 1.15 0 0 1 1.149-1.149h2.3a5.746 5.746 0 1 0 0-11.492H30.878a2.3 2.3 0 0 1 0-4.6h3.448a3.452 3.452 0 0 0 3.448-3.448V49.1a4.592 4.592 0 0 0 3.448-4.434v-.211a3.443 3.443 0 0 0 2.3-3.236v-6.638a22.78 22.78 0 0 1 3.341-5.191l.218-.282c.468 3.536 2.367 5.855 4.072 7.931a12.267 12.267 0 0 1 2.711 4.368v4.412a5.757 5.757 0 0 0 4.6 5.63v3.564a3.452 3.452 0 0 0 3.448 3.448h4.6a1.149 1.149 0 0 1 0 2.3H52.715a3.448 3.448 0 1 0 0 6.9h4.6a1.15 1.15 0 0 1 1.146 1.139v3.448h2.3V68.8a3.452 3.452 0 0 0-3.448-3.448h-4.6a1.149 1.149 0 0 1 0-2.3h13.792a3.448 3.448 0 0 0 0-6.9zM56.162 28.581h-1.149a1.149 1.149 0 1 1 1.149-1.149zm4.6 11.492h-2.3V30.88h2.3zm2.3 2.3v2.3h-6.9v-2.3zM34.109 3.3h5.136a.829.829 0 0 1 .829.829.851.851 0 0 1-.043.262l-2.7 8.1h4.276a.767.767 0 0 1 .707 1.061l-5.245 12.59a.238.238 0 0 1-.442-.09V14.791h-3.558a1.061 1.061 0 0 1-1.034-1.143l.931-9.314A1.145 1.145 0 0 1 34.109 3.3zM10.194 28.581H9.045a1.149 1.149 0 1 1 1.149-1.149zm4.6 11.492h-2.3V30.88h2.3zm2.3 2.3v2.3h-6.9v-2.3zm-3.448 6.9a3.443 3.443 0 0 1-3.236-2.3h6.471a3.44 3.44 0 0 1-3.24 2.294zm10.338-21.841c0 3.69-1.862 5.956-3.661 8.148a16.317 16.317 0 0 0-2.923 4.493h-.31V30.88h1.149a3.448 3.448 0 1 0-3.448-3.448v1.149h-2.3v-1.149a3.448 3.448 0 1 0-3.446 3.448h1.149v9.194h-.31A16.274 16.274 0 0 0 6.96 35.58c-1.8-2.192-3.66-4.458-3.66-8.148A10.336 10.336 0 0 1 22.036 21.4a14.56 14.56 0 0 0 1.825 4.467 10.57 10.57 0 0 1 .123 1.565zm-6.9 1.149v-1.149a1.149 1.149 0 1 1 1.149 1.149zm24.134 9.194h-9.189v-2.3h9.194zm-4.6 9.194a2.3 2.3 0 0 1-2.3-2.3h4.6a2.3 2.3 0 0 1-2.292 2.3zm3.448-4.6h-6.9a1.15 1.15 0 0 1-1.149-1.149v-1.147h9.194v1.149a1.15 1.15 0 0 1-1.138 1.15zm4.978-14.4a26.8 26.8 0 0 0-3.405 5.2H31.606a26.8 26.8 0 0 0-3.405-5.2c-2.169-2.773-4.216-5.393-4.216-9.736a12.73 12.73 0 0 1 6.377-10.976l-.616 6.161a3.2 3.2 0 0 0-.016.332 3.343 3.343 0 0 0 3.338 3.338h1.258v8.964a2.528 2.528 0 0 0 4.861.972l5.244-12.587a3.011 3.011 0 0 0 .238-1.179 3.068 3.068 0 0 0-3.065-3.065h-1.086L41.7 6.659a12.622 12.622 0 0 1 7.57 11.58c-.003 4.342-2.051 6.961-4.218 9.735zm4.215-.542a10.39 10.39 0 0 1 .124-1.559 14.574 14.574 0 0 0 1.833-4.468 10.336 10.336 0 0 1 18.737 6.029c0 3.69-1.862 5.956-3.661 8.148a16.317 16.317 0 0 0-2.924 4.493h-.31v-9.19h1.149a3.448 3.448 0 1 0-3.448-3.448v1.149h-2.3v-1.149a3.448 3.448 0 1 0-3.448 3.448h1.149v9.194h-.31a16.274 16.274 0 0 0-2.924-4.493c-1.8-2.192-3.661-4.458-3.661-8.148zm13.791 1.149v-1.144a1.149 1.149 0 1 1 1.149 1.149zm-6.676 18.393h6.471a3.427 3.427 0 0 1-6.471 0z" transform="translate(441 1168)"/>
    </g>
</svg>
