<svg xmlns="http://www.w3.org/2000/svg" width="58.774" height="39.688" viewBox="0 0 58.774 39.688">
    <defs>
        <style>
            .prefix__cls-1{fill:#fff}.prefix__cls-2{fill:#023d4d}.prefix__cls-3{fill:#002c49}.prefix__cls-4{fill:#0c9aa3}
        </style>
    </defs>
    <g id="prefix__Group_12233" data-name="Group 12233" transform="translate(-21289.301 -1018.848)">
        <g id="prefix__Group_12041" data-name="Group 12041" transform="translate(21306.041 1028.039)">
            <g id="prefix__Group_11814" data-name="Group 11814">
                <rect id="prefix__Rectangle_843" width="20.904" height="16.985" class="prefix__cls-1" data-name="Rectangle 843" rx="2" transform="translate(.653 .653)"/>
                <path id="prefix__Path_4930" d="M43.251 61.291H24.96a1.962 1.962 0 0 1-1.96-1.96V44.96A1.962 1.962 0 0 1 24.96 43h18.291a1.962 1.962 0 0 1 1.96 1.96v14.371a1.962 1.962 0 0 1-1.96 1.96zM24.96 44.307a.654.654 0 0 0-.653.653v14.371a.654.654 0 0 0 .653.653h18.291a.654.654 0 0 0 .653-.653V44.96a.654.654 0 0 0-.653-.653z" class="prefix__cls-2" data-name="Path 4930" transform="translate(-23 -43)"/>
            </g>
            <g id="prefix__Group_11815" data-name="Group 11815">
                <path id="prefix__Path_4931" d="M44.557 48.226h-20.9a.653.653 0 0 1-.657-.653V44.96A1.962 1.962 0 0 1 24.96 43h18.291a1.962 1.962 0 0 1 1.96 1.96v2.613a.654.654 0 0 1-.654.653zm-20.25-1.306H43.9v-1.96a.654.654 0 0 0-.653-.653H24.96a.654.654 0 0 0-.653.653z" class="prefix__cls-2" data-name="Path 4931" transform="translate(-23 -43)"/>
            </g>
            <g id="prefix__Group_11816" data-name="Group 11816" transform="translate(3.92 3.266)">
                <rect id="prefix__Rectangle_845" width="20.904" height="16.985" class="prefix__cls-1" data-name="Rectangle 845" rx="2" transform="translate(.653 .653)"/>
                <path id="prefix__Path_4932" d="M49.251 66.291H30.96a1.962 1.962 0 0 1-1.96-1.96V49.96A1.962 1.962 0 0 1 30.96 48h18.291a1.962 1.962 0 0 1 1.96 1.96v14.371a1.962 1.962 0 0 1-1.96 1.96zM30.96 49.307a.654.654 0 0 0-.653.653v14.371a.654.654 0 0 0 .653.653h18.291a.654.654 0 0 0 .653-.653V49.96a.654.654 0 0 0-.653-.653z" class="prefix__cls-3" data-name="Path 4932" transform="translate(-29 -48)"/>
            </g>
            <g id="prefix__Group_11817" data-name="Group 11817" transform="translate(3.92 3.266)">
                <path id="prefix__Rectangle_846" d="M2 0h16.9a2 2 0 0 1 2 2v1.92H0V2a2 2 0 0 1 2-2z" class="prefix__cls-4" data-name="Rectangle 846" transform="translate(.653 .653)"/>
                <path id="prefix__Path_4933" d="M50.557 53.226h-20.9a.653.653 0 0 1-.657-.653V49.96A1.962 1.962 0 0 1 30.96 48h18.291a1.962 1.962 0 0 1 1.96 1.96v2.613a.653.653 0 0 1-.654.653zm-20.25-1.306H49.9v-1.96a.654.654 0 0 0-.653-.653H30.96a.654.654 0 0 0-.653.653z" class="prefix__cls-3" data-name="Path 4933" transform="translate(-29 -48)"/>
            </g>
            <g id="prefix__Group_11818" data-name="Group 11818" transform="translate(9.145 11.758)">
                <path id="prefix__Path_4934" d="M39.613 66.226a.651.651 0 0 1-.462-.191l-1.96-1.96a.653.653 0 0 1 0-.924l1.96-1.96a.653.653 0 0 1 .924.924l-1.5 1.5 1.5 1.5a.653.653 0 0 1-.462 1.115z" class="prefix__cls-3" data-name="Path 4934" transform="translate(-37 -61)"/>
            </g>
            <g id="prefix__Group_11819" data-name="Group 11819" transform="translate(17.638 11.758)">
                <path id="prefix__Path_4935" d="M50.653 66.226a.653.653 0 0 1-.462-1.115l1.5-1.5-1.5-1.5a.653.653 0 0 1 .924-.924l1.96 1.96a.653.653 0 0 1 0 .924l-1.96 1.96a.651.651 0 0 1-.462.195z" class="prefix__cls-3" data-name="Path 4935" transform="translate(-50 -61)"/>
            </g>
            <g id="prefix__Group_11820" data-name="Group 11820" transform="translate(5.879 5.226)">
                <circle id="prefix__Ellipse_146" cx=".653" cy=".653" r=".653" class="prefix__cls-3" data-name="Ellipse 146"/>
            </g>
            <g id="prefix__Group_11821" data-name="Group 11821" transform="translate(7.839 5.226)">
                <circle id="prefix__Ellipse_147" cx=".653" cy=".653" r=".653" class="prefix__cls-3" data-name="Ellipse 147"/>
            </g>
            <g id="prefix__Group_11822" data-name="Group 11822" transform="translate(9.799 5.226)">
                <circle id="prefix__Ellipse_148" cx=".653" cy=".653" r=".653" class="prefix__cls-3" data-name="Ellipse 148"/>
            </g>
            <g id="prefix__Group_11823" data-name="Group 11823" transform="translate(1.96 1.96)">
                <circle id="prefix__Ellipse_149" cx=".653" cy=".653" r=".653" class="prefix__cls-2" data-name="Ellipse 149"/>
            </g>
            <g id="prefix__Group_11824" data-name="Group 11824" transform="translate(3.92 1.96)">
                <circle id="prefix__Ellipse_150" cx=".653" cy=".653" r=".653" class="prefix__cls-2" data-name="Ellipse 150"/>
            </g>
            <g id="prefix__Group_11825" data-name="Group 11825" transform="translate(5.879 1.96)">
                <circle id="prefix__Ellipse_151" cx=".653" cy=".653" r=".653" class="prefix__cls-2" data-name="Ellipse 151"/>
            </g>
            <g id="prefix__Group_11826" data-name="Group 11826" transform="translate(13.065 11.105)">
                <path id="prefix__Path_4936" d="M43.652 66.533a.653.653 0 0 1-.584-.945l2.613-5.226a.654.654 0 0 1 1.169.584l-2.613 5.226a.654.654 0 0 1-.585.361z" class="prefix__cls-3" data-name="Path 4936" transform="translate(-42.999 -60)"/>
            </g>
        </g>
        <g id="prefix__Group_12045" data-name="Group 12045" transform="translate(21293.654 1019.751)">
            <g id="prefix__Group_11937" data-name="Group 11937">
                <path id="prefix__Path_4995" d="M-381.75 32.378h-40.55a1.683 1.683 0 0 0-1.683 1.683v1.7h42.235z" class="prefix__cls-4" data-name="Path 4995" transform="translate(423.985 -32.378)"/>
            </g>
            <g id="prefix__Group_11938" data-name="Group 11938" transform="translate(41.985)">
                <path id="prefix__Path_4996" d="M-193.808 32.378h-6.507v3.38h8.19v-1.7a1.683 1.683 0 0 0-1.683-1.68z" class="prefix__cls-4" data-name="Path 4996" transform="translate(200.315 -32.378)"/>
            </g>
        </g>
        <g id="prefix__Group_12046" data-name="Group 12046" transform="translate(21289.959 1053.938)">
            <path id="prefix__Path_4997" d="M-404.246 214.5h-39.433v2.359a1.683 1.683 0 0 0 1.679 1.685h54.2a1.683 1.683 0 0 0 1.683-1.683V214.5zm-5.415 1.455a.855.855 0 0 1-.855.855h-8.759a.854.854 0 0 1-.854-.855v-1.263h10.468z" class="prefix__cls-4" data-name="Path 4997" transform="translate(443.679 -214.502)"/>
        </g>
        <g id="prefix__Group_12047" data-name="Group 12047" transform="translate(21289.301 1053.549)">
            <path id="prefix__Path_4998" d="M-390.562 217.42h-54.469a2.155 2.155 0 0 1-2.152-2.152V212.9a.469.469 0 0 1 .469-.469h57.835a.469.469 0 0 1 .469.469v2.365a2.155 2.155 0 0 1-2.152 2.155zm-55.683-4.048v1.9a1.215 1.215 0 0 0 1.214 1.214h54.469a1.215 1.215 0 0 0 1.214-1.214v-1.9z" class="prefix__cls-2" data-name="Path 4998" transform="translate(447.183 -212.433)"/>
        </g>
        <g id="prefix__Group_12048" data-name="Group 12048" transform="translate(21293.35 1018.848)">
            <path id="prefix__Path_4999" d="M-424.676 62.736h-.939V29.717a2.155 2.155 0 0 1 2.152-2.152h6.414v.935h-6.414a1.215 1.215 0 0 0-1.214 1.214z" class="prefix__cls-2" data-name="Path 4999" transform="translate(425.615 -27.565)"/>
        </g>
        <g id="prefix__Group_12049" data-name="Group 12049" transform="translate(21301.598 1018.848)">
            <path id="prefix__Path_5000" d="M-338.664 62.736h-.939V29.717a1.216 1.216 0 0 0-1.214-1.214h-40.854v-.939h40.854a2.155 2.155 0 0 1 2.153 2.152z" class="prefix__cls-2" data-name="Path 5000" transform="translate(381.671 -27.565)"/>
        </g>
        <g id="prefix__Group_12050" data-name="Group 12050" transform="translate(21313.012 1054.019)">
            <path id="prefix__Path_5001" d="M-310.833 217.716h-8.7a1.325 1.325 0 0 1-1.324-1.324v-1.459h.939v1.459a.386.386 0 0 0 .385.385h8.7a.386.386 0 0 0 .385-.385v-1.459h.939v1.459a1.325 1.325 0 0 1-1.324 1.324z" class="prefix__cls-2" data-name="Path 5001" transform="translate(320.858 -214.933)"/>
        </g>
        <g id="prefix__Group_12051" data-name="Group 12051" transform="translate(21301.627 1022.318)">
            <path id="prefix__Rectangle_879" d="M0 0H42.507V0.939H0z" class="prefix__cls-2" data-name="Rectangle 879"/>
        </g>
        <g id="prefix__Group_12052" data-name="Group 12052" transform="translate(21293.818 1022.318)">
            <path id="prefix__Rectangle_880" d="M0 0H8.097V0.939H0z" class="prefix__cls-2" data-name="Rectangle 880"/>
        </g>
    </g>
</svg>
