<svg xmlns="http://www.w3.org/2000/svg" width="153.985" height="222.362" viewBox="0 0 153.985 222.362">
    <defs>
        <style>
            .prefix__cls-1{fill:#d1a586}.prefix__cls-2{fill:#e5bd9e}.prefix__cls-4{fill:#a0795f}.prefix__cls-5{fill:#ffb27d}.prefix__cls-6{fill:#cc5230}.prefix__cls-7{fill:#f15d34}.prefix__cls-8{fill:#b5453c}.prefix__cls-10{fill:#699dee}.prefix__cls-12{fill:#4a75cb}
        </style>
    </defs>
    <g id="prefix__Group_14082" data-name="Group 14082">
        <g id="prefix__Group_14080" data-name="Group 14080" transform="translate(0 61.514)">
            <path id="prefix__Path_8069" d="M1419.11 1157.339a284.853 284.853 0 0 0-3.289-34.926c-2.359-13.637-4.482-21.484-4.507-21.567-.311-1.2-4.8-6.052-14.777-5.9s-9.032 6.514-9.032 6.514a2.056 2.056 0 0 0 .072.566c.1.328 9.256 33.54 8.86 76.422-.006.6-.073 1.643-.031 2.336 0 0 23.124.6 23.13 0 .806-3.75.412-14.135-.426-23.445z" class="prefix__cls-1" data-name="Path 8069" transform="translate(-1387.481 -1094.94)"/>
            <path id="prefix__Path_8070" d="M1412.691 1178.234c-.007.6-.322 1.076-.707 1.076h-.009c-.385-.009-.691-.487-.7-1.076h-19.818c-.007.6-.322 1.076-.707 1.076h-.009c-.391-.009-.7-.5-.7-1.107a299.236 299.236 0 0 0-1.644-33.854c-2.634-25.229-7.5-42.091-7.573-42.325a2.1 2.1 0 0 1-.072-.566s-.946-6.363 9.032-6.514 14.468 4.7 14.779 5.9c.018.063 1.221 4.505 2.818 12.493.53 2.646 1.1 5.681 1.688 9.073a285.078 285.078 0 0 1 3.288 34.926c.843 9.312 1.143 17.151.334 20.898z" class="prefix__cls-2" data-name="Path 8070" transform="translate(-1378.154 -1094.94)"/>
            <path id="prefix__Path_8071" d="M1405.021 1209.175c-.007.6-.322 1.076-.707 1.076h-.009c-.385-.009-.691-.487-.7-1.076h-19.818c-.007.6-.322 1.076-.707 1.076h-.009c-.391-.009-.7-.5-.7-1.107a299.239 299.239 0 0 0-1.644-33.855c3.277-16.011 15.94-28.257 18.984-31.009.53 2.646 1.1 5.681 1.688 9.073a285.081 285.081 0 0 1 3.288 34.926c.845 9.31 1.14 17.149.334 20.896z" data-name="Path 8071" transform="translate(-1370.484 -1125.88)" style="fill:#dfb697"/>
            <g id="prefix__Group_14034" data-name="Group 14034" transform="translate(6.409 2.527)">
                <path id="prefix__Path_8072" d="M1392.875 1182.278l.055-.039c.016-.011.029-.02.036-.1h.012a.54.54 0 0 1 .159-.419c.63-.643 3.027-.616 6.062-.581a62.57 62.57 0 0 0 11.562-.637c2.127-.373.692-16.753-.819-32.077-.257-2.606-.46-4.663-.552-5.874-.98-12.97-6.674-36.179-6.728-36.362-.252-.975-3.675-4.589-11.1-4.469-2.79.041-4.772.732-5.892 2.051a3.923 3.923 0 0 0-.933 2.922 1.555 1.555 0 0 0 .057.436c.031.126 5.158 30.054 6 37.242 1.38 11.829 1.932 36.353 1.956 37.717v.119zm4.426-1.383c-2.214 0-3.776.1-4.327.664v.005c-.009-.565-.038-1.622-.094-3.613-.065-2.344-.177-6-.34-10.132-.285-7.224-.779-17.16-1.517-23.478-.857-7.345-5.977-37.186-6-37.279a1.415 1.415 0 0 1-.049-.388 3.772 3.772 0 0 1 .883-2.762c1.077-1.265 3-1.927 5.72-1.967h.336c7.059 0 10.3 3.378 10.538 4.3.056.213 5.735 23.268 6.721 36.319l.113-.009-.113.009c.091 1.213.295 3.272.552 5.879 1.007 10.213 3.1 31.463 1.006 31.831a62.366 62.366 0 0 1-11.52.634c-.683-.008-1.319-.008-1.91-.008z" class="prefix__cls-1" data-name="Path 8072" transform="translate(-1384.72 -1101.715)"/>
            </g>
            <path id="prefix__Path_8073" d="M1238.31 1310.524h77.695s-1.809-7.322-46.805-6.232c-31.843.771-30.89 6.232-30.89 6.232z" class="prefix__cls-2" data-name="Path 8073" transform="translate(-1227.881 -1226.152)"/>
            <g id="prefix__Group_14035" data-name="Group 14035" transform="translate(4.106 85.505)">
                <path id="prefix__Path_8074" d="M1428.292 1399.573c9.009-45.6 6.692-73.589 6.68-73.941-.022-.7 1.272-1.34 1.968-1.363s3.814-.207 4.174.394c.471.787 2.286 35.266-11.141 74.91z" class="prefix__cls-1" data-name="Path 8074" transform="translate(-1428.292 -1324.229)"/>
            </g>
            <g id="prefix__Group_14036" data-name="Group 14036" transform="translate(63.477 85.505)">
                <path id="prefix__Path_8075" d="M1282.252 1399.573c-9.008-45.6-6.692-73.589-6.681-73.941.023-.7-1.271-1.34-1.968-1.363s-3.814-.207-4.174.394c-.471.787-2.286 35.266 11.141 74.91z" class="prefix__cls-1" data-name="Path 8075" transform="translate(-1269.081 -1324.229)"/>
            </g>
            <g id="prefix__Group_14037" data-name="Group 14037" transform="translate(77.854 85.505)">
                <path id="prefix__Path_8076" d="M1243.7 1399.573c-9.008-45.6-6.692-73.589-6.681-73.941.023-.7-1.272-1.34-1.968-1.363s-3.814-.207-4.174.394c-.471.787-2.286 35.266 11.141 74.91z" class="prefix__cls-4" data-name="Path 8076" transform="translate(-1230.529 -1324.229)"/>
            </g>
            <g id="prefix__Group_14038" data-name="Group 14038" transform="translate(18.579 85.505)">
                <path id="prefix__Path_8077" d="M1389.481 1399.573c9.008-45.6 6.692-73.589 6.68-73.941-.022-.7 1.272-1.34 1.968-1.363s3.814-.207 4.174.394c.471.787 2.286 35.266-11.141 74.91z" class="prefix__cls-4" data-name="Path 8077" transform="translate(-1389.481 -1324.229)"/>
            </g>
            <rect id="prefix__Rectangle_1193" width="80.878" height="4.229" class="prefix__cls-1" data-name="Rectangle 1193" rx="2.115" transform="translate(8.884 82.478)"/>
        </g>
        <g id="prefix__Group_14079" data-name="Group 14079" transform="translate(13.448)">
            <g id="prefix__Group_14056" data-name="Group 14056">
                <path id="prefix__Path_8150" d="M1253.556 1417.487a2.3 2.3 0 0 0-.41 2.454.023.023 0 0 0 .006.012c.592 1.635 2.548 3.463 4.82 5.287.29.234.549.448.773.645.059.052.118.1.174.156s.09.083.134.121c2.119 1.953 1.321 2.4 5.127 6.363 4.34 4.516 7.328 4.6 8.178 4.185.719-.351-.742-2.745-2.361-5.437-.079-.13-.155-.261-.236-.393-.215-.358-.43-.721-.644-1.081-1.9-3.24-1.41-4.76-.961-9.581.366-3.918 6.1-21.888 6.1-21.888l-8.317-1.433s-2.5 14.31-5.264 16.513c-1.476 1.174-3.127 1.189-4.545 2.06q-.151.09-.295.186a10.912 10.912 0 0 0-2.279 1.831z" class="prefix__cls-5" data-name="Path 8150" transform="translate(-1205.044 -1222.781)"/>
                <path id="prefix__Path_8151" d="M1258.131 1448.72a2.3 2.3 0 0 0-.41 2.454.021.021 0 0 0 .006.012c.725 1.634 2.632 3.452 4.828 5.27.287.238.54.457.766.662.059.052.118.1.174.156s.09.083.134.12c2.119 1.953 1.321 2.4 5.127 6.363 4.34 4.516 7.328 4.6 8.178 4.185.719-.35-.742-2.745-2.361-5.437a18.487 18.487 0 0 1-7.736-5.7c-2.613-3.335-4.356-7.619-6.135-10.1q-.151.091-.3.186a10.916 10.916 0 0 0-2.271 1.829z" class="prefix__cls-6" data-name="Path 8151" transform="translate(-1209.618 -1254.014)"/>
                <path id="prefix__Path_8152" d="M1068.348 1408.037c.514 2.567 4.173 2.139 8.261 1.14s3.116.189 8.935-.455 7.581-2.814 7.759-3.679c.159-.768-2.716-1.038-5.8-1.394-.388-.043-.778-.091-1.167-.14-3.482-.437-6.031-2.683-9.194-4.528-3-1.748-7.466-8.869-7.466-8.869l-7.98.632s4.188 6.36 5.807 9.125c.952 1.627.9 3.777.783 5.438a10.231 10.231 0 0 0 .062 2.73z" class="prefix__cls-5" data-name="Path 8152" transform="translate(-952.774 -1218.525)"/>
                <path id="prefix__Path_8153" d="M1070.08 1431.94c4.088-1 3.116.189 8.935-.455s7.581-2.814 7.759-3.679c.159-.768-2.716-1.038-5.8-1.394l-.029.059a16.406 16.406 0 0 1-8.333 2.591c-3.947.1-8.129-1.036-10.855-.992a10.231 10.231 0 0 0 .062 2.73c.513 2.568 4.173 2.139 8.261 1.14z" class="prefix__cls-6" data-name="Path 8153" transform="translate(-946.244 -1241.288)"/>
                <path id="prefix__Path_8154" d="M1140.336 1114.595s1.9-4.658 3.993-4.848 8.746-1.236 9.221-.285 0 4.373-1.426 5.609-10.267 3.232-10.267 3.232z" class="prefix__cls-5" data-name="Path 8154" transform="translate(-1042.517 -1042.286)"/>
                <path id="prefix__Path_8155" d="M1238.013 1279.842l-17.2 46.283a15.75 15.75 0 0 1-5.175-.474 22.281 22.281 0 0 1-5-2.435s4.266-44.44 12.088-53.683 15.287 10.309 15.287 10.309z" class="prefix__cls-6" data-name="Path 8155" transform="translate(-1153.019 -1141.354)"/>
                <path id="prefix__Path_8156" d="M1122.2 1228.188s49.417-16.709 60.438-13.154 44.112 69.391 44.112 69.391a6.388 6.388 0 0 1-2.785 1.758c-1.9.711-6.486.666-6.486.666s-29.863-25.6-33.418-33.063-4.977-14.576-8.533-13.865-45.862 17.42-55.46 7.466-7.089-22.888-7.089-22.888z" class="prefix__cls-7" data-name="Path 8156" transform="translate(-1105.233 -1108.425)"/>
                <path id="prefix__Path_8157" d="M1342.557 972.016c.789-1.629 1.671-4.523 2.1-9.682-.066.512-.955 7.019-3.457 10.7-10.277 6.747-29.976 29.277-29.586 33.547 0 0-6.938-11.768-7.058-11.839 0 0-12.8-16.276 2.37-25.6 7.71-4.738 7.671-10.82 7.349-16.1s2.1-28.024 17.547-22.072c0 0 2.478-1.1 3.588-.936a3.033 3.033 0 0 0-1.368.649 11.987 11.987 0 0 1 6.486 1.241c5.665 3.217 10.732 32.082 2.029 40.092z" class="prefix__cls-8" data-name="Path 8157" transform="translate(-1295.387 -929.985)"/>
                <path id="prefix__Path_8158" d="M1331.877 1020.741c.051.023-4.962 2.626-8.733 1.595-3.547-.967-5.865-5.566-5.816-5.577 1.5-.3 1.935-2.362 1.9-11.234l.679.134 11.419 2.261s-.26 3.593-.268 6.979c-.004 2.843.169 5.539.819 5.842z" class="prefix__cls-5" data-name="Path 8158" transform="translate(-1286.669 -977.355)"/>
                <path id="prefix__Path_8159" d="M1330.216 1008.146s-.26 3.593-.268 6.979c-6.39-.18-9.767-6.009-11.151-9.24z" data-name="Path 8159" transform="translate(-1285.556 -977.581)" style="fill:#ed975d"/>
                <path id="prefix__Path_8160" d="M1303.763 963.1s-3.349-5.291-4.152-9.815c-.574-3.23 1.071-15.2 13.1-13.478a16.342 16.342 0 0 1 6.779 2.563c2.612 1.764 6.382 5.573 2.167 16.021l-1.095 3.529z" class="prefix__cls-8" data-name="Path 8160" transform="translate(-1271.701 -936.036)"/>
                <path id="prefix__Path_8161" d="M1314.871 977.646s-15.118.249-15.129-9.168-1.969-15.727 7.683-16.285 11.532 3.034 12.3 6.177-.925 18.968-4.854 19.276z" class="prefix__cls-5" data-name="Path 8161" transform="translate(-1268.077 -943.875)"/>
                <path id="prefix__Path_8162" d="M1334.175 948.452s-4.139 11.048-10.492 12.682-9.108-.069-9.108-.069a17.99 17.99 0 0 0 5.884-10.628s10.594-7.243 13.716-1.985z" class="prefix__cls-8" data-name="Path 8162" transform="translate(-1287.941 -940.366)"/>
                <path id="prefix__Path_8163" d="M1296.8 951.047s3.091 2.466 3.845 4.865 1.093 7.335 2.532 7.167c0 0 3.119-7.509-.386-11.758-3.718-4.505-5.991-.274-5.991-.274z" class="prefix__cls-8" data-name="Path 8163" transform="translate(-1251.591 -942.063)"/>
                <path id="prefix__Path_8164" d="M1289.11 1116.259c.816 2.264 3.316 2.846 6.667 2.453 6.39-.747 15.883-5.037 22.724-8 10.428-4.52 15.169-.273 18.488-3.15s-3.792-9.275 2.37-38.981c2.091-10.073-11.154-31.671-11.154-31.671s-1.145 6.253-13.816-1.268c-.448-.265-5.435 7.12-10.239 16.224-5.3 10.045-10.367 22.178-8.877 28.431 2.844 11.915-8.533 29.384-6.163 35.962z" class="prefix__cls-10" data-name="Path 8164" transform="translate(-1283.73 -996.234)"/>
                <path id="prefix__Path_8165" d="M1167.531 1039.05l7.812 32.045s.972 1.731 2.5 4.193c3.577 5.783 10.2 15.608 14.435 16.605 2.091.493 6.537-1.247 11.457-3.733a232.714 232.714 0 0 0 20.3-12.067c.711-4.267-3-7.744-3-7.744s-22.28 8.374-24.494 8.533c-4.824.344-9.732-22.937-14.24-30.694-3.26-5.609-14.77-7.138-14.77-7.138z" class="prefix__cls-10" data-name="Path 8165" transform="translate(-1123.057 -998.378)"/>
                <path id="prefix__Path_8166" d="M1306.85 1003.949s.282 1.2 3.258 1.012c0 0 2.5-.154 2.422-1.469a8.039 8.039 0 0 0-5.68.457z" data-name="Path 8166" transform="translate(-1263.417 -975.888)" style="fill:#fff"/>
                <path id="prefix__Path_8167" d="M1344.05 1163.157c.815 2.264 3.316 2.846 6.667 2.453 4.423-1.927 23.53-9.329 23.316-14.345-.317-7.426-3.674-7.663-1.3-16.828 1.9-7.359-15.751-21.044-18.567-24.018-5.3 10.045-5.441 10.52-3.951 16.773 2.841 11.919-8.536 29.388-6.165 35.965z" class="prefix__cls-12" data-name="Path 8167" transform="translate(-1338.67 -1043.133)"/>
                <path id="prefix__Path_8168" d="M1222.22 1134.079c3.577 5.783 10.2 15.608 14.435 16.605 2.091.493 6.537-1.247 11.457-3.733a29.767 29.767 0 0 1-10.469.574c-3.674-.356-4.74-4.859-10.547-11.614-3.767-4.38-4.696-3.278-4.876-1.832z" class="prefix__cls-12" data-name="Path 8168" transform="translate(-1167.437 -1057.169)"/>
                <path id="prefix__Path_8169" d="M1312.969 1171.008s3.2-2.489 6.222-1.9 4.5 2.666 4.385 3.615-1.718 3.614-4.029 3.851-8.888-1.422-8.888-1.422z" class="prefix__cls-5" data-name="Path 8169" transform="translate(-1275.887 -1079.881)"/>
                <path id="prefix__Path_8170" d="M1366.546 1035.649s-12.322.759-16.587 6.709c-6 8.375-16.433 42.566-13.59 50.387l37.489-.158s.908-4.247-.356-6.3-21.806-5.373-22.754-6.321 11.851-18.488 11.851-21.332 3.947-22.985 3.947-22.985z" class="prefix__cls-10" data-name="Path 8170" transform="translate(-1335.888 -996.246)"/>
            </g>
            <g id="prefix__Group_14058" data-name="Group 14058" transform="translate(26.195 76.596)">
                <g id="prefix__Group_14057" data-name="Group 14057">
                    <path id="prefix__Path_8171" d="M1186.846 1163.918h45.386l8.182-28.532H1195.1z" data-name="Path 8171" transform="translate(-1172.743 -1135.386)" style="fill:#3b4685"/>
                    <path id="prefix__Rectangle_1195" d="M0 0H59.334V1.111H0z" data-name="Rectangle 1195" transform="translate(0 27.421)" style="fill:#283167"/>
                </g>
                <path id="prefix__Path_8172" d="M1250.942 1169.345a1.322 1.322 0 0 0-1.3-1.816 2.6 2.6 0 0 0-2.337 1.816 1.322 1.322 0 0 0 1.3 1.817 2.6 2.6 0 0 0 2.337-1.817z" class="prefix__cls-7" data-name="Path 8172" transform="translate(-1205.864 -1155.542)"/>
            </g>
        </g>
    </g>
</svg>
