<svg xmlns="http://www.w3.org/2000/svg" width="160.434" height="204.004" viewBox="0 0 160.434 204.004">
    <defs>
        <style>
            .prefix__cls-2{fill:#303030}.prefix__cls-3{fill:#001f26}.prefix__cls-4{fill:#0089a9}.prefix__cls-6{fill:#004555}.prefix__cls-9{fill:#1e1e1e}.prefix__cls-10{fill:#fd5e5a}.prefix__cls-12{fill:#d80000}.prefix__cls-15{fill:#fc7575}.prefix__cls-19{fill:#2e0a29}.prefix__cls-20{fill:#450f3d}.prefix__cls-22{fill:#464a7f}.prefix__cls-24{fill:#363a68}.prefix__cls-25{fill:#5c1451}.prefix__cls-27{fill:#603e6b}.prefix__cls-28{fill:#a338c6}
        </style>
    </defs>
    <g id="prefix__Group_14560" data-name="Group 14560">
        <g id="prefix__Group_14544" data-name="Group 14544" transform="translate(119.099 152.813)">
            <path id="prefix__Rectangle_1351" fill="#4c505e" d="M0 0H4.81V30.789H0z" data-name="Rectangle 1351"/>
        </g>
        <path id="prefix__Path_9417" d="M1245.8 1210.672v3.688c0 2.469 2.3 4.472 5.141 4.472h.572v4.159a2.038 2.038 0 0 0 2.165 1.883h8.479a2.038 2.038 0 0 0 2.164-1.883v-4.362a4.594 4.594 0 0 0 3.608-4.269v-3.688z" class="prefix__cls-2" data-name="Path 9417" transform="translate(-1136.695 -1074.041)"/>
        <path id="prefix__Rectangle_1352" d="M0 0H6.21V7.265H0z" class="prefix__cls-2" data-name="Rectangle 1352" transform="translate(118.506 150.832)"/>
        <g id="prefix__Group_14545" data-name="Group 14545" transform="translate(95.305 183.149)">
            <path id="prefix__Path_9418" d="M1262.637 1296.039h-6.281v-9.685h6.281z" class="prefix__cls-3" data-name="Path 9418" transform="translate(-1233.191 -1286.354)"/>
            <path id="prefix__Path_9419" d="M1266.575 1305.16l23.165-11.778v5.365l-16.61 6.413v1.178h-6.555z" class="prefix__cls-3" data-name="Path 9419" transform="translate(-1266.575 -1289.063)"/>
            <path id="prefix__Path_9420" d="M1241.833 1305.16l-23.164-11.778v5.365l16.609 6.413v1.178h6.555z" class="prefix__cls-3" data-name="Path 9420" transform="translate(-1189.223 -1289.063)"/>
            <path id="prefix__Path_9421" d="M1257.906 1293.382v12.956h-1.55v.916h6.806v-.916h-1.439l.451-12.956z" class="prefix__cls-3" data-name="Path 9421" transform="translate(-1233.715 -1289.063)"/>
        </g>
        <path id="prefix__Path_9422" d="M1256.123 1080.476v60.993h-33.791l3.008-61.672c.24-5.079 3.191-9.066 6.836-9.4.156-.009.319-.018.481-.018h16.129c4.048.003 7.337 4.521 7.337 10.097z" class="prefix__cls-4" data-name="Path 9422" transform="translate(-1110.459 -1019.98)"/>
        <path id="prefix__Path_9423" fill="#75e0f9" d="M1248.436 1071.7c-.162 0-.324.009-.481.018-3.646.331-6.6 4.318-6.837 9.4l-2.943 60.355h-9.8l3.008-61.672c.24-5.079 3.191-9.066 6.836-9.4.156-.009.319-.018.48-.018h16.129a5.841 5.841 0 0 1 3.624 1.317z" data-name="Path 9423" transform="translate(-1116.5 -1019.98)"/>
        <path id="prefix__Path_9424" d="M1218.854 1070.377h-5.554a10.1 10.1 0 0 1 10.095 10.1v61h5.55v-61a10.1 10.1 0 0 0-10.091-10.1z" class="prefix__cls-6" data-name="Path 9424" transform="translate(-1077.736 -1019.978)"/>
        <g id="prefix__Group_14546" data-name="Group 14546" transform="translate(105.554 25.924)">
            <path id="prefix__Path_9425" fill="#31003d" d="M1287.561 1030.557l-.045.047z" data-name="Path 9425" transform="translate(-1287.515 -1030.557)"/>
        </g>
        <g id="prefix__Group_14547" data-name="Group 14547" transform="translate(97.207)">
            <path id="prefix__Path_9426" fill="#3c4875" d="M1280.732 1017.994a.4.4 0 0 0 .393-.468c-5.168-29.48-31.309-29.143-31.564-29.145a.4.4 0 0 0-.39.409.392.392 0 0 0 .41.39c.261.005 25.709-.309 30.757 28.483a.4.4 0 0 0 .394.331z" data-name="Path 9426" transform="translate(-1249.171 -988.381)"/>
        </g>
        <g id="prefix__Group_14549" data-name="Group 14549" transform="translate(70.34 100.62)">
            <path id="prefix__Path_9434" d="M1268.923 1182.72l-4.81-14.653a10.619 10.619 0 0 1 9.536-13.916l39.621-2.066.279 5.358-39.62 2.065a5.253 5.253 0 0 0-4.719 6.885l4.809 14.653z" class="prefix__cls-9" data-name="Path 9434" transform="translate(-1263.577 -1152.085)"/>
        </g>
        <path id="prefix__Path_9435" d="M1286.109 1206.229h-61.169a11.057 11.057 0 0 1 11.06-11.057h39.057a11.057 11.057 0 0 1 11.056 11.057z" class="prefix__cls-6" data-name="Path 9435" transform="translate(-1142.048 -1068.069)"/>
        <path id="prefix__Path_9436" d="M1306.776 1206.229h-61.17a11.057 11.057 0 0 1 11.056-11.057h39.057a11.057 11.057 0 0 1 11.057 11.057z" class="prefix__cls-4" data-name="Path 9436" transform="translate(-1175.417 -1068.069)"/>
        <path id="prefix__Path_9437" d="M1318.489 1141.155l5.555-2.452a18.079 18.079 0 0 1 5.745-1.374c1.305-.216 2.926-.458 4.97-.752a23.71 23.71 0 0 1-.86 5.518c-.486-.064-.965-.125-1.432-.18-2.4-.281-7.739.108-9.4 2.548s-1.642 4.114-2.167 3.944-.037-2.768.768-4.031a17.792 17.792 0 0 0 1.262-2.344s-2.15 2.494-2.478 3.838-1.018 2.72-1.347 2.614.39-2.488.671-3.919a9.43 9.43 0 0 1 .857-2.527l-1.612.777s-2.314 3.533-2.53 2.682 1.998-4.342 1.998-4.342z" class="prefix__cls-10" data-name="Path 9437" transform="translate(-1246.961 -1045.489)"/>
        <path id="prefix__Path_9438" fill="#b54300" d="M1277.112 1113.283c10.99-1.553 13.672.269 13.672-4.664 0-6.693-7.413-22.586-4.06-27.043.548-.728 4.769-3.659 6.666-1.71 6.473 6.649 9.489 31.247 4.477 39.274-3.075 4.923-15.929 2.1-25.421.849.54-1.84-.094-4.865 0-6.706 1.174-.169 3.19.21 4.666 0z" data-name="Path 9438" transform="translate(-1185.509 -1023.381)"/>
        <path id="prefix__Path_9439" d="M1327.561 1137.683l-6.38 2.451s-2.541 3.49-2.291 4.342 2.9-2.682 2.9-2.682l3.857-1.617z" class="prefix__cls-12" data-name="Path 9439" transform="translate(-1241.235 -1045.915)"/>
        <path id="prefix__Path_9440" d="M1317.672 1139.086s-3.012 3.193-3.012 3.873-.266 2.3-.863 2.3-.61-2.815-.61-3.684a7.333 7.333 0 0 1 1.759-3.3c.254.002 2.726.811 2.726.811z" class="prefix__cls-12" data-name="Path 9440" transform="translate(-1227.852 -1046.144)"/>
        <path id="prefix__Path_9441" d="M1333.95 1279.291c.573.551 3.192-.629 3.192 1.653 0 .768-1.579.874-1.924 3.522-.232 1.782.925 5.972.368 7.555a9.325 9.325 0 0 1-3.44 4.531c0-1.864.9-2.858.9-4.826s-6.183-8.5-6.72-14.955a7.637 7.637 0 0 0-.357-1.562 42.708 42.708 0 0 0 5.2-3.536c1.547 4.451 2.631 7.479 2.781 7.618z" class="prefix__cls-10" data-name="Path 9441" transform="translate(-1255.179 -1097.548)"/>
        <path id="prefix__Path_9442" fill="#3a0049" d="M1318.712 1286.371a4.747 4.747 0 0 1 1.117-2.248c.658.454 3.14-.605 3.14 1.618 0 2.282 4.915 8.658 4.915 8.658l-.983.865s-4.833-8.028-5.242-6.06 2.785 7.949 2.785 7.949l-6.128 5.194-.343-1c0-1.835.869-2.832.9-4.739 2.987-2.301-.607-7.24-.161-10.237z" data-name="Path 9442" transform="translate(-1241.006 -1102.346)"/>
        <path id="prefix__Path_9443" fill="#6d175b" d="M1276.129 1184.441c3.307-8.98 47.149-18.453 47.149-18.453l5.231 1.854 4.687 6.259-43.748 14.121s4.51 30 9.665 45.232c-1.719 1.5-4.66.983-6.718 2.291-3.426-11.181-18.108-46.303-16.266-51.304z" data-name="Path 9443" transform="translate(-1220.5 -1056.822)"/>
        <g id="prefix__Group_14550" data-name="Group 14550" transform="translate(61.466 174.367)">
            <path id="prefix__Path_9444" d="M1340.115 1272.067c2.177.132 4.361.321 6.558.582-.62 4.334-.912 7.807-.379 8.748.414.729.876 1.455 1.322 2.151 1.256 1.96 2.387 3.674 1.963 4.513-.259.51-3.029-.034-4.047 2.444-1.251 3.049-.762 9.165-.762 9.165l-9.369 1.532s-1.3-.585.621-2.479 3.5-2.508 4.12-4.568.057-12.591.057-19.331c.001-.692-.031-1.629-.084-2.757z" class="prefix__cls-15" data-name="Path 9444" transform="translate(-1334.708 -1272.067)"/>
            <path id="prefix__Path_9445" fill="#4f005e" d="M1335.135 1307.611a10.076 10.076 0 0 1 4.229-4.839l2.042 1.383c2.351-2.876 2.315-7.505 3.8-10.435a6.4 6.4 0 0 1 2.676-2.975c1.257 1.96 2.388 3.674 1.964 4.513-.576 1.136-.52 11.343-.52 11.343h-1.411s.846-8.425-.565-8.927-1.749 9.75-1.749 9.75l-10.413 1.477s-.447-.241-.053-1.29z" data-name="Path 9445" transform="translate(-1334.973 -1279.265)"/>
        </g>
        <path id="prefix__Path_9446" fill="#7f71a4" d="M1253.335 1180.323l33.629-7.555 22.606 3.537s2.941 9.524-2.1 13.342c-1.987 1.508-44.571 3.872-44.571 3.872s-6.5 31.367-7.984 41.744c-2.683-.318-7.024-1.073-9.683-1.234-.491-10.529 5.52-52.965 8.103-53.706z" data-name="Path 9446" transform="translate(-1178.818 -1059.435)"/>
        <path id="prefix__Path_9447" fill="#f15900" d="M1248.456 1066.656c-1.863.324-6.234 7.833-7.249 10.458-.2.524-3.083 10.177-.359 13.416s6.6 12.515 8.718 16.959c1 2.1 7.2 10.846-.634 15.564-1.969 1.186-5.278.771-4.256 2.469s23.072 14.422 32.181 11.877 1.787-5.63.937-7.944 3.831-2.854 1.874-5.475-9.238-9.024-13.368-23.124c-.406-1.388-1.458-27.708-3.01-31.869-1.039-2.787-10.653-3.061-14.834-2.331z" data-name="Path 9447" transform="translate(-1146.382 -1018.411)"/>
        <g id="prefix__Group_14553" data-name="Group 14553" transform="translate(85.26 16.237)">
            <path id="prefix__Path_9448" d="M1280.582 1018.36c.775.315 5.955-2.553 12.48.693 6.369 3.168 8.546 14.08 9.038 19.662a10.742 10.742 0 0 1-.22 3.425 17.043 17.043 0 0 0-5.234 1.185c-2.54 1.073-6.422 3.049-9.376 3.691-3.015.655-10.613-14.833-10.292-19.813a16.912 16.912 0 0 1 3.604-8.843z" class="prefix__cls-19" data-name="Path 9448" transform="translate(-1275.322 -1015.835)"/>
            <path id="prefix__Path_9449" d="M1303.179 1018.905s-5.224 2.634-5.252 7.159 6.107 16.553 2.725 18.356a6.77 6.77 0 0 0 3.306-.161s1.473 1.225.214 4.33a18.617 18.617 0 0 0 5.695-1.028c.187-.07 2.382-.262 1.931-2.009-.533-2.068-3.78-5.871-4.3-7.871-2.198-8.473-4.319-18.776-4.319-18.776z" class="prefix__cls-20" data-name="Path 9449" transform="translate(-1297.919 -1016.38)"/>
            <path id="prefix__Path_9450" fill="#340b2e" d="M1303.076 1020.16a6.329 6.329 0 0 0-1.536.792s-4.419 4.175-3.2 8.128 2.318 5.249 2.837 7.908c.818 4.178 6.057 10.547 10.3 8.839-.681-2.106-3.735-5.728-4.237-7.663-1.845-7.089-3.631-15.458-4.164-18.004z" data-name="Path 9450" transform="translate(-1297.655 -1016.864)"/>
            <path id="prefix__Path_9451" d="M1290.513 1051.614l4.711 9.067s-3.687 12.92-10.577 11.569a12.133 12.133 0 0 0 2.706-5.9c.35-2.855-.98-6.478-2.4-11.091-.693-2.28 5.56-3.645 5.56-3.645z" class="prefix__cls-15" data-name="Path 9451" transform="translate(-1273.12 -1028.985)"/>
            <path id="prefix__Path_9452" d="M1293.333 1051.614l2.86 5.506a6.973 6.973 0 0 1-7.9-.2c-.727-1.815-.131-.918-.517-1.659-1.097-2.118 5.557-3.647 5.557-3.647z" class="prefix__cls-10" data-name="Path 9452" transform="translate(-1275.94 -1028.985)"/>
            <path id="prefix__Path_9453" d="M1292.433 1020.289s-4.168 3.969-3 7.751 2.217 5.026 2.722 7.569 3.943 8.55 8.3 8.751 7.021-7.872 6.848-10.982a23.81 23.81 0 0 0-3.956-11.193c-2.581-3.99-8.447-3.7-10.914-1.896z" class="prefix__cls-15" data-name="Path 9453" transform="translate(-1288.031 -1016.425)"/>
            <path id="prefix__Path_9454" d="M1306.18 1038.773a14.45 14.45 0 0 0 1.13-5.394 23.814 23.814 0 0 0-3.956-11.193c-2.588-3.991-8.451-3.7-10.921-1.9 0 0-4.168 3.969-3 7.751.391 1.268.77 2.25 1.118 3.091l4.609-1.919s-1.783-3.854-1.233-5.209l1.95 4.705 3.209-1.183a9.58 9.58 0 0 0-.376-4.327 11.407 11.407 0 0 1 .933 4.128s2.173-.972 2.735.358c.458 1.088 3.068 8.011 3.561 9.918a11.105 11.105 0 0 1 .241 1.174z" class="prefix__cls-10" data-name="Path 9454" transform="translate(-1288.031 -1016.425)"/>
            <path id="prefix__Path_9455" d="M1269.23 1022.86c.44-2.476 2.795-4.51 5.148-5.54 3.184-2.968 10.4-4.391 17.055 1.912 3.83 3.628 10.526 18.857 9.148 18.787-.138-.007-4.906 3.083-4.906 3.083l-.1-2.609c-.276.68-1.384 1.308-2.79 1.852a8.328 8.328 0 0 0-.986-5.564 8.688 8.688 0 0 1-.578 6.1 57.505 57.505 0 0 1-6.44 1.513c.012-.062 2.669-5.087 1.737-8.681-.494-1.906-2.211-6.713-2.67-7.8-.563-1.33-2.91-.731-2.91-.731.133-1.623-1.691-4.6-1.691-4.6a16.79 16.79 0 0 1 .784 4.979l-3.115 1.316-2.3-5.443c-.551 1.355 1 5.992 1 5.992l-4.44 1.727a7.265 7.265 0 0 1-1.946-6.293z" class="prefix__cls-22" data-name="Path 9455" transform="translate(-1269.116 -1014.797)"/>
            <path id="prefix__Path_9456" fill="#3b4999" d="M1273.137 1018.332c5.5-2.421 9.951-2.652 13.926 1.9 3.844 4.365 9.707 14.308 9.861 20.124l-2.618 1.455c.16-4.741-3.905-15.413-6.684-19.292-3.477-4.864-6.467-7.141-14.485-4.187z" data-name="Path 9456" transform="translate(-1267.748 -1015.503)"/>
            <g id="prefix__Group_14551" data-name="Group 14551" transform="translate(.885 3.106)">
                <path id="prefix__Path_9457" d="M1316.881 1020.476c-1.7 1.293-3.451 3.054-3.626 5.175-.166 1.959.924 3.739 1.953 5.387l.473-.185c-2.324-3.421-3.897-6.204 1.2-10.377z" class="prefix__cls-24" data-name="Path 9457" transform="translate(-1313.238 -1020.092)"/>
                <path id="prefix__Path_9458" d="M1313.436 1020.58c-3.32 3.178-2.013 6.181.38 9.6l.468-.183c-2.643-3.244-4.078-6.146-.848-9.417z" class="prefix__cls-24" data-name="Path 9458" transform="translate(-1309.535 -1020.132)"/>
                <path id="prefix__Path_9459" d="M1305.388 1019.851c2.407 2.575 3.082 5.176 3.471 8.512l.448-.189c-.578-3.274-1.441-5.905-3.919-8.323z" class="prefix__cls-24" data-name="Path 9459" transform="translate(-1300.838 -1019.851)"/>
            </g>
            <path id="prefix__Path_9460" d="M1304.647 1046.346a5.487 5.487 0 0 0-.614-3.572 11.235 11.235 0 0 1 .242 3.592l-.055.164a2.4 2.4 0 0 0 1.772.1 3.648 3.648 0 0 1-1.345-.284z" class="prefix__cls-20" data-name="Path 9460" transform="translate(-1295.806 -1025.578)"/>
            <path id="prefix__Path_9461" d="M1300.315 1036.143a2.7 2.7 0 0 1 1.026-1.118c.782-.509 2.978-.207 2.978-.207a16.638 16.638 0 0 0-2.5.414 3.942 3.942 0 0 0-1.109 1z" class="prefix__cls-25" data-name="Path 9461" transform="translate(-1291.848 -1022.478)"/>
            <path id="prefix__Path_9462" d="M1313.984 1038.65a2.482 2.482 0 0 0-1.306-.2c-.81.067-2.149 1.376-2.149 1.376a14.658 14.658 0 0 1 1.933-1 3.624 3.624 0 0 1 1.3.088z" class="prefix__cls-25" data-name="Path 9462" transform="translate(-1307.792 -1023.906)"/>
            <path id="prefix__Path_9463" d="M1302.328 1040.053a.492.492 0 1 0 .222-.757.57.57 0 0 0-.222.757z" class="prefix__cls-22" data-name="Path 9463" transform="translate(-1292 -1024.229)"/>
            <path id="prefix__Path_9464" d="M1311.137 1043.409a.492.492 0 1 0 .221-.756.568.568 0 0 0-.221.756z" class="prefix__cls-22" data-name="Path 9464" transform="translate(-1306.221 -1025.522)"/>
            <path id="prefix__Path_9465" d="M1300.728 1054.49a2.157 2.157 0 0 1-1.129.706 1.1 1.1 0 0 0 1.129-.706z" class="prefix__cls-19" data-name="Path 9465" transform="translate(-1287.816 -1030.093)"/>
            <g id="prefix__Group_14552" data-name="Group 14552" transform="translate(8.701 20.81)">
                <path id="prefix__Path_9466" fill="#fff" d="M1303.724 1048.654a15.441 15.441 0 0 1-4.284 2.771 5.32 5.32 0 0 0 .864.565 15.313 15.313 0 0 0 3.422-2.2 6.7 6.7 0 0 0-.002-1.136z" data-name="Path 9466" transform="translate(-1299.44 -1048.654)"/>
                <path id="prefix__Path_9467" d="M1302.9 1050.505a15.321 15.321 0 0 1-3.422 2.2c1.98 1.022 3.222.055 3.422-2.2z" class="prefix__cls-19" data-name="Path 9467" transform="translate(-1298.613 -1049.367)"/>
            </g>
            <path id="prefix__Path_9468" d="M1299.345 1040.067a2.5 2.5 0 0 1 1.707-1.26c.861-.144 1.559.341 2.1.252-.681.467-1.253-.278-2.947.461a3.379 3.379 0 0 0-.86.547z" class="prefix__cls-19" data-name="Path 9468" transform="translate(-1290.081 -1024.039)"/>
            <path id="prefix__Path_9469" d="M1312.96 1042.646a2.5 2.5 0 0 0-2.122.008c-.775.4-1.049 1.2-1.532 1.452.825-.031.84-.97 2.642-1.388a3.367 3.367 0 0 1 1.012-.072z" class="prefix__cls-19" data-name="Path 9469" transform="translate(-1306.015 -1025.439)"/>
            <path id="prefix__Path_9470" d="M1295.138 1043.638c.228.612 1.214.809 2.2.44s1.6-1.163 1.375-1.774-1.214-.808-2.2-.44-1.603 1.163-1.375 1.774z" class="prefix__cls-10" data-name="Path 9470" transform="translate(-1283.08 -1025.156)"/>
            <path id="prefix__Path_9471" d="M1308.885 1048.506a1.131 1.131 0 0 0 1.5.4c.656-.245 1.048-.82.875-1.285a1.133 1.133 0 0 0-1.5-.4c-.66.246-1.048.821-.875 1.285z" class="prefix__cls-10" data-name="Path 9471" transform="translate(-1304.074 -1027.25)"/>
        </g>
        <path id="prefix__Path_9472" d="M1300.674 1142.375c1.543-6.859 8.918-6.866 11.5-7.237 1.031-.149 2.245-.311 3.656-.492a19.654 19.654 0 0 1 1.465 5.3c-.7-.082-1.38-.158-2.042-.225-2.759-.28-8.89.107-10.8 2.548s-1.886 4.114-2.49 3.945-.041-2.768.883-4.032a17.153 17.153 0 0 0 1.449-2.343s-2.47 2.492-2.847 3.839-1.167 2.719-1.547 2.613.452-2.485.773-3.916z" class="prefix__cls-15" data-name="Path 9472" transform="translate(-1219.249 -1044.744)"/>
        <g id="prefix__Group_14559" data-name="Group 14559" transform="translate(0 49.9)">
            <path id="prefix__Path_9485" d="M1408.5 1158.936h16.41a2.586 2.586 0 0 0-2.586-2.586H1408.5z" class="prefix__cls-27" data-name="Path 9485" transform="translate(-1393.681 -1103.008)"/>
            <g id="prefix__Group_14558" data-name="Group 14558">
                <path id="prefix__Path_9486" d="M1388.393 1069.565h1.111L1405.65 1114l-48.51-.666z" class="prefix__cls-28" data-name="Path 9486" transform="translate(-1342.846 -1069.565)"/>
                <path id="prefix__Path_9487" d="M1405.82 1069.565l15.331 43.77h-47.1l-13.776-37.549z" class="prefix__cls-27" data-name="Path 9487" transform="translate(-1360.272 -1069.565)"/>
                <path id="prefix__Path_9488" d="M1418.627 1116.472l-.444-2.445-4.813 6.519-4.3 16.589v3.777l1.334.444a36.643 36.643 0 0 1 1.7-7.406c1.117-2.667 6.523-17.478 6.523-17.478z" class="prefix__cls-28" data-name="Path 9488" transform="translate(-1387.744 -1086.699)"/>
                <path id="prefix__Path_9489" fill="#3a0051" d="M1424.35 1114.027s-10.332 24.774-7.776 27.329h-6.774l9.222-27.329z" data-name="Path 9489" transform="translate(-1393.911 -1086.699)"/>
            </g>
            <path id="prefix__Rectangle_1359" d="M0 0H43.42V3.109H0z" class="prefix__cls-27" data-name="Rectangle 1359" transform="translate(32.958 52.818)"/>
        </g>
        <path id="prefix__Path_9626" d="M1247.342 1159.2l-13.25 31.917-28.038-.07-7.215-19.481a10.542 10.542 0 0 1 1.427-9.453 11.039 11.039 0 0 1 8.48-4.481l35.582-1.856a2.911 2.911 0 0 1 3.014 3.424zm-5.3 2.068l-33.387 1.74a5.254 5.254 0 0 0-4.718 6.885l6.734 16.753h20.476z" class="prefix__cls-9" data-name="Path 9626" transform="translate(-1086.955 -1052.885)"/>
        <path id="prefix__Path_9627" fill="#f47a33" d="M1257.97 1106.932c12.622-1.553 15.525 1.018 15.525-3.915 0-6.693-9.514-25.6-6.836-32.254.376-.937 2.391-3.585 4.569-1.637 7.434 6.649 16.158 36.386 10.4 44.412-3.489 4.864-17.939 2.167-28.8.9-.122-1.864-2.3-5.049-2.913-6.751 1.825-.239 5.436-.432 8.055-.755z" data-name="Path 9627" transform="translate(-1154.785 -1019.227)"/>
    </g>
</svg>
