<svg xmlns="http://www.w3.org/2000/svg" width="52.121" height="46.5" viewBox="0 0 52.121 46.5">
  <path id="Logo" d="M57.039,56a4.133,4.133,0,0,0-3.494,2.026l-11.022,19.2a4.186,4.186,0,0,0,0,4.053l11.022,19.2a4.133,4.133,0,0,0,3.494,2.026H79.082a4.133,4.133,0,0,0,3.494-2.026L93.6,81.276a4.186,4.186,0,0,0,0-4.053l-11.022-19.2A4.133,4.133,0,0,0,79.082,56Zm.2,11.231a.477.477,0,0,1,.092,0h3.8a.5.5,0,0,1,.416.248L68,79a.5.5,0,0,1,.061.186A.5.5,0,0,1,68.122,79l6.434-11.524a.5.5,0,0,1,.431-.248h3.8a.521.521,0,0,1,.431.727l-6.3,11.292,6.3,11.277a.522.522,0,0,1-.431.743h-3.8a.5.5,0,0,1-.431-.263L68.122,79.482a.5.5,0,0,1-.061-.186.5.5,0,0,1-.061.186l-6.45,11.524a.5.5,0,0,1-.416.263h-3.8a.522.522,0,0,1-.431-.743L63.2,79.25,56.9,67.958a.52.52,0,0,1,.339-.727Z" transform="translate(-42 -56)" fill="#a5adc0" fill-rule="evenodd"/>
</svg>
