<svg id="Layer_1" data-name="Layer 1" xmlns="http://www.w3.org/2000/svg" viewBox="0 0 407.08 148.36"><defs><style>.cls-1{fill:#00376e;}.cls-2{fill:#0093dd;}</style></defs><title>YorHero</title><path class="cls-1" d="M36.59,43.45,51.37,67.77,66.14,43.45H80.21L57.78,78.16l-.07,27.21L45,105.13v-27L22.44,43.45Z"/><path class="cls-1" d="M116.72,52.32a22.91,22.91,0,0,0-9.21-6.58q-5.81-2.4-14.63-2.4a55.79,55.79,0,0,0-5.65.28l-24.05,37a48.89,48.89,0,0,0,1,5.81A24.25,24.25,0,0,0,69,96.22a23.18,23.18,0,0,0,9.21,6.62q5.81,2.43,14.71,2.44t14.63-2.44a23.18,23.18,0,0,0,9.21-6.62,24.25,24.25,0,0,0,4.76-9.83,54.64,54.64,0,0,0,0-24.23A24.29,24.29,0,0,0,116.72,52.32ZM109.1,82.13a17.68,17.68,0,0,1-2.25,6.73,12.71,12.71,0,0,1-5,4.73,19,19,0,0,1-8.94,1.78,19.21,19.21,0,0,1-9-1.78,12.62,12.62,0,0,1-5.07-4.73,17.68,17.68,0,0,1-2.25-6.73,61.4,61.4,0,0,1,0-15.64,17.68,17.68,0,0,1,2.25-6.73A12.62,12.62,0,0,1,83.9,55a19.21,19.21,0,0,1,9-1.78A19,19,0,0,1,101.82,55a12.71,12.71,0,0,1,5,4.73,17.68,17.68,0,0,1,2.25,6.73,61.4,61.4,0,0,1,0,15.64Z"/><path class="cls-2" d="M203.46,53.77h8.72l-3.05,17.28h16.53l3.05-17.28h8.72l-7.29,41.37h-8.72l3-17.28H207.93l-3.05,17.28h-8.72Z"/><path class="cls-2" d="M269.82,77.86H246.53c-.14,3.62.42,6.22,1.68,7.82s3.4,2.39,6.41,2.39h14l-1.25,7.07H251q-8.4,0-11.82-5.32t-1.65-15.36q1.77-10,7.07-15.37t13.69-5.32H274.7l-1.25,7.08h-14a19.53,19.53,0,0,0-3.05.26,8.42,8.42,0,0,0-3.18,1.28,10.81,10.81,0,0,0-3,3,21.54,21.54,0,0,0-2.5,5.61H271Z"/><path class="cls-2" d="M282.72,78.87l-2.87,16.27h-8.72l7.29-41.37H302a15.25,15.25,0,0,1,4.89.72,7.61,7.61,0,0,1,5.31,6.12,16.12,16.12,0,0,1-.13,5.71,17.13,17.13,0,0,1-2,5.8,14.19,14.19,0,0,1-2.8,3.53,10.6,10.6,0,0,1-2.88,1.89,17.74,17.74,0,0,1-2.24.8l5.91,16.8H297.71l-5.53-16.27Zm1.15-6.54h10.21a12,12,0,0,0,2.6-.27,6.12,6.12,0,0,0,2.21-.93,5.78,5.78,0,0,0,1.69-1.75,7.56,7.56,0,0,0,1-2.79,6.38,6.38,0,0,0,0-2.77A3.54,3.54,0,0,0,300.49,62a4.32,4.32,0,0,0-1.88-.93,11.32,11.32,0,0,0-2.51-.26H285.9Z"/><path class="cls-2" d="M316.2,66.11a20.82,20.82,0,0,1,4.47-6.75,19.85,19.85,0,0,1,7.12-4.52,29,29,0,0,1,10.39-1.65,24.22,24.22,0,0,1,9.76,1.65,12.17,12.17,0,0,1,5.53,4.52,13.92,13.92,0,0,1,2.08,6.75,35.79,35.79,0,0,1-.54,8.35,39.6,39.6,0,0,1-2.39,8.29,21,21,0,0,1-4.46,6.75A20.32,20.32,0,0,1,341,94.05a28.41,28.41,0,0,1-10.35,1.68,24,24,0,0,1-9.8-1.68,12.34,12.34,0,0,1-5.53-4.55,13.92,13.92,0,0,1-2.08-6.75,35.16,35.16,0,0,1,.53-8.29A40.25,40.25,0,0,1,316.2,66.11Zm14.4-4.89a11.18,11.18,0,0,0-4.06,3.24,14.55,14.55,0,0,0-2.35,4.63,43.84,43.84,0,0,0-1.3,5.37,42.83,42.83,0,0,0-.6,5.37,10.78,10.78,0,0,0,.73,4.62,6.75,6.75,0,0,0,2.91,3.25,11.87,11.87,0,0,0,5.95,1.22,14.44,14.44,0,0,0,6.36-1.22,11.38,11.38,0,0,0,4-3.25,14.5,14.5,0,0,0,2.35-4.62,44.74,44.74,0,0,0,1.3-5.37,43.24,43.24,0,0,0,.6-5.37,10.83,10.83,0,0,0-.73-4.63,6.72,6.72,0,0,0-2.88-3.24A11.66,11.66,0,0,0,337,60,14.46,14.46,0,0,0,330.6,61.22Z"/><path class="cls-1" d="M354,43.63H199.25A30.61,30.61,0,0,0,169.72,82.3h11.45a30.68,30.68,0,0,1-1.07-8c0-16,12.37-27,27.48-27H346.64c15.11,0,26.53,10.94,26.53,27s-12.17,27.4-27.28,27.4L203,101.93l-19.32-.25s-9.31-.25-16.06-4.5-15.07-16.09-15.07-16.09,15-2.79,15-17.66-11.59-18.91-11.59-18.91a12.17,12.17,0,0,0-2.34-.78c-1.52-.35-3.52-.56-4.57-.69-2-.25-32.62,0-32.62,0l8.5,10.34h22.62s9.05-.79,9.05,10c0,8.83-8.25,8.41-8.25,8.41l-19.17-.08,22.12,26.65s4.19,4.64,8.63,5.76A48.74,48.74,0,0,0,170,105.22c3.75.12,8.56.13,13.34.17,9.95.07,19.83-.09,19.83-.09V105l.07.34,151.31-.18c16.91,0,30.13-14,30.13-30.88A30.6,30.6,0,0,0,354,43.63Z"/></svg>